<svg width="2722" height="2168" xmlns="http://www.w3.org/2000/svg" xmlns:xlink="http://www.w3.org/1999/xlink" xml:space="preserve" overflow="hidden"><defs><filter id="fx0" x="-10%" y="-10%" width="120%" height="120%" filterUnits="userSpaceOnUse" primitiveUnits="userSpaceOnUse"><feComponentTransfer color-interpolation-filters="sRGB"><feFuncR type="discrete" tableValues="0 0"/><feFuncG type="discrete" tableValues="0 0"/><feFuncB type="discrete" tableValues="0 0"/><feFuncA type="linear" slope="0.4" intercept="0"/></feComponentTransfer><feGaussianBlur stdDeviation="1.54498 1.54498"/></filter><filter id="fx1" x="-10%" y="-10%" width="120%" height="120%" filterUnits="userSpaceOnUse" primitiveUnits="userSpaceOnUse"><feComponentTransfer color-interpolation-filters="sRGB"><feFuncR type="discrete" tableValues="0 0"/><feFuncG type="discrete" tableValues="0 0"/><feFuncB type="discrete" tableValues="0 0"/><feFuncA type="linear" slope="0.4" intercept="0"/></feComponentTransfer><feGaussianBlur stdDeviation="1.54498 1.54498"/></filter><filter id="fx2" x="-10%" y="-10%" width="120%" height="120%" filterUnits="userSpaceOnUse" primitiveUnits="userSpaceOnUse"><feComponentTransfer color-interpolation-filters="sRGB"><feFuncR type="discrete" tableValues="0 0"/><feFuncG type="discrete" tableValues="0 0"/><feFuncB type="discrete" tableValues="0 0"/><feFuncA type="linear" slope="0.4" intercept="0"/></feComponentTransfer><feGaussianBlur stdDeviation="1.54498 1.54498"/></filter><filter id="fx3" x="-10%" y="-10%" width="120%" height="120%" filterUnits="userSpaceOnUse" primitiveUnits="userSpaceOnUse"><feComponentTransfer color-interpolation-filters="sRGB"><feFuncR type="discrete" tableValues="0 0"/><feFuncG type="discrete" tableValues="0 0"/><feFuncB type="discrete" tableValues="0 0"/><feFuncA type="linear" slope="0.4" intercept="0"/></feComponentTransfer><feGaussianBlur stdDeviation="1.54498 1.54498"/></filter><filter id="fx4" x="-10%" y="-10%" width="120%" height="120%" filterUnits="userSpaceOnUse" primitiveUnits="userSpaceOnUse"><feComponentTransfer color-interpolation-filters="sRGB"><feFuncR type="discrete" tableValues="0 0"/><feFuncG type="discrete" tableValues="0 0"/><feFuncB type="discrete" tableValues="0 0"/><feFuncA type="linear" slope="0.4" intercept="0"/></feComponentTransfer><feGaussianBlur stdDeviation="1.54498 1.54498"/></filter><clipPath id="clip5"><rect x="45" y="35" width="165" height="61"/></clipPath><clipPath id="clip6"><rect x="45" y="35" width="139" height="71"/></clipPath><clipPath id="clip7"><rect x="43" y="37" width="251" height="69"/></clipPath><clipPath id="clip8"><rect x="39" y="39" width="249" height="55"/></clipPath><clipPath id="clip9"><rect x="45" y="35" width="241" height="71"/></clipPath></defs><g transform="translate(-838 -158)"><path d="M1987.5 1172.5C2153.18 1142.36 2293.84 1143.24 2373.5 1172.5 2367.89 1193.88 2372.75 1266.08 2373.5 1283.5 2191.89 1281.92 2128.52 1252.35 1987.5 1283.5 1990.08 1257.62 1988.34 1204.09 1987.5 1172.5Z" fill="#7F7F7F" fill-rule="evenodd"/><path d="M1987.5 1172.5C2049.39 1193.5 2333.18 1188.34 2373.5 1172.5 2378.6 1213.19 2381.33 1259.55 2373.5 1283.5 2245.46 1307.86 2122.84 1298.96 1987.5 1283.5 1987.9 1237.74 1978.74 1189.51 1987.5 1172.5Z" stroke="#D9D9D9" stroke-width="6.875" stroke-miterlimit="8" fill="none" fill-rule="evenodd"/><text fill="#FFFFFF" font-family="Ubuntu,Ubuntu_MSFontService,sans-serif" font-weight="400" font-size="64" transform="matrix(1 0 0 1 2020.34 1253)">Dashboard</text><path d="M1377.5 1968.5C1487.48 1970.78 1495.08 1958.48 1607.5 1968.5 1602.2 2005.67 1611.92 2029.62 1607.5 2080.5 1543.27 2069.23 1408.93 2076.11 1377.5 2080.5 1368.89 2062.61 1377.25 2014.75 1377.5 1968.5Z" fill="#F2CFEE" fill-rule="evenodd"/><path d="M1377.5 1968.5C1426.47 1975.18 1545.17 1969.18 1607.5 1968.5 1598.46 1992.03 1600.1 2058.63 1607.5 2080.5 1567.92 2085.84 1475.01 2093.57 1377.5 2080.5 1377.3 2068.17 1376.65 2016.67 1377.5 1968.5Z" stroke="#7030A0" stroke-width="4.58333" stroke-miterlimit="8" fill="none" fill-rule="evenodd"/><g clip-path="url(#clip5)" filter="url(#fx0)" transform="translate(1367 1961)"><g><path d="M41.92-22.208C41.92-18.368 41.3227-15.0293 40.128-12.192 38.9333-9.35467 37.248-7.008 35.072-5.152 32.896-3.296 30.2933-1.90933 27.264-0.992 24.2347-0.0746667 20.9067 0.384 17.28 0.384 15.488 0.384 13.5147 0.309333 11.36 0.16 9.20533 0.0106667 7.25333-0.277333 5.504-0.704L5.504-43.712C7.25333-44.1387 9.20533-44.4267 11.36-44.576 13.5147-44.7253 15.488-44.8 17.28-44.8 20.9067-44.8 24.2347-44.3413 27.264-43.424 30.2933-42.5067 32.896-41.12 35.072-39.264 37.248-37.408 38.9333-35.0613 40.128-32.224 41.3227-29.3867 41.92-26.048 41.92-22.208ZM17.792-5.056C23.68-5.056 28.0747-6.56 30.976-9.568 33.8773-12.576 35.328-16.7893 35.328-22.208 35.328-27.6267 33.8773-31.84 30.976-34.848 28.0747-37.856 23.68-39.36 17.792-39.36 16.0427-39.36 14.688-39.3387 13.728-39.296 12.768-39.2533 12.096-39.2107 11.712-39.168L11.712-5.248C12.096-5.20533 12.768-5.16267 13.728-5.12 14.688-5.07733 16.0427-5.056 17.792-5.056ZM49.0973-16.576C49.0973-19.52 49.524-22.0907 50.3773-24.288 51.2307-26.4853 52.3613-28.3093 53.7693-29.76 55.1773-31.2107 56.7987-32.2987 58.6333-33.024 60.468-33.7493 62.3453-34.112 64.2653-34.112 68.7453-34.112 72.18-32.7147 74.5693-29.92 76.9587-27.1253 78.1533-22.8693 78.1533-17.152 78.1533-16.896 78.1533-16.5653 78.1533-16.16 78.1533-15.7547 78.132-15.3813 78.0893-15.04L55.3053-15.04C55.5613-11.584 56.564-8.96 58.3133-7.168 60.0627-5.376 62.7933-4.48 66.5053-4.48 68.596-4.48 70.356-4.66133 71.7853-5.024 73.2147-5.38667 74.292-5.73867 75.0173-6.08L75.8493-1.088C75.124-0.704 73.8547-0.298667 72.0413 0.128 70.228 0.554667 68.1693 0.768 65.8653 0.768 62.964 0.768 60.4573 0.330667 58.3453-0.544 56.2333-1.41867 54.4947-2.624 53.1293-4.16 51.764-5.696 50.7507-7.52 50.0893-9.632 49.428-11.744 49.0973-14.0587 49.0973-16.576ZM71.9453-19.84C71.988-22.528 71.316-24.736 69.9293-26.464 68.5427-28.192 66.6333-29.056 64.2013-29.056 62.836-29.056 61.6307-28.7893 60.5853-28.256 59.54-27.7227 58.6547-27.0293 57.9293-26.176 57.204-25.3227 56.6387-24.3413 56.2333-23.232 55.828-22.1227 55.5613-20.992 55.4333-19.84ZM98.3111-4.288C99.7191-4.288 100.967-4.32 102.055-4.384 103.143-4.448 104.05-4.56533 104.775-4.736L104.775-14.656C104.348-14.8693 103.655-15.0507 102.695-15.2 101.735-15.3493 100.572-15.424 99.2071-15.424 98.3111-15.424 97.3617-15.36 96.3591-15.232 95.3564-15.104 94.4391-14.8373 93.6071-14.432 92.7751-14.0267 92.0817-13.472 91.5271-12.768 90.9724-12.064 90.6951-11.136 90.6951-9.984 90.6951-7.85067 91.3777-6.368 92.7431-5.536 94.1084-4.704 95.9644-4.288 98.3111-4.288ZM97.7991-34.112C100.188-34.112 102.204-33.8027 103.847-33.184 105.49-32.5653 106.812-31.6907 107.815-30.56 108.818-29.4293 109.532-28.0853 109.959-26.528 110.386-24.9707 110.599-23.2533 110.599-21.376L110.599-0.576C110.087-0.490667 109.372-0.373333 108.455-0.224 107.538-0.0746667 106.503 0.064 105.351 0.192 104.199 0.32 102.951 0.437333 101.607 0.544 100.263 0.650667 98.9297 0.704 97.6071 0.704 95.7297 0.704 94.0017 0.512 92.4231 0.128 90.8444-0.256 89.4791-0.864 88.3271-1.696 87.1751-2.528 86.2791-3.62667 85.6391-4.992 84.9991-6.35733 84.6791-8 84.6791-9.92 84.6791-11.7547 85.0524-13.3333 85.7991-14.656 86.5457-15.9787 87.5591-17.0453 88.8391-17.856 90.1191-18.6667 91.6124-19.264 93.3191-19.648 95.0257-20.032 96.8177-20.224 98.6951-20.224 99.2924-20.224 99.9111-20.192 100.551-20.128 101.191-20.064 101.799-19.9787 102.375-19.872 102.951-19.7653 103.452-19.6693 103.879-19.584 104.306-19.4987 104.604-19.4347 104.775-19.392L104.775-21.056C104.775-22.0373 104.668-23.008 104.455-23.968 104.242-24.928 103.858-25.7813 103.303-26.528 102.748-27.2747 101.991-27.872 101.031-28.32 100.071-28.768 98.8231-28.992 97.2871-28.992 95.3244-28.992 93.6071-28.8533 92.1351-28.576 90.6631-28.2987 89.5644-28.0107 88.8391-27.712L88.1351-32.64C88.9031-32.9813 90.1831-33.312 91.9751-33.632 93.7671-33.952 95.7084-34.112 97.7991-34.112ZM130.26 0.64C126.591 0.554667 123.988-0.234667 122.452-1.728 120.916-3.22133 120.148-5.54667 120.148-8.704L120.148-48.64 126.1-49.664 126.1-9.664C126.1-8.68267 126.186-7.872 126.356-7.232 126.527-6.592 126.804-6.08 127.188-5.696 127.572-5.312 128.084-5.024 128.724-4.832 129.364-4.64 130.154-4.48 131.092-4.352ZM145.781-4.288C148.213-4.288 150.015-4.608 151.189-5.248 152.362-5.888 152.949-6.912 152.949-8.32 152.949-9.77067 152.373-10.9227 151.221-11.776 150.069-12.6293 148.17-13.5893 145.525-14.656 144.245-15.168 143.018-15.6907 141.845-16.224 140.671-16.7573 139.658-17.3867 138.805-18.112 137.951-18.8373 137.269-19.712 136.757-20.736 136.245-21.76 135.989-23.0187 135.989-24.512 135.989-27.456 137.077-29.792 139.253-31.52 141.429-33.248 144.394-34.112 148.149-34.112 149.087-34.112 150.026-34.0587 150.965-33.952 151.903-33.8453 152.778-33.7173 153.589-33.568 154.399-33.4187 155.114-33.2587 155.733-33.088 156.351-32.9173 156.831-32.768 157.173-32.64L156.085-27.52C155.445-27.8613 154.442-28.2133 153.077-28.576 151.711-28.9387 150.069-29.12 148.149-29.12 146.485-29.12 145.034-28.7893 143.797-28.128 142.559-27.4667 141.941-26.432 141.941-25.024 141.941-24.2987 142.079-23.6587 142.357-23.104 142.634-22.5493 143.061-22.048 143.637-21.6 144.213-21.152 144.927-20.736 145.781-20.352 146.634-19.968 147.658-19.5627 148.853-19.136 150.431-18.5387 151.839-17.952 153.077-17.376 154.314-16.8 155.37-16.128 156.245-15.36 157.119-14.592 157.791-13.664 158.261-12.576 158.73-11.488 158.965-10.1547 158.965-8.576 158.965-5.504 157.823-3.17867 155.541-1.6 153.258-0.0213334 150.005 0.768 145.781 0.768 142.837 0.768 140.533 0.522667 138.869 0.032 137.205-0.458667 136.074-0.832 135.477-1.088L136.565-6.208C137.247-5.952 138.335-5.568 139.829-5.056 141.322-4.544 143.306-4.288 145.781-4.288Z" transform="matrix(1 0 0 1 44.6487 90)"/></g></g><text font-family="Ubuntu,Ubuntu_MSFontService,sans-serif" font-weight="400" font-size="64" transform="matrix(1 0 0 1 1409.91 2049)">Deals</text><path d="M1394.5 1200.5C1479.63 1189.98 1536.76 1182.32 1599.5 1200.5 1597.78 1213.43 1595.9 1297.54 1599.5 1311.5 1573.87 1327.72 1460.39 1296.18 1394.5 1311.5 1397.62 1271.58 1399.31 1217.23 1394.5 1200.5Z" fill="#F2CFEE" fill-rule="evenodd"/><path d="M1394.5 1200.5C1483.42 1191.37 1528.92 1204.35 1599.5 1200.5 1600.02 1228.31 1599.1 1281.97 1599.5 1311.5 1546.95 1307.73 1438.63 1298.74 1394.5 1311.5 1390.71 1285.21 1393.16 1237.88 1394.5 1200.5Z" stroke="#7030A0" stroke-width="4.58333" stroke-miterlimit="8" fill="none" fill-rule="evenodd"/><g clip-path="url(#clip6)" filter="url(#fx1)" transform="translate(1384 1193)"><g><path d="M33.408-44.352 39.616-44.352 39.616 0 33.408 0 33.408-20.48 11.712-20.48 11.712 0 5.504 0 5.504-44.352 11.712-44.352 11.712-25.856 33.408-25.856ZM48.5244-16.576C48.5244-19.52 48.9511-22.0907 49.8044-24.288 50.6577-26.4853 51.7884-28.3093 53.1964-29.76 54.6044-31.2107 56.2257-32.2987 58.0604-33.024 59.8951-33.7493 61.7724-34.112 63.6924-34.112 68.1724-34.112 71.6071-32.7147 73.9964-29.92 76.3857-27.1253 77.5804-22.8693 77.5804-17.152 77.5804-16.896 77.5804-16.5653 77.5804-16.16 77.5804-15.7547 77.5591-15.3813 77.5164-15.04L54.7324-15.04C54.9884-11.584 55.9911-8.96 57.7404-7.168 59.4897-5.376 62.2204-4.48 65.9324-4.48 68.0231-4.48 69.7831-4.66133 71.2124-5.024 72.6417-5.38667 73.7191-5.73867 74.4444-6.08L75.2764-1.088C74.5511-0.704 73.2817-0.298667 71.4684 0.128 69.6551 0.554667 67.5964 0.768 65.2924 0.768 62.3911 0.768 59.8844 0.330667 57.7724-0.544 55.6604-1.41867 53.9217-2.624 52.5564-4.16 51.1911-5.696 50.1777-7.52 49.5164-9.632 48.8551-11.744 48.5244-14.0587 48.5244-16.576ZM71.3724-19.84C71.4151-22.528 70.7431-24.736 69.3564-26.464 67.9697-28.192 66.0604-29.056 63.6284-29.056 62.2631-29.056 61.0577-28.7893 60.0124-28.256 58.9671-27.7227 58.0817-27.0293 57.3564-26.176 56.6311-25.3227 56.0657-24.3413 55.6604-23.232 55.2551-22.1227 54.9884-20.992 54.8604-19.84ZM96.4582 0.64C92.7888 0.554667 90.1862-0.234667 88.6502-1.728 87.1142-3.22133 86.3461-5.54667 86.3462-8.704L86.3462-48.64 92.2982-49.664 92.2982-9.664C92.2982-8.68267 92.3835-7.872 92.5542-7.232 92.7248-6.592 93.0022-6.08 93.3862-5.696 93.7702-5.312 94.2822-5.024 94.9222-4.832 95.5621-4.64 96.3515-4.48 97.2902-4.352ZM127.339-16.576C127.339-20.4587 126.379-23.4453 124.459-25.536 122.539-27.6267 119.979-28.672 116.779-28.672 114.987-28.672 113.589-28.608 112.587-28.48 111.584-28.352 110.784-28.2027 110.187-28.032L110.187-7.04C110.912-6.44267 111.957-5.86667 113.323-5.312 114.688-4.75733 116.181-4.48 117.803-4.48 119.509-4.48 120.971-4.78933 122.187-5.408 123.403-6.02667 124.395-6.88 125.163-7.968 125.931-9.056 126.485-10.336 126.827-11.808 127.168-13.28 127.339-14.8693 127.339-16.576ZM133.547-16.576C133.547-14.0587 133.216-11.7333 132.555-9.6 131.893-7.46667 130.923-5.632 129.643-4.096 128.363-2.56 126.795-1.36533 124.939-0.512 123.083 0.341333 120.96 0.768 118.571 0.768 116.651 0.768 114.955 0.512 113.483 0 112.011-0.512 110.912-1.00267 110.187-1.472L110.187 11.84 104.235 11.84 104.235-32.256C105.643-32.5973 107.403-32.9707 109.515-33.376 111.627-33.7813 114.069-33.984 116.843-33.984 119.403-33.984 121.707-33.5787 123.755-32.768 125.803-31.9573 127.552-30.8053 129.003-29.312 130.453-27.8187 131.573-25.9947 132.363-23.84 133.152-21.6853 133.547-19.264 133.547-16.576Z" transform="matrix(1 0 0 1 44.7997 89)"/></g></g><text font-family="Ubuntu,Ubuntu_MSFontService,sans-serif" font-weight="400" font-size="64" transform="matrix(1 0 0 1 1427.06 1281)">Help</text><path d="M1323.5 587.5C1450.82 566.731 1572.02 606.817 1638.5 587.5 1633.8 639.463 1628.64 665.698 1638.5 698.5 1585.97 686.573 1359.17 688.457 1323.5 698.5 1324.33 678.88 1321.94 640.785 1323.5 587.5Z" fill="#F2CFEE" fill-rule="evenodd"/><path d="M1323.5 587.5C1403.06 581.715 1572.07 609.155 1638.5 587.5 1632.89 619.531 1632.3 678.765 1638.5 698.5 1484.69 682.998 1381.86 721.04 1323.5 698.5 1328.62 684.861 1319.93 619.496 1323.5 587.5Z" stroke="#7030A0" stroke-width="4.58333" stroke-miterlimit="8" fill="none" fill-rule="evenodd"/><g clip-path="url(#clip7)" filter="url(#fx2)" transform="translate(1313 580)"><g><path d="M25.408-6.144C24.9813-7.168 24.416-8.46933 23.712-10.048 23.008-11.6267 22.2507-13.3333 21.44-15.168 20.6293-17.0027 19.7653-18.8907 18.848-20.832 17.9307-22.7733 17.0667-24.608 16.256-26.336 15.4453-28.064 14.688-29.6107 13.984-30.976 13.28-32.3413 12.7147-33.3867 12.288-34.112 11.8187-29.0773 11.4347-23.6267 11.136-17.76 10.8373-11.8933 10.5813-5.97333 10.368 0L4.288 0C4.45867-3.84 4.65067-7.712 4.864-11.616 5.07733-15.52 5.32267-19.36 5.6-23.136 5.87733-26.912 6.176-30.592 6.496-34.176 6.816-37.76 7.168-41.152 7.552-44.352L12.992-44.352C14.144-42.4747 15.3813-40.256 16.704-37.696 18.0267-35.136 19.3493-32.4587 20.672-29.664 21.9947-26.8693 23.2747-24.0747 24.512-21.28 25.7493-18.4853 26.88-15.936 27.904-13.632 28.928-15.936 30.0587-18.4853 31.296-21.28 32.5333-24.0747 33.8133-26.8693 35.136-29.664 36.4587-32.4587 37.7813-35.136 39.104-37.696 40.4267-40.256 41.664-42.4747 42.816-44.352L48.256-44.352C49.7067-30.0587 50.7947-15.2747 51.52 0L45.44 0C45.2267-5.97333 44.9707-11.8933 44.672-17.76 44.3733-23.6267 43.9893-29.0773 43.52-34.112 43.0933-33.3867 42.528-32.3413 41.824-30.976 41.12-29.6107 40.3627-28.064 39.552-26.336 38.7413-24.608 37.8773-22.7733 36.96-20.832 36.0427-18.8907 35.1787-17.0027 34.368-15.168 33.5573-13.3333 32.8-11.6267 32.096-10.048 31.392-8.46933 30.8267-7.168 30.4-6.144ZM57.3618 6.208C57.8312 6.42133 58.4392 6.624 59.1858 6.816 59.9325 7.008 60.6685 7.104 61.3938 7.104 63.7405 7.104 65.5752 6.58133 66.8978 5.536 68.2205 4.49067 69.4152 2.79467 70.4818 0.448 67.7938-4.672 65.2872-10.1013 62.9618-15.84 60.6365-21.5787 58.7058-27.392 57.1698-33.28L63.5698-33.28C64.0392-31.36 64.6045-29.2907 65.2658-27.072 65.9272-24.8533 66.6632-22.5707 67.4738-20.224 68.2845-17.8773 69.1592-15.5307 70.0978-13.184 71.0365-10.8373 72.0178-8.576 73.0418-6.4 74.6632-10.88 76.0712-15.3173 77.2658-19.712 78.4605-24.1067 79.5912-28.6293 80.6578-33.28L86.8018-33.28C85.2658-27.008 83.5592-20.9813 81.6818-15.2 79.8045-9.41867 77.7778-4.01067 75.6018 1.024 74.7485 2.944 73.8632 4.59733 72.9458 5.984 72.0285 7.37067 71.0152 8.512 69.9058 9.408 68.7965 10.304 67.5485 10.9653 66.1618 11.392 64.7752 11.8187 63.2072 12.032 61.4578 12.032 60.9885 12.032 60.4978 12 59.9858 11.936 59.4738 11.872 58.9725 11.7867 58.4818 11.68 57.9912 11.5733 57.5432 11.456 57.1378 11.328 56.7325 11.2 56.4445 11.0933 56.2738 11.008ZM138.261-44.352 138.261-38.976 124.309-38.976 124.309 0 118.101 0 118.101-38.976 104.149-38.976 104.149-44.352ZM156.627-33.984C157.139-33.984 157.725-33.952 158.387-33.888 159.048-33.824 159.699-33.7387 160.339-33.632 160.979-33.5253 161.565-33.4187 162.099-33.312 162.632-33.2053 163.027-33.1093 163.283-33.024L162.259-27.84C161.789-28.0107 161.011-28.2133 159.923-28.448 158.835-28.6827 157.437-28.8 155.731-28.8 154.621-28.8 153.523-28.6827 152.435-28.448 151.347-28.2133 150.632-28.0533 150.291-27.968L150.291 0 144.339 0 144.339-31.872C145.747-32.384 147.496-32.864 149.587-33.312 151.677-33.76 154.024-33.984 156.627-33.984ZM174.926 0 168.974 0 168.974-33.28 174.926-33.28ZM171.918-39.296C170.852-39.296 169.945-39.648 169.198-40.352 168.452-41.056 168.078-42.0053 168.078-43.2 168.078-44.3947 168.452-45.344 169.198-46.048 169.945-46.752 170.852-47.104 171.918-47.104 172.985-47.104 173.891-46.752 174.638-46.048 175.385-45.344 175.758-44.3947 175.758-43.2 175.758-42.0053 175.385-41.056 174.638-40.352 173.891-39.648 172.985-39.296 171.918-39.296ZM208.12-16.576C208.12-20.4587 207.16-23.4453 205.24-25.536 203.32-27.6267 200.76-28.672 197.56-28.672 195.768-28.672 194.37-28.608 193.368-28.48 192.365-28.352 191.565-28.2027 190.968-28.032L190.968-7.04C191.693-6.44267 192.738-5.86667 194.104-5.312 195.469-4.75733 196.962-4.48 198.584-4.48 200.29-4.48 201.752-4.78933 202.968-5.408 204.184-6.02667 205.176-6.88 205.944-7.968 206.712-9.056 207.267-10.336 207.608-11.808 207.949-13.28 208.12-14.8693 208.12-16.576ZM214.328-16.576C214.328-14.0587 213.997-11.7333 213.336-9.6 212.674-7.46667 211.704-5.632 210.424-4.096 209.144-2.56 207.576-1.36533 205.72-0.512 203.864 0.341333 201.741 0.768 199.352 0.768 197.432 0.768 195.736 0.512 194.264 0 192.792-0.512 191.693-1.00267 190.968-1.472L190.968 11.84 185.016 11.84 185.016-32.256C186.424-32.5973 188.184-32.9707 190.296-33.376 192.408-33.7813 194.85-33.984 197.624-33.984 200.184-33.984 202.488-33.5787 204.536-32.768 206.584-31.9573 208.333-30.8053 209.784-29.312 211.234-27.8187 212.354-25.9947 213.144-23.84 213.933-21.6853 214.328-19.264 214.328-16.576ZM230.572-4.288C233.004-4.288 234.807-4.608 235.98-5.248 237.154-5.888 237.74-6.912 237.74-8.32 237.74-9.77067 237.164-10.9227 236.012-11.776 234.86-12.6293 232.962-13.5893 230.316-14.656 229.036-15.168 227.81-15.6907 226.636-16.224 225.463-16.7573 224.45-17.3867 223.596-18.112 222.743-18.8373 222.06-19.712 221.548-20.736 221.036-21.76 220.78-23.0187 220.78-24.512 220.78-27.456 221.868-29.792 224.044-31.52 226.22-33.248 229.186-34.112 232.94-34.112 233.879-34.112 234.818-34.0587 235.756-33.952 236.695-33.8453 237.57-33.7173 238.38-33.568 239.191-33.4187 239.906-33.2587 240.524-33.088 241.143-32.9173 241.623-32.768 241.964-32.64L240.876-27.52C240.236-27.8613 239.234-28.2133 237.868-28.576 236.503-28.9387 234.86-29.12 232.94-29.12 231.276-29.12 229.826-28.7893 228.588-28.128 227.351-27.4667 226.732-26.432 226.732-25.024 226.732-24.2987 226.871-23.6587 227.148-23.104 227.426-22.5493 227.852-22.048 228.428-21.6 229.004-21.152 229.719-20.736 230.572-20.352 231.426-19.968 232.45-19.5627 233.644-19.136 235.223-18.5387 236.631-17.952 237.868-17.376 239.106-16.8 240.162-16.128 241.036-15.36 241.911-14.592 242.583-13.664 243.052-12.576 243.522-11.488 243.756-10.1547 243.756-8.576 243.756-5.504 242.615-3.17867 240.332-1.6 238.05-0.0213334 234.796 0.768 230.572 0.768 227.628 0.768 225.324 0.522667 223.66 0.032 221.996-0.458667 220.866-0.832 220.268-1.088L221.356-6.208C222.039-5.952 223.127-5.568 224.62-5.056 226.114-4.544 228.098-4.288 230.572-4.288Z" transform="matrix(1 0 0 1 44.6429 89)"/></g></g><text font-family="Ubuntu,Ubuntu_MSFontService,sans-serif" font-weight="400" font-size="64" transform="matrix(1 0 0 1 1355.91 667)">My Trips</text><path d="M2657.5 1922.5C2810 1943.37 2834.99 1948.17 2965.5 1922.5 2966.59 1966.15 2974.2 2001.27 2965.5 2033.5 2846.43 2020.16 2738.97 2035.37 2657.5 2033.5 2650.49 2005.81 2648.2 1934.95 2657.5 1922.5Z" fill="#F2CFEE" fill-rule="evenodd"/><path d="M2657.5 1922.5C2756.2 1920.39 2900.64 1895.68 2965.5 1922.5 2973.66 1956.49 2955.56 2022.15 2965.5 2033.5 2932.46 2027.13 2770.14 2057.88 2657.5 2033.5 2650.71 1981.46 2654.36 1966.41 2657.5 1922.5Z" stroke="#7030A0" stroke-width="4.58333" stroke-miterlimit="8" fill="none" fill-rule="evenodd"/><g clip-path="url(#clip8)" filter="url(#fx3)" transform="translate(2647 1915)"><g><path d="M35.136 0C34.4107-1.92 33.728-3.808 33.088-5.664 32.448-7.52 31.7867-9.408 31.104-11.328L11.008-11.328 6.976 0 0.512 0C2.21867-4.69333 3.81867-9.03467 5.312-13.024 6.80533-17.0133 8.26667-20.8 9.696-24.384 11.1253-27.968 12.544-31.392 13.952-34.656 15.36-37.92 16.832-41.152 18.368-44.352L24.064-44.352C25.6-41.152 27.072-37.92 28.48-34.656 29.888-31.392 31.3067-27.968 32.736-24.384 34.1653-20.8 35.6267-17.0133 37.12-13.024 38.6133-9.03467 40.2133-4.69333 41.92 0ZM29.312-16.448C27.9467-20.16 26.592-23.7547 25.248-27.232 23.904-30.7093 22.5067-34.048 21.056-37.248 19.5627-34.048 18.144-30.7093 16.8-27.232 15.456-23.7547 14.1227-20.16 12.8-16.448ZM61.9798 0.768C59.2918 0.768 56.9345 0.341333 54.9078-0.512 52.8812-1.36533 51.1745-2.56 49.7878-4.096 48.4012-5.632 47.3665-7.456 46.6838-9.568 46.0012-11.68 45.6598-14.016 45.6598-16.576 45.6598-19.136 46.0332-21.4827 46.7798-23.616 47.5265-25.7493 48.5825-27.5947 49.9478-29.152 51.3132-30.7093 52.9878-31.9253 54.9718-32.8 56.9558-33.6747 59.1638-34.112 61.5958-34.112 63.0892-34.112 64.5825-33.984 66.0758-33.728 67.5692-33.472 68.9985-33.0667 70.3638-32.512L69.0198-27.456C68.1238-27.8827 67.0892-28.224 65.9158-28.48 64.7425-28.736 63.4945-28.864 62.1718-28.864 58.8438-28.864 56.2945-27.8187 54.5238-25.728 52.7532-23.6373 51.8678-20.5867 51.8678-16.576 51.8678-14.784 52.0705-13.1413 52.4758-11.648 52.8812-10.1547 53.5212-8.87467 54.3958-7.808 55.2705-6.74133 56.3905-5.92 57.7558-5.344 59.1212-4.768 60.7852-4.48 62.7478-4.48 64.3265-4.48 65.7558-4.62933 67.0358-4.928 68.3158-5.22667 69.3185-5.54667 70.0438-5.888L70.8758-0.896C70.5345-0.682667 70.0438-0.48 69.4038-0.288 68.7638-0.096 68.0385 0.0746667 67.2278 0.224 66.4172 0.373333 65.5532 0.501333 64.6358 0.608 63.7185 0.714667 62.8332 0.768 61.9798 0.768ZM91.7715 0.768C89.0835 0.768 86.7262 0.341333 84.6995-0.512 82.6728-1.36533 80.9662-2.56 79.5795-4.096 78.1928-5.632 77.1582-7.456 76.4755-9.568 75.7928-11.68 75.4515-14.016 75.4515-16.576 75.4515-19.136 75.8248-21.4827 76.5715-23.616 77.3182-25.7493 78.3742-27.5947 79.7395-29.152 81.1048-30.7093 82.7795-31.9253 84.7635-32.8 86.7475-33.6747 88.9555-34.112 91.3875-34.112 92.8808-34.112 94.3742-33.984 95.8675-33.728 97.3608-33.472 98.7902-33.0667 100.156-32.512L98.8115-27.456C97.9155-27.8827 96.8808-28.224 95.7075-28.48 94.5342-28.736 93.2862-28.864 91.9635-28.864 88.6355-28.864 86.0862-27.8187 84.3155-25.728 82.5448-23.6373 81.6595-20.5867 81.6595-16.576 81.6595-14.784 81.8622-13.1413 82.2675-11.648 82.6728-10.1547 83.3128-8.87467 84.1875-7.808 85.0622-6.74133 86.1822-5.92 87.5475-5.344 88.9128-4.768 90.5768-4.48 92.5395-4.48 94.1182-4.48 95.5475-4.62933 96.8275-4.928 98.1075-5.22667 99.1102-5.54667 99.8355-5.888L100.667-0.896C100.326-0.682667 99.8355-0.48 99.1955-0.288 98.5555-0.096 97.8302 0.0746667 97.0195 0.224 96.2088 0.373333 95.3448 0.501333 94.4275 0.608 93.5102 0.714667 92.6248 0.768 91.7715 0.768ZM136.475-16.64C136.475-13.9947 136.091-11.6053 135.323-9.472 134.555-7.33867 133.478-5.504 132.091-3.968 130.704-2.432 129.051-1.248 127.131-0.416 125.211 0.416 123.12 0.832 120.859 0.832 118.598 0.832 116.507 0.416 114.587-0.416 112.667-1.248 111.014-2.432 109.627-3.968 108.24-5.504 107.163-7.33867 106.395-9.472 105.627-11.6053 105.243-13.9947 105.243-16.64 105.243-19.2427 105.627-21.6213 106.395-23.776 107.163-25.9307 108.24-27.776 109.627-29.312 111.014-30.848 112.667-32.032 114.587-32.864 116.507-33.696 118.598-34.112 120.859-34.112 123.12-34.112 125.211-33.696 127.131-32.864 129.051-32.032 130.704-30.848 132.091-29.312 133.478-27.776 134.555-25.9307 135.323-23.776 136.091-21.6213 136.475-19.2427 136.475-16.64ZM130.267-16.64C130.267-20.3947 129.424-23.3707 127.739-25.568 126.054-27.7653 123.76-28.864 120.859-28.864 117.958-28.864 115.664-27.7653 113.979-25.568 112.294-23.3707 111.451-20.3947 111.451-16.64 111.451-12.8853 112.294-9.90933 113.979-7.712 115.664-5.51467 117.958-4.416 120.859-4.416 123.76-4.416 126.054-5.51467 127.739-7.712 129.424-9.90933 130.267-12.8853 130.267-16.64ZM171.408-0.96C170.042-0.618667 168.24-0.256 166 0.128 163.76 0.512 161.168 0.704 158.224 0.704 155.664 0.704 153.509 0.330667 151.76-0.416 150.01-1.16267 148.602-2.21867 147.536-3.584 146.469-4.94933 145.701-6.56 145.232-8.416 144.762-10.272 144.528-12.3307 144.528-14.592L144.528-33.28 150.48-33.28 150.48-15.872C150.48-11.8187 151.12-8.91733 152.4-7.168 153.68-5.41867 155.834-4.544 158.864-4.544 159.504-4.544 160.165-4.56533 160.848-4.608 161.53-4.65067 162.17-4.704 162.768-4.768 163.365-4.832 163.909-4.896 164.4-4.96 164.89-5.024 165.242-5.09867 165.456-5.184L165.456-33.28 171.408-33.28ZM181.578-32.32C182.944-32.6613 184.757-33.024 187.018-33.408 189.28-33.792 191.882-33.984 194.826-33.984 197.472-33.984 199.669-33.6107 201.418-32.864 203.168-32.1173 204.565-31.072 205.61-29.728 206.656-28.384 207.392-26.7733 207.818-24.896 208.245-23.0187 208.458-20.9493 208.458-18.688L208.458 0 202.506 0 202.506-17.408C202.506-19.456 202.368-21.2053 202.09-22.656 201.813-24.1067 201.354-25.28 200.714-26.176 200.074-27.072 199.221-27.7227 198.154-28.128 197.088-28.5333 195.765-28.736 194.186-28.736 193.546-28.736 192.885-28.7147 192.202-28.672 191.52-28.6293 190.869-28.576 190.25-28.512 189.632-28.448 189.077-28.3733 188.586-28.288 188.096-28.2027 187.744-28.1387 187.53-28.096L187.53 0 181.578 0ZM223.813-33.28 236.421-33.28 236.421-28.288 223.813-28.288 223.813-12.928C223.813-11.264 223.941-9.888 224.197-8.8 224.453-7.712 224.837-6.85867 225.349-6.24 225.861-5.62133 226.501-5.184 227.269-4.928 228.037-4.672 228.933-4.544 229.957-4.544 231.749-4.544 233.189-4.74667 234.277-5.152 235.365-5.55733 236.122-5.84533 236.549-6.016L237.701-1.088C237.104-0.789333 236.058-0.416 234.565 0.032 233.072 0.48 231.365 0.704 229.445 0.704 227.184 0.704 225.317 0.416 223.845-0.16 222.373-0.736 221.189-1.6 220.293-2.752 219.397-3.904 218.768-5.32267 218.405-7.008 218.042-8.69333 217.861-10.6453 217.861-12.864L217.861-42.56 223.813-43.584Z" transform="matrix(1 0 0 1 44.7119 89)"/></g></g><text font-family="Ubuntu,Ubuntu_MSFontService,sans-serif" font-weight="400" font-size="64" transform="matrix(1 0 0 1 2689.98 2002)">Account</text><path d="M2657.5 803.5C2784.99 806.039 2921.27 778.948 2966.5 803.5 2963.71 846.378 2968.85 893.462 2966.5 914.5 2827.82 887.028 2703.45 922.854 2657.5 914.5 2654.9 862.819 2655.33 856.87 2657.5 803.5Z" fill="#F2CFEE" fill-rule="evenodd"/><path d="M2657.5 803.5C2776.9 801.959 2934.8 821.266 2966.5 803.5 2958.23 844.261 2972.74 899.966 2966.5 914.5 2892.45 924.751 2734.8 898.484 2657.5 914.5 2661.8 896.443 2667.34 845.401 2657.5 803.5Z" stroke="#7030A0" stroke-width="4.58333" stroke-miterlimit="8" fill="none" fill-rule="evenodd"/><g clip-path="url(#clip9)" filter="url(#fx4)" transform="translate(2647 796)"><g><path d="M17.472 0.384C16.576 0.384 15.6053 0.362667 14.56 0.32 13.5147 0.277333 12.4693 0.213333 11.424 0.128 10.3787 0.0426667 9.344-0.064 8.32-0.192 7.296-0.32 6.35733-0.490667 5.504-0.704L5.504-43.712C6.35733-43.9253 7.296-44.096 8.32-44.224 9.344-44.352 10.3787-44.4587 11.424-44.544 12.4693-44.6293 13.504-44.6933 14.528-44.736 15.552-44.7787 16.512-44.8 17.408-44.8 19.968-44.8 22.368-44.608 24.608-44.224 26.848-43.84 28.7893-43.1893 30.432-42.272 32.0747-41.3547 33.3653-40.1493 34.304-38.656 35.2427-37.1627 35.712-35.328 35.712-33.152 35.712-30.72 35.136-28.7253 33.984-27.168 32.832-25.6107 31.296-24.448 29.376-23.68 31.9787-22.912 34.048-21.696 35.584-20.032 37.12-18.368 37.888-16.0213 37.888-12.992 37.888-8.55467 36.256-5.216 32.992-2.976 29.728-0.736 24.5547 0.384 17.472 0.384ZM11.648-20.672 11.648-5.056C12.1173-5.01333 12.672-4.97067 13.312-4.928 13.8667-4.88533 14.5173-4.85333 15.264-4.832 16.0107-4.81067 16.8747-4.8 17.856-4.8 19.6907-4.8 21.4293-4.91733 23.072-5.152 24.7147-5.38667 26.1547-5.80267 27.392-6.4 28.6293-6.99733 29.6213-7.82933 30.368-8.896 31.1147-9.96267 31.488-11.3067 31.488-12.928 31.488-14.3787 31.2107-15.6053 30.656-16.608 30.1013-17.6107 29.3013-18.4107 28.256-19.008 27.2107-19.6053 25.9627-20.032 24.512-20.288 23.0613-20.544 21.44-20.672 19.648-20.672ZM11.648-25.664 18.176-25.664C19.712-25.664 21.1627-25.7707 22.528-25.984 23.8933-26.1973 25.0773-26.5813 26.08-27.136 27.0827-27.6907 27.872-28.416 28.448-29.312 29.024-30.208 29.312-31.3387 29.312-32.704 29.312-33.984 29.0133-35.0613 28.416-35.936 27.8187-36.8107 26.9973-37.5147 25.952-38.048 24.9067-38.5813 23.68-38.976 22.272-39.232 20.864-39.488 19.3707-39.616 17.792-39.616 16.2133-39.616 14.976-39.5947 14.08-39.552 13.184-39.5093 12.3733-39.4453 11.648-39.36ZM75.746-16.64C75.746-13.9947 75.362-11.6053 74.594-9.472 73.826-7.33867 72.7487-5.504 71.362-3.968 69.9753-2.432 68.322-1.248 66.402-0.416 64.482 0.416 62.3913 0.832 60.13 0.832 57.8687 0.832 55.778 0.416 53.858-0.416 51.938-1.248 50.2847-2.432 48.898-3.968 47.5113-5.504 46.434-7.33867 45.666-9.472 44.898-11.6053 44.514-13.9947 44.514-16.64 44.514-19.2427 44.898-21.6213 45.666-23.776 46.434-25.9307 47.5113-27.776 48.898-29.312 50.2847-30.848 51.938-32.032 53.858-32.864 55.778-33.696 57.8687-34.112 60.13-34.112 62.3913-34.112 64.482-33.696 66.402-32.864 68.322-32.032 69.9753-30.848 71.362-29.312 72.7487-27.776 73.826-25.9307 74.594-23.776 75.362-21.6213 75.746-19.2427 75.746-16.64ZM69.538-16.64C69.538-20.3947 68.6953-23.3707 67.01-25.568 65.3247-27.7653 63.0313-28.864 60.13-28.864 57.2287-28.864 54.9353-27.7653 53.25-25.568 51.5647-23.3707 50.722-20.3947 50.722-16.64 50.722-12.8853 51.5647-9.90933 53.25-7.712 54.9353-5.51467 57.2287-4.416 60.13-4.416 63.0313-4.416 65.3247-5.51467 67.01-7.712 68.6953-9.90933 69.538-12.8853 69.538-16.64ZM113.558-16.64C113.558-13.9947 113.174-11.6053 112.406-9.472 111.638-7.33867 110.561-5.504 109.174-3.968 107.788-2.432 106.134-1.248 104.214-0.416 102.294 0.416 100.204 0.832 97.9425 0.832 95.6812 0.832 93.5905 0.416 91.6705-0.416 89.7505-1.248 88.0972-2.432 86.7105-3.968 85.3238-5.504 84.2465-7.33867 83.4785-9.472 82.7105-11.6053 82.3265-13.9947 82.3265-16.64 82.3265-19.2427 82.7105-21.6213 83.4785-23.776 84.2465-25.9307 85.3238-27.776 86.7105-29.312 88.0972-30.848 89.7505-32.032 91.6705-32.864 93.5905-33.696 95.6812-34.112 97.9425-34.112 100.204-34.112 102.294-33.696 104.214-32.864 106.134-32.032 107.788-30.848 109.174-29.312 110.561-27.776 111.638-25.9307 112.406-23.776 113.174-21.6213 113.558-19.2427 113.558-16.64ZM107.35-16.64C107.35-20.3947 106.508-23.3707 104.822-25.568 103.137-27.7653 100.844-28.864 97.9425-28.864 95.0412-28.864 92.7478-27.7653 91.0625-25.568 89.3772-23.3707 88.5345-20.3947 88.5345-16.64 88.5345-12.8853 89.3772-9.90933 91.0625-7.712 92.7478-5.51467 95.0412-4.416 97.9425-4.416 100.844-4.416 103.137-5.51467 104.822-7.712 106.508-9.90933 107.35-12.8853 107.35-16.64ZM134.027-18.304C135.307-17.3227 136.662-16.1067 138.091-14.656 139.52-13.2053 140.928-11.6373 142.315-9.952 143.702-8.26667 145.014-6.56 146.251-4.832 147.488-3.104 148.534-1.49333 149.387 0L142.411 0C141.515-1.49333 140.48-3.01867 139.307-4.576 138.134-6.13333 136.907-7.62667 135.627-9.056 134.347-10.4853 133.046-11.7973 131.723-12.992 130.4-14.1867 129.142-15.1893 127.947-16L127.947 0 121.995 0 121.995-48.64 127.947-49.664 127.947-19.328C128.971-20.352 130.102-21.4827 131.339-22.72 132.576-23.9573 133.792-25.216 134.987-26.496 136.182-27.776 137.312-29.0027 138.379-30.176 139.446-31.3493 140.363-32.384 141.131-33.28L148.107-33.28C147.126-32.2133 146.059-31.04 144.907-29.76 143.755-28.48 142.56-27.1893 141.323-25.888 140.086-24.5867 138.838-23.2853 137.579-21.984 136.32-20.6827 135.136-19.456 134.027-18.304ZM161.176 0 155.224 0 155.224-33.28 161.176-33.28ZM158.168-39.296C157.101-39.296 156.195-39.648 155.448-40.352 154.701-41.056 154.328-42.0053 154.328-43.2 154.328-44.3947 154.701-45.344 155.448-46.048 156.195-46.752 157.101-47.104 158.168-47.104 159.235-47.104 160.141-46.752 160.888-46.048 161.635-45.344 162.008-44.3947 162.008-43.2 162.008-42.0053 161.635-41.056 160.888-40.352 160.141-39.648 159.235-39.296 158.168-39.296ZM171.266-32.32C172.631-32.6613 174.444-33.024 176.706-33.408 178.967-33.792 181.57-33.984 184.514-33.984 187.159-33.984 189.356-33.6107 191.106-32.864 192.855-32.1173 194.252-31.072 195.298-29.728 196.343-28.384 197.079-26.7733 197.506-24.896 197.932-23.0187 198.146-20.9493 198.146-18.688L198.146 0 192.194 0 192.194-17.408C192.194-19.456 192.055-21.2053 191.778-22.656 191.5-24.1067 191.042-25.28 190.402-26.176 189.762-27.072 188.908-27.7227 187.842-28.128 186.775-28.5333 185.452-28.736 183.874-28.736 183.234-28.736 182.572-28.7147 181.89-28.672 181.207-28.6293 180.556-28.576 179.938-28.512 179.319-28.448 178.764-28.3733 178.274-28.288 177.783-28.2027 177.431-28.1387 177.218-28.096L177.218 0 171.266 0ZM228.796-3.328C228.285-2.98667 227.292-2.54933 225.82-2.016 224.348-1.48267 222.631-1.216 220.669-1.216 218.663-1.216 216.775-1.536 215.005-2.176 213.234-2.816 211.687-3.808 210.365-5.152 209.042-6.496 207.996-8.17067 207.229-10.176 206.46-12.1813 206.076-14.5707 206.076-17.344 206.076-19.776 206.439-22.0053 207.165-24.032 207.89-26.0587 208.946-27.808 210.333-29.28 211.719-30.752 213.415-31.904 215.421-32.736 217.426-33.568 219.687-33.984 222.204-33.984 224.978-33.984 227.399-33.7813 229.469-33.376 231.538-32.9707 233.276-32.5973 234.684-32.256L234.684-2.56C234.684 2.56 233.362 6.272 230.716 8.576 228.071 10.88 224.061 12.032 218.684 12.032 216.594 12.032 214.62 11.8613 212.764 11.52 210.908 11.1787 209.298 10.7733 207.932 10.304L209.02 5.12C210.215 5.58933 211.676 6.00533 213.404 6.368 215.133 6.73067 216.935 6.912 218.812 6.912 222.354 6.912 224.903 6.208 226.46 4.8 228.018 3.392 228.796 1.152 228.796-1.92ZM228.732-28.032C228.135-28.2027 227.335-28.3627 226.333-28.512 225.33-28.6613 223.975-28.736 222.268-28.736 219.068-28.736 216.604-27.6907 214.876-25.6 213.148-23.5093 212.285-20.736 212.285-17.28 212.285-15.36 212.53-13.7173 213.02-12.352 213.511-10.9867 214.172-9.856 215.005-8.96 215.836-8.064 216.796-7.40267 217.884-6.976 218.972-6.54933 220.092-6.336 221.245-6.336 222.823-6.336 224.274-6.56 225.596-7.008 226.919-7.456 227.964-7.97867 228.732-8.576Z" transform="matrix(1 0 0 1 44.7119 89)"/></g></g><text font-family="Ubuntu,Ubuntu_MSFontService,sans-serif" font-weight="400" font-size="64" transform="matrix(1 0 0 1 2689.98 883)">Booking</text><path d="M852.5 1794.5C923.234 1790.49 1043.35 1793.69 1144.5 1794.5 1137.61 1845.03 1136.05 1853.17 1144.5 1905.5 1113.87 1887.21 897.116 1917.01 852.5 1905.5 860.581 1857.42 856.043 1830.25 852.5 1794.5Z" fill="#FFFFFF" fill-rule="evenodd"/><path d="M852.5 1794.5C923.741 1805.06 1103.99 1789.8 1144.5 1794.5 1139.13 1833.6 1152.52 1882.14 1144.5 1905.5 1060.28 1929.08 997.849 1897.01 852.5 1905.5 854.176 1874.65 854.165 1814.6 852.5 1794.5Z" stroke="#7030A0" stroke-width="3.4375" stroke-linejoin="round" stroke-miterlimit="10" fill="none" fill-rule="evenodd"/><text font-family="Ubuntu,Ubuntu_MSFontService,sans-serif" font-weight="400" font-size="64" transform="matrix(1 0 0 1 884.711 1874)">Explore</text><path d="M904.5 1968.5C970.28 1950.24 1037.5 1974.29 1156.5 1968.5 1154.77 1981.1 1164.65 2049.02 1156.5 2080.5 1112.51 2068.74 933.383 2084.49 904.5 2080.5 898.799 2040.44 895.776 1985.74 904.5 1968.5Z" fill="#FFFFFF" fill-rule="evenodd"/><path d="M904.5 1968.5C954.371 1978.21 1120.92 1947.05 1156.5 1968.5 1149.2 1982.25 1147.12 2037.45 1156.5 2080.5 1089.55 2067.89 995.045 2065.99 904.5 2080.5 905.702 2067.33 909.847 1984.49 904.5 1968.5Z" stroke="#7030A0" stroke-width="3.4375" stroke-linejoin="round" stroke-miterlimit="10" fill="none" fill-rule="evenodd"/><text font-family="Ubuntu,Ubuntu_MSFontService,sans-serif" font-weight="400" font-size="64" transform="matrix(1 0 0 1 937.355 2049)">Latest</text><path d="M933.5 2143.5C1004.95 2142.87 1130.88 2127.21 1162.5 2143.5 1164.74 2197.17 1165.79 2219.34 1162.5 2254.5 1130 2268.95 975.677 2271.47 933.5 2254.5 938.6 2237.99 926.73 2187.35 933.5 2143.5Z" fill="#FFFFFF" fill-rule="evenodd"/><path d="M933.5 2143.5C1036.91 2150.75 1096.87 2123.74 1162.5 2143.5 1163.72 2171.12 1157.17 2204.17 1162.5 2254.5 1093.8 2264.18 1018.15 2255.98 933.5 2254.5 931.844 2230.18 935.665 2180.51 933.5 2143.5Z" stroke="#7030A0" stroke-width="3.4375" stroke-linejoin="round" stroke-miterlimit="10" fill="none" fill-rule="evenodd"/><text font-family="Ubuntu,Ubuntu_MSFontService,sans-serif" font-weight="400" font-size="64" transform="matrix(1 0 0 1 965.702 2224)">Deals</text><path d="M846.5 1039.5C922.795 1040.46 1051.74 1037.28 1143.5 1039.5 1136.15 1064.53 1145.78 1115.45 1143.5 1150.5 1014.37 1171.04 901.606 1174.79 846.5 1150.5 856.107 1113.36 848.64 1089.22 846.5 1039.5Z" fill="#FFFFFF" fill-rule="evenodd"/><path d="M846.5 1039.5C895.325 1038.55 1039.95 1054.77 1143.5 1039.5 1143.78 1084.12 1150.44 1138.4 1143.5 1150.5 1099.84 1148.11 952.913 1154.38 846.5 1150.5 840.989 1136.98 850.869 1065.96 846.5 1039.5Z" stroke="#7030A0" stroke-width="3.4375" stroke-linejoin="round" stroke-miterlimit="10" fill="none" fill-rule="evenodd"/><text font-family="Ubuntu,Ubuntu_MSFontService,sans-serif" font-weight="400" font-size="64" transform="matrix(1 0 0 1 878.926 1120)">Queries</text><path d="M844.5 1214.5C877.48 1203.3 1032.98 1217.17 1134.5 1214.5 1126.79 1228.99 1133.39 1277.82 1134.5 1325.5 1053 1334.35 980.098 1338.28 844.5 1325.5 838.181 1288.58 839.142 1241.02 844.5 1214.5Z" fill="#FFFFFF" fill-rule="evenodd"/><path d="M844.5 1214.5C978.207 1211.92 1102.03 1226.11 1134.5 1214.5 1139.3 1245.43 1134.62 1297.75 1134.5 1325.5 1051.52 1330.73 987.755 1338.68 844.5 1325.5 839.951 1272.2 845.768 1240.53 844.5 1214.5Z" stroke="#7030A0" stroke-width="3.4375" stroke-linejoin="round" stroke-miterlimit="10" fill="none" fill-rule="evenodd"/><text font-family="Ubuntu,Ubuntu_MSFontService,sans-serif" font-weight="400" font-size="64" transform="matrix(1 0 0 1 876.612 1294)">Sign Up</text><path d="M977.5 1388.5C1041.08 1400.97 1111.75 1372.01 1172.5 1388.5 1177 1426.56 1167.12 1475.45 1172.5 1499.5 1094.1 1511 1021.69 1505.14 977.5 1499.5 974.822 1458.96 971.334 1404.62 977.5 1388.5Z" fill="#FFFFFF" fill-rule="evenodd"/><path d="M977.5 1388.5C1030.35 1371.83 1108.53 1390.68 1172.5 1388.5 1178.98 1416.33 1177.31 1475.93 1172.5 1499.5 1094.64 1489.24 1071.06 1508.53 977.5 1499.5 985.575 1467.68 981.896 1424.75 977.5 1388.5Z" stroke="#7030A0" stroke-width="3.4375" stroke-linejoin="round" stroke-miterlimit="10" fill="none" fill-rule="evenodd"/><text font-family="Ubuntu,Ubuntu_MSFontService,sans-serif" font-weight="400" font-size="64" transform="matrix(1 0 0 1 1010.25 1469)">FAQ</text><path d="M3158.5 1665.5C3246.78 1642.6 3321.8 1690.54 3437.5 1665.5 3442.66 1700.88 3445.46 1724.24 3437.5 1776.5 3379.96 1782.11 3225.72 1767.93 3158.5 1776.5 3164.49 1725.25 3150.93 1700.23 3158.5 1665.5Z" fill="#FFFFFF" fill-rule="evenodd"/><path d="M3158.5 1665.5C3191.4 1680.71 3377.71 1671.5 3437.5 1665.5 3427.54 1683.31 3439.38 1731.24 3437.5 1776.5 3379.17 1772.14 3211.8 1772.63 3158.5 1776.5 3148.85 1758.81 3166.78 1681.38 3158.5 1665.5Z" stroke="#7030A0" stroke-width="3.4375" stroke-linejoin="round" stroke-miterlimit="10" fill="none" fill-rule="evenodd"/><text font-family="Ubuntu,Ubuntu_MSFontService,sans-serif" font-weight="400" font-size="64" transform="matrix(1 0 0 1 3190.68 1746)">History</text><path d="M3158.5 1840.5C3218.42 1857.53 3337.3 1822.58 3498.5 1840.5 3490.11 1866.56 3496 1921.65 3498.5 1951.5 3394.84 1927.1 3207.71 1948.31 3158.5 1951.5 3149.36 1932.38 3148.53 1877.01 3158.5 1840.5Z" fill="#FFFFFF" fill-rule="evenodd"/><path d="M3158.5 1840.5C3258.21 1819.9 3388.46 1813.17 3498.5 1840.5 3496.45 1859.97 3507.26 1920.92 3498.5 1951.5 3459.33 1937.86 3243.38 1967.56 3158.5 1951.5 3159.92 1934.19 3148.86 1861.06 3158.5 1840.5Z" stroke="#7030A0" stroke-width="3.4375" stroke-linejoin="round" stroke-miterlimit="10" fill="none" fill-rule="evenodd"/><text font-family="Ubuntu,Ubuntu_MSFontService,sans-serif" font-weight="400" font-size="64" transform="matrix(1 0 0 1 3190.68 1920)">Summary</text><path d="M3158.5 2014.5C3223.88 2007.9 3363.61 2003.95 3406.5 2014.5 3411.01 2041.74 3412.89 2093.84 3406.5 2125.5 3346.78 2133.39 3254.14 2108.8 3158.5 2125.5 3164.9 2092.29 3161.29 2060.29 3158.5 2014.5Z" fill="#FFFFFF" fill-rule="evenodd"/><path d="M3158.5 2014.5C3213.64 2008.6 3318.02 2016.16 3406.5 2014.5 3409.04 2057.13 3411.7 2071.91 3406.5 2125.5 3284.21 2119.89 3202.23 2135.6 3158.5 2125.5 3159.33 2098.3 3155.36 2042.96 3158.5 2014.5Z" stroke="#7030A0" stroke-width="3.4375" stroke-linejoin="round" stroke-miterlimit="10" fill="none" fill-rule="evenodd"/><text font-family="Ubuntu,Ubuntu_MSFontService,sans-serif" font-weight="400" font-size="64" transform="matrix(1 0 0 1 3190.68 2095)">Credit</text><path d="M3158.5 171.5C3276.82 153.041 3382.53 155.807 3421.5 171.5 3412.9 216.269 3418.41 262.487 3421.5 282.5 3365.24 264.958 3271.66 284.606 3158.5 282.5 3167.7 235.717 3148.84 193.519 3158.5 171.5Z" fill="#FFFFFF" fill-rule="evenodd"/><path d="M3158.5 171.5C3285.94 168.692 3335.99 163.032 3421.5 171.5 3418.29 223.519 3426.33 266.122 3421.5 282.5 3385.32 297.495 3258.84 287.085 3158.5 282.5 3151.48 237.043 3164.44 214.206 3158.5 171.5Z" stroke="#7030A0" stroke-width="3.4375" stroke-linejoin="round" stroke-miterlimit="10" fill="none" fill-rule="evenodd"/><text font-family="Ubuntu,Ubuntu_MSFontService,sans-serif" font-weight="400" font-size="64" transform="matrix(1 0 0 1 3190.68 251)">Search</text><path d="M3158.5 345.5C3278.12 358.526 3444.93 365.057 3528.5 345.5 3538.08 400.583 3532.19 429.889 3528.5 456.5 3435.11 447.956 3338.54 438.542 3158.5 456.5 3162.51 441.268 3157.07 396.042 3158.5 345.5Z" fill="#FFFFFF" fill-rule="evenodd"/><path d="M3158.5 345.5C3338.24 356.349 3408.63 320.738 3528.5 345.5 3534.98 397.664 3521.08 435.422 3528.5 456.5 3460.03 447.266 3236.77 442.777 3158.5 456.5 3151.42 403.444 3152.12 364.671 3158.5 345.5Z" stroke="#7030A0" stroke-width="3.4375" stroke-linejoin="round" stroke-miterlimit="10" fill="none" fill-rule="evenodd"/><text font-family="Ubuntu,Ubuntu_MSFontService,sans-serif" font-weight="400" font-size="64" transform="matrix(1 0 0 1 3190.68 426)">Departure</text><path d="M3158.5 520.5C3188.02 537.652 3332.83 510.806 3426.5 520.5 3425.68 564.504 3418.89 591.662 3426.5 631.5 3373.9 639.498 3222.87 644.186 3158.5 631.5 3167.29 613.072 3156.15 556.705 3158.5 520.5Z" fill="#FFFFFF" fill-rule="evenodd"/><path d="M3158.5 520.5C3211.48 503.625 3344.83 540.81 3426.5 520.5 3419.51 538.675 3424.08 604.826 3426.5 631.5 3301.22 654.32 3191.53 607.546 3158.5 631.5 3156.04 589.46 3152.01 543.176 3158.5 520.5Z" stroke="#7030A0" stroke-width="3.4375" stroke-linejoin="round" stroke-miterlimit="10" fill="none" fill-rule="evenodd"/><text font-family="Ubuntu,Ubuntu_MSFontService,sans-serif" font-weight="400" font-size="64" transform="matrix(1 0 0 1 3190.68 601)">Return</text><path d="M3158.5 695.5C3258.9 708.727 3323.99 709.869 3461.5 695.5 3461.24 750.053 3468.65 762.995 3461.5 806.5 3333.26 804.482 3266.41 820.535 3158.5 806.5 3154.85 788.637 3155.33 748.749 3158.5 695.5Z" fill="#FFFFFF" fill-rule="evenodd"/><path d="M3158.5 695.5C3204.27 710.35 3412.57 717.156 3461.5 695.5 3458.08 731.032 3456.02 753.005 3461.5 806.5 3355.82 809.983 3253.49 798.11 3158.5 806.5 3157.29 787.759 3150.82 718.417 3158.5 695.5Z" stroke="#7030A0" stroke-width="3.4375" stroke-linejoin="round" stroke-miterlimit="10" fill="none" fill-rule="evenodd"/><text font-family="Ubuntu,Ubuntu_MSFontService,sans-serif" font-weight="400" font-size="64" transform="matrix(1 0 0 1 3190.68 775)">Confirm</text><path d="M3158.5 869.5C3303.49 851.861 3370.97 875.815 3455.5 869.5 3458.31 911.234 3458.11 957.565 3455.5 980.5 3334.06 977.089 3252.62 966.666 3158.5 980.5 3164.32 961.988 3162.99 888.789 3158.5 869.5Z" fill="#FFFFFF" fill-rule="evenodd"/><path d="M3158.5 869.5C3265.82 875.798 3354.18 893.909 3455.5 869.5 3458.25 881.525 3446.15 942.573 3455.5 980.5 3350.67 986.21 3278.31 968.839 3158.5 980.5 3159.96 954.415 3163.78 886.96 3158.5 869.5Z" stroke="#7030A0" stroke-width="3.4375" stroke-linejoin="round" stroke-miterlimit="10" fill="none" fill-rule="evenodd"/><text font-family="Ubuntu,Ubuntu_MSFontService,sans-serif" font-weight="400" font-size="64" transform="matrix(1 0 0 1 3190.68 950)">Contact</text><path d="M3158.5 1044.5C3199.67 1021.13 3457.71 1026.06 3556.5 1044.5 3564.07 1065.92 3552.5 1132.31 3556.5 1155.5 3358.18 1128.26 3200.73 1169.93 3158.5 1155.5 3167.99 1119.66 3158.24 1059.21 3158.5 1044.5Z" fill="#FFFFFF" fill-rule="evenodd"/><path d="M3158.5 1044.5C3353.79 1072.65 3442.86 1044.69 3556.5 1044.5 3548.99 1097.45 3547.43 1136.06 3556.5 1155.5 3451.95 1134.26 3321.39 1133.59 3158.5 1155.5 3158.43 1100.76 3151.4 1084.86 3158.5 1044.5Z" stroke="#7030A0" stroke-width="3.4375" stroke-linejoin="round" stroke-miterlimit="10" fill="none" fill-rule="evenodd"/><text font-family="Ubuntu,Ubuntu_MSFontService,sans-serif" font-weight="400" font-size="64" transform="matrix(1 0 0 1 3190.68 1124)">Passengers</text><path d="M3158.5 1218.5C3282.21 1237.36 3318.65 1210.75 3408.5 1218.5 3411.23 1259.02 3399.63 1300.21 3408.5 1329.5 3381.26 1340.24 3259.8 1318.07 3158.5 1329.5 3163.46 1285.1 3167.74 1252.97 3158.5 1218.5Z" fill="#FFFFFF" fill-rule="evenodd"/><path d="M3158.5 1218.5C3257.19 1222.72 3345.72 1234.16 3408.5 1218.5 3408.61 1266.47 3399.31 1301.74 3408.5 1329.5 3308.32 1325.25 3192.05 1341.22 3158.5 1329.5 3153.35 1306.55 3159.53 1258.04 3158.5 1218.5Z" stroke="#7030A0" stroke-width="3.4375" stroke-linejoin="round" stroke-miterlimit="10" fill="none" fill-rule="evenodd"/><text font-family="Ubuntu,Ubuntu_MSFontService,sans-serif" font-weight="400" font-size="64" transform="matrix(1 0 0 1 3190.68 1299)">Extras</text><path d="M3158.5 1393.5C3192.53 1405.19 3337.03 1398.74 3485.5 1393.5 3494.3 1446.74 3488.19 1493.15 3485.5 1504.5 3364.43 1480.09 3207.33 1525.43 3158.5 1504.5 3151.09 1470.24 3151.47 1435.14 3158.5 1393.5Z" fill="#FFFFFF" fill-rule="evenodd"/><path d="M3158.5 1393.5C3200.61 1394.17 3440.24 1405.47 3485.5 1393.5 3483.83 1444.43 3491.68 1450.89 3485.5 1504.5 3450.91 1513.83 3285.67 1497.36 3158.5 1504.5 3152.74 1485.84 3165.35 1422.4 3158.5 1393.5Z" stroke="#7030A0" stroke-width="3.4375" stroke-linejoin="round" stroke-miterlimit="10" fill="none" fill-rule="evenodd"/><text font-family="Ubuntu,Ubuntu_MSFontService,sans-serif" font-weight="400" font-size="64" transform="matrix(1 0 0 1 3190.68 1473)">Payment</text><path d="M932.5 491.5C1000.14 504.412 1084.11 494.008 1161.5 491.5 1169.39 536.211 1165.87 573.953 1161.5 602.5 1125.09 609.501 1028.81 613.125 932.5 602.5 929.864 578.402 942.292 532.249 932.5 491.5Z" fill="#FFFFFF" fill-rule="evenodd"/><path d="M932.5 491.5C1001.73 509.807 1065.04 501.306 1161.5 491.5 1162.55 524.049 1170.03 552.417 1161.5 602.5 1067.62 596.08 1005.31 591.069 932.5 602.5 922.782 575.625 939.312 510.104 932.5 491.5Z" stroke="#7030A0" stroke-width="3.4375" stroke-linejoin="round" stroke-miterlimit="10" fill="none" fill-rule="evenodd"/><text font-family="Ubuntu,Ubuntu_MSFontService,sans-serif" font-weight="400" font-size="64" transform="matrix(1 0 0 1 965.124 572)">Login</text><path d="M855.5 668.5C947.57 677.705 1023.8 642.98 1145.5 668.5 1137.68 691.076 1152.02 727.022 1145.5 779.5 1068.62 791.485 920.139 801.442 855.5 779.5 860.67 759.257 851.154 700.97 855.5 668.5Z" fill="#FFFFFF" fill-rule="evenodd"/><path d="M855.5 668.5C934.1 643.52 1108.33 691.426 1145.5 668.5 1135.83 711.507 1144.66 729.566 1145.5 779.5 1007.93 767.773 890.042 791.078 855.5 779.5 852.242 749.124 860.901 687.433 855.5 668.5Z" stroke="#7030A0" stroke-width="3.4375" stroke-linejoin="round" stroke-miterlimit="10" fill="none" fill-rule="evenodd"/><text font-family="Ubuntu,Ubuntu_MSFontService,sans-serif" font-weight="400" font-size="64" transform="matrix(1 0 0 1 887.604 748)">Sign Up</text><path d="M3158.5 2193.5C3247.26 2198.02 3317.73 2187.06 3355.5 2193.5 3352.65 2204.7 3355.13 2273.24 3355.5 2304.5 3285.64 2316.97 3180.29 2292.96 3158.5 2304.5 3154.07 2283.72 3167.51 2246.38 3158.5 2193.5Z" fill="#FFFFFF" fill-rule="evenodd"/><path d="M3158.5 2193.5C3198.95 2196.08 3321.44 2191.27 3355.5 2193.5 3349.73 2247.72 3352.88 2259.37 3355.5 2304.5 3330.11 2290.04 3197.14 2295.37 3158.5 2304.5 3165.46 2260.02 3166.01 2214.15 3158.5 2193.5Z" stroke="#7030A0" stroke-width="3.4375" stroke-linejoin="round" stroke-miterlimit="10" fill="none" fill-rule="evenodd"/><text font-family="Ubuntu,Ubuntu_MSFontService,sans-serif" font-weight="400" font-size="64" transform="matrix(1 0 0 1 3190.68 2274)">Pass</text><path d="M1987.53 1242.13 1813.01 1242.13 1813.01 642.5 1638.5 642.5" stroke="#7030A0" stroke-width="4.58333" stroke-miterlimit="8" fill="none" fill-rule="evenodd"/><path d="M0 0 142.117 0 142.117 383.736 284.233 383.736" stroke="#7030A0" stroke-width="4.58333" stroke-miterlimit="8" fill="none" fill-rule="evenodd" transform="matrix(1 0 0 -1 2373.5 1242.24)"/><path d="M2373.5 1242.5 2515.62 1242.5 2515.62 1978.01 2657.73 1978.01" stroke="#7030A0" stroke-width="4.58333" stroke-miterlimit="8" fill="none" fill-rule="evenodd"/><path d="M0 0 194.183 0 194.183 13.859 388.365 13.859" stroke="#7030A0" stroke-width="4.58333" stroke-miterlimit="8" fill="none" fill-rule="evenodd" transform="matrix(-1 1.22465e-16 1.22465e-16 1 1987.87 1242.5)"/><path d="M1813.63 1250.5 1813.63 2024.09 1607.5 2024.09" stroke="#7030A0" stroke-width="4.58333" stroke-miterlimit="8" fill="none" fill-rule="evenodd"/><path d="M0 0 95.8299 0 95.8299 631.713 191.66 631.713" stroke="#7030A0" stroke-width="4.58333" stroke-miterlimit="8" fill="none" fill-rule="evenodd" transform="matrix(-1 1.22465e-16 1.22465e-16 1 3158.16 226.5)"/><path d="M0 0 95.8299 0 95.8299 457.123 191.66 457.123" stroke="#7030A0" stroke-width="4.58333" stroke-miterlimit="8" fill="none" fill-rule="evenodd" transform="matrix(-1 1.22465e-16 1.22465e-16 1 3158.16 401.5)"/><path d="M0 0 95.8299 0 95.8299 282.534 191.66 282.534" stroke="#7030A0" stroke-width="4.58333" stroke-miterlimit="8" fill="none" fill-rule="evenodd" transform="matrix(-1 1.22465e-16 1.22465e-16 1 3158.16 576.5)"/><path d="M0 0 96.017 0 96.017 95.556 192.034 95.556" stroke="#7030A0" stroke-width="4.58333" stroke-miterlimit="8" fill="none" fill-rule="evenodd" transform="matrix(-1 1.22465e-16 1.22465e-16 1 3158.53 763.5)"/><path d="M3158.53 938.817 3062.52 938.817 3062.52 858.5 2966.5 858.5" stroke="#7030A0" stroke-width="4.58333" stroke-miterlimit="8" fill="none" fill-rule="evenodd"/><path d="M3158.16 1099.73 3062.33 1099.73 3062.33 858.5 2966.5 858.5" stroke="#7030A0" stroke-width="4.58333" stroke-miterlimit="8" fill="none" fill-rule="evenodd"/><path d="M3157.82 1274.53 3062.5 1274.53 3062.5 867.5" stroke="#7030A0" stroke-width="4.58333" stroke-miterlimit="8" fill="none" fill-rule="evenodd"/><path d="M3158.16 1448.91 3062.33 1448.91 3062.33 858.5 2966.5 858.5" stroke="#7030A0" stroke-width="4.58333" stroke-miterlimit="8" fill="none" fill-rule="evenodd"/><path d="M0 0 96.4086 0 96.4086 256.536 192.817 256.536" stroke="#7030A0" stroke-width="4.58333" stroke-miterlimit="8" fill="none" fill-rule="evenodd" transform="matrix(-1 1.22465e-16 1.22465e-16 1 3158.32 1721.5)"/><path d="M0 0 96.4084 0 96.4084 81.9471 192.817 81.9471" stroke="#7030A0" stroke-width="4.58333" stroke-miterlimit="8" fill="none" fill-rule="evenodd" transform="matrix(-1 1.22465e-16 1.22465e-16 1 3158.32 1895.5)"/><path d="M3158.32 2081.25 3061.91 2081.25 3061.91 1977.5 2965.5 1977.5" stroke="#7030A0" stroke-width="4.58333" stroke-miterlimit="8" fill="none" fill-rule="evenodd"/><path d="M3158.32 2248.83 3061.91 2248.83 3061.91 1977.5 2965.5 1977.5" stroke="#7030A0" stroke-width="4.58333" stroke-miterlimit="8" fill="none" fill-rule="evenodd"/><path d="M1323.08 642.986 1242.29 642.986 1242.29 547.5 1161.5 547.5" stroke="#7030A0" stroke-width="4.58333" stroke-miterlimit="8" fill="none" fill-rule="evenodd"/><path d="M0 0 81.5381 0 81.5381 81.2206 178.354 81.2206" stroke="#7030A0" stroke-width="4.58333" stroke-miterlimit="8" fill="none" fill-rule="evenodd" transform="matrix(-1 1.22465e-16 1.22465e-16 1 1323.85 642.5)"/><path d="M1394.75 1256.51 1265.69 1256.51 1265.69 1095.5 1143.5 1095.5" stroke="#7030A0" stroke-width="4.58333" stroke-miterlimit="8" fill="none" fill-rule="evenodd"/><path d="M0 0 130.251 0 130.251 13.5825 260.503 13.5825" stroke="#7030A0" stroke-width="4.58333" stroke-miterlimit="8" fill="none" fill-rule="evenodd" transform="matrix(-1 1.22465e-16 1.22465e-16 1 1395 1256.5)"/><path d="M0 0 128.53 0 128.53 188.172 222.321 188.172" stroke="#7030A0" stroke-width="4.58333" stroke-miterlimit="8" fill="none" fill-rule="evenodd" transform="matrix(-1 1.22465e-16 1.22465e-16 1 1394.82 1256.5)"/><path d="M0 0 107.213 0 107.213 174.589 214.426 174.589" stroke="#7030A0" stroke-width="4.58333" stroke-miterlimit="8" fill="none" fill-rule="evenodd" transform="matrix(-1 1.22465e-16 1.22465e-16 1 1376.93 2024.5)"/><path d="M1377.44 2024.09 1270.14 2024.09 1270.14 1849.5 1144.5 1849.5" stroke="#7030A0" stroke-width="4.58333" stroke-miterlimit="8" fill="none" fill-rule="evenodd"/><path d="M0 0 148.889 0.000360892" stroke="#7030A0" stroke-width="4.58333" stroke-miterlimit="8" fill="#F2CFEE" fill-rule="evenodd" transform="matrix(1 0 0 -1 1156.5 2024.5)"/></g></svg>