<svg xmlns="http://www.w3.org/2000/svg" xmlns:xlink="http://www.w3.org/1999/xlink" width="1080" zoomAndPan="magnify" viewBox="0 0 810 809.999993" height="1080" preserveAspectRatio="xMidYMid meet" version="1.0"><defs><clipPath id="f04cc8b0fe"><path d="M 135.460938 81.0625 L 681.460938 81.0625 L 681.460938 735.8125 L 135.460938 735.8125 Z M 135.460938 81.0625 " clip-rule="nonzero"/></clipPath></defs><g clip-path="url(#f04cc8b0fe)"><path fill="#a78bfa" d="M 613.050781 162.914062 L 572.125 162.914062 L 572.125 149.273438 C 572.125 141.742188 566.015625 135.628906 558.484375 135.628906 L 475.269531 135.628906 C 468.914062 104.527344 441.386719 81.0625 408.425781 81.0625 C 375.46875 81.0625 347.941406 104.527344 341.582031 135.628906 L 258.371094 135.628906 C 250.839844 135.628906 244.726562 141.742188 244.726562 149.273438 L 244.726562 162.914062 L 203.804688 162.914062 C 166.207031 162.914062 135.59375 193.5 135.59375 231.121094 L 135.59375 667.652344 C 135.59375 705.277344 166.207031 735.859375 203.804688 735.859375 L 613.050781 735.859375 C 650.648438 735.859375 681.257812 705.277344 681.257812 667.652344 L 681.257812 231.121094 C 681.257812 193.5 650.648438 162.914062 613.050781 162.914062 Z M 272.011719 162.914062 L 353.859375 162.914062 C 361.390625 162.914062 367.503906 156.800781 367.503906 149.273438 C 367.503906 126.707031 385.863281 108.347656 408.425781 108.347656 C 430.992188 108.347656 449.351562 126.707031 449.351562 149.273438 C 449.351562 156.800781 455.464844 162.914062 462.992188 162.914062 L 544.84375 162.914062 L 544.84375 203.839844 C 544.84375 211.339844 538.730469 217.480469 531.203125 217.480469 L 285.652344 217.480469 C 278.121094 217.480469 272.011719 211.339844 272.011719 203.839844 Z M 653.976562 667.652344 C 653.976562 690.214844 635.613281 708.578125 613.050781 708.578125 L 203.804688 708.578125 C 181.238281 708.578125 162.878906 690.214844 162.878906 667.652344 L 162.878906 231.121094 C 162.878906 208.558594 181.238281 190.195312 203.804688 190.195312 L 244.726562 190.195312 L 244.726562 203.839844 C 244.726562 226.402344 263.089844 244.761719 285.652344 244.761719 L 531.203125 244.761719 C 553.765625 244.761719 572.125 226.402344 572.125 203.839844 L 572.125 190.195312 L 613.050781 190.195312 C 635.613281 190.195312 653.976562 208.558594 653.976562 231.121094 Z M 653.976562 667.652344 " fill-opacity="1" fill-rule="nonzero"/></g><path fill="#a78bfa" d="M 251.523438 377.578125 C 254.140625 379.980469 257.441406 381.179688 260.742188 381.179688 C 264.34375 381.179688 267.917969 379.761719 270.59375 376.976562 L 322.785156 322.410156 C 327.996094 316.953125 327.804688 308.304688 322.347656 303.121094 C 316.890625 297.882812 308.242188 298.101562 303.058594 303.558594 L 260.144531 348.441406 L 240.308594 330.214844 C 234.769531 325.167969 226.175781 325.523438 221.046875 331.003906 C 215.945312 336.570312 216.328125 345.191406 221.863281 350.292969 Z M 251.523438 377.578125 " fill-opacity="1" fill-rule="nonzero"/><path fill="#a78bfa" d="M 303.085938 549.082031 L 260.144531 593.988281 L 240.308594 575.761719 C 234.769531 570.6875 226.148438 571.042969 221.019531 576.554688 C 215.917969 582.121094 216.300781 590.742188 221.835938 595.84375 L 251.496094 623.125 C 254.140625 625.527344 257.441406 626.726562 260.742188 626.726562 C 264.34375 626.726562 267.917969 625.308594 270.59375 622.527344 L 322.785156 567.960938 C 327.996094 562.503906 327.804688 553.855469 322.347656 548.671875 C 316.917969 543.433594 308.269531 543.625 303.085938 549.082031 Z M 303.085938 549.082031 " fill-opacity="1" fill-rule="nonzero"/><path fill="#a78bfa" d="M 322.59375 412.445312 C 317.273438 407.125 308.625 407.125 303.304688 412.445312 L 272.011719 443.738281 L 240.746094 412.472656 C 235.425781 407.152344 226.777344 407.152344 221.457031 412.472656 C 216.136719 417.792969 216.136719 426.441406 221.457031 431.761719 L 252.722656 463.027344 L 221.457031 494.296875 C 216.136719 499.617188 216.136719 508.265625 221.457031 513.585938 C 224.101562 516.257812 227.59375 517.59375 231.085938 517.59375 C 234.578125 517.59375 238.070312 516.257812 240.746094 513.613281 L 272.011719 482.316406 L 303.277344 513.585938 C 305.953125 516.257812 309.445312 517.59375 312.9375 517.59375 C 316.429688 517.59375 319.921875 516.257812 322.59375 513.613281 C 327.914062 508.292969 327.914062 499.644531 322.59375 494.324219 L 291.300781 463.027344 L 322.566406 431.761719 C 327.914062 426.414062 327.914062 417.792969 322.59375 412.445312 Z M 322.59375 412.445312 " fill-opacity="1" fill-rule="nonzero"/><path fill="#a78bfa" d="M 585.769531 326.613281 L 394.785156 326.613281 C 387.253906 326.613281 381.144531 332.722656 381.144531 340.253906 C 381.144531 347.785156 387.253906 353.894531 394.785156 353.894531 L 585.769531 353.894531 C 593.296875 353.894531 599.410156 347.785156 599.410156 340.253906 C 599.410156 332.722656 593.296875 326.613281 585.769531 326.613281 Z M 585.769531 326.613281 " fill-opacity="1" fill-rule="nonzero"/><path fill="#a78bfa" d="M 585.769531 435.746094 L 394.785156 435.746094 C 387.253906 435.746094 381.144531 441.855469 381.144531 449.386719 C 381.144531 456.917969 387.253906 463.027344 394.785156 463.027344 L 585.769531 463.027344 C 593.296875 463.027344 599.410156 456.917969 599.410156 449.386719 C 599.410156 441.855469 593.296875 435.746094 585.769531 435.746094 Z M 585.769531 435.746094 " fill-opacity="1" fill-rule="nonzero"/><path fill="#a78bfa" d="M 585.769531 572.160156 L 394.785156 572.160156 C 387.253906 572.160156 381.144531 578.273438 381.144531 585.804688 C 381.144531 593.332031 387.253906 599.445312 394.785156 599.445312 L 585.769531 599.445312 C 593.296875 599.445312 599.410156 593.332031 599.410156 585.804688 C 599.410156 578.273438 593.296875 572.160156 585.769531 572.160156 Z M 585.769531 572.160156 " fill-opacity="1" fill-rule="nonzero"/></svg>