<svg xmlns="http://www.w3.org/2000/svg" xmlns:xlink="http://www.w3.org/1999/xlink" width="1080" zoomAndPan="magnify" viewBox="0 0 810 809.999993" height="1080" preserveAspectRatio="xMidYMid meet" version="1.0"><defs><clipPath id="df597674c9"><path d="M 138.214844 43 L 671.464844 43 L 671.464844 782 L 138.214844 782 Z M 138.214844 43 " clip-rule="nonzero"/></clipPath></defs><g clip-path="url(#df597674c9)"><path fill="#e4e4e7" d="M 659.222656 69.972656 C 653.191406 71.933594 645.503906 77.058594 639.476562 84.445312 C 634.351562 90.625 630.730469 96.957031 628.167969 101.929688 C 628.019531 100.875 627.867188 100.273438 627.71875 100.273438 C 627.113281 100.273438 626.8125 103.289062 624.851562 108.261719 C 622.894531 113.234375 618.972656 120.171875 613.847656 128.613281 C 608.722656 137.054688 602.242188 146.851562 594.402344 157.101562 C 590.484375 162.226562 586.261719 167.652344 581.589844 172.929688 C 577.066406 178.355469 571.941406 183.480469 566.96875 189.664062 C 564.558594 192.828125 562.296875 196.144531 560.636719 199.761719 C 558.828125 203.230469 557.621094 206.847656 556.417969 210.3125 C 554.15625 217.246094 552.648438 224.03125 550.6875 230.0625 C 546.917969 242.121094 541.039062 252.21875 535.613281 260.359375 C 530.1875 268.5 525.214844 274.679688 521.898438 279.203125 C 520.390625 281.164062 519.335938 282.667969 518.582031 283.875 C 518.128906 283.273438 517.828125 282.667969 517.375 282.066406 C 516.621094 280.859375 515.867188 279.804688 515.113281 278.75 C 513.757812 276.640625 512.550781 274.980469 511.496094 273.625 C 509.386719 270.910156 508.179688 269.40625 507.878906 269.707031 C 507.578125 269.855469 508.179688 271.664062 509.6875 274.832031 C 510.441406 276.339844 511.34375 278.296875 512.550781 280.410156 C 513.152344 281.464844 513.757812 282.667969 514.359375 283.875 C 514.960938 285.082031 515.867188 286.589844 515.714844 287.191406 C 515.714844 287.644531 515.265625 288.699219 514.359375 289.753906 C 513.605469 290.808594 512.703125 291.863281 511.644531 292.921875 C 509.535156 295.03125 506.972656 297.140625 504.261719 299.554688 C 501.546875 301.964844 498.382812 304.828125 496.574219 309.351562 C 495.667969 311.613281 495.214844 314.175781 495.367188 316.738281 C 495.515625 319.300781 496.269531 321.410156 496.722656 323.519531 C 497.324219 325.632812 497.777344 327.441406 497.777344 329.097656 C 497.777344 330.757812 497.324219 332.566406 496.574219 334.523438 C 494.914062 338.59375 493.105469 343.269531 491.597656 347.941406 C 490.089844 352.613281 488.582031 357.589844 487.378906 362.5625 C 486.320312 366.632812 485.566406 370.703125 484.816406 375.074219 C 481.5 378.542969 476.824219 384.269531 471.246094 390.601562 C 466.574219 395.875 462.355469 400.25 459.039062 404.015625 C 458.285156 401.453125 457.378906 399.042969 456.625 396.480469 C 454.0625 388.792969 451.5 381.40625 450.445312 374.167969 C 449.84375 370.550781 449.691406 367.085938 449.691406 363.617188 C 449.84375 360.152344 450.292969 356.683594 450.746094 353.214844 C 451.199219 349.75 451.800781 346.28125 451.953125 342.816406 C 452.105469 339.347656 452.105469 335.882812 451.800781 332.566406 C 451.199219 326.082031 449.691406 320.054688 447.582031 314.929688 C 443.359375 304.527344 436.878906 297.742188 431.902344 294.125 C 430.699219 293.222656 429.492188 292.617188 428.4375 292.015625 C 428.4375 292.015625 428.4375 292.015625 428.589844 291.863281 C 429.792969 290.660156 431.453125 289.300781 433.5625 287.796875 C 435.671875 286.289062 437.933594 284.628906 440.195312 282.820312 C 444.867188 279.351562 449.238281 276.640625 452.554688 274.679688 C 453.308594 274.226562 453.914062 273.777344 454.515625 273.472656 C 456.171875 273.925781 458.132812 273.625 459.640625 272.722656 C 461.148438 271.816406 462.050781 270.910156 462.804688 270.15625 C 468.683594 264.128906 476.675781 260.660156 481.949219 256.894531 C 485.871094 254.332031 488.128906 251.769531 488.882812 250.261719 C 489.035156 250.410156 489.035156 250.410156 489.1875 250.5625 L 490.242188 251.464844 L 490.84375 252.070312 C 491.296875 252.371094 491.75 252.824219 492.050781 253.125 C 492.804688 253.726562 493.707031 254.332031 494.460938 254.933594 C 495.96875 255.988281 497.324219 256.894531 498.382812 257.648438 C 500.640625 259.003906 502.148438 259.457031 502.453125 259.003906 C 502.753906 258.550781 502 257.34375 500.339844 255.386719 C 499.4375 254.480469 498.382812 253.273438 497.324219 251.917969 C 496.722656 251.316406 496.121094 250.5625 495.367188 249.808594 C 495.066406 249.355469 494.613281 249.054688 494.3125 248.601562 L 493.707031 248 C 493.558594 247.847656 493.558594 247.847656 493.558594 247.699219 L 493.40625 247.246094 C 493.40625 247.246094 493.40625 247.09375 493.257812 247.09375 L 493.40625 246.945312 L 493.707031 246.640625 C 493.707031 246.640625 493.707031 246.640625 493.859375 246.640625 L 494.914062 245.585938 C 496.722656 243.628906 498.683594 241.515625 500.640625 239.257812 C 504.710938 234.734375 509.085938 229.757812 513.605469 224.332031 C 518.128906 218.90625 522.347656 213.78125 526.117188 209.109375 C 529.886719 204.433594 533.351562 199.914062 535.613281 195.691406 C 540.136719 187.25 540.589844 181.21875 539.835938 180.917969 C 539.683594 180.917969 539.535156 180.917969 539.230469 181.21875 C 540.589844 178.808594 542.097656 176.246094 544.054688 173.683594 C 549.332031 166.144531 556.566406 158.007812 565.613281 149.566406 C 574.503906 141.125 585.058594 132.230469 595.007812 121.527344 C 599.980469 116.101562 604.503906 110.523438 608.273438 104.492188 C 612.039062 98.464844 614.90625 92.28125 616.714844 85.953125 C 618.523438 79.621094 619.425781 73.441406 618.972656 67.410156 C 618.824219 65.902344 618.824219 64.546875 618.523438 63.039062 C 618.371094 61.683594 618.070312 60.324219 617.617188 58.96875 L 617.316406 57.914062 L 617.164062 57.460938 L 617.164062 57.3125 L 616.863281 56.707031 C 616.714844 56.257812 616.5625 55.953125 616.261719 55.652344 C 615.960938 55.050781 615.207031 53.84375 615.808594 53.089844 C 616.410156 52.488281 617.015625 53.089844 617.617188 53.242188 C 618.222656 53.542969 618.671875 54.144531 619.125 54.75 C 619.578125 55.351562 619.878906 55.953125 620.480469 57.3125 C 622.289062 62.136719 623.796875 64.847656 624.402344 64.699219 C 624.851562 64.546875 624.25 61.683594 623.195312 56.558594 C 622.894531 55.503906 622.289062 53.242188 621.234375 51.128906 C 620.179688 49.171875 618.671875 47.363281 617.015625 45.855469 C 615.207031 44.648438 613.546875 43.292969 610.984375 44.347656 C 609.78125 44.949219 609.175781 46.003906 609.027344 46.910156 C 608.875 47.363281 608.875 47.8125 608.875 48.265625 C 608.875 48.566406 608.875 48.71875 608.875 49.019531 L 609.175781 50.074219 C 609.328125 50.828125 609.476562 51.582031 609.628906 52.335938 C 609.78125 52.789062 609.78125 53.089844 609.929688 53.542969 L 610.53125 55.050781 C 610.835938 56.105469 611.285156 57.160156 611.589844 58.066406 L 611.890625 58.820312 C 611.890625 58.96875 611.890625 59.121094 612.039062 59.269531 L 611.589844 60.023438 C 611.890625 61.230469 612.039062 62.4375 612.191406 63.640625 C 612.339844 64.847656 612.339844 66.203125 612.492188 67.410156 C 612.644531 72.535156 611.589844 78.113281 609.929688 83.691406 C 608.121094 89.269531 605.40625 94.996094 601.941406 100.421875 C 598.472656 105.851562 594.101562 111.125 589.429688 116.402344 C 579.933594 126.804688 569.53125 135.695312 560.789062 144.589844 C 551.894531 153.484375 544.507812 162.378906 539.683594 170.667969 C 534.710938 178.960938 532.148438 186.496094 530.941406 191.773438 C 530.789062 192.375 530.640625 192.976562 530.640625 193.582031 C 528.078125 196.898438 524.761719 200.515625 520.992188 204.734375 C 516.921875 209.257812 512.550781 214.234375 508.027344 219.660156 C 503.507812 225.085938 499.285156 230.210938 495.515625 234.882812 C 493.707031 237.296875 491.898438 239.558594 490.242188 241.667969 C 489.035156 243.175781 487.828125 244.683594 486.773438 246.191406 L 485.871094 247.394531 C 486.171875 247.847656 486.625 248.148438 486.925781 248.453125 C 487.074219 248.601562 487.378906 248.902344 487.527344 249.054688 C 485.871094 249.507812 483.15625 250.710938 479.386719 252.371094 C 476.523438 253.578125 473.207031 254.933594 469.289062 256.742188 C 465.519531 258.550781 461.148438 261.113281 457.53125 265.03125 C 456.777344 265.785156 456.324219 266.238281 456.023438 266.390625 C 456.023438 266.390625 456.023438 266.390625 455.871094 266.390625 C 455.570312 266.390625 454.515625 265.785156 453.609375 265.484375 C 452.707031 265.183594 451.652344 264.730469 450.746094 264.582031 C 448.9375 263.976562 447.128906 263.527344 445.320312 263.222656 C 445.019531 263.222656 444.265625 263.074219 444.113281 263.074219 L 443.8125 263.074219 C 443.660156 263.074219 443.359375 263.074219 443.210938 263.222656 C 442.757812 263.527344 443.511719 258.851562 443.359375 256.894531 C 443.359375 256.742188 443.359375 256.742188 443.359375 256.589844 C 443.660156 256.742188 443.8125 256.742188 444.113281 256.894531 C 445.019531 257.195312 446.375 257.648438 448.484375 257.496094 C 452.40625 256.742188 455.269531 253.578125 456.171875 249.957031 C 457.078125 246.339844 456.171875 242.421875 453.914062 240.011719 C 451.800781 237.597656 449.238281 236.695312 447.128906 236.542969 C 446.828125 233.828125 444.414062 225.6875 441.550781 213.78125 C 440.648438 210.164062 439.742188 206.09375 438.988281 201.871094 C 438.6875 199.761719 438.535156 197.800781 438.6875 195.992188 C 438.839844 195.089844 439.140625 194.335938 439.441406 193.128906 C 439.894531 191.921875 440.34375 190.265625 440.34375 188.304688 C 440.195312 184.386719 437.933594 181.21875 435.21875 179.261719 C 432.355469 177.152344 428.890625 176.246094 425.875 176.09375 C 422.707031 175.945312 419.84375 176.246094 416.980469 176.546875 C 414.117188 176.847656 411.253906 177.300781 408.238281 177.902344 C 402.359375 179.109375 396.480469 181.21875 391.355469 184.6875 C 386.378906 188.15625 382.613281 192.828125 380.050781 197.5 C 374.921875 207.148438 374.019531 216.945312 374.320312 224.785156 C 374.621094 232.625 376.128906 238.652344 377.183594 242.875 C 377.183594 243.023438 377.335938 243.175781 377.335938 243.324219 C 375.980469 243.175781 373.867188 243.175781 371.457031 244.832031 C 370.25 245.738281 369.042969 247.394531 368.742188 249.507812 C 368.292969 251.617188 369.042969 253.878906 370.101562 255.535156 C 371.304688 257.195312 372.8125 258.550781 374.621094 259.605469 C 376.429688 260.511719 378.238281 260.960938 379.898438 261.265625 C 381.554688 261.566406 383.0625 261.867188 384.117188 262.167969 C 384.722656 262.320312 385.175781 262.46875 385.324219 262.621094 C 385.476562 262.773438 385.476562 262.621094 385.625 262.773438 C 385.777344 262.621094 385.929688 264.128906 386.078125 265.335938 C 386.230469 266.539062 386.378906 267.59375 386.53125 268.652344 C 386.832031 270.609375 386.984375 272.269531 387.285156 273.472656 C 385.625 273.324219 383.667969 273.023438 381.554688 272.722656 C 371.609375 271.363281 358.039062 268.5 344.171875 262.621094 C 337.238281 259.757812 330.90625 256.289062 325.179688 252.824219 L 324.125 252.21875 C 323.671875 251.917969 322.765625 251.316406 322.316406 251.015625 C 321.109375 250.109375 319.753906 249.355469 318.546875 248.453125 L 316.738281 247.246094 L 316.585938 247.09375 L 316.4375 247.09375 C 316.4375 247.09375 316.4375 247.246094 316.4375 247.246094 L 316.285156 247.847656 L 315.984375 248.902344 C 315.984375 249.054688 315.984375 249.054688 315.832031 249.203125 C 312.96875 246.339844 307.542969 241.515625 300.910156 234.734375 C 295.632812 229.457031 289.753906 222.824219 283.726562 215.136719 C 280.710938 211.21875 277.542969 207.148438 274.832031 202.777344 C 273.476562 200.515625 272.269531 198.40625 271.0625 195.84375 C 269.707031 193.28125 268.199219 190.414062 265.785156 188.003906 C 263.527344 185.59375 261.113281 183.785156 258.851562 181.972656 C 256.589844 180.316406 254.480469 178.65625 252.21875 177.152344 C 248 173.984375 243.929688 170.667969 240.160156 167.503906 C 232.625 161.171875 225.992188 155.140625 220.5625 150.015625 C 217.25 146.851562 214.382812 144.136719 211.972656 141.726562 C 211.066406 139.765625 210.164062 137.203125 209.410156 134.039062 C 208.503906 130.121094 207.75 125.296875 207.75 120.019531 C 207.75 114.894531 208.957031 109.167969 211.21875 103.4375 C 211.820312 101.929688 212.425781 100.574219 213.027344 99.21875 C 213.179688 98.914062 214.082031 96.957031 214.683594 95.75 L 215.742188 93.640625 C 215.890625 93.035156 216.042969 92.433594 216.191406 91.980469 C 216.496094 90.777344 216.34375 90.023438 216.191406 89.117188 C 215.890625 88.363281 215.4375 87.460938 214.683594 86.707031 C 213.78125 86.101562 213.179688 85.800781 212.273438 85.800781 C 211.519531 85.652344 210.464844 85.800781 209.257812 86.253906 C 207.148438 87.007812 204.738281 88.363281 202.777344 89.871094 C 201.570312 90.925781 200.515625 91.832031 199.609375 92.886719 C 197.800781 94.996094 196.445312 97.257812 195.390625 99.21875 C 193.28125 103.289062 192.527344 106.90625 192.226562 109.316406 C 191.921875 111.730469 192.074219 113.234375 192.527344 113.386719 C 192.980469 113.539062 193.730469 112.332031 194.9375 110.222656 C 196.144531 108.109375 197.5 105.097656 199.914062 101.78125 C 201.117188 100.121094 202.476562 98.464844 204.132812 96.957031 C 204.886719 96.203125 205.941406 95.449219 206.695312 94.84375 C 206.996094 94.695312 206.996094 94.695312 207.148438 94.695312 C 207.300781 94.695312 207.300781 94.996094 207.148438 94.996094 C 207.148438 95.148438 207.300781 94.695312 206.847656 95.75 C 206.09375 97.257812 205.488281 98.765625 204.886719 100.421875 C 202.476562 106.90625 201.269531 113.6875 201.570312 119.71875 C 201.871094 125.296875 203.078125 129.96875 204.585938 133.886719 C 203.832031 133.285156 203.230469 132.984375 203.078125 133.132812 C 202.324219 133.738281 207.300781 141.726562 217.398438 153.183594 C 222.375 158.910156 228.703125 165.394531 236.242188 172.175781 C 240.011719 175.492188 244.078125 178.960938 248.453125 182.277344 C 252.671875 185.742188 257.648438 188.757812 260.964844 192.375 C 262.621094 194.183594 263.828125 196.144531 265.183594 198.707031 C 266.390625 201.117188 267.898438 203.832031 269.40625 206.242188 C 272.570312 211.066406 275.886719 215.136719 279.050781 219.058594 C 285.535156 226.746094 292.167969 233.226562 298.046875 238.199219 C 306.035156 244.984375 312.515625 249.207031 315.984375 251.015625 C 315.832031 251.617188 315.683594 252.21875 315.53125 252.824219 C 315.230469 254.027344 314.929688 255.234375 314.628906 256.441406 C 314.476562 257.195312 314.324219 257.796875 314.175781 258.550781 C 313.875 259.90625 313.570312 261.265625 313.269531 262.46875 C 311.007812 272.417969 309.953125 278.75 311.007812 279.050781 C 311.914062 279.351562 314.628906 273.625 318.246094 263.976562 C 318.695312 262.773438 319.148438 261.566406 319.601562 260.210938 C 319.902344 259.605469 320.054688 258.851562 320.355469 258.25 C 320.507812 257.796875 320.507812 257.796875 320.507812 257.796875 L 320.65625 257.648438 C 320.808594 257.496094 320.808594 257.195312 321.109375 257.496094 L 321.257812 257.796875 C 321.410156 257.796875 321.257812 257.796875 321.410156 257.949219 L 322.464844 258.703125 C 328.195312 262.621094 334.828125 266.539062 342.210938 269.554688 C 345.078125 270.761719 347.789062 271.816406 350.65625 272.722656 C 350.050781 272.722656 349.296875 272.570312 348.542969 272.417969 C 347.1875 272.117188 345.527344 271.664062 343.417969 271.214844 C 342.363281 271.0625 341.15625 270.910156 339.800781 270.910156 C 338.445312 270.910156 336.785156 271.363281 335.277344 272.417969 C 333.769531 273.324219 332.566406 274.980469 331.960938 276.488281 C 331.359375 277.996094 331.058594 279.503906 330.90625 280.859375 C 330.605469 283.421875 330.605469 285.683594 330.304688 287.945312 C 330.003906 290.207031 329.703125 292.167969 328.949219 293.671875 C 328.195312 295.179688 326.988281 296.839844 325.632812 298.496094 C 322.765625 301.8125 320.507812 305.734375 319.300781 308.898438 C 318.695312 310.558594 318.246094 312.0625 317.945312 313.421875 C 317.640625 314.625 317.339844 316.132812 317.640625 317.339844 C 316.886719 316.886719 316.132812 316.585938 315.53125 316.132812 C 313.570312 314.929688 312.214844 313.722656 311.761719 312.0625 C 310.707031 308.746094 312.367188 304.828125 313.269531 301.964844 C 314.324219 298.949219 314.777344 296.238281 314.777344 294.425781 C 314.777344 292.617188 314.175781 291.714844 314.023438 291.863281 C 313.722656 291.863281 313.722656 292.769531 313.269531 294.277344 C 313.121094 295.03125 312.816406 295.933594 312.367188 297.140625 C 309.503906 294.578125 301.664062 288.851562 293.070312 277.847656 C 287.492188 270.910156 281.765625 261.867188 275.433594 251.464844 C 272.117188 246.339844 268.5 240.761719 263.375 235.941406 C 258.402344 230.964844 252.523438 227.195312 247.394531 222.976562 C 242.421875 218.753906 237.898438 213.929688 233.980469 208.804688 C 230.0625 203.832031 226.746094 198.554688 223.578125 193.429688 C 217.25 183.179688 211.820312 173.683594 206.394531 166.296875 C 200.96875 158.761719 195.84375 153.183594 191.773438 149.867188 C 190.71875 148.960938 189.8125 148.207031 188.910156 147.605469 C 189.964844 147.304688 191.019531 146.851562 191.621094 146.25 C 193.128906 144.890625 193.28125 143.6875 192.980469 143.382812 C 192.527344 143.082031 191.773438 143.535156 190.417969 143.6875 C 189.058594 143.835938 187.101562 143.835938 185.140625 142.933594 C 183.179688 142.027344 181.070312 140.066406 178.660156 137.203125 C 176.097656 134.339844 172.929688 131.175781 169.3125 128.308594 C 162.078125 122.582031 154.390625 118.8125 148.660156 117.15625 C 142.933594 115.347656 139.164062 115.347656 138.863281 116.25 C 138.257812 118.210938 151.523438 123.335938 164.789062 134.039062 C 168.105469 136.75 171.121094 139.3125 173.835938 142.027344 C 176.699219 144.742188 180.015625 147.304688 183.785156 148.058594 C 184.839844 148.207031 185.742188 148.359375 186.648438 148.207031 C 189.511719 151.523438 195.84375 158.308594 202.324219 169.3125 C 207.148438 177 211.972656 186.496094 218 197.046875 C 221.015625 202.324219 224.484375 207.902344 228.402344 213.328125 C 232.472656 218.753906 237.296875 224.03125 242.875 228.703125 C 248.453125 233.378906 254.179688 236.84375 258.550781 241.066406 C 262.921875 245.285156 266.539062 250.261719 269.855469 255.234375 C 276.339844 265.183594 282.820312 274.378906 289.152344 281.164062 C 295.484375 288.097656 301.511719 292.769531 306.035156 295.332031 C 308.597656 296.839844 310.707031 297.742188 311.914062 298.195312 C 311.613281 298.949219 311.160156 299.855469 310.707031 300.757812 C 310.105469 302.265625 309.199219 303.773438 308.597656 305.734375 C 307.996094 307.691406 307.390625 310.105469 307.996094 312.96875 C 308.597656 315.832031 310.859375 318.394531 313.121094 319.902344 C 314.324219 320.65625 315.53125 321.410156 316.585938 322.164062 C 317.640625 322.765625 319 323.671875 319.601562 324.273438 C 319.753906 324.425781 319.902344 324.574219 319.902344 324.726562 L 319.753906 325.78125 C 319.601562 327.136719 319.300781 328.644531 319 330.003906 C 318.394531 332.867188 317.339844 335.882812 316.4375 339.199219 C 314.324219 345.527344 312.667969 353.214844 312.367188 360.90625 C 312.066406 365.425781 312.066406 370.101562 312.214844 374.773438 C 309.351562 378.390625 306.9375 382.007812 304.980469 385.625 C 303.171875 388.941406 301.8125 392.257812 300.609375 395.425781 C 300.003906 396.933594 299.554688 398.589844 299.101562 399.945312 C 298.648438 401.304688 298.195312 402.207031 297.746094 402.660156 C 297.441406 403.113281 296.839844 403.261719 295.785156 403.261719 C 294.730469 403.261719 293.523438 403.113281 292.617188 402.960938 C 290.507812 402.660156 288.851562 402.359375 287.34375 401.90625 C 284.480469 401.152344 282.820312 400.550781 282.519531 401 C 282.21875 401.453125 283.421875 402.8125 286.289062 404.46875 C 287.644531 405.375 289.453125 406.125 291.714844 406.878906 C 292.921875 407.183594 293.976562 407.484375 295.484375 407.785156 C 296.238281 407.9375 297.140625 407.9375 298.046875 407.785156 C 299.101562 407.632812 300.15625 407.183594 301.058594 406.578125 C 302.871094 405.222656 303.773438 403.5625 304.375 402.058594 C 305.128906 400.550781 305.582031 399.191406 306.335938 397.835938 C 307.691406 394.972656 309.199219 391.957031 311.007812 388.941406 C 311.613281 388.039062 312.214844 387.132812 312.820312 386.078125 C 312.96875 387.886719 312.96875 389.695312 313.121094 391.503906 C 312.667969 392.863281 312.214844 394.066406 311.761719 395.425781 C 309.503906 402.058594 307.84375 408.386719 306.335938 414.117188 C 305.582031 416.980469 304.828125 419.542969 304.074219 422.105469 C 303.625 423.765625 303.625 423.613281 303.625 424.214844 C 303.625 424.515625 303.320312 424.820312 303.019531 424.820312 L 302.566406 424.667969 L 302.265625 424.515625 L 301.664062 424.214844 C 300.910156 423.765625 300.15625 423.3125 299.402344 422.707031 C 298.046875 421.804688 296.839844 420.898438 295.785156 420.144531 C 293.824219 418.636719 292.617188 417.734375 292.316406 418.035156 C 291.867188 418.335938 292.316406 419.84375 293.675781 421.953125 C 294.429688 423.011719 295.332031 424.367188 296.6875 425.722656 C 297.292969 426.476562 298.046875 427.078125 298.949219 427.832031 L 299.554688 428.4375 L 300.609375 429.191406 C 301.363281 429.792969 302.117188 430.246094 302.871094 430.546875 C 303.625 430.847656 304.527344 431 305.433594 430.699219 C 306.335938 430.394531 306.9375 429.792969 307.542969 429.039062 C 308.296875 427.382812 309.503906 424.96875 309.804688 424.066406 C 310.707031 421.804688 311.613281 419.242188 312.515625 416.679688 C 311.914062 423.011719 311.3125 429.191406 311.3125 435.523438 C 311.007812 443.964844 312.066406 452.554688 314.777344 460.09375 C 317.339844 467.628906 321.863281 474.414062 327.742188 478.933594 C 333.621094 483.609375 340.402344 485.265625 346.132812 486.171875 C 348.695312 486.621094 351.105469 486.925781 353.367188 487.074219 C 351.859375 487.527344 350.351562 488.128906 348.84375 489.035156 C 346.585938 490.390625 344.625 492.351562 343.117188 494.613281 C 339.953125 499.285156 338.59375 504.863281 337.085938 509.988281 C 332.714844 525.363281 329.703125 538.929688 329.097656 545.414062 C 327.589844 544.660156 326.082031 543.90625 324.425781 543 C 322.011719 541.792969 319.601562 540.4375 316.585938 539.230469 C 313.722656 538.027344 310.40625 536.96875 306.488281 537.121094 C 304.527344 537.273438 302.417969 537.722656 300.609375 538.78125 C 298.648438 539.835938 297.140625 541.34375 295.933594 542.847656 C 293.523438 545.863281 292.167969 549.179688 290.207031 551.140625 C 288.550781 553.101562 285.535156 554.15625 281.917969 555.511719 C 278.148438 556.867188 274.226562 559.28125 271.214844 562.296875 C 264.882812 568.175781 260.8125 576.765625 260.210938 585.960938 C 259.605469 595.15625 262.46875 603.75 266.84375 610.984375 C 268.046875 612.792969 269.101562 614.453125 270.761719 616.109375 C 272.269531 617.769531 274.226562 619.277344 276.792969 620.179688 C 277.695312 620.480469 278.601562 620.632812 279.503906 620.78125 C 280.257812 622.742188 280.859375 625.605469 280.859375 629.222656 C 281.011719 633.597656 280.105469 638.871094 279.804688 645.203125 C 279.355469 651.535156 279.203125 658.921875 279.65625 666.910156 C 280.105469 674.898438 281.011719 683.792969 282.671875 693.140625 C 283.574219 697.8125 284.628906 702.785156 286.589844 707.609375 C 288.398438 712.585938 290.960938 717.558594 294.878906 721.929688 C 298.648438 726.300781 303.625 729.917969 309.652344 731.878906 C 315.683594 733.839844 322.617188 733.234375 328.496094 730.824219 C 334.375 728.414062 339.648438 724.492188 343.871094 719.519531 C 348.09375 714.695312 351.257812 709.117188 353.820312 703.539062 C 356.535156 697.8125 358.644531 692.234375 360.90625 686.808594 C 363.164062 681.382812 365.425781 675.953125 367.539062 670.679688 C 369.648438 665.402344 371.910156 660.125 374.019531 655.152344 C 376.128906 650.027344 378.089844 645.050781 380.199219 640.378906 C 384.269531 631.183594 390.148438 623.34375 396.628906 617.164062 C 403.113281 610.984375 410.5 606.613281 417.433594 607.214844 C 420.75 607.519531 423.914062 609.023438 426.628906 610.835938 C 429.339844 612.792969 431.753906 615.054688 433.863281 617.316406 C 438.085938 621.839844 440.949219 626.210938 443.058594 629.976562 C 446.226562 635.707031 447.582031 639.925781 448.484375 641.585938 C 446.375 644.296875 445.019531 647.613281 444.71875 651.234375 C 444.265625 656.054688 445.621094 661.03125 447.730469 665.402344 C 449.84375 669.773438 452.707031 673.84375 455.722656 677.914062 C 461.601562 685.753906 467.480469 694.34375 471.550781 704.292969 C 473.507812 709.269531 475.015625 714.394531 475.769531 719.972656 C 476.523438 725.546875 476.824219 731.425781 477.429688 737.609375 C 478.03125 743.789062 479.085938 750.121094 481.347656 756.449219 C 483.609375 762.628906 487.074219 769.113281 492.503906 773.785156 C 497.777344 778.457031 504.710938 781.773438 511.949219 781.925781 C 515.566406 782.078125 519.335938 781.324219 522.652344 779.664062 C 526.117188 778.15625 529.132812 775.140625 530.789062 772.128906 C 532.597656 769.113281 533.65625 766.097656 534.558594 763.082031 C 535.464844 760.066406 536.367188 757.203125 536.972656 754.1875 C 538.175781 748.308594 538.78125 742.28125 538.78125 736.402344 C 538.628906 724.792969 535.613281 713.640625 530.789062 704.59375 C 525.96875 695.398438 519.03125 688.164062 511.949219 683.191406 C 508.480469 680.628906 505.316406 678.367188 502.902344 675.953125 C 500.339844 673.542969 498.683594 670.679688 497.476562 667.8125 C 494.914062 661.933594 493.707031 656.207031 491.898438 651.683594 C 490.84375 648.671875 489.488281 646.410156 488.128906 644.601562 C 488.582031 644.75 489.035156 644.75 489.636719 644.902344 C 490.089844 645.203125 490.390625 645.355469 490.542969 645.203125 C 490.542969 645.203125 490.542969 645.050781 490.542969 645.050781 C 490.84375 645.050781 491.144531 645.203125 491.597656 645.203125 C 492.652344 647.3125 495.820312 651.535156 498.53125 656.960938 C 502.300781 664.195312 503.957031 670.679688 505.015625 670.527344 C 505.917969 670.527344 505.917969 663.140625 501.847656 655.304688 C 501.699219 654.851562 501.394531 654.550781 501.246094 654.097656 C 502.753906 655.753906 504.410156 657.714844 506.070312 659.824219 C 512.398438 667.8125 516.019531 675.503906 516.921875 675.050781 C 517.828125 674.75 515.566406 666.15625 508.933594 657.5625 C 503.808594 650.929688 497.929688 646.710938 495.367188 645.65625 C 497.175781 645.957031 499.136719 646.410156 501.394531 647.011719 C 505.617188 648.21875 510.441406 650.027344 515.265625 652.890625 C 520.089844 655.753906 524.761719 659.824219 528.832031 664.949219 C 532.75 670.074219 535.613281 675.652344 537.273438 680.929688 C 538.929688 686.203125 539.382812 691.328125 539.082031 695.398438 C 538.480469 703.839844 534.710938 708.214844 535.613281 708.96875 C 535.917969 709.269531 537.421875 708.664062 539.230469 706.554688 C 541.042969 704.59375 543.152344 700.976562 544.207031 696.152344 C 545.261719 691.328125 545.414062 685.300781 543.753906 678.96875 C 542.546875 674.296875 540.589844 669.320312 537.726562 664.800781 C 538.480469 663.746094 539.683594 661.484375 540.289062 657.867188 C 540.738281 655.152344 540.589844 651.683594 539.984375 647.917969 C 539.382812 644.148438 538.175781 639.925781 536.667969 635.554688 C 533.65625 626.511719 528.53125 616.5625 522.800781 605.707031 C 517.222656 594.855469 511.042969 583.097656 508.179688 569.832031 C 506.671875 563.351562 506.519531 556.566406 506.070312 549.933594 C 505.769531 543.300781 505.164062 536.519531 503.808594 530.339844 C 501.246094 517.828125 496.269531 507.425781 491.296875 499.285156 C 490.84375 498.53125 490.390625 497.777344 489.789062 497.175781 C 490.542969 495.667969 491.296875 493.253906 492.050781 490.089844 C 493.558594 484.058594 494.460938 475.015625 494.761719 464.011719 C 495.066406 453.007812 495.515625 440.042969 495.667969 425.574219 C 495.820312 418.335938 495.667969 410.5 494.761719 402.507812 C 493.859375 394.519531 492.652344 386.832031 493.707031 378.992188 C 494.914062 369.042969 497.476562 359.09375 500.339844 350.050781 C 501.09375 347.789062 501.847656 345.527344 502.601562 343.417969 C 503.355469 341.15625 504.261719 338.894531 505.015625 336.785156 C 505.769531 334.523438 506.519531 331.8125 506.371094 328.945312 C 506.21875 326.234375 505.464844 323.820312 504.863281 321.710938 C 504.261719 319.601562 503.65625 317.792969 503.507812 316.132812 C 503.355469 314.476562 503.507812 312.96875 504.109375 311.460938 C 505.164062 308.445312 507.578125 305.882812 509.988281 303.320312 C 512.398438 300.910156 514.960938 298.496094 517.222656 295.933594 C 518.277344 294.578125 519.335938 293.371094 520.089844 292.015625 C 520.839844 290.808594 521.898438 289 521.746094 286.738281 C 521.746094 286.136719 521.59375 285.683594 521.292969 285.230469 C 522.5 284.328125 524.007812 282.820312 525.96875 280.859375 C 529.886719 276.941406 535.464844 271.0625 541.792969 263.222656 C 547.976562 255.234375 554.757812 244.984375 559.128906 232.019531 C 563.5 219.359375 565.761719 205.039062 574.808594 194.035156 C 579.328125 188.457031 584.605469 183.03125 589.128906 177.453125 C 593.800781 171.875 598.019531 166.449219 601.789062 161.019531 C 609.476562 150.167969 615.660156 139.917969 620.179688 131.023438 C 623.796875 123.9375 626.8125 117.757812 628.472656 112.632812 C 629.675781 111.425781 631.335938 109.617188 633.144531 107.355469 C 636.914062 102.683594 641.433594 95.75 647.011719 89.117188 C 652.589844 82.335938 658.621094 77.511719 663.441406 74.496094 C 668.265625 71.480469 671.734375 70.273438 671.582031 69.21875 C 669.472656 68.464844 665.402344 67.863281 659.222656 69.972656 Z M 462.355469 407.785156 C 466.273438 405.222656 471.699219 400.851562 476.523438 395.425781 C 479.539062 392.109375 481.949219 388.792969 483.910156 385.777344 C 483.910156 387.738281 483.910156 389.546875 484.210938 391.355469 C 484.210938 392.257812 484.363281 393.164062 484.511719 393.917969 C 481.046875 395.726562 475.769531 399.796875 470.796875 405.523438 C 467.175781 409.59375 464.464844 413.511719 462.65625 416.828125 C 462.050781 414.265625 461.449219 411.554688 460.695312 408.992188 C 461.148438 408.691406 461.75 408.238281 462.355469 407.785156 Z M 317.792969 361.054688 C 318.09375 353.667969 319.300781 347.035156 320.957031 340.554688 C 321.863281 337.238281 322.617188 334.074219 323.21875 330.90625 C 323.519531 329.25 323.671875 327.742188 323.824219 326.082031 C 323.824219 325.480469 323.972656 323.972656 323.972656 322.765625 C 324.125 322.011719 323.519531 321.710938 323.070312 321.257812 C 322.617188 320.808594 322.164062 320.503906 321.710938 320.054688 C 320.65625 319.148438 319.753906 318.695312 318.847656 318.246094 C 318.847656 317.941406 319 317.492188 319.148438 317.039062 C 319.601562 315.832031 321.109375 313.570312 322.617188 311.007812 C 324.273438 308.445312 326.535156 305.734375 329.398438 302.71875 C 330.90625 301.210938 332.714844 299.25 334.074219 296.6875 C 335.429688 294.125 336.03125 291.261719 336.332031 288.546875 C 336.636719 285.835938 336.636719 283.273438 336.785156 281.164062 C 336.785156 280.105469 336.9375 279.351562 337.085938 278.75 C 337.238281 278.148438 337.390625 277.847656 337.691406 277.695312 C 338.144531 277.242188 339.648438 276.941406 341.308594 277.09375 C 342.964844 277.09375 344.925781 277.394531 346.734375 277.394531 C 350.351562 277.242188 353.21875 276.339844 354.875 275.433594 C 355.328125 275.132812 355.78125 274.832031 356.082031 274.679688 C 365.277344 277.09375 373.71875 277.996094 380.5 277.996094 C 385.625 278.148438 389.996094 277.695312 393.011719 276.789062 C 395.875 275.886719 397.234375 274.832031 397.082031 274.378906 C 396.933594 273.925781 395.273438 274.078125 392.558594 274.078125 C 391.65625 274.078125 390.601562 274.078125 389.546875 273.925781 C 389.847656 273.171875 390.300781 272.269531 390.601562 271.0625 C 391.65625 271.363281 393.011719 271.664062 394.519531 271.96875 C 398.589844 272.570312 404.46875 272.871094 410.949219 271.816406 C 417.433594 270.761719 423.011719 268.347656 426.476562 265.785156 C 430.09375 263.222656 431.601562 260.964844 431 260.210938 C 430.398438 259.304688 427.984375 260.058594 424.214844 261.265625 C 420.449219 262.320312 415.472656 263.675781 409.746094 264.730469 C 402.207031 265.9375 395.273438 266.539062 391.355469 267.445312 C 391.503906 266.84375 391.503906 266.089844 391.65625 265.335938 C 391.65625 264.730469 391.808594 264.128906 391.808594 263.222656 C 391.808594 262.320312 391.808594 261.414062 391.203125 260.058594 C 390.75 258.851562 389.695312 257.648438 388.640625 256.894531 C 387.585938 256.140625 386.679688 255.835938 385.777344 255.535156 C 383.96875 254.933594 382.308594 254.632812 380.800781 254.332031 C 377.636719 253.726562 375.980469 252.972656 374.773438 251.769531 C 373.867188 250.5625 373.71875 249.957031 374.320312 248.902344 C 374.921875 247.847656 376.28125 246.945312 377.183594 246.492188 C 377.335938 246.492188 377.335938 246.339844 377.335938 246.339844 C 378.089844 248.453125 378.542969 249.507812 378.992188 249.355469 C 379.445312 249.207031 379.445312 246.945312 379.296875 242.722656 C 379.144531 238.503906 378.542969 232.472656 378.84375 225.085938 C 379.144531 217.851562 380.5 209.109375 385.324219 201.117188 C 387.585938 197.199219 390.75 193.582031 394.820312 190.867188 C 398.890625 188.15625 403.714844 186.496094 409.140625 185.289062 C 411.855469 184.6875 414.570312 184.386719 417.28125 183.933594 C 419.996094 183.632812 422.707031 183.332031 424.96875 183.332031 C 427.230469 183.480469 429.191406 183.933594 430.699219 184.988281 C 432.207031 186.042969 433.109375 187.550781 433.261719 188.757812 C 433.261719 189.359375 433.109375 190.113281 432.808594 191.320312 C 432.507812 192.375 432.054688 193.882812 431.902344 195.390625 C 431.601562 198.253906 432.054688 200.96875 432.507812 203.230469 C 433.5625 207.75 434.917969 211.671875 436.125 215.289062 C 439.894531 226.441406 443.511719 233.980469 445.320312 236.695312 C 443.660156 236.695312 442.304688 237.144531 441.402344 237.75 C 440.34375 238.351562 440.042969 239.105469 440.195312 239.558594 C 440.648438 240.460938 442.757812 240.460938 445.019531 241.820312 C 446.222656 242.421875 447.28125 243.324219 448.035156 244.53125 C 448.636719 245.585938 448.9375 247.09375 448.484375 248.601562 C 448.335938 249.355469 448.035156 249.957031 447.582031 250.410156 C 447.28125 250.863281 446.675781 251.316406 446.527344 251.316406 C 446.375 251.464844 445.621094 251.464844 444.566406 251.464844 C 443.511719 251.464844 442.605469 251.316406 441.703125 251.316406 C 438.234375 251.316406 435.972656 251.769531 435.824219 252.824219 C 435.671875 253.726562 437.179688 254.933594 440.042969 255.988281 C 439.894531 256.140625 439.894531 256.441406 439.742188 256.589844 C 438.839844 258.550781 438.085938 260.058594 436.578125 265.335938 C 436.277344 265.335938 435.824219 265.484375 435.523438 265.484375 C 431.902344 266.089844 427.082031 267.746094 422.40625 270.761719 C 419.84375 272.417969 417.734375 274.226562 416.074219 276.035156 C 415.472656 275.734375 414.871094 275.585938 414.265625 275.433594 C 411.402344 274.832031 409.445312 274.980469 407.632812 274.832031 C 404.167969 274.832031 401.90625 275.285156 401.753906 276.039062 C 401.605469 276.941406 403.566406 277.996094 406.730469 279.203125 C 408.238281 279.804688 410.195312 280.257812 411.855469 281.011719 C 411.253906 281.917969 410.800781 282.820312 410.5 283.574219 C 409.746094 283.574219 408.992188 283.421875 408.085938 283.273438 C 406.429688 283.121094 404.769531 282.972656 403.113281 282.972656 C 399.945312 282.972656 397.234375 283.121094 394.820312 283.273438 C 390.148438 283.875 387.285156 284.78125 387.285156 285.683594 C 387.285156 286.738281 390.148438 287.644531 394.671875 288.398438 C 396.933594 288.851562 399.644531 289.152344 402.507812 289.605469 C 403.867188 289.753906 405.375 290.054688 406.730469 290.207031 C 406.730469 293.371094 407.03125 298.046875 407.632812 304.074219 C 407.9375 306.789062 408.238281 309.804688 408.539062 312.96875 C 408.539062 313.570312 408.539062 314.023438 408.386719 314.023438 C 408.238281 314.175781 408.386719 314.175781 407.9375 314.324219 C 407.632812 314.476562 406.878906 314.777344 406.128906 315.078125 C 405.375 315.378906 404.621094 315.53125 403.867188 315.683594 C 400.699219 316.4375 396.933594 316.738281 393.011719 317.039062 C 389.09375 317.339844 384.722656 317.640625 380.046875 318.695312 C 377.789062 319.300781 375.527344 320.054688 373.265625 321.410156 C 371.15625 322.464844 369.042969 324.425781 367.839844 325.632812 C 366.480469 326.988281 365.726562 327.289062 364.671875 327.441406 C 363.617188 327.589844 362.261719 327.441406 360.90625 326.835938 C 359.546875 326.234375 358.191406 325.480469 356.984375 324.574219 C 355.78125 323.671875 354.875 322.617188 353.367188 321.257812 C 352.613281 320.65625 351.859375 320.054688 350.804688 319.449219 C 349.75 318.847656 348.542969 318.546875 347.640625 318.546875 C 345.527344 318.394531 343.871094 318.695312 342.515625 319 C 331.207031 321.5625 325.179688 325.480469 325.480469 326.386719 C 325.933594 327.441406 332.414062 325.179688 343.269531 324.125 C 344.625 323.972656 345.980469 323.972656 346.886719 324.125 C 347.789062 324.273438 348.394531 324.726562 349.296875 325.78125 C 350.203125 326.6875 351.40625 328.34375 352.914062 329.550781 C 354.421875 330.90625 356.082031 332.113281 358.039062 333.015625 C 359.09375 333.46875 360.152344 333.921875 361.355469 334.222656 C 361.355469 334.375 361.355469 334.523438 361.355469 334.675781 C 360.753906 337.390625 359.09375 341.308594 355.628906 345.078125 C 353.96875 346.886719 351.710938 348.84375 349.296875 350.351562 C 346.734375 352.011719 343.71875 353.367188 340.554688 354.875 C 334.074219 357.738281 326.082031 360.453125 318.695312 366.332031 C 318.09375 366.785156 317.492188 367.386719 316.886719 367.839844 C 317.792969 365.277344 317.792969 363.164062 317.792969 361.054688 Z M 318.09375 377.335938 C 318.246094 377.183594 318.394531 377.035156 318.546875 376.734375 C 318.546875 376.882812 318.394531 376.882812 318.394531 376.882812 C 318.246094 377.035156 318.246094 377.335938 318.09375 377.484375 C 318.09375 377.484375 318.09375 377.484375 318.09375 377.335938 Z M 271.363281 607.066406 C 267.59375 601.035156 265.484375 593.648438 265.9375 586.414062 C 266.390625 579.179688 269.554688 572.246094 274.53125 567.421875 C 277.09375 565.007812 279.804688 563.351562 282.972656 561.992188 C 284.628906 561.238281 286.4375 560.636719 288.246094 559.734375 C 290.054688 558.828125 292.015625 557.472656 293.523438 555.8125 C 296.386719 552.496094 297.742188 549.179688 299.402344 546.917969 C 301.058594 544.660156 302.871094 543.601562 305.28125 543.300781 C 307.691406 543 310.40625 543.753906 312.96875 544.660156 C 315.53125 545.5625 318.09375 546.769531 320.65625 547.824219 C 323.070312 548.878906 325.480469 549.933594 327.742188 550.839844 C 330.003906 551.742188 332.113281 552.648438 333.769531 553.550781 C 337.390625 555.359375 339.046875 557.773438 338.746094 560.335938 C 338.59375 562.898438 337.238281 564.859375 336.636719 566.214844 C 336.332031 566.816406 336.03125 567.269531 335.882812 567.722656 C 335.882812 565.761719 335.582031 564.554688 335.277344 564.554688 C 334.675781 564.554688 334.675781 568.023438 331.8125 572.996094 C 330.757812 574.808594 329.25 576.765625 327.136719 578.574219 C 326.835938 578.574219 326.6875 578.574219 326.535156 578.726562 C 326.386719 578.875 326.386719 579.027344 326.234375 579.179688 C 325.78125 579.480469 325.328125 579.933594 324.878906 580.234375 C 323.21875 581.289062 321.257812 582.042969 318.847656 583.097656 C 316.4375 584.152344 314.023438 585.960938 311.914062 587.921875 C 307.691406 591.839844 304.375 597.117188 300.457031 601.488281 C 296.539062 605.859375 291.261719 609.777344 285.234375 612.339844 C 282.066406 613.699219 279.050781 614.601562 277.242188 613.847656 C 275.433594 612.792969 273.171875 610.230469 271.363281 607.066406 Z M 491.898438 669.472656 C 493.105469 672.789062 495.066406 676.257812 497.777344 679.269531 C 500.492188 682.285156 503.808594 684.847656 507.125 687.410156 C 513.605469 692.386719 519.484375 699.019531 523.707031 707.609375 C 527.925781 716.050781 530.488281 726 530.339844 736.703125 C 530.339844 741.980469 529.734375 747.40625 528.53125 752.984375 C 527.925781 755.695312 527.171875 758.410156 526.269531 761.125 C 525.363281 763.835938 524.308594 766.550781 523.101562 768.660156 C 521.746094 770.921875 520.238281 772.277344 517.976562 773.332031 C 515.714844 774.390625 513.152344 774.839844 510.589844 774.839844 C 505.316406 774.691406 500.039062 772.277344 495.667969 768.511719 C 491.445312 764.742188 488.433594 759.617188 486.472656 754.1875 C 484.511719 748.761719 483.457031 742.882812 482.855469 737.003906 C 482.101562 731.125 481.949219 725.097656 481.046875 719.066406 C 480.140625 713.035156 478.484375 707.15625 476.222656 701.882812 C 471.699219 691.179688 465.21875 682.285156 459.039062 674.445312 C 456.023438 670.527344 453.308594 666.910156 451.199219 662.992188 C 449.238281 659.222656 448.035156 655.304688 448.183594 651.683594 C 448.484375 644.296875 454.664062 639.324219 460.394531 637.515625 C 466.273438 635.707031 471.851562 636.914062 476.070312 638.417969 C 478.183594 639.171875 479.839844 640.078125 481.347656 640.832031 C 482.554688 642.1875 485.566406 645.65625 487.375 652.589844 C 488.882812 657.113281 489.636719 662.839844 491.898438 669.472656 Z M 485.566406 643.546875 C 485.417969 643.394531 485.417969 643.394531 485.265625 643.242188 C 485.265625 643.242188 485.417969 643.242188 485.417969 643.394531 C 485.566406 643.394531 485.566406 643.394531 485.566406 643.546875 Z M 487.226562 489.636719 C 486.925781 492.050781 486.773438 494.007812 486.625 495.515625 C 486.320312 495.066406 486.019531 494.613281 485.71875 494.3125 L 484.964844 493.253906 C 484.664062 492.953125 484.210938 493.253906 483.757812 493.253906 C 482.402344 493.558594 481.046875 493.707031 479.839844 493.859375 C 478.933594 494.007812 478.03125 494.160156 477.125 494.3125 C 473.507812 494.761719 470.492188 495.066406 467.929688 495.214844 C 462.804688 495.515625 459.941406 495.515625 459.792969 496.121094 C 459.792969 496.570312 462.503906 497.476562 467.78125 498.078125 C 470.34375 498.382812 473.660156 498.53125 477.429688 498.382812 C 478.332031 498.382812 479.386719 498.230469 480.292969 498.230469 C 480.746094 498.230469 481.347656 498.230469 481.800781 498.078125 L 482.402344 498.078125 C 482.554688 498.078125 482.554688 498.078125 482.703125 498.078125 L 482.855469 498.382812 L 483.15625 499.132812 C 483.609375 500.039062 484.210938 500.945312 484.664062 501.847656 C 488.882812 509.835938 492.953125 519.785156 495.066406 531.542969 C 496.121094 537.421875 496.570312 543.453125 496.722656 550.234375 C 497.023438 556.867188 497.175781 564.105469 498.832031 571.339844 C 502 585.960938 508.78125 598.171875 514.660156 608.875 C 520.691406 619.578125 526.117188 629.074219 529.585938 637.363281 C 531.394531 641.585938 532.75 645.355469 533.804688 648.820312 C 534.710938 652.289062 535.160156 655.152344 535.160156 657.714844 C 535.160156 660.429688 534.859375 662.386719 534.710938 663.59375 C 533.957031 662.539062 533.203125 661.332031 532.449219 660.277344 C 527.925781 654.398438 522.199219 649.875 516.46875 646.863281 C 510.742188 643.847656 505.164062 642.339844 500.339844 641.734375 C 494.007812 640.980469 489.335938 641.734375 486.925781 642.488281 C 486.773438 642.339844 486.472656 642.039062 486.320312 641.886719 C 484.511719 640.078125 481.648438 637.667969 477.125 635.554688 C 472.753906 633.445312 466.421875 631.636719 459.1875 633.445312 C 455.722656 634.351562 451.953125 636.007812 448.9375 639.023438 C 448.484375 639.476562 447.882812 640.078125 447.429688 640.53125 C 447.28125 638.417969 446.375 634.199219 443.964844 628.472656 C 442.15625 624.25 439.441406 619.425781 435.21875 614.300781 C 433.109375 611.738281 430.699219 609.175781 427.683594 606.914062 C 424.667969 604.652344 420.898438 602.394531 416.226562 601.789062 C 411.703125 601.1875 406.882812 602.242188 402.660156 604.351562 C 398.4375 606.3125 394.519531 609.175781 390.902344 612.492188 C 383.667969 618.972656 377.035156 627.414062 372.359375 637.214844 C 369.949219 642.1875 367.988281 647.164062 365.878906 652.136719 C 363.769531 657.261719 361.507812 662.386719 359.246094 667.664062 C 356.984375 672.941406 354.722656 678.367188 352.464844 683.792969 C 350.203125 689.21875 347.941406 694.796875 345.378906 700.222656 C 342.816406 705.5 339.953125 710.472656 336.484375 714.695312 C 333.019531 718.765625 328.644531 722.082031 323.972656 724.042969 C 319.300781 726 314.324219 726.453125 309.804688 724.945312 C 305.28125 723.589844 301.210938 720.726562 298.046875 717.257812 C 291.5625 710.171875 288.851562 700.675781 286.890625 691.78125 C 284.929688 682.738281 283.726562 674.296875 283.121094 666.457031 C 282.367188 658.621094 282.21875 651.535156 282.21875 645.203125 C 282.21875 639.625 282.519531 634.652344 282.21875 630.28125 C 282.972656 630.429688 284.027344 630.429688 285.382812 630.429688 C 288.246094 630.28125 292.015625 629.226562 295.785156 626.964844 C 299.554688 624.851562 302.265625 621.988281 303.773438 619.578125 C 305.28125 617.164062 305.734375 615.507812 305.433594 615.207031 C 304.527344 614.601562 300.609375 619.878906 293.976562 623.796875 C 289.152344 626.660156 284.328125 627.867188 282.21875 628.773438 C 281.917969 625.457031 281.011719 622.59375 279.957031 620.632812 C 280.859375 620.632812 281.917969 620.480469 282.667969 620.179688 C 284.78125 619.578125 286.589844 618.824219 288.246094 618.070312 C 295.179688 614.902344 301.058594 610.230469 305.28125 605.105469 C 309.5 599.832031 312.367188 594.855469 315.832031 591.238281 C 317.492188 589.429688 319.300781 587.921875 321.257812 586.867188 C 323.21875 585.8125 325.179688 584.757812 327.136719 583.398438 C 327.289062 584.003906 327.289062 584.605469 327.441406 585.207031 C 327.589844 587.015625 327.589844 589.277344 327.289062 591.539062 C 326.988281 592.746094 326.6875 593.800781 326.234375 595.007812 C 325.78125 596.0625 324.878906 597.417969 324.125 598.625 C 320.957031 604.050781 317.945312 609.023438 315.832031 612.492188 C 313.722656 615.960938 312.066406 618.21875 312.816406 618.972656 C 313.421875 619.726562 315.984375 618.972656 319.300781 616.261719 C 319.449219 618.523438 320.054688 621.386719 320.957031 625.003906 C 322.164062 629.074219 323.824219 633.898438 326.535156 638.871094 C 329.097656 643.996094 332.714844 648.671875 334.675781 653.945312 C 338.746094 664.5 336.9375 675.652344 334.675781 683.039062 C 332.414062 690.578125 329.851562 694.949219 330.757812 695.550781 C 331.511719 696.152344 335.582031 692.6875 339.5 684.847656 C 341.308594 680.929688 343.117188 675.953125 343.71875 670.226562 C 344.324219 664.5 344.023438 657.714844 341.460938 651.234375 C 338.898438 644.75 334.976562 639.925781 332.414062 635.554688 C 329.703125 631.035156 327.589844 626.8125 325.933594 623.195312 C 324.125 619.277344 322.765625 616.109375 321.863281 614 C 324.878906 610.984375 327.890625 606.914062 330.605469 602.242188 C 331.511719 600.582031 332.414062 599.226562 333.019531 597.417969 C 333.621094 595.609375 333.921875 593.949219 334.074219 592.140625 C 334.222656 588.824219 333.621094 585.8125 332.566406 583.550781 C 331.960938 582.191406 331.207031 581.136719 330.605469 580.234375 C 332.566406 578.125 333.921875 575.710938 334.828125 573.601562 C 335.730469 571.339844 336.03125 569.378906 336.183594 567.871094 C 336.484375 567.871094 337.085938 567.421875 338.144531 566.367188 C 339.199219 565.160156 341.15625 563.5 341.910156 559.882812 C 342.363281 558.226562 342.0625 555.964844 341.007812 554.003906 C 339.953125 552.046875 338.144531 550.539062 336.183594 549.179688 C 334.375 547.976562 332.414062 547.070312 330.453125 546.015625 C 333.320312 540.4375 338.144531 527.171875 342.664062 511.195312 C 344.171875 505.765625 345.378906 500.945312 347.339844 497.324219 C 349.296875 493.859375 352.160156 491.898438 355.328125 490.691406 C 358.34375 489.488281 361.355469 488.582031 363.164062 487.828125 C 363.46875 487.679688 363.917969 487.527344 364.222656 487.375 C 367.085938 487.679688 369.648438 487.828125 371.910156 487.980469 C 378.238281 488.433594 381.859375 488.433594 381.859375 487.980469 C 381.859375 487.527344 378.542969 486.472656 372.210938 485.117188 C 369.042969 484.511719 365.277344 483.757812 360.753906 482.855469 C 356.382812 481.949219 351.105469 481.195312 345.679688 479.992188 C 340.253906 478.785156 334.523438 476.976562 330.003906 473.054688 C 325.328125 469.136719 321.710938 463.410156 319.601562 456.777344 C 317.339844 449.992188 316.738281 442.605469 317.039062 434.617188 C 317.339844 426.628906 318.394531 418.1875 319 409.445312 C 319.449219 403.414062 319.300781 397.535156 319.148438 391.808594 C 320.808594 387.433594 322.617188 383.214844 324.425781 379.597656 C 327.140625 374.621094 330.003906 370.402344 332.714844 367.234375 C 333.769531 366.03125 334.828125 364.976562 335.730469 364.070312 C 338.59375 362.714844 341.460938 361.355469 344.324219 360 C 347.640625 358.34375 350.804688 356.53125 353.667969 354.273438 C 356.535156 352.160156 358.792969 349.75 360.601562 347.1875 C 364.222656 342.363281 365.425781 337.238281 365.125 333.769531 C 365.125 333.621094 365.125 333.621094 365.125 333.46875 C 365.578125 333.46875 366.03125 333.46875 366.332031 333.46875 C 367.6875 333.320312 369.042969 332.867188 370.402344 332.265625 C 371.609375 331.511719 372.664062 330.757812 373.417969 330.003906 C 375.074219 328.496094 376.128906 327.589844 377.636719 326.835938 C 379.144531 325.933594 380.804688 325.328125 382.613281 324.878906 C 389.996094 323.070312 398.441406 323.519531 406.277344 321.257812 C 407.183594 320.957031 408.238281 320.65625 409.140625 320.203125 C 410.046875 319.902344 410.949219 319.449219 412.15625 318.695312 C 413.210938 318.09375 414.570312 316.738281 415.019531 315.230469 C 415.625 313.722656 415.472656 312.367188 415.324219 311.3125 C 415.019531 309.199219 414.71875 307.996094 414.417969 306.488281 C 414.117188 304.980469 413.816406 303.621094 413.511719 302.265625 C 412.308594 296.988281 411.253906 292.617188 410.347656 289.605469 C 411.253906 289.753906 412.457031 289.753906 413.664062 289.753906 C 415.171875 289.605469 416.828125 289.152344 418.335938 288.097656 C 419.695312 287.191406 421.050781 285.382812 421.503906 283.574219 C 421.804688 282.21875 421.652344 280.859375 421.203125 279.65625 C 423.011719 278.449219 424.820312 277.09375 426.929688 275.734375 C 432.207031 272.269531 437.179688 269.707031 439.894531 267.746094 C 440.042969 267.746094 440.195312 267.746094 440.34375 267.898438 C 441.097656 268.046875 441.703125 268.199219 442.457031 268.347656 C 442.910156 268.5 443.359375 268.652344 443.660156 268.652344 C 444.867188 268.953125 446.074219 269.40625 447.28125 269.855469 C 443.660156 271.0625 439.59375 273.171875 435.671875 276.039062 C 433.109375 277.996094 430.847656 279.804688 428.890625 281.765625 C 426.929688 283.726562 425.269531 285.835938 424.214844 287.945312 C 424.066406 288.398438 423.765625 288.851562 423.613281 289.152344 C 423.3125 289.152344 423.011719 289.152344 423.011719 289.152344 C 423.011719 289.300781 423.011719 289.453125 423.3125 289.753906 C 422.859375 291.109375 422.707031 292.167969 422.707031 293.070312 C 422.707031 294.425781 423.160156 295.179688 423.613281 295.179688 C 424.367188 295.332031 425.269531 294.125 426.628906 292.46875 C 427.53125 293.222656 428.585938 294.125 429.792969 295.179688 C 434.015625 299.101562 439.289062 305.734375 442.457031 315.53125 C 444.113281 320.355469 445.167969 325.933594 445.621094 331.8125 C 446.074219 337.839844 445.320312 344.023438 443.964844 350.957031 C 443.359375 354.421875 442.757812 358.191406 442.605469 362.109375 C 442.457031 366.03125 442.605469 370.101562 443.210938 374.019531 C 444.113281 380.199219 445.773438 386.078125 447.730469 392.109375 C 446.828125 392.710938 445.773438 393.464844 444.265625 394.21875 C 441.550781 395.574219 437.480469 396.328125 432.207031 396.480469 C 427.082031 396.78125 422.257812 396.628906 418.789062 396.628906 C 418.789062 395.875 418.789062 395.121094 418.640625 394.371094 C 418.488281 392.558594 418.488281 390.601562 418.335938 388.792969 C 417.582031 388.941406 416.679688 389.09375 415.925781 389.09375 C 415.925781 388.339844 415.925781 387.433594 416.078125 386.679688 C 416.226562 382.761719 416.527344 378.089844 416.828125 372.8125 C 417.28125 367.539062 417.582031 361.808594 418.335938 356.082031 C 419.242188 350.351562 420.597656 345.078125 422.707031 340.707031 C 424.820312 336.332031 427.382812 332.566406 429.644531 329.398438 C 434.316406 323.21875 437.480469 319.148438 436.726562 318.394531 C 436.125 317.792969 431.753906 320.355469 425.722656 325.933594 C 422.707031 328.796875 419.390625 332.566406 416.527344 337.539062 C 413.664062 342.515625 411.855469 348.695312 410.949219 354.875 C 410.046875 361.207031 409.894531 367.085938 409.894531 372.511719 C 409.894531 377.789062 410.199219 382.761719 410.648438 386.832031 C 410.800781 387.886719 410.949219 388.792969 411.101562 389.695312 C 408.539062 389.996094 405.976562 390.449219 403.414062 390.75 C 389.09375 392.558594 376.28125 393.3125 365.277344 393.765625 C 343.417969 394.371094 330.003906 393.3125 329.851562 394.519531 C 329.703125 395.425781 343.117188 398.289062 365.277344 398.890625 C 376.28125 399.191406 389.546875 398.890625 404.167969 397.535156 C 406.578125 397.234375 408.992188 396.933594 411.554688 396.78125 C 411.554688 396.78125 411.554688 396.933594 411.554688 396.933594 C 411.554688 396.933594 411.554688 396.78125 411.554688 397.082031 L 411.554688 398.4375 C 411.554688 400.398438 411.554688 402.207031 411.554688 404.167969 C 411.554688 408.085938 411.402344 412.007812 411.101562 416.074219 C 410.800781 420.144531 410.800781 424.367188 409.445312 426.777344 C 407.632812 431.601562 397.6875 430.699219 390.148438 431.148438 C 382.308594 431.453125 374.621094 431.753906 367.386719 432.054688 C 360.152344 432.355469 353.21875 432.808594 346.886719 433.109375 C 340.855469 433.410156 335.128906 433.710938 330.003906 434.015625 C 329.550781 434.015625 329.25 433.710938 329.25 433.261719 L 329.25 432.054688 C 329.25 431.453125 329.25 430.847656 329.25 430.246094 C 329.25 427.832031 329.398438 425.421875 329.398438 423.3125 C 329.550781 418.941406 329.550781 415.171875 329.550781 412.15625 C 329.550781 405.976562 329.25 402.660156 328.796875 402.507812 C 328.34375 402.507812 327.589844 405.824219 326.6875 411.855469 C 326.234375 414.871094 325.78125 418.636719 325.328125 423.011719 C 325.027344 425.121094 324.878906 427.53125 324.574219 429.945312 C 324.574219 430.546875 324.425781 431.148438 324.425781 431.753906 L 324.273438 432.65625 C 324.273438 433.109375 324.125 433.710938 324.125 434.316406 C 323.972656 436.425781 325.632812 438.535156 327.890625 438.988281 C 328.949219 439.289062 330.453125 439.441406 330.90625 439.289062 C 331.660156 439.289062 332.265625 439.289062 333.015625 439.289062 C 334.523438 439.289062 335.882812 439.289062 337.390625 439.289062 C 340.402344 439.289062 343.570312 439.289062 346.734375 439.140625 C 353.21875 438.988281 360.152344 438.988281 367.386719 438.839844 C 374.621094 438.6875 382.308594 438.535156 390.148438 438.386719 C 392.109375 438.386719 394.066406 438.234375 396.179688 438.234375 C 398.136719 438.234375 400.25 438.085938 402.507812 437.933594 C 404.769531 437.632812 407.183594 437.332031 409.59375 436.125 C 412.007812 435.070312 414.417969 432.808594 415.625 430.246094 C 416.828125 427.683594 417.28125 425.269531 417.582031 423.011719 C 417.886719 420.75 417.886719 418.789062 418.035156 416.679688 C 418.1875 412.609375 418.335938 408.539062 418.335938 404.46875 C 418.335938 403.714844 418.335938 402.960938 418.335938 402.207031 C 421.953125 403.261719 426.628906 404.167969 431.902344 403.867188 C 434.769531 403.714844 437.78125 403.414062 440.496094 402.359375 C 443.210938 401.453125 445.472656 399.945312 446.976562 398.289062 C 447.730469 397.535156 448.183594 396.78125 448.636719 396.027344 C 448.785156 396.480469 448.9375 397.082031 449.089844 397.535156 C 451.652344 405.222656 454.214844 412.609375 455.570312 419.84375 C 456.925781 427.082031 457.378906 434.164062 456.925781 440.949219 C 456.476562 447.582031 454.96875 453.914062 452.707031 459.339844 C 450.445312 464.765625 447.28125 469.4375 443.964844 473.207031 C 437.027344 480.746094 429.339844 484.511719 423.914062 486.171875 C 418.335938 487.828125 415.019531 487.828125 415.019531 488.433594 C 415.019531 488.882812 418.335938 489.789062 424.519531 488.882812 C 430.546875 487.980469 439.441406 484.664062 447.582031 476.675781 C 451.5 472.753906 455.417969 467.78125 458.132812 461.75 C 460.996094 455.722656 462.804688 448.785156 463.558594 441.402344 C 464.164062 435.070312 464.011719 428.4375 462.957031 421.804688 C 465.972656 419.542969 470.492188 414.71875 475.46875 409.140625 C 479.085938 405.070312 482.25 401.453125 484.363281 398.4375 C 484.511719 399.644531 484.664062 400.851562 484.8125 402.058594 C 485.871094 409.746094 486.019531 417.132812 486.019531 424.214844 C 486.171875 438.6875 486.320312 451.652344 486.625 462.65625 C 487.980469 475.015625 487.828125 483.609375 487.226562 489.636719 Z M 487.226562 489.636719 " fill-opacity="1" fill-rule="nonzero"/></g><path fill="#e4e4e7" d="M 650.628906 55.351562 C 643.242188 64.699219 638.871094 73.441406 640.53125 74.644531 C 642.1875 75.851562 648.972656 69.070312 656.359375 59.875 C 663.59375 50.679688 668.71875 42.539062 667.210938 41.183594 C 665.703125 39.824219 658.015625 46.003906 650.628906 55.351562 Z M 650.628906 55.351562 " fill-opacity="1" fill-rule="nonzero"/><path fill="#e4e4e7" d="M 642.792969 47.210938 C 634.953125 57.914062 630.28125 67.410156 631.789062 68.617188 C 633.445312 69.824219 640.832031 61.984375 648.519531 51.582031 C 652.4375 46.457031 655.753906 41.933594 658.46875 38.769531 C 661.03125 35.453125 662.6875 33.34375 662.085938 32.4375 C 661.484375 31.683594 658.769531 32.4375 655 35 C 651.234375 37.414062 646.863281 41.933594 642.792969 47.210938 Z M 642.792969 47.210938 " fill-opacity="1" fill-rule="nonzero"/><path fill="#e4e4e7" d="M 625.910156 61.53125 C 627.867188 62.285156 632.238281 54.296875 638.722656 45.554688 C 645.203125 36.808594 651.535156 30.328125 650.179688 28.671875 C 649.574219 27.917969 647.164062 28.519531 643.847656 30.628906 C 640.53125 32.738281 636.460938 36.359375 632.84375 41.183594 C 629.226562 46.003906 626.964844 50.980469 625.910156 54.75 C 625.003906 58.667969 625.003906 61.230469 625.910156 61.53125 Z M 625.910156 61.53125 " fill-opacity="1" fill-rule="nonzero"/><path fill="#e4e4e7" d="M 393.3125 418.941406 C 387.285156 419.390625 382.761719 422.105469 383.214844 424.066406 C 383.667969 426.023438 388.339844 426.628906 393.765625 426.175781 C 399.191406 425.722656 403.714844 424.515625 403.867188 422.558594 C 404.167969 420.597656 399.34375 418.488281 393.3125 418.941406 Z M 393.3125 418.941406 " fill-opacity="1" fill-rule="nonzero"/><path fill="#e4e4e7" d="M 342.363281 428.738281 C 347.035156 428.4375 351.257812 427.984375 351.859375 426.023438 C 352.464844 424.066406 348.089844 421.203125 342.0625 421.351562 C 336.03125 421.652344 331.960938 424.96875 332.714844 426.777344 C 333.46875 428.890625 337.691406 428.890625 342.363281 428.738281 Z M 342.363281 428.738281 " fill-opacity="1" fill-rule="nonzero"/><path fill="#e4e4e7" d="M 182.277344 101.175781 C 183.933594 104.039062 185.289062 105.851562 186.195312 105.546875 C 187.101562 105.398438 187.550781 102.984375 187.101562 99.519531 C 186.648438 95.902344 184.988281 91.226562 182.425781 86.554688 C 177.152344 77.207031 170.820312 71.480469 169.3125 72.535156 C 167.652344 73.742188 171.273438 81.429688 176.09375 90.023438 C 178.507812 94.394531 180.617188 98.3125 182.277344 101.175781 Z M 182.277344 101.175781 " fill-opacity="1" fill-rule="nonzero"/><path fill="#e4e4e7" d="M 180.617188 110.824219 C 182.125 109.316406 175.492188 100.875 166.898438 91.378906 C 158.308594 81.882812 151.675781 74.042969 149.867188 74.949219 C 148.058594 75.851562 152.429688 86.253906 161.472656 96.203125 C 170.367188 106 179.261719 112.179688 180.617188 110.824219 Z M 180.617188 110.824219 " fill-opacity="1" fill-rule="nonzero"/><path fill="#e4e4e7" d="M 152.730469 106 C 156.347656 109.917969 160.269531 113.085938 163.433594 114.742188 C 166.597656 116.402344 169.011719 116.703125 169.464844 115.949219 C 170.066406 115.046875 168.710938 113.234375 166.597656 110.671875 C 164.488281 108.109375 161.472656 104.792969 158.15625 101.027344 C 154.691406 97.257812 151.375 93.941406 148.660156 91.832031 C 145.945312 89.71875 143.835938 88.664062 143.082031 89.417969 C 142.328125 90.171875 143.082031 92.28125 144.742188 95.148438 C 146.398438 98.160156 149.113281 102.082031 152.730469 106 Z M 152.730469 106 " fill-opacity="1" fill-rule="nonzero"/><path fill="#e4e4e7" d="M 407.632812 496.269531 C 388.039062 495.367188 372.511719 491.296875 372.210938 492.351562 C 371.910156 493.253906 387.285156 498.984375 407.484375 499.886719 C 427.683594 500.945312 443.511719 496.722656 443.359375 495.816406 C 443.058594 494.761719 427.230469 497.324219 407.632812 496.269531 Z M 407.632812 496.269531 " fill-opacity="1" fill-rule="nonzero"/><path fill="#e4e4e7" d="M 409.140625 442.757812 C 410.5 442.90625 412.007812 442.90625 413.664062 442.757812 C 414.570312 442.757812 415.472656 442.605469 416.378906 442.457031 C 417.28125 442.304688 418.488281 442.003906 419.695312 441.25 C 420.898438 440.34375 421.503906 438.988281 421.804688 437.933594 C 422.105469 437.027344 422.257812 436.125 422.40625 435.371094 C 422.707031 433.710938 423.011719 432.207031 423.160156 431 C 423.460938 428.4375 423.460938 426.929688 423.011719 426.777344 C 422.558594 426.628906 421.652344 427.984375 420.75 430.394531 C 420.296875 431.601562 419.695312 432.960938 419.242188 434.464844 C 418.941406 435.21875 418.789062 436.125 418.488281 436.878906 C 418.1875 437.632812 418.035156 438.085938 417.734375 438.234375 C 416.980469 438.839844 414.871094 439.140625 413.363281 439.441406 C 411.855469 439.742188 410.5 439.894531 409.140625 440.195312 C 406.730469 440.648438 405.222656 440.949219 405.070312 441.402344 C 404.921875 441.851562 406.578125 442.457031 409.140625 442.757812 Z M 409.140625 442.757812 " fill-opacity="1" fill-rule="nonzero"/><path fill="#e4e4e7" d="M 366.03125 405.976562 C 374.171875 406.429688 381.707031 406.429688 387.132812 405.523438 C 392.558594 404.621094 395.574219 402.960938 395.425781 402.660156 C 395.273438 402.058594 391.957031 402.8125 386.832031 402.960938 C 381.554688 403.261719 374.320312 402.8125 366.179688 402.359375 C 349.902344 401.605469 336.636719 401.753906 336.484375 402.660156 C 336.484375 403.714844 349.75 405.070312 366.03125 405.976562 Z M 366.03125 405.976562 " fill-opacity="1" fill-rule="nonzero"/><path fill="#e4e4e7" d="M 436.878906 358.945312 C 435.371094 366.480469 434.917969 373.867188 436.425781 378.992188 C 437.78125 384.117188 440.34375 386.53125 440.648438 386.230469 C 441.097656 385.925781 439.59375 383.214844 438.988281 378.542969 C 438.234375 373.867188 438.988281 367.085938 440.496094 359.699219 C 442.003906 352.3125 442.90625 344.925781 441.851562 339.800781 C 440.949219 334.523438 438.839844 331.960938 438.386719 332.113281 C 437.933594 332.414062 438.988281 335.277344 439.289062 340.101562 C 439.59375 344.925781 438.386719 351.558594 436.878906 358.945312 Z M 436.878906 358.945312 " fill-opacity="1" fill-rule="nonzero"/><path fill="#e4e4e7" d="M 428.890625 342.816406 C 427.984375 342.515625 424.066406 350.050781 421.804688 360.300781 C 420.597656 365.425781 420.449219 370.25 420.75 373.71875 C 421.050781 377.183594 421.953125 379.144531 422.40625 379.144531 C 423.011719 379.144531 423.011719 377.035156 423.3125 373.71875 C 423.613281 370.402344 424.214844 366.03125 425.269531 361.054688 C 427.53125 351.257812 429.945312 343.117188 428.890625 342.816406 Z M 428.890625 342.816406 " fill-opacity="1" fill-rule="nonzero"/><path fill="#e4e4e7" d="M 364.671875 322.765625 C 365.726562 322.617188 365.425781 314.929688 367.386719 305.28125 C 367.386719 305.433594 367.386719 305.582031 367.386719 305.882812 C 368.140625 315.230469 371.304688 322.164062 372.210938 321.863281 C 373.265625 321.5625 371.757812 314.476562 371.003906 305.582031 C 370.703125 301.210938 370.550781 297.140625 370.402344 294.277344 C 372.511719 288.246094 374.472656 284.175781 373.867188 283.875 C 373.113281 283.273438 366.933594 290.808594 364.371094 302.265625 C 361.507812 313.421875 363.769531 322.917969 364.671875 322.765625 Z M 364.671875 322.765625 " fill-opacity="1" fill-rule="nonzero"/><path fill="#e4e4e7" d="M 334.074219 312.0625 C 338.292969 310.558594 343.71875 307.390625 348.84375 302.867188 C 353.820312 298.347656 357.589844 293.371094 360 289.753906 C 362.414062 286.136719 363.46875 283.574219 363.164062 283.273438 C 362.714844 282.972656 360.90625 284.929688 358.039062 288.097656 C 356.835938 289.453125 355.476562 290.960938 353.96875 292.617188 C 354.722656 290.660156 355.175781 288.699219 355.476562 287.042969 C 355.929688 283.875 355.476562 281.765625 355.027344 281.765625 C 353.96875 281.765625 352.914062 289.152344 347.789062 296.839844 C 346.132812 299.402344 344.324219 301.511719 342.664062 303.320312 C 339.199219 306.035156 335.882812 308.144531 333.167969 309.652344 C 329.398438 311.761719 326.988281 312.667969 327.136719 313.269531 C 326.988281 313.722656 329.851562 313.570312 334.074219 312.0625 Z M 334.074219 312.0625 " fill-opacity="1" fill-rule="nonzero"/><path fill="#e4e4e7" d="M 489.335938 330.757812 C 490.089844 330.003906 482.402344 320.355469 476.523438 306.488281 C 473.507812 299.703125 472 292.921875 469.4375 288.097656 C 467.027344 283.421875 464.3125 281.3125 464.011719 281.765625 C 463.558594 282.066406 465.519531 284.628906 467.027344 289.152344 C 468.683594 293.675781 469.890625 300.609375 473.054688 307.84375 C 479.386719 322.316406 488.734375 331.359375 489.335938 330.757812 Z M 489.335938 330.757812 " fill-opacity="1" fill-rule="nonzero"/><path fill="#e4e4e7" d="M 471.246094 325.480469 C 474.261719 327.890625 476.371094 329.097656 476.675781 328.644531 C 476.976562 328.195312 475.46875 326.386719 472.90625 323.519531 C 470.34375 320.65625 466.726562 317.039062 463.257812 312.515625 C 459.792969 307.996094 457.378906 303.621094 456.023438 300.15625 C 454.667969 296.6875 454.0625 294.425781 453.609375 294.425781 C 453.160156 294.425781 452.707031 296.988281 453.609375 300.910156 C 454.363281 304.375 456.171875 308.746094 459.1875 312.96875 C 459.640625 314.777344 460.242188 316.886719 460.847656 319.449219 C 462.355469 325.027344 463.109375 329.699219 464.164062 329.699219 C 465.066406 329.699219 465.820312 325.179688 464.613281 319.601562 C 467.027344 322.011719 469.289062 323.972656 471.246094 325.480469 Z M 471.246094 325.480469 " fill-opacity="1" fill-rule="nonzero"/><path fill="#e4e4e7" d="M 373.71875 371.003906 C 374.171875 370.855469 374.171875 368.742188 375.226562 365.726562 C 376.28125 362.714844 378.691406 358.34375 380.800781 353.367188 C 380.953125 352.914062 381.253906 352.464844 381.40625 352.011719 C 381.40625 354.273438 381.859375 356.683594 382.160156 359.246094 C 382.613281 362.410156 383.214844 365.726562 383.0625 369.195312 C 382.761719 375.980469 379.296875 381.707031 376.734375 385.625 C 374.019531 389.546875 372.210938 391.957031 372.664062 392.257812 C 372.964844 392.558594 375.527344 390.902344 378.84375 387.132812 C 380.5 385.324219 382.308594 382.914062 383.816406 379.898438 C 385.324219 376.882812 386.53125 373.265625 386.832031 369.347656 C 386.984375 365.277344 386.230469 361.808594 385.625 358.644531 C 384.871094 355.476562 384.269531 352.765625 384.117188 350.503906 C 383.96875 348.84375 383.816406 347.335938 383.96875 346.28125 C 386.378906 339.953125 387.738281 335.277344 387.132812 334.976562 C 386.230469 334.523438 382.007812 342.210938 377.789062 352.011719 C 375.675781 356.984375 373.71875 361.355469 373.113281 365.125 C 372.210938 368.894531 373.265625 371.15625 373.71875 371.003906 Z M 373.71875 371.003906 " fill-opacity="1" fill-rule="nonzero"/><path fill="#e4e4e7" d="M 434.015625 474.113281 C 434.164062 474.5625 436.878906 473.507812 440.496094 470.644531 C 444.113281 467.78125 448.335938 462.804688 451.046875 456.324219 C 453.761719 449.84375 454.363281 443.210938 453.914062 438.6875 C 453.460938 434.164062 452.253906 431.453125 451.800781 431.601562 C 451.199219 431.753906 451.5 434.464844 451.351562 438.6875 C 451.199219 442.90625 450.144531 448.785156 447.730469 454.816406 C 445.167969 460.847656 441.703125 465.519531 438.839844 468.683594 C 435.824219 472 433.714844 473.660156 434.015625 474.113281 Z M 434.015625 474.113281 " fill-opacity="1" fill-rule="nonzero"/><path fill="#e4e4e7" d="M 437.78125 460.996094 C 440.042969 459.039062 442.605469 455.722656 444.265625 451.347656 C 445.921875 447.128906 446.375 442.90625 446.074219 439.894531 C 445.773438 436.878906 445.167969 435.21875 444.566406 435.21875 C 443.511719 435.371094 443.8125 442.304688 440.796875 449.992188 C 437.78125 457.679688 432.808594 462.503906 433.5625 463.410156 C 434.015625 463.710938 435.671875 462.957031 437.78125 460.996094 Z M 437.78125 460.996094 " fill-opacity="1" fill-rule="nonzero"/><path fill="#e4e4e7" d="M 347.1875 474.261719 C 344.171875 473.054688 340.101562 471.246094 336.332031 468.535156 C 332.566406 465.820312 329.851562 462.503906 328.195312 459.792969 C 326.6875 457.078125 326.082031 455.117188 325.480469 455.269531 C 325.027344 455.269531 324.726562 457.53125 325.933594 460.847656 C 326.988281 464.164062 329.851562 468.382812 334.222656 471.398438 C 338.59375 474.414062 343.117188 475.921875 346.433594 476.523438 C 349.75 477.125 351.859375 477.125 352.011719 476.675781 C 352.160156 476.222656 350.203125 475.46875 347.1875 474.261719 Z M 347.1875 474.261719 " fill-opacity="1" fill-rule="nonzero"/><path fill="#e4e4e7" d="M 493.859375 758.257812 C 496.570312 762.480469 499.886719 765.496094 502.601562 767.304688 C 505.316406 768.960938 507.273438 769.414062 507.578125 769.113281 C 508.027344 768.207031 501.546875 764.136719 496.875 756.449219 C 492.050781 748.761719 491.296875 741.226562 490.242188 741.226562 C 489.789062 741.226562 489.335938 743.183594 489.636719 746.5 C 489.941406 749.515625 491.296875 753.886719 493.859375 758.257812 Z M 493.859375 758.257812 " fill-opacity="1" fill-rule="nonzero"/><path fill="#e4e4e7" d="M 474.113281 645.355469 C 473.359375 646.109375 476.070312 649.425781 478.183594 653.945312 C 480.441406 658.46875 481.347656 662.539062 482.402344 662.539062 C 483.308594 662.539062 484.0625 657.714844 481.496094 652.4375 C 479.085938 647.164062 474.714844 644.601562 474.113281 645.355469 Z M 474.113281 645.355469 " fill-opacity="1" fill-rule="nonzero"/><path fill="#e4e4e7" d="M 285.234375 607.519531 C 287.644531 607.066406 290.808594 605.859375 293.675781 603.597656 C 296.539062 601.335938 298.648438 598.625 299.554688 596.363281 C 300.609375 594.253906 300.757812 592.59375 300.304688 592.445312 C 299.402344 591.992188 296.539062 596.816406 291.414062 600.734375 C 286.289062 604.804688 281.011719 606.3125 281.164062 607.367188 C 281.464844 607.667969 282.972656 607.96875 285.234375 607.519531 Z M 285.234375 607.519531 " fill-opacity="1" fill-rule="nonzero"/><path fill="#e4e4e7" d="M 310.558594 549.785156 C 314.023438 549.785156 316.738281 551.292969 317.339844 550.539062 C 317.640625 550.234375 317.339844 549.179688 316.132812 548.125 C 314.929688 547.070312 312.96875 546.167969 310.558594 546.167969 C 308.144531 546.015625 306.035156 546.917969 304.828125 547.824219 C 303.621094 548.730469 303.171875 549.785156 303.472656 550.085938 C 304.375 550.839844 307.089844 549.632812 310.558594 549.785156 Z M 310.558594 549.785156 " fill-opacity="1" fill-rule="nonzero"/></svg>