<svg xmlns="http://www.w3.org/2000/svg" xmlns:xlink="http://www.w3.org/1999/xlink" width="1080" zoomAndPan="magnify" viewBox="0 0 810 809.999993" height="1080" preserveAspectRatio="xMidYMid meet" version="1.0"><defs><clipPath id="efd26b285c"><path d="M 29 132.296875 L 781 132.296875 L 781 677.546875 L 29 677.546875 Z M 29 132.296875 " clip-rule="nonzero"/></clipPath></defs><g clip-path="url(#efd26b285c)"><path fill="#e4e4e7" d="M 321.457031 399.703125 C 321.832031 399.175781 322.132812 398.726562 322.433594 398.351562 C 322.132812 396.625 321.984375 394.898438 321.90625 393.09375 C 321.683594 387.011719 322.734375 381.230469 324.460938 376.273438 C 326.1875 371.316406 328.515625 367.1875 330.917969 364.035156 C 333.921875 360.054688 336.703125 357.652344 338.503906 356.449219 C 337.675781 354.871094 336.777344 353.144531 335.875 351.417969 C 335.273438 350.214844 334.671875 349.015625 333.996094 347.738281 C 333.398438 346.460938 332.722656 344.960938 332.347656 343.234375 C 332.347656 343.082031 332.269531 342.855469 332.269531 342.707031 C 331.820312 343.007812 330.917969 343.53125 329.867188 344.507812 C 328.289062 345.9375 326.5625 348.488281 325.210938 352.242188 C 324.535156 354.121094 323.785156 356.296875 322.734375 358.550781 C 321.683594 360.804688 320.179688 363.433594 317.476562 365.386719 C 314.773438 367.261719 311.695312 367.789062 310.34375 369.214844 C 308.917969 370.492188 308.617188 373.042969 308.617188 376.125 C 308.617188 377.625 308.617188 379.351562 308.390625 380.929688 C 308.242188 382.582031 307.941406 384.082031 307.566406 385.585938 C 306.8125 388.589844 305.914062 391.367188 305.011719 393.921875 C 303.132812 399.027344 301.632812 403.457031 301.03125 407.363281 C 299.679688 415.171875 302.160156 419.753906 301.484375 420.054688 C 301.257812 420.203125 300.28125 419.226562 299.304688 417.050781 C 298.328125 414.871094 297.578125 411.265625 297.878906 406.988281 C 298.027344 404.808594 298.402344 402.554688 298.929688 400.078125 C 299.53125 397.675781 300.28125 395.195312 301.105469 392.570312 C 301.933594 390.015625 302.757812 387.3125 303.285156 384.609375 C 303.585938 383.257812 303.808594 381.832031 303.960938 380.402344 C 304.109375 378.976562 304.109375 377.625 304.109375 375.972656 C 304.109375 374.394531 304.1875 372.667969 304.5625 370.941406 C 304.9375 369.214844 305.839844 367.261719 307.339844 365.910156 C 308.839844 364.558594 310.417969 363.882812 311.769531 363.359375 C 313.121094 362.832031 314.25 362.382812 315.148438 361.78125 C 316.953125 360.652344 318.304688 358.703125 319.429688 356.75 C 320.554688 354.722656 321.382812 352.695312 322.359375 350.816406 C 324.234375 346.988281 326.714844 344.132812 328.890625 342.933594 C 330.46875 342.105469 331.671875 341.957031 332.195312 342.03125 C 332.046875 340.527344 332.269531 338.800781 333.171875 337.300781 C 334.222656 335.421875 335.875 334.296875 337.378906 333.46875 C 338.953125 332.644531 340.382812 332.117188 341.734375 331.519531 C 343.085938 330.917969 344.4375 330.390625 345.789062 329.789062 C 348.492188 328.664062 351.042969 327.613281 353.523438 326.636719 C 358.476562 324.683594 362.910156 322.957031 366.664062 321.53125 C 371.246094 319.878906 374.773438 318.675781 376.953125 318.152344 C 376.953125 309.289062 376.953125 298.925781 377.101562 287.363281 C 377.175781 284.359375 377.175781 281.28125 377.25 278.125 C 377.25 277.675781 377.328125 275.722656 377.402344 274.296875 C 377.476562 272.796875 377.550781 271.21875 377.628906 269.714844 L 377.777344 267.386719 C 377.777344 267.3125 377.777344 267.089844 377.851562 267.164062 L 378.078125 267.386719 L 378.453125 267.765625 L 379.277344 268.589844 C 380.40625 269.714844 381.53125 270.765625 382.660156 271.894531 C 387.613281 276.851562 392.796875 281.957031 398.128906 287.214844 C 417.726562 306.660156 435.296875 324.535156 447.6875 337.75 C 448.816406 338.953125 449.867188 340.078125 450.917969 341.203125 C 452.644531 340.605469 454.449219 340.078125 456.324219 339.628906 C 459.777344 338.726562 463.308594 337.902344 467.214844 337.375 C 469.164062 337.148438 471.269531 337 473.445312 337.226562 C 475.625 337.449219 478.027344 338.125 480.054688 339.554688 C 482.082031 340.980469 483.582031 343.007812 484.484375 345.109375 C 485.386719 347.210938 485.835938 349.316406 486.0625 351.265625 C 486.511719 355.324219 486.4375 358.851562 486.585938 362.304688 C 486.8125 369.214844 487.1875 375.449219 487.488281 380.628906 C 487.789062 385.808594 488.089844 389.941406 488.238281 392.867188 C 488.316406 392.644531 488.765625 392.34375 489.441406 392.34375 C 490.265625 392.34375 491.46875 392.644531 492.519531 393.695312 C 493.570312 394.671875 494.621094 396.398438 494.472656 398.652344 C 494.398438 399.777344 493.871094 400.980469 493.046875 401.878906 C 492.894531 402.03125 492.820312 402.179688 492.671875 402.253906 C 493.046875 403.007812 493.496094 403.832031 494.097656 404.808594 C 494.847656 406.160156 495.898438 407.664062 497.25 409.164062 C 497.925781 409.914062 498.675781 410.667969 499.503906 411.34375 C 499.730469 411.492188 499.953125 411.71875 500.179688 411.867188 L 500.628906 412.242188 C 500.855469 412.394531 501.15625 412.617188 501.457031 412.769531 C 502.507812 413.445312 503.632812 414.195312 504.761719 414.945312 C 504.160156 415.546875 503.558594 416.148438 502.957031 416.75 C 502.132812 417.574219 501.304688 418.402344 500.480469 419.226562 C 500.027344 419.675781 499.503906 420.128906 499.054688 420.578125 C 498.078125 421.480469 497.175781 422.304688 496.347656 423.132812 C 495.671875 423.808594 494.621094 424.558594 493.722656 424.707031 C 492.820312 424.933594 491.769531 424.707031 491.09375 424.183594 C 490.34375 423.65625 489.890625 422.832031 489.667969 422.003906 L 489.667969 421.929688 C 489.367188 422.757812 488.691406 423.734375 487.640625 424.785156 C 486.4375 425.984375 484.636719 427.035156 482.382812 427.636719 C 482.082031 427.710938 481.707031 427.789062 481.40625 427.863281 C 480.957031 427.9375 480.429688 427.9375 479.980469 427.9375 C 479.453125 428.011719 479.003906 427.9375 478.550781 427.9375 C 478.101562 427.863281 477.574219 427.863281 477.199219 427.710938 C 476.300781 427.488281 475.472656 427.261719 474.574219 427.035156 C 473.746094 426.734375 472.84375 426.511719 471.945312 426.210938 C 473.144531 425.160156 474.347656 424.03125 475.546875 422.980469 C 476.222656 422.378906 476.75 421.855469 477.199219 421.253906 L 477.726562 420.578125 C 477.875 420.429688 477.953125 420.277344 478.027344 420.203125 C 481.179688 415.996094 482.457031 411.191406 482.832031 407.664062 C 483.132812 404.808594 483.058594 402.78125 483.285156 401.957031 C 482.007812 400.152344 482.007812 398.277344 482.308594 396.925781 C 482.683594 395.496094 483.582031 394.519531 484.257812 394.144531 C 485.011719 393.769531 485.535156 393.84375 485.6875 394.144531 C 485.988281 394.671875 485.234375 395.796875 485.460938 397.375 C 485.535156 398.125 485.910156 399.027344 486.511719 399.402344 C 486.960938 399.777344 487.789062 399.929688 488.691406 399.628906 C 489.589844 399.328125 490.191406 398.726562 490.417969 398.125 C 490.640625 397.449219 490.492188 396.546875 490.117188 395.796875 C 489.515625 394.445312 488.539062 393.84375 488.316406 393.320312 C 488.390625 396.097656 488.390625 397.675781 488.089844 397.75 C 487.488281 397.824219 485.910156 391.515625 484.410156 381.078125 C 483.660156 375.824219 482.984375 369.589844 482.53125 362.605469 C 482.230469 359.152344 482.230469 355.398438 481.78125 351.941406 C 481.332031 348.488281 480.128906 345.109375 477.578125 343.382812 C 475.097656 341.582031 471.34375 341.503906 467.890625 341.957031 C 464.285156 342.40625 460.753906 343.082031 457.453125 343.832031 C 456.324219 344.058594 455.199219 344.359375 454.070312 344.660156 C 457.375 348.261719 460.15625 351.34375 462.257812 353.820312 C 465.5625 357.648438 467.214844 360.054688 466.914062 360.203125 C 466.6875 360.355469 464.660156 358.476562 460.980469 355.023438 C 458.425781 352.617188 455.046875 349.390625 450.992188 345.484375 C 446.9375 346.6875 443.332031 347.964844 440.105469 349.238281 C 436.5 350.742188 433.421875 352.09375 431.019531 353.21875 C 431.09375 353.445312 431.09375 353.59375 431.09375 353.820312 C 431.167969 355.023438 430.941406 356.148438 430.492188 357.273438 C 429.96875 358.324219 429.214844 359.226562 428.238281 359.902344 C 427.265625 360.578125 426.0625 360.878906 424.9375 360.878906 C 422.683594 360.804688 421.179688 359.601562 420.355469 358.476562 C 419.527344 357.273438 419.304688 356.148438 419.453125 355.324219 C 419.605469 354.570312 419.980469 354.195312 420.28125 354.195312 C 420.878906 354.269531 421.332031 355.472656 422.683594 356.222656 C 423.359375 356.597656 424.183594 356.824219 424.785156 356.675781 C 425.3125 356.597656 425.910156 356.148438 426.289062 355.398438 C 425.234375 355.847656 424.636719 356.074219 424.558594 355.847656 C 424.410156 355.699219 425.160156 354.871094 426.664062 353.671875 C 426.664062 353.445312 426.585938 353.292969 426.511719 353.144531 C 426.210938 352.542969 425.535156 352.019531 424.785156 351.792969 C 423.359375 351.191406 422.15625 351.644531 421.707031 351.191406 C 421.480469 350.96875 421.554688 350.515625 422.082031 349.914062 C 422.609375 349.316406 423.660156 348.714844 425.085938 348.640625 C 426.511719 348.5625 428.390625 349.015625 429.816406 350.667969 C 429.96875 350.816406 430.117188 350.96875 430.191406 351.191406 C 432.445312 349.691406 435.296875 348.039062 438.828125 346.3125 C 441.53125 345.035156 444.535156 343.683594 447.839844 342.480469 C 447.089844 341.730469 446.261719 340.980469 445.4375 340.230469 C 432.445312 327.613281 414.496094 310.191406 394.898438 290.667969 C 390.394531 286.160156 386.039062 281.730469 381.757812 277.527344 C 381.757812 277.527344 381.683594 277.375 381.683594 277.449219 C 381.683594 277.449219 381.683594 277.527344 381.683594 277.601562 C 381.683594 277.75 381.683594 277.375 381.605469 278.503906 C 381.53125 281.65625 381.382812 284.660156 381.304688 287.664062 C 380.929688 299.601562 380.554688 310.417969 380.179688 319.429688 C 379.429688 337.523438 378.527344 348.714844 377.777344 348.714844 C 378.902344 349.464844 380.253906 350.589844 381.984375 351.941406 C 386.039062 355.246094 391.667969 360.277344 398.429688 366.585938 C 412.09375 379.203125 430.492188 397.148438 450.542969 417.199219 C 452.570312 419.226562 454.597656 421.253906 456.550781 423.28125 C 456.625 422.003906 456.925781 419.976562 457.527344 417.800781 C 458.503906 414.121094 459.777344 411.265625 460.378906 411.417969 C 460.980469 411.566406 460.679688 414.722656 459.777344 418.402344 C 459.101562 421.027344 458.277344 423.28125 457.601562 424.257812 C 458.652344 425.308594 459.777344 426.4375 460.832031 427.488281 C 461.28125 427.9375 461.804688 428.464844 462.257812 428.914062 C 462.40625 427.863281 462.707031 426.585938 463.082031 425.234375 C 463.609375 423.28125 464.285156 421.628906 464.808594 420.503906 C 464.585938 416.449219 464.511719 412.617188 464.433594 408.863281 C 464.285156 399.851562 464.511719 391.894531 464.734375 385.210938 C 465.261719 371.992188 466.386719 364.109375 466.914062 364.183594 C 467.4375 364.257812 467.289062 372.066406 467.511719 385.285156 C 467.589844 391.894531 467.8125 399.851562 468.191406 408.789062 C 468.339844 413.292969 468.640625 417.949219 469.015625 422.90625 C 469.242188 425.382812 469.464844 427.863281 469.765625 430.414062 L 469.839844 431.390625 L 469.839844 431.691406 L 469.917969 432.21875 L 470.066406 433.195312 C 470.292969 434.546875 470.515625 435.824219 470.742188 437.175781 C 470.894531 438.226562 471.117188 439.277344 471.34375 440.328125 C 475.699219 439.878906 480.203125 438.824219 484.859375 437.550781 C 490.417969 436.046875 496.273438 434.320312 502.65625 433.644531 C 504.234375 432.59375 507.238281 430.792969 511.519531 428.386719 C 518.203125 424.632812 527.964844 419.300781 540.503906 413.746094 C 546.8125 410.964844 553.871094 408.1875 561.605469 405.859375 C 565.511719 404.734375 569.566406 403.605469 573.84375 402.632812 C 578.050781 401.730469 582.480469 400.902344 586.910156 400.078125 C 595.773438 398.5 605.085938 396.847656 614.171875 393.621094 C 618.675781 392.042969 623.257812 390.015625 627.761719 387.835938 C 630.015625 386.710938 632.269531 385.585938 634.597656 384.457031 C 635.949219 383.78125 637.222656 383.105469 638.574219 382.429688 L 640.304688 381.53125 L 641.203125 381.078125 L 641.578125 380.855469 C 643.984375 376.5 648.789062 369.140625 654.796875 361.03125 C 655.996094 359.453125 657.199219 357.875 658.777344 356.449219 C 660.277344 355.097656 662.15625 353.894531 664.109375 353.445312 C 666.058594 352.917969 667.863281 352.996094 669.4375 353.144531 C 671.015625 353.292969 672.367188 353.59375 673.644531 353.746094 C 676.046875 354.195312 677.925781 354.347656 679.203125 354.347656 C 679.425781 354.347656 679.652344 354.347656 679.800781 354.347656 C 680.027344 354.121094 680.175781 353.894531 680.402344 353.671875 C 683.558594 350.066406 687.613281 345.410156 692.566406 339.929688 C 692.34375 339.554688 692.042969 339.175781 691.816406 338.800781 C 690.914062 337.300781 690.015625 335.273438 690.238281 333.09375 C 690.390625 330.917969 691.441406 329.265625 692.417969 327.914062 C 693.394531 326.5625 694.519531 325.511719 695.496094 324.535156 C 696.472656 323.558594 697.523438 322.582031 698.574219 321.679688 C 700.679688 319.878906 703.082031 318.453125 705.558594 317.925781 C 708.039062 317.398438 710.289062 317.550781 712.167969 318 C 712.242188 318 712.316406 318.074219 712.46875 318.074219 C 718.101562 311.917969 724.183594 305.308594 730.640625 298.25 C 736.347656 292.09375 742.28125 285.636719 748.585938 278.878906 C 751.816406 275.574219 755.644531 272.117188 760.601562 270.242188 C 763.15625 269.339844 765.933594 268.964844 768.636719 269.265625 C 771.339844 269.566406 774.195312 270.542969 776.445312 272.496094 C 778.773438 274.445312 780.125 277.375 780.425781 280.152344 C 780.800781 283.007812 780.277344 285.785156 779.300781 288.265625 C 777.273438 293.296875 773.667969 296.824219 770.515625 300.054688 C 764.132812 306.585938 757.972656 312.894531 752.042969 318.902344 C 745.660156 325.433594 739.578125 331.59375 733.871094 337.300781 C 734.320312 337.375 734.695312 337.523438 735.222656 337.675781 C 737.925781 338.652344 741.753906 341.429688 743.632812 346.460938 C 745.582031 351.417969 745.359375 358.101562 743.257812 364.410156 C 742.730469 365.984375 742.203125 367.636719 741.527344 369.214844 C 741.226562 370.039062 740.929688 370.792969 740.550781 371.617188 C 740.027344 372.96875 739.425781 374.320312 738.902344 375.671875 C 738.226562 377.25 737.550781 378.902344 736.871094 380.554688 C 736.496094 381.378906 736.195312 382.207031 735.820312 383.03125 L 735.296875 384.308594 L 735.144531 384.609375 L 735.070312 384.308594 L 734.921875 383.632812 C 733.945312 380.027344 732.96875 376.347656 731.992188 372.667969 L 731.839844 372.21875 C 731.164062 372.894531 730.640625 373.34375 729.964844 373.945312 C 728.761719 374.996094 727.5625 375.972656 726.433594 376.800781 C 725.308594 377.625 724.257812 378.226562 723.207031 378.902344 C 722.15625 379.578125 721.101562 380.253906 720.050781 380.855469 L 719.226562 381.378906 C 719 381.53125 718.550781 381.90625 718.777344 381.453125 L 719.375 379.878906 C 719.75 378.828125 720.128906 377.773438 720.503906 376.722656 C 720.726562 376.199219 720.878906 375.746094 721.101562 375.148438 C 721.402344 374.472656 721.703125 373.871094 722.003906 373.195312 C 723.132812 370.867188 724.183594 368.613281 725.234375 366.4375 C 725.835938 365.160156 726.433594 363.957031 727.035156 362.757812 C 728.164062 360.429688 729.363281 358.25 730.191406 356.296875 C 731.015625 354.421875 731.390625 352.617188 731.242188 351.117188 C 731.089844 349.617188 730.488281 348.414062 729.8125 347.585938 C 729.589844 347.289062 729.289062 347.0625 729.0625 346.835938 C 728.3125 347.664062 727.5625 348.488281 726.660156 349.390625 C 725.160156 351.042969 723.507812 352.769531 721.703125 354.648438 C 720.804688 355.621094 719.902344 356.523438 718.925781 357.574219 C 718.25 358.25 717.5 359 716.824219 359.753906 L 716.070312 360.503906 L 715.921875 360.652344 C 715.847656 360.730469 715.773438 360.804688 715.695312 360.730469 L 715.246094 360.429688 C 714.644531 360.054688 714.042969 359.679688 713.445312 359.378906 C 713.070312 359.152344 712.691406 358.851562 712.242188 358.625 C 706.835938 363.957031 702.332031 368.386719 698.800781 371.769531 C 693.621094 376.648438 690.691406 379.277344 690.464844 379.050781 C 690.238281 378.828125 692.792969 375.824219 697.523438 370.492188 C 700.679688 366.960938 704.882812 362.457031 709.839844 357.050781 C 709.613281 356.898438 709.390625 356.75 709.238281 356.597656 C 708.9375 356.375 708.636719 356.148438 708.335938 355.921875 C 707.886719 357.273438 703.980469 362.457031 697.148438 369.589844 C 693.320312 373.570312 688.4375 378.074219 682.730469 382.65625 C 681.304688 383.78125 679.800781 384.984375 678.300781 386.109375 L 677.175781 387.011719 C 676.496094 387.460938 675.898438 387.988281 675.222656 388.4375 C 673.644531 389.488281 672.144531 390.617188 670.566406 391.742188 C 668.988281 392.867188 667.335938 393.996094 665.757812 395.046875 L 665.160156 395.496094 L 664.859375 395.722656 C 664.785156 395.796875 664.859375 395.648438 664.859375 395.648438 L 664.933594 395.421875 L 665.535156 393.769531 C 665.984375 392.644531 666.359375 391.515625 666.8125 390.390625 C 667.5625 388.363281 668.3125 386.335938 669.140625 384.308594 L 666.960938 384.382812 C 663.730469 384.535156 660.503906 384.683594 657.273438 384.835938 C 660.128906 382.507812 662.980469 380.179688 665.757812 377.851562 C 666.734375 377.023438 667.710938 376.199219 668.6875 375.371094 C 669.363281 374.773438 670.039062 374.246094 670.640625 373.71875 C 673.269531 371.46875 675.671875 369.289062 678 367.1875 C 682.582031 362.980469 686.636719 359.078125 689.941406 355.847656 C 693.695312 352.09375 696.621094 349.164062 698.5 347.4375 C 698.351562 347.289062 698.125 347.0625 697.976562 346.910156 C 696.773438 345.636719 695.648438 344.359375 694.59375 343.007812 C 694.371094 342.78125 694.21875 342.480469 693.996094 342.257812 C 688.964844 347.4375 684.757812 351.71875 681.453125 355.023438 C 676.421875 360.054688 673.496094 362.679688 673.269531 362.457031 C 673.117188 362.304688 674.621094 360.277344 677.625 356.75 C 676.347656 357.050781 674.769531 357.125 673.117188 357.125 C 670.566406 357.125 667.5625 356.75 665.082031 357.648438 C 662.605469 358.402344 660.429688 360.878906 658.25 363.882812 C 651.867188 372.519531 645.933594 379.804688 642.632812 383.105469 L 643.382812 384.757812 C 645.558594 389.640625 647.664062 394.445312 649.839844 399.175781 C 650.367188 400.304688 650.890625 401.503906 651.417969 402.632812 L 652.242188 404.507812 L 652.617188 405.410156 C 653.292969 404.359375 655.171875 402.554688 658.324219 400.828125 C 662.679688 398.351562 669.589844 396.324219 677.25 396.699219 C 684.910156 397.074219 691.515625 399.476562 695.871094 401.65625 C 700.226562 403.90625 702.554688 405.933594 702.253906 406.460938 C 701.953125 407.0625 699.101562 406.085938 694.671875 404.660156 C 690.238281 403.308594 684.007812 401.578125 677.097656 401.28125 C 670.191406 400.980469 663.957031 402.253906 659.675781 403.832031 C 656.371094 404.960938 654.121094 406.160156 653.070312 406.386719 L 653.445312 407.136719 L 653.667969 407.585938 C 653.746094 407.664062 653.667969 407.738281 653.59375 407.738281 L 653.371094 407.886719 C 651.867188 408.9375 650.367188 409.914062 648.863281 410.964844 C 647.8125 411.71875 646.761719 412.394531 645.710938 412.992188 C 637.222656 418.324219 628.664062 422.605469 620.476562 426.511719 C 612.292969 430.414062 604.484375 434.019531 597.425781 437.699219 C 590.289062 441.378906 583.90625 445.058594 578.351562 448.886719 C 575.496094 450.765625 573.019531 452.792969 570.617188 454.597656 C 568.214844 456.546875 565.960938 458.425781 563.707031 460.003906 C 561.453125 461.578125 559.050781 462.929688 556.800781 463.683594 C 554.472656 464.507812 552.21875 464.808594 550.265625 464.882812 C 546.285156 464.957031 543.359375 464.28125 541.328125 463.90625 C 539.378906 463.457031 538.328125 463.15625 538.328125 463.007812 C 538.328125 462.855469 539.453125 462.855469 541.40625 463.007812 C 543.433594 463.15625 546.359375 463.457031 550.039062 463.15625 C 551.84375 463.007812 553.871094 462.554688 555.898438 461.730469 C 557.925781 460.902344 560.027344 459.628906 562.128906 457.976562 C 564.234375 456.398438 566.335938 454.445312 568.664062 452.417969 C 571.066406 450.464844 573.546875 448.289062 576.398438 446.261719 C 581.957031 442.128906 588.488281 438.226562 595.621094 434.320312 C 602.757812 430.492188 610.492188 426.734375 618.601562 422.757812 C 626.710938 418.777344 635.121094 414.496094 643.304688 409.238281 C 644.359375 408.636719 645.335938 407.960938 646.386719 407.210938 L 647.886719 406.160156 L 648.039062 406.085938 L 647.363281 404.582031 C 646.835938 403.457031 646.308594 402.253906 645.785156 401.128906 C 643.757812 396.546875 641.65625 391.96875 639.550781 387.3125 C 638.574219 387.835938 637.597656 388.289062 636.625 388.8125 C 634.296875 390.015625 632.042969 391.140625 629.714844 392.269531 C 625.058594 394.445312 620.402344 396.472656 615.671875 398.125 C 606.136719 401.429688 596.597656 403.007812 587.664062 404.507812 C 583.230469 405.257812 578.875 406.011719 574.746094 406.835938 C 570.617188 407.664062 566.636719 408.714844 562.804688 409.765625 C 555.148438 411.941406 548.164062 414.496094 541.855469 417.050781 C 529.238281 422.15625 519.328125 427.035156 512.417969 430.339844 C 509.191406 431.84375 506.636719 433.042969 504.835938 433.871094 C 504.910156 433.871094 504.984375 433.871094 505.058594 433.871094 C 508.664062 433.71875 512.34375 433.945312 515.796875 434.847656 C 518.652344 435.597656 521.355469 436.796875 523.757812 438.375 C 523.683594 437.175781 523.832031 435.523438 524.132812 433.644531 C 524.660156 430.265625 525.636719 427.5625 526.234375 427.636719 C 526.835938 427.710938 526.910156 430.566406 526.386719 434.019531 C 526.011719 436.273438 525.484375 438.226562 525.035156 439.277344 C 525.183594 439.351562 525.335938 439.5 525.484375 439.652344 C 531.117188 444.007812 534.496094 450.089844 536.449219 455.949219 C 538.476562 461.878906 539.152344 467.738281 539.078125 473.21875 C 539 478.699219 538.324219 483.65625 537.574219 488.085938 C 536.296875 495.523438 535.023438 501.679688 534.195312 506.410156 C 535.472656 510.316406 536.75 514.445312 537.949219 518.726562 C 541.78125 532.316406 544.785156 547.5625 548.089844 563.332031 C 549.742188 571.140625 551.617188 578.800781 555.371094 584.882812 C 556.273438 586.382812 557.324219 587.8125 558.527344 589.085938 L 558.976562 589.539062 C 559.203125 589.6875 559.125 589.761719 559.578125 590.0625 L 561.453125 591.640625 L 563.40625 593.292969 L 564.382812 594.117188 L 564.910156 594.496094 L 565.132812 594.71875 C 565.132812 594.71875 565.285156 594.792969 565.210938 594.792969 L 565.058594 594.871094 C 560.480469 596.597656 555.898438 598.25 551.542969 599.902344 C 538.402344 604.707031 526.460938 609.0625 516.472656 612.59375 C 506.488281 616.121094 498.375 618.976562 492.667969 620.777344 C 488.765625 622.054688 485.984375 622.878906 484.632812 623.179688 C 485.308594 632.640625 486.660156 641.203125 488.164062 648.488281 C 490.117188 657.574219 492.292969 664.78125 493.871094 669.738281 C 495.449219 674.695312 496.425781 677.472656 496.046875 677.621094 C 495.824219 677.699219 494.320312 675.21875 492.21875 670.414062 C 490.117188 665.609375 487.414062 658.398438 485.011719 649.3125 C 482.605469 640.152344 480.65625 629.039062 480.054688 616.496094 C 479.902344 613.34375 479.828125 610.039062 479.902344 606.660156 C 478.925781 608.011719 478.027344 609.363281 477.050781 610.640625 C 476.222656 611.839844 475.472656 612.96875 474.722656 614.09375 C 473.21875 616.421875 471.945312 618.597656 470.742188 620.777344 C 468.339844 625.058594 466.460938 628.960938 465.035156 632.265625 C 463.382812 635.945312 462.257812 638.800781 461.503906 640.601562 C 461.882812 640.828125 462.257812 641.050781 462.855469 641.277344 L 464.058594 641.726562 L 464.660156 641.953125 L 465.5625 642.179688 C 468.113281 642.929688 470.59375 643.679688 473.070312 644.429688 C 471.34375 644.808594 469.691406 645.183594 468.039062 645.558594 C 466.085938 645.933594 464.433594 646.382812 462.558594 646.683594 C 461.65625 646.835938 460.828125 647.058594 459.855469 647.132812 C 458.953125 647.210938 458.125 647.285156 457.226562 647.433594 C 456.25 647.511719 455.199219 647.511719 454.296875 647.511719 C 450.46875 647.433594 447.085938 646.910156 444.308594 646.234375 C 443.707031 646.082031 443.183594 645.933594 442.65625 645.78125 C 443.933594 647.132812 445.285156 648.410156 446.710938 649.613281 C 447.3125 650.136719 447.839844 650.589844 448.4375 651.039062 L 449.714844 652.015625 C 450.316406 652.464844 450.992188 652.917969 451.667969 653.367188 C 452.792969 654.195312 453.996094 655.09375 455.121094 655.921875 L 456.773438 657.121094 L 456.851562 657.195312 C 456.851562 657.195312 456.773438 657.195312 456.699219 657.195312 L 456.398438 657.273438 L 455.875 657.421875 L 454.824219 657.648438 C 453.394531 657.949219 452.042969 658.324219 450.691406 658.625 C 450.015625 658.773438 449.339844 658.925781 448.664062 659.074219 C 448.0625 659.226562 447.238281 659.375 446.710938 659.449219 C 445.285156 659.675781 443.785156 659.824219 442.433594 659.902344 C 436.800781 660.277344 431.695312 659.675781 427.5625 658.773438 C 423.660156 657.871094 420.578125 656.746094 418.476562 655.695312 C 419.152344 656.671875 419.828125 657.722656 420.503906 658.699219 L 421.707031 660.425781 L 423.207031 662.378906 C 424.035156 663.578125 424.933594 664.855469 425.761719 666.058594 L 426.0625 666.507812 L 426.210938 666.734375 C 426.210938 666.808594 426.363281 666.960938 426.210938 666.882812 L 425.011719 666.808594 L 422.683594 666.582031 C 421.929688 666.507812 421.105469 666.433594 420.429688 666.359375 L 418.328125 666.058594 C 415.023438 665.683594 414.121094 665.308594 412.394531 664.933594 C 409.316406 664.03125 406.460938 662.828125 403.835938 661.402344 C 398.652344 658.550781 394.597656 655.019531 391.742188 651.640625 C 388.890625 648.261719 387.164062 645.105469 386.261719 642.855469 C 385.886719 642.027344 385.660156 641.277344 385.511719 640.675781 C 384.910156 641.277344 384.308594 641.878906 383.632812 642.480469 C 381.304688 644.65625 378.601562 646.835938 375.449219 648.9375 C 374.699219 649.460938 373.871094 649.988281 373.046875 650.515625 C 372.894531 650.589844 372.445312 650.890625 372.070312 651.039062 L 370.941406 651.640625 C 370.191406 652.089844 369.367188 652.464844 368.617188 652.917969 C 367.039062 653.667969 365.535156 654.34375 363.882812 655.09375 C 363.058594 655.46875 362.230469 655.84375 361.40625 656.222656 L 360.804688 656.519531 L 360.503906 656.671875 L 360.355469 656.746094 L 360.28125 656.746094 L 360.355469 656.671875 L 361.03125 655.546875 C 361.933594 653.96875 362.757812 652.390625 363.660156 650.738281 C 364.558594 649.085938 365.460938 647.511719 366.585938 645.632812 C 367.1875 644.582031 367.789062 643.453125 368.390625 642.328125 C 368.914062 641.351562 369.441406 640.453125 369.890625 639.398438 C 370.867188 637.449219 371.917969 635.421875 372.820312 633.390625 C 373.269531 632.339844 373.796875 631.289062 374.246094 630.238281 C 374.699219 629.1875 375.148438 628.136719 375.597656 627.007812 C 382.132812 611.316406 385.585938 596.144531 387.3125 584.355469 C 385.359375 587.210938 382.058594 591.339844 377.402344 596.070312 C 375.222656 598.25 372.746094 600.652344 369.890625 602.980469 C 368.464844 604.179688 366.964844 605.308594 365.460938 606.507812 L 364.261719 607.410156 C 363.660156 607.859375 363.058594 608.234375 362.457031 608.6875 C 360.957031 609.664062 359.378906 610.714844 357.800781 611.765625 C 354.648438 613.71875 351.417969 615.671875 348.039062 617.699219 L 347.964844 617.773438 C 347.964844 617.773438 347.964844 617.699219 347.964844 617.699219 L 348.039062 617.546875 L 348.191406 617.246094 L 348.492188 616.722656 L 349.167969 615.59375 C 349.617188 614.84375 350.066406 614.09375 350.441406 613.34375 C 351.34375 611.765625 352.09375 610.414062 353.296875 608.535156 C 354.347656 606.734375 355.472656 604.933594 356.601562 603.128906 L 357.425781 601.777344 L 357.800781 601.101562 L 357.953125 600.726562 L 358.703125 599.226562 C 359.230469 598.25 359.679688 597.199219 360.203125 596.222656 C 360.65625 595.171875 361.105469 594.117188 361.554688 593.066406 C 367.863281 578.125 369.589844 563.105469 369.367188 551.539062 C 368.539062 552.816406 367.414062 554.394531 365.988281 556.347656 C 362.308594 561.152344 356.375 567.761719 347.515625 574.144531 C 345.9375 575.269531 343.757812 576.695312 341.808594 577.898438 C 339.78125 579.101562 337.675781 580.375 335.574219 581.652344 L 335.199219 581.878906 C 335.125 581.878906 335.046875 582.027344 335.046875 581.953125 L 335.125 581.726562 L 335.5 580.902344 L 336.324219 579.324219 C 336.851562 578.199219 337.453125 577.148438 337.976562 576.019531 C 338.578125 574.894531 339.105469 573.769531 339.703125 572.640625 L 340.753906 570.691406 L 341.507812 568.960938 C 344.210938 563.40625 346.386719 557.097656 348.039062 550.414062 C 349.691406 543.65625 350.894531 536.445312 351.195312 528.863281 C 351.492188 521.277344 351.042969 513.46875 349.617188 505.582031 C 348.265625 497.699219 345.9375 490.191406 343.007812 483.28125 C 340.15625 476.296875 336.324219 469.988281 332.796875 463.90625 C 329.191406 457.824219 325.738281 451.96875 323.035156 446.109375 C 320.253906 440.328125 318.304688 434.546875 317.328125 429.140625 C 315.300781 418.25 316.953125 409.015625 319.65625 403.53125 C 320.105469 401.878906 320.855469 400.753906 321.457031 399.703125 Z M 489.964844 404.132812 C 488.765625 404.507812 487.5625 404.582031 486.363281 404.285156 C 485.835938 404.132812 485.386719 403.984375 484.933594 403.757812 C 485.3125 404.808594 485.6875 406.160156 485.910156 407.886719 C 486.363281 411.941406 485.386719 417.949219 481.480469 423.132812 C 481.332031 423.28125 481.253906 423.507812 481.105469 423.65625 L 480.957031 423.882812 C 480.957031 423.882812 480.878906 423.882812 480.878906 423.882812 C 480.804688 423.882812 480.804688 423.957031 480.804688 424.03125 C 480.804688 424.03125 480.878906 424.109375 480.878906 424.109375 C 480.878906 424.109375 480.957031 424.109375 480.957031 424.183594 C 480.957031 424.183594 481.253906 424.183594 481.480469 424.183594 C 483.132812 423.957031 484.636719 423.433594 485.761719 422.832031 C 487.414062 421.929688 488.390625 420.953125 489.066406 420.503906 C 488.238281 417.125 488.089844 414.945312 488.613281 414.722656 C 489.214844 414.496094 490.492188 416.375 492.144531 419.601562 C 492.21875 419.828125 492.371094 419.976562 492.445312 420.203125 L 492.59375 420.503906 C 492.671875 420.578125 492.671875 420.578125 492.671875 420.578125 C 492.746094 420.652344 492.820312 420.730469 492.894531 420.730469 C 492.96875 420.730469 493.121094 420.730469 493.121094 420.652344 C 493.195312 420.578125 493.121094 420.578125 493.269531 420.429688 C 494.097656 419.527344 494.921875 418.625 495.824219 417.726562 C 496.273438 417.273438 496.726562 416.824219 497.175781 416.296875 L 497.550781 415.921875 C 497.625 415.847656 497.550781 415.921875 497.625 415.847656 C 497.851562 415.996094 496.949219 415.320312 496.574219 414.871094 C 495.597656 413.96875 494.773438 412.996094 494.023438 411.941406 C 492.59375 409.992188 491.695312 407.964844 491.167969 406.234375 C 490.867188 405.335938 490.71875 404.507812 490.640625 403.757812 C 490.417969 403.984375 490.191406 404.058594 489.964844 404.132812 Z M 706.160156 320.929688 C 704.359375 321.53125 702.554688 322.730469 700.828125 324.382812 C 699.925781 325.210938 699.101562 326.1875 698.125 327.164062 C 697.222656 328.214844 696.246094 329.191406 695.570312 330.242188 C 694.820312 331.292969 694.371094 332.34375 694.371094 333.246094 C 694.296875 334.144531 694.671875 335.199219 695.421875 336.324219 C 695.421875 336.324219 695.421875 336.324219 695.421875 336.398438 C 696.921875 334.671875 698.574219 332.945312 700.226562 331.066406 C 703.304688 327.6875 706.535156 324.082031 710.066406 320.253906 C 708.789062 320.328125 707.511719 320.554688 706.160156 320.929688 Z M 767.0625 297.050781 C 770.214844 293.746094 773.367188 290.515625 774.871094 286.6875 C 776.371094 282.933594 776.148438 278.351562 773.21875 275.949219 C 770.363281 273.472656 765.558594 273.09375 761.878906 274.445312 C 757.972656 275.875 754.59375 278.800781 751.441406 281.957031 C 745.207031 288.566406 739.125 295.023438 733.34375 301.105469 C 727.109375 307.714844 721.179688 313.871094 715.695312 319.652344 C 715.921875 319.804688 716.074219 319.878906 716.222656 320.027344 C 717.425781 320.929688 718.175781 321.753906 718.550781 322.355469 C 719.078125 321.003906 719.902344 319.953125 720.804688 319.351562 C 721.929688 318.527344 723.054688 318.300781 723.808594 318.375 C 724.558594 318.453125 724.933594 318.753906 724.933594 319.050781 C 724.933594 319.726562 723.808594 320.253906 723.054688 321.679688 C 722.832031 322.054688 722.679688 322.433594 722.53125 322.808594 C 722.605469 322.730469 722.679688 322.65625 722.832031 322.507812 C 723.730469 321.679688 724.859375 320.703125 726.511719 319.953125 C 728.085938 319.203125 730.191406 318.753906 732.367188 319.050781 C 734.546875 319.351562 736.648438 320.554688 737.847656 322.433594 C 738.675781 323.785156 738.902344 325.210938 738.824219 326.410156 C 741.980469 323.109375 745.285156 319.652344 748.664062 316.125 C 754.59375 309.964844 760.679688 303.582031 767.0625 297.050781 Z M 735.972656 370.714844 Z M 731.691406 372.21875 Z M 731.691406 372.21875 Z M 731.691406 372.21875 Z M 730.941406 346.386719 C 731.992188 347.289062 733.117188 348.714844 733.570312 350.742188 C 734.019531 352.769531 733.71875 355.097656 732.96875 357.351562 C 732.21875 359.601562 731.242188 361.855469 730.265625 364.257812 C 729.738281 365.460938 729.214844 366.738281 728.6875 368.011719 L 728.460938 368.464844 C 728.386719 368.613281 728.3125 368.839844 728.3125 368.765625 L 728.3125 368.914062 L 728.238281 369.140625 C 728.238281 369.214844 728.238281 369.289062 728.238281 369.363281 C 728.238281 369.441406 728.460938 369.214844 728.460938 369.140625 C 728.539062 369.066406 728.539062 368.988281 728.613281 368.988281 C 728.613281 368.988281 728.6875 368.914062 728.539062 368.988281 C 729.214844 368.3125 729.738281 367.710938 730.339844 367.113281 C 731.542969 365.761719 732.667969 364.410156 733.871094 363.058594 C 734.546875 365.609375 735.222656 368.164062 735.898438 370.792969 L 735.972656 370.640625 L 736.199219 370.039062 C 736.496094 369.289062 736.875 368.464844 737.171875 367.710938 C 737.847656 366.210938 738.375 364.710938 738.902344 363.207031 C 741.003906 357.425781 741.453125 351.867188 740.175781 347.589844 C 738.976562 343.308594 736.121094 340.679688 734.019531 339.328125 C 733.417969 338.953125 732.816406 338.652344 732.367188 338.425781 C 732.292969 338.5 732.21875 338.578125 732.21875 338.578125 C 732.441406 339.027344 732.667969 339.554688 732.742188 340.230469 C 732.894531 341.878906 731.84375 343.609375 730.640625 344.960938 C 730.414062 345.183594 730.191406 345.484375 729.964844 345.785156 C 730.339844 345.9375 730.640625 346.160156 730.941406 346.386719 Z M 719.074219 352.019531 C 721.027344 350.292969 722.753906 348.640625 724.40625 347.136719 C 726.058594 345.710938 727.5625 344.359375 728.914062 343.234375 C 730.191406 342.179688 730.941406 341.128906 731.089844 340.304688 C 731.089844 340.152344 731.089844 340.078125 731.089844 339.929688 C 727.261719 343.757812 723.65625 347.363281 720.351562 350.742188 C 719.453125 351.644531 718.625 352.46875 717.722656 353.371094 C 718.175781 352.84375 718.625 352.394531 719.074219 352.019531 Z M 674.09375 383.933594 C 673.871094 384.082031 673.871094 384.082031 674.09375 383.933594 Z M 692.117188 357.875 C 689.039062 361.480469 685.210938 365.609375 680.703125 370.039062 C 678.449219 372.292969 676.046875 374.546875 673.417969 376.875 C 672.742188 377.476562 672.144531 378.074219 671.46875 378.601562 L 670.492188 379.503906 C 670.339844 379.578125 670.414062 379.578125 670.414062 379.578125 L 671.316406 379.503906 C 672.742188 379.425781 674.171875 379.351562 675.671875 379.277344 L 675.898438 379.277344 C 675.296875 380.777344 674.769531 382.28125 674.171875 383.707031 C 674.996094 383.105469 678.300781 380.777344 680.179688 379.277344 C 685.886719 374.921875 690.839844 370.714844 694.972656 367.113281 C 702.179688 360.730469 706.761719 356.222656 708.039062 355.546875 C 707.136719 354.871094 706.308594 354.269531 705.484375 353.519531 C 703.457031 351.867188 701.503906 350.140625 699.628906 348.1875 C 698.050781 350.589844 695.570312 353.820312 692.117188 357.875 Z M 698.125 340.078125 C 699.101562 341.28125 700.226562 342.558594 701.355469 343.757812 C 703.605469 346.160156 705.933594 348.339844 708.261719 350.367188 C 709.464844 351.34375 710.664062 352.320312 711.867188 353.21875 C 712.242188 353.519531 712.542969 353.746094 712.917969 353.972656 C 714.570312 352.242188 716.296875 350.367188 718.101562 348.488281 C 723.28125 343.007812 728.988281 336.925781 735.222656 330.316406 C 734.996094 329.714844 735.820312 328.738281 735.597656 327.164062 C 735.523438 326.335938 735.144531 325.433594 734.621094 324.835938 C 734.09375 324.234375 733.042969 323.707031 731.84375 323.558594 C 729.289062 323.109375 726.8125 324.234375 724.785156 325.136719 C 724.03125 325.511719 723.355469 325.734375 722.832031 325.960938 C 722.980469 326.261719 723.132812 326.636719 723.355469 326.9375 C 724.03125 327.988281 724.933594 328.816406 725.910156 329.414062 C 725.835938 329.113281 725.835938 328.816406 725.835938 328.515625 C 725.835938 326.785156 726.359375 325.210938 727.636719 324.835938 C 728.839844 324.460938 730.339844 326.035156 730.414062 328.363281 C 730.414062 329.414062 730.191406 330.390625 729.738281 331.066406 C 730.941406 331.519531 731.765625 331.816406 731.84375 332.34375 C 731.917969 332.945312 730.640625 333.769531 728.238281 333.847656 C 727.035156 333.847656 725.535156 333.695312 723.957031 333.019531 C 722.378906 332.34375 720.726562 331.066406 719.675781 329.339844 C 718.550781 327.539062 718.101562 325.433594 718.550781 323.484375 C 718.550781 323.40625 718.625 323.257812 718.625 323.183594 C 718.101562 322.882812 717.125 322.28125 715.695312 321.605469 C 715.398438 321.457031 715.019531 321.304688 714.570312 321.15625 C 710.367188 325.511719 706.460938 329.640625 702.78125 333.394531 C 700.902344 335.347656 699.175781 337.148438 697.449219 338.953125 C 697.523438 339.328125 697.824219 339.703125 698.125 340.078125 Z M 465.484375 432.144531 L 465.484375 431.917969 L 465.410156 430.941406 C 465.261719 429.363281 465.109375 427.789062 465.035156 426.210938 C 464.585938 427.863281 463.984375 429.289062 463.535156 430.265625 C 464.058594 430.867188 464.660156 431.390625 465.1875 431.992188 L 465.5625 432.367188 L 465.5625 432.21875 Z M 554.847656 593.667969 L 556.125 593.21875 C 556.425781 593.144531 556.425781 593.144531 556.425781 593.144531 L 556.5 593.066406 C 556.5 593.066406 556.425781 593.066406 556.425781 593.066406 C 556.425781 593.066406 556.425781 593.066406 556.273438 592.917969 L 555.972656 592.691406 L 554.996094 591.714844 C 553.570312 590.214844 552.367188 588.636719 551.316406 586.910156 C 550.867188 586.160156 550.417969 585.410156 549.964844 584.65625 C 549.515625 586.308594 548.390625 589.164062 546.886719 592.390625 C 545.835938 594.644531 544.785156 596.597656 543.882812 598.023438 C 545.835938 597.273438 547.789062 596.523438 549.816406 595.769531 C 551.542969 594.945312 553.195312 594.34375 554.847656 593.667969 Z M 479.902344 604.558594 C 479.980469 601.855469 480.128906 599.148438 480.28125 596.371094 C 480.804688 589.539062 481.78125 582.554688 483.132812 575.496094 C 485.835938 561.378906 489.289062 548.238281 491.695312 536.148438 C 494.097656 524.132812 495.296875 513.167969 495.222656 503.933594 C 495.222656 494.695312 494.023438 487.261719 492.894531 482.230469 C 491.769531 477.199219 490.792969 474.421875 491.167969 474.269531 C 491.394531 474.195312 492.894531 476.671875 494.621094 481.703125 C 496.273438 486.734375 498 494.320312 498.453125 503.78125 C 498.902344 513.242188 498 524.582031 495.824219 536.898438 C 493.644531 549.214844 490.265625 562.429688 487.640625 576.320312 C 486.363281 583.304688 485.3125 590.0625 484.785156 596.746094 C 484.257812 603.355469 484.109375 609.8125 484.257812 615.894531 C 484.335938 618.074219 484.410156 620.175781 484.558594 622.203125 C 485.835938 621.527344 488.316406 620.328125 491.996094 618.824219 C 497.476562 616.496094 505.4375 613.191406 515.273438 609.289062 C 523.082031 606.132812 532.167969 602.605469 542.082031 598.773438 C 542.53125 597.046875 543.660156 594.34375 545.085938 591.339844 C 546.886719 587.585938 548.691406 584.582031 549.664062 583.53125 C 546.585938 577.375 545.011719 570.613281 543.582031 563.929688 C 540.277344 548.085938 537.351562 532.917969 533.820312 519.476562 C 533.445312 518.125 533.144531 516.773438 532.769531 515.421875 C 532.621094 516.097656 532.542969 516.398438 532.394531 516.398438 C 532.167969 516.398438 531.945312 514.972656 531.867188 512.417969 C 528.863281 501.828125 525.410156 492.441406 521.882812 484.558594 C 513.246094 465.335938 504.308594 455.421875 504.984375 454.972656 C 505.210938 454.820312 507.613281 457 511.367188 461.730469 C 515.121094 466.386719 520.003906 473.59375 524.734375 483.207031 C 527.4375 488.613281 529.992188 494.695312 532.46875 501.453125 C 532.921875 497.398438 533.597656 492.59375 534.273438 487.261719 C 534.796875 482.832031 535.324219 477.949219 535.171875 472.84375 C 535.097656 467.738281 534.273438 462.253906 532.320312 456.921875 C 530.441406 451.59375 527.289062 446.335938 522.558594 442.804688 C 520.230469 441.078125 517.527344 439.652344 514.523438 438.902344 C 511.59375 438.148438 508.363281 437.925781 505.136719 438.074219 C 498.601562 438.375 492.292969 440.253906 485.988281 441.90625 C 482.832031 442.730469 479.679688 443.480469 476.523438 444.007812 C 475.097656 444.234375 473.671875 444.457031 472.246094 444.535156 C 472.320312 444.757812 472.320312 444.984375 472.394531 445.210938 C 472.167969 444.984375 471.945312 444.757812 471.71875 444.535156 C 470.140625 444.683594 468.640625 444.683594 467.136719 444.683594 C 460.980469 444.683594 455.273438 443.855469 450.015625 443.179688 C 444.761719 442.429688 439.953125 441.753906 435.523438 441.453125 C 426.738281 440.855469 419.605469 441.980469 415.023438 443.707031 C 410.367188 445.359375 408.191406 447.085938 407.890625 446.785156 C 407.738281 446.636719 409.617188 444.382812 414.273438 442.054688 C 418.929688 439.726562 426.4375 438 435.597656 438.226562 C 440.179688 438.300781 445.136719 438.824219 450.394531 439.425781 C 455.648438 440.027344 461.207031 440.628906 466.988281 440.476562 C 467.214844 440.476562 467.363281 440.476562 467.589844 440.476562 C 464.285156 437.25 460.980469 433.945312 457.601562 430.640625 C 454.222656 427.335938 450.84375 423.882812 447.390625 420.429688 C 440.328125 413.371094 433.570312 406.609375 427.1875 400.152344 C 427.113281 400.453125 426.964844 400.828125 426.8125 401.128906 C 426.511719 401.730469 426.136719 402.40625 425.761719 403.15625 C 424.035156 406.160156 420.65625 409.914062 416.226562 413.96875 C 414.046875 415.996094 411.570312 418.175781 409.167969 420.578125 C 406.839844 422.980469 404.511719 425.761719 403.007812 428.988281 C 402.558594 429.816406 402.40625 430.640625 402.03125 431.542969 C 401.808594 432.21875 401.582031 433.042969 401.355469 433.871094 C 402.484375 436.574219 404.8125 444.082031 410.367188 453.621094 C 413.898438 459.703125 418.777344 466.609375 425.3125 473.21875 C 428.539062 476.597656 432.21875 479.753906 436.199219 482.90625 C 440.253906 485.835938 444.609375 488.839844 449.339844 491.242188 C 453.996094 493.792969 458.878906 495.671875 463.683594 497.324219 C 465.035156 497.699219 466.3125 498.074219 467.664062 498.449219 C 466.460938 496.648438 465.335938 494.695312 464.359375 492.667969 C 461.429688 486.433594 459.929688 479.226562 456.175781 473.144531 C 454.222656 470.140625 451.96875 467.4375 449.492188 465.035156 C 446.9375 462.707031 444.308594 460.753906 441.53125 459.175781 C 436.050781 456.023438 430.492188 454.296875 425.761719 453.46875 C 416.226562 451.816406 410.066406 453.542969 409.917969 452.71875 C 409.84375 452.417969 411.269531 451.742188 414.046875 450.992188 C 416.824219 450.316406 421.03125 449.789062 426.210938 450.242188 C 431.320312 450.691406 437.476562 452.269531 443.558594 455.496094 C 446.5625 457.148438 449.640625 459.175781 452.421875 461.730469 C 455.199219 464.28125 457.828125 467.285156 459.929688 470.742188 C 460.90625 472.542969 461.957031 474.269531 462.632812 476.074219 C 463.382812 477.875 464.058594 479.601562 464.660156 481.328125 C 465.261719 482.980469 465.785156 484.632812 466.3125 486.210938 C 466.539062 480.878906 467.4375 473.96875 469.390625 466.609375 C 469.917969 464.582031 470.515625 462.554688 471.117188 460.679688 C 471.792969 458.726562 472.394531 457.148438 472.167969 456.171875 C 472.09375 455.722656 471.945312 455.421875 471.570312 454.972656 C 471.191406 454.519531 470.59375 454.144531 469.992188 453.695312 C 468.714844 452.792969 467.4375 451.890625 466.3125 451.140625 C 461.882812 447.988281 459.253906 445.734375 459.628906 445.210938 C 459.929688 444.683594 463.160156 445.960938 468.039062 448.4375 C 469.242188 449.113281 470.59375 449.789062 472.019531 450.539062 C 472.769531 450.917969 473.597656 451.441406 474.421875 452.191406 C 475.25 452.945312 476.074219 454.144531 476.375 455.496094 C 476.824219 458.199219 475.847656 460.304688 475.398438 462.03125 C 474.871094 463.90625 474.347656 465.785156 473.820312 467.8125 C 471.117188 478.023438 469.765625 487.261719 468.789062 492.441406 C 471.117188 497.625 474.421875 501.527344 478.101562 503.480469 C 482.15625 505.585938 486.136719 505.433594 488.613281 504.757812 C 491.09375 504.007812 492.292969 502.957031 492.59375 503.257812 C 492.820312 503.40625 491.996094 504.984375 489.289062 506.410156 C 486.664062 507.761719 481.933594 508.511719 476.75 506.410156 C 474.648438 505.507812 472.621094 504.082031 470.816406 502.28125 C 469.089844 503.855469 467.0625 505.734375 466.6875 506.183594 C 465.863281 507.011719 465.035156 507.835938 464.359375 508.738281 C 458.351562 515.648438 454.597656 523.230469 452.421875 529.914062 C 450.167969 536.597656 449.566406 542.304688 449.265625 546.210938 C 449.191406 547.1875 449.117188 548.085938 449.117188 548.835938 C 449.117188 549.589844 449.117188 550.265625 449.039062 550.789062 C 448.964844 551.839844 448.890625 552.441406 448.742188 552.441406 C 452.269531 562.28125 457.601562 573.769531 465.035156 585.109375 C 467.363281 588.636719 469.765625 591.941406 472.167969 595.09375 C 473.445312 596.671875 474.648438 598.175781 475.847656 599.675781 C 477.050781 601.328125 478.476562 602.980469 479.902344 604.558594 Z M 320.332031 428.3125 C 321.457031 433.417969 323.484375 438.75 326.261719 444.308594 C 329.042969 449.863281 332.570312 455.496094 336.25 461.578125 C 339.929688 467.660156 343.910156 474.046875 346.988281 481.328125 C 350.144531 488.539062 352.546875 496.421875 353.972656 504.609375 C 355.398438 512.867188 355.851562 521.054688 355.472656 528.863281 C 355.097656 536.746094 353.746094 544.257812 351.945312 551.242188 C 350.066406 558.222656 347.664062 564.683594 344.734375 570.390625 L 344.585938 570.765625 L 344.511719 570.839844 L 344.4375 571.066406 L 344.210938 571.441406 L 343.910156 571.890625 L 343.761719 572.117188 C 343.683594 572.191406 343.609375 572.34375 343.683594 572.265625 C 343.910156 572.191406 344.210938 572.042969 344.4375 571.890625 L 344.886719 571.667969 L 345.113281 571.515625 C 345.261719 571.441406 345.1875 571.515625 345.488281 571.289062 C 354.273438 565.433594 360.429688 559.351562 364.484375 554.996094 C 366.589844 552.742188 368.164062 550.941406 369.214844 549.738281 C 369.214844 548.761719 369.140625 547.785156 369.066406 546.886719 C 368.316406 534.796875 365.988281 527.511719 366.738281 527.285156 C 367.1875 527.136719 370.644531 534.121094 372.296875 546.585938 C 373.121094 552.742188 373.347656 560.253906 372.445312 568.511719 C 371.542969 576.773438 369.441406 585.707031 365.6875 594.570312 C 365.238281 595.695312 364.710938 596.746094 364.261719 597.875 C 363.734375 598.925781 363.210938 599.976562 362.683594 601.027344 L 361.933594 602.605469 L 361.707031 602.980469 L 361.632812 603.128906 L 361.558594 603.28125 L 361.179688 603.882812 C 361.03125 604.179688 361.03125 604.03125 360.957031 604.179688 L 360.804688 604.332031 C 360.804688 604.332031 360.882812 604.332031 360.957031 604.332031 L 361.179688 604.257812 L 361.257812 604.257812 L 361.78125 603.882812 L 362.984375 603.054688 C 364.5625 602.003906 365.988281 600.878906 367.414062 599.828125 C 370.269531 597.648438 372.820312 595.546875 375.074219 593.519531 C 381.15625 588.113281 385.363281 583.605469 387.539062 581.351562 C 387.539062 581.128906 387.613281 580.828125 387.613281 580.601562 C 389.265625 568.4375 389.191406 560.703125 389.941406 560.703125 C 390.46875 560.703125 391.59375 568.363281 390.769531 580.902344 C 390.015625 593.367188 386.9375 610.714844 379.578125 628.4375 C 379.128906 629.5625 378.679688 630.613281 378.226562 631.742188 C 377.703125 632.792969 377.25 633.917969 376.726562 634.96875 C 375.75 637.074219 374.699219 639.175781 373.648438 641.128906 C 373.121094 642.105469 372.597656 643.15625 372.070312 644.054688 C 371.621094 644.882812 371.167969 645.707031 370.71875 646.460938 C 370.644531 646.535156 370.566406 646.683594 370.417969 646.835938 C 370.269531 646.984375 370.417969 646.910156 370.492188 646.910156 C 370.566406 646.910156 370.644531 646.910156 370.71875 646.835938 L 370.867188 646.757812 L 370.945312 646.757812 C 371.019531 646.757812 370.945312 646.757812 371.167969 646.609375 C 371.996094 646.160156 372.746094 645.707031 373.496094 645.257812 C 376.5 643.457031 379.203125 641.503906 381.53125 639.550781 C 390.917969 631.816406 394.898438 625.132812 395.574219 625.507812 C 395.800781 625.660156 395.125 627.460938 393.246094 630.464844 C 391.746094 632.867188 389.492188 635.945312 386.261719 639.324219 C 387.464844 640.902344 389.792969 644.65625 394.074219 648.863281 C 397 651.714844 400.90625 654.71875 405.710938 657.121094 C 408.113281 658.25 410.742188 659.300781 413.523438 660.050781 C 414.796875 660.351562 416.902344 660.800781 416.675781 660.726562 L 416.902344 660.726562 C 416.976562 660.726562 416.902344 660.726562 416.902344 660.726562 L 416.75 660.5 C 415.847656 659.148438 414.949219 657.796875 414.199219 656.445312 C 412.546875 653.742188 411.195312 651.113281 409.992188 648.488281 C 407.515625 643.304688 405.863281 638.347656 404.8125 634.21875 C 402.632812 625.808594 402.632812 620.402344 403.160156 620.328125 C 403.835938 620.175781 404.960938 625.359375 407.890625 633.242188 C 409.316406 637.148438 411.269531 641.804688 413.820312 646.683594 C 414.875 648.636719 416 650.738281 417.203125 652.765625 C 419.378906 653.21875 423.132812 654.269531 428.164062 654.871094 C 432.144531 655.394531 436.875 655.546875 442.132812 655.019531 C 443.410156 654.871094 444.761719 654.71875 446.113281 654.417969 C 446.335938 654.34375 446.1875 654.417969 446.261719 654.34375 C 446.261719 654.34375 446.1875 654.34375 446.1875 654.34375 C 446.1875 654.34375 446.1875 654.34375 446.113281 654.269531 L 445.660156 653.894531 C 444.984375 653.441406 444.386719 652.84375 443.785156 652.316406 C 433.796875 643.757812 428.390625 632.640625 426.363281 624.53125 C 424.335938 616.273438 424.9375 611.015625 425.460938 611.015625 C 426.210938 610.941406 426.664062 616.046875 429.367188 623.632812 C 431.320312 629.039062 434.699219 635.796875 439.953125 642.105469 C 441.304688 642.328125 442.882812 642.554688 444.835938 642.78125 C 447.464844 643.082031 450.691406 643.230469 454.222656 643.003906 C 455.125 642.929688 456.023438 642.855469 456.925781 642.78125 C 457.074219 642.78125 457.074219 642.78125 457.074219 642.78125 L 457.226562 642.78125 C 457.300781 642.78125 457.300781 642.78125 457.300781 642.703125 C 457.375 642.628906 457.375 642.628906 457.226562 642.554688 C 457.152344 642.554688 457.152344 642.554688 457.152344 642.554688 C 457.375 642.78125 456.476562 642.105469 456.023438 641.652344 C 455.421875 641.203125 454.898438 640.675781 454.371094 640.152344 C 452.34375 638.125 450.691406 635.945312 449.191406 633.84375 C 447.6875 631.742188 446.414062 629.636719 445.210938 627.609375 C 442.882812 623.554688 441.082031 619.652344 439.804688 616.347656 C 437.25 609.664062 436.648438 605.308594 437.175781 605.15625 C 437.777344 604.933594 439.503906 608.914062 442.734375 614.996094 C 444.308594 618.074219 446.335938 621.601562 448.816406 625.359375 C 450.015625 627.234375 451.367188 629.1875 452.871094 631.140625 C 454.296875 633.09375 455.875 635.046875 457.601562 636.773438 C 458.050781 637.222656 458.503906 637.671875 458.953125 638.046875 C 459.402344 638.425781 459.554688 638.574219 460.53125 639.25 C 460.90625 637.296875 461.582031 634.371094 462.78125 630.691406 C 463.910156 627.234375 465.5625 623.03125 467.738281 618.523438 C 468.863281 616.273438 470.066406 613.867188 471.492188 611.464844 C 472.167969 610.265625 472.921875 608.988281 473.746094 607.785156 C 474.121094 607.183594 474.574219 606.507812 474.949219 605.910156 L 475.171875 605.535156 L 475.171875 605.382812 L 474.347656 604.558594 C 473.671875 603.804688 472.996094 603.128906 472.320312 602.378906 C 471.042969 600.878906 469.691406 599.300781 468.414062 597.722656 C 465.863281 594.496094 463.308594 591.117188 460.980469 587.4375 C 450.84375 572.117188 445.136719 556.273438 442.507812 544.632812 C 439.804688 532.992188 439.878906 525.484375 440.40625 525.484375 C 441.15625 525.410156 442.207031 532.617188 445.660156 543.808594 C 446.335938 545.984375 447.011719 548.238281 447.914062 550.714844 C 447.765625 550.191406 447.6875 549.515625 447.539062 548.761719 C 447.464844 548.011719 447.386719 547.109375 447.3125 546.058594 C 447.089844 542.003906 447.238281 535.996094 449.117188 528.863281 C 450.917969 521.730469 454.671875 513.542969 460.90625 505.882812 C 461.65625 504.910156 462.480469 504.007812 463.382812 503.105469 C 464.585938 501.828125 464.210938 502.207031 464.359375 502.054688 C 464.433594 501.980469 464.359375 501.980469 464.285156 501.980469 L 464.210938 501.980469 C 464.132812 501.980469 464.285156 501.980469 464.058594 501.980469 L 462.183594 501.453125 C 457.152344 499.800781 452.042969 497.851562 447.089844 495.144531 C 442.058594 492.59375 437.550781 489.4375 433.347656 486.285156 C 429.214844 482.980469 425.386719 479.601562 422.15625 475.996094 C 415.550781 468.863281 410.742188 461.503906 407.4375 455.046875 C 406.6875 453.394531 405.785156 451.890625 405.1875 450.316406 C 404.585938 448.8125 403.984375 447.386719 403.460938 446.035156 C 402.484375 443.332031 401.808594 440.929688 401.28125 438.976562 C 400.980469 437.625 400.753906 436.421875 400.605469 435.445312 C 400.304688 436.199219 399.929688 437.023438 399.402344 437.773438 C 398.652344 438.976562 397.152344 440.101562 395.5 440.476562 C 393.847656 440.855469 392.042969 440.402344 390.769531 439.652344 C 389.492188 438.902344 388.589844 438 387.765625 437.023438 C 386.9375 436.046875 386.261719 435.070312 385.585938 434.171875 C 384.910156 433.269531 384.308594 432.292969 383.632812 431.390625 C 373.421875 416.222656 365.011719 402.03125 358.777344 391.816406 C 352.695312 381.605469 348.867188 375.222656 349.390625 374.847656 C 349.917969 374.472656 354.648438 380.253906 361.480469 390.015625 C 368.390625 399.777344 377.25 413.746094 387.390625 428.765625 C 388.664062 430.566406 389.941406 432.59375 391.144531 434.019531 C 391.746094 434.769531 392.421875 435.371094 393.019531 435.746094 C 393.621094 436.121094 394.148438 436.199219 394.523438 436.121094 C 394.972656 436.046875 395.347656 435.824219 395.722656 435.222656 C 396.101562 434.695312 396.476562 433.871094 396.777344 432.96875 C 397.074219 432.066406 397.300781 431.089844 397.675781 430.039062 C 398.128906 428.988281 398.429688 427.9375 398.953125 427.035156 C 400.90625 423.207031 403.609375 420.203125 406.238281 417.726562 C 408.867188 415.246094 411.492188 413.21875 413.820312 411.34375 C 418.476562 407.664062 421.933594 404.507812 424.035156 401.957031 C 424.558594 401.355469 425.011719 400.753906 425.386719 400.226562 C 425.6875 399.851562 425.910156 399.476562 426.136719 399.101562 C 414.574219 387.460938 404.285156 377.023438 396.023438 368.6875 C 389.492188 362.082031 384.234375 356.75 380.554688 353.070312 C 378.753906 351.265625 377.328125 349.839844 376.351562 348.863281 C 375.375 347.964844 374.847656 347.363281 374.921875 347.289062 C 375 347.136719 375.675781 347.4375 376.875 348.1875 C 377.101562 348.339844 377.25 348.488281 377.476562 348.640625 C 377.175781 348.414062 377.101562 345.636719 376.949219 340.753906 C 376.800781 335.796875 376.726562 328.664062 376.726562 319.878906 C 374.773438 321.003906 371.695312 322.65625 367.714844 324.609375 C 364.109375 326.335938 359.753906 328.363281 354.949219 330.617188 C 352.546875 331.667969 349.992188 332.792969 347.363281 333.996094 C 346.011719 334.597656 344.660156 335.121094 343.308594 335.722656 C 341.957031 336.324219 340.53125 336.851562 339.40625 337.527344 C 338.277344 338.125 337.378906 338.878906 336.925781 339.628906 C 336.476562 340.378906 336.402344 341.203125 336.550781 342.332031 C 336.925781 344.507812 338.429688 347.0625 339.480469 349.464844 C 341.65625 354.269531 343.609375 358.703125 345.1875 362.382812 C 348.265625 369.816406 349.917969 374.472656 349.390625 374.773438 C 348.792969 375.070312 346.164062 370.792969 342.332031 363.808594 C 341.355469 361.929688 340.230469 359.902344 339.027344 357.652344 C 337.753906 359.300781 335.648438 362.003906 333.472656 365.683594 C 329.71875 371.917969 325.960938 381.679688 326.339844 392.792969 C 326.789062 403.832031 331.21875 413.292969 335.425781 419.300781 C 339.628906 425.308594 343.308594 428.3125 342.859375 428.914062 C 342.558594 429.363281 338.128906 427.261719 332.871094 421.253906 C 330.316406 418.324219 327.613281 414.347656 325.585938 409.539062 C 324.3125 406.6875 323.335938 403.457031 322.660156 400.003906 C 322.132812 401.054688 321.609375 402.332031 321.007812 403.832031 C 319.054688 409.390625 318.003906 418.101562 320.332031 428.3125 Z M 405.035156 475.398438 C 408.414062 479.601562 411.570312 485.308594 413.972656 492.066406 C 416.375 498.824219 417.878906 506.710938 419.378906 515.046875 C 420.878906 523.382812 422.308594 531.566406 424.636719 538.773438 C 426.964844 545.984375 430.117188 552.140625 433.648438 556.796875 C 437.101562 561.453125 440.78125 564.457031 443.484375 566.183594 C 446.261719 567.835938 447.988281 568.363281 448.066406 568.0625 C 448.515625 567.386719 442.058594 564.15625 436.199219 554.996094 C 433.269531 550.414062 430.566406 544.480469 428.617188 537.574219 C 426.589844 530.664062 425.3125 522.707031 423.808594 514.292969 C 422.308594 505.882812 420.65625 497.773438 417.878906 490.640625 C 415.097656 483.582031 411.417969 477.648438 407.515625 473.367188 C 403.609375 469.089844 399.554688 466.460938 396.625 465.183594 C 395.125 464.582031 393.996094 464.132812 393.097656 463.980469 C 392.269531 463.832031 391.820312 463.757812 391.746094 463.90625 C 391.667969 464.058594 392.046875 464.359375 392.722656 464.808594 C 393.398438 465.257812 394.449219 465.859375 395.722656 466.6875 C 398.203125 468.414062 401.65625 471.191406 405.035156 475.398438 Z M 388.890625 492.59375 C 389.71875 495.070312 390.617188 497.847656 391.371094 500.851562 C 392.269531 503.855469 393.019531 507.085938 393.847656 510.464844 C 395.347656 517.296875 396.699219 524.808594 397.527344 532.769531 C 398.351562 540.726562 398.578125 548.386719 398.503906 555.371094 C 398.351562 558.824219 398.351562 562.128906 398.050781 565.285156 C 397.902344 568.363281 397.601562 571.214844 397.300781 573.84375 C 396.175781 584.355469 394.898438 590.816406 395.574219 590.964844 C 396.101562 591.117188 398.503906 584.882812 400.457031 574.292969 C 400.90625 571.667969 401.429688 568.738281 401.730469 565.582031 C 402.183594 562.429688 402.332031 559.050781 402.558594 555.519531 C 402.859375 548.386719 402.707031 540.503906 401.882812 532.316406 C 400.980469 524.132812 399.480469 516.398438 397.753906 509.488281 C 396.777344 506.035156 395.875 502.804688 394.824219 499.800781 C 393.847656 496.796875 392.796875 494.019531 391.746094 491.542969 C 387.613281 481.554688 383.933594 475.996094 383.484375 476.222656 C 383.035156 476.449219 385.585938 482.53125 388.890625 492.59375 Z M 414.199219 571.441406 C 414.347656 597.796875 409.691406 618.898438 411.042969 619.199219 C 411.570312 619.351562 413.523438 614.242188 415.324219 605.609375 C 416.226562 601.328125 417.050781 596.148438 417.726562 590.363281 C 418.328125 584.582031 418.703125 578.199219 418.703125 571.441406 C 418.703125 564.683594 418.253906 558.300781 417.578125 552.515625 C 416.902344 546.734375 416.074219 541.554688 415.097656 537.273438 C 413.222656 528.710938 411.269531 523.605469 410.742188 523.757812 C 409.464844 523.980469 414.273438 545.082031 414.199219 571.441406 Z M 423.585938 570.691406 C 424.335938 573.242188 425.535156 576.171875 427.113281 579.324219 C 428.691406 582.480469 430.71875 585.785156 433.195312 589.011719 C 435.675781 592.242188 438.300781 595.09375 440.855469 597.421875 C 443.484375 599.75 445.960938 601.703125 448.214844 603.128906 C 452.644531 605.984375 455.800781 607.035156 456.097656 606.507812 C 456.777344 605.382812 445.960938 598.550781 436.800781 586.234375 C 427.414062 574.070312 423.808594 561.828125 422.457031 562.203125 C 421.855469 562.355469 422.082031 565.660156 423.585938 570.691406 Z M 353.445312 425.535156 C 353.523438 430.414062 354.121094 436.273438 355.175781 442.65625 C 356.226562 449.039062 357.726562 455.871094 359.230469 463.082031 C 360.730469 470.214844 362.082031 477.046875 362.910156 483.28125 C 363.734375 489.515625 364.035156 495.144531 363.960938 499.878906 C 363.808594 509.339844 362.234375 515.121094 362.910156 515.347656 C 363.359375 515.570312 366.136719 509.941406 367.1875 500.101562 C 367.714844 495.222656 367.714844 489.289062 367.113281 482.832031 C 366.511719 476.371094 365.238281 469.390625 363.734375 462.105469 C 362.15625 454.894531 360.582031 448.0625 359.304688 441.90625 C 358.027344 435.671875 357.125 430.117188 356.675781 425.382812 C 355.625 415.921875 356.152344 409.992188 355.472656 409.914062 C 354.875 409.691406 353.222656 415.699219 353.445312 425.535156 Z M 371.621094 440.101562 C 372.445312 449.714844 371.84375 457.675781 373.121094 457.898438 C 373.722656 457.976562 374.699219 456.097656 375.375 452.792969 C 376.125 449.488281 376.574219 444.832031 376.125 439.726562 C 375.75 434.621094 374.546875 430.039062 373.347656 426.960938 C 372.070312 423.808594 370.867188 422.082031 370.269531 422.304688 C 369.066406 422.757812 370.867188 430.492188 371.621094 440.101562 Z M 379.203125 537.875 C 379.355469 557.097656 375.375 572.417969 376.652344 572.71875 C 377.175781 572.867188 378.980469 569.261719 380.628906 562.957031 C 382.28125 556.722656 383.710938 547.785156 383.710938 537.800781 C 383.632812 527.886719 382.132812 518.949219 380.40625 512.644531 C 378.679688 506.410156 376.875 502.730469 376.351562 502.957031 C 375.074219 503.40625 379.277344 518.648438 379.203125 537.875 Z M 339.40625 389.566406 C 340.304688 381.003906 342.933594 374.394531 341.734375 373.71875 C 341.207031 373.421875 339.78125 374.847656 338.351562 377.550781 C 336.851562 380.253906 335.425781 384.308594 334.898438 389.039062 C 334.375 393.695312 334.824219 398.050781 335.648438 400.980469 C 336.476562 403.984375 337.527344 405.636719 338.054688 405.484375 C 339.328125 405.183594 338.351562 398.050781 339.40625 389.566406 Z M 212.421875 363.65625 C 214.449219 361.253906 215.277344 359.453125 214.824219 359.003906 C 213.847656 358.101562 208.292969 363.058594 200.632812 367.789062 C 193.046875 372.59375 186.214844 375.523438 186.589844 376.722656 C 186.738281 377.324219 188.769531 377.324219 191.847656 376.574219 C 194.925781 375.824219 198.980469 374.171875 203.035156 371.617188 C 207.164062 369.066406 210.394531 366.0625 212.421875 363.65625 Z M 156.851562 417.050781 C 160.53125 410.589844 163.761719 407.136719 163.234375 406.609375 C 162.859375 406.160156 158.804688 408.9375 154.148438 415.246094 C 151.820312 418.402344 149.492188 422.378906 147.089844 426.8125 C 144.761719 431.316406 142.433594 436.347656 139.808594 441.453125 C 137.253906 446.5625 134.476562 451.140625 131.621094 455.046875 C 128.691406 458.953125 125.765625 462.105469 122.910156 464.433594 C 117.277344 469.089844 112.699219 470.367188 112.847656 471.117188 C 112.921875 471.417969 114.125 471.417969 116.300781 470.890625 C 118.480469 470.441406 121.484375 469.164062 124.789062 467.0625 C 128.09375 464.882812 131.621094 461.65625 134.925781 457.675781 C 138.230469 453.621094 141.234375 448.8125 143.863281 443.558594 C 146.488281 438.300781 148.742188 433.269531 150.84375 428.765625 C 153.023438 424.257812 154.976562 420.277344 156.851562 417.050781 Z M 95.953125 485.007812 C 95.578125 485.609375 104.4375 491.617188 117.878906 502.429688 C 124.636719 507.835938 132.449219 514.445312 140.78125 522.179688 C 144.988281 526.007812 149.269531 530.214844 153.625 534.570312 C 155.800781 536.746094 157.980469 539.074219 160.15625 541.402344 C 161.207031 542.605469 162.335938 543.730469 163.460938 544.933594 C 164.585938 546.132812 165.714844 547.410156 166.992188 548.613281 C 168.34375 549.8125 169.769531 550.941406 171.496094 551.839844 C 173.222656 552.742188 175.175781 553.191406 176.902344 553.34375 C 180.507812 553.71875 183.585938 553.269531 186.363281 553.644531 C 192.070312 554.246094 197.328125 556.949219 202.210938 559.726562 C 205.363281 561.527344 208.515625 563.332031 211.445312 564.984375 C 211.445312 565.660156 211.597656 566.410156 211.820312 567.3125 C 212.273438 568.886719 213.097656 570.691406 214.375 572.566406 C 215.652344 574.445312 217.378906 576.320312 219.332031 578.199219 C 221.207031 580.152344 223.308594 582.105469 224.960938 584.507812 C 226.613281 586.910156 227.515625 589.6875 227.515625 592.917969 C 227.515625 596.148438 226.691406 599.675781 225.863281 603.503906 C 225.039062 607.335938 224.285156 611.242188 223.386719 615.296875 C 216.777344 647.660156 212.421875 674.09375 213.699219 674.320312 C 214.898438 674.542969 221.28125 648.5625 227.816406 616.195312 C 228.640625 612.140625 229.394531 608.160156 230.144531 604.40625 C 230.894531 600.652344 231.722656 596.746094 231.570312 592.84375 C 231.496094 590.890625 231.195312 588.9375 230.59375 587.136719 C 229.992188 585.332031 229.015625 583.679688 227.964844 582.328125 C 225.863281 579.550781 223.460938 577.597656 221.433594 575.871094 C 217.304688 572.492188 214.601562 569.339844 213.398438 566.710938 C 213.246094 566.410156 213.171875 566.183594 213.097656 565.960938 C 218.730469 569.1875 223.910156 572.117188 228.640625 574.667969 C 240.507812 581.277344 248.917969 585.707031 252.144531 587.058594 C 251.171875 588.335938 250.042969 589.839844 248.917969 591.492188 C 245.238281 596.824219 242.683594 601.402344 243.210938 601.777344 C 243.734375 602.152344 247.113281 598.097656 250.792969 592.765625 C 254.472656 587.4375 257.027344 582.855469 256.5 582.480469 C 256.203125 582.253906 254.625 583.832031 252.597656 586.460938 C 249.894531 584.355469 241.859375 579.101562 230.21875 571.890625 C 222.859375 567.3125 214.074219 561.980469 204.238281 556.046875 C 199.28125 553.191406 193.648438 550.039062 186.816406 549.214844 C 183.359375 548.761719 180.132812 549.214844 177.277344 548.835938 C 175.851562 548.6875 174.574219 548.386719 173.375 547.785156 C 172.171875 547.1875 171.046875 546.285156 169.917969 545.308594 C 167.742188 543.207031 165.488281 540.652344 163.3125 538.324219 C 161.058594 535.996094 158.878906 533.667969 156.628906 531.492188 C 152.195312 527.0625 147.765625 522.929688 143.488281 519.101562 C 134.851562 511.441406 126.742188 505.058594 119.683594 499.878906 C 112.625 494.769531 106.765625 490.941406 102.5625 488.460938 C 98.503906 485.984375 96.101562 484.785156 95.953125 485.007812 Z M 497.324219 585.859375 C 495.074219 601.101562 490.34375 612.816406 491.617188 613.417969 C 492.144531 613.644531 494.023438 611.015625 496.199219 606.210938 C 498.378906 601.402344 500.628906 594.496094 501.832031 586.535156 C 503.03125 578.574219 502.957031 571.289062 502.355469 566.109375 C 501.757812 560.929688 500.703125 557.773438 500.105469 557.847656 C 498.753906 558 499.730469 570.613281 497.324219 585.859375 Z M 527.511719 525.484375 C 530.515625 535.394531 532.621094 543.65625 533.894531 543.507812 C 535.097656 543.355469 534.949219 534.496094 531.867188 524.207031 C 528.789062 513.84375 524.058594 506.410156 523.007812 506.9375 C 521.804688 507.460938 524.507812 515.496094 527.511719 525.484375 Z M 508.589844 444.082031 C 508.515625 444.757812 510.015625 445.433594 512.195312 446.636719 C 514.371094 447.835938 517.148438 449.714844 519.703125 452.34375 C 522.179688 455.046875 523.910156 457.898438 524.960938 460.152344 C 526.011719 462.40625 526.613281 463.984375 527.289062 463.90625 C 527.890625 463.90625 528.414062 462.105469 528.039062 459.25 C 527.890625 457.824219 527.363281 456.171875 526.535156 454.371094 C 525.710938 452.644531 524.507812 450.839844 523.007812 449.1875 C 521.503906 447.613281 519.777344 446.335938 518.050781 445.359375 C 516.324219 444.457031 514.746094 443.859375 513.320312 443.558594 C 510.46875 443.03125 508.664062 443.480469 508.589844 444.082031 Z M 629.714844 394.296875 C 624.683594 396.324219 620.929688 398.953125 621.453125 400.152344 C 621.980469 401.355469 626.410156 400.605469 631.441406 398.5 C 636.472656 396.472656 640.226562 393.84375 639.703125 392.644531 C 639.175781 391.441406 634.746094 392.269531 629.714844 394.296875 Z M 706.386719 393.320312 C 711.042969 392.117188 714.945312 389.941406 717.273438 387.839844 C 719.675781 385.808594 720.652344 384.007812 720.203125 383.632812 C 719.300781 382.65625 713.519531 386.9375 705.257812 388.890625 C 697 390.992188 689.941406 389.941406 689.566406 391.21875 C 689.414062 391.816406 691.066406 392.871094 694.144531 393.546875 C 697.222656 394.371094 701.730469 394.519531 706.386719 393.320312 Z M 714.871094 371.691406 C 716.671875 369.441406 717.273438 367.789062 716.824219 367.335938 C 715.847656 366.511719 710.964844 370.941406 704.132812 374.847656 C 697.300781 378.828125 690.992188 380.703125 691.214844 381.980469 C 691.292969 382.582031 693.09375 382.882812 695.949219 382.507812 C 698.726562 382.128906 702.554688 380.929688 706.386719 378.75 C 710.140625 376.648438 713.070312 373.945312 714.871094 371.691406 Z M 762.707031 277.300781 C 763.15625 279.027344 764.582031 281.054688 766.535156 282.632812 C 768.488281 284.210938 770.515625 285.035156 772.09375 285.410156 C 773.59375 285.785156 774.71875 285.710938 775.019531 285.183594 C 775.621094 284.058594 772.617188 281.582031 769.386719 279.101562 C 767.8125 277.828125 766.535156 276.699219 765.558594 275.722656 C 764.582031 274.824219 763.832031 274.148438 763.230469 274.296875 C 762.554688 274.445312 762.253906 275.574219 762.707031 277.300781 Z M 703.757812 340.003906 C 704.132812 341.429688 705.109375 343.308594 706.609375 344.960938 C 708.113281 346.613281 709.914062 347.738281 711.265625 348.1875 C 712.691406 348.714844 713.746094 348.640625 714.042969 348.039062 C 714.644531 346.910156 712.394531 344.585938 709.914062 341.804688 C 707.363281 339.101562 705.257812 336.699219 704.058594 337.148438 C 703.605469 337.527344 703.382812 338.578125 703.757812 340.003906 Z M 711.867188 338.125 C 714.421875 341.65625 717.347656 343.984375 718.324219 343.234375 C 719.375 342.480469 718.101562 339.027344 715.546875 335.496094 C 712.992188 331.96875 710.066406 329.640625 709.089844 330.390625 C 708.039062 331.066406 709.3125 334.597656 711.867188 338.125 Z M 101.132812 247.714844 C 103.3125 251.84375 105.941406 254.699219 107.066406 254.097656 C 108.191406 253.496094 107.292969 249.742188 105.113281 245.609375 C 102.9375 241.480469 100.308594 238.628906 99.179688 239.226562 C 98.054688 239.828125 98.957031 243.660156 101.132812 247.714844 Z M 92.574219 171.871094 C 91.820312 166.914062 89.945312 160.230469 86.492188 153.398438 C 83.035156 146.5625 78.757812 141.007812 75.300781 137.476562 C 71.773438 133.949219 69.144531 132.296875 68.769531 132.671875 C 67.792969 133.648438 76.050781 142.359375 82.511719 155.425781 C 89.117188 168.339844 91.222656 180.203125 92.496094 180.054688 C 93.023438 179.90625 93.324219 176.824219 92.574219 171.871094 Z M 67.640625 161.808594 C 57.355469 149.941406 46.464844 143.109375 45.789062 144.085938 C 44.964844 145.136719 54.277344 153.320312 64.261719 164.8125 C 74.25 176.226562 81.160156 186.511719 82.359375 185.914062 C 83.335938 185.3125 78.003906 173.671875 67.640625 161.808594 Z M 40.609375 155.425781 C 39.707031 156.25 45.339844 164.058594 53.148438 172.847656 C 61.035156 181.632812 68.167969 188.089844 69.070312 187.1875 C 69.96875 186.363281 64.339844 178.554688 56.527344 169.765625 C 48.644531 160.980469 41.507812 154.597656 40.609375 155.425781 Z M 32.722656 188.089844 C 34.902344 188.238281 37.980469 188.539062 41.734375 189.367188 C 45.488281 190.191406 50.070312 191.621094 54.652344 194.472656 C 59.230469 197.328125 63.210938 201.832031 66.441406 206.714844 C 69.746094 211.59375 72.375 216.476562 75.152344 220.453125 C 77.855469 224.511719 80.707031 227.738281 83.488281 230.140625 C 87.167969 233.371094 90.546875 234.722656 92.347656 235.472656 C 92.949219 234.496094 93.699219 233.671875 94.375 233.070312 C 95.652344 231.871094 96.777344 230.96875 97.980469 229.917969 C 100.382812 227.890625 102.785156 225.785156 105.1875 223.757812 C 109.242188 220.230469 113.300781 216.777344 117.355469 213.320312 C 116.976562 212.796875 116.527344 212.121094 116.003906 211.21875 C 114.726562 208.890625 113.300781 205.210938 112.773438 200.40625 C 112.171875 195.597656 112.472656 189.816406 114.125 183.660156 C 115.777344 177.5 118.628906 171.195312 122.160156 164.960938 C 123.585938 162.484375 125.765625 158.878906 126.363281 158.050781 C 126.363281 158.050781 126.289062 158.050781 126.289062 158.050781 C 126.214844 158.050781 126.289062 158.050781 126.066406 158.128906 L 125.238281 158.351562 C 124.714844 158.503906 124.1875 158.726562 123.660156 158.953125 C 121.558594 159.929688 119.757812 161.355469 118.105469 162.859375 C 114.949219 165.9375 112.621094 169.542969 110.296875 172.320312 C 108.042969 175.097656 105.789062 177.125 104.0625 178.101562 C 102.335938 179.152344 101.207031 179.378906 101.132812 179.152344 C 100.984375 178.929688 101.808594 178.253906 103.085938 176.902344 C 104.4375 175.550781 106.089844 173.523438 107.96875 170.59375 C 108.945312 169.089844 109.917969 167.515625 111.046875 165.710938 C 112.171875 163.984375 113.523438 161.957031 115.25 160.15625 C 116.976562 158.277344 119.082031 156.476562 121.710938 155.125 C 122.386719 154.75 123.0625 154.523438 123.8125 154.222656 L 124.9375 153.921875 C 125.390625 153.847656 126.140625 153.695312 126.664062 153.621094 C 129.21875 153.320312 131.472656 153.847656 133.875 154.222656 C 129.144531 161.957031 128.167969 163.460938 125.988281 167.289062 C 122.535156 173.296875 119.757812 179.230469 118.03125 184.859375 C 116.300781 190.492188 115.703125 195.75 115.851562 200.179688 C 116.003906 206.1875 117.429688 210.390625 118.179688 212.644531 C 133.722656 231.570312 148.441406 249.515625 161.808594 265.734375 C 174.648438 281.507812 186.140625 295.699219 195.75 307.5625 C 200.558594 313.496094 204.761719 319.128906 207.765625 324.460938 C 210.769531 329.789062 212.570312 334.898438 213.398438 339.175781 C 214.222656 343.457031 214.148438 346.835938 213.921875 349.089844 C 213.773438 350.367188 213.546875 351.265625 213.398438 351.792969 C 214.523438 351.34375 215.652344 350.890625 216.777344 350.441406 C 217.902344 349.992188 219.179688 349.464844 220.683594 349.089844 C 222.109375 348.714844 223.910156 348.5625 225.636719 349.238281 C 227.367188 349.839844 228.71875 351.117188 229.542969 352.320312 C 231.269531 354.796875 231.871094 357.273438 232.921875 359.226562 C 234.800781 363.28125 237.804688 366.660156 241.03125 369.742188 C 247.566406 375.824219 255.074219 380.628906 261.007812 386.710938 C 267.015625 392.792969 270.996094 399.402344 275.199219 404.808594 C 279.328125 410.289062 283.683594 414.644531 288.265625 417.425781 C 292.847656 420.203125 297.425781 421.105469 301.183594 420.953125 C 304.9375 420.878906 307.714844 419.753906 309.515625 418.851562 C 311.246094 417.875 312.070312 417.199219 312.222656 417.351562 C 312.296875 417.425781 311.695312 418.402344 309.96875 419.675781 C 308.242188 420.953125 305.386719 422.382812 301.332031 422.832031 C 297.351562 423.28125 292.097656 422.53125 287.066406 419.753906 C 281.957031 417.050781 277.152344 412.46875 272.722656 406.988281 C 268.214844 401.503906 264.085938 395.121094 258.378906 389.566406 C 252.671875 384.007812 245.238281 379.351562 238.179688 373.042969 C 234.726562 369.816406 231.269531 366.0625 229.015625 361.332031 C 227.816406 359.003906 227.140625 356.675781 225.9375 355.097656 C 224.738281 353.519531 223.6875 353.144531 221.660156 353.671875 C 220.683594 353.894531 219.632812 354.347656 218.429688 354.796875 C 217.226562 355.246094 216.101562 355.773438 214.898438 356.222656 C 212.570312 357.199219 210.167969 358.175781 207.839844 359.152344 C 203.109375 361.179688 198.453125 363.359375 193.875 365.835938 C 184.710938 370.792969 176.902344 377.324219 170.519531 384.757812 C 164.0625 392.195312 158.804688 400.226562 154 408.039062 C 149.195312 415.847656 144.761719 423.433594 140.257812 430.339844 C 135.828125 437.25 131.171875 443.480469 126.589844 448.8125 C 117.355469 459.476562 108.417969 466.6875 102.035156 471.191406 C 95.652344 475.773438 91.746094 477.648438 91.597656 477.425781 C 91.371094 477.125 94.976562 474.722656 100.984375 469.765625 C 106.992188 464.882812 115.402344 457.375 124.113281 446.710938 C 128.46875 441.378906 132.824219 435.222656 137.101562 428.238281 C 141.382812 421.328125 145.664062 413.746094 150.46875 405.785156 C 155.277344 397.902344 160.53125 389.566406 167.214844 381.832031 C 169.695312 378.902344 172.398438 376.125 175.324219 373.496094 C 175.175781 373.421875 175.101562 373.34375 174.949219 373.269531 C 172.847656 372.144531 169.46875 370.867188 165.039062 369.363281 C 162.859375 368.539062 160.308594 367.636719 157.753906 366.0625 C 156.476562 365.308594 155.199219 364.332031 154.074219 363.132812 C 152.949219 361.929688 151.898438 360.503906 151.144531 358.925781 C 149.570312 355.773438 148.742188 352.242188 147.390625 348.863281 C 146.039062 345.410156 144.386719 341.882812 142.433594 338.203125 C 134.398438 323.632812 124.789062 306.210938 114.125 286.914062 C 108.792969 277.226562 103.238281 267.089844 97.453125 256.574219 C 96.027344 253.871094 94.601562 251.394531 93.097656 248.539062 C 92.347656 247.113281 91.671875 245.535156 91.296875 243.808594 C 90.847656 242.082031 90.695312 240.054688 91.296875 238.101562 C 91.445312 237.652344 91.597656 237.199219 91.746094 236.824219 C 91.296875 236.824219 90.769531 236.75 90.171875 236.675781 C 87.992188 236.300781 84.839844 235.171875 81.535156 232.921875 C 78.230469 230.667969 74.851562 227.289062 71.773438 223.160156 C 68.695312 219.027344 65.914062 214.222656 62.761719 209.492188 C 59.605469 204.835938 56.152344 200.855469 52.324219 198.152344 C 48.492188 195.449219 44.4375 193.871094 40.910156 192.671875 C 33.851562 190.417969 29.195312 189.292969 29.34375 188.539062 C 29.417969 188.089844 30.621094 188.015625 32.722656 188.089844 Z M 97.078125 246.4375 C 98.355469 248.992188 99.933594 251.769531 101.359375 254.398438 C 107.066406 264.984375 112.546875 275.199219 117.730469 284.886719 C 128.09375 304.335938 137.554688 321.753906 145.214844 336.699219 C 147.089844 340.453125 148.667969 344.207031 150.019531 347.8125 C 151.371094 351.417969 152.046875 354.945312 153.398438 357.800781 C 154.601562 360.652344 156.703125 362.683594 158.957031 364.183594 C 161.207031 365.683594 163.535156 366.738281 165.714844 367.636719 C 169.996094 369.441406 173.375 370.941406 175.476562 372.367188 C 175.703125 372.519531 175.851562 372.667969 176 372.742188 C 180.734375 368.539062 186.0625 364.785156 191.769531 361.707031 C 196.503906 359.078125 201.382812 356.824219 206.1875 354.796875 C 208.515625 353.820312 210.84375 352.84375 213.171875 351.941406 C 213.171875 350.589844 213.625 346.160156 211.894531 339.554688 C 210.84375 335.496094 208.96875 330.765625 205.8125 325.734375 C 202.734375 320.628906 198.453125 315.371094 193.5 309.515625 C 183.660156 297.800781 171.945312 283.910156 158.804688 268.363281 C 146.265625 253.269531 132.371094 236.601562 117.730469 219.027344 C 114.574219 221.730469 111.421875 224.433594 108.191406 227.214844 C 105.789062 229.316406 103.386719 231.34375 100.984375 233.371094 C 99.78125 234.421875 98.503906 235.472656 97.527344 236.375 C 96.554688 237.351562 95.878906 238.253906 95.578125 239.226562 C 94.976562 241.179688 95.800781 243.882812 97.078125 246.4375 Z M 174.351562 360.652344 C 173.972656 365.160156 174.199219 368.839844 174.800781 368.914062 C 175.402344 368.988281 176.226562 365.386719 176.601562 360.804688 C 176.976562 356.296875 176.753906 352.621094 176.152344 352.542969 C 175.476562 352.542969 174.726562 356.148438 174.351562 360.652344 Z M 180.882812 353.820312 C 180.734375 358.328125 181.183594 362.003906 181.785156 362.003906 C 182.382812 362.003906 182.984375 358.402344 183.136719 353.894531 C 183.285156 349.390625 182.835938 345.710938 182.234375 345.710938 C 181.632812 345.636719 181.03125 349.316406 180.882812 353.820312 Z M 188.84375 342.179688 C 188.691406 347.363281 189.144531 351.566406 189.742188 351.566406 C 190.34375 351.566406 190.945312 347.363281 191.09375 342.179688 C 191.246094 337 190.796875 332.792969 190.195312 332.792969 C 189.519531 332.792969 188.917969 337 188.84375 342.179688 Z M 198.003906 337.675781 C 198.980469 344.660156 200.257812 350.214844 200.933594 350.140625 C 201.535156 350.066406 201.234375 344.359375 200.257812 337.375 C 199.28125 330.390625 198.003906 324.835938 197.328125 324.910156 C 196.726562 324.984375 197.027344 330.691406 198.003906 337.675781 Z M 205.890625 340.230469 C 206.714844 343.609375 207.839844 346.3125 208.441406 346.160156 C 209.042969 346.011719 208.894531 343.15625 208.066406 339.703125 C 207.242188 336.324219 206.113281 333.621094 205.511719 333.769531 C 204.914062 333.921875 205.136719 336.773438 205.890625 340.230469 Z M 347.738281 346.011719 C 348.414062 340.378906 348.492188 335.796875 347.816406 335.722656 C 347.214844 335.648438 346.164062 340.152344 345.488281 345.710938 C 344.8125 351.34375 344.734375 355.921875 345.410156 356 C 346.011719 356.148438 347.0625 351.644531 347.738281 346.011719 Z M 352.996094 349.765625 C 351.644531 359.226562 352.320312 366.960938 352.921875 366.886719 C 353.597656 366.886719 353.898438 359.300781 355.25 350.066406 C 356.527344 340.828125 358.402344 333.46875 357.726562 333.246094 C 357.125 333.09375 354.273438 340.304688 352.996094 349.765625 Z M 360.128906 353.972656 C 358.476562 366.285156 358.855469 376.347656 359.453125 376.347656 C 360.128906 376.347656 360.730469 366.4375 362.382812 354.269531 C 363.960938 342.105469 365.988281 332.34375 365.386719 332.195312 C 364.785156 332.042969 361.707031 341.65625 360.128906 353.972656 Z M 369.066406 365.308594 C 368.089844 376.273438 367.863281 385.132812 368.464844 385.210938 C 369.066406 385.285156 370.34375 376.421875 371.320312 365.535156 C 372.296875 354.570312 372.519531 345.710938 371.921875 345.636719 C 371.320312 345.558594 370.042969 354.421875 369.066406 365.308594 Z M 379.054688 384.609375 C 378.453125 397.601562 379.878906 408.039062 380.480469 407.964844 C 381.15625 407.886719 380.707031 397.523438 381.308594 384.683594 C 381.832031 371.917969 383.183594 361.554688 382.507812 361.480469 C 381.90625 361.40625 379.578125 371.691406 379.054688 384.609375 Z M 388.289062 402.03125 C 387.839844 416.824219 389.042969 428.839844 389.640625 428.765625 C 390.316406 428.765625 390.167969 416.75 390.542969 402.03125 C 390.917969 387.3125 391.746094 375.371094 391.070312 375.296875 C 390.46875 375.296875 388.664062 387.160156 388.289062 402.03125 Z M 400.753906 396.847656 C 400.679688 404.882812 401.054688 411.417969 401.730469 411.492188 C 402.332031 411.492188 402.933594 404.960938 403.082031 396.925781 C 403.234375 388.890625 402.785156 382.355469 402.109375 382.28125 C 401.433594 382.28125 400.832031 388.738281 400.753906 396.847656 Z M 409.542969 399.101562 C 409.84375 403.984375 410.519531 407.960938 411.195312 407.960938 C 411.792969 407.960938 412.09375 403.90625 411.792969 399.027344 C 411.496094 394.144531 410.816406 390.164062 410.140625 390.164062 C 409.542969 390.242188 409.316406 394.222656 409.542969 399.101562 Z M 383.859375 289.539062 C 384.535156 286.535156 384.609375 283.984375 384.011719 283.832031 C 383.410156 283.683594 382.359375 286.011719 381.683594 289.015625 C 381.007812 292.019531 380.929688 294.570312 381.53125 294.722656 C 382.132812 294.871094 383.183594 292.542969 383.859375 289.539062 Z M 384.835938 294.046875 C 383.183594 298.25 382.28125 301.855469 382.882812 302.082031 C 383.484375 302.308594 385.285156 299.078125 386.9375 294.871094 C 388.589844 290.667969 389.492188 287.0625 388.890625 286.835938 C 388.367188 286.535156 386.5625 289.839844 384.835938 294.046875 Z M 388.964844 300.65625 C 388.367188 300.429688 386.789062 302.984375 385.4375 306.4375 C 384.085938 309.890625 383.410156 312.820312 384.011719 313.046875 C 384.609375 313.269531 386.1875 310.71875 387.539062 307.261719 C 388.890625 303.882812 389.566406 300.878906 388.964844 300.65625 Z M 456.550781 406.3125 C 457.976562 401.65625 458.726562 397.75 458.128906 397.523438 C 457.527344 397.375 455.875 400.980469 454.371094 405.636719 C 452.945312 410.289062 452.195312 414.195312 452.796875 414.421875 C 453.394531 414.644531 455.046875 410.964844 456.550781 406.3125 Z M 417.878906 357.351562 C 417.578125 356 417.425781 353.972656 418.027344 352.019531 C 418.628906 350.066406 419.90625 348.5625 420.957031 347.589844 C 422.007812 346.613281 422.832031 346.160156 422.757812 345.859375 C 422.683594 345.558594 421.632812 345.484375 420.054688 346.3125 C 418.554688 347.0625 416.675781 348.789062 415.851562 351.34375 C 415.023438 353.972656 415.550781 356.449219 416.375 357.949219 C 417.203125 359.453125 418.101562 360.054688 418.328125 359.828125 C 418.628906 359.601562 418.175781 358.703125 417.878906 357.351562 Z M 533.597656 434.171875 C 534.796875 428.839844 535.324219 424.410156 534.722656 424.257812 C 534.121094 424.109375 532.621094 428.3125 531.417969 433.644531 C 530.214844 438.976562 529.691406 443.40625 530.292969 443.558594 C 530.890625 443.707031 532.394531 439.503906 533.597656 434.171875 Z M 535.699219 450.464844 C 536.300781 450.539062 537.5 446.5625 538.328125 441.53125 C 539.152344 436.5 539.304688 432.292969 538.703125 432.21875 C 538.101562 432.144531 536.898438 436.121094 536.074219 441.152344 C 535.246094 446.183594 535.097656 450.390625 535.699219 450.464844 Z M 541.332031 448.589844 C 540.355469 454.972656 540.128906 460.304688 540.730469 460.378906 C 541.332031 460.453125 542.605469 455.347656 543.582031 448.890625 C 544.558594 442.503906 544.785156 437.175781 544.183594 437.097656 C 543.582031 437.097656 542.304688 442.207031 541.332031 448.589844 Z M 547.714844 452.269531 C 547.039062 456.625 546.960938 460.226562 547.5625 460.378906 C 548.164062 460.453125 549.214844 457 549.964844 452.644531 C 550.640625 448.289062 550.71875 444.683594 550.117188 444.535156 C 549.441406 444.457031 548.390625 447.914062 547.714844 452.269531 Z M 745.734375 293.820312 C 750.992188 288.039062 754.371094 282.707031 753.917969 282.332031 C 753.394531 281.957031 749.1875 286.613281 744.082031 292.320312 C 738.976562 298.027344 734.769531 302.683594 735.144531 303.132812 C 735.597656 303.582031 740.554688 299.601562 745.734375 293.820312 Z M 747.835938 294.949219 C 744.683594 298.777344 742.503906 302.15625 743.03125 302.605469 C 743.480469 302.984375 746.484375 300.203125 749.640625 296.449219 C 752.792969 292.621094 754.96875 289.242188 754.445312 288.789062 C 753.996094 288.339844 750.992188 291.117188 747.835938 294.949219 Z M 747.085938 304.710938 C 747.535156 305.160156 750.015625 303.433594 752.644531 300.878906 C 755.269531 298.328125 757 295.847656 756.546875 295.398438 C 756.097656 294.949219 753.617188 296.675781 750.992188 299.226562 C 748.4375 301.78125 746.636719 304.257812 747.085938 304.710938 Z M 237.878906 591.339844 C 240.207031 587.136719 241.632812 583.457031 241.109375 583.15625 C 240.582031 582.855469 238.253906 586.007812 235.925781 590.289062 C 233.597656 594.496094 232.171875 598.175781 232.695312 598.472656 C 233.222656 598.773438 235.550781 595.546875 237.878906 591.339844 Z M 235.023438 606.960938 C 231.871094 611.242188 229.769531 614.917969 230.292969 615.296875 C 230.820312 615.671875 233.75 612.515625 236.902344 608.3125 C 240.054688 604.03125 242.160156 600.351562 241.632812 599.976562 C 241.109375 599.601562 238.179688 602.753906 235.023438 606.960938 Z M 232.921875 620.851562 C 228.117188 626.859375 224.664062 632.042969 225.1875 632.417969 C 225.714844 632.792969 229.917969 628.210938 234.726562 622.203125 C 239.53125 616.195312 242.984375 611.015625 242.460938 610.640625 C 241.933594 610.339844 237.652344 614.84375 232.921875 620.851562 Z M 254.25 599.675781 C 251.394531 603.207031 249.441406 606.433594 249.96875 606.808594 C 250.417969 607.183594 253.199219 604.632812 256.050781 601.101562 C 258.90625 597.574219 260.855469 594.34375 260.332031 593.96875 C 259.804688 593.59375 257.101562 596.148438 254.25 599.675781 Z M 477.726562 529.6875 C 482.007812 521.128906 485.460938 514.21875 484.933594 513.84375 C 484.410156 513.542969 480.054688 520.003906 475.699219 528.636719 C 471.34375 537.273438 468.789062 544.632812 469.390625 544.859375 C 469.992188 545.160156 473.445312 538.25 477.726562 529.6875 Z M 479.753906 535.546875 C 476.074219 542.078125 473.519531 547.636719 474.046875 547.9375 C 474.574219 548.238281 478.027344 543.207031 481.707031 536.597656 C 485.386719 530.066406 487.9375 524.507812 487.414062 524.207031 C 486.886719 523.980469 483.507812 529.011719 479.753906 535.546875 Z M 479.828125 549.589844 C 477.199219 553.269531 475.546875 556.574219 476.074219 556.949219 C 476.601562 557.324219 479.078125 554.621094 481.707031 550.941406 C 484.335938 547.261719 485.988281 543.957031 485.460938 543.582031 C 484.933594 543.207031 482.382812 545.910156 479.828125 549.589844 Z M 480.65625 564.90625 C 478.101562 569.1875 476.449219 572.867188 476.976562 573.167969 C 477.5 573.46875 480.054688 570.316406 482.609375 566.035156 C 485.160156 561.753906 486.8125 558.074219 486.285156 557.773438 C 485.6875 557.472656 483.207031 560.628906 480.65625 564.90625 Z M 464.210938 563.855469 C 461.429688 568.4375 459.179688 572.265625 459.703125 572.640625 C 460.230469 573.019531 463.308594 569.714844 466.160156 564.984375 C 469.015625 560.253906 470.515625 556.046875 469.992188 555.746094 C 469.390625 555.519531 467.0625 559.277344 464.210938 563.855469 Z M 466.085938 572.640625 C 464.734375 575.121094 464.058594 577.375 464.585938 577.671875 C 465.109375 577.972656 466.6875 576.246094 468.039062 573.769531 C 469.390625 571.289062 470.066406 569.039062 469.542969 568.738281 C 469.015625 568.4375 467.4375 570.164062 466.085938 572.640625 Z M 538.777344 580.078125 C 536.300781 585.558594 534.722656 590.289062 535.324219 590.515625 C 535.921875 590.738281 538.402344 586.535156 540.878906 580.976562 C 543.359375 575.496094 544.933594 570.765625 544.335938 570.539062 C 543.734375 570.238281 541.253906 574.519531 538.777344 580.078125 Z M 532.84375 568.960938 C 531.492188 571.589844 530.816406 573.917969 531.34375 574.21875 C 531.867188 574.519531 533.445312 572.640625 534.796875 570.015625 C 536.148438 567.386719 536.824219 565.058594 536.300781 564.757812 C 535.773438 564.457031 534.195312 566.335938 532.84375 568.960938 Z M 280.230469 432.144531 C 285.9375 428.3125 290.367188 424.785156 289.992188 424.257812 C 289.617188 423.734375 284.738281 426.4375 278.953125 430.265625 C 273.246094 434.09375 268.816406 437.625 269.191406 438.148438 C 269.566406 438.601562 274.523438 435.972656 280.230469 432.144531 Z M 266.1875 450.917969 C 266.5625 451.441406 271.296875 448.738281 276.703125 444.910156 C 282.183594 441.078125 286.3125 437.550781 285.9375 437.023438 C 285.5625 436.5 280.832031 439.203125 275.425781 443.03125 C 269.945312 446.859375 265.8125 450.390625 266.1875 450.917969 Z M 289.46875 444.910156 C 295.101562 440.253906 299.304688 436.121094 298.855469 435.597656 C 298.480469 435.148438 293.597656 438.449219 287.964844 443.105469 C 282.332031 447.761719 278.128906 451.890625 278.578125 452.417969 C 279.03125 452.945312 283.835938 449.566406 289.46875 444.910156 Z M 277.601562 463.832031 C 277.976562 464.28125 281.734375 461.804688 286.011719 458.273438 C 290.21875 454.746094 293.371094 451.441406 292.921875 450.992188 C 292.546875 450.539062 288.792969 453.019531 284.511719 456.546875 C 280.304688 460.078125 277.152344 463.304688 277.601562 463.832031 Z M 277.601562 463.832031 " fill-opacity="1" fill-rule="nonzero"/></g></svg>