<svg xmlns="http://www.w3.org/2000/svg" xmlns:xlink="http://www.w3.org/1999/xlink" width="1080" zoomAndPan="magnify" viewBox="0 0 810 809.999993" height="1080" preserveAspectRatio="xMidYMid meet" version="1.0"><defs><clipPath id="a95f5044c2"><path d="M 243.246094 123 L 566 123 L 566 713.4375 L 243.246094 713.4375 Z M 243.246094 123 " clip-rule="nonzero"/></clipPath></defs><g clip-path="url(#a95f5044c2)"><path fill="#e4e4e7" d="M 532.132812 286.960938 C 533.582031 282.910156 535.320312 278.859375 537.199219 275.09375 C 540.960938 267.425781 545.449219 260.042969 549.210938 252.375 C 553.121094 244.269531 554.421875 236.019531 555.433594 227.191406 C 556.738281 215.902344 559.921875 205.773438 565.710938 196.074219 C 566.433594 194.773438 564.550781 193.324219 563.539062 194.484375 C 561.367188 196.945312 559.199219 199.40625 556.59375 200.851562 C 558.910156 196.800781 559.921875 192.023438 559.34375 187.246094 C 559.199219 185.511719 556.59375 184.207031 555.578125 186.234375 C 554.710938 188.117188 553.699219 189.5625 552.539062 191.011719 C 552.539062 190.140625 552.539062 189.273438 552.105469 188.261719 C 551.09375 185.078125 548.199219 183.195312 545.59375 181.3125 C 541.109375 178.273438 538.503906 174.800781 535.464844 170.316406 C 526.199219 156.277344 511.003906 148.894531 494.507812 152.804688 C 494.363281 151.789062 494.363281 150.921875 494.21875 149.910156 C 494.21875 149.039062 493.492188 148.460938 492.625 148.316406 C 488.285156 148.027344 484.230469 148.316406 480.179688 149.183594 C 480.324219 147.59375 480.324219 146 480.613281 144.410156 C 480.757812 143.394531 480.324219 142.527344 479.308594 142.09375 C 472.363281 139.632812 466.429688 143.105469 459.628906 144.410156 C 451.957031 145.855469 445.878906 141.371094 440.378906 136.59375 C 431.117188 128.488281 421.710938 121.6875 408.828125 124.726562 C 397.6875 127.332031 388.425781 136.59375 386.976562 148.027344 C 385.382812 159.894531 391.464844 172.050781 401.59375 178.273438 C 406.515625 181.3125 412.160156 182.472656 417.949219 182.761719 C 417.367188 187.972656 416.210938 193.617188 414.039062 198.390625 C 412.015625 202.878906 408.683594 206.351562 406.371094 210.691406 C 406.226562 210.980469 406.226562 211.128906 406.082031 211.417969 C 405.066406 210.402344 403.910156 209.535156 403.039062 208.667969 C 401.015625 206.929688 399.132812 205.191406 397.253906 203.3125 C 395.371094 201.429688 393.632812 199.550781 391.609375 197.8125 C 389.4375 195.929688 387.265625 194.050781 385.09375 192.167969 C 383.9375 191.15625 382.492188 192.457031 383.070312 193.617188 C 380.320312 192.890625 377.28125 192.457031 374.675781 191.878906 C 374.53125 191.878906 374.386719 191.878906 374.242188 191.734375 C 374.242188 191.15625 374.097656 190.722656 373.953125 190.140625 C 373.808594 189.128906 373.226562 188.261719 372.792969 187.390625 C 371.78125 185.800781 370.476562 184.351562 368.742188 183.628906 C 366.425781 182.472656 363.820312 182.617188 361.503906 183.628906 C 361.503906 183.195312 361.503906 182.761719 361.359375 182.328125 C 361.070312 180.589844 360.203125 179 358.898438 177.839844 C 357.597656 176.683594 356.003906 175.960938 354.125 175.8125 C 352.53125 175.8125 350.796875 176.394531 349.636719 177.40625 C 348.769531 177.984375 348.191406 178.855469 347.613281 179.722656 C 347.46875 179.578125 347.324219 179.289062 347.175781 179.144531 C 345.875 177.984375 344.285156 177.117188 342.546875 176.828125 C 340.808594 176.539062 339.074219 176.828125 337.480469 177.695312 C 337.046875 177.984375 336.757812 178.273438 336.324219 178.5625 C 334.730469 176.394531 332.269531 174.800781 329.519531 175.089844 C 327.640625 175.234375 326.046875 176.25 325.035156 177.839844 C 324.746094 178.273438 324.601562 178.5625 324.457031 179 C 315.050781 175.667969 305.207031 171.328125 297.972656 164.238281 C 296.667969 162.933594 295.367188 160.90625 293.773438 159.894531 C 291.460938 158.59375 288.273438 159.171875 285.816406 159.027344 C 281.328125 158.882812 276.695312 158.304688 272.355469 157.433594 C 270.617188 157.144531 269.027344 156.566406 267.289062 156.421875 C 267.433594 155.988281 267.722656 155.554688 267.867188 155.117188 C 268.160156 154.394531 267.433594 153.671875 266.710938 153.671875 C 261.5 153.816406 257.882812 159.75 255.566406 163.65625 C 252.382812 169.011719 250.066406 174.800781 247.898438 180.589844 C 245.582031 186.8125 243.699219 193.46875 243.554688 200.128906 C 243.554688 203.167969 243.84375 206.785156 244.859375 209.679688 C 245.582031 211.851562 247.316406 215.46875 249.921875 215.902344 C 250.503906 216.046875 251.226562 215.902344 251.515625 215.179688 C 252.09375 214.019531 252.09375 212.863281 251.804688 211.5625 C 259.621094 213.585938 266.855469 216.769531 273.65625 220.96875 C 276.84375 222.851562 279.15625 224.296875 283.066406 223.863281 C 287.984375 223.285156 292.617188 222.414062 297.539062 222.414062 C 301.878906 222.414062 306.074219 222.703125 310.273438 223.140625 C 309.40625 225.597656 309.261719 228.492188 309.695312 231.097656 C 310.128906 234.136719 311.863281 236.742188 311.285156 239.925781 C 310.707031 242.820312 309.695312 245.570312 308.96875 248.320312 C 307.8125 253.242188 306.800781 258.164062 305.929688 263.082031 C 300.722656 263.371094 295.65625 263.226562 290.445312 263.660156 C 286.25 263.953125 281.761719 264.097656 277.855469 265.832031 C 274.527344 267.425781 271.921875 270.609375 272.644531 274.515625 C 272.644531 274.804688 272.933594 275.09375 272.933594 275.382812 C 272.644531 283.199219 277.277344 290.582031 276.988281 298.539062 C 276.550781 309.105469 274.671875 319.960938 273.800781 330.523438 C 272.355469 348.613281 270.761719 367.285156 272.210938 385.375 C 271.054688 393.769531 271.054688 402.597656 271.488281 411.136719 C 271.921875 418.804688 271.921875 427.488281 275.828125 434.292969 C 282.628906 446.160156 300.289062 449.777344 312.589844 452.09375 C 328.363281 454.988281 345.296875 457.882812 359.046875 466.855469 C 357.886719 472.207031 357.019531 477.417969 356.296875 482.773438 C 355.425781 484.945312 354.414062 487.117188 353.691406 489.285156 C 351.085938 496.089844 349.492188 503.179688 348.046875 510.269531 C 347.03125 515.480469 345.296875 522.285156 346.019531 527.925781 C 341.390625 541.964844 339.652344 559.332031 344.429688 573.371094 C 339.652344 586.539062 334.296875 599.566406 329.519531 612.734375 C 322.285156 632.417969 321.707031 652.679688 319.246094 673.375 C 316.785156 694.503906 309.261719 713.898438 303.328125 734.160156 C 301.878906 739.222656 300.578125 744.433594 299.417969 749.644531 C 298.839844 752.394531 297.539062 756.589844 298.40625 759.484375 C 300.289062 766.144531 312.878906 764.550781 318.378906 762.960938 C 318.667969 766.144531 318.8125 769.183594 318.234375 772.367188 C 316.496094 780.90625 311.71875 788.285156 310.851562 797.113281 C 310.707031 798.417969 312.15625 799.71875 313.3125 799.574219 C 315.339844 799.429688 317.21875 799.429688 319.246094 799.574219 C 319.246094 799.574219 319.246094 799.71875 319.246094 799.71875 C 316.496094 818.824219 318.378906 837.925781 324.3125 856.160156 C 330.101562 873.960938 339.796875 890.460938 344.429688 908.695312 C 348.914062 926.0625 349.058594 944.152344 351.953125 961.808594 C 354.414062 977.148438 356.296875 992.78125 361.792969 1007.398438 C 361.503906 1013.910156 361.214844 1020.566406 362.085938 1026.933594 C 363.386719 1035.761719 369.03125 1042.421875 372.9375 1050.234375 C 377.136719 1058.484375 379.742188 1067.457031 381.476562 1076.429688 C 383.214844 1085.257812 383.9375 1094.230469 384.371094 1103.203125 C 384.804688 1111.453125 385.238281 1119.558594 388.570312 1127.085938 C 390.738281 1132.003906 393.777344 1136.347656 397.398438 1140.253906 C 397.398438 1140.398438 397.398438 1140.6875 397.398438 1140.832031 C 403.476562 1160.226562 403.042969 1180.632812 402.316406 1200.75 C 401.59375 1219.996094 402.894531 1238.523438 406.804688 1257.480469 C 408.828125 1267.175781 411.289062 1276.730469 413.460938 1286.425781 C 414.617188 1291.199219 415.488281 1296.121094 416.644531 1300.898438 C 417.804688 1306.542969 420.117188 1312.1875 418.816406 1317.976562 C 417.511719 1323.621094 420.261719 1326.078125 424.460938 1328.972656 C 424.316406 1329.117188 424.027344 1329.40625 424.027344 1329.699219 C 423.300781 1331.578125 421.855469 1333.171875 419.972656 1334.039062 C 418.382812 1334.90625 416.789062 1334.761719 415.054688 1335.050781 C 411.578125 1335.777344 409.699219 1338.671875 409.699219 1342.144531 C 409.699219 1343.445312 409.988281 1344.75 410.566406 1345.90625 C 402.75 1347.5 395.804688 1350.972656 389.4375 1355.894531 C 382.34375 1361.535156 377.714844 1369.207031 370.914062 1375.140625 C 362.664062 1382.378906 351.953125 1382.085938 341.535156 1383.101562 C 331.546875 1383.96875 321.5625 1385.125 312.011719 1388.164062 C 305.929688 1390.046875 296.089844 1393.375 296.089844 1401.335938 C 296.089844 1402.929688 296.667969 1404.375 297.394531 1405.53125 C 296.667969 1406.980469 296.089844 1408.570312 295.367188 1410.019531 C 294.5 1411.902344 293.339844 1414.070312 293.773438 1416.386719 C 294.789062 1420.585938 300.140625 1421.597656 303.761719 1422.609375 C 317.652344 1426.519531 331.835938 1429.121094 346.308594 1429.847656 C 360.78125 1430.570312 375.253906 1430.570312 389.726562 1428.976562 C 403.765625 1427.53125 417.222656 1423.914062 430.539062 1419.28125 C 424.171875 1424.78125 417.511719 1429.703125 410.566406 1434.332031 C 401.882812 1439.976562 392.621094 1444.753906 383.070312 1448.804688 C 378.148438 1450.832031 373.371094 1452.859375 368.308594 1454.59375 C 363.675781 1456.1875 358.609375 1457.488281 354.414062 1460.09375 C 349.925781 1462.84375 346.453125 1467.621094 346.164062 1472.828125 C 346.164062 1472.828125 346.019531 1472.972656 346.019531 1472.972656 C 341.96875 1483.828125 345.585938 1494.828125 357.742188 1496.273438 C 373.226562 1498.300781 389.582031 1497.867188 405.066406 1497.433594 C 420.117188 1497 435.167969 1496.128906 450.078125 1493.234375 C 464.546875 1490.484375 480.613281 1486.578125 492.625 1477.75 C 492.914062 1478.472656 493.347656 1479.050781 493.78125 1479.777344 C 496.097656 1483.25 498.992188 1485.710938 503.335938 1484.695312 C 505.214844 1484.261719 506.953125 1483.394531 508.691406 1482.527344 C 511.003906 1481.511719 513.320312 1480.644531 515.636719 1480.066406 C 519.976562 1478.90625 524.320312 1478.183594 528.660156 1477.316406 C 536.042969 1475.867188 544.726562 1473.84375 549.5 1467.621094 C 551.527344 1465.160156 553.265625 1461.25 552.394531 1457.921875 C 551.382812 1453.726562 545.59375 1453.4375 547.476562 1448.226562 C 547.621094 1447.9375 547.476562 1447.648438 547.332031 1447.359375 C 547.476562 1445.910156 547.476562 1444.320312 547.1875 1442.726562 C 546.605469 1438.820312 545.59375 1435.199219 545.59375 1431.292969 C 545.59375 1427.097656 546.027344 1423.042969 545.449219 1418.992188 C 544.871094 1414.359375 542.988281 1409.730469 539.515625 1406.691406 C 542.121094 1403.796875 542.84375 1400.757812 541.398438 1397.140625 C 539.949219 1393.085938 538.9375 1390.769531 539.371094 1386.285156 C 539.660156 1382.667969 540.09375 1379.046875 540.527344 1375.429688 C 542.410156 1360.667969 546.316406 1346.484375 549.066406 1331.867188 C 551.527344 1319.132812 548.632812 1307.265625 546.605469 1294.820312 C 544.292969 1280.492188 542.410156 1266.019531 540.964844 1251.691406 C 538.070312 1224.339844 536.332031 1196.839844 533.292969 1169.632812 C 531.554688 1155.015625 529.09375 1140.398438 524.464844 1126.359375 C 520.992188 1115.796875 515.78125 1106.242188 512.886719 1095.824219 C 513.175781 1084.101562 512.597656 1072.378906 511.585938 1060.65625 C 511.003906 1052.40625 509.703125 1045.605469 504.347656 1039.09375 C 498.125 1031.421875 494.796875 1023.460938 493.636719 1013.621094 C 491.324219 993.648438 493.492188 973.386719 492.191406 953.269531 C 491.902344 949.507812 491.035156 946.179688 489.585938 942.851562 C 487.414062 937.929688 486.546875 933.589844 486.113281 928.234375 C 485.390625 917.523438 484.664062 906.523438 486.691406 895.816406 C 489.585938 880.621094 499.714844 864.988281 500.007812 849.214844 C 502.03125 852.398438 504.492188 855.292969 507.820312 857.609375 C 509.125 858.621094 511.4375 857.320312 511.292969 855.582031 C 509.125 835.609375 506.808594 815.78125 504.347656 795.957031 C 503.191406 786.402344 501.886719 776.996094 501.019531 767.445312 C 500.296875 758.90625 501.308594 750.945312 501.886719 742.550781 C 504.78125 739.078125 507.386719 735.316406 509.558594 731.265625 C 516.503906 717.660156 520.121094 700.582031 520.847656 685.242188 C 522.4375 675.835938 523.742188 666.429688 524.609375 656.875 C 525.621094 646.023438 525.476562 634.878906 527.214844 624.023438 C 528.949219 613.605469 533.582031 604.484375 536.332031 594.5 C 538.792969 585.816406 538.792969 576.988281 537.921875 568.160156 C 542.410156 559.476562 544.582031 549.058594 547.476562 539.9375 C 550.660156 529.808594 553.84375 519.679688 556.304688 509.257812 C 560.5 491.023438 560.933594 470.90625 557.605469 452.382812 C 557.75 451.367188 557.894531 450.210938 558.039062 449.199219 C 559.777344 434.726562 556.160156 422.421875 551.671875 408.820312 C 549.5 401.871094 548.777344 395.503906 549.210938 388.269531 C 549.5 382.769531 549.355469 377.414062 546.316406 372.636719 C 544.003906 369.019531 541.253906 366.996094 541.398438 362.363281 C 541.398438 358.457031 542.410156 354.691406 542.554688 350.785156 C 542.699219 345.71875 543.277344 339.351562 541.6875 334.285156 C 542.121094 333.273438 542.410156 332.261719 542.410156 331.101562 C 542.410156 325.167969 535.464844 321.839844 530.832031 324.300781 C 530.398438 324.15625 529.964844 324.011719 529.53125 323.867188 C 529.238281 323 528.949219 322.273438 528.804688 321.40625 C 528.371094 319.667969 527.9375 317.789062 527.648438 315.90625 C 527.359375 314.027344 527.214844 312.144531 527.214844 310.261719 C 527.214844 309.105469 527.070312 307.945312 527.070312 306.789062 C 528.226562 305.050781 528.949219 303.027344 529.242188 300.566406 C 530.398438 296.515625 530.398438 291.882812 532.132812 286.960938 Z M 409.84375 219.957031 C 409.699219 217.496094 410.132812 215.613281 411.289062 213.441406 C 413.027344 210.113281 415.488281 207.074219 417.222656 203.746094 C 420.695312 197.089844 422.144531 190.140625 421.132812 182.90625 C 423.011719 182.90625 424.75 182.761719 426.484375 182.617188 C 435.3125 181.894531 444.140625 180.589844 452.96875 179.289062 C 454.273438 185.078125 452.679688 191.589844 449.351562 196.65625 C 446.3125 201.285156 442.117188 204.46875 438.355469 208.234375 C 436.039062 210.546875 434.589844 213.296875 435.894531 216.480469 C 437.484375 220.390625 441.539062 222.847656 443.417969 226.613281 C 445.445312 230.519531 446.457031 234.863281 447.183594 239.203125 C 448.917969 248.175781 449.785156 257.148438 453.984375 265.253906 C 454.5625 266.410156 456.300781 266.84375 457.3125 266.121094 C 461.796875 263.660156 463.246094 259.175781 463.96875 254.398438 C 464.984375 247.886719 465.417969 242.53125 470.191406 237.613281 C 475.835938 231.824219 488.574219 229.652344 491.902344 239.347656 C 492.769531 241.953125 493.203125 244.703125 493.492188 247.597656 C 493.347656 247.597656 493.058594 247.742188 493.058594 248.03125 C 492.046875 249.914062 491.175781 251.792969 490.453125 253.820312 C 489.730469 255.847656 489.441406 257.871094 488.863281 259.898438 C 488.71875 260.621094 488.574219 261.347656 487.992188 261.78125 C 487.414062 262.214844 486.835938 262.503906 486.257812 262.9375 C 485.824219 263.226562 485.390625 263.515625 484.953125 263.804688 C 484.808594 262.648438 483.796875 261.492188 483.652344 260.621094 C 482.785156 256.714844 485.097656 252.664062 485.535156 248.753906 C 485.96875 244.992188 484.230469 240.652344 480.324219 239.492188 C 478.875 239.058594 478.296875 241.230469 479.746094 241.664062 C 483.507812 242.964844 482.929688 247.886719 482.058594 250.925781 C 481.914062 251.359375 481.769531 251.792969 481.625 252.082031 C 481.480469 251.648438 481.335938 251.214844 481.046875 250.78125 C 480.46875 249.625 479.890625 248.464844 479.164062 247.597656 C 478.296875 246.730469 477.429688 246.003906 476.269531 245.570312 C 475.835938 245.425781 475.402344 245.714844 475.546875 246.148438 C 475.691406 246.730469 475.691406 247.164062 475.835938 247.742188 C 475.980469 248.320312 476.125 248.753906 476.414062 249.335938 C 476.851562 250.347656 477.574219 251.503906 477.863281 252.375 C 478.296875 253.386719 478.730469 254.542969 479.019531 255.558594 C 479.308594 256.714844 479.746094 257.726562 480.324219 258.742188 C 480.179688 260.042969 480.324219 261.492188 480.902344 262.792969 C 481.191406 263.515625 481.914062 264.964844 482.929688 265.542969 C 482.496094 265.832031 482.203125 266.121094 481.769531 266.554688 C 480.46875 267.859375 479.308594 269.160156 477.863281 270.175781 C 476.707031 270.898438 475.113281 271.621094 474.101562 271.1875 C 473.230469 270.898438 472.21875 269.738281 471.785156 268.582031 C 471.0625 266.554688 471.351562 264.386719 471.207031 262.214844 C 471.0625 261.203125 469.902344 260.765625 469.324219 261.636719 C 467.441406 264.964844 466.429688 269.015625 467.878906 272.632812 C 469.46875 276.6875 474.101562 278.714844 478.152344 277.121094 C 481.914062 275.671875 484.085938 272.632812 486.835938 269.886719 C 487.992188 268.726562 489.585938 267.859375 490.742188 266.554688 C 492.046875 265.253906 493.058594 263.660156 493.347656 261.925781 C 493.78125 259.753906 493.347656 257.582031 493.492188 255.414062 C 493.636719 253.964844 493.78125 252.664062 494.21875 251.359375 C 494.21875 251.792969 494.21875 252.082031 494.363281 252.519531 C 493.492188 267.859375 497.257812 285.804688 505.070312 298.539062 C 508.398438 303.894531 513.464844 310.839844 520.265625 311.421875 C 522.292969 311.566406 524.03125 311.132812 525.476562 310.40625 C 525.476562 310.695312 525.332031 310.988281 525.332031 311.277344 C 525.1875 313.300781 525.1875 315.328125 525.476562 317.355469 C 525.621094 319.378906 526.054688 321.40625 526.492188 323.433594 C 526.636719 323.867188 526.78125 324.445312 526.78125 325.023438 C 522.4375 325.894531 517.808594 328.351562 514.621094 329.511719 C 501.019531 334.433594 487.269531 339.496094 473.957031 345.285156 C 473.375 345.574219 472.796875 345.863281 472.21875 346.007812 C 465.707031 347.3125 459.484375 350.785156 453.40625 353.824219 C 452.824219 353.101562 451.957031 352.523438 451.523438 351.652344 C 450.511719 350.0625 450.367188 348.035156 450.222656 346.152344 C 450.074219 341.957031 449.785156 337.90625 448.917969 333.707031 C 448.195312 330.523438 447.179688 325.894531 444.578125 323.722656 C 443.851562 323.144531 443.128906 322.710938 442.261719 322.5625 C 441.539062 322.417969 440.667969 322.5625 440.089844 322.273438 C 439.511719 321.984375 439.367188 321.261719 439.222656 320.539062 C 448.773438 315.183594 457.457031 308.527344 466.140625 301.722656 C 467.007812 301 465.851562 299.410156 464.984375 300.132812 C 455.429688 307.078125 444.867188 312.578125 434.15625 317.789062 C 425.183594 322.128906 410.566406 327.628906 403.1875 317.644531 C 397.25 309.539062 402.605469 297.960938 399.710938 288.988281 C 399.421875 288.121094 398.988281 287.25 398.699219 286.382812 C 397.976562 284.5 398.121094 284.210938 398.988281 282.476562 C 399.855469 280.738281 400 279.148438 399.277344 277.410156 C 398.265625 274.515625 396.671875 272.199219 396.382812 269.015625 C 396.238281 266.410156 396.671875 263.804688 396.960938 261.347656 C 399.855469 260.765625 402.027344 259.175781 401.59375 255.847656 C 401.449219 254.6875 400.292969 254.109375 399.277344 254.976562 C 398.121094 255.992188 397.253906 257.148438 395.660156 257.582031 C 394.359375 258.015625 391.609375 257.871094 390.59375 256.714844 C 387.699219 253.097656 393.054688 245.570312 395.082031 242.386719 C 397.542969 238.625 400.292969 235.152344 403.476562 232.113281 C 405.789062 229.941406 408.972656 227.769531 409.988281 224.730469 C 410.132812 222.847656 409.84375 221.402344 409.84375 219.957031 Z M 392.765625 415.476562 C 384.371094 424.160156 377.570312 433.710938 372.070312 444.421875 C 369.464844 449.488281 367.003906 454.695312 364.980469 460.050781 C 364.253906 462.078125 363.242188 464.394531 362.519531 466.710938 C 368.164062 441.09375 378.003906 416.925781 397.25 397.820312 C 406.082031 388.992188 415.921875 381.46875 426.195312 374.375 C 426.484375 380.019531 426.628906 387.546875 428.800781 392.898438 C 405.644531 406.792969 388.859375 427.34375 374.242188 450.210938 C 373.226562 451.804688 372.359375 453.394531 371.347656 454.988281 C 372.648438 451.804688 373.953125 448.617188 375.542969 445.578125 C 380.609375 435.160156 386.976562 425.171875 393.921875 416.054688 C 394.066406 415.621094 393.199219 415.042969 392.765625 415.476562 Z M 380.03125 198.824219 C 379.304688 199.984375 378.871094 201.285156 378.582031 202.589844 C 378.003906 204.324219 377.570312 206.207031 377.28125 207.941406 C 376.703125 211.707031 376.410156 215.46875 376.554688 219.375 C 376.554688 221.546875 379.886719 221.546875 380.03125 219.375 C 380.175781 215.902344 380.609375 212.429688 381.476562 208.957031 C 381.910156 207.21875 382.34375 205.484375 382.925781 203.746094 C 383.359375 202.296875 384.082031 200.851562 383.9375 199.40625 C 385.09375 199.40625 386.253906 199.40625 387.265625 199.257812 C 387.265625 199.257812 387.265625 199.257812 387.410156 199.257812 C 387.84375 199.839844 388.277344 200.417969 388.714844 200.851562 C 388.859375 200.996094 389.003906 201.140625 389.003906 201.285156 C 388.714844 201.71875 388.421875 202.152344 388.277344 202.589844 C 387.554688 203.890625 387.121094 205.339844 386.6875 206.785156 C 385.964844 209.679688 385.820312 212.71875 386.109375 215.757812 C 386.253906 216.625 387.699219 216.769531 387.554688 215.757812 C 387.410156 212.863281 387.84375 210.113281 388.570312 207.363281 C 388.859375 206.0625 389.4375 204.757812 389.871094 203.457031 C 390.015625 203.3125 390.015625 203.023438 390.160156 202.878906 C 391.316406 204.324219 392.621094 205.773438 393.921875 207.074219 C 395.660156 208.957031 397.542969 210.835938 399.421875 212.71875 C 400.871094 214.167969 402.605469 215.902344 404.632812 216.914062 C 404.488281 219.230469 405.066406 220.679688 405.5 222.847656 C 406.226562 226.179688 402.316406 228.492188 400.292969 230.664062 C 398.554688 232.402344 396.816406 234.28125 395.226562 236.308594 C 394.503906 237.175781 393.777344 238.191406 393.199219 239.058594 C 385.09375 233.125 374.097656 230.664062 364.6875 228.347656 C 357.453125 226.46875 350.214844 224.730469 342.980469 223.285156 C 342.691406 221.113281 342.257812 218.941406 342.113281 216.914062 C 341.96875 214.019531 341.96875 210.980469 342.257812 208.085938 C 342.691406 202.589844 343.992188 197.089844 345.875 192.023438 C 350.070312 193.035156 354.414062 194.050781 358.753906 194.917969 C 363.820312 195.929688 369.03125 196.945312 374.097656 197.957031 C 375.976562 197.957031 378.003906 198.390625 380.03125 198.824219 Z M 335.019531 221.402344 C 335.019531 221.257812 335.019531 221.113281 335.019531 220.96875 C 333.285156 216.046875 334.007812 210.113281 334.585938 205.046875 C 334.875 202.152344 335.453125 199.257812 336.179688 196.363281 C 336.46875 194.917969 336.902344 193.46875 337.335938 192.167969 C 337.480469 191.589844 337.625 190.722656 338.058594 190.285156 C 338.203125 190.140625 338.347656 189.996094 338.492188 189.851562 C 339.941406 190.285156 341.386719 190.574219 342.691406 191.011719 C 340.519531 196.363281 339.21875 201.71875 338.640625 207.507812 C 338.347656 210.691406 338.347656 213.875 338.492188 217.0625 C 338.640625 218.796875 338.785156 220.679688 339.074219 222.414062 C 337.914062 221.980469 336.46875 221.691406 335.019531 221.402344 Z M 362.230469 188.40625 C 362.519531 188.261719 362.808594 187.972656 363.097656 187.828125 C 363.097656 187.828125 363.53125 187.683594 363.53125 187.683594 C 363.675781 187.683594 363.820312 187.535156 363.964844 187.535156 C 364.109375 187.535156 364.253906 187.390625 364.542969 187.390625 C 364.542969 187.390625 364.542969 187.390625 364.6875 187.390625 C 364.976562 187.390625 365.125 187.390625 365.414062 187.390625 C 365.414062 187.390625 365.558594 187.390625 365.703125 187.390625 C 365.992188 187.390625 366.425781 187.535156 366.714844 187.683594 C 366.859375 187.683594 366.859375 187.828125 367.003906 187.828125 C 367.148438 187.972656 367.292969 187.972656 367.582031 188.117188 C 367.726562 188.261719 367.871094 188.261719 368.019531 188.40625 C 368.164062 188.40625 368.164062 188.550781 368.308594 188.550781 C 368.597656 188.839844 368.886719 189.128906 369.175781 189.417969 C 369.175781 189.417969 369.175781 189.417969 369.320312 189.5625 C 369.320312 189.5625 369.464844 189.707031 369.464844 189.707031 C 369.609375 189.851562 369.753906 190.140625 369.898438 190.285156 C 370.042969 190.429688 370.1875 190.722656 370.1875 190.867188 C 367.4375 190.285156 364.6875 189.707031 361.792969 189.128906 C 361.792969 189.128906 361.792969 189.128906 361.792969 188.984375 C 361.9375 188.839844 362.085938 188.695312 362.085938 188.550781 C 361.9375 188.550781 362.085938 188.40625 362.230469 188.40625 Z M 350.652344 181.167969 C 350.796875 181.023438 350.941406 180.878906 351.085938 180.734375 C 351.085938 180.734375 351.085938 180.734375 351.230469 180.589844 C 351.230469 180.589844 351.230469 180.589844 351.375 180.589844 C 351.519531 180.445312 351.808594 180.300781 351.953125 180.300781 C 351.953125 180.300781 352.097656 180.15625 352.242188 180.15625 C 352.53125 180.011719 352.820312 180.011719 353.109375 179.867188 C 353.257812 179.867188 353.402344 179.867188 353.546875 179.867188 C 353.691406 179.867188 353.835938 179.867188 353.980469 179.867188 C 353.546875 179.867188 354.125 179.867188 354.125 179.867188 C 354.269531 179.867188 354.558594 180.011719 354.703125 180.011719 C 354.703125 180.011719 354.992188 180.15625 354.992188 180.15625 C 355.136719 180.15625 355.28125 180.300781 355.28125 180.300781 C 355.425781 180.445312 355.570312 180.445312 355.714844 180.589844 C 355.714844 180.589844 355.859375 180.589844 355.859375 180.734375 C 355.859375 180.734375 355.859375 180.734375 356.003906 180.734375 C 356.148438 180.878906 356.296875 181.023438 356.296875 181.023438 C 356.441406 181.167969 356.730469 181.601562 356.441406 181.167969 C 356.585938 181.3125 356.585938 181.457031 356.730469 181.601562 C 356.730469 181.746094 356.875 181.746094 356.875 181.894531 C 357.019531 182.039062 357.019531 182.039062 356.875 181.746094 C 356.875 181.746094 357.019531 182.183594 357.019531 182.183594 C 357.019531 182.472656 357.164062 182.617188 357.164062 182.90625 C 357.164062 182.90625 357.164062 183.195312 357.164062 183.339844 C 357.164062 183.628906 357.164062 183.917969 357.164062 184.207031 C 357.164062 184.640625 357.164062 185.222656 357.164062 185.65625 C 357.164062 186.089844 357.308594 186.667969 357.597656 187.101562 C 357.453125 187.390625 357.308594 187.828125 357.164062 188.261719 C 355.136719 187.828125 352.964844 187.390625 350.941406 186.8125 C 350.941406 185.800781 350.652344 184.640625 350.363281 183.773438 C 350.214844 183.339844 349.925781 182.90625 349.78125 182.472656 C 349.925781 182.039062 350.214844 181.601562 350.652344 181.167969 Z M 338.785156 181.3125 C 338.929688 181.3125 339.074219 181.167969 339.21875 181.167969 C 339.21875 181.167969 339.363281 181.167969 339.507812 181.167969 C 340.230469 181.023438 340.953125 181.167969 341.679688 181.167969 C 341.96875 181.167969 342.113281 181.3125 342.257812 181.3125 C 342.402344 181.3125 342.546875 181.457031 342.691406 181.457031 C 342.691406 181.457031 342.691406 181.457031 342.835938 181.601562 C 342.980469 181.746094 343.125 181.746094 343.414062 181.894531 C 343.414062 181.894531 343.558594 182.039062 343.703125 182.039062 C 343.992188 182.328125 344.28125 182.617188 344.574219 182.90625 C 344.71875 183.050781 344.863281 183.339844 344.71875 183.050781 C 344.863281 183.195312 345.007812 183.484375 345.152344 183.628906 C 345.296875 183.773438 345.296875 183.917969 345.441406 184.0625 C 345.441406 184.0625 345.585938 184.351562 345.585938 184.496094 C 345.585938 184.640625 345.730469 184.933594 345.730469 184.933594 C 345.730469 185.078125 345.875 185.367188 345.875 185.511719 C 345.875 185.511719 345.875 185.65625 345.875 185.65625 C 343.269531 185.078125 340.808594 184.351562 338.203125 183.628906 C 338.058594 182.90625 337.914062 182.183594 337.625 181.601562 C 337.769531 181.601562 337.914062 181.457031 338.058594 181.457031 C 338.203125 181.601562 338.640625 181.3125 338.785156 181.3125 Z M 330.679688 178.5625 C 331.402344 178.707031 331.691406 178.855469 332.414062 179.289062 C 332.558594 179.433594 332.414062 179.289062 332.558594 179.433594 C 332.707031 179.578125 332.851562 179.722656 332.996094 179.722656 C 333.140625 179.867188 333.285156 180.011719 333.285156 180.15625 C 333.285156 180.15625 333.429688 180.300781 333.429688 180.300781 C 333.429688 180.300781 333.429688 180.445312 333.574219 180.445312 C 333.71875 180.734375 334.007812 181.023438 334.152344 181.457031 C 334.296875 181.601562 334.296875 181.746094 334.296875 181.894531 C 334.296875 182.183594 334.296875 182.328125 334.296875 182.472656 C 331.980469 181.746094 329.664062 181.023438 327.351562 180.15625 C 327.496094 179.867188 327.640625 179.578125 327.785156 179.433594 C 328.652344 178.707031 329.664062 178.273438 330.679688 178.5625 Z M 286.683594 216.625 C 284.65625 216.914062 283.210938 217.351562 281.472656 217.207031 C 281.472656 216.769531 281.472656 216.335938 281.472656 215.757812 C 281.328125 214.3125 281.183594 212.863281 281.183594 211.5625 C 281.183594 208.957031 281.328125 206.207031 281.472656 203.601562 C 281.617188 201.140625 281.90625 198.535156 282.484375 196.074219 C 282.777344 194.917969 283.066406 193.90625 283.355469 192.746094 C 283.789062 191.589844 284.511719 190.429688 284.65625 189.273438 C 284.800781 188.550781 284.078125 187.972656 283.355469 188.261719 C 281.328125 189.273438 280.316406 192.167969 279.589844 194.195312 C 278.722656 196.800781 278.144531 199.695312 277.710938 202.445312 C 277.132812 205.484375 276.839844 208.378906 276.550781 211.417969 C 276.40625 212.574219 276.40625 213.730469 276.261719 215.035156 C 275.539062 214.601562 274.816406 214.019531 274.09375 213.730469 C 266.710938 209.679688 259.332031 207.507812 251.082031 207.074219 C 250.792969 204.902344 250.503906 202.878906 250.503906 200.707031 C 250.503906 194.484375 252.09375 188.695312 254.121094 182.761719 C 255.855469 177.695312 257.449219 172.484375 259.910156 167.710938 C 261.066406 165.539062 262.371094 163.367188 263.816406 161.34375 C 264.25 160.761719 264.683594 160.183594 265.117188 159.75 C 269.605469 162.5 276.839844 162.644531 281.617188 163.078125 C 282.195312 163.078125 282.777344 163.222656 283.355469 163.222656 C 282.339844 164.527344 281.472656 166.261719 280.75 167.566406 C 279.445312 170.171875 278.289062 172.773438 277.277344 175.523438 C 275.394531 180.734375 274.527344 186.234375 274.238281 191.878906 C 274.09375 193.617188 276.988281 194.050781 277.277344 192.3125 C 278.144531 187.246094 279.734375 182.183594 281.761719 177.40625 C 282.777344 175.089844 283.933594 172.773438 285.234375 170.605469 C 286.394531 168.578125 288.710938 166.117188 288.855469 163.65625 C 290.011719 163.945312 291.023438 164.238281 291.894531 164.960938 C 291.167969 165.539062 290.445312 166.40625 289.867188 167.132812 C 289 168.289062 288.273438 169.445312 287.550781 170.75 C 286.972656 172.050781 286.539062 173.5 286.394531 174.945312 C 286.105469 176.394531 285.960938 177.839844 285.816406 179.289062 C 285.816406 180.445312 287.550781 180.589844 287.695312 179.578125 C 287.984375 178.273438 288.417969 177.117188 288.855469 175.960938 C 289.433594 174.800781 290.15625 173.789062 290.878906 172.628906 C 291.457031 171.472656 292.183594 170.460938 292.90625 169.445312 C 293.195312 169.011719 293.773438 168.433594 294.207031 167.855469 C 294.207031 167.710938 294.207031 167.710938 294.351562 167.566406 C 295.222656 168.578125 295.945312 169.445312 296.957031 170.316406 C 304.628906 177.261719 314.179688 181.601562 323.730469 185.222656 C 327.496094 186.667969 331.257812 187.828125 335.019531 188.839844 C 334.296875 190.140625 333.71875 191.734375 333.429688 192.890625 C 332.125 196.511719 331.257812 200.273438 330.535156 204.035156 C 329.957031 207.652344 329.519531 211.417969 329.375 215.179688 C 329.375 216.914062 329.230469 218.941406 329.8125 220.535156 C 328.796875 220.390625 327.640625 220.101562 326.625 219.808594 C 318.378906 218.363281 309.984375 216.625 301.589844 216.191406 C 296.8125 215.902344 291.75 215.757812 286.683594 216.625 Z M 313.023438 250.058594 C 314.46875 245.425781 317.21875 240.796875 315.484375 235.730469 C 314.613281 233.269531 313.746094 231.242188 313.601562 228.636719 C 313.601562 227.046875 313.746094 225.597656 314.035156 224.152344 C 317.652344 224.585938 321.273438 225.164062 324.746094 225.742188 C 326.046875 225.890625 327.207031 226.179688 328.507812 226.324219 C 327.640625 226.757812 326.625 227.191406 325.902344 227.769531 C 323.441406 229.652344 321.417969 231.96875 320.113281 234.71875 C 319.679688 235.441406 319.96875 236.308594 320.691406 236.742188 C 321.417969 237.175781 322.285156 236.886719 322.71875 236.164062 C 324.167969 234.28125 325.757812 232.980469 327.640625 231.824219 C 327.351562 232.546875 327.0625 233.414062 326.917969 234.28125 C 326.917969 234.71875 326.917969 235.152344 327.0625 235.441406 C 327.207031 235.730469 327.640625 236.019531 327.929688 236.164062 C 328.796875 236.308594 329.519531 235.875 329.8125 235.152344 C 329.8125 235.007812 329.957031 234.71875 329.957031 234.570312 C 329.957031 234.425781 330.101562 234.136719 329.957031 234.570312 C 329.957031 234.425781 330.101562 234.425781 330.101562 234.28125 C 330.246094 233.992188 330.390625 233.558594 330.679688 233.269531 C 330.824219 233.125 330.824219 232.980469 330.96875 232.835938 C 330.96875 232.835938 331.113281 232.691406 331.113281 232.691406 C 331.402344 232.402344 331.691406 232.113281 331.980469 231.824219 C 331.980469 231.824219 332.125 231.679688 332.125 231.679688 C 332.269531 231.53125 332.414062 231.53125 332.558594 231.386719 C 332.851562 231.242188 333.140625 230.953125 333.429688 230.808594 C 333.71875 230.664062 334.152344 230.375 334.441406 230.230469 C 334.585938 230.085938 334.730469 229.941406 335.019531 229.796875 C 335.308594 229.652344 335.453125 229.507812 335.597656 229.21875 C 336.035156 228.785156 336.179688 228.203125 336.035156 227.480469 C 336.035156 227.480469 336.035156 227.480469 336.035156 227.335938 C 344.71875 228.785156 353.257812 230.375 361.792969 232.402344 C 371.492188 234.71875 381.910156 236.886719 390.882812 241.375 C 389.4375 243.402344 388.132812 245.425781 386.976562 247.597656 C 384.804688 251.503906 382.78125 255.703125 386.832031 259.03125 C 388.421875 260.332031 391.316406 261.058594 394.210938 261.058594 C 391.898438 264.242188 391.316406 268.148438 391.898438 272.054688 C 392.1875 274.082031 393.054688 275.820312 393.488281 277.699219 C 394.066406 280.015625 392.1875 281.171875 391.753906 283.34375 C 391.464844 285.226562 392.332031 286.671875 393.054688 288.265625 C 394.066406 290.4375 394.648438 292.894531 394.792969 295.355469 C 395.226562 299.988281 394.792969 304.617188 395.082031 309.25 C 395.804688 317.644531 400 324.300781 408.25 327.050781 C 417.511719 330.089844 426.921875 326.472656 435.023438 322.128906 C 435.457031 323.433594 436.328125 324.734375 437.484375 325.457031 C 438.351562 325.894531 439.222656 325.894531 440.234375 326.183594 C 441.246094 326.472656 441.683594 327.339844 441.972656 328.207031 C 442.984375 330.523438 443.5625 333.128906 444.140625 335.589844 C 444.578125 338.050781 444.867188 340.511719 445.011719 342.96875 C 445.011719 345.429688 445.011719 347.890625 445.589844 350.351562 C 446.023438 352.234375 447.183594 353.96875 448.773438 355.128906 C 448.917969 355.128906 448.917969 355.273438 449.0625 355.273438 C 441.828125 358.601562 434.878906 362.363281 427.933594 366.269531 C 417.078125 372.347656 406.949219 380.164062 398.121094 389.136719 C 389.4375 386.964844 380.898438 389.136719 372.070312 390.003906 C 367.875 390.441406 364.398438 391.164062 360.492188 392.609375 C 357.308594 393.769531 355.425781 393.480469 352.53125 391.886719 C 351.085938 391.164062 349.636719 390.296875 347.902344 390.152344 C 345.585938 390.003906 343.558594 390.875 341.824219 392.175781 C 341.386719 392.03125 340.953125 392.175781 340.519531 392.464844 C 340.375 392.609375 340.375 392.609375 340.230469 392.753906 C 340.085938 388.703125 338.929688 384.507812 338.492188 380.742188 C 337.769531 375.679688 337.335938 370.46875 336.613281 365.257812 C 339.074219 363.8125 340.230469 361.0625 340.664062 358.023438 C 341.097656 354.402344 341.535156 352.378906 343.558594 349.339844 C 344.574219 347.890625 345.007812 346.445312 344.71875 344.707031 C 344.28125 342.101562 341.96875 340.367188 341.242188 337.90625 C 340.230469 334.722656 340.808594 330.523438 340.808594 327.195312 C 340.808594 319.378906 341.242188 311.566406 341.824219 303.75 C 342.546875 295.789062 343.414062 287.6875 344.71875 279.726562 C 345.875 272.78125 346.597656 264.820312 350.070312 258.597656 C 354.847656 250.058594 365.847656 245.425781 366.136719 234.71875 C 366.136719 233.269531 363.964844 233.269531 363.820312 234.71875 C 363.242188 244.992188 350.941406 250.058594 346.742188 258.742188 C 344.136719 264.097656 343.269531 270.03125 342.113281 275.820312 C 342.113281 276.109375 341.96875 276.398438 341.96875 276.832031 C 341.535156 276.6875 341.097656 276.6875 340.664062 276.976562 C 333.285156 281.027344 324.167969 281.460938 315.917969 281.316406 C 312.878906 281.171875 309.984375 281.027344 306.945312 280.738281 C 307.667969 276.109375 307.8125 271.332031 308.535156 266.699219 C 309.984375 260.910156 311.140625 255.414062 313.023438 250.058594 Z M 283.789062 270.898438 C 287.839844 270.03125 292.039062 269.59375 296.089844 269.015625 C 299.273438 268.582031 302.457031 267.859375 305.640625 267.28125 C 305.0625 271.621094 304.484375 276.109375 304.773438 280.449219 C 299.851562 279.871094 294.789062 279.148438 289.867188 278.277344 C 286.828125 277.699219 282.484375 277.410156 280.027344 275.382812 C 277.132812 272.925781 281.761719 271.332031 283.789062 270.898438 Z M 324.746094 451.65625 C 317.941406 449.921875 311.285156 447.894531 304.628906 445.867188 C 298.261719 443.988281 291.605469 441.960938 286.105469 438.054688 C 278.867188 432.84375 278.289062 424.449219 277.710938 416.199219 C 277.132812 408.386719 276.261719 400.714844 276.695312 392.898438 C 277.421875 377.558594 281.617188 363.085938 292.761719 352.089844 C 293.484375 351.363281 292.472656 350.0625 291.605469 350.640625 C 284.222656 355.851562 279.15625 363.519531 275.972656 371.914062 C 276.839844 358.746094 277.132812 345.429688 278.289062 332.261719 C 279.15625 321.984375 281.039062 311.566406 281.472656 301.144531 C 281.761719 293.765625 278.578125 287.25 276.839844 280.449219 C 277.855469 281.171875 279.011719 281.753906 280.171875 282.1875 C 284.800781 283.777344 290.300781 284.355469 295.222656 284.792969 C 300.867188 285.371094 306.65625 285.515625 312.300781 285.371094 C 321.851562 285.082031 332.851562 284.648438 341.535156 280.304688 C 340.519531 285.515625 339.652344 290.582031 338.929688 295.789062 C 337.191406 308.527344 335.890625 321.695312 336.179688 334.578125 C 336.179688 336.746094 336.46875 338.917969 337.335938 340.945312 C 338.492188 343.695312 339.941406 344.707031 338.492188 347.746094 C 337.625 349.628906 336.46875 350.640625 336.035156 352.8125 C 335.597656 354.984375 337.046875 361.0625 333.574219 361.785156 C 332.269531 362.074219 331.835938 363.519531 331.980469 364.679688 C 332.851562 370.613281 334.296875 376.546875 335.453125 382.480469 C 336.179688 386.386719 336.46875 390.875 337.769531 394.78125 C 336.902344 394.636719 335.890625 394.492188 335.019531 394.347656 C 332.851562 394.058594 330.824219 393.914062 328.652344 393.914062 C 324.457031 393.914062 320.113281 394.347656 315.917969 394.925781 C 315.046875 395.070312 315.195312 396.519531 316.0625 396.375 C 319.390625 396.230469 322.71875 396.230469 326.046875 396.519531 C 324.3125 396.953125 322.429688 397.386719 320.691406 397.964844 C 315.484375 399.703125 310.273438 401.726562 305.351562 404.1875 C 303.90625 404.914062 305.207031 406.9375 306.65625 406.359375 C 311.574219 404.1875 316.640625 402.308594 321.851562 400.859375 C 324.3125 400.136719 326.917969 399.414062 329.375 398.832031 C 331.257812 398.398438 333.574219 398.109375 335.597656 397.386719 C 335.890625 397.386719 336.035156 397.386719 336.324219 397.53125 C 334.296875 399.558594 332.414062 401.726562 330.390625 403.753906 C 327.0625 407.226562 323.585938 410.554688 320.113281 413.886719 C 316.785156 417.070312 313.023438 419.964844 310.707031 424.015625 C 310.273438 424.738281 311.140625 425.464844 311.863281 425.171875 C 315.484375 423.292969 318.234375 420.253906 321.273438 417.359375 C 324.601562 414.320312 327.929688 411.136719 331.257812 408.097656 C 334.730469 405.058594 338.203125 402.164062 341.679688 399.125 C 341.96875 398.832031 342.257812 398.6875 342.546875 398.398438 C 342.691406 398.542969 342.691406 398.6875 342.835938 398.832031 C 342.546875 400.714844 342.691406 402.742188 342.980469 404.332031 C 343.414062 406.792969 343.992188 409.253906 344.863281 411.570312 C 346.597656 416.488281 349.203125 420.976562 351.664062 425.464844 C 352.097656 426.1875 353.109375 425.609375 352.820312 424.882812 C 350.941406 420.398438 349.203125 415.910156 347.757812 411.136719 C 347.03125 408.964844 346.453125 406.648438 346.164062 404.332031 C 346.164062 404.1875 346.164062 404.1875 346.164062 404.042969 C 348.046875 406.9375 349.78125 409.832031 351.664062 412.726562 C 352.53125 414.175781 354.992188 412.871094 353.980469 411.28125 C 351.953125 408.097656 350.070312 404.914062 348.046875 401.726562 C 347.175781 400.28125 346.308594 398.980469 345.441406 397.53125 C 345.441406 397.386719 345.441406 397.386719 345.441406 397.242188 C 345.296875 396.953125 345.152344 396.808594 345.007812 396.664062 C 345.007812 396.664062 345.007812 396.664062 345.007812 396.519531 C 346.019531 395.792969 347.175781 395.359375 348.480469 395.648438 C 350.070312 395.9375 351.664062 397.386719 353.253906 397.964844 C 356.296875 398.980469 359.191406 398.253906 361.9375 396.953125 C 366.570312 394.925781 370.621094 394.058594 375.832031 393.625 C 383.359375 393.042969 390.449219 393.042969 397.398438 390.296875 C 395.660156 392.03125 393.921875 393.769531 392.332031 395.648438 C 375.109375 415.476562 365.269531 440.226562 359.769531 465.695312 C 349.058594 458.460938 337.335938 454.84375 324.746094 451.65625 Z M 305.496094 1399.597656 C 309.550781 1396.703125 315.046875 1395.402344 319.824219 1394.246094 C 328.941406 1391.929688 338.347656 1391.207031 347.757812 1390.191406 C 355.570312 1389.324219 363.675781 1388.164062 370.332031 1383.824219 C 377.136719 1379.191406 381.476562 1371.957031 386.976562 1366.023438 C 388.714844 1364.140625 390.59375 1362.40625 392.621094 1360.8125 C 392.621094 1361.972656 392.621094 1363.273438 392.621094 1364.429688 C 392.621094 1367.035156 392.621094 1369.640625 392.621094 1372.101562 C 392.621094 1372.824219 393.199219 1373.402344 393.921875 1373.402344 C 394.648438 1373.402344 395.082031 1372.824219 395.226562 1372.101562 C 395.515625 1369.640625 395.949219 1367.035156 396.238281 1364.574219 C 396.382812 1363.417969 396.527344 1362.117188 396.671875 1360.957031 C 396.671875 1360.523438 396.816406 1360.089844 396.816406 1359.511719 C 397.832031 1361.246094 399.132812 1362.695312 400.582031 1363.851562 C 403.1875 1366.023438 406.371094 1367.324219 409.699219 1367.761719 C 410.421875 1367.90625 411.144531 1367.035156 411.289062 1366.3125 C 411.433594 1365.589844 411 1364.722656 410.132812 1364.574219 C 407.382812 1364.140625 404.921875 1362.839844 403.039062 1361.101562 C 402.460938 1360.667969 402.027344 1360.089844 401.59375 1359.511719 C 401.59375 1359.511719 401.160156 1359.078125 401.449219 1359.367188 C 401.304688 1359.222656 401.160156 1359.078125 401.160156 1358.933594 C 401.015625 1358.640625 400.726562 1358.351562 400.582031 1358.0625 C 400.292969 1357.484375 399.855469 1356.90625 399.566406 1356.328125 C 399.566406 1356.183594 399.421875 1356.039062 399.421875 1356.039062 C 403.476562 1353.578125 407.816406 1351.550781 412.160156 1349.8125 C 412.882812 1350.683594 413.605469 1351.550781 414.617188 1352.128906 C 416.355469 1353.144531 418.238281 1353.144531 420.117188 1353.289062 C 422.289062 1353.433594 424.316406 1354.15625 426.339844 1355.167969 C 430.105469 1357.195312 433.722656 1359.65625 437.195312 1361.972656 C 440.957031 1364.429688 444.867188 1366.3125 448.195312 1369.207031 C 449.640625 1370.363281 450.945312 1371.667969 452.390625 1372.824219 C 454.128906 1374.273438 455.140625 1376.441406 456.734375 1378.035156 C 458.035156 1379.191406 459.628906 1380.351562 461.21875 1380.351562 C 461.074219 1381.363281 460.785156 1382.523438 460.640625 1383.535156 C 459.339844 1389.035156 458.179688 1394.390625 456.878906 1399.886719 C 456.300781 1401.914062 456.300781 1403.507812 456.445312 1404.664062 C 448.484375 1405.53125 442.839844 1410.164062 437.050781 1415.375 C 432.710938 1411.320312 425.617188 1410.019531 419.828125 1409.875 C 411 1409.441406 402.894531 1413.058594 394.355469 1414.503906 C 384.804688 1416.097656 374.820312 1416.242188 365.125 1416.675781 C 356.003906 1417.109375 347.03125 1416.820312 338.058594 1415.664062 C 328.796875 1414.503906 319.535156 1412.191406 310.996094 1408.425781 C 307.089844 1406.691406 299.851562 1403.652344 305.496094 1399.597656 Z M 359.042969 1425.503906 C 346.886719 1425.214844 334.875 1423.625 322.863281 1421.742188 C 317.074219 1420.875 311.285156 1419.859375 305.496094 1418.558594 C 301.878906 1417.691406 299.273438 1416.964844 299.707031 1412.914062 C 299.851562 1411.902344 299.996094 1410.886719 300.285156 1409.875 C 303.617188 1412.480469 308.390625 1414.070312 311.71875 1415.230469 C 329.8125 1421.742188 349.636719 1421.308594 368.597656 1421.453125 C 380.175781 1421.597656 391.464844 1421.453125 402.894531 1419.28125 C 408.972656 1418.125 415.054688 1416.53125 421.277344 1417.109375 C 423.445312 1417.253906 425.617188 1417.835938 427.644531 1418.558594 C 405.5 1423.1875 381.910156 1425.9375 359.042969 1425.503906 Z M 455.574219 1487.878906 C 442.40625 1490.773438 428.800781 1492.222656 415.199219 1492.945312 C 402.171875 1493.523438 389.148438 1493.089844 376.121094 1492.800781 C 369.609375 1492.65625 362.085938 1493.378906 355.859375 1491.933594 C 350.070312 1490.628906 349.058594 1486.433594 349.058594 1481.800781 C 352.386719 1486.144531 358.464844 1487.878906 363.820312 1488.605469 C 386.6875 1491.644531 410.566406 1489.328125 433.289062 1486.433594 C 445.445312 1484.839844 458.035156 1483.972656 470.046875 1481.222656 C 475.113281 1480.066406 479.457031 1477.75 483.652344 1474.855469 C 485.679688 1473.410156 487.992188 1471.671875 490.453125 1470.222656 C 490.742188 1472.394531 491.03125 1474.277344 491.757812 1476.15625 C 479.601562 1480.066406 468.023438 1485.132812 455.574219 1487.878906 Z M 542.554688 1422.320312 C 542.554688 1425.9375 542.265625 1429.414062 542.121094 1433.03125 C 542.121094 1436.214844 542.554688 1439.253906 542.988281 1442.292969 C 543.421875 1444.898438 544 1448.226562 541.6875 1450.109375 C 539.515625 1451.988281 536.042969 1452.566406 533.292969 1453.4375 C 529.964844 1454.449219 526.492188 1455.316406 523.160156 1456.042969 C 519.976562 1456.765625 516.070312 1457.054688 513.320312 1458.792969 C 512.453125 1459.371094 512.742188 1460.527344 513.609375 1460.960938 C 517.082031 1462.410156 521.859375 1461.25 525.476562 1460.671875 C 529.675781 1459.949219 534.015625 1459.082031 538.214844 1457.777344 C 540.382812 1457.054688 542.554688 1456.332031 544.4375 1454.882812 C 544.726562 1456.1875 545.304688 1457.199219 546.027344 1458.210938 C 547.1875 1459.660156 547.621094 1460.382812 546.894531 1462.265625 C 544.582031 1468.488281 536.476562 1470.804688 530.6875 1472.25 C 523.304688 1473.988281 515.925781 1475 508.832031 1477.75 C 507.386719 1478.328125 505.941406 1479.199219 504.492188 1479.777344 C 502.03125 1480.789062 500.585938 1480.5 498.703125 1478.761719 C 496.097656 1476.304688 493.636719 1472.539062 492.191406 1469.355469 C 492.191406 1469.210938 492.046875 1469.210938 492.046875 1469.210938 C 494.363281 1468.054688 496.675781 1467.183594 498.992188 1467.039062 C 500.152344 1467.039062 500.296875 1465.449219 499.28125 1465.015625 C 492.335938 1462.84375 487.414062 1465.160156 481.335938 1468.632812 C 472.941406 1473.554688 464.984375 1475.433594 455.429688 1476.882812 C 434.734375 1480.066406 413.894531 1482.527344 393.054688 1483.394531 C 383.359375 1483.828125 372.792969 1484.40625 363.242188 1482.527344 C 359.769531 1481.800781 354.992188 1480.5 353.109375 1477.027344 C 349.78125 1470.804688 357.453125 1465.882812 362.375 1464 C 370.332031 1460.960938 378.582031 1458.648438 386.253906 1455.171875 C 394.355469 1451.410156 402.027344 1447.070312 409.554688 1442.292969 C 417.800781 1437.082031 425.617188 1431.292969 433 1424.925781 C 434.15625 1423.914062 435.167969 1423.042969 436.328125 1421.886719 C 436.472656 1424.203125 436.761719 1426.375 437.339844 1428.542969 C 438.5 1432.164062 440.234375 1435.492188 442.550781 1438.386719 C 443.707031 1439.832031 446.167969 1437.949219 445.011719 1436.503906 C 442.695312 1433.320312 441.246094 1429.703125 440.523438 1425.9375 C 441.539062 1427.097656 442.695312 1427.964844 443.996094 1428.542969 C 445.589844 1429.269531 447.183594 1429.847656 449.0625 1429.847656 C 449.929688 1429.847656 450.800781 1429.703125 451.667969 1429.558594 C 452.535156 1429.414062 453.40625 1428.976562 454.128906 1428.542969 C 454.851562 1428.109375 455.285156 1427.242188 454.996094 1426.375 C 454.851562 1425.648438 453.984375 1424.925781 453.117188 1424.925781 C 452.535156 1424.925781 451.8125 1424.925781 451.234375 1424.925781 C 450.945312 1424.925781 450.65625 1424.925781 450.222656 1424.925781 C 450.074219 1424.925781 449.929688 1424.925781 449.785156 1424.925781 C 449.640625 1424.925781 449.640625 1424.925781 449.496094 1424.925781 C 449.351562 1424.925781 449.351562 1424.925781 449.785156 1424.925781 C 449.640625 1424.925781 449.0625 1424.78125 448.917969 1424.78125 C 448.628906 1424.636719 448.339844 1424.636719 447.90625 1424.636719 C 447.617188 1424.492188 447.328125 1424.492188 447.035156 1424.347656 C 446.890625 1424.347656 446.746094 1424.203125 446.601562 1424.203125 C 446.023438 1423.914062 445.445312 1423.625 445.011719 1423.335938 C 444.867188 1423.191406 444.722656 1423.191406 444.578125 1423.042969 C 444.578125 1423.042969 443.707031 1422.464844 443.417969 1422.175781 C 443.273438 1422.03125 443.128906 1422.03125 443.128906 1421.886719 C 442.839844 1421.742188 442.695312 1421.453125 442.40625 1421.308594 C 442.40625 1421.308594 441.972656 1420.875 442.261719 1421.164062 C 442.117188 1421.019531 441.828125 1420.875 441.683594 1420.730469 C 441.539062 1420.730469 441.394531 1420.585938 441.539062 1420.730469 C 441.101562 1420.441406 440.8125 1420.148438 440.378906 1420.003906 C 440.234375 1420.003906 440.234375 1420.003906 440.089844 1420.003906 C 440.089844 1419.425781 440.089844 1418.992188 440.089844 1418.414062 C 440.089844 1418.414062 440.089844 1418.269531 440.089844 1418.269531 C 445.300781 1413.203125 450.800781 1408.425781 457.746094 1406.546875 C 459.339844 1407.847656 462.089844 1407.992188 465.707031 1407.847656 C 477.429688 1407.703125 487.558594 1410.308594 498.703125 1413.78125 C 502.175781 1414.941406 505.941406 1416.097656 509.847656 1416.820312 C 502.03125 1417.691406 493.925781 1417.109375 487.125 1414.652344 C 486.257812 1414.363281 485.679688 1415.664062 486.546875 1416.097656 C 495.953125 1420.730469 504.492188 1422.464844 514.914062 1420.441406 C 523.015625 1418.847656 532.132812 1415.230469 538.359375 1409.296875 C 541.398438 1412.914062 542.554688 1417.835938 542.554688 1422.320312 Z M 492.191406 867.59375 C 488.863281 875.84375 485.097656 883.949219 482.929688 892.632812 C 481.191406 899.722656 480.613281 907.105469 480.613281 914.484375 C 480.179688 914.773438 479.746094 915.207031 479.453125 915.640625 C 477.429688 916.800781 475.691406 918.535156 473.8125 919.839844 C 471.496094 921.578125 469.035156 923.023438 466.285156 924.179688 C 460.929688 926.496094 455.285156 927.945312 449.496094 927.945312 C 448.339844 927.945312 448.484375 929.535156 449.496094 929.679688 C 455.71875 930.40625 462.089844 929.679688 467.878906 927.367188 C 470.191406 926.351562 472.363281 925.195312 474.535156 923.890625 C 474.101562 924.617188 473.667969 925.484375 473.085938 926.207031 C 471.640625 928.234375 470.335938 930.113281 468.890625 931.996094 C 467.296875 933.878906 465.417969 935.613281 463.535156 937.351562 C 462.523438 938.21875 463.824219 940.246094 465.128906 939.378906 C 467.152344 937.929688 469.179688 936.195312 471.0625 934.457031 C 472.941406 932.863281 474.96875 930.984375 476.558594 929.101562 C 478.152344 927.21875 479.597656 925.050781 480.902344 923.023438 C 481.335938 931.128906 481.769531 938.363281 485.097656 946.035156 C 489.152344 955.441406 487.558594 967.453125 487.847656 977.441406 C 487.992188 987.136719 487.992188 996.976562 488.574219 1006.675781 C 489.007812 1014.921875 490.019531 1023.171875 493.203125 1030.699219 C 496.386719 1038.367188 504.058594 1043.867188 506.230469 1051.828125 C 509.125 1062.246094 509.558594 1074.261719 509.558594 1085.113281 C 509.558594 1096.835938 508.6875 1108.558594 507.820312 1120.136719 C 507.675781 1122.308594 511.292969 1122.886719 511.726562 1120.714844 C 512.453125 1116.230469 512.886719 1111.597656 513.175781 1106.96875 C 514.042969 1109.863281 515.203125 1112.613281 516.214844 1115.363281 C 520.703125 1127.375 524.464844 1139.097656 526.78125 1151.6875 C 531.554688 1177.160156 532.277344 1203.355469 534.304688 1229.113281 C 536.332031 1254.875 539.082031 1280.492188 543.421875 1305.960938 C 544 1309.582031 544.726562 1313.34375 545.015625 1316.960938 C 544.726562 1316.960938 544.4375 1316.960938 544.144531 1316.816406 C 543.132812 1316.816406 542.121094 1317.105469 541.253906 1317.25 C 539.371094 1317.683594 537.632812 1318.410156 535.898438 1319.277344 C 532.570312 1321.015625 529.820312 1323.617188 527.503906 1326.511719 C 526.636719 1327.671875 528.515625 1329.117188 529.53125 1328.105469 C 531.84375 1325.789062 534.59375 1324.054688 537.632812 1322.75 C 538.503906 1322.460938 539.371094 1322.171875 540.382812 1321.882812 C 538.648438 1323.765625 537.054688 1325.789062 535.609375 1327.960938 C 532.277344 1332.59375 529.53125 1337.511719 527.359375 1342.867188 C 526.925781 1344.023438 528.660156 1344.605469 529.238281 1343.734375 C 532.277344 1339.105469 535.464844 1334.617188 538.792969 1330.277344 C 540.527344 1328.105469 542.265625 1326.078125 544 1324.054688 C 544.4375 1323.617188 544.871094 1323.183594 545.160156 1322.75 C 545.160156 1323.472656 545.160156 1324.34375 545.160156 1325.066406 C 544.582031 1332.15625 542.699219 1338.960938 541.105469 1345.90625 C 538.355469 1358.207031 536.332031 1370.507812 535.316406 1383.101562 C 535.027344 1386.285156 534.59375 1389.613281 535.027344 1392.941406 C 535.316406 1395.257812 536.476562 1397.140625 537.054688 1399.308594 C 539.226562 1405.96875 529.09375 1411.320312 523.886719 1413.636719 C 514.476562 1414.503906 506.953125 1412.769531 497.980469 1409.296875 C 489.875 1406.257812 481.914062 1403.941406 473.085938 1403.796875 C 470.625 1403.796875 468.167969 1403.796875 465.707031 1403.941406 C 462.8125 1404.085938 460.640625 1404.808594 460.496094 1400.902344 C 460.351562 1396.125 462.667969 1390.335938 463.679688 1385.5625 C 464.402344 1381.941406 464.835938 1378.035156 466.71875 1374.851562 C 467.878906 1377.457031 469.902344 1380.0625 471.929688 1382.085938 C 474.390625 1384.402344 477.574219 1385.996094 480.757812 1387.007812 C 481.480469 1387.296875 482.492188 1386.71875 482.785156 1385.996094 C 483.074219 1385.269531 482.929688 1384.257812 482.058594 1383.96875 C 479.308594 1382.8125 477.429688 1381.21875 475.402344 1379.191406 C 474.96875 1378.613281 474.390625 1378.179688 473.957031 1377.601562 C 473.8125 1377.457031 473.664062 1377.3125 473.664062 1377.167969 C 475.113281 1377.890625 476.558594 1378.179688 478.152344 1378.324219 C 483.363281 1378.757812 488.574219 1378.757812 493.78125 1378.902344 C 495.664062 1378.902344 495.664062 1376.152344 493.78125 1376.007812 C 489.296875 1375.71875 484.953125 1375.429688 480.46875 1375.140625 C 476.996094 1374.851562 473.085938 1374.273438 471.640625 1370.65625 C 471.640625 1370.507812 471.496094 1370.507812 471.496094 1370.363281 C 473.375 1369.351562 475.257812 1368.484375 476.996094 1367.324219 C 481.191406 1364.140625 482.058594 1359.222656 479.597656 1354.589844 C 477.863281 1351.117188 475.402344 1348.222656 473.8125 1344.75 C 471.929688 1340.550781 470.769531 1335.921875 470.046875 1331.433594 C 467.441406 1314.210938 470.191406 1296.699219 468.167969 1279.476562 C 465.851562 1259.796875 460.207031 1240.546875 450.367188 1223.179688 C 449.929688 1222.457031 448.628906 1222.890625 448.917969 1223.757812 C 456.15625 1242.285156 461.507812 1261.53125 463.101562 1281.359375 C 464.546875 1299.015625 461.652344 1317.105469 464.835938 1334.472656 C 465.5625 1338.234375 466.574219 1342 468.023438 1345.472656 C 469.613281 1349.378906 472.507812 1352.5625 474.390625 1356.472656 C 476.851562 1361.828125 472.796875 1363.851562 469.035156 1366.601562 C 466.863281 1368.195312 464.691406 1370.074219 463.390625 1372.535156 C 462.667969 1373.984375 462.234375 1375.574219 461.796875 1377.167969 C 460.496094 1376.734375 459.484375 1376.441406 458.324219 1375.285156 C 457.167969 1374.273438 456.15625 1372.96875 455.140625 1371.8125 C 452.679688 1368.917969 450.21875 1366.3125 447.472656 1363.851562 C 446.167969 1362.695312 445.15625 1361.390625 443.851562 1360.378906 C 442.261719 1359.222656 440.8125 1357.917969 439.222656 1356.90625 C 436.328125 1354.878906 433.433594 1352.707031 430.25 1350.972656 C 427.210938 1349.378906 424.027344 1348.222656 420.550781 1348.078125 C 418.816406 1348.078125 417.222656 1348.222656 416.066406 1346.628906 C 415.34375 1345.617188 414.617188 1343.445312 415.050781 1342.144531 C 415.632812 1340.550781 417.367188 1340.839844 418.816406 1340.550781 C 420.40625 1340.261719 421.855469 1339.539062 423.15625 1338.671875 C 425.472656 1337.078125 427.066406 1334.90625 427.933594 1332.300781 C 434.878906 1337.078125 441.972656 1341.421875 449.785156 1344.605469 C 452.390625 1345.617188 453.40625 1341.566406 450.945312 1340.550781 C 441.972656 1336.933594 433.433594 1332.59375 426.050781 1326.222656 C 423.589844 1324.054688 423.011719 1324.199219 423.589844 1319.855469 C 423.734375 1318.988281 424.171875 1318.121094 424.316406 1317.25 C 424.75 1313.34375 423.734375 1308.710938 423.15625 1304.949219 C 420.550781 1286.425781 414.761719 1268.335938 411.289062 1249.953125 C 407.816406 1231.429688 407.527344 1212.617188 407.671875 1193.800781 C 407.816406 1178.027344 407.527344 1162.253906 403.328125 1147.054688 C 407.09375 1150.675781 411.144531 1154.292969 414.90625 1157.910156 C 420.550781 1163.265625 425.90625 1169.054688 429.378906 1176 C 433 1183.527344 433 1192.933594 439.511719 1198.722656 C 439.800781 1199.011719 440.234375 1198.722656 440.089844 1198.289062 C 434.011719 1185.550781 434.589844 1171.371094 425.183594 1160.082031 C 416.5 1149.660156 404.199219 1142.714844 396.671875 1131.28125 C 393.199219 1126.214844 391.605469 1120.425781 390.882812 1114.347656 C 391.753906 1115.507812 392.476562 1116.519531 393.34375 1117.53125 C 396.671875 1121.441406 401.59375 1125.058594 406.949219 1124.480469 C 408.539062 1124.335938 408.539062 1122.019531 406.949219 1122.019531 C 402.171875 1121.875 398.699219 1117.675781 395.949219 1114.203125 C 394.355469 1112.175781 393.054688 1110.007812 391.753906 1107.835938 C 391.171875 1106.96875 390.59375 1105.953125 390.160156 1105.085938 C 390.160156 1104.796875 390.160156 1104.507812 390.160156 1104.21875 C 390.449219 1104.363281 390.59375 1104.507812 390.882812 1104.652344 C 392.332031 1105.664062 394.066406 1106.242188 395.804688 1106.824219 C 398.988281 1107.980469 402.460938 1108.703125 405.933594 1108.847656 C 407.382812 1108.992188 407.816406 1106.386719 406.222656 1106.242188 C 403.039062 1105.808594 400 1104.941406 397.105469 1103.640625 C 395.660156 1103.058594 394.355469 1102.191406 392.910156 1101.46875 C 392.042969 1101.035156 391.171875 1100.453125 390.160156 1100.164062 C 390.015625 1094.085938 390.015625 1088.007812 389.292969 1082.363281 C 388.132812 1073.96875 386.253906 1065.433594 383.070312 1057.617188 C 380.03125 1050.089844 375.542969 1043.722656 371.492188 1036.921875 C 367.292969 1029.972656 366.859375 1022.304688 367.003906 1014.488281 C 367.148438 1014.199219 367.292969 1013.765625 367.148438 1013.332031 C 367.148438 1013.1875 367.003906 1013.1875 367.003906 1013.042969 C 367.003906 1010.148438 367.148438 1007.253906 367.003906 1004.359375 C 366.859375 992.78125 366.714844 981.347656 365.703125 969.769531 C 365.703125 969.191406 364.976562 969.191406 364.832031 969.769531 C 363.820312 980.1875 363.386719 990.609375 362.953125 1001.03125 C 362.953125 1001.609375 362.953125 1002.042969 362.808594 1002.621094 C 358.320312 989.015625 356.585938 974.980469 356.148438 960.363281 C 355.714844 943.285156 354.414062 925.773438 350.359375 909.273438 C 346.019531 891.472656 336.613281 875.84375 330.246094 858.910156 C 323.441406 840.964844 321.707031 821.425781 323.585938 802.324219 C 323.730469 802.324219 323.730469 802.46875 323.875 802.46875 C 324.167969 803.046875 324.3125 803.769531 324.746094 804.351562 C 325.46875 805.652344 326.480469 807.097656 327.496094 808.113281 C 329.519531 810.285156 332.125 812.019531 334.730469 813.324219 C 335.597656 813.757812 336.613281 813.613281 337.046875 812.742188 C 337.480469 811.875 337.191406 810.863281 336.46875 810.429688 C 335.890625 810.140625 335.308594 809.703125 334.730469 809.269531 C 334.585938 809.125 334.441406 808.980469 334.296875 808.980469 C 334.441406 809.125 334.296875 808.980469 334.152344 808.835938 C 333.863281 808.691406 333.574219 808.402344 333.429688 808.257812 C 332.996094 807.824219 332.414062 807.390625 331.980469 806.808594 C 331.691406 806.519531 331.546875 806.375 331.257812 806.085938 C 331.113281 805.941406 331.113281 805.796875 330.96875 805.796875 C 330.96875 805.796875 330.535156 805.21875 330.824219 805.652344 C 330.824219 805.507812 330.679688 805.507812 330.535156 805.363281 C 332.996094 806.085938 335.453125 806.664062 337.914062 806.808594 C 339.074219 806.953125 340.230469 805.652344 340.230469 804.496094 C 340.230469 803.191406 339.21875 802.324219 337.914062 802.179688 C 336.179688 801.890625 334.152344 801.457031 332.269531 800.875 C 332.703125 800.875 332.996094 800.875 333.429688 800.875 C 339.363281 800.730469 345.296875 800.007812 351.085938 798.996094 C 356.441406 798.125 361.648438 796.824219 366.859375 795.085938 C 366.425781 795.523438 366.136719 795.957031 365.847656 796.390625 C 364.109375 798.417969 362.375 800.585938 360.78125 802.757812 C 357.597656 807.246094 354.847656 812.019531 352.675781 816.941406 C 351.953125 818.53125 354.269531 819.835938 354.992188 818.242188 C 357.308594 813.46875 360.058594 808.835938 363.097656 804.496094 C 364.109375 803.191406 365.121094 801.890625 366.136719 800.585938 C 364.976562 803.046875 364.109375 805.652344 363.386719 808.257812 C 362.953125 809.847656 365.269531 810.429688 365.703125 808.835938 C 366.714844 805.507812 368.164062 802.324219 369.898438 799.429688 C 370.765625 797.980469 371.636719 796.535156 372.648438 795.085938 C 373.371094 794.074219 374.386719 792.917969 374.820312 791.613281 C 377.425781 790.457031 380.03125 789.152344 382.488281 787.707031 C 379.015625 793.351562 376.699219 799.285156 376.84375 805.652344 C 376.554688 806.230469 376.410156 806.808594 376.121094 807.390625 C 374.386719 811.296875 371.492188 814.625 369.753906 818.386719 C 369.175781 819.546875 369.175781 820.703125 369.320312 821.859375 C 367.582031 824.175781 366.425781 826.925781 365.121094 829.53125 C 363.53125 832.859375 361.9375 836.1875 360.347656 839.371094 C 359.625 840.820312 358.898438 842.265625 359.042969 843.859375 C 359.1875 845.304688 360.203125 846.753906 361.503906 847.476562 C 362.953125 848.199219 364.542969 847.765625 365.847656 846.753906 C 365.992188 846.609375 366.136719 846.464844 366.28125 846.320312 C 366.425781 849.214844 367.003906 852.109375 367.582031 854.859375 C 369.03125 860.648438 371.636719 866.292969 374.820312 871.355469 C 377.859375 876.132812 381.476562 880.765625 385.671875 884.671875 C 387.84375 886.699219 390.304688 888.578125 392.765625 890.316406 C 394.066406 891.183594 395.515625 892.488281 397.105469 893.210938 C 395.371094 896.25 393.488281 899.289062 391.609375 902.183594 C 390.882812 903.339844 392.621094 904.933594 393.632812 903.773438 C 395.371094 901.75 396.960938 899.578125 398.554688 897.40625 C 398.699219 897.550781 398.699219 897.695312 398.84375 897.984375 C 399.277344 898.421875 399.566406 898.710938 400.144531 899.144531 C 401.160156 900.011719 402.171875 900.734375 403.332031 901.316406 C 405.5 902.328125 407.671875 903.195312 410.132812 903.773438 C 411.144531 904.066406 412.304688 903.484375 412.449219 902.472656 C 412.738281 901.460938 412.160156 900.445312 411.144531 900.15625 C 410.710938 900.011719 410.132812 899.867188 409.699219 899.578125 C 409.554688 899.578125 409.410156 899.433594 409.265625 899.433594 C 409.265625 899.433594 409.265625 899.433594 409.117188 899.433594 C 408.828125 899.289062 408.683594 899.289062 408.394531 899.144531 C 407.382812 898.710938 406.515625 898.128906 405.5 897.550781 C 405.355469 897.40625 405.210938 897.40625 405.066406 897.261719 C 405.644531 897.261719 406.226562 897.261719 406.949219 897.117188 C 410.710938 896.828125 414.328125 896.394531 418.09375 895.671875 C 419.25 895.527344 418.960938 893.5 417.800781 893.644531 C 414.617188 893.933594 411.433594 894.222656 408.25 894.367188 C 410.277344 893.644531 412.304688 892.921875 414.183594 892.050781 C 419.394531 889.882812 424.316406 887.421875 429.089844 884.527344 C 430.683594 883.515625 429.234375 881.054688 427.644531 881.921875 C 422.867188 884.527344 417.945312 886.84375 412.738281 888.722656 C 410.277344 889.59375 407.671875 890.460938 405.066406 891.183594 C 404.199219 891.472656 403.476562 891.617188 402.605469 891.761719 C 404.632812 888.722656 406.515625 885.539062 408.25 882.210938 C 410.277344 878.449219 412.304688 874.539062 414.039062 870.632812 C 414.90625 868.605469 415.777344 866.726562 416.644531 864.699219 C 417.222656 863.253906 418.09375 861.660156 418.238281 860.070312 C 419.105469 860.648438 419.828125 861.082031 420.695312 861.660156 C 421.566406 862.238281 422.867188 862.09375 423.734375 861.226562 C 430.539062 854.28125 436.328125 846.609375 441.683594 838.503906 C 451.378906 837.347656 461.21875 836.480469 470.917969 836.332031 C 476.125 836.1875 481.335938 836.480469 486.546875 836.914062 C 486.691406 836.914062 486.980469 836.914062 487.125 836.914062 C 486.257812 837.636719 485.242188 838.359375 484.375 839.226562 C 481.914062 841.542969 479.746094 844.148438 477.71875 846.753906 C 477.285156 847.332031 477.574219 848.492188 478.152344 848.925781 C 478.730469 849.359375 479.746094 849.359375 480.324219 848.78125 C 482.492188 846.320312 484.808594 844.148438 487.125 841.976562 C 488.28125 840.964844 489.441406 839.808594 490.597656 838.792969 C 491.175781 838.359375 491.613281 837.78125 492.046875 837.347656 C 492.191406 837.347656 492.191406 837.347656 492.335938 837.347656 C 492.046875 837.925781 491.757812 838.503906 491.46875 838.9375 C 490.453125 840.820312 489.585938 842.847656 488.863281 844.871094 C 487.414062 849.070312 486.257812 853.265625 485.390625 857.609375 C 485.097656 858.910156 486.980469 859.488281 487.414062 858.1875 C 488.71875 854.136719 490.453125 850.226562 492.335938 846.464844 C 493.347656 844.582031 494.21875 842.703125 495.085938 840.820312 C 495.375 840.097656 495.808594 839.371094 496.097656 838.792969 C 496.675781 840.964844 497.257812 842.992188 498.125 845.015625 C 496.964844 852.542969 495.085938 859.925781 492.191406 867.59375 Z M 399.132812 889.011719 C 398.121094 888.289062 396.960938 887.566406 395.949219 886.988281 C 393.632812 885.539062 391.464844 883.804688 389.4375 882.066406 C 385.238281 878.449219 381.1875 874.6875 377.859375 870.199219 C 374.53125 865.710938 372.070312 860.648438 370.476562 855.292969 C 369.609375 852.542969 369.03125 849.648438 368.742188 846.753906 C 368.453125 844.148438 368.886719 841.253906 368.164062 838.9375 C 368.019531 838.359375 367.003906 838.070312 366.714844 838.792969 C 366.28125 839.808594 365.992188 840.964844 365.847656 842.121094 C 365.125 842.414062 364.398438 842.703125 363.675781 843.425781 C 363.53125 843.570312 363.242188 843.714844 363.097656 843.859375 C 363.097656 843.859375 363.097656 843.859375 362.953125 843.859375 C 362.953125 843.714844 362.808594 843.570312 362.808594 843.425781 C 362.519531 842.265625 363.386719 841.109375 363.675781 840.097656 C 364.253906 838.792969 364.832031 837.492188 365.269531 836.1875 C 366.28125 833.585938 367.4375 831.125 368.453125 828.519531 C 369.03125 827.070312 369.609375 825.769531 370.042969 824.320312 C 371.78125 826.78125 375.109375 828.808594 377.28125 830.691406 C 389.003906 840.386719 401.449219 849.503906 414.183594 857.753906 C 413.027344 858.765625 412.738281 860.359375 412.015625 861.949219 C 411.144531 864.121094 410.277344 866.148438 409.410156 868.316406 C 407.671875 872.226562 405.789062 876.277344 403.910156 880.039062 C 402.460938 882.933594 400.871094 885.972656 399.132812 889.011719 Z M 498.125 764.40625 C 498.558594 774.535156 499.859375 784.667969 500.875 794.796875 C 502.753906 813.613281 504.636719 832.28125 506.664062 851.097656 C 497.835938 841.542969 498.125 826.347656 497.257812 813.902344 C 496.675781 806.953125 495.664062 800.152344 492.914062 793.640625 C 490.019531 786.550781 486.835938 779.601562 486.546875 771.785156 C 486.546875 770.917969 485.390625 770.773438 485.097656 771.640625 C 482.496094 779.601562 485.96875 786.550781 488.863281 793.929688 C 492.335938 802.902344 492.914062 811.875 493.492188 821.425781 C 493.636719 825.191406 493.925781 828.953125 494.507812 832.714844 C 493.347656 832.714844 492.335938 832.714844 491.175781 832.714844 C 488.71875 832.570312 486.113281 832.136719 483.652344 831.992188 C 478.585938 831.703125 473.519531 831.703125 468.601562 831.847656 C 459.773438 832.136719 451.378906 833.441406 442.839844 835.609375 C 455.285156 816.074219 464.691406 794.652344 477.285156 775.261719 C 482.203125 767.589844 487.703125 760.355469 493.78125 753.550781 C 495.375 751.816406 496.964844 750.078125 498.414062 748.34375 C 497.835938 753.550781 497.835938 759.339844 498.125 764.40625 Z M 540.238281 341.234375 C 540.382812 345.429688 539.949219 349.339844 539.226562 353.535156 C 538.503906 357.007812 537.488281 360.625 537.488281 364.101562 C 537.054688 364.101562 536.765625 364.101562 536.332031 364.390625 C 536.042969 364.535156 535.898438 364.679688 535.753906 364.96875 C 535.171875 365.113281 534.738281 365.402344 534.304688 365.546875 C 531.121094 366.996094 528.082031 369.164062 525.765625 371.914062 C 523.160156 375.097656 521.425781 378.863281 520.847656 382.914062 C 520.703125 384.363281 522.726562 384.941406 523.015625 383.492188 C 524.464844 378.28125 528.082031 373.652344 532.570312 370.757812 C 532.132812 375.097656 533.582031 380.453125 534.160156 383.925781 C 535.027344 388.703125 535.898438 393.480469 536.765625 398.109375 C 537.632812 403.03125 538.9375 407.804688 539.949219 412.582031 C 539.949219 412.871094 540.527344 412.871094 540.527344 412.4375 C 540.09375 408.53125 539.949219 404.476562 539.371094 400.570312 C 538.792969 396.375 538.210938 392.175781 537.488281 387.980469 C 536.910156 383.925781 536.1875 379.875 535.753906 375.824219 C 535.464844 372.929688 535.753906 370.179688 537.921875 368.296875 C 538.066406 368.875 538.210938 369.453125 538.503906 369.890625 C 539.804688 372.492188 541.832031 374.664062 543.132812 377.269531 C 544.582031 380.453125 544.726562 383.78125 544.582031 387.257812 C 544.4375 393.480469 544.4375 399.269531 546.027344 405.347656 C 547.621094 411.570312 550.082031 417.503906 551.816406 423.582031 C 553.84375 430.527344 554.566406 437.621094 554.277344 444.855469 C 553.84375 452.527344 552.683594 460.339844 550.949219 467.722656 C 549.355469 474.8125 546.460938 481.617188 544.726562 488.707031 C 544.4375 490.011719 546.316406 491.023438 546.894531 489.71875 C 550.949219 480.890625 554.277344 471.050781 556.59375 461.210938 C 556.738281 467.433594 557.027344 473.511719 556.882812 479.734375 C 556.59375 490.734375 555 501.441406 551.960938 512.007812 C 549.210938 521.558594 545.738281 530.964844 542.84375 540.519531 C 541.105469 546.308594 538.648438 552.386719 536.910156 558.464844 C 535.609375 549.347656 534.304688 540.375 534.015625 531.257812 C 533.726562 519.824219 533.726562 508.101562 533.871094 496.667969 C 533.871094 495.796875 532.570312 495.796875 532.570312 496.667969 C 531.410156 507.519531 530.109375 518.085938 529.964844 529.085938 C 529.820312 539.214844 530.6875 549.058594 531.84375 559.042969 C 533.148438 569.171875 534.59375 579.738281 532.425781 589.871094 C 530.398438 599.710938 525.476562 608.539062 523.304688 618.378906 C 521.28125 627.785156 521.136719 637.484375 520.703125 647.179688 C 520.265625 657.890625 518.964844 668.453125 517.515625 679.019531 C 517.226562 681.191406 516.9375 683.359375 516.648438 685.386719 C 515.925781 688.859375 515.347656 692.332031 514.769531 695.664062 C 514.042969 698.992188 513.175781 702.320312 512.019531 705.648438 C 508.542969 715.34375 500.585938 723.160156 492.480469 729.238281 C 491.902344 729.671875 492.191406 730.832031 493.058594 730.539062 C 499.859375 727.792969 505.070312 723.304688 509.269531 717.949219 C 507.820312 722.292969 505.941406 726.488281 503.480469 730.539062 C 498.558594 738.933594 491.757812 745.449219 485.535156 752.683594 C 480.324219 758.90625 475.835938 765.5625 471.640625 772.65625 C 454.996094 800.585938 443.707031 832.136719 420.699219 855.871094 C 408.105469 847.910156 395.949219 839.519531 384.371094 830.253906 C 381.765625 828.085938 379.015625 825.914062 376.410156 823.742188 C 373.953125 821.71875 372.503906 821.570312 373.660156 817.953125 C 374.242188 816.21875 375.542969 814.335938 376.410156 812.597656 C 378.292969 808.546875 379.597656 804.496094 380.609375 800.296875 C 382.78125 795.378906 385.09375 790.601562 388.277344 785.96875 C 393.054688 779.3125 398.265625 773.089844 403.332031 766.722656 C 413.605469 753.839844 419.539062 739.660156 424.027344 724.027344 C 426.484375 715.632812 428.511719 706.949219 430.828125 698.558594 C 433.289062 690.019531 437.339844 681.625 439.222656 673.085938 C 440.089844 669.46875 440.089844 665.703125 439.367188 662.085938 C 438.933594 659.769531 437.773438 657.308594 437.917969 654.851562 C 438.0625 651.957031 439.65625 650.074219 441.539062 648.191406 C 444.722656 644.71875 448.195312 641.824219 447.183594 636.757812 C 447.035156 635.890625 445.589844 635.890625 445.445312 636.757812 C 444.433594 641.96875 439.222656 644.574219 436.039062 648.628906 C 435.894531 642.257812 437.195312 635.746094 437.917969 629.378906 C 438.789062 621.996094 440.089844 614.761719 441.101562 607.378906 C 442.984375 594.355469 442.984375 578.292969 450.945312 567.292969 C 457.746094 558.03125 445.734375 556.292969 443.707031 548.042969 C 442.117188 541.675781 442.695312 534.441406 442.550781 527.925781 C 442.40625 520.835938 442.261719 513.890625 442.117188 506.796875 C 442.117188 504.917969 439.222656 504.917969 439.222656 506.796875 C 439.222656 513.890625 439.367188 520.835938 439.367188 527.925781 C 439.367188 530.820312 439.222656 533.859375 439.222656 536.898438 C 439.222656 536.898438 439.222656 536.753906 439.222656 536.753906 C 438.789062 536.03125 437.917969 536.175781 437.484375 536.753906 C 436.328125 538.492188 436.328125 541.097656 436.039062 543.125 C 435.75 545.292969 435.3125 547.464844 434.734375 549.636719 C 433.578125 554.121094 432.128906 558.320312 430.105469 562.371094 C 429.378906 563.675781 431.261719 564.832031 432.128906 563.53125 C 434.011719 560.636719 435.605469 557.449219 436.761719 554.121094 C 436.90625 557.015625 436.90625 559.910156 437.050781 562.804688 C 437.050781 564.542969 439.65625 564.542969 439.800781 562.804688 C 440.089844 558.753906 440.378906 554.703125 440.523438 550.648438 C 441.25 553.253906 442.550781 555.714844 444.722656 557.597656 C 445.300781 558.175781 446.167969 558.464844 446.746094 559.042969 C 448.917969 561.359375 448.773438 563.09375 447.039062 565.554688 C 445.878906 567.148438 445.011719 568.882812 444.433594 570.910156 C 442.40625 576.988281 441.972656 583.789062 440.667969 590.015625 C 439.367188 596.816406 437.628906 603.617188 436.328125 610.421875 C 435.023438 616.933594 433.722656 623.589844 433.144531 630.246094 C 432.566406 636.757812 433.867188 642.984375 435.460938 649.207031 C 435.167969 649.640625 434.878906 650.074219 434.589844 650.652344 C 433.289062 653.402344 433.433594 656.296875 433.867188 659.191406 C 434.878906 665.269531 435.316406 669.46875 433.289062 675.402344 C 427.644531 691.898438 424.171875 708.832031 419.683594 725.621094 C 415.054688 742.84375 406.804688 757.023438 395.226562 770.484375 C 391.609375 774.679688 387.554688 779.3125 383.9375 784.234375 C 383.792969 784.234375 383.503906 784.089844 383.359375 784.234375 C 372.070312 787.707031 360.78125 791.324219 349.203125 793.351562 C 343.269531 794.363281 337.191406 794.941406 331.113281 795.230469 C 326.046875 795.523438 321.128906 795.230469 316.0625 795.378906 C 317.507812 787.273438 322.140625 779.890625 323.007812 771.640625 C 323.585938 766.578125 322.429688 761.65625 321.5625 756.734375 C 320.691406 751.671875 320.113281 746.171875 317.945312 741.539062 C 317.363281 740.382812 315.773438 741.105469 315.628906 742.117188 C 315.050781 747.039062 316.496094 752.25 317.363281 757.171875 C 317.507812 757.894531 317.652344 758.761719 317.796875 759.484375 C 314.179688 759.917969 304.484375 761.511719 303.035156 758.472656 C 302.3125 756.878906 304.050781 751.671875 304.484375 749.933594 C 304.917969 747.90625 305.351562 746.027344 305.929688 744.144531 C 308.246094 735.027344 311.285156 726.199219 314.324219 717.371094 C 320.113281 700.148438 324.023438 683.359375 325.613281 665.125 C 327.351562 645.734375 329.667969 627.640625 336.902344 609.40625 C 340.375 600.433594 344.136719 591.460938 347.03125 582.199219 C 349.925781 572.792969 351.230469 563.386719 352.964844 553.6875 C 353.113281 552.964844 352.097656 552.675781 351.808594 553.398438 C 350.070312 559.1875 348.046875 564.976562 346.019531 570.765625 C 345.296875 562.660156 344.574219 554.554688 345.875 546.164062 C 347.324219 536.03125 351.230469 526.335938 356.003906 517.21875 C 365.414062 499.707031 377.714844 483.207031 390.015625 467.722656 C 402.171875 452.527344 415.199219 437.910156 429.378906 424.59375 C 436.183594 418.226562 443.996094 412.148438 449.640625 404.765625 C 453.40625 399.847656 455.285156 394.058594 455.429688 388.125 C 460.640625 390.585938 466.863281 389.570312 472.363281 386.820312 C 483.21875 381.320312 493.058594 373.363281 503.191406 366.851562 C 504.058594 366.269531 503.769531 364.824219 502.609375 364.824219 C 494.941406 365.113281 488.429688 362.796875 482.058594 358.890625 C 485.390625 357.441406 488.574219 356.140625 491.902344 354.980469 C 502.175781 351.363281 512.886719 349.195312 523.453125 346.152344 C 527.9375 344.851562 535.753906 342.96875 540.09375 338.917969 C 540.09375 339.496094 540.238281 340.367188 540.238281 341.234375 Z M 538.503906 330.089844 C 539.082031 332.40625 538.066406 334.140625 536.332031 335.589844 C 533.292969 338.339844 528.804688 339.640625 525.042969 340.800781 C 517.226562 343.40625 509.269531 345.140625 501.453125 347.746094 C 486.980469 352.667969 473.085938 358.746094 460.929688 368.296875 C 460.207031 368.875 461.21875 370.179688 461.945312 369.597656 C 467.585938 365.691406 473.667969 362.507812 479.890625 359.613281 C 485.097656 364.246094 491.757812 366.414062 498.558594 366.707031 C 491.757812 370.613281 484.808594 374.375 478.007812 378.136719 C 471.0625 382.046875 461.21875 387.546875 454.417969 380.308594 C 452.535156 378.28125 449.496094 380.453125 450.078125 382.914062 C 452.824219 395.792969 444.433594 403.609375 435.460938 411.136719 C 428.078125 417.359375 421.132812 424.160156 414.328125 431.25 C 401.015625 445 388.714844 459.472656 377.570312 474.957031 C 369.03125 486.679688 360.203125 499.273438 353.402344 512.441406 C 353.980469 510.707031 354.414062 509.113281 354.992188 507.375 C 358.898438 496.523438 364.398438 486.101562 370.765625 476.550781 C 371.347656 475.828125 370.042969 475.101562 369.609375 475.828125 C 362.664062 484.800781 357.308594 494.640625 353.257812 505.207031 C 354.703125 500.429688 356.441406 495.796875 358.320312 491.167969 C 363.675781 477.5625 371.203125 465.261719 379.160156 453.105469 C 395.371094 428.503906 414.617188 406.503906 438.789062 389.425781 C 439.800781 388.703125 438.933594 387.402344 437.917969 387.835938 C 435.894531 388.847656 434.011719 390.003906 431.984375 391.019531 C 432.273438 387.109375 431.550781 382.769531 431.117188 379.007812 C 430.828125 376.257812 430.105469 373.796875 431.40625 371.335938 C 431.839844 370.46875 432.566406 369.890625 433.289062 369.308594 C 434.011719 368.875 434.734375 368.441406 435.460938 368.007812 C 436.183594 367.574219 436.90625 367.285156 437.628906 366.851562 C 447.183594 361.785156 456.878906 357.007812 466.863281 352.523438 C 476.851562 348.035156 486.980469 343.839844 497.402344 340.074219 C 502.175781 338.339844 506.953125 336.601562 511.875 335.15625 C 514.625 334.285156 517.371094 333.5625 520.121094 332.695312 C 521.136719 332.40625 530.253906 330.378906 530.109375 330.8125 C 529.09375 333.128906 531.84375 335.589844 533.726562 333.707031 C 535.753906 331.683594 535.753906 328.644531 534.015625 326.617188 C 535.898438 326.617188 537.777344 327.484375 538.503906 330.089844 Z M 526.636719 305.054688 C 526.34375 305.199219 526.199219 305.199219 526.054688 305.632812 C 526.054688 305.777344 525.910156 305.921875 525.910156 306.210938 C 522.871094 309.828125 517.371094 308.238281 513.175781 304.183594 C 512.597656 303.605469 512.019531 303.027344 511.582031 302.449219 C 511.875 302.449219 512.164062 302.304688 512.453125 302.011719 C 513.464844 301.144531 514.1875 299.699219 514.769531 298.539062 C 515.492188 297.238281 516.070312 296.078125 516.648438 294.777344 C 517.808594 292.171875 518.675781 289.566406 519.398438 286.816406 C 520.847656 281.460938 521.136719 275.671875 520.703125 270.175781 C 520.703125 269.449219 519.6875 269.449219 519.6875 270.175781 C 519.398438 275.671875 518.097656 280.738281 516.359375 285.949219 C 515.492188 288.410156 514.332031 290.871094 513.175781 293.332031 C 512.597656 294.488281 512.019531 295.5 511.292969 296.515625 C 510.714844 297.527344 509.992188 298.539062 509.414062 299.699219 C 508.109375 297.816406 506.953125 295.933594 505.941406 294.054688 C 505.214844 292.605469 504.636719 291.304688 504.058594 289.855469 C 504.203125 289.710938 504.203125 289.710938 504.347656 289.566406 C 508.253906 284.066406 511.003906 277.265625 512.886719 270.753906 C 514.769531 264.242188 515.492188 257.292969 515.347656 250.492188 C 515.347656 249.769531 514.332031 249.769531 514.1875 250.492188 C 513.609375 257.148438 512.164062 263.660156 509.992188 270.03125 C 508.109375 275.527344 505.359375 280.304688 502.464844 285.082031 C 499.136719 274.371094 498.992188 263.082031 496.820312 251.9375 C 496.675781 250.636719 496.53125 249.1875 496.386719 247.886719 C 495.953125 244.125 495.953125 239.925781 494.074219 236.597656 C 490.886719 230.664062 483.074219 229.652344 476.996094 231.097656 C 470.628906 232.546875 464.695312 236.164062 461.800781 242.386719 C 459.484375 247.453125 460.640625 256.136719 456.878906 260.621094 C 453.40625 252.375 453.117188 243.109375 450.945312 234.425781 C 449.929688 230.230469 448.484375 226.035156 446.167969 222.414062 C 445.011719 220.535156 443.5625 219.085938 442.117188 217.351562 C 441.25 216.335938 439.945312 215.035156 440.234375 213.585938 C 440.523438 212.574219 442.695312 210.835938 443.417969 210.257812 C 450.078125 203.890625 456.878906 196.074219 457.3125 186.378906 C 457.457031 183.773438 457.023438 181.167969 456.300781 178.855469 C 456.589844 178.273438 456.300781 177.40625 455.574219 177.117188 C 453.839844 173.210938 450.800781 170.171875 446.3125 168.722656 C 445.589844 168.433594 445.15625 169.589844 445.734375 169.878906 C 448.628906 171.617188 450.367188 174.078125 451.523438 176.828125 C 444.140625 176.25 436.328125 176.25 428.367188 176.25 C 419.683594 176.25 410.277344 176.539062 403.332031 170.605469 C 396.960938 165.25 393.921875 157 394.792969 149.328125 C 395.660156 152.078125 396.960938 154.539062 398.988281 156.710938 C 402.894531 161.050781 408.539062 163.367188 414.328125 163.222656 C 415.199219 163.222656 416.066406 162.5 416.066406 161.488281 C 416.066406 160.472656 415.34375 159.894531 414.328125 159.75 C 409.84375 159.171875 405.5 156.566406 402.605469 153.09375 C 401.160156 151.5 400.144531 149.328125 399.277344 147.449219 C 398.988281 146.726562 398.84375 145.855469 398.554688 145.132812 C 398.988281 145.710938 399.421875 146.289062 399.855469 146.726562 C 402.027344 149.039062 405.5 149.910156 408.539062 150.199219 C 415.921875 151.066406 423.589844 150.777344 431.117188 150.054688 C 432.417969 149.910156 432.566406 147.882812 431.117188 147.882812 C 424.75 147.882812 418.527344 147.59375 412.160156 147.015625 C 409.410156 146.726562 406.660156 146.433594 404.199219 145.132812 C 401.882812 143.832031 401.015625 141.804688 400.4375 139.34375 C 400.292969 138.910156 400 138.765625 399.710938 138.476562 C 400.871094 137.171875 402.316406 135.871094 403.910156 134.859375 C 409.554688 131.238281 416.933594 129.648438 423.300781 132.109375 C 429.671875 134.566406 434.445312 140.066406 439.800781 144.265625 C 444.140625 147.738281 449.0625 150.632812 454.707031 150.777344 C 462.523438 150.777344 469.46875 145.566406 477.285156 146.144531 C 477.285156 148.027344 477.285156 149.910156 477.140625 151.644531 C 477.140625 152.660156 478.152344 153.527344 479.164062 153.238281 C 483.21875 152.078125 487.269531 151.644531 491.46875 151.789062 C 491.613281 152.949219 491.613281 153.960938 491.757812 155.117188 C 491.757812 156.132812 492.769531 156.855469 493.78125 156.710938 C 501.453125 154.828125 509.414062 155.988281 516.359375 159.316406 C 521.859375 161.921875 525.042969 165.683594 528.082031 170.171875 C 526.054688 169.589844 523.886719 169.15625 522.003906 168.867188 C 517.664062 168 513.320312 167.566406 508.980469 167.566406 C 499.859375 167.566406 490.742188 169.15625 482.058594 172.339844 C 481.191406 172.628906 481.480469 174.078125 482.496094 173.789062 C 490.886719 171.183594 499.714844 170.171875 508.542969 170.75 C 512.886719 171.039062 517.226562 171.617188 521.425781 172.628906 C 524.753906 173.355469 528.226562 174.945312 531.554688 175.523438 C 531.699219 175.667969 531.699219 175.8125 531.84375 175.8125 C 530.398438 175.667969 528.949219 175.667969 527.648438 175.523438 C 524.175781 175.378906 520.558594 175.523438 517.082031 175.960938 C 510.28125 176.828125 503.769531 178.855469 497.691406 181.746094 C 496.386719 182.328125 497.257812 184.496094 498.703125 184.0625 C 504.925781 181.746094 511.292969 180.445312 517.808594 179.867188 C 520.992188 179.578125 524.175781 179.433594 527.359375 179.578125 C 528.949219 179.578125 530.542969 179.722656 532.132812 179.867188 C 533.148438 180.011719 534.304688 180.15625 535.320312 180.011719 C 537.632812 182.472656 540.238281 184.640625 543.421875 186.8125 C 547.910156 189.851562 547.621094 192.601562 544.582031 196.65625 C 542.84375 198.824219 541.542969 200.5625 540.671875 203.167969 C 540.238281 204.324219 541.976562 205.484375 542.84375 204.46875 C 545.304688 201.574219 549.355469 198.679688 551.382812 195.207031 C 552.539062 194.628906 553.554688 193.90625 554.566406 193.035156 C 553.699219 196.65625 552.105469 199.984375 549.5 203.167969 C 548.199219 204.757812 549.355469 207.21875 551.527344 206.640625 C 554.132812 206.0625 556.449219 204.757812 558.472656 203.3125 C 556.304688 207.507812 554.421875 211.996094 552.828125 216.480469 C 550.082031 224.441406 550.226562 232.980469 548.054688 241.085938 C 544.292969 255.269531 535.464844 267.136719 530.542969 280.738281 C 528.226562 287.105469 528.226562 293.476562 527.792969 300.132812 C 527.792969 302.011719 527.359375 303.75 526.636719 305.054688 Z M 335.164062 229.941406 Z M 334.875 230.085938 C 334.875 230.085938 335.019531 229.941406 335.019531 229.941406 C 335.019531 230.085938 335.019531 230.085938 334.875 230.085938 Z M 444.433594 1423.1875 C 443.996094 1422.898438 444.722656 1423.332031 444.433594 1423.1875 Z M 444.433594 1423.1875 " fill-opacity="1" fill-rule="nonzero"/></g></svg>