<svg xmlns="http://www.w3.org/2000/svg" xmlns:xlink="http://www.w3.org/1999/xlink" width="1080" zoomAndPan="magnify" viewBox="0 0 810 809.999993" height="1080" preserveAspectRatio="xMidYMid meet" version="1.0"><defs><clipPath id="be489feeb8"><path d="M 170 81 L 735.75 81 L 735.75 735.75 L 170 735.75 Z M 170 81 " clip-rule="nonzero"/></clipPath><clipPath id="47cfb39c24"><path d="M 81 81 L 498 81 L 498 735.75 L 81 735.75 Z M 81 81 " clip-rule="nonzero"/></clipPath></defs><g clip-path="url(#be489feeb8)"><path fill="#a78bfa" d="M 661.441406 81 L 482.84375 81 C 474.628906 81 467.960938 87.667969 467.960938 95.882812 L 467.960938 229.832031 L 185.179688 229.832031 C 176.964844 229.832031 170.296875 236.5 170.296875 244.714844 L 170.296875 334.011719 C 170.296875 342.226562 176.964844 348.894531 185.179688 348.894531 C 193.398438 348.894531 200.066406 342.226562 200.066406 334.011719 L 200.066406 259.597656 L 482.84375 259.597656 C 491.058594 259.597656 497.726562 252.929688 497.726562 244.714844 L 497.726562 110.765625 L 587.023438 110.765625 L 587.023438 363.777344 C 587.023438 371.992188 593.691406 378.660156 601.90625 378.660156 C 610.125 378.660156 616.789062 371.992188 616.789062 363.777344 L 616.789062 110.765625 L 661.441406 110.765625 C 686.058594 110.765625 706.089844 130.796875 706.089844 155.414062 L 706.089844 438.195312 L 423.3125 438.195312 C 415.09375 438.195312 408.425781 444.863281 408.425781 453.078125 L 408.425781 527.492188 L 214.949219 527.492188 C 206.730469 527.492188 200.066406 534.160156 200.066406 542.375 L 200.066406 601.90625 C 200.066406 610.125 206.730469 616.789062 214.949219 616.789062 C 223.164062 616.789062 229.832031 610.125 229.832031 601.90625 L 229.832031 557.257812 L 423.3125 557.257812 C 431.527344 557.257812 438.195312 550.589844 438.195312 542.375 L 438.195312 467.960938 L 587.023438 467.960938 L 587.023438 542.375 C 587.023438 550.589844 593.691406 557.257812 601.90625 557.257812 C 610.125 557.257812 616.789062 550.589844 616.789062 542.375 L 616.789062 467.960938 L 706.089844 467.960938 L 706.089844 661.441406 C 706.089844 686.058594 686.058594 706.089844 661.441406 706.089844 L 616.789062 706.089844 L 616.789062 661.441406 C 616.789062 653.222656 610.125 646.558594 601.90625 646.558594 C 593.691406 646.558594 587.023438 653.226562 587.023438 661.441406 L 587.023438 720.972656 C 587.023438 729.1875 593.691406 735.855469 601.90625 735.855469 L 661.441406 735.855469 C 702.488281 735.855469 735.855469 702.488281 735.855469 661.441406 L 735.855469 155.414062 C 735.855469 114.367188 702.488281 81 661.441406 81 Z M 661.441406 81 " fill-opacity="1" fill-rule="nonzero"/></g><g clip-path="url(#47cfb39c24)"><path fill="#a78bfa" d="M 482.84375 646.558594 C 474.628906 646.558594 467.960938 653.226562 467.960938 661.441406 L 467.960938 706.089844 L 378.660156 706.089844 L 378.660156 661.441406 C 378.660156 653.222656 371.992188 646.558594 363.777344 646.558594 C 355.5625 646.558594 348.894531 653.226562 348.894531 661.441406 L 348.894531 706.089844 L 155.414062 706.089844 C 130.796875 706.089844 110.765625 686.058594 110.765625 661.441406 L 110.765625 438.195312 L 304.246094 438.195312 C 312.460938 438.195312 319.128906 431.527344 319.128906 423.3125 L 319.128906 348.894531 L 482.84375 348.894531 C 491.058594 348.894531 497.726562 342.226562 497.726562 334.011719 C 497.726562 325.796875 491.058594 319.128906 482.84375 319.128906 L 304.246094 319.128906 C 296.03125 319.128906 289.363281 325.796875 289.363281 334.011719 L 289.363281 408.425781 L 110.765625 408.425781 L 110.765625 155.414062 C 110.765625 130.796875 130.796875 110.765625 155.414062 110.765625 L 229.832031 110.765625 L 229.832031 155.414062 C 229.832031 163.632812 236.5 170.296875 244.714844 170.296875 C 252.929688 170.296875 259.597656 163.632812 259.597656 155.414062 L 259.597656 110.765625 L 348.894531 110.765625 L 348.894531 155.414062 C 348.894531 163.632812 355.5625 170.296875 363.777344 170.296875 C 371.992188 170.296875 378.660156 163.632812 378.660156 155.414062 L 378.660156 95.882812 C 378.660156 87.667969 371.992188 81 363.777344 81 L 155.414062 81 C 114.398438 81 81 114.367188 81 155.414062 L 81 661.441406 C 81 702.488281 114.398438 735.855469 155.414062 735.855469 L 482.84375 735.855469 C 491.058594 735.855469 497.726562 729.1875 497.726562 720.972656 L 497.726562 661.441406 C 497.726562 653.226562 491.058594 646.558594 482.84375 646.558594 Z M 482.84375 646.558594 " fill-opacity="1" fill-rule="nonzero"/></g></svg>