<svg xmlns="http://www.w3.org/2000/svg" xmlns:xlink="http://www.w3.org/1999/xlink" width="1080" zoomAndPan="magnify" viewBox="0 0 810 809.999993" height="1080" preserveAspectRatio="xMidYMid meet" version="1.0"><defs><clipPath id="4b4c6c415b"><path d="M 33.0625 41 L 777 41 L 777 769.5 L 33.0625 769.5 Z M 33.0625 41 " clip-rule="nonzero"/></clipPath></defs><g clip-path="url(#4b4c6c415b)"><path fill="#e4e4e7" d="M 434.917969 53.839844 C 434.917969 53.691406 434.84375 53.542969 434.992188 53.542969 C 436.476562 52.800781 438.039062 52.058594 439.75 51.238281 C 442.648438 49.902344 445.992188 48.488281 449.785156 47.152344 C 457.367188 44.550781 466.804688 42.246094 477.4375 41.425781 C 488.066406 40.535156 499.960938 41.128906 512.078125 43.804688 C 524.117188 46.554688 535.121094 51.164062 544.335938 56.589844 C 553.628906 61.945312 561.0625 68.113281 566.785156 73.761719 C 572.511719 79.488281 576.449219 84.617188 578.902344 88.332031 C 581.355469 92.050781 582.398438 94.355469 582.101562 94.578125 C 581.28125 95.171875 575.707031 87.070312 563.960938 76.8125 C 558.089844 71.757812 550.65625 66.179688 541.660156 61.273438 C 532.742188 56.292969 522.1875 52.132812 510.738281 49.53125 C 499.289062 47.003906 487.992188 46.183594 477.808594 46.78125 C 467.625 47.300781 458.480469 49.082031 450.972656 51.089844 C 447.257812 52.132812 443.910156 53.246094 440.9375 54.210938 C 440.195312 54.511719 439.527344 54.734375 438.855469 55.03125 C 438.484375 55.179688 438.113281 55.253906 437.742188 55.402344 C 437.59375 55.699219 437.667969 56.070312 437.59375 56.367188 C 437.59375 56.964844 437.519531 57.484375 437.519531 58.078125 C 437.371094 62.539062 437.074219 64.992188 436.625 64.992188 C 436.253906 64.992188 435.734375 62.613281 435.214844 58.152344 C 435.140625 57.558594 435.066406 56.964844 434.992188 56.367188 C 434.917969 55.921875 434.917969 55.476562 434.84375 55.03125 L 434.769531 54.289062 Z M 573.105469 90.933594 C 578.234375 96.65625 583.214844 104.464844 587.082031 113.828125 C 590.945312 123.195312 593.695312 134.046875 594.664062 145.71875 C 594.738281 146.535156 594.8125 147.429688 594.8125 148.246094 C 595.480469 148.617188 596.148438 149.0625 596.894531 149.585938 C 598.75 151.070312 600.609375 153.300781 601.949219 156.347656 C 603.285156 159.398438 603.878906 163.484375 603.0625 167.648438 C 602.246094 171.8125 600.089844 176.121094 596.820312 179.839844 C 593.546875 183.628906 589.160156 186.679688 584.332031 188.980469 C 583.4375 189.429688 582.472656 189.800781 581.578125 190.246094 C 581.878906 190.691406 582.175781 191.285156 582.398438 192.03125 C 583.140625 194.335938 582.992188 197.976562 581.132812 201.246094 C 579.425781 204.296875 576.671875 206.226562 574.371094 206.898438 C 574.445312 207.640625 574.445312 208.382812 574.519531 209.203125 C 574.59375 211.058594 574.667969 212.917969 574.742188 214.925781 C 574.816406 216.335938 574.816406 217.75 574.890625 219.089844 C 574.519531 219.164062 574.144531 219.238281 573.773438 219.3125 C 574.964844 223.027344 576.449219 229.71875 579.273438 236.929688 C 579.722656 238.117188 580.167969 239.234375 580.613281 240.273438 C 584.105469 239.011719 591.839844 237.003906 602.394531 234.550781 C 604.25 234.105469 606.183594 233.65625 608.265625 233.210938 C 610.273438 232.765625 612.355469 232.171875 614.957031 231.875 C 616.21875 231.800781 617.632812 231.726562 619.191406 232.097656 C 620.679688 232.46875 622.390625 233.359375 623.503906 234.847656 C 624.695312 236.332031 625.140625 238.265625 625.066406 239.976562 C 624.992188 241.761719 624.398438 243.320312 623.578125 244.734375 C 623.28125 245.179688 622.984375 245.699219 622.613281 246.144531 C 623.132812 247.929688 624.023438 250.011719 625.214844 252.390625 C 626.476562 254.992188 628.113281 257.890625 629.226562 261.832031 C 629.75 263.761719 629.972656 266.066406 629.527344 268.519531 C 629.453125 269.191406 629.226562 269.859375 629.003906 270.453125 C 629.152344 270.453125 629.304688 270.378906 629.453125 270.378906 C 630.789062 270.230469 632.277344 270.230469 633.910156 270.898438 C 634.730469 271.269531 635.621094 271.867188 636.289062 272.832031 C 636.886719 273.796875 637.183594 274.914062 637.183594 276.027344 C 637.035156 278.332031 635.917969 279.746094 635.25 280.933594 C 634.582031 282.050781 634.359375 282.867188 634.359375 284.058594 C 634.359375 285.171875 634.582031 286.359375 635.175781 287.550781 C 635.695312 288.738281 636.511719 289.855469 637.480469 290.894531 C 638.445312 291.9375 639.5625 292.753906 640.972656 293.644531 C 643.722656 295.28125 647.070312 296.546875 650.710938 298.253906 C 654.355469 299.964844 657.773438 302.492188 660.449219 305.09375 C 663.199219 307.769531 665.429688 310.59375 667.363281 313.34375 C 671.226562 318.847656 674.277344 323.75 677.175781 327.617188 C 682.824219 335.421875 688.472656 337.949219 688.101562 338.84375 C 687.953125 339.140625 686.316406 338.992188 683.714844 337.800781 C 681.039062 336.613281 677.546875 334.160156 674.050781 330.367188 C 670.558594 326.652344 666.992188 321.671875 663.050781 316.691406 C 659.109375 311.5625 654.503906 306.582031 648.183594 303.605469 C 644.988281 302.046875 641.34375 300.707031 638 298.625 C 636.363281 297.585938 634.65625 296.320312 633.316406 294.761719 C 631.980469 293.273438 630.9375 291.566406 630.195312 289.707031 C 629.453125 287.847656 629.078125 285.839844 629.226562 283.832031 C 629.304688 281.828125 630.195312 279.746094 631.160156 278.480469 C 632.054688 277.21875 632.648438 276.25 632.722656 275.804688 C 632.722656 275.359375 632.796875 275.0625 632.203125 274.691406 C 631.605469 274.320312 630.640625 274.171875 629.75 274.171875 C 628.78125 274.171875 627.964844 274.246094 627.148438 274.542969 C 626.925781 274.617188 626.773438 274.617188 626.550781 274.691406 C 626.402344 274.839844 626.253906 274.988281 626.179688 275.136719 C 624.472656 276.996094 622.464844 278.40625 620.53125 279.671875 C 618.671875 280.933594 616.664062 282.273438 614.660156 283.609375 C 606.777344 289.039062 598.601562 295.652344 590.796875 303.382812 C 582.992188 311.113281 576.226562 319.21875 570.652344 326.949219 L 570.132812 327.691406 L 569.238281 328.957031 C 568.644531 329.773438 568.125 330.664062 567.53125 331.484375 C 566.9375 332.300781 566.414062 333.117188 565.894531 333.9375 C 565.820312 334.085938 565.746094 334.011719 565.671875 333.863281 L 565.375 333.5625 L 564.78125 332.96875 L 563.664062 331.78125 C 562.921875 330.960938 562.179688 330.21875 561.433594 329.402344 L 560.171875 328.0625 C 559.429688 327.320312 558.609375 326.578125 557.867188 325.832031 C 554.820312 322.933594 551.769531 320.480469 548.871094 318.324219 C 543.074219 314.089844 537.945312 311.261719 534.375 309.332031 C 530.808594 307.398438 528.726562 306.433594 528.875 305.984375 C 529.023438 305.613281 531.328125 305.910156 535.269531 307.25 C 539.207031 308.585938 544.859375 310.890625 551.25 314.90625 C 554.449219 316.914062 557.792969 319.292969 561.136719 322.191406 C 561.957031 322.933594 562.847656 323.675781 563.664062 324.421875 L 564.78125 325.460938 L 564.929688 325.609375 C 565.003906 325.609375 565.003906 325.683594 565.078125 325.683594 L 565.820312 324.570312 L 566.339844 323.828125 C 571.84375 315.648438 578.679688 307.175781 586.78125 299.148438 C 594.886719 291.117188 603.507812 284.429688 611.757812 279.078125 C 614.136719 277.441406 616.589844 276.101562 618.746094 274.765625 C 618.671875 274.691406 618.523438 274.617188 618.449219 274.542969 C 617.78125 274.023438 617.632812 273.5 617.78125 273.425781 C 618.003906 273.128906 618.96875 273.722656 620.605469 273.5 C 621.421875 272.90625 622.09375 272.386719 622.761719 271.71875 C 625.4375 269.191406 625.957031 266.066406 625.363281 262.796875 C 624.769531 259.527344 623.355469 256.480469 622.390625 253.726562 C 621.644531 251.722656 621.050781 249.789062 620.753906 248.078125 C 620.605469 248.152344 620.457031 248.300781 620.308594 248.375 C 618.96875 249.269531 617.484375 249.863281 616.070312 250.308594 C 613.171875 251.199219 610.570312 251.648438 608.042969 252.316406 C 602.839844 253.578125 597.5625 255.363281 592.359375 257.59375 C 581.953125 262.054688 572.734375 268.074219 565.375 274.542969 C 557.941406 281.082031 551.769531 287.921875 545.75 292.902344 C 539.804688 297.957031 534.078125 301.152344 529.84375 302.566406 C 527.539062 303.308594 525.753906 303.679688 524.566406 303.753906 C 524.863281 303.832031 525.234375 303.980469 525.53125 304.203125 C 527.242188 305.09375 528.355469 307.175781 528.355469 309.183594 C 528.429688 311.1875 527.390625 313.269531 525.679688 314.238281 C 524.042969 315.203125 522.484375 315.128906 521.367188 314.757812 C 520.253906 314.386719 519.585938 313.640625 519.285156 312.972656 C 518.988281 312.378906 519.136719 311.859375 519.4375 311.636719 C 520.105469 311.113281 521.070312 311.113281 521.8125 310.59375 C 522.1875 310.371094 522.484375 310.074219 522.484375 309.851562 C 522.484375 309.703125 522.410156 309.554688 522.484375 309.257812 C 522.484375 308.960938 522.484375 308.8125 522.484375 308.660156 C 522.484375 308.4375 522.1875 308.140625 521.8125 307.917969 C 521.070312 307.472656 520.03125 307.472656 519.4375 307.027344 C 519.136719 306.804688 518.988281 306.28125 519.210938 305.6875 C 519.4375 305.09375 520.105469 304.277344 521.21875 303.832031 C 521.738281 303.605469 522.410156 303.457031 523.078125 303.53125 C 523.300781 303.085938 525.457031 302.269531 528.875 300.484375 C 532.59375 298.550781 537.5 295.132812 542.925781 289.855469 C 548.351562 284.652344 554.148438 277.664062 561.730469 270.601562 C 567.976562 264.804688 575.558594 259.453125 584.105469 255.066406 C 583.511719 254.546875 582.917969 253.878906 582.25 253.132812 C 579.5 250.011719 576.300781 245.03125 573.996094 239.011719 C 571.691406 232.988281 570.800781 227.191406 570.800781 223.027344 C 570.800781 221.839844 570.875 220.722656 570.949219 219.832031 C 570.726562 219.90625 570.429688 219.90625 570.207031 219.980469 C 569.390625 220.128906 568.570312 220.203125 567.828125 220.351562 C 566.265625 220.574219 564.78125 220.796875 563.292969 221.019531 C 560.394531 221.390625 557.867188 221.617188 555.636719 221.765625 C 551.769531 221.988281 549.167969 221.839844 548.574219 221.316406 C 539.65625 223.25 527.167969 225.035156 513.191406 225.257812 C 509.699219 225.332031 506.351562 225.332031 503.082031 225.183594 C 499.886719 225.035156 496.613281 225.035156 493.269531 224.21875 C 491.632812 223.84375 489.925781 223.175781 488.4375 222.136719 C 486.953125 221.167969 485.761719 219.832031 484.871094 218.566406 C 483.160156 215.890625 482.492188 213.363281 481.820312 211.207031 C 480.707031 206.898438 479.445312 203.921875 477.957031 202.140625 C 476.542969 200.429688 475.207031 199.910156 475.28125 199.464844 C 475.28125 199.167969 477.066406 198.792969 479.445312 200.429688 C 481.820312 201.992188 484.125 205.558594 485.6875 209.796875 C 486.578125 211.878906 487.472656 214.035156 488.808594 215.742188 C 490.148438 217.453125 491.855469 218.417969 494.386719 218.941406 C 496.835938 219.460938 499.886719 219.386719 503.15625 219.386719 C 506.351562 219.386719 509.699219 219.386719 513.042969 219.3125 C 535.714844 218.941406 554.671875 216.1875 560.542969 216.1875 C 561.136719 216.039062 561.730469 215.890625 562.328125 215.742188 C 563.738281 215.445312 565.226562 215.074219 566.789062 214.703125 C 567.53125 214.554688 568.347656 214.40625 569.089844 214.183594 C 569.089844 212.546875 569.015625 210.910156 569.015625 209.351562 C 569.015625 207.640625 569.015625 206.003906 569.015625 204.445312 C 569.089844 201.320312 569.164062 198.496094 569.390625 196.117188 C 569.464844 195.449219 569.464844 194.855469 569.539062 194.261719 C 569.316406 194.335938 569.089844 194.410156 568.867188 194.410156 C 563.367188 195.894531 557.644531 197.085938 551.695312 198.050781 C 527.910156 201.695312 506.203125 200.503906 490.742188 199.316406 C 475.207031 197.976562 465.765625 196.492188 465.839844 195.671875 C 465.914062 194.855469 475.503906 194.855469 490.964844 195.152344 C 506.425781 195.300781 527.761719 195.820312 550.804688 192.253906 C 556.527344 191.359375 562.105469 190.246094 567.457031 188.832031 C 572.808594 187.496094 577.789062 186.007812 582.25 184.003906 C 586.710938 181.996094 590.574219 179.542969 593.398438 176.496094 C 596.296875 173.445312 598.304688 170.027344 599.199219 166.683594 C 600.164062 163.261719 599.941406 160.140625 599.046875 157.464844 C 598.230469 154.789062 596.820312 152.707031 595.480469 151.21875 C 595.332031 151.070312 595.183594 150.921875 595.035156 150.773438 C 595.109375 154.9375 594.738281 159.101562 593.546875 163.113281 C 591.988281 168.835938 588.566406 173.816406 584.554688 177.3125 C 576.449219 184.449219 566.9375 186.902344 559.355469 187.644531 C 551.695312 188.386719 545.601562 187.792969 541.4375 187.347656 C 537.277344 186.828125 534.972656 186.304688 534.972656 185.933594 C 534.972656 185.488281 537.351562 185.265625 541.511719 185.042969 C 545.675781 184.820312 551.695312 184.746094 558.832031 183.480469 C 562.402344 182.886719 566.191406 181.921875 569.984375 180.285156 C 573.773438 178.648438 577.640625 176.417969 580.910156 173.296875 C 584.183594 170.175781 586.785156 166.234375 588.046875 161.554688 C 589.3125 156.871094 589.386719 151.59375 588.9375 146.089844 C 588.046875 135.089844 585.519531 124.683594 582.175781 115.6875 C 578.753906 106.769531 574.445312 99.1875 569.984375 93.460938 C 565.523438 87.738281 561.285156 83.574219 558.089844 81.046875 C 554.96875 78.445312 553.109375 77.035156 553.332031 76.585938 C 553.480469 76.289062 555.785156 77.035156 559.429688 79.191406 C 562.996094 81.417969 567.976562 85.210938 573.105469 90.933594 Z M 581.28125 241.6875 C 583.4375 246.742188 585.667969 250.902344 586.933594 253.652344 C 587.898438 253.207031 588.863281 252.761719 589.90625 252.316406 C 595.40625 249.9375 601.054688 248.078125 606.554688 246.816406 C 609.308594 246.144531 612.058594 245.699219 614.289062 245.105469 C 616.515625 244.4375 618.300781 243.46875 619.117188 242.058594 C 621.050781 238.710938 619.566406 236.558594 615.476562 236.855469 C 613.617188 236.929688 611.386719 237.449219 609.308594 237.746094 C 607.226562 238.117188 605.292969 238.414062 603.359375 238.710938 C 592.804688 240.347656 585.074219 241.460938 581.28125 241.6875 Z M 578.53125 191.585938 C 576.746094 192.253906 574.890625 192.847656 572.957031 193.441406 C 573.105469 194.261719 573.253906 195.152344 573.402344 196.117188 C 573.625 197.679688 573.847656 199.464844 573.996094 201.394531 C 574.742188 200.503906 575.410156 199.539062 576.078125 198.421875 C 577.269531 196.265625 577.9375 194.1875 578.308594 192.476562 C 578.382812 192.179688 578.457031 191.882812 578.53125 191.585938 Z M 504.34375 183.925781 C 504.792969 183.925781 505.3125 183.925781 505.757812 183.925781 C 507.691406 183.925781 509.773438 183.925781 511.929688 183.851562 C 523.523438 183.480469 532.890625 181.847656 532.816406 180.210938 C 532.742188 178.574219 523.300781 177.609375 511.703125 177.980469 C 509.550781 178.054688 507.46875 178.128906 505.535156 178.277344 C 502.488281 178.5 499.589844 178.722656 496.988281 178.945312 C 497.878906 181.546875 498.769531 183.851562 499.4375 185.5625 C 499.960938 186.605469 500.40625 187.496094 500.851562 188.238281 C 501.742188 189.726562 502.488281 190.46875 502.933594 190.320312 C 503.453125 190.171875 503.601562 189.132812 503.527344 187.421875 C 503.527344 186.605469 503.378906 185.5625 503.230469 184.375 C 503.230469 183.851562 503.378906 183.703125 503.453125 183.554688 C 503.675781 183.628906 503.898438 183.703125 503.972656 183.777344 L 504.046875 183.851562 C 504.195312 183.925781 503.972656 183.925781 504.34375 183.925781 Z M 363.109375 164.003906 C 361.472656 161.703125 360.285156 158.875 360.210938 155.828125 C 360.0625 152.78125 361.25 149.882812 362.738281 147.800781 C 365.859375 143.488281 369.652344 141.332031 372.699219 138.878906 C 375.894531 136.5 378.867188 134.347656 381.542969 132.339844 C 389.273438 126.765625 395 122.824219 397.898438 121.261719 C 398.046875 119.703125 398.269531 118.066406 398.640625 116.28125 C 399.011719 113.828125 399.757812 111.300781 400.5 108.550781 C 402.210938 103.199219 404.589844 97.550781 407.933594 91.976562 C 411.351562 86.472656 415.21875 81.640625 419.15625 77.703125 C 421.164062 75.769531 423.097656 73.910156 425.105469 72.425781 C 427.035156 70.863281 428.96875 69.601562 430.753906 68.410156 C 437.964844 63.949219 443.09375 62.6875 443.316406 63.355469 C 443.6875 64.171875 439.300781 66.777344 433.132812 71.757812 C 431.570312 73.019531 429.9375 74.433594 428.226562 76.066406 C 426.441406 77.628906 424.808594 79.488281 423.023438 81.34375 C 419.527344 85.285156 416.035156 89.820312 412.914062 94.949219 C 409.867188 100.152344 407.414062 105.355469 405.554688 110.261719 C 404.738281 112.714844 403.84375 115.09375 403.324219 117.324219 C 402.65625 119.554688 402.210938 121.710938 401.761719 123.640625 C 400.203125 131.445312 399.980469 136.5 399.011719 136.574219 C 398.34375 136.652344 397.078125 131.59375 397.601562 123.34375 C 395 125.945312 390.316406 130.183594 383.996094 135.535156 C 381.394531 137.691406 378.570312 140.070312 375.597656 142.597656 C 372.550781 145.199219 369.054688 147.652344 367.046875 150.699219 C 366.082031 152.1875 365.5625 153.820312 365.636719 155.457031 C 365.710938 157.09375 366.453125 158.875 367.570312 160.511719 C 369.800781 163.707031 373.960938 165.789062 378.644531 167.5 C 416.851562 181.699219 449.710938 187.199219 449.410156 188.90625 C 449.335938 189.429688 444.878906 189.429688 437.296875 188.386719 C 439.449219 195.375 443.316406 212.621094 450.898438 231.726562 C 459.523438 253.875 470.078125 270.675781 471.488281 275.136719 C 475.207031 273.945312 477.363281 273.203125 477.585938 273.648438 C 477.957031 274.246094 472.457031 278.480469 461.972656 282.125 C 456.769531 283.90625 450.304688 285.46875 442.945312 286.136719 C 439.226562 286.433594 435.511719 286.660156 431.273438 286.210938 C 429.191406 285.988281 426.960938 285.542969 424.808594 284.652344 C 422.652344 283.757812 420.347656 282.347656 418.785156 280.117188 C 417.152344 277.960938 416.40625 275.285156 416.183594 272.980469 C 415.960938 270.675781 416.183594 268.519531 416.332031 266.589844 C 416.628906 262.796875 416.777344 259.230469 416.628906 255.808594 C 416.40625 248.894531 415.21875 242.800781 413.953125 237.671875 C 411.425781 228.15625 408.527344 222.359375 408.824219 221.316406 C 408.527344 221.316406 408.15625 221.316406 407.785156 221.316406 C 406.964844 221.316406 406.148438 221.242188 405.257812 221.09375 C 403.546875 220.796875 401.539062 220.277344 399.683594 218.789062 C 398.714844 218.046875 397.824219 217.007812 397.304688 215.667969 C 396.707031 214.40625 396.558594 212.917969 396.78125 211.582031 C 397.15625 208.902344 398.417969 206.972656 399.308594 205.261719 C 402.953125 199.09375 403.101562 192.402344 402.285156 187.644531 C 401.761719 184.375 400.871094 181.996094 400.648438 180.65625 C 393.066406 178.574219 385.039062 175.972656 376.710938 172.925781 C 371.878906 171.289062 366.527344 168.835938 363.109375 164.003906 Z M 445.695312 234.03125 C 445.695312 233.953125 445.621094 233.878906 445.621094 233.804688 C 445.398438 233.953125 445.101562 234.105469 444.804688 234.179688 C 443.613281 234.699219 442.5 234.996094 441.457031 235.144531 C 449.859375 258.78125 460.414062 276.027344 458.925781 276.996094 C 458.257812 277.441406 454.617188 273.277344 449.859375 265.84375 C 445.101562 258.410156 439.449219 247.410156 434.992188 234.625 C 430.53125 221.839844 428.152344 209.722656 427.261719 200.949219 C 426.441406 193.367188 426.589844 188.3125 427.113281 186.976562 C 420.273438 185.785156 412.246094 184 403.398438 181.625 C 404.363281 182.8125 405.40625 184.449219 406.296875 186.753906 C 407.339844 189.355469 407.933594 192.773438 407.859375 196.5625 C 407.710938 200.28125 406.59375 204.59375 404.4375 208.308594 C 403.472656 210.019531 402.65625 211.503906 402.507812 212.546875 C 402.359375 213.511719 402.582031 214.183594 403.25 214.925781 C 403.992188 215.667969 405.183594 216.261719 406.371094 216.636719 C 406.964844 216.859375 407.5625 216.933594 408.230469 217.082031 C 408.898438 217.15625 409.570312 217.304688 410.164062 217.378906 C 412.765625 217.75 415.070312 218.34375 416.480469 219.238281 C 417.894531 220.128906 418.339844 221.019531 418.117188 221.316406 C 417.894531 221.691406 417.078125 221.464844 415.738281 221.390625 C 414.398438 221.242188 412.542969 221.316406 410.015625 221.542969 C 409.867188 221.542969 409.644531 221.542969 409.492188 221.542969 C 410.832031 222.507812 414.699219 227.636719 418.117188 236.707031 C 419.976562 241.910156 421.683594 248.375 422.28125 255.734375 C 422.578125 259.378906 422.578125 263.316406 422.355469 267.257812 C 422.054688 271.121094 422.054688 274.617188 423.765625 276.847656 C 425.476562 279.152344 428.894531 280.339844 432.316406 280.785156 C 435.734375 281.230469 439.523438 281.15625 442.945312 281.007812 C 449.859375 280.710938 456.027344 279.671875 461.15625 278.40625 C 464.875 277.515625 467.996094 276.550781 470.597656 275.804688 C 468.960938 274.320312 465.914062 270.75 462.199219 265.472656 C 456.992188 257.890625 450.75 246.964844 445.695312 234.03125 Z M 442.277344 224.515625 C 441.605469 224.886719 440.9375 225.183594 440.121094 225.40625 C 439.523438 225.554688 438.855469 225.703125 438.261719 225.777344 C 438.78125 227.339844 439.226562 228.898438 439.824219 230.460938 C 440.492188 229.867188 441.382812 229.347656 442.351562 228.898438 C 442.796875 228.675781 443.167969 228.527344 443.613281 228.378906 C 443.167969 227.117188 442.722656 225.851562 442.277344 224.515625 Z M 435.363281 188.238281 C 433.132812 187.941406 430.679688 187.570312 428.003906 187.050781 C 429.414062 189.800781 431.644531 203.402344 436.625 220.5 C 437.148438 220.203125 437.742188 219.980469 438.410156 219.832031 C 439.152344 219.609375 439.972656 219.460938 440.640625 219.386719 C 438.558594 212.101562 437.148438 205.410156 436.328125 199.984375 C 435.585938 194.78125 435.363281 190.765625 435.363281 188.238281 Z M 401.167969 162.816406 L 401.761719 163.039062 C 403.25 163.632812 404.886719 164.230469 406.59375 164.75 C 415.441406 167.648438 422.949219 168.761719 423.394531 167.203125 C 423.839844 165.640625 417.152344 162.074219 408.527344 159.175781 C 406.816406 158.652344 405.257812 158.132812 403.695312 157.6875 C 402.507812 157.390625 401.316406 157.019531 400.203125 156.722656 C 398.9375 156.347656 397.675781 156.050781 396.558594 155.753906 C 396.410156 157.835938 396.261719 159.695312 396.1875 161.179688 C 396.1875 161.550781 396.1875 161.925781 396.1875 162.222656 C 396.1875 162.445312 396.1875 162.59375 396.261719 162.816406 C 396.335938 163.1875 396.335938 163.558594 396.410156 163.855469 C 396.632812 165.121094 397.003906 165.9375 397.453125 166.011719 C 397.972656 166.085938 398.492188 165.492188 399.085938 164.304688 C 399.234375 164.003906 399.382812 163.707031 399.53125 163.335938 C 399.609375 163.1875 399.683594 162.964844 399.757812 162.742188 C 399.832031 162.59375 399.90625 162.59375 399.90625 162.519531 C 400.128906 162.296875 400.277344 162.148438 400.425781 162.148438 C 400.574219 162.296875 400.722656 162.445312 400.796875 162.519531 C 400.796875 162.59375 400.871094 162.59375 400.871094 162.667969 C 400.796875 162.667969 401.019531 162.742188 401.167969 162.816406 Z M 551.25 104.835938 C 551.175781 104.6875 550.953125 104.613281 550.878906 104.464844 C 549.09375 102.976562 547.3125 101.414062 545.453125 99.855469 C 544.113281 98.738281 542.777344 97.625 541.363281 96.433594 C 535.640625 91.828125 529.246094 86.996094 522.1875 82.238281 C 508.210938 72.722656 494.609375 65.511719 484.574219 60.902344 C 474.464844 56.367188 467.921875 54.289062 467.625 55.03125 C 466.957031 56.589844 491.410156 68.335938 518.914062 87.070312 C 525.828125 91.753906 532.222656 96.359375 538.019531 100.671875 C 539.433594 101.789062 540.84375 102.828125 542.257812 103.867188 C 542.925781 104.390625 543.59375 104.910156 544.1875 105.355469 L 544.5625 105.578125 C 544.636719 105.652344 544.488281 105.800781 544.488281 105.949219 L 544.414062 106.097656 L 544.113281 106.542969 L 543.519531 107.511719 C 542.703125 108.847656 541.960938 110.113281 541.289062 111.375 C 538.6875 116.429688 537.425781 120.890625 536.832031 124.011719 C 536.234375 127.136719 536.382812 128.917969 536.753906 128.992188 C 537.648438 129.21875 539.207031 122.453125 544.859375 113.457031 C 545.601562 112.34375 546.34375 111.152344 547.238281 110.039062 C 547.757812 109.296875 548.351562 108.550781 548.945312 107.808594 C 549.394531 107.214844 549.839844 106.695312 550.285156 106.097656 L 550.953125 105.207031 Z M 540.027344 152.78125 C 538.539062 154.042969 537.277344 154.789062 537.351562 155.605469 C 537.351562 156.347656 539.058594 157.167969 541.734375 156.570312 C 544.414062 155.976562 547.980469 153.671875 549.617188 149.363281 C 551.175781 145.050781 549.988281 140.960938 548.351562 138.804688 C 546.714844 136.574219 544.933594 136.054688 544.414062 136.652344 C 543.816406 137.246094 544.335938 138.65625 544.636719 140.589844 C 544.933594 142.449219 545.082031 145.050781 544.1875 147.355469 C 543.296875 149.660156 541.511719 151.515625 540.027344 152.78125 Z M 531.476562 213.4375 C 548.945312 211.582031 562.105469 205.78125 561.582031 204.371094 C 561.0625 202.734375 547.609375 205.855469 530.882812 207.640625 C 514.15625 209.5 500.332031 209.277344 500.183594 210.984375 C 499.960938 212.472656 514.082031 215.371094 531.476562 213.4375 Z M 466.359375 236.707031 C 467.476562 237.300781 469.332031 237.671875 471.5625 237.300781 C 473.792969 236.929688 476.320312 235.738281 478.476562 233.507812 C 480.632812 231.277344 481.972656 228.082031 482.417969 224.8125 C 482.863281 221.542969 482.417969 218.34375 481.597656 215.742188 C 480.78125 213.140625 479.667969 210.984375 478.699219 209.351562 C 476.617188 206.003906 474.835938 204.371094 474.164062 204.742188 C 473.421875 205.113281 473.867188 207.492188 474.910156 211.058594 C 475.875 214.554688 477.289062 219.238281 476.617188 224.070312 C 476.320312 226.445312 475.503906 228.527344 474.386719 230.015625 C 473.273438 231.578125 471.785156 232.691406 470.375 233.359375 C 467.625 234.773438 465.320312 234.402344 465.023438 235.21875 C 464.800781 235.441406 465.246094 236.109375 466.359375 236.707031 Z M 466.285156 221.019531 C 466.730469 221.019531 467.179688 220.945312 467.625 220.945312 C 469.558594 224.589844 470.671875 227.636719 472.011719 227.5625 C 472.828125 227.488281 473.496094 226.148438 473.570312 223.769531 C 473.570312 222.433594 473.347656 220.796875 472.828125 219.015625 C 473.125 218.640625 473.347656 218.269531 473.273438 217.898438 C 473.273438 217.15625 472.605469 216.5625 471.5625 216.039062 C 471.414062 215.742188 471.191406 215.371094 471.042969 215.074219 C 469.183594 212.027344 466.65625 209.796875 464.578125 208.753906 C 462.496094 207.714844 460.933594 207.640625 460.488281 208.308594 C 459.820312 209.5 461.898438 211.878906 464.203125 215.296875 C 461.230469 215.742188 459.148438 216.859375 459.148438 218.195312 C 459.222656 219.832031 462.421875 221.09375 466.285156 221.019531 Z M 478.921875 283.832031 C 479.21875 281.53125 479.292969 279.523438 479.144531 277.441406 C 478.921875 273.425781 477.957031 269.785156 476.839844 266.8125 C 474.613281 260.9375 471.933594 257.667969 472.605469 257.074219 C 473.050781 256.554688 476.992188 258.855469 480.558594 265.027344 C 482.34375 268.074219 483.902344 272.164062 484.5 276.921875 C 484.796875 279.300781 484.796875 281.902344 484.648438 284.355469 C 484.421875 286.808594 484.199219 289.1875 484.347656 291.339844 C 484.5 295.503906 487.101562 298.847656 490 302.046875 C 492.824219 305.167969 495.871094 308.289062 497.582031 311.5625 C 499.066406 314.164062 499.664062 316.691406 499.664062 318.695312 C 499.886719 318.546875 500.183594 318.398438 500.40625 318.175781 C 508.953125 312.601562 513.859375 308.585938 514.457031 309.109375 C 515.050781 309.628906 511.035156 314.90625 502.933594 321.449219 C 498.917969 324.792969 494.085938 328.433594 489.105469 332.894531 C 484.199219 337.28125 479.292969 342.632812 475.949219 349.175781 C 474.3125 352.445312 473.273438 355.789062 472.828125 359.136719 C 472.457031 362.480469 472.679688 365.75 473.125 368.949219 C 474.164062 375.339844 476.023438 381.285156 476.992188 386.492188 C 477.957031 391.695312 478.105469 396.152344 477.585938 399.128906 C 477.363281 400.613281 476.992188 401.730469 476.691406 402.472656 C 476.394531 403.214844 476.097656 403.585938 475.949219 403.511719 C 475.726562 403.4375 475.652344 403.066406 475.503906 402.25 C 475.429688 401.507812 475.429688 400.390625 475.28125 398.980469 C 475.058594 396.226562 474.386719 392.289062 472.976562 387.457031 C 471.5625 382.625 469.332031 376.902344 467.847656 369.914062 C 467.550781 368.425781 467.328125 366.941406 467.179688 365.304688 C 466.65625 371.699219 465.691406 378.3125 464.351562 384.855469 C 461.527344 399.722656 457.960938 413.546875 455.878906 426.183594 C 453.722656 438.824219 453.054688 450.34375 453.648438 460.007812 C 453.945312 464.246094 454.464844 468.109375 455.136719 471.53125 C 455.730469 467.886719 456.695312 463.726562 458.109375 459.265625 C 460.710938 450.789062 465.097656 441.277344 470.671875 431.089844 C 476.246094 420.90625 483.234375 410.277344 491.261719 399.574219 C 507.394531 378.3125 524.339844 361.140625 536.828125 349.027344 C 549.394531 336.984375 557.496094 329.996094 558.089844 330.515625 C 558.683594 331.109375 551.546875 339.140625 539.804688 351.925781 C 528.132812 364.710938 511.777344 382.179688 495.945312 403.066406 C 488.066406 413.546875 481.078125 423.882812 475.355469 433.691406 C 469.632812 443.503906 465.023438 452.574219 461.972656 460.527344 C 459.148438 467.8125 457.664062 474.058594 456.769531 478.664062 C 457.144531 480.003906 457.515625 481.195312 457.886719 482.308594 C 458.332031 483.570312 458.703125 484.6875 459.074219 485.726562 C 459.445312 486.695312 459.746094 487.511719 460.042969 488.179688 C 460.5625 489.519531 460.710938 490.335938 460.5625 490.410156 C 460.414062 490.484375 459.894531 489.964844 459 488.703125 C 458.628906 488.179688 458.183594 487.511719 457.664062 486.695312 C 457.960938 489.371094 458.257812 492.566406 458.480469 496.132812 C 458.554688 497.992188 458.703125 499.925781 458.851562 501.933594 C 458.925781 502.972656 458.925781 504.015625 459 505.054688 L 459 505.425781 C 459 505.5 459 505.425781 459 505.5 C 459 505.5 459 505.5 459 505.574219 L 460.265625 505.574219 L 461.601562 505.648438 C 463.386719 505.722656 465.246094 505.796875 467.179688 505.945312 C 490.222656 507.507812 507.988281 514.050781 507.46875 515.535156 C 507.023438 517.171875 489.105469 513.304688 466.730469 511.746094 C 464.875 511.597656 463.089844 511.523438 461.304688 511.375 C 458.628906 511.226562 455.953125 511.152344 453.425781 511 C 453.425781 508.996094 453.425781 506.988281 453.351562 505.054688 C 453.351562 504.015625 453.351562 502.972656 453.351562 501.933594 C 453.425781 499.925781 453.425781 497.992188 453.5 496.132812 C 453.574219 492.492188 453.722656 489.222656 453.945312 486.472656 C 454.019531 485.355469 454.09375 484.242188 454.242188 483.347656 C 454.167969 482.308594 454.167969 481.042969 454.167969 479.632812 C 452.238281 474.726562 450.378906 468.183594 449.335938 460.230469 C 448.148438 450.269531 448.445312 438.226562 450.304688 425.21875 C 452.164062 412.136719 455.582031 398.234375 458.332031 383.589844 C 461.15625 369.023438 462.570312 354.972656 461.453125 342.335938 C 460.933594 335.941406 460.042969 329.847656 459.746094 323.902344 C 459.371094 318.027344 459.671875 312.378906 460.636719 307.324219 C 461.976562 300.632812 464.800781 295.058594 468.070312 291.265625 C 465.691406 291.9375 461.976562 292.605469 457.21875 293.273438 C 448.59375 294.390625 436.253906 295.578125 422.652344 293.050781 C 415.886719 291.863281 409.570312 289.632812 404.289062 286.957031 C 399.011719 284.28125 394.554688 281.304688 391.058594 278.703125 C 383.996094 273.425781 380.207031 269.5625 380.652344 268.96875 C 381.171875 268.296875 385.855469 270.898438 393.363281 275.210938 C 397.082031 277.367188 401.539062 279.820312 406.667969 282.050781 C 411.722656 284.28125 417.523438 286.136719 423.839844 287.328125 C 436.476562 289.632812 448.371094 289.261719 456.996094 289.1875 C 463.3125 289.113281 467.921875 289.113281 470.003906 289.484375 C 471.117188 288.515625 472.234375 287.699219 473.347656 287.105469 C 475.207031 286.136719 477.066406 285.765625 478.476562 285.765625 C 478.773438 285.171875 478.847656 284.503906 478.921875 283.832031 Z M 481.226562 299.964844 C 479.742188 297.660156 478.625 294.613281 478.476562 291.640625 C 478.402344 290.152344 478.402344 288.738281 478.550781 287.402344 C 477.4375 287.625 476.097656 288.21875 474.6875 289.1875 C 470.523438 292.011719 466.285156 299 464.949219 308.214844 C 464.277344 312.898438 464.277344 318.101562 464.800781 323.675781 C 465.320312 329.328125 466.359375 335.347656 467.03125 341.964844 C 467.476562 346.125 467.699219 350.511719 467.625 354.898438 C 468.21875 352 469.257812 349.101562 470.671875 346.425781 C 474.539062 338.839844 480.113281 333.117188 485.539062 328.65625 C 489.703125 325.238281 493.789062 322.488281 497.359375 320.035156 C 496.910156 318.398438 496.09375 316.09375 494.085938 313.640625 C 492.230469 311.1875 489.476562 308.808594 486.058594 305.6875 C 484.421875 304.128906 482.640625 302.34375 481.226562 299.964844 Z M 449.484375 186.527344 C 475.28125 191.808594 496.761719 190.46875 496.761719 188.90625 C 496.761719 187.199219 475.875 185.859375 450.675781 180.730469 C 425.476562 175.75 405.628906 168.910156 405.035156 170.472656 C 404.363281 171.960938 423.617188 181.398438 449.484375 186.527344 Z M 481.226562 354.082031 C 480.558594 354.75 479.59375 355.046875 479.144531 355.714844 C 478.921875 356.085938 478.996094 356.535156 479.367188 357.054688 C 479.742188 357.574219 480.558594 358.09375 481.671875 358.242188 C 482.789062 358.390625 484.125 358.167969 485.464844 357.351562 C 486.726562 356.535156 488.066406 354.972656 488.363281 352.890625 C 488.585938 350.734375 487.695312 348.953125 486.652344 347.910156 C 485.539062 346.796875 484.273438 346.273438 483.160156 346.125 C 482.046875 345.976562 481.152344 346.273438 480.632812 346.722656 C 480.113281 347.167969 479.964844 347.613281 480.113281 347.984375 C 480.410156 348.726562 481.226562 349.25 481.746094 350.066406 C 482.34375 350.808594 482.714844 352 482.566406 352.222656 C 482.566406 352.445312 481.972656 353.558594 481.226562 354.082031 Z M 668.847656 336.761719 C 666.246094 335.347656 663.71875 333.785156 660.746094 332.300781 C 657.847656 330.886719 654.28125 329.625 650.265625 330.144531 C 646.175781 330.738281 642.832031 333.414062 640.675781 336.238281 C 638.371094 339.066406 636.886719 342.113281 635.324219 345.085938 C 633.761719 348.058594 632.054688 351.03125 630.714844 354.230469 C 627.742188 360.472656 625.140625 367.015625 622.835938 373.777344 C 618.152344 387.308594 614.660156 401.65625 611.910156 416.523438 C 606.480469 446.183594 603.878906 474.578125 599.71875 500.074219 C 597.785156 512.785156 594.8125 524.828125 594.214844 536.722656 C 593.546875 548.542969 595.554688 560.0625 600.90625 568.984375 C 606.257812 577.976562 614.660156 583.554688 622.835938 585.1875 C 626.925781 586.007812 630.863281 585.855469 634.285156 584.742188 C 637.703125 583.777344 640.527344 582.140625 642.757812 580.28125 C 647.292969 576.640625 649.222656 572.328125 649.894531 569.503906 C 650.5625 566.605469 650.265625 564.96875 650.117188 565.042969 C 649.820312 565.042969 649.746094 566.53125 648.777344 569.207031 C 647.8125 571.808594 645.65625 575.523438 641.34375 578.574219 C 637.183594 581.621094 630.789062 583.777344 623.652344 582.066406 C 626.179688 582.066406 628.335938 581.324219 629.601562 580.503906 C 631.234375 579.464844 631.753906 578.421875 631.53125 578.125 C 631.085938 577.382812 627.667969 579.613281 622.390625 577.902344 C 619.789062 577.085938 617.1875 575.375 614.957031 572.476562 C 612.726562 569.652344 610.941406 565.785156 609.308594 561.550781 C 602.765625 544.453125 603.953125 528.992188 602.171875 528.84375 C 601.425781 528.769531 600.089844 532.558594 599.71875 538.953125 C 599.347656 545.34375 600.238281 554.339844 603.730469 563.632812 C 604.847656 566.53125 606.109375 569.429688 607.746094 572.03125 C 606.480469 570.542969 605.367188 568.910156 604.402344 567.125 C 599.792969 559.023438 598.15625 548.390625 598.972656 537.242188 C 599.71875 526.015625 602.839844 514.050781 604.921875 501.191406 C 606.703125 491.230469 608.191406 480.746094 609.679688 470.042969 C 608.785156 482.828125 609.082031 491.078125 609.976562 491.078125 C 611.683594 491.230469 614.585938 466.328125 619.714844 435.996094 C 624.769531 405.667969 630.121094 381.210938 628.484375 380.765625 C 627.59375 380.46875 624.171875 389.464844 620.605469 403.585938 C 622.761719 394 625.289062 384.707031 628.261719 375.785156 C 630.492188 369.171875 633.019531 362.851562 635.769531 356.757812 C 637.035156 353.632812 638.667969 350.808594 640.15625 347.835938 C 641.640625 344.9375 643.128906 342.039062 644.914062 339.808594 C 646.699219 337.503906 648.777344 335.941406 651.007812 335.570312 C 653.3125 335.199219 655.988281 335.941406 658.515625 337.132812 C 661.117188 338.320312 663.792969 339.882812 666.394531 341.292969 C 668.996094 342.707031 671.597656 344.121094 674.125 345.457031 C 684.238281 351.03125 693.824219 355.9375 702.226562 360.84375 C 704.160156 361.960938 705.941406 363.074219 707.726562 364.265625 C 707.503906 364.117188 707.28125 364.042969 707.058594 363.894531 C 701.257812 360.992188 695.609375 358.914062 690.628906 356.90625 C 685.648438 354.898438 681.261719 352.964844 677.695312 351.179688 C 670.558594 347.539062 666.769531 344.195312 666.097656 344.789062 C 665.503906 345.234375 668.476562 349.84375 675.539062 354.75 C 679.03125 357.128906 683.492188 359.582031 688.472656 361.886719 C 693.453125 364.191406 698.953125 366.496094 704.457031 369.171875 C 709.882812 371.847656 714.789062 374.894531 718.578125 378.3125 C 722.371094 381.734375 725.121094 385.449219 726.90625 388.871094 C 730.472656 395.78125 730.027344 400.984375 730.917969 401.058594 C 731.214844 401.058594 731.589844 400.390625 731.886719 399.054688 C 732.109375 401.953125 731.960938 404.332031 731.664062 406.113281 C 731.214844 408.941406 730.695312 410.351562 730.992188 410.425781 C 731.140625 410.5 732.035156 409.164062 732.851562 406.339844 C 733.667969 403.511719 734.265625 399.054688 733.371094 393.476562 C 732.480469 387.902344 729.878906 381.210938 724.972656 374.820312 C 720.066406 368.425781 712.855469 362.554688 704.457031 357.351562 C 695.980469 352.148438 686.617188 347.019531 676.578125 341.292969 C 673.976562 339.660156 671.449219 338.246094 668.847656 336.761719 Z M 676.207031 581.25 C 676.730469 580.503906 671.597656 576.789062 664.6875 569.503906 C 657.699219 562.292969 649.300781 551.21875 642.238281 537.6875 C 635.101562 524.085938 630.121094 511 626.328125 501.5625 C 622.539062 492.121094 619.9375 486.25 619.191406 486.546875 C 618.449219 486.769531 619.640625 493.011719 622.464844 502.898438 C 625.289062 512.710938 629.75 526.390625 637.109375 540.4375 C 644.46875 554.5625 653.90625 565.859375 661.9375 572.550781 C 669.816406 579.316406 675.835938 581.84375 676.207031 581.25 Z M 773.214844 610.609375 C 770.984375 616.261719 768.605469 621.835938 766.078125 627.78125 C 764.816406 630.753906 763.550781 633.730469 762.214844 636.777344 C 761.542969 638.335938 760.875 639.824219 760.207031 641.386719 C 759.835938 642.128906 759.613281 642.871094 759.015625 643.988281 C 758.792969 644.433594 758.199219 645.25 757.605469 645.84375 C 757.011719 646.441406 756.265625 646.886719 755.449219 647.109375 C 754.113281 647.554688 752.402344 647.257812 751.210938 646.664062 C 750.171875 646.21875 749.578125 645.695312 748.980469 645.324219 C 747.347656 644.285156 745.785156 643.316406 744.226562 642.277344 C 742.960938 643.394531 741.101562 644.953125 738.648438 646.8125 C 733.445312 650.75 725.417969 655.882812 714.714844 660.785156 C 711.667969 662.199219 708.394531 663.539062 704.902344 664.800781 C 706.238281 666.585938 702.078125 695.425781 706.089844 730.511719 C 706.609375 734.972656 707.132812 739.359375 707.875 743.597656 C 708.023438 744.636719 708.246094 745.675781 708.394531 746.71875 C 708.691406 748.429688 708.988281 750.210938 709.363281 751.921875 L 709.660156 753.410156 C 709.660156 753.855469 710.105469 754.597656 709.363281 754.375 C 708.320312 754.375 707.355469 754.375 706.386719 754.375 C 705.421875 754.375 704.382812 754.375 703.414062 754.375 L 701.78125 754.375 C 694.121094 754.449219 687.210938 755.636719 681.484375 757.050781 C 670.113281 759.949219 663.570312 763.59375 663.050781 762.773438 C 662.679688 762.253906 668.550781 757.199219 680.296875 753.109375 C 686.09375 751.105469 693.378906 749.394531 701.554688 749.023438 L 702.96875 748.949219 C 702.96875 748.949219 703.042969 748.949219 703.042969 748.949219 C 703.117188 748.949219 703.117188 748.949219 703.117188 748.875 L 703.117188 748.800781 C 703.117188 748.726562 703.117188 748.875 703.117188 748.652344 L 702.96875 747.832031 C 702.746094 746.792969 702.597656 745.675781 702.375 744.636719 C 701.554688 740.324219 700.960938 735.867188 700.441406 731.257812 C 698.359375 712.820312 699.027344 695.949219 700.589844 683.90625 C 701.929688 673.273438 703.710938 666.363281 704.679688 665.023438 C 696.054688 668.070312 686.242188 670.671875 675.539062 672.53125 C 660.300781 675.207031 643.351562 676.472656 625.585938 677.066406 C 607.820312 677.660156 591.019531 677.511719 575.707031 677.511719 C 560.394531 677.511719 546.714844 677.734375 535.195312 678.253906 C 519.734375 678.925781 508.359375 680.261719 502.414062 680.78125 C 497.65625 683.386719 478.550781 689.40625 454.765625 691.859375 C 451.269531 692.230469 448 692.527344 444.582031 692.675781 C 441.160156 692.824219 437.667969 692.601562 434.394531 691.5625 C 431.050781 690.59375 427.929688 688.214844 426.367188 685.167969 C 424.808594 682.121094 424.808594 679.222656 424.808594 676.917969 C 424.808594 674.539062 424.957031 672.679688 424.734375 671.046875 C 424.507812 669.410156 424.136719 668.070312 423.691406 667.105469 C 423.46875 666.734375 423.320312 666.363281 423.097656 666.066406 C 423.023438 666.066406 422.949219 665.992188 422.875 665.992188 C 418.710938 666.660156 409.941406 666.734375 399.90625 665.992188 C 385.929688 664.949219 374.632812 662.792969 374.78125 661.234375 C 374.78125 660.710938 375.894531 660.339844 377.753906 660.117188 C 376.636719 659.449219 375.375 658.632812 373.886719 657.738281 C 375.523438 659.300781 376.265625 660.191406 376.117188 660.414062 C 375.597656 661.011719 364.671875 653.351562 347.425781 640.34375 C 340.511719 635.066406 332.484375 628.972656 323.859375 622.132812 C 312.113281 613.136719 299.253906 603.027344 286.023438 591.953125 C 282.679688 589.203125 279.40625 586.378906 276.136719 583.703125 C 252.722656 564.375 231.90625 546.535156 216.816406 533.152344 C 203.140625 521.039062 194.144531 512.488281 191.988281 509.8125 C 189.238281 509.070312 187.753906 508.472656 187.828125 508.101562 C 188.050781 506.46875 214.363281 509.070312 246.625 513.753906 C 278.8125 518.507812 304.757812 523.640625 304.53125 525.199219 C 304.308594 526.835938 277.996094 524.234375 245.734375 519.550781 C 243.503906 519.253906 241.273438 518.882812 239.042969 518.585938 C 239.710938 519.179688 240.382812 519.847656 241.125 520.664062 C 242.390625 522.003906 243.875 523.640625 245.363281 525.570312 C 246.105469 526.539062 246.921875 527.503906 247.742188 528.546875 C 248.113281 529.066406 248.558594 529.585938 248.929688 530.179688 C 249.523438 531.074219 250.195312 531.964844 250.863281 532.855469 C 251.828125 534.269531 252.796875 535.605469 253.761719 536.945312 C 251.457031 537.835938 249.152344 538.730469 246.996094 539.546875 C 245.734375 539.992188 244.765625 540.289062 243.726562 540.660156 C 241.71875 541.332031 239.863281 541.851562 238.300781 542.222656 C 237.78125 542.371094 237.335938 542.445312 236.886719 542.519531 C 248.707031 552.851562 262.832031 565.042969 278.292969 578.050781 C 280.449219 579.835938 282.679688 581.621094 284.910156 583.480469 C 297.171875 593.515625 308.84375 603.175781 319.546875 611.949219 C 332.929688 622.726562 345.046875 632.242188 354.933594 640.046875 C 367.273438 649.710938 376.191406 656.699219 379.835938 660.042969 C 384.515625 659.671875 391.949219 659.746094 400.351562 660.339844 C 406 660.785156 411.128906 661.308594 415.292969 661.976562 C 414.175781 661.234375 413.0625 660.339844 411.945312 659.449219 C 409.570312 657.589844 407.5625 655.65625 405.703125 653.875 C 403.769531 652.015625 401.910156 649.5625 401.6875 646.8125 C 401.613281 645.398438 401.910156 644.210938 402.433594 643.242188 C 401.167969 642.574219 399.90625 641.832031 398.640625 641.089844 C 395.222656 639.007812 391.726562 636.554688 388.011719 633.953125 C 384.292969 631.351562 380.800781 628.75 377.605469 626.371094 C 376.042969 625.179688 374.554688 623.992188 373.144531 622.949219 C 372.476562 622.429688 371.804688 621.835938 371.136719 621.316406 C 370.542969 620.867188 369.277344 619.753906 368.90625 618.640625 C 367.941406 616.261719 369.5 613.957031 370.839844 613.136719 C 372.105469 612.320312 373.21875 612.171875 374.109375 612.246094 C 372.625 611.652344 371.0625 611.058594 369.425781 610.460938 C 368.535156 610.089844 367.644531 609.71875 366.601562 609.050781 C 365.636719 608.378906 364.597656 607.488281 363.851562 606.078125 C 363.183594 604.738281 363.035156 602.878906 363.480469 601.394531 C 363.925781 599.90625 364.820312 598.71875 365.859375 597.824219 C 368.164062 595.816406 370.988281 595.519531 373.21875 595.59375 C 377.679688 595.890625 381.839844 596.859375 386.003906 598.417969 C 394.253906 601.46875 401.09375 605.777344 407.414062 609.125 C 413.730469 612.542969 419.453125 614.996094 424.585938 616.039062 C 427.113281 616.558594 429.566406 616.929688 431.347656 616.78125 C 432.242188 616.707031 432.984375 616.484375 433.503906 616.113281 C 434.023438 615.8125 434.246094 615.441406 434.394531 614.921875 C 434.546875 613.882812 434.097656 612.988281 433.578125 612.617188 C 433.058594 612.246094 432.613281 612.320312 432.613281 612.097656 C 432.613281 611.949219 433.058594 611.429688 434.097656 611.578125 C 435.066406 611.726562 436.476562 612.914062 436.699219 614.996094 C 436.847656 616.039062 436.328125 617.375 435.4375 618.265625 C 434.546875 619.160156 433.355469 619.753906 432.09375 620.050781 C 430.828125 620.347656 429.492188 620.496094 428.226562 620.421875 C 426.960938 620.347656 425.550781 620.421875 424.136719 620.199219 C 418.339844 619.605469 411.796875 617.300781 405.183594 614.03125 C 398.492188 610.832031 391.652344 606.820312 384.144531 604.070312 C 380.429688 602.65625 376.5625 601.839844 373.144531 601.46875 C 371.582031 601.394531 370.171875 601.691406 369.578125 602.210938 C 369.203125 602.507812 368.90625 602.878906 368.832031 603.175781 C 368.757812 603.476562 368.683594 603.625 368.832031 603.921875 C 369.054688 605.109375 373.292969 606.597656 376.042969 607.933594 C 379.015625 609.273438 381.691406 610.535156 384.21875 611.652344 C 394.179688 616.261719 400.203125 619.53125 399.90625 620.273438 C 399.609375 621.019531 393.066406 619.160156 382.660156 615.515625 C 380.949219 614.921875 379.089844 614.253906 377.160156 613.511719 C 377.160156 613.957031 376.191406 614.179688 374.78125 614.699219 C 374.109375 614.921875 373.292969 615.367188 372.921875 615.8125 C 372.476562 616.410156 372.476562 616.855469 372.773438 617.226562 C 372.996094 617.449219 372.996094 617.375 373.738281 617.820312 C 374.40625 618.265625 375.152344 618.714844 375.894531 619.160156 C 377.382812 620.125 378.941406 621.09375 380.652344 622.132812 C 383.996094 624.289062 387.566406 626.742188 391.28125 629.34375 C 398.714844 634.546875 404.960938 639.601562 409.941406 642.277344 C 414.847656 645.027344 418.414062 645.769531 418.339844 646.664062 C 418.339844 647.40625 414.324219 648.148438 408.304688 646.070312 C 407.414062 645.769531 406.445312 645.398438 405.480469 644.953125 C 405.480469 645.398438 405.554688 645.84375 405.777344 646.292969 C 406.222656 647.332031 407.414062 648.597656 409.269531 650.007812 C 411.203125 651.496094 413.433594 653.277344 415.589844 655.0625 C 420.050781 658.632812 424.0625 661.605469 427.1875 663.464844 C 430.234375 665.394531 432.390625 666.511719 432.242188 667.328125 C 432.09375 667.996094 429.9375 668.371094 426.515625 667.476562 C 427.039062 668.371094 427.558594 669.484375 427.929688 670.671875 C 428.523438 672.605469 428.746094 674.835938 428.96875 676.992188 C 429.191406 679.148438 429.566406 681.453125 430.679688 683.085938 C 431.71875 684.796875 433.503906 685.988281 435.957031 686.65625 C 440.863281 687.992188 447.40625 686.878906 454.242188 686.285156 C 476.46875 683.980469 495.128906 680.1875 501.371094 679.742188 C 502.933594 679.296875 505.089844 678.777344 507.691406 678.253906 C 514.082031 676.917969 523.375 675.429688 534.972656 674.390625 C 546.566406 673.273438 560.394531 672.605469 575.707031 672.382812 C 591.019531 672.085938 607.894531 672.085938 625.4375 671.492188 C 643.054688 670.898438 659.707031 669.78125 674.722656 667.476562 C 689.664062 665.171875 702.820312 661.53125 713.449219 657.292969 C 724.082031 653.054688 732.183594 648.597656 737.683594 645.25 C 740.0625 643.839844 741.921875 642.648438 743.332031 641.832031 C 721.777344 628.078125 702.894531 614.773438 689.292969 604.515625 C 674.425781 593.289062 665.652344 585.78125 666.171875 585.1875 C 666.695312 584.519531 676.28125 590.835938 691.671875 601.171875 C 707.132812 611.503906 728.464844 625.625 752.402344 640.714844 C 753.070312 641.164062 753.664062 641.535156 754.039062 641.683594 C 754.113281 641.683594 754.113281 641.683594 754.113281 641.683594 C 759.242188 630.085938 764.074219 619.011719 768.457031 609.050781 C 770.613281 603.773438 772.101562 598.71875 771.804688 593.960938 C 771.65625 589.128906 770.242188 584.59375 768.976562 580.429688 C 767.640625 576.269531 766.300781 572.402344 765.484375 568.910156 C 765.484375 568.910156 765.484375 568.835938 765.484375 568.835938 C 764.742188 572.699219 763.921875 574.78125 763.699219 574.78125 C 762.734375 574.632812 764.371094 563.707031 763.179688 546.238281 C 762.660156 537.464844 761.246094 527.132812 758.792969 515.757812 C 756.414062 504.386719 752.921875 492.121094 748.683594 479.335938 C 739.988281 453.839844 730.621094 431.164062 725.046875 414.21875 C 719.324219 397.34375 716.945312 386.566406 717.6875 386.34375 C 718.503906 386.117188 722.222656 396.378906 728.910156 412.804688 C 732.257812 420.980469 736.269531 430.792969 740.730469 441.648438 C 745.117188 452.5 749.875 464.542969 754.261719 477.476562 C 758.570312 490.410156 761.992188 503.046875 764.148438 514.71875 C 766.300781 526.390625 767.34375 537.09375 767.34375 546.089844 C 767.417969 551.589844 767.121094 556.496094 766.675781 560.507812 C 766.972656 562.664062 767.566406 565.265625 768.605469 568.089844 C 769.722656 571.363281 771.28125 575.003906 772.84375 579.167969 C 774.40625 583.328125 776.1875 588.085938 776.636719 593.738281 C 776.933594 599.015625 775.371094 605.035156 773.214844 610.609375 Z M 235.550781 518.0625 C 222.019531 515.980469 210.128906 513.828125 201.578125 512.117188 C 205.519531 515.089844 214.066406 522.597656 225.886719 533.003906 C 228.488281 535.308594 231.238281 537.6875 234.136719 540.214844 C 234.804688 539.695312 235.625 539.175781 236.589844 538.582031 C 238.003906 537.761719 239.636719 536.796875 241.570312 535.828125 C 242.539062 535.382812 243.503906 534.863281 244.542969 534.417969 C 244.542969 534.34375 244.542969 534.34375 244.542969 534.269531 L 244.023438 533.523438 C 243.652344 532.929688 243.28125 532.410156 242.910156 531.890625 C 242.164062 530.773438 241.496094 529.734375 240.828125 528.695312 C 239.5625 526.613281 238.449219 524.753906 237.632812 523.117188 C 236.441406 520.8125 235.699219 519.105469 235.550781 518.0625 Z M 208.417969 521.410156 C 203.882812 516.652344 200.835938 513.304688 199.71875 511.746094 C 197.566406 511.300781 195.632812 510.851562 193.996094 510.480469 C 196.820312 512.339844 201.800781 516.132812 208.417969 521.410156 Z M 753.886719 641.3125 Z M 684.164062 584.816406 C 683.121094 585.929688 696.203125 599.3125 715.828125 611.132812 C 735.453125 623.023438 753.367188 628.375 753.886719 626.890625 C 754.484375 625.328125 737.980469 617.671875 718.875 606.078125 C 699.773438 594.628906 685.277344 583.480469 684.164062 584.816406 Z M 715.382812 553.894531 C 715.234375 553.148438 712.410156 552.777344 707.800781 553.371094 C 703.265625 553.96875 697.097656 555.527344 690.628906 558.351562 C 684.238281 561.179688 678.882812 564.746094 675.464844 567.71875 C 671.972656 570.691406 670.261719 573.070312 670.78125 573.667969 C 671.078125 573.964844 671.824219 573.890625 673.011719 573.441406 C 677.175781 573.515625 690.554688 570.839844 706.535156 570.46875 C 725.640625 569.875 741.101562 572.847656 741.546875 571.140625 C 741.699219 570.394531 738.054688 568.6875 731.738281 567.125 C 725.417969 565.5625 716.421875 564.375 706.460938 564.597656 C 698.507812 564.820312 691.148438 565.933594 685.351562 567.347656 C 687.730469 566.160156 690.332031 564.894531 693.082031 563.707031 C 705.125 558.277344 715.679688 555.601562 715.382812 553.894531 Z M 619.9375 485.058594 C 621.570312 485.207031 623.726562 473.761719 629.003906 460.15625 C 630.640625 458.746094 632.5 457.035156 634.433594 455.324219 C 640.898438 449.601562 646.398438 445.066406 645.582031 443.578125 C 644.988281 442.390625 639.859375 443.953125 634.132812 448.039062 C 638.667969 438.523438 642.535156 431.984375 641.566406 431.164062 C 640.972656 430.71875 638.296875 432.875 634.953125 437.113281 C 631.605469 441.351562 627.59375 447.816406 624.472656 455.546875 C 623.875 457.035156 623.355469 458.445312 622.910156 459.859375 C 621.421875 462.3125 620.902344 464.171875 621.421875 464.765625 C 620.308594 469.003906 619.566406 472.867188 619.265625 476.0625 C 618.746094 481.566406 619.191406 484.910156 619.9375 485.058594 Z M 555.859375 626.667969 C 561.136719 626.371094 566.710938 625.699219 572.4375 624.585938 C 578.160156 623.546875 584.03125 621.984375 589.757812 619.753906 C 601.425781 615.367188 611.3125 609.125 620.160156 603.699219 C 629.003906 598.195312 636.886719 593.214844 643.796875 589.796875 C 657.625 582.734375 667.4375 581.84375 667.363281 580.800781 C 667.363281 580.429688 664.835938 580.207031 660.375 580.800781 C 655.914062 581.25 649.523438 582.957031 642.089844 586.082031 C 634.65625 589.128906 626.328125 593.886719 617.335938 599.164062 C 608.339844 604.367188 598.601562 610.3125 587.675781 614.402344 C 582.25 616.484375 576.671875 617.96875 571.246094 619.085938 C 565.820312 620.199219 560.46875 620.945312 555.414062 621.390625 C 545.230469 622.355469 535.863281 622.355469 528.058594 622.28125 C 512.375 622.058594 502.5625 621.6875 502.488281 622.578125 C 502.414062 623.320312 512.078125 625.105469 527.835938 626.445312 C 535.789062 626.964844 545.230469 627.410156 555.859375 626.667969 Z M 427.78125 597.082031 C 436.699219 596.710938 449.335938 596.117188 461.675781 600.949219 C 467.773438 603.324219 472.976562 606.820312 476.765625 611.058594 C 480.632812 615.292969 484.125 619.902344 488.4375 622.726562 C 492.601562 625.476562 496.910156 626.296875 499.664062 625.847656 C 502.488281 625.402344 503.675781 624.289062 503.527344 623.992188 C 503.378906 623.546875 501.96875 623.917969 499.664062 623.621094 C 497.359375 623.320312 494.085938 622.132812 490.890625 619.457031 C 487.695312 616.78125 484.796875 612.46875 480.855469 607.5625 C 476.765625 602.582031 470.746094 598.269531 463.832031 595.59375 C 456.917969 592.917969 449.933594 591.878906 443.6875 591.804688 C 439.078125 591.730469 434.84375 592.027344 431.050781 592.546875 C 434.394531 585.261719 441.085938 564.671875 445.101562 539.398438 C 450.304688 507.507812 449.039062 481.269531 447.554688 481.269531 C 445.84375 481.269531 444.429688 507.0625 439.375 538.429688 C 435.289062 564.152344 430.011719 585.632812 429.117188 592.769531 C 428.523438 592.84375 427.929688 592.917969 427.335938 593.066406 C 420.570312 594.257812 415.8125 595.519531 413.878906 596.414062 C 411.425781 594.554688 408.601562 592.398438 405.40625 590.019531 C 405.703125 588.234375 401.539062 573.667969 403.398438 550.621094 C 404.289062 538.429688 406.890625 524.011719 410.535156 508.101562 C 412.320312 500.148438 414.25 491.75 416.035156 482.976562 C 417.820312 474.207031 419.304688 464.988281 420.496094 455.546875 C 422.875 436.742188 424.359375 418.828125 426.738281 402.695312 C 428.96875 386.566406 432.09375 372.292969 435.808594 360.621094 C 443.167969 337.207031 452.535156 324.71875 451.640625 324.199219 C 451.34375 323.976562 448.667969 326.800781 444.878906 332.671875 C 441.085938 338.542969 436.179688 347.464844 431.867188 359.285156 C 429.117188 366.792969 426.664062 375.339844 424.585938 384.855469 C 424.433594 383.890625 418.265625 384.707031 409.417969 381.957031 C 404.960938 380.542969 399.90625 378.238281 395.222656 374.375 C 392.84375 372.515625 390.761719 370.210938 388.457031 367.535156 C 386.152344 364.933594 383.625 362.035156 380.355469 359.507812 C 377.085938 356.90625 372.996094 355.417969 369.425781 354.601562 C 365.785156 353.78125 362.367188 353.410156 359.316406 352.890625 C 353.148438 351.851562 347.796875 350.140625 343.335938 348.355469 C 334.488281 344.789062 329.433594 341.371094 328.914062 342.113281 C 328.46875 342.632812 332.632812 347.390625 341.625 352.148438 C 346.085938 354.453125 351.734375 356.757812 358.277344 358.167969 C 364.820312 359.582031 371.730469 360.101562 376.859375 364.191406 C 382.140625 368.203125 386.226562 374.597656 392.023438 378.683594 C 397.601562 382.847656 403.472656 385.003906 408.527344 386.042969 C 413.582031 387.011719 417.746094 386.863281 420.570312 386.417969 C 423.097656 386.042969 424.507812 385.375 424.734375 385.003906 C 423.542969 390.355469 422.503906 396.003906 421.535156 401.878906 C 418.933594 418.15625 417.226562 436.144531 414.847656 454.804688 C 413.65625 464.171875 412.246094 473.164062 410.535156 481.863281 C 408.824219 490.558594 407.039062 498.960938 405.40625 506.988281 C 402.0625 523.042969 399.832031 537.835938 399.457031 550.398438 C 399.011719 562.960938 400.351562 573.144531 401.910156 579.910156 C 403.101562 584.964844 404.289062 588.234375 405.035156 589.5 C 396.113281 582.808594 384.667969 574.410156 372.402344 564.96875 C 344.003906 543.261719 321.851562 524.53125 320.664062 525.792969 C 320.292969 526.242188 322.894531 529.4375 327.875 534.34375 C 320.589844 528.171875 316.128906 524.53125 315.609375 525.050781 C 314.492188 526.09375 335.679688 549.804688 366.675781 573.667969 C 397.527344 597.675781 425.847656 612.246094 426.589844 610.910156 C 427.113281 610.089844 418.710938 604.367188 405.851562 595.222656 C 416.332031 601.765625 423.320312 605.183594 423.691406 604.515625 C 423.988281 603.996094 421.089844 601.46875 415.8125 597.453125 C 418.117188 597.675781 422.28125 597.453125 427.78125 597.082031 Z M 318.878906 523.5625 C 319.25 522.078125 291.152344 513.605469 255.398438 508.472656 C 219.640625 503.269531 190.28125 503.566406 190.207031 505.128906 C 190.132812 506.839844 219.121094 509.144531 254.578125 514.273438 C 290.039062 519.328125 318.507812 525.199219 318.878906 523.5625 Z M 221.054688 524.160156 C 221.722656 524.679688 222.914062 524.234375 224.25 524.234375 C 224.921875 524.234375 225.664062 524.308594 226.109375 524.53125 C 226.554688 524.753906 226.851562 525.050781 227.222656 525.570312 C 227.449219 526.015625 227.523438 526.242188 227.597656 526.464844 C 227.894531 526.613281 227.148438 527.578125 226.554688 527.875 C 225.960938 528.320312 225.144531 528.320312 224.621094 528.695312 C 224.398438 528.917969 224.25 529.289062 224.472656 529.734375 C 224.621094 530.253906 225.144531 530.847656 226.035156 531.222656 C 226.925781 531.59375 228.042969 531.742188 229.304688 531.296875 C 230.496094 530.921875 231.980469 529.957031 232.726562 528.171875 C 233.542969 526.316406 233.171875 524.011719 232.128906 522.375 C 231.015625 520.441406 228.785156 519.179688 226.851562 519.105469 C 224.921875 518.957031 223.433594 519.699219 222.394531 520.367188 C 220.535156 522.003906 220.460938 523.714844 221.054688 524.160156 Z M 634.285156 317.804688 C 634.285156 317.507812 629.453125 317.285156 621.273438 319.664062 C 613.097656 321.96875 601.722656 327.839844 590.871094 338.765625 C 585.519531 344.195312 580.167969 350.808594 575.632812 358.613281 C 571.023438 366.347656 567.160156 375.191406 563.960938 384.707031 C 557.496094 403.8125 554.074219 425.515625 549.316406 447.742188 C 544.5625 469.96875 538.910156 491.078125 534.675781 510.480469 C 532.519531 520.144531 530.734375 529.511719 529.246094 538.207031 C 527.910156 546.980469 526.867188 555.15625 526.347656 562.738281 C 525.234375 577.828125 525.679688 590.09375 526.792969 598.496094 C 526.941406 600.574219 527.316406 602.433594 527.613281 604.070312 C 527.910156 605.628906 528.207031 607.042969 528.355469 608.082031 C 528.800781 610.238281 529.171875 611.355469 529.320312 611.355469 C 530.4375 611.207031 527.09375 592.769531 530.4375 563.183594 C 531.179688 555.824219 532.519531 547.722656 534.003906 539.101562 C 535.640625 530.476562 537.574219 521.335938 539.878906 511.746094 C 544.410156 492.492188 550.210938 471.53125 554.96875 449.007812 C 559.726562 426.484375 562.921875 405 568.941406 386.417969 C 571.917969 377.125 575.484375 368.5 579.648438 361.066406 C 583.808594 353.558594 588.714844 347.09375 593.621094 341.667969 C 603.582031 330.886719 614.0625 324.71875 621.792969 321.894531 C 629.675781 318.84375 634.359375 318.324219 634.285156 317.804688 Z M 593.546875 463.574219 C 596.59375 454.507812 599.644531 445.660156 602.246094 436.964844 C 604.847656 428.265625 607.003906 419.792969 608.933594 411.691406 C 612.726562 395.484375 615.699219 380.914062 619.191406 369.023438 C 625.734375 344.9375 633.910156 331.707031 633.09375 331.183594 C 632.945312 331.109375 632.277344 331.855469 631.160156 333.339844 C 630.640625 334.085938 629.972656 335.050781 629.230469 336.164062 C 628.558594 337.355469 627.742188 338.691406 626.851562 340.253906 C 623.429688 346.425781 619.042969 355.789062 615.179688 367.832031 C 611.164062 379.800781 607.671875 394.445312 603.65625 410.425781 C 601.648438 418.453125 599.421875 426.78125 596.742188 435.328125 C 594.066406 443.878906 591.09375 452.722656 587.972656 461.71875 C 581.804688 479.78125 576.078125 497.25 572.660156 513.679688 C 569.164062 530.105469 568.125 545.34375 569.015625 558.054688 C 569.835938 570.765625 572.4375 580.875 574.890625 587.492188 C 577.417969 594.109375 579.574219 597.453125 579.871094 597.304688 C 580.316406 597.082031 578.902344 593.515625 577.121094 586.75 C 575.410156 580.058594 573.402344 570.171875 573.179688 557.832031 C 572.882812 545.492188 574.296875 530.773438 578.011719 514.792969 C 581.578125 498.8125 587.378906 481.640625 593.546875 463.574219 Z M 518.023438 499.703125 C 516.164062 509.960938 515.421875 516.355469 516.238281 516.578125 C 517.058594 516.726562 519.210938 510.628906 522.113281 500.667969 C 523.523438 495.6875 525.160156 489.667969 526.867188 483.050781 C 527.6875 479.632812 528.578125 476.140625 529.546875 472.421875 C 529.992188 470.636719 530.4375 468.78125 530.882812 466.921875 C 531.105469 466.027344 531.402344 464.988281 531.476562 464.171875 L 528.652344 464.617188 C 526.792969 464.914062 524.789062 465.285156 522.929688 465.582031 C 521.964844 465.730469 520.996094 465.878906 520.105469 465.953125 C 504.71875 467.886719 490.59375 466.550781 480.558594 464.765625 C 475.503906 463.800781 471.042969 463.203125 467.996094 463.648438 C 464.949219 464.023438 463.386719 464.988281 463.535156 465.359375 C 463.683594 465.804688 465.246094 465.582031 467.996094 465.953125 C 470.746094 466.253906 474.613281 467.292969 479.667969 468.855469 C 489.851562 471.753906 504.644531 473.835938 520.847656 471.753906 C 521.886719 471.605469 522.855469 471.53125 523.820312 471.308594 C 523.894531 471.308594 523.820312 471.308594 523.894531 471.308594 C 523.894531 471.308594 523.894531 471.308594 523.96875 471.308594 C 523.226562 474.949219 522.410156 478.367188 521.738281 481.714844 C 520.105469 488.476562 518.914062 494.574219 518.023438 499.703125 Z M 486.953125 489.667969 C 485.613281 489.890625 484.5 489.371094 483.753906 489.742188 C 483.457031 489.964844 483.234375 490.484375 483.457031 491.230469 C 483.753906 492.046875 484.5 493.011719 485.910156 493.683594 C 487.25 494.277344 489.253906 494.574219 491.410156 493.53125 C 493.640625 492.417969 494.980469 489.816406 494.90625 487.289062 C 494.90625 484.761719 493.34375 482.234375 491.113281 481.269531 C 488.957031 480.300781 486.953125 480.671875 485.613281 481.34375 C 484.273438 482.085938 483.53125 483.125 483.308594 483.871094 C 483.085938 484.6875 483.308594 485.207031 483.679688 485.355469 C 484.421875 485.652344 485.539062 485.058594 486.875 485.28125 C 487.546875 485.355469 488.289062 485.578125 488.585938 485.949219 C 488.882812 486.25 489.03125 486.695312 489.105469 487.4375 C 489.105469 488.179688 488.957031 488.628906 488.660156 488.925781 C 488.289062 489.296875 487.621094 489.59375 486.953125 489.667969 Z M 499.214844 580.578125 C 498.992188 581.621094 498.84375 582.4375 498.546875 582.957031 C 498.25 583.554688 498.175781 583.628906 497.953125 583.628906 C 497.804688 583.703125 497.359375 583.777344 496.613281 583.628906 C 495.945312 583.480469 494.980469 583.179688 494.011719 582.808594 C 490.222656 581.546875 486.503906 580.355469 482.9375 579.167969 C 475.875 576.863281 469.484375 574.929688 464.128906 573.367188 C 453.351562 570.246094 446.585938 568.613281 446.289062 569.429688 C 445.992188 570.171875 452.3125 573.144531 462.71875 577.308594 C 467.921875 579.390625 474.164062 581.769531 481.078125 584.296875 C 484.574219 585.558594 488.214844 586.898438 492.007812 588.234375 C 492.972656 588.535156 493.9375 588.980469 495.203125 589.277344 C 496.464844 589.574219 498.175781 589.796875 499.960938 589.128906 C 501.816406 588.460938 503.082031 586.824219 503.675781 585.484375 C 504.34375 584.148438 504.570312 582.808594 504.792969 581.769531 C 511.554688 548.242188 515.792969 520.8125 514.15625 520.515625 C 512.820312 520.144531 506.054688 547.054688 499.214844 580.578125 Z M 440.863281 451.609375 C 436.625 470.488281 434.46875 486.023438 436.03125 486.398438 C 437.59375 486.769531 442.351562 471.753906 446.585938 452.945312 C 447.035156 450.789062 447.480469 448.785156 447.925781 446.703125 C 448.148438 445.660156 448.371094 444.695312 448.519531 443.730469 C 448.59375 443.207031 448.742188 442.910156 448.816406 441.796875 C 448.890625 440.828125 448.742188 439.9375 448.371094 439.046875 C 448 438.300781 447.554688 437.707031 446.882812 437.261719 C 446.363281 436.816406 445.472656 436.371094 445.027344 436.21875 C 444.058594 435.847656 443.464844 435.699219 442.648438 435.476562 C 441.160156 435.03125 439.824219 434.585938 438.484375 434.214844 C 435.808594 433.46875 433.503906 432.800781 431.570312 432.355469 C 427.632812 431.464844 425.253906 431.164062 425.03125 431.761719 C 424.808594 432.355469 426.8125 433.691406 430.457031 435.550781 C 432.242188 436.445312 434.46875 437.484375 437 438.597656 C 438.261719 439.121094 439.601562 439.714844 441.011719 440.308594 C 441.679688 440.605469 442.574219 440.902344 443.019531 441.199219 C 443.390625 441.351562 443.167969 441.277344 443.242188 441.351562 C 443.242188 441.351562 443.242188 441.425781 443.242188 441.425781 C 443.09375 441.871094 442.574219 443.953125 442.277344 445.4375 C 441.828125 447.445312 441.382812 449.527344 440.863281 451.609375 Z M 379.761719 296.992188 C 378.792969 289.039062 378.792969 283.90625 377.902344 283.832031 C 377.160156 283.757812 375.746094 288.8125 375.597656 297.214844 C 375.597656 299.296875 375.597656 301.601562 375.894531 304.054688 C 376.042969 306.507812 376.488281 309.109375 376.933594 311.859375 C 377.976562 317.359375 379.6875 323.230469 382.140625 329.253906 C 384.667969 335.199219 387.714844 340.550781 390.910156 345.160156 C 392.546875 347.390625 394.105469 349.546875 395.742188 351.40625 C 397.304688 353.335938 398.9375 354.972656 400.425781 356.386719 C 406.519531 362.183594 411.128906 364.710938 411.574219 364.117188 C 412.171875 363.445312 408.527344 359.804688 403.472656 353.558594 C 402.210938 352 400.871094 350.289062 399.53125 348.355469 C 398.714844 347.316406 397.972656 346.199219 397.230469 345.011719 C 395.519531 340.773438 393.214844 334.976562 391.949219 328.285156 C 389.050781 314.832031 391.132812 303.53125 389.421875 303.085938 C 388.679688 302.863281 387.121094 305.539062 386.078125 310.371094 C 385.410156 313.195312 385.039062 316.839844 385.1875 320.851562 C 383.996094 317.359375 383.03125 314.015625 382.140625 310.742188 C 381.542969 308.140625 380.949219 305.761719 380.652344 303.382812 C 380.28125 301.152344 379.984375 299 379.761719 296.992188 Z M 183.664062 211.429688 C 177.792969 208.085938 172.140625 206.75 167.832031 206.449219 C 167.085938 206.75 166.121094 207.046875 165.007812 207.269531 C 161.363281 208.011719 155.566406 207.789062 149.394531 205.039062 C 147.386719 204.148438 145.308594 203.03125 143.300781 201.621094 C 141.738281 202.585938 139.507812 203.550781 136.535156 203.699219 C 133.117188 203.847656 128.65625 203.03125 124.9375 199.6875 C 121.148438 196.191406 119.808594 191.359375 117.355469 188.90625 C 116.167969 187.792969 115.203125 187.421875 113.269531 187.421875 C 112.375 187.421875 111.261719 187.496094 110.148438 187.570312 C 109.03125 187.644531 107.621094 187.570312 106.355469 187.347656 C 105.09375 187.050781 103.753906 186.605469 102.566406 185.710938 C 101.375 184.820312 100.484375 183.40625 100.1875 181.996094 C 99.589844 179.097656 100.632812 177.164062 101.300781 175.75 C 101.671875 175.007812 102.042969 174.339844 102.339844 173.816406 C 102.640625 173.296875 102.863281 172.777344 103.011719 172.332031 C 103.308594 171.585938 103.457031 170.917969 103.53125 170.324219 C 102.042969 170.027344 100.484375 169.730469 98.773438 169.285156 C 97.585938 168.984375 96.320312 168.613281 95.058594 168.019531 C 93.867188 167.5 92.527344 166.683594 91.488281 165.714844 C 89.40625 163.855469 87.847656 161.253906 87.773438 157.984375 C 87.773438 154.714844 90 151.890625 92.527344 150.773438 C 93.421875 150.402344 94.3125 150.105469 95.132812 149.957031 C 94.460938 149.511719 93.644531 149.0625 92.753906 148.46875 C 91.117188 147.429688 89.109375 146.238281 86.878906 144.976562 C 85.765625 144.382812 84.5 143.710938 83.238281 143.117188 C 82.71875 142.820312 82.121094 142.597656 81.527344 142.300781 C 80.859375 142.003906 80.191406 141.632812 79.445312 141.332031 C 77.960938 140.738281 76.546875 140.070312 74.984375 139.402344 C 75.359375 139.101562 75.730469 138.730469 76.101562 138.433594 C 73.5 136.875 68.964844 133.601562 63.242188 128.695312 C 58.855469 124.980469 53.875 120.371094 48.597656 115.019531 C 45.921875 112.34375 43.246094 109.445312 40.496094 106.394531 C 39.15625 104.835938 37.746094 103.273438 36.332031 101.714844 L 35.144531 100.300781 C 34.472656 99.484375 33.65625 98.664062 33.433594 97.847656 C 33.285156 97.402344 33.0625 97.03125 33.136719 96.582031 C 33.136719 96.136719 33.210938 95.617188 33.359375 95.171875 C 33.65625 94.28125 34.101562 93.460938 34.84375 92.792969 C 36.257812 91.453125 38.414062 90.710938 40.496094 91.007812 C 41.015625 91.082031 41.535156 91.230469 41.980469 91.378906 C 42.351562 91.527344 42.726562 91.675781 43.097656 91.902344 C 43.765625 92.273438 44.359375 92.71875 44.878906 93.238281 C 45.921875 94.128906 46.664062 95.097656 47.257812 95.914062 C 47.929688 96.734375 48.523438 97.476562 49.117188 98.292969 C 51.644531 101.414062 54.171875 104.316406 56.699219 106.992188 C 61.753906 112.34375 66.660156 116.804688 70.972656 120.371094 C 77.664062 125.945312 82.71875 129.441406 84.425781 131.074219 C 87.921875 128.101562 91.265625 125.351562 94.3125 122.972656 C 95.949219 121.710938 97.507812 120.519531 98.921875 119.554688 C 99.664062 119.03125 100.335938 118.585938 100.929688 118.140625 C 101.300781 117.917969 101.597656 117.695312 101.894531 117.472656 C 102.339844 117.175781 102.789062 116.804688 103.234375 116.503906 C 103.828125 116.578125 104.347656 116.652344 104.941406 116.730469 C 104.496094 115.761719 104.125 114.722656 103.902344 113.457031 C 103.53125 111.671875 103.828125 109.296875 105.09375 107.511719 C 106.355469 105.578125 108.585938 104.539062 110.519531 104.316406 C 112.527344 104.089844 114.382812 104.390625 116.167969 105.207031 C 117.953125 106.023438 119.289062 107.214844 120.40625 108.402344 C 122.636719 110.929688 124.046875 113.234375 125.90625 115.390625 C 129.472656 119.777344 133.414062 123.640625 137.578125 127.0625 C 141.664062 130.480469 146.050781 133.230469 150.363281 135.757812 C 159.058594 140.8125 167.308594 145.570312 172.960938 151.367188 C 178.683594 157.019531 181.730469 163.039062 182.699219 167.425781 C 183.367188 170.101562 183.367188 172.035156 183.292969 173.148438 C 186.5625 174.636719 194.21875 179.019531 204.847656 185.265625 C 218.972656 193.441406 238.300781 204.964844 261.121094 214.332031 C 272.496094 219.011719 283.71875 222.507812 294.050781 224.886719 C 299.179688 226.148438 304.234375 226.894531 308.992188 228.007812 C 313.75 229.050781 318.210938 230.238281 322.148438 231.875 C 330.105469 235.144531 335.382812 240.050781 337.984375 244.066406 C 338.429688 244.734375 338.726562 245.328125 339.023438 245.921875 C 341.699219 245.03125 344.449219 244.585938 347.050781 244.734375 C 353.445312 245.03125 358.574219 247.558594 362.515625 250.234375 C 366.453125 252.984375 369.277344 255.957031 371.359375 258.410156 C 375.597656 263.390625 377.457031 266.4375 377.160156 266.738281 C 376.859375 267.035156 374.332031 264.433594 369.726562 260.046875 C 367.421875 257.890625 364.445312 255.289062 360.730469 253.058594 C 357.011719 250.828125 352.257812 248.894531 346.976562 248.972656 C 344.824219 248.972656 342.667969 249.417969 340.511719 250.234375 C 340.585938 250.753906 340.511719 251.050781 340.4375 251.050781 C 340.289062 251.125 340.066406 250.902344 339.769531 250.457031 C 336.941406 251.648438 334.117188 253.503906 331.515625 255.882812 C 326.757812 260.195312 322.449219 265.84375 318.730469 272.3125 C 315.089844 278.777344 311.59375 285.988281 308.84375 293.496094 C 306.167969 301.003906 304.53125 309.332031 306.167969 317.136719 C 306.613281 319.21875 307.285156 321.222656 308.175781 323.15625 C 308.027344 321 308.101562 317.804688 308.695312 313.714844 C 309.066406 310.816406 309.8125 307.472656 310.851562 303.980469 C 310.703125 303.308594 311.148438 301.898438 312.113281 300.039062 C 313.75 295.429688 315.980469 290.523438 318.878906 285.691406 C 321.925781 280.636719 325.347656 276.25 328.839844 272.460938 C 332.335938 268.742188 335.753906 265.695312 338.875 263.464844 C 345.121094 258.929688 349.578125 257.296875 349.953125 257.890625 C 350.398438 258.632812 346.828125 261.535156 341.550781 266.664062 C 338.949219 269.191406 335.976562 272.386719 332.929688 276.027344 C 331.589844 277.664062 330.253906 279.449219 328.839844 281.378906 C 333.003906 278.332031 337.015625 276.027344 340.289062 274.617188 C 344.449219 272.832031 347.277344 272.386719 347.648438 273.054688 C 348.316406 274.617188 339.097656 280.042969 329.210938 288.515625 C 325.347656 291.789062 321.925781 295.058594 319.101562 297.808594 C 318.359375 299.445312 317.617188 301.003906 316.945312 302.566406 C 315.164062 307.027344 313.75 311.113281 312.785156 314.609375 C 311.148438 320.332031 310.257812 324.347656 309.511719 325.683594 C 311.890625 329.847656 315.3125 333.191406 319.398438 334.902344 C 322.671875 336.390625 326.3125 336.613281 329.0625 335.496094 C 331.738281 334.382812 333.003906 331.855469 333.300781 328.285156 C 333.523438 326.578125 333.523438 324.71875 333.671875 322.785156 C 333.894531 320.851562 333.96875 318.921875 334.339844 317.0625 C 334.710938 315.203125 335.011719 313.34375 335.53125 311.636719 C 335.753906 310.742188 336.050781 309.851562 336.273438 309.035156 C 336.570312 308.214844 336.867188 307.324219 337.164062 306.507812 C 339.617188 299.890625 343.113281 294.242188 346.902344 289.632812 C 354.484375 280.339844 363.109375 275.359375 369.203125 272.90625 C 375.375 270.453125 379.015625 270.230469 379.089844 270.527344 C 379.238281 271.046875 375.746094 272.015625 370.171875 274.988281 C 364.671875 277.960938 356.9375 283.238281 350.175781 292.234375 C 346.828125 296.695312 343.78125 302.046875 341.699219 308.214844 C 341.476562 308.960938 341.179688 309.777344 340.957031 310.519531 C 340.734375 311.335938 340.585938 312.15625 340.363281 312.972656 C 339.917969 314.609375 339.695312 316.242188 339.394531 317.953125 C 339.097656 319.664062 339.097656 321.375 338.949219 323.15625 C 338.875 324.941406 338.875 326.875 338.726562 328.957031 C 338.503906 331.035156 338.132812 333.339844 336.941406 335.570312 C 335.753906 337.800781 333.671875 339.734375 331.367188 340.699219 C 326.683594 342.707031 321.554688 342.113281 317.246094 340.253906 C 312.859375 338.394531 309.140625 335.199219 306.316406 331.410156 C 303.492188 327.617188 301.632812 323.15625 300.59375 318.472656 C 300.074219 315.796875 299.851562 313.121094 299.851562 310.445312 C 298.585938 310.59375 296.949219 310.667969 294.871094 310.519531 C 290.039062 310.148438 283.050781 308.585938 275.394531 304.351562 C 267.738281 300.1875 259.78125 293.273438 252.425781 284.800781 C 244.992188 276.25 237.78125 266.515625 229.453125 256.851562 C 221.203125 247.113281 213.027344 238.191406 205.371094 230.164062 C 197.789062 222.136719 190.726562 215.296875 183.664062 211.429688 Z M 83.609375 132.042969 C 81.082031 131.222656 75.582031 128.546875 68.59375 123.789062 C 63.835938 120.519531 58.410156 116.28125 52.984375 110.929688 C 50.234375 108.253906 47.480469 105.355469 44.804688 102.160156 C 43.46875 100.597656 42.128906 98.738281 41.015625 97.773438 C 40.71875 97.550781 40.496094 97.328125 40.273438 97.179688 C 40.125 97.105469 39.972656 97.03125 39.898438 97.03125 L 40.792969 98.070312 C 42.128906 99.632812 43.46875 101.191406 44.804688 102.753906 C 47.480469 105.800781 50.007812 108.699219 52.535156 111.449219 C 57.515625 116.953125 62.199219 121.785156 66.140625 125.796875 C 71.492188 131.222656 75.507812 135.3125 77.363281 137.542969 C 79.371094 135.757812 81.453125 133.898438 83.609375 132.042969 Z M 140.476562 199.464844 C 137.277344 196.9375 134.15625 193.960938 131.183594 190.691406 C 125.3125 184.597656 119.4375 177.535156 111.558594 173.148438 C 109.847656 172.183594 108.066406 171.4375 106.28125 170.917969 C 106.355469 171.511719 106.355469 172.183594 106.28125 172.851562 C 106.207031 173.59375 106.058594 174.265625 105.835938 175.082031 C 105.613281 175.75 105.464844 176.417969 105.242188 177.164062 C 104.867188 178.5 104.644531 179.988281 104.941406 180.65625 C 105.09375 181.027344 105.316406 181.25 105.6875 181.472656 C 106.058594 181.699219 106.652344 181.921875 107.394531 181.996094 C 108.808594 182.21875 110.59375 181.773438 113.195312 181.625 C 114.457031 181.546875 116.019531 181.625 117.582031 182.144531 C 119.140625 182.664062 120.554688 183.554688 121.59375 184.671875 C 123.75 186.902344 124.789062 189.132812 125.832031 191.0625 C 126.796875 192.996094 127.765625 194.632812 128.804688 195.671875 C 131.035156 197.976562 134.15625 199.09375 136.757812 199.464844 C 138.023438 199.6875 139.359375 199.613281 140.476562 199.464844 Z M 151.179688 201.246094 C 155.195312 203.476562 159.058594 204.445312 162.105469 204.816406 C 163 204.519531 164.113281 204.296875 165.378906 204.074219 C 170.210938 203.328125 177.644531 203.847656 185.597656 207.789062 C 193.550781 211.582031 201.429688 218.566406 209.234375 226.445312 C 217.1875 234.328125 225.664062 243.246094 233.988281 253.132812 C 242.390625 262.945312 249.597656 272.980469 256.585938 281.378906 C 263.574219 289.855469 270.636719 296.546875 277.550781 300.855469 C 284.386719 305.242188 290.78125 307.324219 295.242188 308.363281 C 297.171875 308.808594 298.808594 309.035156 299.925781 309.183594 C 300.148438 303.011719 301.707031 297.066406 303.640625 291.714844 C 306.6875 283.683594 310.257812 276.476562 314.269531 269.710938 C 318.285156 263.019531 323.042969 257.074219 328.46875 252.390625 C 331.144531 250.160156 334.042969 248.226562 337.164062 246.890625 C 336.867188 246.519531 336.570312 246.144531 336.199219 245.699219 C 333.300781 242.429688 328.171875 238.488281 320.738281 235.960938 C 317.019531 234.699219 312.785156 233.730469 308.101562 232.988281 C 303.417969 232.171875 298.289062 231.578125 292.9375 230.386719 C 282.15625 228.304688 270.5625 224.738281 258.890625 219.980469 C 247.21875 215.222656 236.515625 209.648438 227.074219 204.296875 C 217.636719 198.867188 209.382812 193.589844 202.621094 188.980469 C 192.585938 182.144531 185.597656 177.015625 182.773438 174.488281 C 182.699219 174.488281 182.699219 174.414062 182.625 174.339844 C 181.730469 173.519531 181.359375 173 181.433594 172.851562 C 181.507812 172.777344 181.730469 172.777344 182.101562 172.851562 C 181.804688 171.8125 181.285156 170.175781 180.46875 168.242188 C 178.90625 164.453125 175.636719 159.324219 170.0625 154.492188 C 164.558594 149.585938 156.605469 145.421875 147.613281 140.515625 C 143.152344 138.0625 138.394531 135.164062 133.933594 131.59375 C 129.472656 128.027344 125.164062 123.863281 121.296875 119.183594 C 119.363281 116.878906 117.65625 114.203125 116.09375 112.492188 C 114.457031 110.707031 112.824219 109.890625 111.1875 110.113281 C 110.445312 110.1875 109.921875 110.484375 109.699219 110.855469 C 109.402344 111.300781 109.253906 111.75 109.402344 112.640625 C 109.699219 114.351562 110.890625 116.429688 112.375 118.363281 C 118.324219 126.613281 123.601562 134.121094 127.914062 140.441406 C 130.070312 143.636719 132.074219 146.3125 133.710938 149.289062 C 134.453125 150.773438 135.050781 152.261719 135.273438 153.746094 C 135.496094 155.234375 135.347656 156.722656 134.898438 157.910156 C 134.082031 160.289062 132.371094 161.550781 131.109375 161.925781 C 129.84375 162.296875 129.175781 162 129.175781 161.851562 C 129.175781 161.628906 129.769531 161.476562 130.589844 160.882812 C 131.40625 160.289062 132.371094 159.101562 132.671875 157.316406 C 133.042969 155.53125 132.445312 153.375 130.8125 150.996094 C 129.25 148.691406 126.871094 146.015625 124.492188 142.96875 C 122.113281 139.921875 119.4375 136.574219 116.6875 133.007812 C 115.722656 134.570312 114.085938 136.425781 112.152344 138.210938 C 108.066406 141.929688 103.902344 143.933594 102.789062 142.746094 C 101.671875 141.554688 104.125 137.542969 108.214844 133.898438 C 110.296875 131.96875 112.449219 130.554688 114.160156 129.738281 C 113.046875 128.25 111.855469 126.765625 110.742188 125.277344 C 109.921875 127.285156 107.621094 130.332031 104.496094 133.378906 C 99.886719 137.839844 95.28125 140.441406 94.164062 139.253906 C 93.050781 138.0625 95.875 133.527344 100.410156 129.140625 C 103.679688 125.945312 107.023438 123.714844 109.03125 123.121094 C 108.660156 122.601562 108.289062 122.15625 107.917969 121.632812 C 107.394531 120.964844 106.875 120.296875 106.429688 119.554688 C 106.207031 119.554688 106.058594 119.628906 105.835938 119.628906 C 105.539062 119.703125 105.167969 119.703125 104.867188 119.777344 C 104.71875 119.851562 104.570312 119.851562 104.347656 119.925781 C 104.273438 120.074219 104.199219 120.222656 104.125 120.371094 C 104.050781 120.519531 103.679688 120.890625 103.457031 121.113281 C 102.9375 121.710938 102.339844 122.304688 101.746094 122.898438 C 100.558594 124.160156 99.144531 125.5 97.660156 126.988281 C 94.683594 129.886719 91.117188 133.082031 87.324219 136.425781 L 85.988281 137.617188 L 85.617188 137.914062 L 85.46875 138.0625 C 85.46875 138.0625 85.394531 138.0625 85.320312 138.0625 C 85.320312 138.0625 85.320312 138.0625 85.320312 138.136719 L 85.320312 138.210938 C 85.394531 138.285156 85.171875 138.136719 85.691406 138.433594 C 87.027344 139.253906 88.292969 140.070312 89.40625 140.886719 C 91.710938 142.523438 93.570312 144.160156 94.980469 145.71875 C 96.542969 147.355469 97.585938 148.765625 98.179688 149.734375 C 98.625 149.734375 98.996094 149.734375 99.367188 149.808594 C 101.449219 149.957031 103.457031 150.402344 105.09375 150.773438 C 106.800781 151.21875 108.363281 151.589844 109.921875 152.039062 C 122.261719 155.234375 129.84375 157.613281 129.621094 158.429688 C 129.472656 159.25 121.59375 158.28125 109.03125 156.050781 C 107.46875 155.753906 105.835938 155.457031 104.125 155.160156 C 102.414062 154.863281 100.855469 154.640625 99.144531 154.566406 C 97.507812 154.566406 95.800781 154.789062 94.683594 155.382812 C 94.089844 155.679688 93.71875 156.050781 93.496094 156.496094 C 93.199219 156.945312 93.050781 157.464844 93.125 157.984375 C 93.125 159.023438 93.867188 160.4375 95.132812 161.476562 C 96.246094 162.519531 97.957031 163.113281 100.039062 163.558594 C 102.042969 164.078125 104.421875 164.304688 106.949219 165.046875 C 109.476562 165.714844 111.929688 166.757812 114.234375 168.019531 C 123.453125 173.148438 129.546875 180.878906 135.050781 187.050781 C 140.550781 193.292969 145.828125 198.421875 151.179688 201.246094 Z M 580.6875 723.675781 C 580.613281 719.882812 580.464844 715.796875 580.316406 711.558594 C 580.242188 709.402344 580.167969 707.246094 580.09375 705.015625 C 579.945312 701.820312 579.871094 698.550781 579.722656 695.203125 C 575.261719 695.949219 570.652344 696.765625 565.96875 697.582031 C 562.253906 698.175781 558.535156 698.773438 554.671875 699.441406 C 546.941406 700.628906 538.910156 701.820312 530.660156 702.859375 C 516.910156 704.644531 503.75 706.132812 491.632812 707.246094 C 485.539062 707.839844 479.742188 708.289062 474.238281 708.734375 C 471.488281 708.957031 468.8125 709.105469 466.210938 709.328125 C 462.71875 709.550781 459.371094 709.773438 456.101562 709.921875 C 456.621094 712.152344 457.21875 714.382812 457.738281 716.539062 C 458.109375 717.875 458.40625 719.140625 458.703125 720.328125 C 459.371094 722.78125 459.96875 725.160156 460.5625 727.316406 C 461.75 731.703125 462.792969 735.492188 463.683594 738.542969 C 465.46875 744.710938 466.730469 748.128906 467.105469 747.980469 C 467.476562 747.832031 467.105469 744.339844 466.0625 737.945312 C 465.542969 734.75 464.800781 730.960938 463.980469 726.5 C 463.535156 724.269531 463.089844 721.890625 462.570312 719.363281 C 462.347656 718.097656 462.050781 716.835938 461.75 715.496094 C 461.527344 714.605469 461.601562 714.753906 461.601562 714.53125 L 461.527344 714.011719 C 461.898438 714.011719 462.199219 714.011719 462.570312 714.011719 C 463.832031 714.011719 465.097656 713.9375 466.433594 713.9375 C 469.035156 713.863281 471.710938 713.714844 474.464844 713.640625 C 479.964844 713.417969 485.835938 713.042969 492.007812 712.597656 C 504.269531 711.707031 517.503906 710.441406 531.328125 708.585938 C 539.65625 707.46875 547.757812 706.28125 555.488281 704.941406 C 559.355469 704.273438 563.144531 703.605469 566.863281 702.933594 C 568.71875 702.5625 570.503906 702.265625 572.289062 701.894531 L 574.292969 701.449219 L 574.371094 701.449219 L 574.59375 701.375 C 575.1875 709.476562 575.707031 716.984375 576.152344 723.675781 C 576.671875 731.257812 577.269531 737.945312 577.714844 743.449219 C 578.679688 754.449219 579.574219 760.84375 580.167969 760.765625 C 580.761719 760.765625 580.984375 754.300781 580.910156 743.296875 C 580.984375 738.019531 580.835938 731.332031 580.6875 723.675781 Z M 556.082031 713.863281 C 554.96875 713.789062 553.851562 713.863281 552.8125 714.011719 C 550.730469 714.382812 549.019531 715.199219 547.832031 716.09375 C 545.304688 718.023438 544.859375 720.03125 545.453125 720.476562 C 546.121094 721 547.535156 720.328125 549.691406 719.808594 C 550.730469 719.585938 551.996094 719.363281 553.332031 719.363281 C 554 719.363281 554.671875 719.4375 555.414062 719.511719 C 555.339844 719.511719 555.414062 719.585938 555.339844 719.585938 C 555.414062 719.585938 555.5625 719.660156 555.5625 719.882812 C 555.710938 719.882812 555.414062 720.105469 555.191406 720.253906 C 554.96875 720.402344 554.746094 720.550781 554.597656 720.699219 C 554.148438 720.925781 553.777344 721.222656 553.332031 721.371094 C 551.695312 722.113281 550.285156 722.1875 549.988281 722.929688 C 549.691406 723.527344 550.878906 725.085938 553.777344 725.308594 C 554.523438 725.382812 555.265625 725.308594 556.15625 725.085938 C 556.601562 724.9375 556.976562 724.863281 557.421875 724.714844 C 557.867188 724.566406 558.238281 724.417969 558.980469 723.972656 C 560.097656 723.152344 561.285156 722.113281 562.03125 720.925781 C 562.699219 719.734375 563.21875 718.398438 563.886719 716.984375 C 562.996094 716.539062 562.179688 716.09375 561.285156 715.570312 C 559.726562 714.605469 558.015625 714.011719 556.082031 713.863281 Z M 623.578125 707.023438 C 630.417969 706.207031 637.925781 704.941406 645.65625 703.15625 C 653.386719 701.300781 660.597656 698.996094 667.066406 696.617188 C 673.53125 694.164062 679.183594 691.710938 683.789062 689.332031 C 693.082031 684.574219 698.285156 680.78125 697.914062 680.113281 C 697.097656 678.554688 674.5 690.371094 644.246094 697.507812 C 614.0625 704.867188 588.566406 704.570312 588.492188 706.355469 C 588.492188 707.097656 594.8125 708.136719 605.21875 708.136719 C 610.496094 708.0625 616.738281 707.765625 623.578125 707.023438 Z M 695.90625 721 C 695.089844 719.4375 675.167969 729.769531 648.777344 736.980469 C 622.390625 744.339844 600.015625 745.601562 600.089844 747.386719 C 600.089844 748.128906 605.8125 748.800781 614.957031 748.429688 C 624.097656 748.054688 636.8125 746.347656 650.339844 742.628906 C 663.867188 738.914062 675.613281 733.859375 683.714844 729.472656 C 691.746094 725.085938 696.277344 721.59375 695.90625 721 Z M 437.59375 738.167969 C 437.742188 736.757812 437.890625 735.34375 438.039062 733.933594 C 438.78125 724.9375 438.039062 716.6875 436.773438 710.890625 C 435.585938 705.089844 434.023438 701.746094 433.28125 701.894531 C 432.613281 702.042969 432.539062 704.273438 432.613281 707.988281 C 431.570312 704.867188 430.53125 703.15625 429.9375 703.308594 C 428.226562 703.753906 430.828125 716.984375 428.894531 733.039062 C 428.820312 733.710938 428.746094 734.453125 428.671875 735.121094 C 428.523438 735.046875 428.449219 735.046875 428.300781 734.972656 C 414.472656 730.066406 403.324219 724.640625 399.308594 723.675781 C 401.613281 709.402344 401.761719 696.394531 401.019531 686.65625 C 400.945312 685.167969 400.796875 683.832031 400.648438 682.492188 C 404.738281 685.539062 415.441406 691.339844 428.375 697.285156 C 445.324219 705.089844 459.671875 710.21875 460.339844 708.734375 C 461.007812 707.246094 447.777344 699.738281 430.828125 691.933594 C 416.777344 685.464844 404.585938 680.859375 400.425781 680.261719 C 399.457031 672.902344 398.195312 668.667969 397.601562 668.742188 C 395.816406 668.890625 399.308594 696.46875 392.324219 729.324219 C 391.503906 733.414062 390.539062 737.277344 389.570312 741.070312 C 389.050781 742.925781 388.53125 744.785156 388.011719 746.644531 C 387.195312 749.246094 386.375 751.773438 385.632812 754.226562 C 387.640625 755.117188 389.570312 756.011719 391.503906 756.902344 C 392.695312 757.421875 393.882812 757.941406 395.074219 758.464844 C 397.378906 759.503906 399.605469 760.46875 401.761719 761.363281 C 406 763.144531 409.71875 764.707031 412.839844 765.898438 C 419.082031 768.351562 422.800781 769.464844 423.097656 768.945312 C 423.394531 768.425781 420.050781 766.195312 414.25 762.921875 C 411.351562 761.289062 407.785156 759.355469 403.695312 757.273438 C 401.6875 756.234375 399.457031 755.117188 397.230469 753.929688 C 396.113281 753.335938 394.925781 752.738281 393.734375 752.144531 L 392.398438 751.476562 L 392.324219 751.476562 L 392.171875 751.402344 L 392.25 751.328125 L 392.25 751.253906 C 392.25 751.179688 392.25 751.402344 392.324219 751.03125 C 392.621094 750.136719 392.917969 749.246094 393.289062 748.28125 C 393.882812 746.421875 394.476562 744.5625 395 742.628906 C 396.113281 738.765625 397.152344 734.675781 397.972656 730.511719 C 398.34375 728.878906 398.640625 727.167969 398.9375 725.53125 C 402.433594 728.878906 412.691406 735.566406 426.292969 740.398438 C 426.738281 740.546875 427.261719 740.773438 427.707031 740.921875 C 425.476562 752.960938 422.054688 761.585938 423.320312 762.179688 C 423.988281 762.550781 426.292969 759.875 428.746094 754.746094 C 428.96875 754.375 429.117188 753.929688 429.339844 753.558594 C 428.152344 760.097656 427.261719 764.261719 428.152344 764.632812 C 428.894531 764.929688 430.902344 761.808594 433.058594 756.308594 C 434.394531 752.886719 435.660156 748.503906 436.625 743.597656 C 449.335938 746.792969 459 746.792969 459.074219 745.601562 C 459.371094 744.414062 450.007812 742.183594 437.59375 738.167969 Z M 437.59375 738.167969 " fill-opacity="1" fill-rule="nonzero"/></g></svg>