<svg xmlns="http://www.w3.org/2000/svg" xmlns:xlink="http://www.w3.org/1999/xlink" width="1080" zoomAndPan="magnify" viewBox="0 0 810 809.999993" height="1080" preserveAspectRatio="xMidYMid meet" version="1.0"><defs><clipPath id="81cde6a053"><path d="M 164.902344 27 L 644.902344 27 L 644.902344 782.894531 L 164.902344 782.894531 Z M 164.902344 27 " clip-rule="nonzero"/></clipPath></defs><g clip-path="url(#81cde6a053)"><path fill="#e4e4e7" d="M 453.316406 69.050781 C 450.070312 69.128906 446.972656 69.277344 444.101562 69.355469 C 443.417969 69.355469 442.664062 69.429688 442.058594 69.429688 C 441.757812 69.429688 441.378906 69.429688 441.078125 69.429688 C 440.925781 69.429688 440.925781 69.429688 440.851562 69.355469 C 440.546875 69.203125 440.171875 69.429688 440.171875 69.734375 L 440.09375 69.960938 C 440.09375 70.109375 440.09375 70.414062 440.09375 70.640625 C 440.09375 71.167969 440.09375 71.621094 440.09375 72.074219 C 440.09375 72.980469 440.09375 73.738281 440.019531 74.339844 C 439.867188 75.625 439.640625 76.304688 439.265625 76.382812 C 438.886719 76.457031 438.355469 75.851562 437.828125 74.71875 C 437.527344 74.113281 437.222656 73.433594 436.921875 72.605469 C 436.769531 72.152344 436.621094 71.773438 436.46875 71.320312 C 436.394531 71.015625 436.316406 70.941406 436.242188 70.5625 C 436.164062 70.109375 436.015625 69.734375 435.9375 69.277344 C 435.789062 68.371094 435.863281 67.464844 436.316406 66.558594 C 436.847656 65.726562 437.675781 65.125 438.734375 64.898438 C 439.265625 64.746094 439.945312 64.671875 440.472656 64.59375 C 440.773438 64.519531 441.152344 64.441406 441.457031 64.441406 C 442.136719 64.367188 442.816406 64.214844 443.570312 64.140625 C 446.441406 63.761719 449.691406 63.460938 453.015625 63.386719 C 466.542969 62.933594 477.347656 65.578125 477.121094 67.089844 C 477.042969 68.597656 466.390625 68.597656 453.316406 69.050781 Z M 518.527344 65.953125 C 519.960938 65.878906 521.398438 65.726562 522.683594 65.578125 L 523.664062 65.5 C 523.742188 65.5 523.742188 65.5 523.742188 65.425781 C 523.816406 65.425781 523.816406 65.351562 523.96875 65.273438 C 524.042969 65.273438 524.117188 65.351562 524.195312 65.425781 C 524.195312 65.5 524.269531 65.425781 524.269531 65.578125 L 524.34375 66.105469 C 524.421875 66.484375 524.496094 66.785156 524.570312 67.089844 C 524.875 68.371094 525.101562 69.582031 525.402344 70.488281 C 526.007812 72.378906 526.613281 73.433594 527.140625 73.433594 C 527.746094 73.359375 528.199219 72.226562 528.5 70.261719 C 528.652344 69.277344 528.804688 68.070312 528.878906 66.785156 C 528.878906 66.484375 528.878906 66.105469 528.953125 65.726562 L 528.953125 64.214844 C 528.878906 62.78125 528.878906 61.269531 528.804688 59.757812 C 526.761719 59.835938 524.570312 59.910156 522.378906 59.984375 C 521.019531 60.0625 519.585938 60.0625 518.148438 60.210938 C 507.644531 60.890625 499.257812 62.78125 499.335938 64.367188 C 499.410156 65.953125 508.023438 66.710938 518.527344 65.953125 Z M 453.621094 129.878906 C 454.148438 130.257812 454.601562 130.558594 455.054688 130.9375 C 455.054688 132.070312 455.054688 133.128906 454.980469 134.035156 C 454.90625 135.695312 454.828125 136.90625 455.507812 137.433594 C 456.113281 137.886719 457.472656 137.285156 458.757812 135.46875 C 459.210938 134.789062 459.664062 133.960938 459.96875 132.976562 C 460.421875 132.597656 460.648438 131.769531 460.496094 130.632812 C 460.648438 129.578125 460.648438 128.519531 460.496094 127.308594 C 460.042969 123.984375 458.457031 121.265625 456.792969 119.828125 C 455.132812 118.394531 453.621094 118.167969 453.167969 118.769531 C 452.636719 119.375 453.015625 120.585938 453.46875 122.171875 C 453.621094 122.699219 453.773438 123.230469 453.921875 123.832031 C 452.789062 123.53125 451.730469 123.457031 450.824219 123.53125 C 449.164062 123.757812 448.332031 124.589844 448.332031 125.34375 C 448.332031 126.175781 449.085938 126.855469 450.070312 127.535156 C 451.203125 128.214844 452.335938 128.972656 453.621094 129.878906 Z M 537.339844 309.863281 C 535.300781 298.226562 529.484375 288.40625 523.890625 279.789062 C 518.148438 271.253906 512.632812 263.167969 506.285156 256.292969 C 500.015625 249.414062 492.609375 243.898438 484.675781 241.632812 C 476.742188 239.289062 469.035156 240.273438 463.066406 242.160156 C 457.019531 244.125 452.261719 246.769531 448.558594 249.039062 C 441.152344 253.648438 437.527344 256.746094 437.675781 257.046875 C 437.902344 257.425781 442.058594 254.929688 449.617188 251.003906 C 453.394531 249.039062 458.152344 246.847656 463.898438 245.261719 C 469.640625 243.75 476.515625 243.144531 483.390625 245.488281 C 490.34375 247.753906 496.917969 252.816406 502.734375 259.464844 C 508.554688 266.039062 513.84375 274.199219 519.433594 282.664062 C 524.875 291.125 530.085938 300.34375 531.824219 310.769531 C 533.640625 321.199219 532.050781 332.457031 529.785156 343.941406 C 527.59375 355.425781 524.949219 366.988281 525.328125 378.625 C 525.628906 390.261719 528.804688 400.6875 529.179688 410.511719 C 529.710938 420.183594 527.441406 429.703125 521.324219 435.371094 C 515.277344 441.113281 506.890625 442.925781 499.484375 443.683594 C 492.003906 444.363281 484.976562 444.210938 478.859375 444.210938 C 472.738281 444.136719 467.597656 443.757812 463.367188 443.078125 C 454.980469 441.71875 450.671875 439.375 450.445312 439.828125 C 450.296875 440.054688 454.300781 443.152344 462.914062 445.269531 C 467.222656 446.328125 472.511719 447.082031 478.707031 447.460938 C 484.902344 447.761719 491.855469 448.292969 499.789062 447.761719 C 503.71875 447.460938 507.949219 446.929688 512.179688 445.648438 C 516.410156 444.363281 520.792969 442.246094 524.496094 438.847656 C 528.199219 435.519531 530.917969 430.835938 532.429688 425.925781 C 533.941406 420.9375 534.46875 415.648438 534.320312 410.285156 C 534.015625 399.628906 530.917969 389.128906 530.84375 378.472656 C 530.617188 367.742188 533.109375 356.636719 535.378906 345 C 537.644531 333.4375 539.457031 321.425781 537.339844 309.863281 Z M 412.289062 284.171875 C 412.96875 284.777344 416.292969 281.453125 422.488281 277.523438 C 428.609375 273.59375 437.902344 269.289062 448.859375 268.230469 C 459.816406 267.097656 469.789062 269.515625 476.515625 272.082031 C 483.390625 274.652344 487.320312 277.222656 487.847656 276.542969 C 488.300781 276.011719 485.128906 272.234375 478.175781 268.382812 C 471.378906 264.601562 460.421875 261.277344 448.253906 262.488281 C 436.089844 263.695312 426.039062 269.136719 420.070312 274.273438 C 414.101562 279.335938 411.761719 283.71875 412.289062 284.171875 Z M 510.746094 349.078125 C 511.425781 349.230469 513.238281 345.453125 514.296875 338.878906 C 514.824219 335.628906 515.125 331.625 514.976562 327.242188 C 514.824219 322.859375 514.21875 318.023438 513.011719 313.039062 C 511.800781 308.050781 510.0625 303.515625 508.175781 299.511719 C 506.210938 295.582031 504.171875 292.105469 502.128906 289.460938 C 498.125 284.097656 494.800781 281.605469 494.273438 282.058594 C 493.59375 282.585938 495.785156 285.988281 498.65625 291.578125 C 500.164062 294.375 501.675781 297.773438 503.265625 301.550781 C 504.773438 305.40625 506.210938 309.714844 507.34375 314.320312 C 508.476562 318.929688 509.15625 323.390625 509.609375 327.546875 C 509.988281 331.625 510.140625 335.402344 510.140625 338.578125 C 510.289062 344.847656 509.914062 348.851562 510.746094 349.078125 Z M 313.832031 447.082031 C 311.113281 444.511719 308.996094 443.53125 308.46875 444.058594 C 307.335938 445.269531 312.777344 451.84375 316.402344 461.289062 C 320.179688 470.65625 320.710938 479.195312 322.371094 479.269531 C 322.449219 479.269531 322.523438 479.269531 322.597656 479.195312 C 322.902344 480.253906 323.277344 481.3125 323.582031 482.21875 C 325.167969 486.222656 326.753906 488.339844 327.511719 488.113281 C 329.019531 487.507812 326.375 477.835938 326.453125 465.898438 C 326.375 453.882812 329.171875 444.285156 327.660156 443.683594 C 326.980469 443.378906 325.320312 445.570312 323.730469 449.5 C 322.75 451.84375 321.917969 454.941406 321.390625 458.417969 C 319.273438 453.503906 316.328125 449.5 313.832031 447.082031 Z M 332.875 449.953125 C 333.855469 450.785156 334.535156 451.085938 334.6875 450.9375 C 335.066406 450.558594 332.875 448.820312 331.664062 444.511719 C 331.136719 442.398438 330.910156 439.601562 331.4375 436.503906 C 331.96875 433.40625 333.402344 430.082031 335.671875 426.679688 C 337.863281 423.28125 340.882812 419.878906 344.207031 416.101562 C 347.457031 412.324219 350.933594 408.242188 354.636719 404.011719 C 361.890625 395.398438 369.976562 386.105469 378.210938 375.902344 C 382.292969 370.765625 386.070312 365.476562 389.242188 360.035156 C 392.417969 354.597656 394.910156 348.929688 396.722656 343.488281 C 400.273438 332.457031 401.863281 322.40625 403.675781 314.171875 C 405.414062 305.933594 407.226562 299.359375 408.8125 294.980469 C 409.570312 292.789062 410.25 291.050781 410.703125 289.839844 C 411.15625 288.632812 411.230469 287.953125 411.078125 287.875 C 410.929688 287.800781 410.398438 288.253906 409.644531 289.3125 C 408.886719 290.292969 407.90625 291.957031 406.773438 294.070312 C 404.507812 298.378906 401.9375 304.953125 399.746094 313.1875 C 397.402344 321.425781 395.4375 331.398438 391.738281 341.75 C 389.921875 346.890625 387.503906 352.027344 384.40625 357.164062 C 381.308594 362.226562 377.683594 367.289062 373.675781 372.351562 C 365.515625 382.402344 357.660156 391.921875 350.554688 400.613281 C 347.003906 404.996094 343.679688 409.152344 340.507812 413.078125 C 337.410156 417.007812 334.386719 420.710938 332.195312 424.566406 C 330.003906 428.417969 328.566406 432.421875 328.265625 436.050781 C 327.964844 439.675781 328.566406 442.851562 329.550781 445.191406 C 330.53125 447.535156 331.816406 449.046875 332.875 449.953125 Z M 293.808594 434.539062 C 288.066406 438.242188 285.273438 443.304688 286.40625 444.363281 C 287.613281 445.417969 291.84375 442.625 296.90625 439.375 C 301.96875 436.050781 306.203125 433.328125 305.75 431.742188 C 305.296875 430.230469 299.550781 430.761719 293.808594 434.539062 Z M 196.035156 404.691406 C 195.203125 406.128906 202.984375 411.945312 212.429688 418.972656 C 221.953125 426 229.808594 431.59375 230.945312 430.457031 C 232 429.324219 225.652344 421.617188 215.832031 414.363281 C 206.007812 407.035156 196.789062 403.332031 196.035156 404.691406 Z M 644.789062 661.75 C 642.070312 661.070312 639.5 660.3125 636.929688 659.632812 C 633.53125 658.804688 630.28125 658.199219 627.257812 657.667969 C 621.136719 656.6875 615.847656 656.308594 611.464844 656.160156 C 602.703125 655.929688 597.867188 656.386719 597.789062 655.929688 C 597.714844 655.628906 602.550781 654.34375 611.464844 653.890625 C 615.925781 653.664062 621.363281 653.742188 627.710938 654.421875 C 630.886719 654.796875 634.210938 655.25 637.761719 656.007812 L 639.121094 656.308594 L 639.652344 656.386719 L 640.558594 656.535156 C 640.558594 656.308594 640.480469 655.929688 640.40625 655.628906 L 640.332031 655.175781 L 640.105469 653.742188 C 637.761719 636.363281 635.191406 615.28125 632.699219 591.78125 C 631.339844 592.6875 629.601562 593.820312 627.484375 595.03125 C 621.289062 598.730469 611.917969 603.339844 599.832031 607.722656 C 587.664062 612.105469 572.703125 615.734375 555.777344 617.847656 C 538.851562 619.964844 520.039062 620.265625 500.46875 618.605469 C 480.898438 616.867188 462.535156 613.390625 446.0625 609.460938 C 429.59375 605.53125 415.007812 601.148438 402.84375 597.144531 C 390.679688 593.214844 380.929688 589.664062 374.28125 587.171875 C 367.632812 584.601562 364.003906 583.015625 364.082031 582.636719 C 364.308594 581.808594 379.496094 586.339844 403.976562 593.292969 C 428.457031 600.09375 462.535156 609.386719 500.996094 612.863281 C 520.1875 614.523438 538.625 614.296875 555.25 612.558594 C 571.871094 610.820312 586.605469 607.648438 598.621094 603.871094 C 615.394531 598.65625 626.957031 592.914062 632.625 590.195312 C 630.734375 571.757812 628.84375 551.960938 627.183594 531.179688 C 623.40625 483.199219 621.363281 439.601562 620.609375 408.09375 C 620.230469 392.300781 620.082031 379.53125 620.230469 370.765625 C 620.230469 370.011719 620.230469 369.332031 620.230469 368.648438 C 620.15625 369.027344 620.003906 369.40625 619.929688 369.707031 C 617.359375 378.851562 613.960938 385.726562 611.390625 390.335938 C 610.105469 392.601562 608.972656 394.339844 608.140625 395.398438 C 607.3125 396.53125 606.78125 397.0625 606.628906 396.910156 C 606.480469 396.835938 606.628906 396.078125 607.160156 394.792969 C 607.6875 393.507812 608.445312 391.695312 609.425781 389.277344 C 611.316406 384.519531 614.035156 377.566406 616.074219 368.648438 C 618.117188 359.808594 619.398438 348.929688 618.417969 336.992188 C 617.890625 331.019531 616.90625 324.824219 614.941406 318.628906 C 614.1875 315.457031 612.828125 312.433594 611.769531 309.257812 C 611.164062 307.671875 610.410156 306.160156 609.730469 304.574219 C 609.046875 302.988281 608.367188 301.402344 607.539062 299.890625 C 601.339844 287.5 593.632812 276.464844 586.457031 266.566406 C 579.277344 256.667969 572.628906 247.753906 567.414062 240.046875 C 562.125 232.339844 558.421875 225.691406 555.929688 221.082031 C 554.570312 218.210938 553.664062 216.09375 553.210938 214.882812 C 552.753906 217.300781 552.378906 218.585938 552.074219 218.585938 C 551.320312 218.511719 551.246094 209.671875 551.847656 195.3125 C 551.847656 194.9375 551.847656 195.011719 551.847656 194.859375 C 551.847656 194.785156 551.847656 194.558594 551.773438 194.558594 L 551.394531 194.484375 L 551.246094 194.484375 L 550.640625 194.332031 C 548.828125 193.953125 546.863281 193.652344 544.820312 193.425781 C 540.816406 192.894531 536.433594 192.894531 531.902344 193.125 C 522.757812 193.652344 512.859375 195.996094 503.113281 200.148438 C 493.367188 204.304688 484.828125 209.972656 477.574219 215.714844 C 472.058594 220.171875 467.296875 224.707031 463.140625 228.863281 C 467.222656 226.445312 472.207031 223.953125 477.875 221.457031 C 483.695312 218.964844 490.265625 216.621094 497.21875 214.582031 C 504.246094 212.617188 511.121094 211.257812 517.316406 210.351562 C 523.589844 209.519531 529.257812 209.066406 534.015625 208.992188 C 543.539062 208.839844 549.429688 209.820312 549.429688 210.503906 C 549.429688 212.238281 526.082031 212.238281 498.730469 220.097656 C 479.386719 225.464844 463.671875 233.09375 455.886719 236.570312 C 448.558594 244.804688 444.476562 250.171875 443.796875 249.71875 C 443.34375 249.414062 445.761719 244.503906 451.203125 236.949219 C 450.445312 237.324219 449.539062 237.703125 448.558594 238.007812 C 447.046875 238.460938 445.082031 238.761719 442.964844 238.234375 C 440.851562 237.78125 438.734375 236.417969 437.375 234.53125 C 434.503906 230.828125 433.824219 226.292969 432.691406 222.515625 C 428.761719 208.613281 421.734375 198.414062 421.054688 195.464844 C 420.296875 195.464844 419.46875 195.390625 418.636719 195.085938 C 417.878906 194.785156 417.050781 194.332031 416.367188 193.578125 C 415.6875 192.820312 415.234375 191.988281 414.859375 191.007812 C 414.175781 189.042969 414.253906 186.851562 414.78125 184.734375 C 415.234375 182.847656 416.140625 181.183594 416.972656 179.597656 C 414.101562 179.445312 410.171875 178.917969 405.335938 177.558594 C 400.351562 176.121094 394.53125 173.855469 388.636719 170.226562 C 385.765625 168.492188 382.519531 166.300781 379.875 163.125 C 378.589844 161.539062 377.304688 159.648438 376.699219 157.308594 C 376.019531 155.039062 376.019531 152.394531 376.773438 150.054688 C 377.53125 147.710938 378.816406 145.898438 380.023438 144.234375 C 381.308594 142.648438 382.519531 141.289062 383.574219 139.929688 C 385.84375 137.207031 387.957031 134.488281 389.847656 131.84375 C 393.699219 126.554688 396.875 121.566406 399.445312 117.335938 C 400.351562 115.75 401.257812 114.3125 402.011719 112.953125 C 401.710938 112.046875 401.40625 110.761719 401.105469 109.101562 C 400.425781 105.398438 400.199219 99.804688 401.257812 93.003906 C 402.316406 86.203125 404.960938 78.347656 409.570312 70.5625 C 414.175781 62.78125 420.828125 55.074219 429.367188 48.800781 C 437.902344 42.683594 447.121094 38.601562 455.734375 36.183594 C 464.425781 33.691406 472.433594 32.785156 479.160156 32.558594 C 480.671875 32.480469 482.03125 32.480469 483.390625 32.480469 C 483.390625 32.253906 483.316406 32.101562 483.316406 31.875 C 483.238281 31.273438 483.164062 30.441406 483.164062 29.535156 C 483.164062 29.082031 483.089844 28.550781 483.089844 28.023438 C 483.089844 27.722656 483.089844 27.496094 483.089844 27.191406 C 483.011719 26.964844 483.238281 27.117188 483.390625 27.117188 L 483.769531 27.191406 C 484.902344 27.34375 486.113281 27.496094 487.472656 27.644531 C 488.453125 27.722656 489.4375 27.871094 490.492188 28.023438 C 491.550781 28.175781 492.609375 28.324219 493.742188 28.476562 C 498.277344 29.15625 503.71875 30.140625 509.609375 31.953125 C 515.503906 33.691406 521.925781 36.335938 528.125 40.1875 C 534.242188 44.117188 539.382812 49.179688 542.859375 54.546875 C 546.410156 59.835938 548.375 65.351562 549.28125 70.109375 C 549.882812 73.511719 549.808594 76.457031 549.507812 78.800781 C 551.019531 79.632812 552.90625 80.914062 554.871094 83.03125 C 557.0625 85.296875 559.179688 88.394531 560.765625 92.324219 C 562.277344 96.179688 563.183594 100.9375 562.652344 105.851562 C 562.125 110.761719 560.386719 115.21875 558.121094 118.695312 C 555.855469 122.246094 553.132812 124.890625 550.566406 126.628906 C 545.351562 130.257812 541.347656 130.484375 541.195312 129.804688 C 540.894531 128.972656 544.140625 127.386719 547.996094 123.457031 C 549.882812 121.566406 551.925781 119.074219 553.585938 116.050781 C 552.832031 115.371094 553.210938 109.929688 550.1875 102.375 C 548.449219 98.445312 545.957031 93.910156 542.101562 89.90625 C 540.210938 87.867188 537.945312 85.976562 535.453125 84.390625 C 532.960938 82.730469 530.164062 81.445312 527.140625 80.539062 C 521.625 78.875 515.808594 78.800781 510.367188 79.027344 C 510.972656 82.277344 511.574219 85.449219 512.179688 88.472656 C 512.332031 89.226562 512.480469 90.058594 512.632812 90.8125 L 512.707031 91.117188 C 512.707031 91.191406 512.558594 91.191406 512.480469 91.191406 L 511.878906 91.34375 L 510.746094 91.644531 C 509.460938 91.949219 508.175781 92.25 506.890625 92.550781 C 505.378906 92.929688 503.867188 93.308594 502.433594 93.609375 C 496.691406 95.046875 491.550781 96.480469 487.320312 97.765625 C 482.9375 99.125 479.460938 100.183594 477.042969 100.863281 C 477.800781 101.089844 478.480469 101.316406 479.3125 101.542969 C 484.070312 102.980469 489.890625 104.113281 496.539062 105.472656 C 503.113281 106.832031 510.59375 108.417969 518.074219 111.746094 C 524.496094 114.539062 530.238281 118.695312 534.242188 123.683594 C 536.207031 126.101562 537.796875 128.367188 539.457031 130.105469 C 540.289062 130.9375 541.121094 131.691406 542.027344 132.222656 C 542.554688 132.449219 542.628906 132.675781 544.066406 133.050781 C 545.199219 133.277344 546.332031 133.503906 547.464844 133.730469 C 545.351562 140.078125 544.671875 141.515625 543.6875 144.160156 C 542.707031 146.578125 541.875 148.617188 541.121094 150.28125 C 539.609375 153.605469 538.625 155.417969 538.171875 155.34375 C 537.71875 155.191406 537.945312 153.152344 538.703125 149.523438 C 539.078125 147.710938 539.609375 145.59375 540.214844 143.101562 C 540.742188 140.910156 542.027344 136.679688 541.648438 137.058594 C 541.195312 136.980469 541.648438 137.285156 539.683594 136.378906 C 538.324219 135.695312 537.039062 134.714844 535.980469 133.730469 C 533.714844 131.691406 531.976562 129.351562 530.085938 127.160156 C 528.5 125.269531 526.535156 123.53125 524.421875 121.945312 C 524.195312 122.699219 522.605469 123.003906 521.171875 124.4375 C 520.492188 125.117188 519.8125 126.101562 519.660156 127.160156 C 519.433594 128.140625 519.660156 129.273438 520.339844 130.40625 C 521.019531 131.542969 522.003906 132.296875 523.0625 132.675781 C 524.117188 133.050781 525.328125 133.050781 526.386719 132.902344 C 528.5 132.597656 529.9375 131.617188 530.617188 132.070312 C 531.222656 132.449219 530.917969 134.714844 527.972656 136.605469 C 526.535156 137.511719 524.421875 138.191406 522.003906 137.8125 C 519.507812 137.511719 516.941406 135.847656 515.503906 133.429688 C 513.992188 131.011719 513.617188 127.914062 514.671875 125.496094 C 515.65625 123.078125 517.542969 121.644531 519.132812 121.039062 C 520.339844 120.585938 521.472656 120.507812 522.304688 120.585938 C 520.265625 119.300781 518.074219 118.089844 515.730469 117.035156 C 511.800781 115.296875 507.796875 114.011719 503.792969 112.878906 C 503.945312 113.253906 504.019531 113.632812 504.171875 114.011719 C 504.851562 116.582031 504.773438 120.433594 503.265625 124.289062 C 501.753906 128.140625 499.183594 131.011719 496.992188 132.523438 C 496.992188 132.523438 496.917969 132.523438 496.917969 132.597656 C 498.957031 133.582031 501.074219 134.5625 503.265625 135.621094 C 516.410156 141.894531 527.820312 147.257812 533.1875 150.355469 C 533.867188 148.390625 534.546875 147.332031 535.074219 147.410156 C 535.832031 147.558594 536.132812 149.523438 536.359375 152.699219 C 536.433594 152.773438 536.433594 152.925781 536.433594 153 C 536.738281 156.777344 536.886719 162.144531 537.570312 168.035156 C 538.550781 177.933594 540.515625 186.171875 539.910156 188.210938 C 541.800781 188.363281 543.613281 188.589844 545.425781 188.890625 C 547.542969 189.269531 549.65625 189.648438 551.546875 190.175781 C 553.058594 190.554688 554.492188 191.007812 555.929688 191.386719 L 556.230469 191.460938 L 556.230469 191.761719 L 556.15625 192.367188 L 556.003906 193.578125 C 555.929688 194.332031 555.855469 195.085938 555.777344 195.769531 C 554.871094 203.703125 554.039062 209.972656 553.359375 213.902344 C 554.117188 214.582031 555.628906 216.773438 557.820312 220.097656 C 560.839844 224.328125 564.996094 230.527344 570.664062 237.855469 C 576.332031 245.183594 583.132812 253.949219 590.6875 263.621094 C 598.167969 273.445312 606.175781 284.550781 612.675781 297.546875 C 613.507812 299.132812 614.261719 300.796875 614.941406 302.460938 C 615.621094 304.121094 616.378906 305.707031 617.058594 307.371094 C 618.191406 310.695312 619.550781 313.945312 620.308594 317.34375 C 622.273438 323.917969 623.253906 330.566406 623.632812 336.839844 C 624.160156 346.207031 623.328125 354.824219 621.742188 362.304688 C 621.96875 364.496094 622.195312 367.367188 622.421875 370.765625 C 622.953125 379.605469 623.707031 392.300781 624.613281 408.015625 C 626.425781 439.449219 629.070312 482.898438 632.851562 530.804688 C 636.628906 578.707031 640.933594 622.003906 644.109375 653.363281 C 644.261719 654.648438 644.410156 656.007812 644.488281 657.292969 C 644.5625 658.121094 644.636719 658.878906 644.714844 659.710938 L 644.863281 660.84375 L 644.941406 661.449219 C 644.941406 661.597656 645.089844 661.976562 644.789062 661.75 Z M 406.546875 173.855469 C 411.304688 175.742188 415.234375 176.878906 417.957031 177.632812 C 418.558594 176.347656 419.089844 175.0625 419.316406 173.78125 C 419.695312 171.964844 419.617188 170 419.316406 167.886719 C 418.636719 163.730469 416.898438 159.726562 415.160156 156.023438 C 413.421875 152.320312 411.835938 148.769531 410.929688 145.59375 C 410.324219 143.402344 410.023438 141.441406 409.945312 139.851562 C 408.738281 140.609375 407.378906 140.835938 406.09375 140.457031 C 404.203125 139.851562 403.070312 137.964844 402.691406 136 L 402.542969 135.242188 C 402.542969 134.941406 402.464844 134.714844 402.464844 134.5625 L 402.464844 133.65625 C 402.464844 133.050781 402.464844 132.523438 402.464844 131.996094 C 402.769531 123.230469 404.734375 118.167969 405.488281 118.316406 C 406.320312 118.46875 405.789062 123.683594 406.546875 131.84375 C 406.621094 132.371094 406.621094 132.902344 406.699219 133.429688 L 406.773438 134.1875 C 406.773438 134.335938 406.847656 134.414062 406.847656 134.414062 L 406.847656 134.488281 C 406.925781 134.714844 407.074219 134.941406 407.300781 134.941406 C 407.527344 134.941406 407.679688 134.714844 407.679688 134.5625 C 407.679688 134.414062 407.679688 134.5625 407.90625 133.808594 C 408.132812 133.128906 408.359375 132.449219 408.585938 131.691406 C 409.570312 128.898438 410.929688 126.023438 412.742188 123.304688 C 414.480469 120.585938 416.671875 117.941406 419.242188 115.671875 C 424.226562 110.988281 430.121094 107.738281 435.863281 106.078125 C 441.53125 104.339844 447.046875 104.035156 451.503906 104.792969 C 456.039062 105.546875 459.4375 107.4375 461.253906 109.25 C 463.066406 111.140625 463.441406 112.574219 463.140625 112.726562 C 463.140625 112.726562 463.140625 112.726562 463.066406 112.726562 C 465.9375 114.011719 468.582031 116.730469 469.488281 120.585938 C 471.90625 120.660156 481.199219 125.042969 493.441406 130.9375 C 494.574219 128.898438 496.613281 126.023438 497.972656 122.324219 C 499.636719 118.167969 500.089844 114.238281 500.695312 112.046875 C 498.957031 111.59375 497.144531 111.140625 495.480469 110.6875 C 488.984375 109.101562 483.011719 107.4375 478.101562 105.472656 C 473.265625 103.507812 469.5625 101.316406 467.222656 99.503906 C 464.878906 97.691406 463.972656 96.328125 464.125 96.027344 C 464.578125 95.421875 468.128906 97.839844 474.777344 100.183594 C 476.667969 98.824219 480.519531 96.707031 486.113281 94.289062 C 490.265625 92.476562 495.328125 90.585938 501.148438 88.847656 C 502.582031 88.394531 504.09375 88.019531 505.605469 87.566406 L 506.210938 87.414062 C 506.4375 87.339844 506.285156 87.414062 506.363281 87.339844 L 506.4375 87.261719 C 506.511719 87.261719 506.4375 87.1875 506.4375 87.113281 L 506.4375 87.035156 L 506.210938 85.902344 C 506.058594 85.070312 505.832031 84.242188 505.683594 83.410156 L 505.378906 82.125 L 505.226562 81.519531 C 505.226562 81.367188 505.226562 81.445312 505.226562 81.445312 C 504.851562 81.59375 504.398438 81.746094 504.019531 81.824219 C 502.582031 82.277344 501.148438 82.730469 499.636719 83.105469 C 483.84375 87.714844 469.035156 89.832031 458.378906 90.511719 C 447.652344 91.191406 441 90.664062 441 89.90625 C 440.925781 88.320312 463.367188 86.808594 491.023438 79.554688 C 487.394531 79.328125 484.375 78.800781 482.257812 78.121094 C 479.765625 77.363281 478.480469 76.53125 478.632812 76.230469 C 478.859375 75.398438 484.222656 76.53125 492.988281 75.625 C 497.371094 75.25 502.582031 74.417969 508.628906 73.8125 C 514.597656 73.285156 521.625 72.90625 528.878906 75.023438 C 532.429688 76.078125 535.832031 77.667969 538.625 79.707031 C 541.496094 81.671875 544.066406 83.9375 546.03125 86.355469 C 550.261719 91.191406 552.679688 96.480469 553.890625 101.089844 C 555.097656 105.699219 555.175781 109.554688 554.871094 112.199219 C 554.796875 112.726562 554.71875 113.179688 554.644531 113.632812 C 555.777344 111.0625 556.609375 108.269531 556.910156 105.171875 C 557.667969 97.160156 554.71875 89.90625 551.699219 85.449219 C 550.714844 83.9375 549.734375 82.730469 548.902344 81.671875 C 548.296875 83.9375 547.542969 85.070312 547.238281 84.996094 C 546.636719 84.84375 546.9375 82.652344 546.710938 79.027344 C 546.332031 78.496094 546.105469 78.121094 546.257812 77.894531 C 546.332031 77.816406 546.410156 77.742188 546.558594 77.742188 C 546.332031 75.777344 545.957031 73.433594 545.277344 70.867188 C 543.992188 66.785156 541.949219 62.027344 538.476562 57.492188 C 535.148438 52.882812 530.542969 48.5 525.023438 44.949219 C 513.765625 37.847656 501.601562 34.75 492.910156 32.40625 C 491.855469 32.101562 490.796875 31.800781 489.8125 31.574219 C 489.285156 31.421875 488.832031 31.347656 488.378906 31.195312 L 487.699219 31.046875 C 487.472656 30.96875 487.246094 30.894531 487.167969 30.894531 C 486.714844 30.742188 486.261719 30.59375 485.886719 30.441406 C 485.808594 30.441406 485.582031 30.289062 485.582031 30.367188 L 485.507812 30.59375 C 485.429688 30.742188 485.429688 30.894531 485.355469 31.121094 C 485.203125 31.5 485.128906 31.875 485.054688 32.179688 C 484.976562 32.40625 484.976562 32.558594 484.902344 32.707031 C 494.953125 32.933594 500.769531 34.519531 500.695312 35.050781 C 500.617188 35.957031 492.382812 35.351562 479.460938 36.789062 C 472.964844 37.46875 465.332031 38.828125 457.246094 41.472656 C 449.164062 44.042969 440.625 47.972656 432.691406 53.636719 C 424.832031 59.378906 418.558594 66.332031 414.101562 73.511719 C 409.570312 80.613281 406.699219 87.792969 405.261719 93.988281 C 403.449219 101.316406 403.371094 107.136719 403.296875 110.761719 C 405.941406 106.152344 407.453125 103.355469 407.980469 103.582031 C 408.511719 103.808594 407.753906 107.964844 405.035156 114.539062 C 406.167969 113.707031 409.871094 112.5 413.800781 108.496094 C 416.21875 106.078125 418.636719 102.828125 420.976562 98.824219 C 423.472656 94.820312 425.964844 90.058594 429.894531 85.523438 C 433.824219 80.914062 438.960938 77.816406 443.796875 76.15625 C 448.710938 74.417969 453.394531 74.039062 457.246094 74.265625 C 461.101562 74.570312 464.125 75.476562 466.011719 76.382812 C 467.976562 77.289062 468.882812 78.121094 468.734375 78.421875 C 468.429688 79.253906 464.125 77.816406 457.246094 78.269531 C 453.847656 78.496094 449.84375 79.328125 445.6875 80.992188 C 441.605469 82.730469 437.449219 85.375 434.203125 89.226562 C 430.800781 93.082031 428.230469 97.613281 425.4375 101.621094 C 422.714844 105.699219 419.542969 109.25 416.445312 111.519531 C 413.347656 113.859375 410.25 114.992188 408.058594 115.371094 C 406.242188 115.671875 405.035156 115.445312 404.734375 115.144531 C 404.203125 116.429688 403.597656 117.863281 402.917969 119.300781 C 400.804688 123.910156 397.855469 129.351562 394.078125 134.941406 C 392.191406 137.738281 390.074219 140.683594 387.808594 143.554688 C 385.464844 146.503906 382.894531 149.148438 382.066406 151.867188 C 381.15625 154.4375 382.140625 157.15625 384.105469 159.648438 C 386.070312 162.066406 388.636719 164.03125 391.359375 165.84375 C 396.722656 169.472656 401.9375 172.042969 406.546875 173.855469 Z M 538.398438 188.058594 C 537.644531 187.230469 536.660156 185.640625 535.605469 183.375 C 534.015625 179.824219 532.503906 174.535156 531.824219 168.566406 C 531.222656 162.597656 531.597656 157.15625 532.355469 153.300781 C 532.429688 153.074219 532.429688 152.925781 532.503906 152.699219 C 526.535156 151.339844 514.296875 147.105469 500.769531 140.609375 C 485.128906 133.128906 472.886719 125.117188 469.714844 121.871094 C 469.941406 124.4375 469.414062 126.855469 468.808594 128.972656 C 468.203125 131.238281 467.523438 133.503906 466.84375 135.921875 C 465.484375 140.683594 464.125 145.066406 462.761719 149.222656 C 462.386719 150.28125 461.933594 151.488281 461.175781 152.621094 C 460.496094 153.757812 459.363281 154.8125 458.152344 155.417969 C 456.945312 156.023438 455.507812 156.402344 454 156.097656 C 452.5625 155.796875 451.277344 154.8125 450.597656 153.757812 C 449.3125 151.566406 449.539062 149.523438 450.144531 147.9375 C 450.75 146.425781 451.65625 145.519531 452.410156 144.839844 C 453.921875 143.554688 454.90625 143.253906 455.207031 143.480469 C 455.507812 143.78125 454.980469 144.765625 454.148438 146.277344 C 453.773438 147.03125 453.316406 147.9375 453.242188 148.921875 C 453.089844 149.75 453.394531 150.960938 453.921875 151.414062 C 454.453125 151.867188 454.90625 151.867188 455.8125 151.261719 C 456.644531 150.734375 457.246094 149.523438 457.699219 147.636719 C 458.757812 143.628906 459.96875 139.023438 461.328125 134.261719 C 462.007812 131.917969 462.6875 129.578125 463.367188 127.386719 C 464.046875 125.269531 464.425781 123.378906 464.351562 121.871094 C 464.199219 118.847656 461.78125 116.277344 459.4375 115.597656 C 457.019531 114.765625 454.679688 115.371094 453.242188 115.976562 C 451.730469 116.582031 450.898438 117.183594 450.597656 116.957031 C 450.296875 116.730469 450.523438 115.597656 452.035156 114.164062 C 453.46875 112.800781 456.417969 111.0625 460.421875 111.667969 C 460.949219 111.746094 461.480469 111.894531 462.082031 112.046875 C 461.554688 111.746094 460.875 111.214844 459.890625 110.6875 C 458.003906 109.628906 454.980469 108.570312 451.050781 108.417969 C 443.269531 108.117188 431.933594 111.214844 423.167969 119.527344 C 420.976562 121.566406 419.015625 123.832031 417.425781 126.101562 C 415.765625 128.441406 414.480469 130.859375 413.496094 133.203125 C 413.269531 133.808594 413.042969 134.414062 412.742188 135.015625 C 412.589844 135.394531 412.289062 136.148438 411.910156 136.90625 C 412.363281 138.566406 413.121094 140.984375 414.554688 143.859375 C 415.839844 146.578125 417.652344 149.675781 419.695312 153.300781 C 421.734375 157.003906 423.925781 161.386719 424.832031 166.675781 C 425.210938 169.320312 425.285156 172.042969 424.679688 174.6875 C 424.078125 177.332031 422.867188 179.671875 421.734375 181.410156 C 420.601562 183.222656 419.617188 184.734375 419.164062 186.097656 C 418.636719 187.53125 418.410156 188.816406 418.558594 189.875 C 418.785156 191.007812 419.089844 191.6875 419.84375 192.140625 C 420.523438 192.667969 421.355469 192.894531 422.035156 192.894531 C 423.320312 192.972656 424.078125 192.292969 424.453125 192.519531 C 424.605469 192.59375 424.679688 192.972656 424.453125 193.5 C 424.226562 194.03125 423.621094 194.710938 422.488281 195.164062 C 423.773438 196.070312 425.8125 197.957031 428.082031 200.832031 C 431.632812 205.363281 435.710938 212.390625 438.128906 220.929688 C 439.339844 225.234375 439.945312 229.089844 441.53125 231.355469 C 442.964844 233.625 445.308594 234.304688 447.726562 234 C 450.070312 233.773438 452.183594 232.945312 453.695312 232.488281 C 454.074219 232.414062 454.375 232.261719 454.679688 232.1875 C 455.207031 231.433594 455.8125 230.675781 456.417969 229.921875 C 460.949219 224.253906 466.769531 217.832031 474.097656 211.558594 C 481.425781 205.289062 490.34375 199.167969 500.695312 194.785156 C 511.046875 190.328125 521.699219 188.058594 531.523438 187.757812 C 533.867188 187.910156 536.132812 187.984375 538.398438 188.058594 Z M 502.808594 667.191406 C 495.859375 666.738281 485.734375 665.90625 473.265625 664.695312 C 460.796875 663.488281 445.988281 662.050781 429.59375 660.3125 C 421.355469 659.40625 412.742188 658.5 403.824219 657.519531 C 394.835938 656.460938 385.390625 655.175781 376.019531 652.152344 C 369.523438 650.113281 363.402344 647.089844 357.886719 643.386719 C 358.414062 647.015625 358.867188 654.496094 359.019531 664.773438 C 359.246094 679.429688 358.640625 699.832031 356.449219 722.121094 C 355.46875 732.097656 354.257812 741.617188 352.972656 750.382812 C 352.292969 754.765625 351.613281 758.996094 350.933594 762.925781 C 350.632812 764.890625 350.253906 766.855469 349.875 768.667969 C 349.726562 769.574219 349.574219 770.40625 349.347656 771.238281 L 349.195312 771.839844 L 349.574219 771.917969 L 349.800781 771.992188 C 349.875 771.992188 349.875 771.992188 350.179688 772.066406 C 351.234375 772.21875 352.21875 772.445312 353.199219 772.597656 C 355.164062 772.976562 356.976562 773.277344 358.714844 773.65625 C 362.191406 774.335938 365.140625 774.941406 367.558594 775.46875 C 372.394531 776.527344 375.113281 777.359375 375.039062 777.8125 C 374.960938 778.265625 372.167969 778.265625 367.179688 777.886719 C 364.6875 777.734375 361.664062 777.433594 358.1875 777.128906 C 356.449219 776.980469 354.558594 776.753906 352.597656 776.527344 C 351.613281 776.449219 350.632812 776.300781 349.574219 776.222656 C 347.835938 775.996094 346.023438 775.769531 344.207031 775.542969 C 344.585938 773.125 344.890625 770.558594 345.265625 767.914062 C 345.492188 766.023438 345.796875 764.132812 346.023438 762.167969 C 346.550781 758.164062 347.078125 754.007812 347.609375 749.625 C 348.667969 740.863281 349.726562 731.417969 350.707031 721.519531 C 354.636719 682.527344 355.316406 649.734375 356.601562 642.480469 C 354.636719 641.046875 352.746094 639.535156 350.933594 638.023438 C 343.90625 631.902344 338.316406 624.953125 333.402344 618.226562 C 330.984375 614.828125 328.644531 611.5 326.527344 608.175781 C 325.242188 606.210938 324.035156 604.324219 322.75 602.433594 L 321.3125 600.242188 L 321.164062 599.941406 L 321.464844 599.789062 L 321.992188 599.414062 L 323.050781 598.65625 C 324.183594 597.902344 325.320312 597.144531 326.453125 596.390625 C 332.269531 592.308594 337.105469 587.625 340.960938 583.015625 C 348.742188 573.570312 352.746094 564.351562 354.9375 557.855469 C 357.128906 551.355469 357.808594 547.503906 358.261719 547.578125 C 358.339844 547.578125 358.414062 547.957031 358.414062 548.636719 C 358.714844 546.367188 358.867188 544.253906 359.019531 542.136719 C 359.394531 536.167969 359.167969 530.804688 358.414062 526.421875 C 357.660156 521.507812 356.296875 517.808594 355.390625 515.464844 C 355.390625 515.539062 355.316406 515.617188 355.316406 515.691406 C 354.9375 516.445312 353.957031 517.503906 352.371094 518.183594 C 350.78125 518.863281 348.667969 519.089844 346.324219 518.714844 C 345.117188 518.488281 343.90625 518.109375 342.621094 517.503906 C 341.414062 516.898438 340.28125 516.144531 339.144531 515.3125 C 336.878906 513.652344 334.761719 511.6875 332.34375 510.25 C 330.003906 508.816406 327.207031 508.058594 323.808594 507.453125 C 320.484375 506.851562 316.703125 506.625 312.699219 505.414062 C 310.660156 504.808594 308.542969 503.902344 306.65625 502.617188 C 304.691406 501.257812 303.027344 499.445312 301.820312 497.554688 C 301.367188 496.875 300.988281 496.195312 300.609375 495.515625 C 295.472656 492.191406 287.085938 486.296875 276.429688 478.363281 C 258.523438 465.140625 234.042969 446.476562 207.445312 425.320312 C 200.792969 420.03125 194.296875 414.816406 188.101562 409.753906 C 185.003906 407.261719 181.980469 404.691406 179.035156 402.199219 C 178.277344 401.59375 177.523438 400.988281 176.84375 400.308594 C 176.085938 399.628906 175.253906 398.949219 174.5 398.269531 C 171.628906 395.851562 169.4375 393.585938 166.867188 391.242188 L 165.054688 389.503906 C 164.902344 389.429688 165.054688 389.429688 165.128906 389.429688 L 166.035156 389.429688 L 167.320312 389.355469 C 168.984375 389.277344 170.644531 389.203125 172.234375 389.128906 C 173.820312 389.050781 175.632812 389.050781 177.21875 388.976562 C 178.277344 388.976562 179.261719 388.976562 180.316406 388.902344 C 183.792969 388.902344 187.195312 388.902344 190.441406 388.824219 C 190.667969 388.824219 190.894531 388.824219 191.199219 388.824219 C 190.59375 388.144531 189.6875 386.9375 188.628906 385.574219 C 188.101562 384.820312 187.496094 383.988281 186.890625 383.15625 L 186.664062 382.855469 L 186.96875 382.78125 L 187.648438 382.628906 C 188.175781 382.554688 188.628906 382.476562 189.160156 382.328125 C 194.597656 381.417969 196.789062 381.042969 200.566406 380.589844 C 204.195312 380.136719 208.125 379.910156 212.355469 379.757812 C 216.4375 379.683594 220.363281 379.757812 223.917969 379.984375 C 227.617188 380.210938 229.960938 380.511719 235.097656 381.117188 C 235.097656 382.402344 235.097656 383.609375 235.175781 384.667969 C 235.175781 385.347656 235.25 385.953125 235.25 386.484375 C 235.324219 387.539062 235.476562 388.445312 235.550781 389.203125 C 235.628906 389.65625 235.628906 390.035156 235.703125 390.410156 C 241.445312 390.863281 244.621094 391.320312 244.542969 391.695312 C 244.542969 392.527344 230.714844 392.679688 208.5 393.207031 C 202.984375 393.359375 196.867188 393.507812 190.367188 393.660156 C 187.117188 393.734375 183.71875 393.886719 180.242188 393.964844 C 179.488281 393.964844 178.804688 394.039062 178.050781 394.039062 L 177.597656 394.039062 C 177.597656 394.039062 177.523438 394.039062 177.523438 394.039062 L 177.597656 394.113281 C 177.75 394.191406 177.898438 394.339844 177.976562 394.339844 L 179.941406 396.003906 C 180.695312 396.609375 181.453125 397.210938 182.132812 397.816406 C 185.152344 400.234375 188.175781 402.726562 191.273438 405.222656 C 197.546875 410.207031 203.96875 415.347656 210.617188 420.636719 C 237.214844 441.71875 261.242188 460.910156 278.472656 474.964844 C 286.632812 481.613281 293.28125 487.054688 298.042969 491.058594 C 297.285156 489.472656 296.605469 487.960938 295.851562 486.601562 C 295.019531 485.089844 294.113281 483.730469 293.054688 482.59375 C 292.070312 481.539062 290.789062 480.632812 289.351562 479.722656 C 288.746094 479.347656 288.144531 478.96875 287.539062 478.589844 C 285.5 478.667969 276.128906 471.414062 264.945312 462.496094 C 253.007812 452.976562 243.410156 445.042969 244.316406 443.757812 C 245.074219 442.625 253.308594 446.78125 263.285156 454.035156 C 262.753906 453.355469 262.226562 452.597656 261.773438 451.84375 C 260.941406 450.480469 260.261719 448.894531 259.882812 447.15625 C 258.523438 446.78125 256.859375 446.175781 254.894531 445.570312 C 252.328125 444.664062 249.152344 443.683594 245.679688 441.566406 C 244.015625 440.507812 242.277344 439.148438 240.84375 437.410156 C 239.332031 435.671875 238.046875 433.480469 237.441406 430.914062 C 236.835938 428.191406 237.214844 426.078125 236.988281 424.640625 C 236.914062 423.886719 236.761719 423.433594 236.460938 422.828125 C 236.15625 422.222656 235.703125 421.46875 235.175781 420.636719 C 234.644531 419.804688 234.117188 418.746094 233.816406 417.539062 C 233.511719 416.328125 233.511719 415.121094 233.738281 414.0625 C 234.191406 411.945312 235.25 410.359375 236.382812 409.152344 C 237.441406 408.167969 238.425781 407.488281 239.40625 406.960938 C 239.179688 406.355469 238.878906 405.597656 238.574219 404.691406 C 238.195312 403.632812 237.820312 402.046875 237.894531 400.160156 C 237.96875 397.96875 239.027344 395.699219 240.691406 394.113281 C 242.277344 392.527344 244.394531 391.46875 246.132812 391.089844 C 247.339844 390.789062 248.472656 390.714844 249.457031 390.789062 C 249.757812 388.671875 251.421875 385.425781 255.5 383.988281 C 259.429688 382.628906 264.566406 383.761719 268.574219 386.785156 C 268.800781 386.9375 268.949219 387.085938 269.101562 387.238281 C 269.175781 385.273438 269.78125 381.875 270.914062 377.339844 C 271.820312 373.863281 273.03125 369.785156 274.617188 365.25 C 274.996094 364.117188 275.449219 362.984375 275.902344 361.851562 C 276.128906 361.246094 276.355469 360.714844 276.582031 360.113281 C 276.808594 359.507812 277.109375 358.828125 277.335938 358.222656 C 276.203125 357.996094 276.203125 358.296875 276.203125 358.449219 C 276.203125 358.523438 276.203125 358.523438 276.28125 358.601562 C 276.355469 358.523438 276.203125 358.828125 276.128906 359.128906 L 275.828125 359.960938 C 274.011719 365.550781 271.292969 369.707031 269.78125 369.179688 C 268.269531 368.726562 268.496094 363.738281 270.308594 358.148438 L 270.613281 357.316406 C 270.6875 357.015625 270.765625 356.789062 271.066406 356.183594 C 271.519531 355.125 272.199219 354.21875 273.105469 353.765625 C 274.390625 353.007812 275.828125 353.007812 277.035156 353.386719 C 278.019531 353.6875 278.546875 354.066406 278.925781 354.371094 C 278.925781 354.292969 279 354.21875 279 354.144531 L 279.226562 353.6875 C 279.300781 353.539062 279.300781 353.3125 279.527344 353.460938 L 280.359375 353.914062 L 282.097656 354.824219 C 284.363281 355.957031 286.632812 357.164062 288.898438 358.375 L 289.804688 358.828125 C 289.804688 359.128906 289.578125 359.433594 289.503906 359.734375 L 288.671875 361.625 C 288.292969 362.605469 287.839844 363.585938 287.460938 364.496094 C 286.933594 365.703125 286.480469 366.914062 285.953125 368.046875 C 285.042969 370.386719 284.136719 372.65625 283.230469 374.769531 C 281.570312 379.078125 280.132812 383.007812 278.925781 386.332031 C 277.714844 389.65625 276.734375 392.300781 275.976562 394.191406 C 276.960938 395.246094 277.867188 396.304688 278.847656 397.210938 C 280.511719 398.875 282.171875 400.007812 284.214844 401.066406 C 286.179688 402.125 288.371094 403.179688 290.410156 404.464844 C 294.640625 407.035156 297.4375 410.738281 299.023438 413.988281 C 300.460938 417.085938 300.914062 419.878906 300.914062 421.84375 C 301.894531 422.449219 302.800781 423.128906 303.632812 423.808594 C 305.976562 425.621094 307.941406 427.359375 309.828125 428.796875 C 313.457031 431.820312 316.554688 433.785156 318.972656 434.765625 C 319.574219 434.992188 320.105469 435.21875 320.558594 435.445312 C 321.011719 435.597656 321.464844 435.671875 321.765625 435.824219 C 322.449219 436.050781 322.824219 436.277344 322.824219 436.503906 C 322.824219 436.730469 322.449219 436.882812 321.691406 436.957031 C 321.3125 437.03125 320.859375 437.109375 320.257812 437.109375 C 319.726562 437.109375 319.046875 437.03125 318.367188 436.957031 C 315.496094 436.578125 311.566406 434.839844 307.488281 432.121094 C 305.523438 430.761719 303.332031 429.324219 300.988281 427.738281 C 298.722656 426.226562 296.226562 424.792969 293.582031 424.035156 C 290.9375 423.28125 288.292969 423.203125 285.5 424.261719 C 282.703125 425.246094 279.753906 427.210938 276.65625 429.175781 C 273.636719 431.140625 270.914062 433.101562 268.722656 435.371094 C 266.53125 437.636719 265.097656 440.054688 264.644531 442.546875 C 263.660156 447.609375 266.910156 452.371094 270.082031 455.242188 C 273.105469 457.8125 276.203125 459.472656 278.472656 460.683594 C 278.925781 456.148438 280.511719 452.824219 281.570312 450.558594 C 282.929688 447.835938 283.910156 446.476562 284.289062 446.628906 C 284.667969 446.78125 284.363281 448.441406 283.683594 451.3125 C 283.082031 454.109375 281.945312 458.265625 282.398438 463.023438 C 282.777344 463.328125 282.929688 463.480469 282.855469 463.628906 C 282.855469 463.707031 282.703125 463.78125 282.476562 463.78125 C 282.777344 465.972656 283.535156 468.238281 284.816406 470.128906 C 286.253906 472.242188 288.597656 473.605469 291.84375 475.339844 C 293.433594 476.25 295.171875 477.304688 296.757812 478.894531 C 298.34375 480.40625 299.550781 482.140625 300.609375 483.957031 C 302.652344 487.507812 304.085938 491.210938 306.050781 494.230469 C 308.015625 497.253906 310.585938 498.917969 313.832031 499.972656 C 317.082031 501.03125 320.785156 501.410156 324.335938 502.164062 C 327.886719 502.921875 331.515625 504.054688 334.460938 506.171875 C 337.332031 508.210938 339.296875 510.402344 341.1875 512.0625 C 342.09375 512.894531 343 513.652344 343.90625 514.253906 C 344.738281 514.785156 345.644531 515.238281 346.550781 515.539062 C 348.289062 516.070312 349.953125 516.21875 351.234375 515.992188 C 353.050781 515.691406 354.03125 514.859375 354.636719 514.480469 C 354.636719 514.40625 354.636719 514.40625 354.5625 514.332031 C 350.78125 513.046875 347.910156 510.855469 346.023438 508.664062 C 343.605469 505.867188 342.773438 502.996094 342.546875 501.109375 C 342.394531 499.21875 342.773438 498.238281 342.925781 498.238281 C 343.152344 498.238281 343.226562 499.21875 343.679688 500.882812 C 344.207031 502.542969 345.265625 504.886719 347.609375 507.078125 C 349.953125 509.269531 353.425781 511.382812 357.960938 511.835938 C 362.496094 512.441406 367.785156 511.535156 373.527344 509.722656 C 379.269531 507.832031 385.539062 505.566406 391.28125 501.863281 C 397.101562 498.238281 401.863281 492.570312 405.867188 485.769531 C 409.945312 478.96875 413.347656 471.1875 418.105469 463.402344 C 420.449219 459.550781 423.246094 455.621094 426.570312 452.21875 C 429.820312 448.746094 433.445312 445.648438 437.074219 442.625 C 444.402344 436.65625 451.355469 431.0625 456.339844 424.261719 C 461.402344 417.460938 465.179688 409.832031 469.335938 402.726562 C 473.417969 395.550781 478.328125 389.203125 483.164062 383.6875 C 488 378.171875 492.761719 373.335938 496.992188 368.953125 C 501.222656 364.496094 505 360.488281 508.101562 356.789062 C 511.199219 353.085938 513.691406 349.761719 515.65625 346.964844 C 519.507812 341.371094 521.171875 337.898438 521.625 338.125 C 521.925781 338.199219 520.945312 341.976562 517.542969 348.097656 C 515.882812 351.195312 513.539062 354.746094 510.59375 358.75 C 507.644531 362.679688 504.019531 366.988281 499.9375 371.597656 C 495.859375 376.207031 491.324219 381.191406 486.792969 386.710938 C 482.183594 392.226562 477.800781 398.269531 473.945312 405.296875 C 470.015625 412.25 466.316406 420.105469 460.875 427.585938 C 455.433594 435.21875 447.878906 441.113281 440.773438 447.007812 C 437.222656 449.953125 433.75 452.898438 430.726562 456.074219 C 427.703125 459.171875 425.210938 462.648438 422.941406 466.273438 C 424 466.804688 425.359375 467.558594 427.097656 468.238281 C 431.558594 470.277344 438.28125 472.847656 446.894531 474.433594 C 451.203125 475.265625 455.964844 475.871094 461.175781 476.25 C 466.390625 476.550781 471.90625 476.703125 477.722656 476.476562 C 489.4375 476.171875 502.355469 474.8125 515.957031 473.527344 C 543.234375 470.960938 567.945312 468.996094 585.851562 467.859375 C 603.757812 466.726562 614.867188 466.425781 614.941406 467.179688 C 615.019531 467.9375 604.0625 469.75 586.230469 471.867188 C 568.398438 474.058594 543.765625 476.703125 516.488281 479.195312 C 502.886719 480.480469 489.8125 481.6875 477.800781 481.6875 C 471.832031 481.6875 466.089844 481.386719 460.722656 480.859375 C 455.359375 480.253906 450.445312 479.421875 445.988281 478.289062 C 437.074219 476.097656 430.273438 472.847656 425.964844 470.128906 C 424.304688 469.222656 423.09375 468.238281 422.113281 467.484375 C 417.957031 474.433594 414.554688 481.839844 410.324219 488.488281 C 409.039062 490.605469 407.605469 492.722656 406.015625 494.683594 C 410.023438 496.5 419.242188 501.335938 433.371094 504.960938 C 442.738281 507.453125 454.148438 509.34375 466.996094 510.25 C 479.839844 511.234375 494.046875 511.15625 508.929688 510.78125 C 538.777344 509.871094 565.675781 506.625 585.019531 503.675781 C 604.363281 500.65625 616.300781 498.238281 616.527344 499.066406 C 616.679688 499.746094 605.121094 503.601562 585.777344 507.605469 C 566.433594 511.609375 539.304688 515.539062 509.15625 516.445312 C 494.121094 516.898438 479.6875 516.75 466.542969 515.464844 C 453.46875 514.253906 441.757812 511.914062 432.238281 508.816406 C 422.714844 505.792969 415.460938 502.164062 410.703125 499.21875 C 408.285156 497.785156 406.546875 496.5 405.414062 495.59375 C 405.335938 495.59375 405.335938 495.515625 405.335938 495.515625 C 401.9375 499.671875 398.082031 503.222656 393.777344 505.792969 C 387.203125 509.722656 380.628906 511.835938 374.585938 513.5 C 368.539062 515.164062 362.570312 515.917969 357.433594 514.9375 C 357.28125 514.9375 357.207031 514.859375 357.054688 514.859375 C 357.054688 514.859375 357.054688 514.9375 357.128906 514.9375 C 358.714844 517.125 360.53125 520.679688 361.890625 525.363281 C 363.175781 530.046875 363.929688 535.789062 363.855469 542.136719 C 363.777344 548.484375 362.796875 555.285156 361.816406 562.3125 C 360.757812 569.339844 359.851562 575.914062 359.773438 581.808594 C 359.625 587.699219 360.226562 593.066406 361.285156 597.371094 C 363.324219 606.0625 367.105469 610.519531 366.421875 611.125 C 366.195312 611.351562 364.835938 610.59375 363.023438 608.554688 C 361.210938 606.515625 359.09375 603.113281 357.433594 598.582031 C 355.769531 593.972656 354.710938 588.230469 354.5625 581.882812 C 354.410156 575.460938 355.164062 568.582031 356.222656 561.554688 C 356.375 560.574219 356.523438 559.667969 356.675781 558.683594 C 355.089844 565.5625 351.460938 575.308594 343.753906 585.433594 C 339.828125 590.496094 334.914062 595.632812 328.792969 600.167969 L 327.738281 600.921875 L 327.511719 601.074219 C 327.433594 601.148438 327.359375 601.148438 327.359375 601.226562 L 327.511719 601.375 L 327.585938 601.453125 C 327.660156 601.527344 327.585938 601.375 327.738281 601.679688 L 328.566406 602.886719 C 329.097656 603.644531 329.625 604.476562 330.230469 605.304688 C 332.421875 608.480469 334.765625 611.804688 337.183594 615.054688 C 342.09375 621.550781 347.535156 628.125 354.183594 633.71875 C 360.757812 639.382812 368.464844 643.917969 377.304688 646.636719 C 386.070312 649.433594 395.210938 650.71875 404.054688 651.851562 C 412.96875 652.910156 421.582031 653.96875 429.742188 655.023438 C 446.140625 657.066406 460.875 658.953125 473.265625 660.691406 C 485.660156 662.355469 495.632812 663.867188 502.582031 665 C 509.460938 666.132812 513.3125 666.964844 513.238281 667.339844 C 513.691406 667.71875 509.761719 667.644531 502.808594 667.191406 Z M 278.847656 463.402344 C 278.847656 463.328125 278.847656 463.328125 278.847656 463.253906 C 276.960938 462.722656 274.542969 462.042969 271.746094 460.683594 C 274.542969 463.023438 277.109375 465.292969 279.300781 467.484375 C 279 466.046875 278.847656 464.6875 278.847656 463.402344 Z M 270.765625 388.445312 C 272.046875 389.582031 273.257812 390.789062 274.390625 392.074219 C 274.617188 390.261719 274.917969 387.992188 275.449219 385.425781 C 276.128906 381.875 277.261719 377.71875 278.699219 373.183594 C 279.453125 370.917969 280.207031 368.574219 281.117188 366.15625 C 281.570312 364.949219 282.097656 363.738281 282.550781 362.453125 L 282.855469 361.699219 L 282.550781 361.546875 C 282.550781 361.546875 282.550781 361.546875 282.476562 361.546875 C 282.476562 361.546875 282.476562 361.546875 282.398438 361.699219 L 282.023438 362.53125 C 281.796875 363.132812 281.570312 363.664062 281.265625 364.191406 C 280.8125 365.324219 280.285156 366.382812 279.832031 367.441406 C 278.019531 371.75 276.429688 375.601562 275.070312 378.851562 C 273.257812 383.609375 271.746094 387.011719 270.765625 388.445312 Z M 259.730469 443.910156 C 259.730469 443.226562 259.730469 442.546875 259.882812 441.867188 C 260.410156 438.015625 262.527344 434.464844 265.097656 431.667969 C 267.742188 428.871094 270.765625 426.53125 274.011719 424.488281 C 277.1875 422.523438 280.285156 420.410156 284.0625 419.125 C 287.839844 417.765625 292.222656 417.914062 295.625 419.125 C 296.53125 419.425781 297.359375 419.804688 298.191406 420.183594 C 297.664062 418.972656 296.90625 417.613281 296 416.101562 C 294.261719 413.609375 291.769531 410.964844 288.292969 409.152344 C 286.480469 408.167969 284.441406 407.335938 282.171875 406.203125 C 279.90625 405.070312 277.414062 403.484375 275.449219 401.519531 C 271.519531 397.589844 268.875 393.660156 265.851562 391.242188 C 262.90625 388.75 259.582031 387.765625 257.011719 388.21875 C 254.746094 388.597656 253.15625 390.109375 252.328125 391.394531 C 254.140625 391.773438 255.121094 392.453125 255.121094 393.132812 C 255.121094 393.964844 253.613281 394.566406 251.570312 395.246094 C 249.457031 395.925781 246.886719 396.757812 245.222656 398.496094 C 244.316406 399.328125 243.863281 400.234375 243.636719 401.066406 C 243.335938 402.273438 243.257812 403.40625 243.109375 404.691406 C 243.03125 405.222656 242.957031 405.675781 242.804688 406.128906 C 242.957031 406.128906 243.03125 406.050781 243.183594 406.050781 C 244.769531 405.675781 245.675781 405.75 245.828125 406.050781 C 245.980469 406.429688 245.375 407.109375 244.167969 408.015625 C 243.03125 409 241.21875 410.207031 240.011719 412.023438 C 239.40625 412.929688 238.953125 413.988281 238.953125 415.042969 C 238.953125 416.179688 239.105469 416.707031 240.085938 418.066406 C 240.539062 418.746094 241.144531 419.503906 241.75 420.558594 C 242.351562 421.617188 242.804688 423.054688 243.03125 424.261719 C 243.335938 426.757812 243.109375 428.644531 243.488281 430.082031 C 244.167969 433.101562 246.585938 435.671875 249.078125 437.636719 C 251.648438 439.527344 254.519531 440.960938 256.9375 442.320312 C 257.84375 442.773438 258.902344 443.304688 259.730469 443.910156 Z M 193.617188 388.976562 C 199.058594 388.976562 204.121094 389.050781 208.878906 389.203125 C 219.230469 389.429688 227.769531 389.882812 233.890625 390.261719 C 233.816406 390.183594 233.816406 390.109375 233.738281 390.035156 C 233.285156 389.355469 232.832031 388.371094 232.378906 387.238281 C 232.304688 386.9375 232.152344 386.632812 232.078125 386.332031 L 231.925781 385.878906 L 231.851562 385.652344 L 231.773438 385.574219 C 231.699219 385.425781 231.625 385.273438 231.546875 385.046875 C 231.398438 385.273438 227.316406 385.273438 223.992188 385.347656 C 220.515625 385.425781 216.664062 385.5 212.734375 385.574219 C 208.652344 385.726562 204.800781 385.800781 201.25 385.953125 C 197.921875 386.027344 193.691406 386.253906 193.769531 386.027344 C 193.539062 386.027344 193.085938 385.878906 193.011719 386.027344 C 193.011719 386.179688 193.011719 386.332031 193.011719 386.484375 C 193.085938 386.859375 193.085938 387.238281 193.3125 387.917969 C 193.390625 388.21875 193.539062 388.597656 193.617188 388.976562 Z M 490.191406 659.9375 C 498.277344 660.765625 507.269531 661.371094 516.714844 661.371094 C 526.160156 661.296875 535.074219 660.691406 543.234375 659.710938 C 551.320312 658.726562 558.574219 657.441406 564.542969 656.007812 C 576.558594 653.210938 583.660156 650.414062 583.507812 649.734375 C 583.054688 647.996094 553.738281 655.628906 516.714844 655.703125 C 479.6875 656.007812 450.296875 648.675781 449.84375 650.414062 C 449.691406 651.09375 456.792969 653.890625 468.808594 656.535156 C 474.851562 657.820312 482.105469 659.03125 490.191406 659.9375 Z M 606.480469 563.746094 C 601.71875 564.578125 596.429688 565.789062 590.386719 566.617188 C 587.4375 567.070312 584.265625 567.601562 581.015625 568.054688 C 577.765625 568.582031 574.367188 568.886719 570.816406 569.261719 C 563.789062 570.246094 556.230469 570.699219 548.222656 571.304688 C 532.277344 572.210938 514.75 572.363281 496.386719 571.304688 C 478.027344 570.09375 460.648438 567.675781 444.929688 564.804688 C 437.148438 563.144531 429.667969 561.78125 422.792969 559.96875 C 419.390625 559.0625 415.992188 558.382812 412.816406 557.476562 C 409.644531 556.570312 406.621094 555.664062 403.675781 554.832031 C 397.855469 553.246094 392.71875 551.429688 388.109375 549.996094 C 385.84375 549.238281 383.726562 548.558594 381.761719 547.957031 C 379.796875 547.273438 378.058594 546.59375 376.472656 546.066406 C 370.050781 543.800781 366.421875 542.742188 366.273438 543.121094 C 366.121094 543.496094 369.445312 545.234375 375.640625 548.183594 C 377.230469 548.863281 378.890625 549.691406 380.78125 550.601562 C 382.667969 551.429688 384.785156 552.1875 387.050781 553.09375 C 391.585938 554.832031 396.648438 557.023438 402.464844 558.835938 C 405.335938 559.820312 408.433594 560.800781 411.53125 561.859375 C 414.707031 562.917969 418.105469 563.746094 421.507812 564.730469 C 428.382812 566.769531 435.9375 568.355469 443.796875 570.171875 C 459.664062 573.34375 477.269531 575.988281 495.859375 577.199219 C 514.523438 578.332031 532.277344 577.953125 548.449219 576.742188 C 556.535156 575.988281 564.164062 575.308594 571.269531 574.175781 C 574.820312 573.644531 578.296875 573.191406 581.542969 572.589844 C 584.792969 571.984375 587.96875 571.304688 590.988281 570.773438 C 597.035156 569.71875 602.324219 568.207031 607.007812 567.070312 C 609.351562 566.46875 611.542969 565.9375 613.507812 565.335938 C 615.472656 564.730469 617.285156 564.125 618.945312 563.597656 C 625.445312 561.480469 628.996094 560.195312 628.84375 559.742188 C 628.769531 559.363281 624.992188 559.96875 618.34375 561.40625 C 616.679688 561.78125 614.867188 562.160156 612.828125 562.613281 C 611.089844 562.917969 608.898438 563.292969 606.480469 563.746094 Z M 558.421875 679.203125 C 557.59375 678.976562 555.476562 685.171875 552 694.996094 C 548.449219 704.667969 543.539062 718.34375 533.414062 729.980469 C 528.351562 735.875 522.53125 741.542969 519.585938 748.644531 C 518.074219 752.195312 517.394531 755.597656 516.941406 758.769531 C 516.488281 761.867188 516.261719 764.738281 515.882812 767.308594 C 515.277344 772.445312 514.21875 776.222656 512.933594 778.71875 C 511.726562 781.210938 510.59375 782.421875 510.894531 782.796875 C 511.121094 783.023438 512.707031 782.34375 514.75 779.925781 C 515.730469 778.71875 516.789062 777.054688 517.621094 775.015625 C 518.453125 772.976562 519.207031 770.632812 519.8125 767.988281 C 521.097656 762.773438 521.625 756.503906 524.269531 750.835938 C 526.914062 745.09375 532.277344 739.878906 537.644531 733.757812 C 543.085938 727.488281 547.011719 720.460938 549.808594 713.960938 C 552.605469 707.386719 554.417969 701.34375 555.703125 696.207031 C 558.347656 685.855469 559.101562 679.355469 558.421875 679.203125 Z M 591.367188 676.257812 C 587.4375 688.347656 583.359375 705.5 581.695312 724.917969 C 580.863281 734.136719 580.714844 742.976562 580.863281 751.0625 C 581.015625 755.066406 581.167969 758.921875 581.46875 762.546875 C 581.621094 764.359375 581.769531 766.097656 581.921875 767.761719 C 581.996094 768.515625 582.074219 769.273438 582.148438 770.027344 C 582.222656 770.253906 582.222656 770.480469 582.300781 770.632812 C 582.074219 770.707031 581.847656 770.785156 581.695312 770.859375 C 580.941406 771.011719 580.183594 771.160156 579.503906 771.3125 C 577.992188 771.613281 576.558594 771.917969 575.199219 772.21875 C 572.554688 772.75 570.210938 773.277344 568.398438 773.804688 C 564.617188 774.710938 562.578125 775.46875 562.65625 775.847656 C 562.730469 776.222656 564.921875 776.300781 568.773438 776.074219 C 570.738281 775.996094 573.082031 775.769531 575.800781 775.542969 C 577.160156 775.394531 578.597656 775.242188 580.109375 775.089844 C 580.941406 775.015625 581.769531 774.9375 582.601562 774.789062 C 584.039062 774.636719 585.472656 774.410156 586.910156 774.257812 C 586.757812 772.066406 586.683594 769.800781 586.53125 767.457031 C 586.457031 765.796875 586.378906 764.058594 586.378906 762.320312 C 586.230469 758.769531 586.230469 754.992188 586.230469 750.988281 C 586.304688 743.054688 586.605469 734.4375 587.4375 725.445312 C 590.535156 687.441406 601.191406 658.046875 599.527344 657.441406 C 598.847656 657.140625 595.296875 664.167969 591.367188 676.257812 Z M 386.21875 671.722656 C 385.539062 671.574219 383.953125 674.671875 382.894531 680.1875 C 381.839844 685.625 381.535156 693.484375 383.199219 701.949219 C 383.953125 705.652344 385.011719 709.125 386.21875 712.222656 C 386.070312 711.921875 385.992188 711.695312 385.84375 711.394531 C 384.558594 708.371094 383.347656 704.96875 382.292969 701.34375 C 381.308594 697.640625 380.703125 694.089844 380.328125 690.839844 C 380.023438 687.589844 379.796875 684.570312 379.875 682.074219 C 379.875 677.011719 380.101562 673.765625 379.269531 673.539062 C 378.589844 673.308594 376.851562 676.332031 375.792969 681.621094 C 375.265625 684.265625 374.960938 687.515625 375.039062 691.144531 C 375.1875 694.769531 375.640625 698.699219 376.699219 702.777344 C 377.832031 706.785156 379.34375 710.484375 381.007812 713.660156 C 382.746094 716.832031 384.632812 719.476562 386.371094 721.519531 C 389.921875 725.597656 392.871094 727.335938 393.398438 726.808594 C 393.699219 726.503906 393.324219 725.523438 392.417969 723.9375 C 394.910156 727.335938 396.949219 728.921875 397.402344 728.621094 C 398.761719 727.636719 391.660156 716.457031 388.636719 700.816406 C 385.539062 685.25 387.882812 672.101562 386.21875 671.722656 Z M 490.117188 400.613281 C 490.34375 401.367188 492.15625 401.59375 494.800781 400.988281 C 497.445312 400.386719 500.996094 398.875 504.398438 396.382812 C 507.417969 394.113281 509.761719 391.546875 511.199219 389.355469 C 513.617188 388.070312 515.65625 386.558594 517.015625 385.121094 C 519.132812 382.929688 519.8125 381.191406 519.28125 380.589844 C 518.074219 379.457031 512.707031 383.308594 505.226562 385.726562 C 497.824219 388.296875 491.175781 388.523438 490.949219 390.109375 C 490.871094 390.863281 492.535156 391.847656 495.480469 392.300781 C 496.765625 392.527344 498.351562 392.601562 500.015625 392.453125 C 494.574219 396.457031 489.738281 399.101562 490.117188 400.613281 Z M 490.117188 400.613281 " fill-opacity="1" fill-rule="nonzero"/></g></svg>