<svg xmlns="http://www.w3.org/2000/svg" xmlns:xlink="http://www.w3.org/1999/xlink" width="1080" zoomAndPan="magnify" viewBox="0 0 810 809.999993" height="1080" preserveAspectRatio="xMidYMid meet" version="1.0"><defs><clipPath id="376397a581"><path d="M 81 63 L 683 63 L 683 778 L 81 778 Z M 81 63 " clip-rule="nonzero"/></clipPath><clipPath id="8f551b4e8f"><path d="M 81 0 L 187 0 L 187 772 L 81 772 Z M 81 0 " clip-rule="nonzero"/></clipPath></defs><g clip-path="url(#376397a581)"><path fill="#e4e4e7" d="M 411.507812 357.160156 C 411.625 357.273438 411.625 357.390625 411.742188 357.621094 C 417.058594 363.976562 425.722656 366.058594 433.582031 364.671875 C 442.25 363.167969 449.644531 357.390625 455.539062 351.148438 C 466.75 339.246094 475.761719 324.6875 478.304688 308.390625 C 481.425781 315.09375 483.851562 322.027344 484.660156 329.425781 C 486.046875 342.367188 483.160156 355.195312 479.460938 367.558594 C 478.191406 371.835938 484.890625 373.683594 486.164062 369.410156 C 490.207031 356.003906 493.210938 342.019531 491.480469 328.039062 C 489.859375 315.324219 484.082031 303.886719 478.074219 292.792969 C 481.65625 291.867188 485.238281 290.59375 488.472656 289.324219 C 492.519531 287.707031 490.785156 281.003906 486.625 282.621094 C 475.878906 286.78125 461.085938 292.097656 452.417969 281.464844 C 448.375 276.496094 446.0625 270.023438 443.40625 264.246094 C 440.402344 257.429688 437.394531 250.609375 434.621094 243.792969 C 429.652344 231.082031 422.949219 216.171875 426.417969 202.304688 C 427.917969 196.179688 430.117188 190.285156 429.074219 183.929688 C 428.382812 179.539062 425.957031 175.378906 424.683594 171.101562 C 424.800781 170.527344 424.800781 169.949219 424.570312 169.371094 C 424.335938 168.5625 424.105469 167.753906 423.875 166.941406 C 423.875 166.367188 423.875 165.902344 423.875 165.324219 C 424.105469 161.628906 425.839844 158.042969 427.226562 154.578125 C 428.84375 150.648438 430.578125 146.71875 432.195312 142.789062 C 435.664062 134.703125 439.128906 126.496094 442.480469 118.40625 C 444.214844 114.363281 438.203125 110.78125 436.472656 114.941406 C 433.121094 122.796875 429.769531 130.773438 426.417969 138.628906 C 424.800781 142.328125 423.066406 146.027344 421.449219 149.839844 C 421.101562 126.957031 431.617188 103.382812 450.917969 91.363281 C 450.222656 92.867188 449.644531 94.484375 449.300781 96.21875 C 447.101562 107.660156 460.046875 114.59375 468.367188 119.445312 C 483.851562 128.578125 500.03125 136.203125 515.632812 145.101562 C 534.699219 155.964844 553.882812 168.214844 568.214844 185.085938 C 568.90625 187.28125 569.484375 189.476562 570.0625 191.671875 C 571.449219 196.988281 572.375 202.304688 572.949219 207.738281 C 572.027344 207.851562 571.101562 208.316406 570.523438 209.46875 C 569.484375 211.433594 568.445312 213.746094 566.59375 215.132812 C 565.324219 216.058594 562.898438 216.867188 561.855469 215.363281 C 560.238281 213.054688 556.308594 213.167969 555.5 216.171875 C 553.652344 222.992188 551.804688 229.925781 549.953125 236.742188 C 548.335938 242.984375 546.835938 249.457031 543.136719 254.886719 C 539.667969 259.972656 534.351562 263.324219 529.039062 266.097656 C 522.796875 269.449219 516.324219 272.453125 509.738281 275.109375 C 505.695312 276.726562 507.425781 283.429688 511.585938 281.8125 C 518.519531 278.921875 525.453125 275.917969 532.042969 272.335938 C 537.9375 269.214844 543.828125 265.519531 547.875 260.085938 C 552.035156 254.65625 554 248.066406 555.847656 241.597656 C 557.582031 235.242188 559.199219 229 560.933594 222.644531 C 562.78125 223.222656 564.863281 223.222656 566.828125 222.644531 C 569.714844 221.835938 571.910156 219.871094 573.644531 217.558594 C 574.453125 231.195312 574.105469 244.949219 575.957031 258.46875 C 577.34375 268.40625 579.539062 278.230469 582.542969 287.820312 C 573.875 292.792969 565.671875 298.800781 558.160156 305.386719 C 556.773438 306.660156 556.886719 308.96875 558.160156 310.242188 C 559.546875 311.628906 561.625 311.511719 563.011719 310.242188 C 569.714844 304.230469 576.996094 299.03125 584.738281 294.523438 C 593.175781 318.675781 606.578125 341.097656 623.914062 359.816406 C 631.542969 368.023438 640.324219 374.957031 648.066406 383.046875 C 656.15625 391.597656 662.976562 403.269531 659.507812 415.402344 C 658.238281 419.679688 664.9375 421.527344 666.210938 417.253906 C 672.335938 395.757812 654.769531 379.347656 640.554688 366.40625 C 626.109375 353.230469 613.746094 337.976562 604.269531 320.871094 C 594.5625 303.539062 587.742188 284.703125 584.160156 265.171875 C 580.117188 243.5625 582.660156 221.375 578.960938 199.761719 C 576.765625 186.9375 571.910156 174.6875 567.75 162.550781 C 563.359375 149.609375 558.851562 136.78125 554.460938 123.839844 C 553.074219 119.679688 546.371094 121.410156 547.757812 125.6875 C 551.6875 137.128906 555.617188 148.570312 559.546875 160.125 C 560.703125 163.476562 561.855469 166.710938 563.011719 170.0625 C 540.824219 149.148438 511.933594 135.511719 485.355469 121.296875 C 479.230469 118.058594 473.105469 114.707031 467.210938 111.011719 C 463.628906 108.699219 459.121094 105.808594 456.925781 102.691406 C 456.695312 102.34375 455.886719 100.839844 456.117188 101.304688 C 455.65625 100.261719 455.769531 100.496094 455.769531 99.917969 C 455.769531 94.023438 460.738281 88.9375 464.898438 85.242188 C 465.015625 85.125 465.015625 85.125 465.132812 85.007812 C 468.597656 82.003906 472.527344 79.460938 476.6875 77.382812 C 477.378906 77.84375 478.304688 78.074219 479.460938 77.84375 C 500.378906 72.414062 520.023438 84.546875 533.3125 99.800781 C 536.203125 103.152344 541.171875 98.300781 538.167969 94.949219 C 528.34375 83.621094 515.285156 74.378906 500.957031 71.027344 C 515.285156 69.871094 529.847656 72.414062 543.367188 76.804688 C 555.039062 80.617188 566.480469 86.742188 572.953125 97.488281 C 575.261719 101.304688 581.273438 97.835938 578.960938 94.023438 C 566.015625 72.757812 536.664062 65.480469 513.550781 64.09375 C 500.148438 63.285156 486.511719 65.246094 474.261719 71.027344 C 469.753906 73.105469 464.667969 76.109375 460.394531 79.691406 C 424.222656 91.480469 407.234375 134.816406 417.171875 169.949219 C 417.75 173.414062 419.136719 176.765625 420.410156 180.347656 C 421.796875 184.046875 422.488281 187.511719 421.796875 191.441406 C 421.21875 195.140625 419.945312 198.605469 419.023438 202.304688 C 418.445312 204.617188 418.210938 207.042969 418.210938 209.355469 C 417.867188 209.933594 417.636719 210.625 417.75 211.433594 C 418.90625 224.148438 418.90625 236.859375 417.402344 249.570312 C 415.902344 262.167969 412.320312 274.300781 409.546875 286.667969 C 405.152344 305.617188 404.808594 328.5 421.5625 341.441406 C 419.945312 343.292969 418.210938 345.023438 416.480469 346.527344 C 411.855469 350.804688 403.882812 354.617188 398.683594 349.070312 C 395.5625 345.835938 390.707031 350.6875 393.828125 353.921875 C 398.566406 358.199219 405.386719 359.007812 411.507812 357.160156 Z M 418.445312 279.617188 C 421.910156 266.097656 424.335938 252.460938 425.261719 238.707031 C 426.1875 241.25 427.226562 243.675781 428.152344 246.105469 C 431.15625 253.617188 434.390625 260.894531 437.628906 268.292969 C 440.402344 274.53125 442.941406 281.003906 447.335938 286.203125 C 447.796875 286.667969 448.257812 287.242188 448.722656 287.707031 C 445.371094 302.5 439.359375 316.480469 430.925781 328.960938 C 429.421875 331.15625 427.804688 333.355469 426.1875 335.550781 C 408.503906 322.722656 413.9375 297.414062 418.445312 279.617188 Z M 433.121094 337.746094 C 443.40625 324.222656 450.800781 308.507812 454.847656 291.980469 C 459.816406 294.292969 465.363281 294.753906 470.910156 294.0625 C 471.023438 294.179688 471.023438 294.410156 471.140625 294.523438 C 471.949219 296.027344 472.875 297.644531 473.683594 299.148438 C 472.757812 299.726562 472.179688 300.648438 472.066406 301.921875 C 471.253906 317.753906 462.933594 332.199219 452.648438 343.871094 C 447.679688 349.53125 441.789062 355.195312 434.277344 357.273438 C 428.496094 358.894531 422.140625 357.96875 417.75 353.808594 C 423.875 349.761719 428.730469 343.40625 433.121094 337.746094 Z M 678.804688 387.667969 C 666.441406 382.929688 656.617188 374.609375 648.414062 364.671875 C 647.835938 364.324219 647.375 363.863281 647.140625 363.054688 C 640.09375 354.15625 634.429688 343.984375 629.34375 334.046875 C 616.054688 307.8125 606.8125 279.847656 597.679688 251.996094 C 596.292969 247.722656 602.996094 245.988281 604.382812 250.148438 C 613.050781 276.496094 621.71875 303.074219 634.082031 327.921875 C 637.667969 335.203125 641.710938 342.828125 646.332031 349.996094 C 646.332031 339.132812 648.066406 328.269531 649.105469 317.636719 C 650.609375 302.730469 650.492188 288.628906 646.796875 273.953125 C 642.636719 257.542969 636.511719 241.597656 630.386719 225.878906 C 624.144531 209.816406 615.015625 195.023438 609.007812 178.847656 C 602.882812 162.4375 597.914062 145.5625 592.480469 128.921875 C 591.09375 124.648438 597.796875 122.914062 599.183594 127.074219 C 605.308594 145.796875 610.507812 165.324219 618.25 183.46875 C 621.71875 191.558594 626.109375 199.183594 629.808594 207.042969 C 633.273438 214.554688 636.394531 222.296875 639.285156 230.039062 C 645.175781 245.757812 651.417969 261.703125 654.769531 278.230469 C 657.660156 292.445312 657.195312 306.195312 655.578125 320.527344 C 654.191406 333.46875 651.878906 347.222656 653.613281 360.28125 C 660.894531 369.292969 669.675781 376.804688 680.65625 380.964844 C 684.699219 382.582031 682.964844 389.285156 678.804688 387.667969 Z M 582.425781 106.851562 C 582.082031 106.042969 582.3125 105 582.773438 104.191406 C 583.234375 103.382812 584.046875 102.921875 584.855469 102.574219 C 585.664062 102.34375 586.820312 102.460938 587.511719 102.921875 C 588.320312 103.382812 588.78125 104.078125 589.128906 105 C 589.246094 105.234375 589.359375 105.464844 589.476562 105.695312 C 590.515625 108.007812 591.789062 110.203125 593.175781 112.28125 C 593.753906 112.976562 593.753906 114.132812 593.519531 114.941406 C 593.289062 115.863281 592.710938 116.558594 591.902344 117.019531 C 591.210938 117.480469 590.054688 117.597656 589.246094 117.367188 C 588.320312 117.136719 587.742188 116.558594 587.164062 115.75 C 585.199219 113.089844 583.582031 110.085938 582.425781 106.851562 Z M 488.242188 379.464844 C 490.324219 378.769531 492.402344 377.960938 494.484375 377.265625 C 497.140625 376.34375 499.800781 375.417969 502.574219 374.957031 C 505.230469 374.492188 507.890625 374.726562 510.546875 374.378906 C 512.742188 374.148438 514.824219 369.871094 516.210938 368.023438 C 518.058594 365.480469 520.023438 363.054688 521.871094 360.511719 C 525.800781 355.425781 529.613281 350.226562 533.542969 345.140625 C 536.203125 341.675781 542.210938 345.140625 539.554688 348.609375 C 535.160156 354.386719 530.769531 360.046875 526.496094 365.828125 C 524.414062 368.601562 522.21875 371.375 520.140625 374.261719 C 518.519531 376.34375 517.019531 379.117188 514.707031 380.386719 C 512.28125 381.773438 509.390625 380.964844 506.734375 381.195312 C 503.613281 381.425781 500.492188 382.46875 497.488281 383.507812 C 491.480469 385.472656 485.585938 387.667969 479.691406 389.75 C 457.734375 416.675781 439.476562 446.605469 425.492188 478.5 C 423.757812 482.546875 417.75 479.078125 419.484375 475.035156 C 420.640625 472.492188 421.792969 469.949219 422.949219 467.40625 C 422.71875 466.828125 422.605469 466.136719 422.835938 465.328125 C 428.035156 443.714844 435.316406 422.683594 444.328125 402.460938 C 441.441406 399.457031 438.667969 396.566406 435.777344 393.5625 C 434.160156 391.828125 432.542969 390.09375 432.773438 387.550781 C 432.890625 385.125 434.851562 383.390625 436.472656 381.773438 C 442.828125 375.1875 448.144531 367.675781 452.417969 359.585938 C 454.5 355.65625 460.507812 359.125 458.429688 363.054688 C 454.613281 370.21875 450.109375 376.921875 444.792969 382.929688 C 443.40625 384.433594 442.019531 385.933594 440.632812 387.4375 C 440.632812 387.4375 440.402344 387.785156 440.167969 388.015625 C 440.976562 388.59375 441.671875 389.632812 442.363281 390.324219 C 444.097656 392.058594 445.714844 393.910156 447.449219 395.640625 C 455.078125 379.578125 463.859375 364.207031 473.683594 349.417969 C 476.109375 345.71875 482.117188 349.1875 479.691406 352.882812 C 469.292969 368.367188 460.046875 384.664062 452.304688 401.652344 C 452.417969 402.921875 451.839844 404.078125 450.917969 404.769531 C 445.949219 415.867188 441.441406 427.304688 437.628906 438.863281 C 438.4375 437.476562 439.246094 435.972656 440.054688 434.585938 C 466.632812 389.171875 502.457031 349.417969 544.753906 318.097656 C 548.335938 315.441406 551.804688 321.449219 548.21875 324.109375 C 536.316406 332.890625 524.992188 342.367188 514.128906 352.535156 C 505 361.203125 496.449219 370.21875 488.242188 379.464844 Z M 384.351562 557.199219 C 382.734375 541.597656 382.273438 525.996094 382.964844 510.394531 C 383.660156 495.949219 384.582031 480.925781 388.511719 466.828125 C 391.863281 454.695312 398.566406 444.410156 405.960938 434.472656 C 413.128906 424.648438 420.753906 414.941406 424.453125 403.152344 C 425.722656 398.878906 432.425781 400.726562 431.15625 405.003906 C 423.875 428.347656 402.496094 443.945312 395.5625 467.40625 C 391.285156 481.621094 390.363281 497.105469 389.785156 511.898438 C 389.207031 527.035156 389.667969 542.175781 391.171875 557.199219 C 391.75 561.589844 384.816406 561.589844 384.351562 557.199219 Z M 614.207031 426.035156 C 617.558594 415.980469 616.863281 405.347656 615.59375 394.949219 C 614.4375 385.125 612.242188 375.070312 607.042969 366.519531 C 602.304688 358.660156 595.253906 352.652344 586.242188 350.6875 C 576.300781 348.375 565.785156 350.804688 555.964844 353.113281 C 551.6875 354.15625 549.839844 347.453125 554.113281 346.414062 C 565.09375 343.753906 576.765625 341.441406 587.972656 343.984375 C 597.914062 346.179688 606 352.769531 611.664062 361.089844 C 618.019531 370.449219 620.5625 381.660156 622.066406 392.753906 C 623.683594 404.425781 624.609375 416.558594 620.679688 428 C 619.40625 432.160156 612.820312 430.3125 614.207031 426.035156 Z M 245.5625 552.808594 C 275.609375 551.765625 304.613281 561.242188 334.429688 563.671875 C 341.710938 564.246094 349.105469 564.480469 356.5 563.902344 C 364.011719 563.324219 371.410156 561.011719 378.921875 560.550781 C 385.625 560.085938 392.441406 561.242188 399.144531 562.285156 C 400.183594 548.414062 405.152344 535.242188 412.320312 523.339844 C 427.109375 498.609375 449.875 480.234375 468.019531 458.277344 C 477.378906 446.835938 485.816406 434.585938 493.210938 421.757812 C 499.453125 410.894531 505.117188 399.339844 515.746094 392.058594 C 519.445312 389.515625 522.914062 395.527344 519.214844 398.070312 C 507.425781 406.15625 501.878906 421.296875 494.484375 433.085938 C 487.320312 444.523438 479.34375 455.503906 470.679688 465.902344 C 461.664062 476.652344 451.609375 486.472656 442.019531 496.757812 C 424.683594 515.363281 407.8125 537.089844 405.960938 563.324219 C 412.898438 564.246094 419.714844 565.171875 426.648438 565.980469 C 431.039062 566.558594 431.039062 573.492188 426.648438 572.914062 C 418.675781 571.875 410.699219 570.835938 402.84375 569.796875 C 394.984375 568.753906 386.894531 567.023438 379.035156 567.597656 C 371.523438 568.175781 364.128906 570.371094 356.617188 570.949219 C 349.335938 571.527344 341.941406 571.414062 334.546875 570.71875 C 304.730469 568.292969 275.839844 558.816406 245.675781 559.855469 C 241.171875 559.855469 241.171875 553.039062 245.5625 552.808594 Z M 664.128906 432.507812 C 664.9375 432.507812 665.980469 432.96875 666.558594 433.546875 C 667.132812 434.125 667.710938 435.164062 667.597656 435.972656 C 667.25 438.976562 666.902344 441.984375 666.671875 444.988281 C 666.671875 445.566406 666.558594 446.144531 666.210938 446.71875 C 665.980469 446.953125 665.863281 447.183594 665.632812 447.414062 C 665.054688 448.105469 664.128906 448.339844 663.207031 448.453125 C 662.398438 448.453125 661.355469 447.992188 660.777344 447.414062 C 660.199219 446.835938 659.625 445.796875 659.738281 444.988281 C 660.085938 441.984375 660.433594 438.976562 660.664062 435.972656 C 660.664062 435.394531 660.777344 434.816406 661.125 434.238281 C 661.355469 434.007812 661.472656 433.777344 661.703125 433.546875 C 662.28125 432.851562 663.207031 432.621094 664.128906 432.507812 Z M 658.46875 737.128906 C 656.617188 731.46875 654.652344 725.6875 652.574219 720.140625 C 650.609375 714.941406 648.992188 709.277344 645.871094 704.65625 C 644.367188 702.460938 642.519531 700.957031 640.441406 700.035156 C 640.441406 699.570312 640.441406 699.226562 640.324219 698.761719 C 640.09375 697.953125 639.515625 697.375 638.9375 696.796875 C 639.054688 696.796875 639.054688 696.914062 638.9375 696.796875 C 638.820312 696.683594 638.707031 696.683594 638.589844 696.566406 C 638.359375 696.335938 638.128906 696.21875 637.898438 695.988281 C 637.433594 695.527344 636.972656 695.179688 636.625 694.71875 C 636.28125 694.257812 635.933594 693.910156 635.585938 693.445312 C 635.585938 693.332031 635.46875 693.332031 635.46875 693.214844 C 635.238281 692.984375 635.125 692.636719 634.894531 692.40625 C 634.316406 691.484375 633.738281 690.441406 633.273438 689.402344 C 633.273438 689.285156 633.160156 689.171875 633.160156 689.054688 C 633.042969 688.824219 632.929688 688.476562 632.8125 688.246094 C 632.582031 687.667969 632.464844 687.089844 632.351562 686.511719 C 632.234375 685.9375 631.886719 685.359375 631.425781 685.011719 C 632.234375 684.664062 633.160156 684.316406 633.96875 683.972656 C 640.207031 680.964844 641.941406 673.917969 644.253906 667.90625 C 647.488281 659.472656 651.878906 650.921875 653.730469 642.023438 C 655.464844 633.585938 654.769531 624.6875 654.886719 616.136719 C 655 606.542969 655.347656 596.953125 655.695312 587.246094 C 656.386719 568.292969 657.542969 549.339844 659.046875 530.386719 C 660.777344 508.664062 662.972656 487.050781 665.75 465.441406 C 666.324219 461.050781 659.390625 461.050781 658.8125 465.441406 C 654.308594 501.84375 651.070312 538.476562 649.339844 575.109375 C 648.527344 593.484375 648.066406 611.859375 647.835938 630.351562 C 647.835938 634.394531 647.605469 638.324219 646.566406 642.253906 C 645.410156 646.644531 643.445312 650.921875 641.828125 655.195312 C 640.324219 659.007812 638.820312 662.824219 637.320312 666.753906 C 636.046875 669.988281 635.007812 674.839844 632.121094 677.039062 C 628.535156 679.8125 622.757812 680.621094 618.136719 681.429688 C 620.910156 677.960938 622.875 673.917969 623.800781 669.292969 C 624.722656 664.902344 618.019531 663.054688 617.097656 667.445312 C 615.363281 675.882812 609.46875 681.773438 602.1875 685.359375 C 598.027344 687.4375 593.289062 688.941406 588.785156 689.632812 C 580.695312 690.90625 572.488281 690.558594 564.398438 690.441406 C 556.542969 690.328125 548.683594 690.558594 540.710938 691.367188 C 509.621094 694.601562 478.421875 704.425781 446.988281 699.339844 C 431.039062 696.796875 415.554688 691.484375 399.375 691.25 C 398.683594 683.277344 397.527344 675.304688 395.910156 667.445312 C 404.34375 665.941406 412.78125 663.863281 420.871094 660.972656 C 438.207031 654.734375 453.226562 643.988281 467.558594 632.546875 C 479.230469 627.460938 489.515625 618.792969 499.105469 610.472656 C 509.507812 601.34375 519.445312 591.636719 528.921875 581.46875 C 538.167969 571.644531 546.023438 561.128906 553.191406 549.6875 C 563.359375 533.394531 574.339844 517.90625 585.664062 502.421875 C 597.566406 486.011719 608.542969 468.792969 613.859375 449.03125 C 615.015625 444.757812 608.3125 442.90625 607.15625 447.183594 C 597.683594 482.199219 570.179688 508.894531 551.570312 539.054688 C 543.945312 551.421875 536.203125 563.4375 526.265625 574.1875 C 518.753906 582.390625 510.894531 590.367188 502.6875 597.875 C 508.46875 589.210938 512.394531 579.503906 513.4375 568.523438 C 513.78125 564.132812 506.964844 564.132812 506.503906 568.523438 C 504.652344 589.554688 489.398438 605.734375 474.03125 618.5625 C 470.792969 621.21875 467.558594 623.992188 464.207031 626.652344 C 463.976562 626.765625 463.859375 626.882812 463.628906 626.882812 C 462.820312 627.230469 462.242188 627.808594 462.011719 628.386719 C 449.183594 638.671875 435.546875 648.378906 420.292969 654.039062 C 400.53125 661.320312 379.382812 663.285156 358.582031 664.789062 C 335.585938 666.40625 313.050781 666.40625 290.167969 663.402344 C 265.207031 660.050781 240.246094 655.773438 215.398438 651.960938 C 227.1875 631.160156 234.699219 608.277344 237.472656 584.472656 C 238.164062 578.230469 238.628906 571.875 238.628906 565.636719 C 238.628906 561.128906 238.628906 556.042969 235.96875 552.113281 C 233.542969 548.53125 229.035156 546.914062 224.992188 548.414062 C 220.601562 550.035156 217.828125 554.65625 216.09375 558.699219 C 215.515625 559.972656 215.746094 561.242188 216.441406 562.285156 C 212.511719 562.398438 208.699219 562.628906 204.769531 562.746094 C 197.140625 563.09375 189.050781 563.4375 182.117188 559.742188 C 178.1875 557.660156 174.722656 563.554688 178.652344 565.75 C 186.164062 569.796875 194.714844 570.140625 203.035156 569.796875 C 212.511719 569.449219 221.988281 568.984375 231.578125 568.640625 C 231.695312 568.640625 231.695312 568.640625 231.808594 568.640625 C 231.578125 577.652344 230.65625 586.667969 228.921875 595.566406 C 226.839844 606.542969 223.71875 617.175781 219.558594 627.460938 C 219.445312 627.460938 219.214844 627.34375 218.984375 627.34375 C 211.007812 626.765625 202.917969 627.460938 195.175781 629.425781 C 192.519531 626.421875 189.167969 623.992188 186.277344 621.335938 C 182.117188 617.636719 177.957031 612.554688 171.71875 614.75 C 167.210938 616.25 161.777344 619.71875 160.738281 624.6875 C 158.542969 623.417969 156.117188 622.722656 153.574219 623.070312 C 149.761719 623.53125 146.292969 625.726562 142.941406 627.34375 C 141.324219 628.152344 139.476562 628.730469 138.550781 630.351562 C 137.972656 631.273438 137.625 632.546875 137.394531 633.585938 C 137.164062 634.855469 136.816406 636.242188 136.933594 637.628906 C 136.007812 637.746094 134.96875 637.863281 134.042969 638.207031 C 130.578125 639.480469 126.417969 642.136719 124.800781 645.488281 C 123.527344 648.148438 123.875 650.804688 125.144531 653.117188 C 119.136719 657.738281 112.316406 661.207031 105.152344 663.515625 C 103.304688 664.09375 101.109375 664.441406 99.375 665.367188 C 97.179688 666.636719 96.253906 669.292969 96.949219 671.722656 C 98.105469 675.652344 102.378906 677.960938 105.960938 678.886719 C 110.46875 680.15625 115.089844 679.578125 119.25 677.613281 C 120.984375 676.804688 121.332031 674.378906 120.523438 672.878906 C 119.484375 671.144531 117.519531 670.796875 115.785156 671.605469 C 112.894531 672.992188 109.3125 673.109375 106.308594 671.722656 C 105.960938 671.605469 105.269531 671.257812 104.804688 670.914062 C 105.617188 670.679688 106.539062 670.449219 107.347656 670.21875 C 115.554688 667.5625 123.066406 663.515625 129.882812 658.316406 C 131.15625 659.355469 132.542969 660.394531 133.582031 661.667969 C 134.851562 663.285156 135.660156 665.132812 136.125 667.214844 C 137.164062 671.492188 143.867188 669.757812 142.828125 665.367188 C 142.132812 662.246094 140.632812 659.355469 138.550781 656.8125 C 136.585938 654.503906 133.695312 653.117188 131.847656 650.804688 C 131.386719 650.226562 130.921875 649.300781 131.15625 648.609375 C 131.617188 647.570312 133.351562 646.527344 134.273438 645.949219 C 136.472656 644.5625 138.667969 644.101562 140.976562 645.488281 C 143.40625 646.992188 145.253906 649.535156 146.988281 651.730469 C 149.183594 654.503906 151.378906 657.160156 153.34375 659.933594 C 154.960938 662.246094 156.695312 665.019531 156.117188 668.023438 C 155.652344 670.21875 153.804688 671.257812 151.839844 671.835938 C 148.835938 672.644531 145.714844 672.53125 142.59375 672.53125 C 138.320312 672.53125 133.929688 672.300781 129.652344 671.835938 C 127.804688 671.605469 126.1875 673.570312 126.1875 675.304688 C 126.1875 677.269531 127.804688 678.539062 129.652344 678.769531 C 134.160156 679.234375 138.78125 679.464844 143.289062 679.464844 C 146.871094 679.464844 150.683594 679.464844 154.152344 678.425781 C 157.617188 677.382812 160.625 675.1875 162.125 671.835938 C 162.355469 671.375 162.472656 670.914062 162.589844 670.449219 C 166.054688 669.410156 169.523438 668.023438 172.757812 666.289062 C 175.761719 664.671875 179.113281 662.824219 181.308594 660.164062 C 182.234375 659.125 182.8125 657.855469 183.15625 656.582031 C 183.734375 656.582031 184.429688 656.46875 185.007812 656.234375 C 189.859375 654.15625 194.597656 651.613281 197.488281 647.105469 C 199.800781 643.753906 200.492188 639.480469 199.335938 635.664062 C 205.113281 634.511719 211.007812 633.933594 216.902344 634.164062 C 215.054688 638.324219 212.972656 642.484375 210.777344 646.527344 C 209.621094 646.644531 208.582031 647.453125 208.351562 648.957031 C 208.121094 649.996094 208.003906 651.035156 207.773438 652.074219 C 207.542969 653.230469 207.886719 654.269531 208.464844 654.964844 C 208.351562 656.46875 209.042969 657.855469 210.894531 658.085938 C 235.160156 661.898438 259.3125 665.828125 283.582031 669.292969 C 307.734375 672.761719 331.539062 673.570312 355.925781 671.835938 C 367.019531 671.027344 378.34375 670.21875 389.4375 668.601562 C 391.285156 677.269531 392.558594 685.933594 393.136719 694.832031 C 393.25 696.683594 394.636719 698.300781 396.601562 698.300781 C 397.875 698.300781 399.144531 698.300781 400.417969 698.300781 C 403.304688 711.128906 399.953125 724.1875 391.75 734.355469 C 387.820312 739.324219 385.160156 743.832031 384.929688 750.304688 C 384.699219 758.277344 385.160156 766.367188 385.394531 774.339844 C 385.507812 778.734375 392.441406 778.847656 392.328125 774.339844 C 392.09375 766.367188 391.632812 758.277344 391.863281 750.304688 C 392.09375 743.023438 397.875 738.632812 401.457031 732.855469 C 403.421875 729.503906 405.039062 726.035156 406.195312 722.335938 C 455.308594 729.964844 505.578125 728.578125 554.113281 718.0625 C 568.097656 715.058594 581.847656 711.242188 595.484375 706.738281 C 599.644531 705.351562 597.914062 698.648438 593.636719 700.035156 C 586.472656 702.460938 579.191406 704.542969 571.910156 706.503906 C 571.796875 706.160156 571.679688 705.8125 571.566406 705.464844 C 570.179688 702.921875 568.90625 700.382812 567.867188 697.839844 C 567.867188 697.839844 567.867188 697.722656 567.867188 697.722656 C 576.417969 697.839844 584.96875 697.722656 593.289062 695.988281 C 596.757812 695.296875 600.339844 694.140625 603.691406 692.636719 C 603.921875 692.523438 604.152344 692.40625 604.382812 692.292969 C 604.617188 692.175781 604.847656 692.058594 605.078125 691.945312 C 605.425781 691.714844 605.769531 691.597656 606.234375 691.367188 C 610.046875 689.632812 614.667969 689.171875 618.714844 688.363281 C 621.257812 687.785156 623.800781 687.324219 626.226562 686.746094 C 626.109375 687.207031 626.109375 687.785156 626.226562 688.363281 C 626.917969 691.136719 628.074219 693.792969 629.578125 696.105469 C 629.921875 696.683594 630.386719 697.261719 630.847656 697.839844 C 625.53125 697.144531 619.0625 695.988281 613.859375 697.261719 C 609.585938 698.417969 611.433594 705.003906 615.710938 703.964844 C 619.292969 703.039062 625.648438 704.078125 629.808594 704.65625 C 632.582031 705.003906 635.355469 705.351562 637.898438 706.160156 C 638.476562 706.273438 639.515625 706.738281 639.398438 706.621094 C 640.554688 707.546875 642.058594 710.667969 642.75 712.398438 C 651.1875 732.046875 657.195312 752.960938 662.164062 773.761719 C 663.207031 778.039062 669.910156 776.304688 668.867188 771.914062 C 665.515625 760.242188 662.28125 748.570312 658.46875 737.128906 Z M 221.988281 561.9375 C 223.027344 559.511719 225.914062 552.921875 229.265625 554.886719 C 231.117188 556.042969 231.578125 558.816406 231.578125 561.472656 C 231.464844 561.472656 231.347656 561.472656 231.347656 561.472656 C 228.226562 561.707031 225.105469 561.820312 221.988281 561.9375 Z M 102.378906 671.375 C 102.378906 671.375 102.496094 671.375 102.609375 671.375 C 102.609375 671.492188 102.496094 671.492188 102.378906 671.375 Z M 144.214844 633.816406 C 144.214844 633.933594 144.214844 633.933594 144.214844 633.816406 C 144.214844 633.933594 144.214844 633.816406 144.214844 633.816406 Z M 143.519531 637.167969 C 143.519531 637.285156 143.519531 637.398438 143.519531 637.167969 Z M 169.867188 659.703125 C 167.441406 661.089844 164.898438 662.246094 162.242188 663.054688 C 161.894531 661.78125 161.433594 660.511719 160.738281 659.242188 C 158.773438 655.425781 155.652344 652.074219 152.996094 648.609375 C 150.570312 645.488281 148.140625 642.253906 144.90625 639.941406 C 144.445312 639.59375 144.097656 639.363281 143.636719 639.132812 C 143.867188 638.324219 143.867188 637.515625 143.519531 636.707031 C 143.519531 636.359375 143.519531 636.359375 143.636719 635.664062 C 143.75 635.320312 143.867188 634.855469 143.867188 634.511719 C 143.867188 634.394531 143.867188 634.277344 143.980469 634.277344 C 144.445312 634.046875 144.90625 633.816406 145.484375 633.585938 C 146.175781 633.238281 146.988281 632.890625 147.679688 632.429688 C 149.296875 631.621094 151.03125 630.582031 152.765625 630.003906 C 158.773438 628.152344 162.585938 636.476562 165.128906 640.519531 C 166.863281 643.410156 168.710938 646.414062 171.023438 648.957031 C 172.0625 650.109375 173.105469 651.035156 174.257812 652.074219 C 174.835938 652.652344 175.992188 653.578125 176.109375 654.386719 C 176.339844 656.46875 171.253906 658.894531 169.867188 659.703125 Z M 191.941406 641.90625 C 190.089844 646.066406 185.351562 648.148438 181.425781 649.878906 C 179.691406 647.335938 177.03125 645.488281 175.070312 643.0625 C 171.601562 638.671875 169.40625 633.355469 165.824219 628.964844 C 166.746094 628.386719 167.324219 627.460938 167.324219 626.074219 C 167.324219 624.570312 169.058594 623.53125 170.332031 622.722656 C 171.71875 621.914062 173.914062 620.179688 175.53125 620.988281 C 176.570312 621.453125 177.496094 622.492188 178.1875 623.183594 C 179.230469 624.109375 180.382812 625.148438 181.425781 626.074219 C 183.503906 627.921875 185.585938 629.773438 187.664062 631.738281 C 188.359375 632.316406 189.050781 633.007812 189.628906 633.703125 C 189.628906 633.816406 189.628906 633.933594 189.746094 634.046875 C 189.976562 635.089844 190.785156 635.78125 191.710938 636.242188 C 192.632812 638.09375 192.863281 639.824219 191.941406 641.90625 Z M 407.117188 698.761719 C 413.9375 699.457031 420.753906 700.957031 427.457031 702.460938 C 428.613281 705.351562 429.652344 708.355469 430.347656 711.359375 C 430.691406 712.863281 431.039062 714.480469 431.269531 715.980469 C 431.269531 716.328125 431.386719 716.558594 431.386719 716.90625 C 431.386719 716.789062 431.503906 717.714844 431.503906 717.832031 C 431.503906 718.0625 431.503906 718.410156 431.617188 718.640625 C 423.414062 717.832031 415.324219 716.90625 407.117188 715.636719 C 408.160156 709.972656 408.160156 704.308594 407.117188 698.761719 Z M 438.667969 719.21875 C 438.203125 714.132812 437.164062 709.046875 435.546875 704.195312 C 438.78125 704.886719 441.902344 705.464844 445.136719 706.042969 C 446.640625 706.273438 448.144531 706.503906 449.53125 706.621094 C 449.53125 706.738281 449.53125 706.96875 449.644531 707.082031 C 450.109375 708.703125 450.453125 710.320312 450.683594 712.054688 C 450.917969 713.902344 451.03125 715.867188 451.03125 717.714844 C 451.03125 718.523438 451.378906 719.21875 451.839844 719.910156 C 450.917969 719.910156 449.992188 719.910156 449.066406 719.796875 C 445.601562 719.679688 442.132812 719.449219 438.667969 719.21875 Z M 456.925781 720.140625 C 457.503906 719.5625 457.851562 718.753906 457.851562 717.832031 C 457.964844 714.363281 457.503906 710.898438 456.808594 707.429688 C 469.058594 708.238281 481.308594 707.199219 493.558594 705.582031 C 509.738281 703.386719 525.800781 699.917969 542.210938 698.417969 C 542.558594 702.808594 543.945312 707.082031 546.371094 710.78125 C 546.832031 711.476562 547.410156 711.9375 548.105469 712.167969 C 518.058594 718.175781 487.550781 720.949219 456.925781 720.140625 Z M 551.6875 711.242188 C 552.726562 710.203125 553.074219 708.46875 552.265625 707.082031 C 551.570312 706.042969 550.992188 705.003906 550.53125 703.847656 C 549.839844 702.230469 549.375 700.496094 549.144531 698.761719 C 549.144531 698.417969 549.03125 698.070312 549.03125 697.609375 C 552.613281 697.492188 556.195312 697.492188 559.890625 697.492188 C 561.277344 701.074219 562.898438 704.65625 564.746094 708.125 C 560.355469 709.28125 555.964844 710.320312 551.6875 711.242188 Z M 606.695312 777.230469 C 589.59375 765.675781 578.730469 746.492188 577.574219 725.921875 C 577.34375 721.414062 584.277344 721.527344 584.507812 725.921875 C 585.433594 743.949219 595.140625 761.167969 610.164062 771.222656 C 613.859375 773.648438 610.394531 779.65625 606.695312 777.230469 Z M 629.921875 618.679688 C 633.621094 621.105469 630.15625 627.113281 626.457031 624.6875 C 599.644531 607.351562 581.847656 578.347656 578.496094 546.566406 C 578.035156 542.175781 584.96875 542.175781 585.433594 546.566406 C 588.550781 575.804688 605.308594 602.847656 629.921875 618.679688 Z M 89.550781 670.566406 C 85.738281 669.988281 79.035156 667.328125 77.070312 663.402344 C 75.914062 664.789062 73.71875 665.367188 72.101562 663.632812 C 69.445312 660.742188 65.285156 659.585938 63.898438 655.542969 C 63.203125 653.695312 63.320312 652.074219 63.898438 650.574219 C 60.082031 650.226562 55.691406 649.070312 54.421875 645.027344 C 52.804688 640.171875 57.078125 636.9375 60.429688 634.277344 C 69.097656 627.230469 77.070312 619.140625 84.699219 610.933594 C 100.066406 594.410156 114.746094 577.191406 133.234375 564.015625 C 136.816406 561.472656 140.285156 567.367188 136.703125 570.027344 C 121.5625 580.773438 109.082031 594.757812 96.484375 608.394531 C 90.359375 615.097656 84.121094 621.914062 77.535156 628.269531 C 74.183594 631.503906 70.714844 634.625 67.25 637.628906 C 65.515625 639.015625 63.664062 640.289062 62.046875 641.90625 C 60.082031 643.871094 62.972656 643.753906 64.589844 643.871094 C 66.09375 643.988281 67.015625 644.796875 67.480469 645.835938 C 73.027344 640.519531 80.074219 636.9375 86.546875 632.890625 C 100.53125 623.992188 112.78125 612.667969 122.949219 599.726562 C 125.722656 596.257812 130.578125 601.113281 127.804688 604.578125 C 118.90625 615.90625 108.390625 625.957031 96.71875 634.394531 C 90.824219 638.554688 84.46875 642.023438 78.457031 646.066406 C 76.957031 647.105469 75.335938 648.148438 73.949219 649.417969 C 73.027344 650.226562 70.945312 651.613281 70.484375 652.769531 C 69.675781 654.964844 75.453125 657.621094 76.957031 659.242188 C 77.1875 658.777344 77.535156 658.199219 77.878906 657.738281 C 79.960938 654.964844 84.003906 653.808594 86.894531 652.191406 C 90.476562 650.226562 94.058594 648.261719 97.640625 646.183594 C 104.691406 642.023438 111.507812 637.515625 118.210938 632.660156 C 124.105469 628.269531 130 623.53125 133.117188 616.714844 C 134.96875 612.667969 140.976562 616.25 139.128906 620.179688 C 133.582031 631.96875 120.871094 639.59375 110.351562 646.414062 C 104.460938 650.226562 98.449219 653.808594 92.324219 657.160156 C 90.707031 658.085938 88.972656 658.894531 87.355469 659.820312 C 87.007812 659.933594 85.160156 661.207031 84.121094 661.667969 C 84.929688 661.898438 85.855469 662.707031 86.664062 663.054688 C 88.164062 663.746094 89.78125 664.09375 91.402344 664.324219 C 95.792969 664.671875 93.941406 671.257812 89.550781 670.566406 Z M 89.550781 670.566406 " fill-opacity="1" fill-rule="nonzero"/></g><g clip-path="url(#8f551b4e8f)"><path fill="#e4e4e7" d="M 186.046875 570.257812 C 181.886719 563.902344 177.609375 557.660156 173.449219 551.304688 C 170.445312 546.796875 167.558594 541.367188 162.472656 538.707031 C 156.808594 535.820312 149.527344 537.207031 143.519531 537.667969 C 136.816406 538.246094 130.230469 539.171875 123.644531 540.210938 C 117.632812 541.25 111.625 542.058594 106.886719 545.988281 C 101.800781 550.148438 97.988281 555.347656 92.671875 559.164062 C 82.734375 566.445312 71.0625 571.183594 58.8125 572.453125 C 58.117188 572.570312 57.425781 572.800781 56.964844 573.144531 C 56.269531 571.527344 54.882812 570.257812 52.457031 569.679688 C 49.796875 568.984375 46.910156 569.21875 44.25 569.21875 C 40.785156 569.21875 37.316406 569.21875 33.851562 569.21875 C 29.921875 569.21875 25.992188 569.21875 22.0625 569.21875 C 23.449219 568.523438 24.488281 567.136719 24.257812 565.289062 C 16.054688 518.136719 10.507812 470.527344 9.699219 422.683594 C 9.351562 400.03125 8.3125 377.730469 3.917969 355.308594 C -0.355469 333.351562 -6.828125 311.859375 -13.066406 290.363281 C -20 266.671875 -26.933594 242.753906 -30.863281 218.253906 C -31.558594 213.863281 -38.261719 215.710938 -37.566406 220.101562 C -30.519531 264.015625 -13.992188 305.617188 -4.515625 348.953125 C 0.335938 371.375 2.1875 393.792969 2.53125 416.675781 C 2.878906 440.710938 4.035156 464.75 6.460938 488.667969 C 9.121094 514.902344 12.933594 541.136719 17.441406 567.136719 C 17.671875 568.175781 18.132812 568.871094 18.828125 569.21875 C 16.863281 569.21875 14.898438 569.21875 12.933594 569.21875 C 12.125 569.21875 11.546875 569.449219 10.96875 569.792969 C 10.277344 564.941406 9.351562 559.972656 8.425781 555.117188 C 4.960938 538.128906 -1.511719 522.183594 -6.25 505.542969 C -11.101562 488.554688 -14.109375 471.21875 -17.113281 453.886719 C -20.234375 436.089844 -23.46875 418.292969 -26.589844 400.496094 C -29.59375 383.390625 -32.828125 366.171875 -34.101562 348.839844 C -35.601562 329.539062 -34.5625 310.125 -36.066406 290.828125 C -37.21875 275.339844 -39.761719 260.085938 -39.878906 244.601562 C -39.878906 240.210938 -46.8125 240.09375 -46.8125 244.601562 C -46.695312 258.585938 -44.730469 272.335938 -43.34375 286.320312 C -41.726562 302.84375 -42.421875 319.484375 -41.726562 336.125 C -40.226562 371.375 -32.597656 406.15625 -26.359375 440.828125 C -23.238281 458.277344 -20.464844 475.84375 -16.417969 493.175781 C -12.375 510.625 -5.671875 527.152344 -1.050781 544.371094 C 3.34375 561.011719 5.421875 578.113281 7.386719 595.101562 C 9.464844 612.667969 11.546875 630.347656 14.089844 647.914062 C 19.75 687.554688 26.917969 726.960938 35.46875 766.019531 C 36.394531 770.410156 43.09375 768.5625 42.171875 764.171875 C 36.507812 738.285156 31.539062 712.398438 27.148438 686.28125 C 27.378906 686.28125 27.609375 686.398438 27.839844 686.398438 C 31.308594 686.398438 34.660156 686.398438 38.125 686.28125 C 39.976562 686.28125 41.59375 684.664062 41.59375 682.816406 C 41.707031 672.875 42.171875 663.054688 43.09375 653.230469 C 50.261719 653.347656 57.308594 653.691406 64.476562 654.269531 C 66.324219 654.386719 67.941406 652.539062 67.941406 650.804688 C 67.941406 648.839844 66.324219 647.453125 64.476562 647.335938 C 60.082031 646.992188 55.578125 646.757812 51.183594 646.527344 C 55 643.292969 58.582031 639.59375 59.851562 635.085938 C 60.777344 631.738281 60.429688 628.269531 60.3125 624.800781 C 60.3125 620.988281 60.890625 617.289062 61.816406 613.476562 C 63.550781 606.3125 66.207031 599.496094 67.363281 592.214844 C 67.824219 589.210938 68.289062 585.972656 66.671875 583.316406 C 65.628906 581.582031 63.664062 580.195312 61.699219 579.039062 C 71.753906 577.652344 81.347656 574.417969 90.015625 569.21875 C 94.753906 566.441406 99.144531 563.09375 103.1875 559.394531 C 107.695312 555.234375 111.046875 550.035156 117.402344 548.300781 C 123.527344 546.683594 130.113281 545.988281 136.355469 545.179688 C 142.710938 544.371094 149.644531 543.101562 156 543.675781 C 162.242188 544.253906 165.246094 551.074219 168.367188 555.695312 C 171.484375 560.320312 174.492188 564.941406 177.609375 569.5625 C 172.179688 570.949219 166.402344 571.875 160.96875 570.488281 C 155.652344 569.101562 150.453125 565.054688 149.875 559.277344 C 149.414062 554.886719 142.59375 554.886719 142.941406 559.277344 C 143.636719 567.136719 148.949219 573.144531 156 576.035156 C 165.015625 579.734375 174.953125 577.421875 183.964844 574.996094 C 186.046875 574.765625 187.316406 572.222656 186.046875 570.257812 Z M 25.992188 680.042969 C 24.835938 673.222656 23.796875 666.40625 22.757812 659.585938 C 20.097656 642.136719 17.789062 624.570312 15.707031 607.007812 C 14.550781 596.722656 13.394531 586.550781 12.007812 576.265625 C 12.355469 576.382812 12.703125 576.382812 13.050781 576.496094 C 19.519531 576.496094 25.992188 576.496094 32.464844 576.496094 C 35.46875 576.496094 38.472656 576.496094 41.363281 576.496094 C 43.789062 576.496094 47.488281 575.6875 49.796875 576.496094 C 51.417969 577.074219 50.605469 577.539062 50.261719 579.039062 C 49.914062 580.425781 49.453125 581.8125 48.988281 583.316406 C 48.066406 586.4375 47.257812 589.441406 46.445312 592.5625 C 44.945312 598.453125 43.558594 604.464844 42.285156 610.472656 C 37.664062 633.238281 35.121094 656.351562 34.542969 679.578125 C 32.234375 679.578125 29.921875 679.578125 27.609375 679.578125 C 27.03125 679.578125 26.453125 679.8125 25.992188 680.042969 Z M 58.929688 598.222656 C 57.425781 604 55.34375 609.546875 54.304688 615.441406 C 53.726562 618.445312 53.378906 621.453125 53.378906 624.570312 C 53.378906 627.230469 53.84375 629.886719 53.378906 632.429688 C 52.570312 636.820312 48.066406 640.636719 44.136719 643.640625 C 45.871094 629.195312 48.296875 614.980469 51.648438 600.765625 C 53.035156 595.101562 54.535156 589.554688 56.039062 584.007812 C 58.234375 585.164062 60.660156 586.550781 60.777344 588.863281 C 60.890625 591.867188 59.738281 595.335938 58.929688 598.222656 Z M -125.277344 -55.628906 C -125.394531 -54.589844 -125.394531 -53.550781 -125.277344 -52.511719 C -125.164062 -50.777344 -124.816406 -48.8125 -124.125 -46.847656 C -123.546875 -45.230469 -122.621094 -43.496094 -121.464844 -41.878906 C -120.425781 -40.375 -121.234375 -38.066406 -122.738281 -37.140625 C -124.46875 -36.101562 -126.433594 -36.910156 -127.476562 -38.410156 C -133.367188 -46.730469 -133.714844 -58.171875 -128.976562 -67.070312 C -128.054688 -68.6875 -125.855469 -69.265625 -124.238281 -68.34375 C -122.621094 -67.417969 -122.160156 -65.222656 -122.96875 -63.605469 C -123.199219 -63.140625 -123.546875 -62.566406 -123.777344 -62.101562 C -123.777344 -61.988281 -123.777344 -61.988281 -123.890625 -61.988281 C -123.890625 -61.988281 -123.890625 -61.988281 -123.890625 -61.871094 C -124.007812 -61.640625 -124.125 -61.410156 -124.125 -61.175781 C -124.46875 -60.253906 -124.703125 -59.214844 -124.933594 -58.171875 C -125.164062 -57.015625 -125.164062 -56.785156 -125.277344 -55.628906 Z M -275.859375 -36.214844 C -280.132812 -46.847656 -280.480469 -58.867188 -276.898438 -69.730469 C -275.511719 -73.890625 -268.808594 -72.15625 -270.195312 -67.878906 C -273.429688 -58.058594 -272.96875 -47.65625 -269.15625 -38.066406 C -268.460938 -36.332031 -269.964844 -34.25 -271.582031 -33.789062 C -273.546875 -33.210938 -275.164062 -34.484375 -275.859375 -36.214844 Z M -264.996094 -56.902344 C -265.339844 -58.75 -264.417969 -60.484375 -262.566406 -61.175781 C -260.835938 -61.753906 -258.640625 -60.484375 -258.292969 -58.75 C -257.597656 -55.167969 -256.789062 -51.46875 -256.097656 -47.886719 C -255.75 -46.039062 -256.675781 -44.304688 -258.523438 -43.613281 C -260.257812 -43.035156 -262.453125 -44.304688 -262.800781 -46.039062 C -263.492188 -49.621094 -264.300781 -53.320312 -264.996094 -56.902344 Z M -146.773438 3.304688 C -146.3125 21.910156 -141.457031 40.171875 -132.558594 56.464844 C -130.480469 60.394531 -136.375 63.859375 -138.570312 59.933594 C -148.046875 42.480469 -153.246094 23.066406 -153.707031 3.304688 C -153.707031 -1.199219 -146.890625 -1.199219 -146.773438 3.304688 Z M -49.585938 176.996094 C -49.007812 181.386719 -55.941406 181.386719 -56.519531 176.996094 C -59.523438 153.882812 -76.164062 135.625 -94.078125 122.105469 C -102.28125 115.863281 -111.066406 110.316406 -120.078125 105.117188 C -130.363281 99.222656 -141.804688 93.792969 -154.054688 94.714844 C -165.378906 95.640625 -175.664062 102.113281 -184.332031 109.046875 C -191.957031 115.171875 -198.894531 122.21875 -204.785156 129.964844 C -228.824219 161.628906 -237.492188 203.113281 -233.792969 242.175781 C -233.332031 246.566406 -240.265625 246.566406 -240.726562 242.175781 C -243.039062 218.023438 -240.726562 193.292969 -233.214844 170.179688 C -226.742188 150.070312 -216.226562 131.003906 -201.667969 115.519531 C -191.957031 105.117188 -179.824219 95.179688 -166.1875 90.554688 C -173.238281 83.277344 -177.167969 73.335938 -185.023438 66.519531 C -193 59.585938 -203.054688 55.65625 -212.992188 52.304688 C -224.777344 48.375 -236.683594 45.253906 -248.929688 42.945312 C -260.601562 40.75 -272.96875 38.554688 -284.871094 38.667969 C -287.761719 38.667969 -290.417969 39.128906 -291.34375 42.25 C -292.035156 44.792969 -292.035156 47.796875 -292.265625 50.457031 C -292.730469 55.195312 -293.078125 59.933594 -293.539062 64.671875 C -287.296875 65.480469 -280.941406 67.210938 -275.164062 69.0625 C -266.148438 71.835938 -257.597656 75.765625 -249.507812 80.503906 C -245.695312 82.8125 -249.164062 88.707031 -252.976562 86.511719 C -261.757812 81.3125 -271.121094 77.265625 -280.941406 74.609375 C -284.988281 73.453125 -290.1875 71.949219 -295.273438 71.257812 C -296.773438 72.296875 -298.96875 72.296875 -300.125 70.910156 C -303.363281 70.910156 -306.367188 71.605469 -308.910156 73.222656 C -314.6875 77.035156 -317.460938 84.316406 -320.8125 90.09375 C -324.277344 96.101562 -328.207031 101.882812 -332.484375 107.429688 C -341.152344 118.753906 -350.859375 129.039062 -360.679688 139.324219 C -379.863281 159.433594 -400.085938 180.234375 -408.523438 207.390625 C -409.792969 211.667969 -416.496094 209.816406 -415.226562 205.542969 C -410.257812 189.710938 -401.589844 175.609375 -391.1875 162.78125 C -372.238281 139.09375 -348.199219 119.5625 -331.441406 94.023438 C -323.585938 82.121094 -318.5 64.4375 -301.511719 64.207031 C -301.164062 64.207031 -300.933594 64.207031 -300.589844 64.207031 C -300.011719 57.738281 -299.546875 51.265625 -298.855469 44.910156 C -298.277344 39.128906 -296.195312 33.816406 -289.957031 32.429688 C -288.222656 31.964844 -286.488281 31.851562 -284.640625 31.851562 C -283.945312 28.960938 -282.675781 26.304688 -280.828125 24.109375 C -287.644531 22.488281 -291.113281 14.515625 -293.078125 8.277344 C -296.425781 -2.585938 -298.625 -13.679688 -300.125 -24.890625 C -301.628906 -36.5625 -302.4375 -48.351562 -302.898438 -60.136719 C -303.363281 -71.230469 -304.863281 -82.902344 -301.859375 -93.765625 C -300.703125 -98.042969 -294 -96.191406 -295.15625 -91.917969 C -297.816406 -82.210938 -296.425781 -71.460938 -295.964844 -61.523438 C -295.503906 -51.703125 -294.925781 -41.761719 -294 -31.941406 C -292.960938 -22 -291.34375 -12.0625 -288.917969 -2.355469 C -288.570312 -0.855469 -288.105469 1.574219 -287.414062 4.117188 C -287.53125 2.730469 -286.71875 1.34375 -284.988281 0.878906 C -270.078125 -2.472656 -255.054688 -5.9375 -240.148438 -9.289062 C -233.5625 -10.792969 -226.972656 -12.292969 -220.273438 -13.796875 C -214.726562 -15.066406 -207.90625 -15.761719 -203.746094 -19.921875 C -199.816406 -23.964844 -198.429688 -29.976562 -196.695312 -35.058594 C -194.847656 -40.261719 -192.882812 -45.34375 -190.457031 -50.316406 C -181.097656 -70.074219 -164.109375 -87.640625 -141.113281 -89.027344 C -138.914062 -89.144531 -137.875 -87.527344 -137.761719 -85.90625 C -137.527344 -86.140625 -137.414062 -86.371094 -137.183594 -86.601562 C -131.289062 -93.652344 -120.078125 -95.730469 -114.183594 -87.640625 C -111.527344 -84.058594 -117.535156 -80.59375 -120.195312 -84.175781 C -122.042969 -86.71875 -125.855469 -86.484375 -128.398438 -85.214844 C -131.636719 -83.597656 -133.601562 -80.128906 -135.21875 -77.125 C -138.914062 -69.84375 -141.574219 -61.523438 -140.765625 -53.320312 C -139.957031 -44.421875 -137.066406 -35.40625 -135.101562 -26.738281 C -134.523438 -24.199219 -134.175781 -18.652344 -131.867188 -16.917969 C -128.976562 -14.722656 -126.203125 -20.152344 -125.164062 -22.234375 C -123.199219 -26.160156 -117.191406 -22.695312 -119.15625 -18.765625 C -121.234375 -14.605469 -124.585938 -10.097656 -129.554688 -9.519531 C -134.292969 -8.941406 -137.644531 -12.292969 -139.378906 -16.339844 C -141.6875 -21.886719 -142.5 -28.359375 -143.769531 -34.25 C -145.15625 -40.492188 -147.003906 -46.847656 -147.46875 -53.320312 C -148.046875 -59.675781 -146.773438 -66.148438 -144.578125 -72.15625 C -143.308594 -75.621094 -141.921875 -79.207031 -140.070312 -82.441406 C -140.300781 -82.324219 -140.648438 -82.324219 -140.996094 -82.324219 C -153.707031 -81.515625 -164.917969 -74.351562 -173.121094 -64.875 C -180.75 -55.976562 -185.71875 -45 -189.648438 -34.019531 C -193.230469 -24.082031 -196.003906 -14.257812 -206.867188 -10.214844 C -212.644531 -8.019531 -219 -7.09375 -225.011719 -5.707031 C -231.367188 -4.207031 -237.722656 -2.820312 -244.078125 -1.316406 C -257.019531 1.574219 -270.078125 4.578125 -283.023438 7.464844 C -284.871094 7.929688 -286.257812 6.890625 -286.835938 5.617188 C -285.101562 11.511719 -282.445312 17.867188 -277.246094 17.519531 C -275.742188 17.40625 -274.816406 18.097656 -274.355469 19.023438 C -270.65625 16.941406 -266.496094 15.789062 -262.335938 15.671875 C -250.78125 15.210938 -239.457031 20.871094 -228.9375 24.917969 C -217.152344 29.421875 -205.25 33.816406 -193.460938 38.4375 C -182.945312 42.597656 -173.929688 48.027344 -165.726562 55.886719 C -157.058594 64.324219 -148.96875 73.335938 -140.648438 82.003906 C -137.527344 85.242188 -142.5 90.09375 -145.503906 86.859375 C -154.863281 77.035156 -163.878906 66.519531 -174.046875 57.503906 C -184.214844 48.375 -197.042969 44.332031 -209.640625 39.476562 C -222.46875 34.507812 -235.296875 29.078125 -248.46875 24.800781 C -258.0625 21.679688 -273.660156 20.640625 -277.589844 32.195312 C -275.394531 32.429688 -273.316406 32.773438 -271.351562 32.890625 C -264.761719 33.582031 -258.175781 34.507812 -251.703125 35.664062 C -237.835938 38.089844 -224.199219 41.558594 -210.796875 46.066406 C -199.933594 49.761719 -189.183594 54.152344 -180.519531 61.78125 C -171.851562 69.292969 -167.921875 80.734375 -159.253906 88.128906 C -159.023438 88.246094 -158.90625 88.476562 -158.792969 88.589844 C -153.476562 87.667969 -148.046875 87.667969 -142.382812 88.707031 C -130.25 91.132812 -119.15625 97.722656 -108.636719 104.191406 C -101.820312 108.351562 -95.117188 112.976562 -88.761719 117.828125 C -88.53125 116.328125 -87.492188 114.824219 -85.410156 114.824219 C -76.628906 114.707031 -83.328125 98.300781 -84.140625 93.90625 C -85.410156 87.089844 -85.640625 80.15625 -84.949219 73.335938 C -83.5625 60.855469 -79.054688 48.722656 -71.542969 38.554688 C -69.695312 36.125 -66.457031 33.351562 -65.765625 30.464844 C -65.070312 27.574219 -67.613281 23.761719 -68.191406 20.871094 C -69.695312 13.9375 -69.117188 6.773438 -67.960938 -0.160156 C -66.6875 -7.671875 -64.722656 -15.066406 -63.683594 -22.695312 C -62.761719 -29.976562 -62.527344 -37.371094 -62.761719 -44.769531 C -63.335938 -59.675781 -66.6875 -74.351562 -72.234375 -88.21875 C -73.855469 -92.378906 -67.152344 -94.113281 -65.535156 -90.066406 C -58.945312 -73.542969 -55.59375 -55.628906 -55.710938 -37.832031 C -55.824219 -29.976562 -56.636719 -22 -58.023438 -14.257812 C -59.523438 -6.054688 -61.949219 2.152344 -62.183594 10.472656 C -62.296875 14.746094 -61.71875 18.90625 -60.332031 23.066406 C -59.292969 25.957031 -58.136719 28.730469 -58.832031 31.851562 C -59.523438 35.085938 -61.835938 37.511719 -63.800781 40.054688 C -65.996094 42.714844 -67.960938 45.601562 -69.695312 48.722656 C -76.628906 60.855469 -79.515625 75.1875 -77.78125 89.054688 C -76.859375 96.21875 -73.046875 103.613281 -73.96875 111.011719 C -74.664062 116.441406 -78.476562 121.066406 -83.792969 121.757812 C -83.097656 122.335938 -82.519531 122.796875 -81.828125 123.375 C -65.300781 137.476562 -52.359375 155.269531 -49.585938 176.996094 Z M -114.300781 763.941406 C -112.105469 765.675781 -112.453125 769.601562 -114.878906 771.105469 C -117.652344 772.839844 -120.65625 770.757812 -121.929688 768.332031 C -123.777344 764.632812 -125.164062 760.9375 -127.476562 757.46875 C -129.902344 754.003906 -132.558594 750.652344 -134.753906 747.066406 C -139.492188 739.210938 -141.574219 730.082031 -143.421875 721.183594 C -145.386719 711.128906 -147.46875 701.191406 -149.546875 691.136719 C -164.109375 620.066406 -180.980469 549.457031 -200.046875 479.425781 C -208.832031 447.183594 -218.769531 415.171875 -227.4375 382.929688 C -249.046875 374.03125 -268.578125 360.972656 -284.757812 344.101562 C -287.875 340.863281 -282.90625 336.011719 -279.902344 339.246094 C -265.574219 354.039062 -248.585938 366.058594 -229.746094 374.492188 C -229.746094 374.378906 -229.746094 374.378906 -229.746094 374.261719 C -238.761719 339.824219 -245.003906 304.117188 -240.378906 268.40625 C -239.800781 264.015625 -232.867188 264.015625 -233.445312 268.40625 C -235.871094 287.476562 -235.296875 306.425781 -232.753906 325.265625 C -224.316406 312.320312 -217.035156 298.570312 -211.027344 284.238281 C -210.332031 282.507812 -208.714844 281.234375 -206.75 281.8125 C -205.132812 282.273438 -203.628906 284.355469 -204.324219 286.089844 C -211.140625 302.382812 -219.347656 317.867188 -229.285156 332.542969 C -229.863281 333.355469 -230.558594 333.816406 -231.367188 334.046875 C -228.707031 349.878906 -225.011719 365.59375 -220.734375 381.082031 C -211.835938 413.785156 -201.898438 446.257812 -193 478.960938 C -184.101562 511.78125 -175.664062 544.832031 -167.691406 577.882812 C -159.71875 610.933594 -152.207031 644.21875 -145.273438 677.5 C -141.804688 693.792969 -139.03125 710.433594 -135.21875 726.613281 C -133.367188 734.242188 -130.59375 741.175781 -126.089844 747.644531 C -124.007812 750.535156 -121.8125 753.425781 -119.964844 756.429688 C -118.921875 758.046875 -118.113281 759.664062 -117.304688 761.398438 C -117.074219 761.859375 -116.84375 762.324219 -116.613281 762.898438 C -115.6875 763.132812 -114.996094 763.363281 -114.300781 763.941406 Z M -43.578125 203.460938 C -46.117188 200.570312 -48.082031 196.988281 -48.777344 193.175781 C -49.007812 192.25 -48.890625 191.328125 -48.429688 190.519531 C -47.96875 189.710938 -47.160156 189.246094 -46.351562 188.898438 C -45.539062 188.667969 -44.386719 188.785156 -43.691406 189.246094 C -43 189.710938 -42.304688 190.519531 -42.074219 191.328125 C -41.84375 192.367188 -41.496094 193.523438 -41.148438 194.445312 C -40.570312 195.71875 -39.878906 196.875 -39.070312 197.914062 C -38.953125 198.144531 -38.722656 198.261719 -38.605469 198.492188 C -37.335938 199.878906 -37.335938 201.957031 -38.605469 203.34375 C -39.183594 203.921875 -40.226562 204.386719 -41.035156 204.386719 C -41.957031 204.5 -43 204.039062 -43.578125 203.460938 Z M -43.578125 203.460938 " fill-opacity="1" fill-rule="nonzero"/></g></svg>