<svg xmlns="http://www.w3.org/2000/svg" xmlns:xlink="http://www.w3.org/1999/xlink" width="1080" zoomAndPan="magnify" viewBox="0 0 810 809.999993" height="1080" preserveAspectRatio="xMidYMid meet" version="1.0"><path fill="#e4e4e7" d="M 391.144531 123.253906 C 364.742188 125.195312 346.597656 135.183594 331.773438 155.9375 C 320.46875 171.765625 314.890625 189.246094 313.429688 213.441406 C 313.335938 214.980469 313.207031 216.542969 313.148438 216.910156 C 311.835938 224.566406 313.234375 238.769531 315.601562 241.875 C 316.527344 243.089844 316.542969 243.144531 316.359375 244.890625 C 315.457031 253.566406 310.808594 259.308594 300.660156 264.292969 C 297.003906 266.089844 295.695312 267.117188 295.695312 268.183594 C 295.695312 273.035156 310.253906 270.132812 325.496094 262.242188 C 330.101562 259.855469 334.109375 258.003906 334.671875 258.003906 C 334.785156 258.003906 334.746094 258.453125 334.582031 259.003906 C 332.898438 264.695312 334.933594 270.355469 340.941406 276.695312 C 346.792969 282.875 347.28125 284.433594 346.808594 295.492188 C 346.414062 304.726562 347.464844 307.621094 353.835938 314.800781 C 358.421875 319.980469 359.582031 322.167969 361.34375 328.984375 C 363.425781 337.03125 364.457031 338.761719 371.34375 345.792969 C 374.144531 348.65625 376.765625 351.445312 377.167969 351.992188 C 377.914062 353.007812 381.335938 358.695312 381.253906 358.785156 C 381.230469 358.808594 380.273438 358.714844 379.128906 358.574219 C 363.21875 356.597656 344.1875 367.78125 329.121094 387.953125 C 319.84375 400.375 314.679688 414.59375 317.863281 418.972656 C 318.152344 419.375 318.339844 419.707031 318.269531 419.707031 C 318.066406 419.707031 310.550781 417.199219 306.355469 415.730469 C 293.789062 411.328125 285.136719 412.355469 279.003906 418.980469 C 275.773438 422.472656 273.5625 426.53125 273.160156 429.714844 C 273.066406 430.449219 272.929688 431.441406 272.855469 431.921875 L 272.722656 432.800781 L 272 432.3125 C 269.476562 430.597656 265.707031 430.15625 252.953125 430.082031 C 242.945312 430.027344 239.570312 429.816406 227.519531 428.496094 C 220.691406 427.746094 191.664062 424.402344 189.527344 424.117188 C 187.644531 423.871094 185.726562 425.519531 186.179688 426.992188 C 186.601562 428.355469 190.710938 434.273438 198.828125 445.1875 C 206 454.839844 206.917969 456.125 211.535156 462.957031 C 217.644531 472.003906 224.21875 483.019531 231.109375 495.753906 C 233.210938 499.644531 235.804688 504.414062 236.871094 506.359375 L 238.8125 509.890625 L 237.433594 511.003906 C 226.519531 519.871094 222.160156 529.886719 225.210938 539.09375 C 226.957031 544.359375 227.511719 547.3125 227.09375 549.082031 C 226.828125 550.195312 226.824219 550.765625 227.070312 551.6875 C 227.242188 552.335938 227.386719 553.433594 227.390625 554.132812 C 227.394531 556.453125 228.78125 560.457031 230.828125 564.070312 C 232.316406 566.6875 232.382812 566.941406 232.59375 570.871094 C 233.78125 592.875 247.25 608.714844 269.6875 614.5 C 282.347656 617.765625 298.839844 615.21875 305.128906 609.035156 L 306.570312 607.617188 L 306.738281 610.457031 C 306.835938 612.019531 306.976562 614.496094 307.050781 615.964844 C 307.816406 630.660156 309.824219 632.765625 322.980469 632.671875 C 334.574219 632.585938 334.855469 633.34375 324.84375 637.6875 C 318.199219 640.566406 315.949219 642.15625 315.5625 644.234375 C 314.957031 647.453125 318.015625 647.839844 325.414062 645.476562 C 329.613281 644.132812 332.582031 643.453125 333.472656 643.625 C 333.792969 643.6875 333.082031 644.378906 331.214844 645.828125 C 323.671875 651.679688 318.890625 659.265625 315.46875 670.808594 C 312.878906 679.546875 312.4375 685.996094 314.40625 686.226562 C 315.085938 686.304688 315.109375 686.261719 315.285156 684.355469 C 316.746094 668.757812 323.199219 655.59375 333.175781 647.859375 C 338.089844 644.046875 338.621094 642.1875 335.121094 641.027344 C 333 640.320312 330.542969 640.683594 324.113281 642.648438 C 320.613281 643.71875 319.179688 644.105469 319.179688 643.984375 C 319.179688 643.703125 322.449219 642.09375 325.714844 640.769531 C 333.445312 637.628906 335.1875 636.257812 335.1875 633.34375 C 335.1875 630.574219 331.984375 629.628906 322.492188 629.597656 L 315.535156 629.574219 L 314.222656 628.765625 C 311.664062 627.1875 310.703125 624.078125 310.113281 615.433594 C 309.953125 613.085938 309.746094 610.324219 309.65625 609.292969 L 309.492188 607.425781 L 311.832031 610.628906 C 324.09375 627.40625 327.898438 629.0625 369.476562 635.714844 C 383.519531 637.960938 390.375 639.476562 404.433594 643.4375 C 419.917969 647.804688 425.078125 648.121094 426.1875 644.761719 C 427.121094 641.925781 424.425781 638.421875 408.351562 621.570312 C 396.277344 608.914062 390.714844 602.539062 385.9375 595.886719 C 384.230469 593.511719 384.277344 593.507812 387.3125 595.777344 C 388.65625 596.78125 391.859375 599.152344 394.429688 601.046875 C 400.453125 605.488281 400.78125 605.742188 410.136719 613.167969 C 429.386719 628.441406 438.835938 633.925781 459.800781 641.988281 C 500.375 657.589844 523.351562 656.1875 542.804688 636.917969 C 549.417969 630.367188 552.554688 625.585938 560.226562 610.363281 C 567.136719 596.652344 570.804688 590.503906 576.230469 583.542969 C 577.71875 581.632812 577.871094 581.617188 577.324219 583.421875 C 576.503906 586.152344 575.882812 589.96875 575.484375 594.753906 C 574.089844 611.53125 569.898438 618.648438 553.882812 631.449219 C 544.421875 639.011719 542.851562 641.214844 544.90625 644.050781 C 547.597656 647.765625 553.132812 645.359375 561.449219 636.851562 C 563.710938 634.535156 566.175781 632.222656 566.917969 631.710938 C 572.996094 627.539062 570.660156 635.550781 563.847656 642.234375 C 559.792969 646.214844 557.070312 647.910156 541.320312 656.246094 C 523.285156 665.792969 521.707031 666.773438 521.707031 668.449219 C 521.707031 671.179688 526.523438 673.242188 531.847656 672.789062 C 543.0625 671.84375 552.480469 666.304688 562.851562 654.5625 C 572.800781 643.292969 574.277344 643.804688 573.5 658.25 C 572.796875 671.316406 573.421875 680.402344 575.378906 685.652344 C 576.257812 688 577.648438 688.308594 576.859375 685.980469 C 575.292969 681.351562 574.765625 670.109375 575.535156 657.992188 C 576.574219 641.738281 572.335938 639.855469 561.726562 651.855469 C 549.691406 665.464844 541.078125 670.382812 530.039062 669.941406 C 521.957031 669.617188 522.464844 669 536.917969 661.585938 C 558.335938 650.601562 562.191406 648.273438 566.945312 643.476562 C 572.359375 638.015625 574.648438 632.476562 572.796875 629.316406 C 570.617188 625.59375 567.027344 627.136719 558.53125 635.457031 C 552.648438 641.210938 551.386719 642.109375 548.710938 642.425781 C 545.515625 642.804688 547.9375 639.949219 556.550781 633.167969 C 573.195312 620.066406 577.613281 612.703125 578.945312 595.820312 C 579.421875 589.78125 579.589844 588.714844 580.855469 583.679688 C 581.980469 579.1875 582.042969 578.042969 581.234375 576.90625 C 578.414062 572.945312 568.53125 586.003906 556.523438 609.5625 C 549.945312 622.457031 546.476562 627.875 541.15625 633.550781 C 528.378906 647.175781 513.414062 651.625 492.828125 647.921875 L 490.230469 647.453125 L 496.296875 647.441406 C 503.207031 647.429688 505.5 647.074219 510.742188 645.207031 C 521.425781 641.394531 526.386719 637.289062 539.144531 621.703125 C 545.546875 613.878906 549.355469 609.351562 557.863281 599.421875 C 581.59375 571.746094 594.371094 551.230469 606.070312 522.039062 C 624.167969 476.882812 623.808594 441.058594 605.027344 417.847656 C 604.042969 416.628906 603.386719 415.398438 602.554688 413.214844 C 595.535156 394.777344 581.21875 378.132812 560.800781 364.667969 C 558.289062 363.011719 556.644531 361.621094 553.195312 358.234375 C 532.0625 337.484375 504.464844 316.816406 494.378906 314.191406 C 492.679688 313.746094 491.875 313.835938 490.589844 314.609375 L 489.753906 315.109375 L 489.570312 313.242188 C 489.472656 312.21875 489.53125 308.679688 489.703125 305.375 C 490.554688 289.214844 489.914062 282.78125 485.945312 267.609375 C 481.101562 249.078125 480.996094 246.5625 484.488281 232.742188 C 485.984375 226.835938 486.308594 224.507812 486.167969 220.789062 L 486.050781 217.757812 L 487.15625 218.664062 C 492.023438 222.652344 497.53125 220.167969 497.066406 214.195312 C 496.796875 210.644531 495.347656 208.089844 491.832031 204.949219 C 489.511719 202.871094 489.09375 202.078125 488.078125 197.796875 C 486.503906 191.171875 485.152344 189.726562 480.074219 189.253906 L 478.214844 189.082031 L 477.949219 188.121094 C 477.800781 187.589844 477.371094 185.417969 476.992188 183.289062 C 474.699219 170.308594 469.695312 160.75 459.75 150.335938 C 441.835938 131.574219 416.117188 121.421875 391.144531 123.253906 M 402.710938 126.714844 C 422.714844 128.179688 442.644531 137.71875 457.898438 153.136719 C 467.179688 162.523438 471.960938 171.597656 474.203125 184.09375 C 474.652344 186.605469 475.050781 188.800781 475.085938 188.972656 C 475.125 189.191406 474.191406 189.347656 472.078125 189.480469 C 444.285156 191.234375 432.566406 194.492188 411.621094 206.296875 C 398.367188 213.765625 396.234375 214.613281 376.046875 220.402344 C 339.421875 230.90625 321.882812 236.523438 319.007812 238.679688 L 318.167969 239.308594 L 317.632812 238.050781 C 315.859375 233.878906 316.183594 220.8125 318.507812 202.902344 C 320.921875 184.277344 327.320312 168.738281 338.554688 154.203125 C 353.703125 134.601562 376.578125 124.800781 402.710938 126.714844 M 477.082031 193.363281 C 479.730469 196.753906 479.699219 197.34375 476.742188 200.144531 C 473.734375 202.988281 473.355469 206.394531 475.761719 208.972656 L 476.445312 209.707031 L 474.894531 209.707031 C 469.570312 209.707031 462.199219 211.523438 452.730469 215.171875 C 449.792969 216.300781 445.53125 217.863281 443.257812 218.648438 C 438.136719 220.402344 436.242188 221.183594 433.515625 222.644531 C 432.34375 223.277344 430 224.234375 428.3125 224.773438 C 422.675781 226.574219 415.839844 229.101562 403.765625 233.847656 C 384.214844 241.53125 364.375 247.730469 340.941406 253.484375 C 334.878906 254.96875 335.335938 254.980469 335.746094 253.347656 C 337.355469 246.949219 331.558594 241.191406 323.503906 241.191406 C 320.46875 241.191406 320.316406 241.039062 322.347656 240.011719 C 325.632812 238.34375 343.726562 232.75 375.480469 223.585938 C 398.25 217.015625 401.304688 215.832031 414.460938 208.484375 C 433.273438 197.980469 444.058594 194.941406 470.605469 192.664062 C 475.980469 192.203125 476.195312 192.226562 477.082031 193.363281 M 483.339844 193.878906 C 484.050781 194.664062 484.589844 196.164062 485.3125 199.390625 C 486.390625 204.191406 486.667969 204.636719 491.1875 208.738281 C 494.722656 211.953125 495.21875 217.710938 491.957031 217.710938 C 491.039062 217.710938 485.460938 213.65625 485.433594 212.964844 C 485.398438 212.152344 484.386719 211.195312 482.242188 209.929688 C 476.25 206.40625 475.941406 205.191406 480.082031 201.449219 C 483.171875 198.65625 483.78125 196 481.917969 193.386719 L 481.34375 192.578125 L 482.113281 192.976562 C 482.535156 193.195312 483.089844 193.601562 483.339844 193.878906 M 477.636719 212.65625 C 481.453125 213.476562 483.628906 217.851562 483 223.453125 C 482.742188 225.753906 479.796875 237.984375 479.5 237.988281 C 479.398438 237.988281 479.242188 237.761719 479.15625 237.484375 C 478.300781 234.792969 474 232.582031 469.347656 232.4375 C 458.710938 232.109375 450.621094 239.441406 449.496094 250.429688 C 449.320312 252.148438 449.304688 252.179688 448.621094 252.015625 C 446.824219 251.585938 444.363281 251.570312 442.457031 251.976562 C 437.25 253.078125 435.027344 251.652344 431.808594 245.128906 C 425.40625 232.160156 428.09375 227.246094 444.628906 221.703125 C 447.324219 220.800781 451.871094 219.125 454.730469 217.984375 C 460.851562 215.539062 463.886719 214.542969 468.082031 213.605469 C 473.144531 212.472656 475.632812 212.226562 477.636719 212.65625 M 426.714844 228.484375 C 426.714844 228.539062 426.441406 229.167969 426.113281 229.886719 C 423.800781 234.898438 427.089844 247.050781 432.296875 252.726562 C 435.09375 255.777344 438.003906 256.480469 443.1875 255.351562 C 448.570312 254.179688 448.863281 254.625 448.859375 264.125 C 448.855469 288.777344 445.777344 310.835938 440.433594 324.492188 C 430.976562 348.660156 403.53125 371.644531 393.125 364.109375 C 392.449219 363.617188 390.902344 362.695312 389.695312 362.066406 C 387.21875 360.769531 385.726562 359.222656 383.582031 355.71875 C 379.644531 349.289062 378.960938 348.410156 374.289062 343.792969 C 367.542969 337.121094 366.667969 335.667969 364.527344 327.578125 C 362.664062 320.519531 361.226562 317.796875 356.53125 312.4375 C 350.566406 305.625 350.054688 304.085938 350.308594 293.625 C 350.578125 282.625 350.105469 281.289062 343.492188 274.441406 C 337.691406 268.429688 336.554688 266.054688 336.878906 260.609375 C 337.082031 257.167969 337.140625 257.085938 339.652344 256.542969 C 354.398438 253.359375 376.554688 247.015625 390.957031 241.847656 C 395.355469 240.273438 397.632812 239.40625 410.4375 234.4375 C 421.117188 230.289062 426.714844 228.246094 426.714844 228.484375 M 470.527344 235.621094 C 475.433594 236.660156 478.730469 241.78125 478.753906 248.390625 C 478.761719 249.640625 478.875 251.503906 479.015625 252.535156 C 479.636719 257.144531 477.75 272.632812 475.933594 277.835938 C 472.324219 288.164062 461.601562 286.496094 456.871094 274.871094 C 455.257812 270.910156 453.558594 262.054688 454.507812 262.5625 C 455.207031 262.9375 455.4375 262.15625 455.492188 259.203125 C 455.636719 251.648438 461.027344 246.34375 465.273438 249.582031 C 467.953125 251.628906 468.019531 254.425781 465.53125 260.539062 C 463.070312 266.582031 462.925781 269.265625 464.847656 273.355469 C 466.761719 277.429688 465.945312 279.28125 462.734375 278.152344 C 459.886719 277.144531 459.476562 278.582031 462.207031 280.015625 C 466.960938 282.507812 469.832031 278.25 467.214844 272.582031 C 465.507812 268.882812 465.566406 266.820312 467.507812 262.40625 C 472.027344 252.152344 470.054688 246.261719 462.097656 246.261719 C 457.570312 246.261719 453.53125 251.578125 453.382812 257.738281 L 453.359375 258.671875 L 453.023438 257.601562 C 452.839844 257.015625 452.480469 256.140625 452.230469 255.65625 C 451.386719 254.042969 452.457031 248.046875 454.222656 244.484375 C 457.152344 238.5625 464.800781 234.410156 470.527344 235.621094 M 326.957031 245.09375 C 331.332031 246.480469 333.605469 250.105469 332.753906 254.332031 C 332.464844 255.777344 332.417969 255.835938 331.21875 256.28125 C 330.539062 256.53125 327.644531 257.90625 324.78125 259.335938 C 312.03125 265.703125 302.777344 269.015625 299.21875 268.476562 C 298.035156 268.300781 298.332031 268.105469 303.054688 265.945312 C 313.289062 261.257812 317.871094 255.46875 319.046875 245.714844 L 319.195312 244.5 L 322.453125 244.597656 C 324.304688 244.65625 326.25 244.871094 326.957031 245.09375 M 483.28125 271.078125 C 486.648438 283.988281 486.910156 285.910156 486.773438 296.5625 C 486.597656 310.425781 486.609375 315.457031 486.820312 316.640625 L 487.023438 317.777344 L 486.144531 317.777344 C 481.757812 317.777344 474.921875 322.066406 464.871094 331.113281 C 462.632812 333.128906 458.636719 336.628906 448.71875 345.257812 C 438.867188 353.824219 431.015625 362.039062 427.5625 367.390625 C 426.753906 368.648438 426.046875 369.726562 425.996094 369.792969 C 425.945312 369.851562 425.515625 369.535156 425.042969 369.085938 C 421.398438 365.628906 416.917969 366.855469 411.351562 372.824219 C 406.898438 377.601562 399.445312 388.390625 397.609375 392.714844 L 396.894531 394.410156 L 396.558594 393.015625 C 396.097656 391.089844 396.375 388.667969 397.371094 385.875 C 399.472656 379.992188 399.574219 379.597656 399.699219 376.847656 C 399.835938 373.808594 399.453125 372.003906 398.164062 369.609375 L 397.414062 368.207031 L 398.886719 368.207031 C 414.652344 368.207031 437.304688 345.25 444.984375 321.5 C 448.613281 310.269531 451.476562 288.921875 451.546875 272.550781 L 451.566406 268.277344 L 452.210938 271.078125 C 454.6875 281.894531 460.414062 287.910156 468.195312 287.882812 C 476.171875 287.855469 479.875 282.382812 481.285156 268.542969 C 481.484375 266.5625 481.734375 265.253906 481.84375 265.609375 C 481.886719 265.753906 482.535156 268.214844 483.28125 271.078125 M 496.4375 318.605469 C 503.75 321.800781 519.992188 333.382812 533.859375 345.285156 C 537.65625 348.546875 544.921875 355.121094 544.921875 355.296875 C 544.921875 355.429688 539.949219 352.855469 534.382812 349.84375 C 516.242188 340.035156 497.671875 325.648438 493.027344 317.800781 C 492.703125 317.25 494.078125 317.574219 496.4375 318.605469 M 488.734375 321.972656 C 489.871094 322.769531 491.226562 324.320312 494.757812 328.851562 C 497.101562 331.863281 501.808594 336.800781 504.351562 338.921875 L 505.8125 340.136719 L 504.621094 340.441406 C 494.644531 342.976562 486.171875 348.621094 481.738281 355.683594 C 480.957031 356.921875 479.507812 359.195312 478.515625 360.734375 C 474.488281 366.984375 470.648438 374.183594 467.554688 381.28125 C 464.164062 389.058594 462.445312 391.449219 458.105469 394.414062 C 450.253906 399.78125 439.023438 397.5 431.078125 388.921875 C 421.410156 378.484375 426.789062 367.984375 453.664062 344.847656 C 456.378906 342.511719 461.839844 337.773438 465.804688 334.320312 C 480.8125 321.238281 484.707031 319.144531 488.734375 321.972656 M 503.5625 333.289062 C 504.367188 333.96875 506.394531 335.558594 508.0625 336.820312 C 510.644531 338.777344 510.988281 339.121094 510.363281 339.121094 C 509.242188 339.121094 504.042969 334.753906 500.359375 330.714844 L 499.160156 329.398438 L 500.625 330.726562 C 501.433594 331.457031 502.753906 332.613281 503.5625 333.289062 M 517.4375 343.394531 C 524.699219 348.199219 528.296875 350.265625 539.179688 355.871094 C 551.496094 362.21875 553.164062 363.179688 554.65625 364.792969 C 555.375 365.570312 556.992188 367.289062 558.25 368.609375 C 563.515625 374.125 568.285156 379.429688 567.332031 378.714844 C 557.507812 371.296875 535.539062 356.148438 521.929688 347.40625 C 512.835938 341.566406 512.902344 341.613281 513.421875 341.277344 C 513.636719 341.140625 513.933594 341.101562 514.089844 341.195312 C 514.242188 341.289062 515.75 342.28125 517.4375 343.394531 M 505.21875 345.59375 C 498.539062 352.328125 493.710938 360.273438 491.039062 368.917969 C 490.039062 372.164062 489.675781 373.894531 488.328125 381.816406 C 484.058594 406.9375 477.207031 418.226562 465.152344 419.988281 C 460.996094 420.59375 457.640625 419.980469 450.503906 417.304688 C 442.332031 414.238281 439.375 414.007812 430.96875 415.785156 C 422.183594 417.636719 418.808594 416.863281 413.757812 411.835938 C 409.179688 407.277344 402.585938 397.621094 403.421875 396.691406 C 407.128906 392.546875 413.292969 389.941406 416.894531 390.988281 C 419.988281 391.886719 420.585938 392.515625 425.566406 400.113281 C 435.1875 414.78125 453.765625 411.785156 464.148438 393.898438 C 464.679688 392.980469 465.792969 391.433594 466.625 390.453125 C 470.164062 386.285156 473.949219 379.515625 478.472656 369.273438 C 484.335938 356.007812 488.566406 350.585938 496.015625 346.796875 C 499.160156 345.199219 505.730469 342.964844 507.550781 342.875 C 507.757812 342.867188 506.710938 344.089844 505.21875 345.59375 M 521.839844 351.113281 C 527.851562 354.917969 540.527344 363.425781 545.988281 367.316406 C 550.058594 370.21875 551.609375 371.316406 553.460938 372.617188 C 555.53125 374.070312 556.296875 374.621094 561.25 378.195312 C 566.054688 381.664062 570.859375 385.171875 576.941406 389.652344 C 578.335938 390.679688 581.15625 393.164062 583.214844 395.175781 C 589.230469 401.066406 593.609375 404.589844 595.347656 404.9375 C 596.078125 405.082031 596.703125 406.113281 598.480469 410.082031 L 599.125 411.53125 L 598.242188 410.808594 C 581.394531 397.042969 558.164062 392.03125 540.785156 398.40625 C 516.324219 407.382812 498.679688 430.234375 485.40625 470.140625 C 475.703125 499.304688 476.476562 515.183594 488.132812 526.324219 C 489.332031 527.464844 490.078125 528.304688 489.800781 528.191406 C 482.304688 525.125 478.714844 525.449219 480.050781 529.070312 C 481.382812 532.679688 489.332031 537.625 503.429688 543.609375 C 514.324219 548.230469 520.507812 551.253906 525.636719 554.464844 C 528.636719 556.339844 530.949219 558.082031 530.113281 557.835938 C 529.820312 557.753906 527.839844 557.261719 525.710938 556.75 C 495.949219 549.589844 490.546875 548.089844 472.246094 541.921875 C 454.398438 535.910156 445.199219 531.425781 428.449219 520.570312 C 416.238281 512.660156 411.570312 509.9375 403.714844 506.164062 L 399.554688 504.160156 L 398.191406 501.425781 C 391.746094 488.484375 381.667969 479.25 372.191406 477.601562 C 368.941406 477.035156 366.316406 478.382812 366 480.785156 C 365.910156 481.460938 365.726562 482.253906 365.589844 482.546875 C 363.136719 487.851562 364.800781 491.511719 374.90625 503.03125 C 381.144531 510.144531 382.289062 512.265625 382.277344 516.703125 C 382.265625 521.410156 381.386719 522.75 372.550781 531.511719 C 362.855469 541.128906 359.226562 549.066406 361.046875 556.683594 C 361.179688 557.246094 361.257812 557.664062 361.214844 557.617188 C 359.253906 555.34375 346.617188 537.898438 343.875 533.675781 C 340.917969 529.117188 332.253906 514.253906 332.253906 513.738281 C 332.253906 513.6875 332.703125 513.414062 333.253906 513.132812 C 335.136719 512.171875 336.726562 509.773438 340.539062 502.140625 C 344.097656 495.007812 345.878906 491.832031 350.417969 484.515625 C 357.089844 473.765625 358.417969 469.972656 357.605469 464 C 356.515625 455.9375 351.117188 446.75 341.871094 437.207031 C 340.175781 435.460938 339.03125 434.121094 339.324219 434.230469 C 342.242188 435.320312 346.269531 435.382812 350.929688 434.40625 C 367.707031 430.894531 373.75 427.824219 371.886719 423.746094 C 369.8125 419.203125 363.5 419.042969 355.332031 423.328125 C 350.328125 425.949219 349.230469 426.195312 343.46875 425.957031 C 338.589844 425.753906 337.21875 425.984375 335.59375 427.28125 L 334.800781 427.917969 L 332.925781 426.386719 C 329.378906 423.484375 327.304688 422.363281 323.085938 421.058594 L 320.722656 420.328125 L 321.5625 419.980469 C 322.734375 419.496094 325.101562 416.792969 326.542969 414.296875 C 327.941406 411.875 328.644531 410.265625 331.84375 402.230469 C 337.019531 389.226562 340.777344 382.929688 347.359375 376.238281 L 350.351562 373.199219 L 352.769531 373.378906 C 360.257812 373.945312 365.910156 377.5 367.898438 382.890625 C 368.21875 383.757812 368.398438 385.585938 368.554688 389.558594 C 369.019531 401.144531 371.632812 405.898438 378.914062 408.410156 C 384.675781 410.394531 389.960938 409.292969 396.277344 404.792969 C 401.09375 401.359375 401.878906 401.246094 403.40625 403.761719 C 411.796875 417.601562 419.25 421.480469 432.183594 418.746094 C 440.214844 417.046875 442.878906 417.25 450.71875 420.160156 C 456.980469 422.484375 458.265625 422.761719 462.734375 422.765625 C 477.425781 422.78125 485.898438 410.59375 490.738281 382.484375 C 491.347656 378.960938 492.082031 374.9375 492.378906 373.542969 C 494.359375 364.199219 499.851562 354.597656 507.894531 346.429688 L 510.554688 343.730469 L 513.796875 345.898438 C 515.578125 347.09375 519.199219 349.441406 521.839844 351.113281 M 379.898438 362.355469 C 383.066406 362.796875 385.214844 363.570312 387.046875 364.925781 C 388.875 366.28125 391.4375 367.585938 392.753906 367.835938 C 396.863281 368.609375 398.097656 375.980469 395.378906 383.484375 C 393.824219 387.773438 393.535156 389.171875 393.683594 391.703125 L 393.800781 393.761719 L 392.445312 394.171875 C 391.699219 394.398438 389.734375 395.140625 388.078125 395.824219 C 378.351562 399.839844 373.609375 395.59375 376.152344 385.152344 C 378.371094 376.042969 375.941406 371.761719 367.210938 369.378906 C 365.34375 368.871094 359.105469 368.6875 356.800781 369.078125 L 355.601562 369.277344 L 357.46875 368.050781 C 364.742188 363.277344 372.449219 361.320312 379.898438 362.355469 M 422.925781 370.617188 C 424.328125 371.46875 424.6875 372.652344 424.160156 374.683594 C 420.089844 390.375 443.277344 406.605469 457.53125 398.042969 C 458.847656 397.253906 458.84375 397.480469 457.515625 399.035156 C 453.640625 403.566406 447.402344 406.46875 441.523438 406.476562 C 435.132812 406.480469 431.320312 404.179688 427.390625 397.957031 C 419.75 385.867188 413.714844 384.617188 403.972656 393.117188 C 400.847656 395.839844 400.695312 395.945312 400.050781 395.777344 C 398.972656 395.492188 400.429688 392.410156 404.507812 386.351562 C 413.980469 372.285156 418.847656 368.128906 422.925781 370.617188 M 366.828125 371.679688 C 373.585938 373.410156 375.378906 376.875 373.578125 384.714844 C 371.625 393.203125 372.953125 396.988281 378.613281 399.0625 C 382.273438 400.40625 385.007812 400.101562 390.433594 397.742188 C 394.652344 395.910156 394.53125 395.914062 395.902344 397.484375 C 396.542969 398.214844 397.425781 398.988281 397.863281 399.199219 L 398.664062 399.589844 L 395.8125 401.59375 C 389.808594 405.816406 386.144531 407.058594 381.726562 406.367188 C 374.792969 405.285156 371.773438 400.300781 371.21875 389.019531 C 370.738281 379.273438 367.011719 374.585938 357.871094 372.238281 C 355.066406 371.519531 355.992188 371.238281 361.363281 371.179688 C 363.949219 371.152344 365.207031 371.265625 366.828125 371.679688 M 571.738281 376.375 C 577.714844 381.332031 587.933594 391.886719 589.566406 394.785156 C 590.121094 395.769531 583.183594 390.113281 580.8125 387.648438 C 576.203125 382.859375 567.21875 372.929688 567.757812 373.21875 C 568.039062 373.371094 569.832031 374.792969 571.738281 376.375 M 341.058594 378.566406 C 341.058594 378.6875 340.386719 379.679688 339.570312 380.769531 C 335.660156 385.972656 332.683594 391.75 328.664062 401.921875 C 324.855469 411.554688 323.070312 415.117188 321.3125 416.59375 C 320.203125 417.53125 319.980469 417.332031 319.980469 415.410156 C 319.980469 406.9375 328.601562 390.988281 338.898438 380.414062 C 340.996094 378.261719 341.058594 378.207031 341.058594 378.566406 M 561.199219 399.550781 C 571.894531 400.6875 583.1875 404.699219 591.582031 410.34375 C 596.859375 413.890625 601.761719 418.667969 602.402344 420.875 C 608.988281 443.664062 611.1875 484.519531 607.078125 507.761719 C 605.773438 515.132812 596.335938 536.535156 587.949219 551.140625 C 578.214844 568.085938 571.046875 577.957031 553.871094 598.085938 C 544.320312 609.28125 542.421875 611.542969 537.320312 617.832031 C 522.140625 636.546875 515.875 641.335938 503.828125 643.421875 C 488.925781 646 471.804688 640.160156 445.242188 623.425781 C 434.714844 616.796875 432.046875 615.195312 421.296875 609.058594 C 400.234375 597.039062 392.597656 592.101562 385.515625 585.917969 C 383.941406 584.539062 382.246094 583.113281 381.753906 582.746094 C 381.128906 582.277344 380.308594 581.007812 379.007812 578.476562 C 374.816406 570.339844 375.414062 568.347656 385.863281 555.660156 C 392.714844 547.34375 395.324219 543.738281 398.234375 538.582031 C 403.46875 529.296875 404.8125 519.945312 402.160156 511.222656 C 401.871094 510.273438 401.632812 509.40625 401.632812 509.289062 C 401.625 508.417969 414.421875 515.78125 425.648438 523.101562 C 445.238281 535.890625 452.605469 539.449219 472.476562 545.738281 C 488.804688 550.90625 496.9375 553.148438 516.371094 557.828125 C 531.253906 561.410156 532.355469 561.625 533.792969 561.148438 C 538.15625 559.707031 532.359375 553.722656 520.238281 547.152344 C 515.976562 544.839844 515.632812 544.476562 519.578125 546.457031 C 529.65625 551.515625 534.695312 552.546875 535.761719 549.769531 C 536.839844 546.953125 532.175781 543.953125 519.039062 539.019531 C 498.46875 531.292969 488.765625 524.617188 484.332031 515.144531 C 476.199219 497.769531 496.3125 439.71875 518.105469 417.664062 C 531.785156 403.816406 545.828125 397.914062 561.199219 399.550781 M 298.097656 416.253906 C 300.644531 416.664062 303.492188 417.550781 309.097656 419.679688 C 311.84375 420.71875 316.464844 422.238281 319.367188 423.054688 C 327.1875 425.25 333.503906 428.722656 333.566406 430.863281 C 333.617188 432.464844 334.972656 434.375 339.195312 438.785156 C 351.015625 451.125 356.105469 462.316406 353.875 471.039062 C 353.117188 474 351.753906 476.714844 347.695312 483.347656 C 342.621094 491.644531 341.792969 493.140625 337.890625 501.144531 C 332.269531 512.660156 332.464844 512.601562 327.71875 504.296875 C 324.914062 499.390625 321.730469 494.707031 317.292969 488.953125 C 315.367188 486.457031 312.730469 482.90625 311.429688 481.058594 C 308.222656 476.5 307.078125 475.292969 303.324219 472.5 C 300.203125 470.175781 295.964844 465.511719 295.964844 464.402344 C 295.964844 463.632812 298.625 463.523438 301.71875 464.164062 C 304.609375 464.765625 306.023438 464.566406 306.976562 463.425781 C 308.832031 461.210938 307.210938 459.726562 302.078125 458.9375 C 295.417969 457.917969 290.421875 454.96875 288.367188 450.847656 C 287.28125 448.667969 287.753906 448.578125 296.921875 449.21875 C 304.800781 449.765625 307.25 449.613281 309.621094 448.429688 C 312.105469 447.191406 312.730469 445.757812 311.378906 444.40625 C 309.6875 442.714844 308.539062 442.65625 303.273438 444 C 296.121094 445.820312 289.089844 445.476562 284.585938 443.085938 C 280.546875 440.941406 280.109375 434.710938 283.773438 431.570312 C 287.390625 428.464844 291.28125 428.085938 299.878906 430 C 302.46875 430.574219 303.773438 431.371094 310.070312 436.214844 C 313.679688 438.996094 316.007812 439.539062 316.855469 437.808594 C 318.378906 434.6875 313.121094 431.179688 301.777344 427.746094 C 293.75 425.3125 287.464844 425.261719 282.699219 427.59375 C 278.738281 429.535156 276.953125 435.574219 278.753906 440.957031 C 282.554688 452.308594 289.816406 463.542969 305.824219 482.8125 C 318.1875 497.695312 322.113281 503.363281 330.566406 518.515625 C 339.003906 533.644531 341.597656 537.554688 353.042969 552.4375 C 361.632812 563.605469 363.699219 566.65625 367.339844 573.558594 C 371.136719 580.746094 372.457031 582.859375 374.601562 585.160156 C 375.484375 586.109375 377.425781 588.789062 378.917969 591.117188 C 385.542969 601.464844 390.414062 607.28125 406.300781 623.835938 C 420.253906 638.382812 424.390625 643.351562 423.210938 644.164062 C 421.785156 645.148438 414.347656 643.777344 402.085938 640.265625 C 387.914062 636.207031 381.863281 634.878906 366.140625 632.378906 C 334.578125 627.355469 330.324219 626.027344 322.167969 618.640625 C 318.265625 615.109375 308.589844 602.121094 307.160156 598.488281 C 305.492188 594.265625 298.867188 584.328125 295.609375 581.164062 C 294.789062 580.367188 294.175781 579.628906 294.242188 579.519531 C 294.519531 579.070312 297.496094 577.613281 302.367188 575.546875 C 309.757812 572.414062 312.496094 570.714844 313.582031 568.589844 C 314.960938 565.882812 313.292969 561.917969 310.453125 561.152344 C 306.957031 560.214844 304.664062 560.632812 292.894531 564.375 C 281.03125 568.144531 276.066406 569.40625 266.273438 571.125 C 251.960938 573.640625 247.496094 575.664062 246.878906 579.910156 L 246.730469 580.945312 L 245.261719 579.796875 C 243.179688 578.164062 239.546875 574.492188 239.039062 573.5 L 238.609375 572.660156 L 239.867188 573.070312 C 246.371094 575.1875 261.585938 571.425781 287.558594 561.277344 C 305.042969 554.441406 311.886719 547.492188 306.382812 542.15625 C 302.886719 538.765625 290.75 538.847656 278.753906 542.347656 C 278.457031 542.433594 280.621094 541.300781 283.554688 539.828125 C 296.617188 533.285156 299.382812 529.863281 295.078125 525.558594 C 289.328125 519.808594 275.632812 520.804688 259.265625 528.160156 L 254.988281 530.078125 L 258.023438 527.03125 C 268.566406 516.429688 272.144531 507.570312 267.53125 503.515625 C 263.644531 500.101562 252.304688 502.132812 241.230469 508.226562 C 241.140625 508.277344 240.910156 507.921875 240.71875 507.4375 C 237.1875 498.550781 225.449219 477.785156 215.488281 462.800781 C 209.785156 454.226562 210.492188 455.214844 200.566406 441.855469 C 192.867188 431.492188 190.179688 427.710938 190.5 427.710938 C 190.609375 427.710938 192.859375 428.019531 195.5 428.390625 C 202.449219 429.375 226.921875 432.40625 232.855469 433.023438 C 240.714844 433.835938 243.191406 433.9375 256.203125 433.960938 C 269.742188 433.984375 269.917969 434.007812 272.214844 435.980469 C 274.367188 437.832031 275.851562 436.441406 276.242188 432.214844 C 277.285156 420.921875 286.285156 414.351562 298.097656 416.253906 M 368.488281 423.894531 C 370.898438 425.691406 368.632812 426.925781 358.027344 429.601562 C 345.445312 432.773438 342.136719 432.980469 338.285156 430.835938 C 335.609375 429.347656 338 428.6875 344.4375 429.140625 C 349.421875 429.492188 350.570312 429.214844 356.375 426.261719 C 362.710938 423.046875 366.382812 422.328125 368.488281 423.894531 M 607.714844 427.945312 C 615.84375 442.40625 618.046875 461.242188 614.140625 482.949219 C 613.523438 486.386719 610.835938 497.71875 610.675781 497.558594 C 610.636719 497.515625 610.714844 496.042969 610.851562 494.285156 C 612.375 475.082031 610.429688 442.894531 606.84375 427.835938 C 606.257812 425.371094 606.265625 425.371094 607.714844 427.945312 M 312.714844 435.398438 C 313.195312 435.761719 313.53125 436.117188 313.460938 436.1875 C 313.277344 436.371094 311.207031 435.082031 310.105469 434.097656 L 309.171875 433.261719 L 310.503906 434 C 311.238281 434.40625 312.234375 435.035156 312.714844 435.398438 M 307.835938 446.242188 C 306.746094 446.585938 303.777344 447.015625 304.5 446.726562 C 305.496094 446.332031 307.375 445.90625 308.101562 445.90625 C 308.851562 445.910156 308.835938 445.933594 307.835938 446.242188 M 285.996094 447.238281 C 285.59375 447.886719 285.433594 447.851562 285.066406 447.042969 C 284.648438 446.128906 284.648438 446.128906 285.527344 446.460938 C 286.1875 446.710938 286.257812 446.824219 285.996094 447.238281 M 295.34375 460.140625 L 296.777344 460.726562 L 295.421875 461.394531 L 294.066406 462.066406 L 292.746094 460.109375 C 291.128906 457.714844 291.125 457.679688 292.667969 458.71875 C 293.351562 459.183594 294.554688 459.820312 295.34375 460.140625 M 376.113281 484.011719 C 383.019531 487.484375 390.457031 493.933594 393.753906 499.316406 C 395.886719 502.800781 396.324219 502.839844 388.15625 498.816406 C 377.667969 493.65625 371.203125 488.347656 369.730469 483.703125 C 369.253906 482.207031 372.867188 482.382812 376.113281 484.011719 M 369.726562 490.128906 C 373.363281 495.085938 379.546875 499.109375 392.558594 504.992188 L 398.027344 507.46875 L 398.871094 509.816406 C 403.777344 523.519531 399.429688 535.5 382.128906 555.9375 C 373.019531 566.699219 372.15625 570.199219 376.46875 578.835938 C 378.023438 581.949219 377.542969 581.566406 375.257812 577.867188 C 360.003906 553.1875 360 548.691406 375.226562 533.242188 C 388.367188 519.914062 388.757812 514.769531 377.578125 502.027344 C 370.292969 493.722656 367.945312 490.265625 367.347656 486.949219 C 367.1875 486.0625 367.21875 486.085938 367.96875 487.414062 C 368.402344 488.183594 369.195312 489.402344 369.726562 490.128906 M 264.675781 505.527344 C 272.324219 508.304688 255.339844 529.414062 239.996094 536.199219 C 237.554688 537.277344 234.355469 539.589844 231.609375 542.265625 L 229.027344 544.773438 L 228.742188 543.128906 C 228.585938 542.226562 228.144531 540.472656 227.765625 539.234375 C 225.335938 531.304688 228.878906 523.082031 238.445312 514.472656 C 246.019531 507.65625 258.664062 503.34375 264.675781 505.527344 M 287.214844 525.226562 C 290.867188 525.878906 294.324219 527.9375 293.933594 529.230469 C 293.238281 531.542969 287.5 534.761719 267.277344 544.1875 C 248.046875 553.152344 242.851562 554.804688 236.46875 554 C 230.945312 553.300781 230.167969 552.34375 231.996094 548.492188 C 234.855469 542.472656 238.050781 540.101562 249.449219 535.550781 C 252.355469 534.386719 256.859375 532.464844 259.457031 531.273438 C 268.644531 527.0625 271.792969 526.0625 279.152344 525.007812 C 280.8125 524.769531 285.34375 524.890625 287.214844 525.226562 M 489.882812 531.96875 C 492.980469 533.320312 515.039062 544.292969 514.695312 544.3125 C 514.578125 544.316406 513.917969 544.035156 513.226562 543.683594 C 512.535156 543.335938 508.847656 541.699219 505.03125 540.050781 C 496.652344 536.4375 491.851562 534.09375 488.859375 532.167969 C 486.109375 530.398438 486.234375 530.375 489.882812 531.96875 M 300.097656 542.730469 C 311.992188 544.429688 304.101562 551.960938 281.617188 560.359375 C 258.1875 569.109375 243.875 571.984375 239.128906 568.878906 C 238.003906 568.144531 241.96875 563.5625 246.332031 560.550781 C 263.136719 548.957031 287.394531 540.914062 300.097656 542.730469 M 524.664062 544.8125 C 527.375 545.917969 530.800781 547.648438 529.714844 547.359375 C 528.425781 547.019531 521.523438 543.835938 521.996094 543.796875 C 522.082031 543.792969 523.28125 544.25 524.664062 544.8125 M 244.171875 557.90625 C 240.832031 560.132812 238.125 562.546875 236.960938 564.34375 C 235.65625 566.355469 235.492188 566.183594 233.210938 560.347656 C 231.445312 555.828125 231.410156 556.21875 233.550781 556.699219 C 237.113281 557.496094 241.503906 557.410156 244.863281 556.480469 C 247.113281 555.855469 247.042969 555.996094 244.171875 557.90625 M 309.742188 564.234375 C 313.59375 566.0625 310.710938 569.035156 301.375 572.847656 C 296.507812 574.835938 293.617188 576.210938 291.867188 577.367188 C 290.921875 577.996094 290.523438 578.078125 288.375 578.105469 C 285.242188 578.140625 282.910156 578.886719 276.75 581.816406 C 263.054688 588.332031 257.75 588.585938 251.886719 583.003906 C 247.902344 579.214844 251.425781 577.054688 266.003906 574.355469 C 275.738281 572.550781 281.574219 571.023438 293.160156 567.253906 C 303.652344 563.839844 307.453125 563.148438 309.742188 564.234375 M 240.292969 580.269531 C 246.351562 585.992188 257.371094 592.726562 266.808594 596.46875 C 277.246094 600.605469 285.722656 597.15625 289.113281 587.375 C 290.042969 584.699219 291.296875 581.945312 291.585938 581.945312 C 292.796875 581.945312 299.511719 590.886719 303.597656 597.941406 C 307.019531 603.851562 302.980469 609.003906 293.027344 611.402344 C 268.699219 617.269531 241.542969 601.632812 236.863281 579.058594 C 236.25 576.109375 236.308594 575.785156 237.214844 577.035156 C 237.628906 577.605469 239.015625 579.0625 240.292969 580.269531 M 287.855469 581.878906 C 287.648438 582.285156 287.042969 583.863281 286.511719 585.390625 C 283.632812 593.65625 279.015625 596.339844 271.28125 594.238281 C 268.457031 593.472656 261.855469 590.273438 263.023438 590.238281 C 264.851562 590.1875 273.773438 586.742188 278.882812 584.117188 C 282.992188 582.003906 285.304688 581.15625 286.964844 581.148438 L 288.238281 581.144531 L 287.855469 581.878906 M 418.308594 611.773438 C 429.445312 618.105469 431.546875 619.359375 440.457031 624.988281 C 453.511719 633.238281 463.214844 638.511719 471.734375 641.984375 C 476.6875 644.003906 476.015625 643.902344 469.25 641.605469 C 442.308594 632.46875 429.851562 625.222656 402.433594 602.75 C 401.917969 602.328125 403.539062 603.195312 406.035156 604.675781 C 408.527344 606.160156 414.050781 609.351562 418.308594 611.773438 " fill-opacity="1" fill-rule="evenodd"/></svg>