<svg xmlns="http://www.w3.org/2000/svg" xmlns:xlink="http://www.w3.org/1999/xlink" width="1080" zoomAndPan="magnify" viewBox="0 0 810 809.999993" height="1080" preserveAspectRatio="xMidYMid meet" version="1.0"><defs><clipPath id="f0123bed72"><path d="M 269.246094 393.324219 L 768.917969 393.324219 L 768.917969 492.222656 L 269.246094 492.222656 Z M 269.246094 393.324219 " clip-rule="nonzero"/></clipPath><clipPath id="4b8925a9fb"><path d="M 41.058594 627.902344 L 103.390625 627.902344 L 103.390625 647.957031 L 41.058594 647.957031 Z M 41.058594 627.902344 " clip-rule="nonzero"/></clipPath><clipPath id="e2b1f4b0cb"><path d="M 589 162.050781 L 625 162.050781 L 625 198 L 589 198 Z M 589 162.050781 " clip-rule="nonzero"/></clipPath></defs><g clip-path="url(#f0123bed72)"><path fill="#e4e4e7" d="M 269.292969 412.441406 C 306.988281 408.285156 344.78125 405.003906 382.609375 402.132812 C 420.445312 399.398438 458.335938 397.371094 496.242188 395.847656 C 534.152344 394.253906 572.101562 393.613281 610.039062 393.410156 C 619.527344 393.351562 629.011719 393.351562 638.5 393.386719 C 647.976562 393.398438 657.484375 393.433594 667.003906 393.761719 C 686.011719 394.4375 705.253906 396.179688 723.761719 401.730469 C 732.984375 404.53125 741.957031 408.351562 750.238281 413.414062 C 752.292969 414.710938 754.390625 415.929688 756.304688 417.433594 C 758.253906 418.90625 760.242188 420.222656 762.117188 421.902344 C 763.996094 423.558594 765.847656 425.476562 767.183594 427.917969 C 768.535156 430.347656 769.117188 433.316406 768.859375 436.050781 C 768.328125 441.566406 765.210938 446.363281 761.1875 449.609375 C 757.171875 452.890625 752.554688 454.875 748.125 456.652344 C 739.230469 460.128906 730.246094 463.34375 721.105469 466.089844 C 684.558594 477.054688 646.117188 481.851562 608.03125 479.644531 C 569.828125 477.703125 532.957031 467.378906 495.285156 464.304688 C 476.492188 462.722656 457.414062 463.007812 438.917969 466.917969 C 429.695312 468.917969 420.65625 471.832031 412.082031 475.8125 C 409.953125 476.808594 407.886719 477.964844 406.109375 479.480469 C 404.347656 480.976562 402.882812 482.953125 402.515625 485.265625 C 402.050781 487.578125 403.570312 489.851562 405.550781 491.035156 C 406.546875 491.640625 407.703125 492.039062 408.878906 491.96875 C 410.050781 491.921875 411.183594 491.210938 411.671875 490.109375 C 411.210938 491.222656 410.085938 491.980469 408.886719 492.054688 C 407.6875 492.160156 406.492188 491.78125 405.460938 491.191406 C 403.414062 490.039062 401.738281 487.710938 402.164062 485.210938 C 402.488281 482.78125 403.976562 480.667969 405.757812 479.082031 C 407.554688 477.46875 409.640625 476.238281 411.769531 475.175781 C 420.324219 470.996094 429.382812 467.898438 438.644531 465.703125 C 457.234375 461.414062 476.484375 460.765625 495.457031 462.003906 C 533.480469 464.652344 570.480469 474.574219 608.214844 476.035156 C 645.878906 477.648438 683.824219 473.035156 719.859375 461.996094 C 728.871094 459.25 737.734375 456.042969 746.488281 452.585938 C 750.824219 450.835938 755.015625 448.957031 758.359375 446.1875 C 761.683594 443.519531 764.019531 439.652344 764.382812 435.667969 C 764.539062 433.683594 764.167969 431.800781 763.21875 430.082031 C 762.265625 428.351562 760.796875 426.78125 759.125 425.320312 C 757.457031 423.835938 755.480469 422.53125 753.644531 421.152344 C 751.824219 419.722656 749.808594 418.570312 747.847656 417.339844 C 739.929688 412.539062 731.3125 408.914062 722.398438 406.21875 C 704.539062 400.785156 685.664062 398.976562 666.84375 398.242188 C 657.417969 397.882812 647.960938 397.808594 638.480469 397.765625 C 629.003906 397.691406 619.527344 397.65625 610.054688 397.679688 C 572.148438 397.667969 534.257812 398.417969 496.367188 399.441406 C 458.476562 400.527344 420.601562 402.15625 382.757812 404.417969 C 344.902344 406.511719 307.089844 409.339844 269.292969 412.441406 " fill-opacity="1" fill-rule="nonzero"/></g><path fill="#e4e4e7" d="M 502.136719 491.304688 C 509.851562 491.664062 517.457031 491.914062 525.050781 491.796875 C 532.632812 491.644531 540.1875 491.234375 547.691406 490.355469 C 555.207031 489.5625 562.671875 488.300781 570.101562 486.785156 C 577.53125 485.234375 584.902344 483.320312 592.351562 481.285156 C 585.648438 485.132812 578.433594 488.078125 571.011719 490.335938 C 563.59375 492.625 555.929688 494.125 548.214844 495.023438 C 540.480469 495.835938 532.679688 496.054688 524.941406 495.449219 C 517.207031 494.871094 509.523438 493.582031 502.136719 491.304688 " fill-opacity="1" fill-rule="nonzero"/><path fill="#e4e4e7" d="M 422.074219 493.574219 C 385.6875 487.800781 348.96875 487.53125 312.230469 483.679688 C 293.886719 481.675781 275.53125 478.75 257.714844 473.585938 C 239.917969 468.507812 222.652344 461.054688 207.503906 450.53125 C 223.613281 459.488281 240.96875 465.617188 258.664062 470.042969 C 276.398438 474.410156 294.515625 477.101562 312.726562 479.007812 C 330.941406 481 349.289062 482.257812 367.605469 484.253906 C 385.917969 486.183594 404.253906 488.882812 422.074219 493.574219 " fill-opacity="1" fill-rule="nonzero"/><path fill="#e4e4e7" d="M 281.910156 416.449219 C 272.328125 414.652344 263.171875 410.8125 254.675781 406.007812 C 246.125 401.25 238.042969 395.746094 230.003906 390.296875 C 225.976562 387.585938 221.921875 384.933594 217.804688 382.410156 C 213.679688 379.898438 209.449219 377.53125 205.214844 375.113281 C 196.773438 370.316406 188.207031 365.175781 180.8125 358.554688 C 165.929688 345.542969 154.273438 329.640625 139.175781 317.929688 C 131.707031 312.070312 123.328125 307.324219 114.304688 305.242188 C 105.382812 303.195312 95.507812 304.34375 88.105469 309.53125 L 88.671875 306.578125 C 95.46875 317.207031 103.597656 327 112.050781 336.519531 C 120.492188 346.058594 129.191406 355.453125 137.507812 365.238281 C 145.757812 375.035156 153.898438 384.988281 161.015625 395.683594 C 168.148438 406.34375 174.511719 417.597656 179.011719 429.589844 C 173.742188 417.925781 167.046875 407.007812 159.488281 396.757812 C 151.894531 386.527344 143.699219 376.761719 135.183594 367.257812 C 126.710938 357.75 117.683594 348.703125 109.0625 339.199219 C 100.464844 329.683594 92.105469 319.8125 85.015625 308.9375 L 83.878906 307.195312 L 85.582031 305.988281 C 94.222656 299.847656 105.34375 298.566406 115.289062 300.742188 C 125.34375 302.890625 134.234375 308.203125 141.96875 314.359375 C 157.601562 326.761719 169.121094 342.824219 183.472656 355.535156 C 187.046875 358.730469 190.785156 361.671875 194.71875 364.421875 C 198.660156 367.160156 202.765625 369.707031 206.917969 372.222656 C 211.066406 374.742188 215.261719 377.238281 219.382812 379.894531 C 223.492188 382.5625 227.503906 385.351562 231.472656 388.179688 C 239.433594 393.792969 247.136719 399.707031 255.410156 404.753906 C 263.628906 409.851562 272.464844 414.042969 281.910156 416.449219 " fill-opacity="1" fill-rule="nonzero"/><path fill="#e4e4e7" d="M 177.351562 424.902344 C 176.277344 426.097656 174.667969 426.742188 173.164062 427.214844 C 171.632812 427.640625 170.15625 427.933594 168.878906 428.3125 C 167.621094 428.730469 166.5 429.222656 165.921875 429.882812 C 165.347656 430.480469 164.988281 431.453125 165.078125 431.945312 C 165.117188 432.199219 165.132812 432.308594 165.339844 432.542969 C 165.527344 432.785156 165.957031 433.078125 166.519531 433.398438 C 167.722656 434.101562 169.148438 434.78125 170.398438 435.589844 C 172.988281 437.136719 175.507812 438.839844 177.835938 440.964844 C 174.703125 440.621094 171.761719 439.855469 168.890625 438.933594 C 167.414062 438.5 166.097656 437.964844 164.585938 437.410156 C 163.804688 437.082031 162.90625 436.625 162.035156 435.800781 C 161.164062 434.984375 160.511719 433.660156 160.402344 432.417969 C 160.234375 429.898438 161.363281 427.902344 163.015625 426.53125 C 164.75 425.246094 166.589844 424.789062 168.269531 424.710938 C 171.671875 424.496094 174.253906 425.449219 177.351562 424.902344 " fill-opacity="1" fill-rule="nonzero"/><path fill="#e4e4e7" d="M 180.175781 440.082031 C 177.289062 445.074219 171.953125 448.085938 166.722656 450.167969 C 161.402344 452.253906 156.035156 453.964844 150.757812 456 C 140.175781 459.984375 129.667969 464.128906 119.347656 468.710938 C 98.648438 477.722656 78.523438 487.992188 59.066406 499.382812 L 57.628906 495.183594 C 74.207031 492.878906 90.59375 489.28125 106.796875 485 C 122.980469 480.613281 138.96875 475.441406 154.820312 469.859375 C 170.6875 464.300781 186.394531 458.242188 202.132812 452.234375 L 213.9375 447.722656 C 214.941406 447.339844 215.882812 447.015625 216.675781 446.539062 C 217.46875 446.070312 218.0625 445.480469 218.136719 444.816406 C 218.445312 443.410156 216.402344 442.242188 214.535156 441.820312 C 206.386719 440.144531 197.945312 439.300781 189.53125 439.207031 C 197.960938 438.683594 206.417969 439.078125 214.847656 440.402344 C 215.941406 440.621094 217.03125 440.957031 218.0625 441.613281 C 219.078125 442.199219 220.078125 443.546875 219.898438 445.011719 C 219.765625 446.511719 218.65625 447.542969 217.707031 448.171875 C 216.714844 448.828125 215.664062 449.234375 214.726562 449.652344 L 203.117188 454.660156 C 187.613281 461.285156 172.023438 467.742188 156.203125 473.660156 C 140.375 479.546875 124.347656 485.003906 108.003906 489.449219 C 91.679688 493.9375 75.042969 497.398438 58.230469 499.667969 L 46.804688 501.210938 L 56.792969 495.46875 C 66.652344 489.800781 76.730469 484.527344 86.941406 479.535156 C 97.152344 474.542969 107.582031 470.011719 118.101562 465.738281 C 128.652344 461.535156 139.316406 457.621094 150.144531 454.226562 C 155.527344 452.453125 161.035156 450.988281 166.359375 449.199219 C 171.589844 447.359375 176.949219 444.863281 180.175781 440.082031 " fill-opacity="1" fill-rule="nonzero"/><path fill="#e4e4e7" d="M 222.410156 386.195312 C 226.316406 379 227.1875 370.914062 231.355469 363.335938 C 233.378906 359.609375 236.328125 356.027344 240.453125 353.84375 C 244.738281 351.625 249.886719 351.621094 254.277344 353.78125 C 256.4375 354.945312 258.417969 356.808594 259.429688 359.226562 C 260.496094 361.609375 260.554688 364.152344 260.277344 366.359375 C 259.976562 368.59375 259.417969 370.589844 258.945312 372.542969 C 258.472656 374.519531 257.960938 376.484375 257.429688 378.445312 C 255.363281 386.300781 253.136719 394.125 250.449219 401.847656 C 251.222656 393.707031 252.453125 385.667969 253.847656 377.664062 C 254.183594 375.660156 254.53125 373.660156 254.921875 371.667969 C 255.296875 369.65625 255.714844 367.703125 255.851562 365.894531 C 256.253906 362.230469 255.035156 359.410156 252.097656 357.945312 C 249.253906 356.433594 245.410156 356.359375 242.4375 357.8125 C 239.222656 359.246094 236.652344 362.078125 234.476562 365.230469 C 230.175781 371.558594 227.972656 380.023438 222.410156 386.195312 " fill-opacity="1" fill-rule="nonzero"/><path fill="#e4e4e7" d="M 417.996094 487.375 C 418.851562 486.949219 419.933594 486.980469 420.78125 487.480469 C 421.644531 487.941406 422.328125 488.699219 422.78125 489.574219 C 423.238281 490.4375 423.503906 491.445312 423.378906 492.460938 C 423.253906 493.46875 422.863281 494.402344 422.328125 495.242188 C 421.242188 496.929688 419.65625 498.160156 418.09375 499.269531 C 416.507812 500.367188 414.90625 501.386719 413.308594 502.449219 C 406.957031 506.695312 400.46875 510.738281 393.914062 514.6875 C 380.742188 522.46875 367.222656 529.664062 353.507812 536.445312 C 326.027344 549.941406 297.621094 561.371094 269.191406 572.542969 L 226.308594 588.640625 C 211.996094 593.945312 197.746094 599.414062 183.371094 604.558594 L 140.320312 620.167969 C 125.90625 625.210938 111.550781 630.40625 97.089844 635.316406 C 111.175781 629.410156 125.367188 623.789062 139.503906 618.015625 L 182.089844 601.175781 C 210.492188 589.984375 239.089844 579.261719 267.503906 568.164062 C 296.03125 557.371094 324.289062 545.925781 351.957031 533.195312 C 365.800781 526.84375 379.429688 520.035156 392.78125 512.699219 C 399.476562 509.070312 406.125 505.34375 412.652344 501.398438 C 415.839844 499.367188 419.507812 497.792969 421.742188 494.847656 C 422.851562 493.398438 423.332031 491.433594 422.464844 489.726562 C 421.789062 488.078125 419.878906 486.566406 417.996094 487.375 " fill-opacity="1" fill-rule="nonzero"/><g clip-path="url(#4b8925a9fb)"><path fill="#e4e4e7" d="M 101.371094 636.246094 C 92.792969 636.351562 84.257812 636.023438 75.734375 635.558594 C 71.46875 635.347656 67.214844 635.03125 62.964844 634.722656 C 58.707031 634.449219 54.464844 634.003906 50.214844 633.652344 L 51.710938 629.382812 C 59.378906 634.339844 67.664062 638.347656 76.328125 641.386719 C 80.667969 642.898438 85.101562 644.183594 89.617188 645.210938 C 94.125 646.28125 98.722656 647.023438 103.386719 647.667969 C 98.695312 648.121094 93.953125 648.003906 89.230469 647.566406 C 84.515625 647.089844 79.820312 646.234375 75.21875 644.988281 C 66.011719 642.507812 57.171875 638.539062 49.167969 633.28125 L 41.058594 627.957031 L 50.660156 629.015625 C 54.902344 629.480469 59.148438 629.851562 63.378906 630.398438 C 67.613281 630.90625 71.851562 631.410156 76.074219 632.019531 C 84.53125 633.191406 92.972656 634.5 101.371094 636.246094 " fill-opacity="1" fill-rule="nonzero"/></g><path fill="#e4e4e7" d="M 103.25 646.257812 C 122.414062 639.527344 141.652344 633.03125 160.730469 626.085938 C 179.882812 619.351562 198.953125 612.394531 217.976562 605.3125 C 255.996094 591.101562 293.929688 576.652344 331.457031 561.1875 C 369.117188 546.058594 406.453125 530.136719 443.589844 513.742188 L 457.519531 507.605469 C 462.171875 505.550781 466.914062 503.554688 471.710938 501.816406 C 481.296875 498.269531 491.078125 495.367188 500.902344 492.734375 C 510.742188 490.148438 520.625 487.8125 530.453125 485.296875 C 535.375 484.046875 540.273438 482.726562 545.152344 481.355469 C 547.59375 480.683594 550.019531 479.949219 552.253906 478.777344 C 554.460938 477.628906 556.511719 475.90625 557.441406 473.503906 C 556.625 475.949219 554.621094 477.816406 552.429688 479.089844 C 550.210938 480.386719 547.777344 481.246094 545.363281 482.035156 C 540.523438 483.589844 535.664062 485.074219 530.785156 486.496094 C 521.03125 489.359375 511.234375 492.035156 501.527344 494.949219 C 491.804688 497.820312 482.152344 500.878906 472.769531 504.589844 C 468.054688 506.414062 463.472656 508.453125 458.886719 510.601562 L 445.074219 517.039062 C 426.675781 525.664062 408.039062 533.78125 389.40625 541.878906 C 370.757812 549.953125 352.023438 557.828125 333.21875 565.539062 C 314.359375 573.101562 295.4375 580.519531 276.433594 587.710938 C 266.9375 591.332031 257.421875 594.894531 247.882812 598.394531 C 238.378906 601.976562 228.777344 605.308594 219.199219 608.699219 C 200.007812 615.371094 180.789062 621.960938 161.46875 628.25 C 142.128906 634.46875 122.738281 640.535156 103.25 646.257812 " fill-opacity="1" fill-rule="nonzero"/><path fill="#e4e4e7" d="M 515.550781 395.738281 C 525.207031 380.613281 534.382812 365.207031 542.683594 349.335938 C 551.09375 333.527344 558.824219 317.371094 565.746094 300.878906 C 572.617188 284.371094 578.980469 267.652344 584.457031 250.636719 C 589.953125 233.628906 594.644531 216.371094 598.511719 198.929688 L 598.898438 197.199219 L 600.679688 197.113281 C 608.464844 196.742188 616.378906 195.359375 624.582031 195.015625 L 626.902344 194.917969 L 626.960938 197.226562 C 627.359375 213.945312 626.898438 230.679688 625.597656 247.34375 L 624.464844 259.824219 L 623.023438 272.277344 L 621.175781 284.667969 L 619.027344 297.011719 C 615.941406 313.421875 612.160156 329.695312 607.492188 345.710938 C 602.777344 361.707031 597.449219 377.519531 591.246094 392.976562 C 596.542969 377.191406 601.421875 361.28125 605.453125 345.15625 C 609.542969 329.054688 613.058594 312.8125 615.695312 296.429688 L 617.539062 284.125 L 619.082031 271.785156 L 620.417969 259.425781 L 621.445312 247.035156 C 622.609375 230.5 622.933594 213.914062 622.410156 197.351562 L 624.785156 199.5625 C 616.992188 199.902344 609.105469 201.457031 600.890625 201.769531 L 603.0625 199.953125 C 599.027344 217.511719 594.15625 234.867188 588.492188 251.957031 C 582.8125 269.039062 576.414062 285.894531 569 302.292969 C 561.632812 318.710938 553.535156 334.792969 544.65625 350.417969 C 535.660156 365.980469 526.066406 381.191406 515.550781 395.738281 " fill-opacity="1" fill-rule="nonzero"/><g clip-path="url(#e2b1f4b0cb)"><path fill="#e4e4e7" d="M 600.6875 197.910156 C 599.039062 192.6875 597.570312 187.488281 595.96875 182.339844 L 593.582031 174.640625 L 591.09375 166.992188 L 589.484375 162.054688 L 594.257812 164.25 C 601.230469 167.457031 607.507812 172.132812 612.703125 177.714844 C 617.828125 183.351562 621.964844 189.925781 624.203125 197.09375 C 619.925781 190.957031 615.261719 185.359375 609.886719 180.542969 C 604.582031 175.671875 598.640625 171.601562 592.273438 168.355469 L 595.4375 165.613281 C 596.261719 168.222656 596.921875 170.886719 597.566406 173.542969 C 598.230469 176.199219 598.710938 178.894531 599.195312 181.585938 C 600.078125 186.984375 600.679688 192.429688 600.6875 197.910156 " fill-opacity="1" fill-rule="nonzero"/></g><path fill="#e4e4e7" d="M 598.488281 371.535156 C 602.359375 370.726562 606.285156 370.171875 610.226562 369.777344 C 614.167969 369.402344 618.136719 369.15625 622.109375 369.128906 C 630.046875 369.027344 638.011719 369.585938 645.878906 370.78125 L 650.851562 371.535156 L 647.019531 374.808594 C 644.917969 376.605469 642.441406 377.949219 639.761719 378.59375 C 638.433594 378.933594 637.0625 379.113281 635.679688 379.136719 C 634.191406 379.148438 633.210938 379.027344 632.035156 379.042969 C 627.457031 379.03125 622.789062 379.523438 618.136719 380.324219 C 615.800781 380.695312 613.460938 381.132812 611.128906 381.609375 C 608.773438 382.101562 606.410156 382.421875 604.367188 383.210938 C 602.300781 383.960938 600.550781 385.285156 599.527344 387.308594 C 598.484375 389.273438 598.125 391.714844 598.769531 394.050781 C 597.605469 391.921875 597.40625 389.214844 598.214844 386.761719 C 598.980469 384.289062 601.003906 382.125 603.335938 380.96875 C 605.671875 379.761719 608.058594 379.140625 610.339844 378.421875 C 612.65625 377.746094 614.996094 377.097656 617.367188 376.515625 C 622.113281 375.429688 626.988281 374.542969 632.023438 374.496094 C 634.742188 374.507812 636.5625 374.683594 638.597656 374.074219 C 640.570312 373.527344 642.460938 372.621094 644.019531 371.308594 L 645.160156 375.335938 C 637.496094 374.09375 629.773438 373.175781 621.996094 372.566406 C 618.105469 372.285156 614.203125 372.027344 610.285156 371.878906 C 606.371094 371.714844 602.441406 371.632812 598.488281 371.535156 " fill-opacity="1" fill-rule="nonzero"/><path fill="#e4e4e7" d="M 642.300781 370.625 C 647.546875 369.035156 652.960938 368.175781 658.40625 367.757812 C 663.894531 367.34375 669.257812 367.375 674.878906 367.941406 C 677.691406 368.339844 680.699219 369.050781 683.390625 370.746094 C 686.058594 372.496094 688.058594 375.050781 689.175781 377.792969 C 691.542969 383.363281 691.003906 389.117188 690.082031 394.429688 C 689.089844 389.0625 688.421875 383.636719 685.894531 379.433594 C 684.621094 377.363281 683.0625 375.585938 681.089844 374.554688 C 679.140625 373.457031 676.785156 372.878906 674.269531 372.597656 C 671.777344 372.238281 669.0625 372.109375 666.425781 371.914062 C 663.773438 371.679688 661.117188 371.59375 658.453125 371.410156 C 653.121094 371.136719 647.765625 370.96875 642.300781 370.625 " fill-opacity="1" fill-rule="nonzero"/><path fill="#e4e4e7" d="M 676.707031 373.640625 C 673.59375 374.117188 670.832031 374.855469 668.273438 375.9375 C 665.726562 377.023438 663.433594 378.460938 661.441406 380.195312 C 659.46875 381.945312 657.730469 384.023438 656.320312 386.402344 C 654.910156 388.796875 653.808594 391.429688 652.914062 394.457031 C 651.839844 391.464844 651.960938 388.0625 652.953125 384.941406 C 653.945312 381.808594 655.792969 378.875 658.347656 376.660156 C 660.886719 374.429688 664.039062 372.984375 667.269531 372.421875 C 670.496094 371.855469 673.882812 372.179688 676.707031 373.640625 " fill-opacity="1" fill-rule="nonzero"/><path fill="#e4e4e7" d="M 660.175781 393.71875 C 659.796875 390.753906 660.539062 387.703125 661.925781 384.984375 C 663.328125 382.269531 665.4375 379.875 668.027344 378.121094 C 670.609375 376.367188 673.617188 375.289062 676.660156 374.988281 C 679.691406 374.710938 682.804688 375.152344 685.417969 376.609375 C 682.492188 377.105469 679.886719 377.699219 677.4375 378.601562 C 674.988281 379.484375 672.726562 380.617188 670.660156 382.011719 C 668.597656 383.410156 666.703125 385.09375 664.980469 387.039062 C 663.234375 388.980469 661.714844 391.183594 660.175781 393.71875 " fill-opacity="1" fill-rule="nonzero"/><path fill="#e4e4e7" d="M 743.253906 412.648438 C 740.867188 414.847656 738.3125 416.878906 735.632812 418.738281 C 732.972656 420.625 730.15625 422.296875 727.285156 423.875 C 724.382812 425.382812 721.433594 426.847656 718.375 428.039062 C 715.320312 429.238281 712.226562 430.378906 709.042969 431.230469 L 710.730469 429.015625 L 710.851562 436.296875 L 709.199219 434.078125 C 712.074219 434.988281 715.644531 433.996094 719.167969 432.523438 C 722.808594 431.097656 726.496094 429.515625 730.203125 428.132812 L 741.320312 423.949219 C 744.96875 422.554688 748.488281 420.863281 751.515625 418.230469 C 749.28125 421.601562 745.804688 424.035156 742.335938 426.0625 C 738.796875 428.03125 735.261719 429.769531 731.691406 431.527344 C 728.125 433.316406 724.554688 434.933594 720.90625 436.65625 C 719.035156 437.46875 717.050781 438.25 714.855469 438.714844 C 712.679688 439.171875 710.199219 439.300781 707.824219 438.550781 L 706.167969 438.03125 L 706.171875 436.332031 L 706.183594 429.050781 L 706.1875 427.289062 L 707.871094 426.839844 C 710.914062 426.023438 713.96875 425.214844 716.96875 424.195312 C 719.953125 423.171875 722.960938 422.144531 725.890625 420.910156 C 728.847656 419.742188 731.742188 418.410156 734.640625 417.046875 C 737.527344 415.652344 740.394531 414.183594 743.253906 412.648438 " fill-opacity="1" fill-rule="nonzero"/><path fill="#e4e4e7" d="M 716.714844 424.996094 C 718.011719 425.085938 718.925781 425.476562 719.746094 425.933594 C 720.539062 426.410156 721.195312 427 721.71875 427.683594 C 722.238281 428.367188 722.632812 429.148438 722.882812 430.042969 C 723.109375 430.953125 723.242188 431.9375 722.980469 433.21875 C 721.675781 433.132812 720.761719 432.742188 719.941406 432.285156 C 719.148438 431.804688 718.5 431.21875 717.980469 430.53125 C 717.457031 429.84375 717.0625 429.0625 716.816406 428.167969 C 716.589844 427.253906 716.457031 426.273438 716.714844 424.996094 " fill-opacity="1" fill-rule="nonzero"/><path fill="#e4e4e7" d="M 730.027344 420.292969 C 731.179688 420.058594 731.980469 420.171875 732.699219 420.363281 C 733.40625 420.578125 733.972656 420.921875 734.429688 421.375 C 734.890625 421.828125 735.238281 422.402344 735.449219 423.101562 C 735.640625 423.820312 735.753906 424.625 735.515625 425.777344 C 734.359375 426.015625 733.554688 425.90625 732.832031 425.714844 C 732.132812 425.5 731.5625 425.15625 731.113281 424.699219 C 730.65625 424.238281 730.308594 423.667969 730.097656 422.96875 C 729.90625 422.246094 729.792969 421.445312 730.027344 420.292969 " fill-opacity="1" fill-rule="nonzero"/><path fill="#e4e4e7" d="M 407.320312 532.28125 C 409.402344 532.464844 411.183594 532.863281 412.945312 533.226562 C 414.691406 533.613281 416.363281 534.023438 418.039062 534.457031 C 419.710938 534.890625 421.375 535.351562 423.082031 535.863281 C 424.796875 536.402344 426.542969 536.929688 428.453125 537.789062 C 426.664062 538.894531 424.699219 539.359375 422.726562 539.542969 C 420.753906 539.695312 418.761719 539.507812 416.855469 539.003906 C 414.941406 538.503906 413.113281 537.699219 411.464844 536.601562 C 409.835938 535.476562 408.347656 534.113281 407.320312 532.28125 " fill-opacity="1" fill-rule="nonzero"/><path fill="#e4e4e7" d="M 469.203125 523.144531 C 463.738281 523.195312 458.332031 523.613281 453.042969 524.585938 C 450.394531 525.058594 447.78125 525.640625 445.207031 526.363281 C 442.628906 527.109375 440.074219 527.816406 438.203125 529.152344 C 434.449219 531.734375 433.875 537.066406 433.777344 542.351562 C 433.710938 545.023438 433.652344 547.625 434.078125 550.011719 C 434.484375 552.402344 435.40625 554.476562 436.945312 555.875 C 440.007812 558.824219 445.726562 559.085938 451.070312 560.023438 C 456.441406 560.941406 461.824219 561.769531 467.179688 562.773438 C 477.90625 564.691406 488.613281 566.773438 499.25 569.316406 C 488.328125 568.707031 477.476562 567.636719 466.648438 566.40625 C 461.230469 565.832031 455.832031 565.085938 450.425781 564.429688 C 447.71875 564.058594 445.074219 563.757812 442.203125 563.199219 C 439.390625 562.609375 436.257812 561.632812 433.746094 559.308594 C 431.25 556.984375 430.003906 553.730469 429.554688 550.773438 C 429.085938 547.777344 429.164062 544.898438 429.347656 542.140625 C 429.542969 539.386719 429.777344 536.5 430.667969 533.589844 C 431.480469 530.699219 433.421875 527.71875 436.21875 526.085938 C 438.964844 524.460938 441.828125 523.898438 444.511719 523.378906 C 447.25 522.882812 450 522.515625 452.757812 522.308594 C 458.28125 521.953125 463.820312 522.164062 469.203125 523.144531 " fill-opacity="1" fill-rule="nonzero"/><path fill="#e4e4e7" d="M 440.585938 517.613281 C 446.285156 516.730469 451.972656 516.304688 457.65625 516.046875 C 463.339844 515.757812 469.019531 515.746094 474.699219 515.785156 C 480.382812 515.910156 486.0625 516.097656 491.734375 516.558594 C 497.410156 516.988281 503.082031 517.585938 508.746094 518.652344 C 503.050781 519.542969 497.363281 519.96875 491.675781 520.226562 C 485.992188 520.511719 480.3125 520.527344 474.628906 520.480469 C 468.949219 520.347656 463.273438 520.164062 457.601562 519.699219 C 451.925781 519.269531 446.253906 518.671875 440.585938 517.613281 " fill-opacity="1" fill-rule="nonzero"/><path fill="#e4e4e7" d="M 488.671875 537.246094 C 489.941406 534.78125 491.492188 532.453125 493.261719 530.308594 C 495.023438 528.15625 496.921875 526.09375 499.117188 524.339844 C 501.292969 522.574219 503.773438 521.039062 506.679688 520.394531 C 509.601562 519.851562 512.746094 520.328125 515.382812 522.003906 C 518.054688 523.652344 519.800781 526.339844 521.003906 529.035156 C 522.195312 531.773438 522.949219 534.648438 523.285156 537.546875 C 523.636719 540.472656 523.648438 543.359375 523.5625 546.152344 C 523.457031 548.992188 523.230469 551.90625 522.589844 554.820312 C 521.90625 557.726562 520.792969 560.613281 519.09375 563.199219 C 517.386719 565.773438 515.019531 568.035156 512.109375 569.398438 C 509.207031 570.75 506.003906 571.128906 503.007812 570.746094 C 499.988281 570.402344 497.128906 569.347656 494.644531 567.757812 C 492.140625 566.203125 490.03125 564.027344 488.574219 561.527344 C 487.070312 559.050781 486.28125 556.253906 485.851562 553.480469 C 485.085938 547.898438 486.140625 542.183594 488.671875 537.246094 Z M 488.671875 537.246094 C 487.457031 539.742188 486.617188 542.414062 486.203125 545.152344 C 485.835938 547.890625 485.921875 550.691406 486.496094 553.367188 C 487.660156 558.722656 491.050781 563.496094 495.800781 565.722656 C 500.429688 568.085938 506.164062 568.203125 510.269531 565.808594 C 514.414062 563.46875 516.953125 558.726562 518.011719 553.78125 C 518.601562 551.277344 518.886719 548.640625 519.042969 545.9375 C 519.195312 543.1875 519.421875 540.515625 519.25 537.90625 C 519.109375 535.277344 518.78125 532.652344 517.984375 530.203125 C 517.191406 527.777344 515.984375 525.441406 514.019531 523.929688 C 512.125 522.394531 509.464844 521.660156 506.902344 521.859375 C 504.328125 522.167969 501.746094 523.285156 499.511719 524.867188 C 495.023438 528.046875 491.324219 532.378906 488.671875 537.246094 " fill-opacity="1" fill-rule="nonzero"/><path fill="#e4e4e7" d="M 495.054688 557.273438 C 493.945312 553.390625 493.597656 549.320312 493.726562 545.257812 C 493.835938 541.195312 494.515625 537.058594 496.351562 533.167969 C 498.113281 529.332031 501.835938 525.769531 506.449219 524.871094 C 507.550781 524.609375 508.746094 524.46875 510.015625 524.542969 C 511.273438 524.632812 512.695312 524.917969 513.898438 525.761719 C 515.101562 526.554688 516.074219 527.703125 516.644531 528.886719 C 517.210938 530.0625 517.59375 531.269531 517.761719 532.421875 C 518.363281 537.066406 517.476562 541.21875 516.375 545.230469 C 515.207031 549.226562 513.65625 553.027344 511.84375 556.722656 C 510.917969 558.53125 509.996094 560.425781 508.617188 562.085938 C 507.269531 563.746094 505.339844 565.039062 503.179688 565.234375 C 500.992188 565.449219 499.019531 564.207031 497.761719 562.652344 C 496.449219 561.09375 495.601562 559.207031 495.054688 557.273438 Z M 495.054688 557.273438 C 495.65625 559.1875 496.558594 561.042969 497.898438 562.53125 C 499.210938 564.03125 501.210938 564.933594 503.097656 564.585938 C 504.992188 564.238281 506.5 562.835938 507.484375 561.261719 C 508.484375 559.648438 509.050781 557.746094 509.675781 555.847656 C 510.828125 552.050781 511.761719 548.15625 512.449219 544.308594 C 512.8125 542.390625 513.058594 540.460938 513.214844 538.578125 C 513.382812 536.703125 513.433594 534.816406 513.125 533.164062 C 512.648438 529.636719 510.90625 528.398438 507.15625 528.859375 C 506.269531 528.933594 505.492188 529.234375 504.628906 529.40625 C 503.867188 529.785156 503 530.011719 502.304688 530.566406 C 500.769531 531.453125 499.503906 532.835938 498.390625 534.359375 C 496.21875 537.484375 494.90625 541.363281 494.382812 545.316406 C 494.101562 547.292969 494.039062 549.308594 494.113281 551.320312 C 494.257812 553.324219 494.542969 555.320312 495.054688 557.273438 " fill-opacity="1" fill-rule="nonzero"/><path fill="#e4e4e7" d="M 495.484375 539.648438 C 496.375 539.539062 497.152344 539.617188 497.945312 539.683594 C 498.707031 539.804688 499.464844 539.921875 500.175781 540.132812 C 501.605469 540.53125 502.941406 541.101562 504.195312 541.820312 L 508.953125 544.542969 L 503.734375 546.113281 L 500.296875 547.148438 C 499.0625 547.496094 497.808594 547.925781 496.179688 548.332031 C 496.355469 546.644531 497.21875 545.242188 498.308594 544.082031 C 499.421875 542.949219 500.835938 542.097656 502.371094 541.621094 L 501.910156 545.917969 C 500.644531 545.230469 499.453125 544.390625 498.363281 543.386719 C 497.808594 542.894531 497.308594 542.304688 496.808594 541.722656 C 496.335938 541.085938 495.859375 540.464844 495.484375 539.648438 " fill-opacity="1" fill-rule="nonzero"/><path fill="#e4e4e7" d="M 431.585938 542.882812 C 429.820312 544.148438 428.128906 545.058594 426.472656 545.984375 C 424.8125 546.875 423.191406 547.714844 421.5625 548.535156 L 421.785156 544.464844 C 423.363281 545.46875 424.917969 546.515625 426.484375 547.640625 C 428.042969 548.785156 429.621094 549.949219 431.195312 551.5 C 429.007812 551.835938 426.90625 551.539062 424.894531 550.992188 C 422.886719 550.425781 420.980469 549.546875 419.238281 548.410156 L 415.792969 546.15625 L 419.464844 544.335938 C 421.3125 543.417969 423.304688 542.785156 425.351562 542.492188 C 427.40625 542.230469 429.507812 542.230469 431.585938 542.882812 " fill-opacity="1" fill-rule="nonzero"/><path fill="#e4e4e7" d="M 431.527344 536.25 C 430.089844 535.238281 428.960938 534.238281 427.808594 533.320312 L 424.554688 530.609375 L 421.527344 528.085938 L 425.40625 526.683594 C 427.410156 525.957031 429.578125 525.683594 431.679688 525.9375 C 433.769531 526.21875 435.835938 526.945312 437.449219 528.449219 C 435.34375 529.0625 433.5625 529.421875 431.832031 529.851562 C 430.113281 530.253906 428.476562 530.648438 426.839844 531.105469 L 427.691406 527.175781 C 428.890625 528.359375 429.886719 529.753906 430.574219 531.289062 C 431.230469 532.839844 431.675781 534.488281 431.527344 536.25 " fill-opacity="1" fill-rule="nonzero"/></svg>