<svg xmlns="http://www.w3.org/2000/svg" xmlns:xlink="http://www.w3.org/1999/xlink" width="1080" zoomAndPan="magnify" viewBox="0 0 810 809.999993" height="1080" preserveAspectRatio="xMidYMid meet" version="1.0"><defs><clipPath id="d15b736d90"><path d="M 414.480469 477 L 740.433594 477 L 740.433594 687.992188 L 414.480469 687.992188 Z M 414.480469 477 " clip-rule="nonzero"/></clipPath></defs><path fill="#e4e4e7" d="M 403.027344 672.167969 C 397.664062 666.136719 391.207031 661.191406 384.558594 656.664062 C 342.03125 629.894531 296.484375 608.097656 249.621094 590.066406 C 185.039062 564.992188 99.28125 538.214844 85.464844 460.152344 C 83.753906 443.140625 87.574219 425.976562 93.078125 409.953125 C 85.574219 414.753906 79.636719 421.957031 76.253906 430.203125 C 69.496094 446.347656 72.875 464.875 78.398438 480.902344 C 111.792969 566.328125 212.414062 585.105469 287.769531 618.550781 C 321.714844 632.925781 353.679688 651.335938 384.570312 671.332031 C 393.421875 676.550781 403.007812 680.394531 412.644531 683.882812 C 409.757812 679.75 406.402344 675.921875 403.027344 672.167969 " fill-opacity="1" fill-rule="nonzero"/><path fill="#e4e4e7" d="M 137.625 500.195312 C 137.609375 500.085938 137.59375 499.972656 137.578125 499.863281 C 137.59375 499.972656 137.609375 500.085938 137.625 500.195312 " fill-opacity="1" fill-rule="nonzero"/><path fill="#e4e4e7" d="M 184.847656 499.648438 C 173.355469 493.6875 167.1875 481.691406 157.335938 473.75 C 157.429688 473.824219 157.523438 473.902344 157.617188 473.972656 C 149.492188 465.191406 139.261719 473.535156 137.679688 483.148438 C 136.09375 490.585938 137.414062 498.160156 138.285156 505.582031 C 142.761719 499.011719 144.878906 491.152344 149.128906 484.449219 C 159.605469 491.886719 171.207031 501.28125 184.847656 499.648438 " fill-opacity="1" fill-rule="nonzero"/><path fill="#e4e4e7" d="M 181.976562 532.394531 C 182.980469 536.453125 185.886719 541.828125 190.78125 541.191406 C 191.488281 541.019531 191.832031 540.996094 191.0625 540.523438 C 187.042969 536.660156 190.785156 528.394531 190.921875 523.40625 C 191.292969 520.613281 191.402344 517.78125 191.484375 514.96875 C 191.613281 510.675781 191.578125 506.355469 191.511719 502.070312 C 184.132812 509.964844 179.308594 521.574219 181.976562 532.394531 " fill-opacity="1" fill-rule="nonzero"/><path fill="#e4e4e7" d="M 333.226562 582.804688 C 300.644531 574.460938 266.015625 576.148438 233.902344 565.285156 C 220.289062 560.355469 206.117188 555.984375 194.140625 547.636719 C 204.820312 577.453125 242.371094 579.589844 269.125 584.183594 C 283.003906 585.890625 296.894531 588.828125 310.929688 588.265625 C 317.878906 588.128906 324.636719 586.472656 331.441406 585.28125 C 333.445312 585.058594 335.300781 584.058594 336.429688 582.378906 C 335.402344 582.679688 334.316406 582.953125 333.226562 582.804688 " fill-opacity="1" fill-rule="nonzero"/><path fill="#e4e4e7" d="M 422.703125 547.515625 C 415.164062 550.597656 408.554688 542.640625 401.554688 540.800781 C 398.882812 539.859375 396.128906 539.101562 393.351562 538.550781 C 383.246094 536.195312 372.722656 537.917969 362.589844 536.738281 C 362.585938 536.457031 362.761719 536.25 362.863281 536 C 364.425781 536.488281 363.320312 535.648438 362.945312 534.8125 C 361.472656 528.253906 356.320312 542.949219 355.90625 544.617188 C 351.03125 562.464844 350.488281 581.324219 353.269531 599.566406 C 360.367188 588.878906 363.6875 575.902344 363.84375 563.144531 C 363.910156 555.476562 362.277344 547.921875 362.324219 540.261719 C 371.394531 547.988281 383.34375 552.414062 395.136719 553.589844 C 404.019531 553.632812 418.078125 557.699219 422.703125 547.515625 " fill-opacity="1" fill-rule="nonzero"/><path fill="#e4e4e7" d="M 429.125 549.582031 C 428.046875 547.164062 426.722656 544.777344 425.0625 542.726562 C 424.851562 546.257812 424.675781 549.789062 424.378906 553.316406 C 423.851562 560.539062 422.65625 567.746094 422.925781 575 C 423.371094 584.605469 425.835938 594.6875 432.34375 602.03125 C 434.132812 584.558594 436.679688 566.128906 429.125 549.582031 " fill-opacity="1" fill-rule="nonzero"/><path fill="#e4e4e7" d="M 88.894531 404.800781 C 93.59375 401.367188 97.523438 396.890625 100.335938 391.792969 C 101.03125 393.429688 101.914062 394.96875 103.082031 396.320312 C 97.929688 406.929688 94.601562 421.65625 104.242188 430.75 C 91.585938 452.589844 106.582031 495.296875 129.109375 505.882812 C 132.21875 507.25 135.582031 508.148438 139.003906 507.683594 C 137.761719 506.996094 136.542969 506.195312 135.417969 505.308594 C 120.027344 492.03125 108.644531 452.3125 105.785156 432.101562 C 105.785156 428.351562 105.675781 423.929688 106.363281 419.992188 C 108.035156 412.535156 110.878906 405.285156 110.941406 397.539062 C 110.714844 392.695312 112.9375 385.777344 107.597656 383.007812 C 108.296875 385.792969 107.5 388.5 105.835938 390.765625 C 107.21875 382.375 109.191406 373.847656 107.753906 365.316406 C 104.945312 367.914062 102.527344 371.066406 100.917969 374.554688 C 100.035156 377.988281 97.382812 380.101562 95.308594 382.847656 C 90.523438 389.015625 88.621094 397.097656 88.894531 404.800781 " fill-opacity="1" fill-rule="nonzero"/><path fill="#e4e4e7" d="M 109.152344 371.007812 C 115.226562 359.335938 120.214844 347.066406 124.320312 334.570312 C 141.820312 278.585938 177.5625 229.484375 221.101562 190.726562 C 237.5 176.074219 257.25 166.335938 276.667969 156.390625 C 280.667969 154.347656 284.738281 152.390625 288.746094 150.386719 C 283.785156 149.367188 278.625 149.269531 273.59375 149.828125 C 206.472656 159.242188 101.46875 303.777344 109.152344 371.007812 " fill-opacity="1" fill-rule="nonzero"/><path fill="#e4e4e7" d="M 322.007812 145.8125 C 389.398438 154.292969 436.925781 215.625 471.359375 269.203125 C 484.019531 289.769531 489.671875 315.203125 508.320312 331.605469 C 504.328125 330.949219 511.980469 335.320312 513.199219 335.804688 C 523.355469 340.761719 537.464844 340.433594 545.09375 331.214844 C 545.378906 331.875 545.667969 332.566406 545.992188 333.203125 C 546.425781 331.5 546.675781 329.757812 546.820312 328.007812 C 546.875 327.679688 547.414062 326.328125 546.910156 326.648438 C 549.214844 283.703125 508.851562 233.882812 482.464844 202.03125 C 452.496094 166.988281 415.832031 131.796875 368.316406 125.019531 C 352.65625 122.085938 336.28125 124.539062 321.789062 131.019531 C 333.207031 133.878906 344.964844 135.226562 356.667969 136.390625 C 409.710938 138.597656 450.277344 178.933594 482.480469 217.304688 C 503.414062 242.535156 521.585938 270.445312 533.085938 301.269531 C 536.734375 310.125 540.515625 318.925781 543.773438 327.9375 C 538.074219 329.453125 532.105469 329.105469 526.296875 329.867188 C 520.511719 330.554688 514.738281 331.621094 508.898438 331.613281 C 508.644531 330.519531 508.378906 329.429688 508.105469 328.339844 C 508.382812 329.058594 508.679688 329.789062 509.019531 330.46875 C 510.125 328.496094 511.070312 326.40625 511.617188 324.210938 C 512.328125 321.585938 512.199219 318.792969 511.425781 316.199219 C 510.949219 314.589844 510.230469 313.015625 509.246094 311.660156 C 507.398438 315.367188 506.203125 319.617188 506.90625 323.773438 C 486.601562 266.777344 443.179688 206.820312 396.695312 168.160156 C 368.632812 146.738281 328.796875 122.332031 293.730469 141.363281 C 303.15625 142.757812 312.609375 144.175781 322.007812 145.8125 " fill-opacity="1" fill-rule="nonzero"/><path fill="#e4e4e7" d="M 509.828125 310.847656 C 518.074219 312.882812 527.023438 313.753906 534.828125 309.726562 C 527.402344 304.511719 517.09375 305.089844 510.027344 310.667969 C 510.039062 310.660156 510.046875 310.652344 510.058594 310.644531 C 509.980469 310.710938 509.886719 310.773438 509.828125 310.847656 " fill-opacity="1" fill-rule="nonzero"/><path fill="#e4e4e7" d="M 413.828125 136.503906 C 539.832031 158.621094 638.074219 261.890625 656.929688 387.984375 C 659.289062 402.992188 661.292969 418.128906 666.320312 432.542969 C 667.261719 435.363281 668.246094 438.191406 669.433594 440.90625 C 672.441406 428.355469 672.644531 415.132812 670.660156 402.40625 C 650.15625 279.355469 581.800781 184 462.578125 140.824219 C 448.765625 135.863281 434.570312 130.75 419.699219 130.925781 C 413.40625 130.949219 407.007812 131.714844 401.085938 133.921875 C 405.300781 134.84375 409.597656 135.582031 413.828125 136.503906 " fill-opacity="1" fill-rule="nonzero"/><path fill="#e4e4e7" d="M 572.824219 238.734375 C 586.316406 257.820312 594.519531 280.148438 609.304688 298.40625 C 609.617188 277.917969 599.421875 259.398438 588.078125 243.007812 C 576.355469 225.742188 562.5 208.066406 542.183594 200.847656 C 553.089844 212.882812 563.160156 225.683594 572.824219 238.734375 " fill-opacity="1" fill-rule="nonzero"/><path fill="#e4e4e7" d="M 662.132812 474.757812 C 662.09375 474.832031 662.046875 474.898438 662 474.972656 C 662.046875 474.898438 662.09375 474.832031 662.132812 474.757812 " fill-opacity="1" fill-rule="nonzero"/><path fill="#e4e4e7" d="M 670.902344 445.828125 C 671.546875 440.722656 662.988281 453.242188 662.722656 454.902344 C 659.074219 462.652344 659.859375 471.429688 658.402344 479.679688 C 655.824219 496.132812 654.035156 513.953125 662.796875 528.96875 C 662.78125 528.941406 662.769531 528.921875 662.761719 528.902344 C 663.109375 529.996094 664.890625 529.769531 664.96875 528.65625 C 664.972656 528.65625 664.976562 528.65625 664.988281 528.660156 C 668.332031 511.394531 665.605469 493.835938 660.121094 477.308594 C 660.851562 476.640625 661.457031 475.859375 661.96875 475.023438 C 661.945312 475.054688 661.929688 475.085938 661.910156 475.117188 C 662.378906 474.382812 662.769531 473.621094 663.1875 472.859375 C 663.175781 472.875 663.167969 472.890625 663.15625 472.90625 C 668.199219 465.210938 671.121094 456.195312 670.921875 446.953125 C 674.925781 449.113281 679.609375 449.203125 683.890625 447.917969 C 680.699219 444.203125 675.121094 443.691406 670.902344 445.828125 " fill-opacity="1" fill-rule="nonzero"/><path fill="#e4e4e7" d="M 691.589844 486.289062 C 691.589844 486.289062 691.589844 486.289062 691.589844 486.285156 C 691.589844 486.289062 691.589844 486.289062 691.589844 486.289062 Z M 683.511719 448.488281 C 679.984375 457.355469 675.429688 465.964844 674.859375 475.703125 C 670.597656 475.316406 666.25 475.601562 662.300781 477.367188 C 665.90625 480.136719 671.421875 480.714844 674.734375 477.1875 C 674.765625 479.144531 673.964844 481.566406 676.070312 478.816406 C 676.640625 486.433594 675.410156 494.007812 674.941406 501.605469 C 674.5625 510.324219 675.507812 519.300781 678.859375 527.410156 C 686.851562 512.246094 686.035156 492.683594 676.378906 478.476562 C 679.296875 475.121094 681.9375 471.523438 683.929688 467.550781 C 683.875 474.585938 685.972656 482.414062 691.535156 487.066406 C 692.082031 487.421875 692.839844 486.859375 692.40625 486.269531 C 692.566406 476.085938 692.390625 465.285156 686.167969 456.671875 C 686.035156 453.773438 685.308594 450.816406 683.511719 448.488281 " fill-opacity="1" fill-rule="nonzero"/><g clip-path="url(#d15b736d90)"><path fill="#e4e4e7" d="M 740.242188 569.792969 C 738.457031 556.859375 729.871094 546.425781 724.332031 534.96875 C 714.453125 515.976562 706.707031 495.890625 695.15625 477.785156 C 692.933594 496.214844 702.101562 513.285156 711.011719 528.738281 C 713.792969 533.761719 716.558594 538.785156 719.261719 543.847656 C 725.003906 554.929688 734.585938 563.875 738.707031 575.796875 C 738.648438 575.859375 738.589844 575.921875 738.539062 575.992188 C 738.410156 575.945312 737.726562 575.714844 737.996094 575.921875 C 737.992188 575.917969 737.992188 575.917969 737.992188 575.917969 C 738.101562 576.027344 738.195312 576.152344 738.289062 576.277344 C 723.191406 592.941406 709.371094 611.230469 690.828125 624.296875 C 620.769531 670.671875 533.050781 681.257812 450.714844 679.75 C 441.027344 679.703125 431.335938 680.03125 421.652344 680.292969 C 419.136719 680.339844 412.367188 679.714844 416.015625 681.382812 C 429.5 686.402344 444.09375 688.25 458.457031 687.964844 C 534.679688 687.546875 613.347656 678.304688 681.460938 641.867188 C 706.375 627.308594 735.921875 608.285156 738.769531 576.851562 C 741.121094 578.789062 740.3125 570.917969 740.242188 569.792969 " fill-opacity="1" fill-rule="nonzero"/></g><path fill="#e4e4e7" d="M 515.945312 589.761719 C 493.574219 594.3125 470.769531 596.132812 447.980469 596.726562 C 443.84375 596.886719 439.667969 596.632812 435.546875 597.058594 C 441.464844 599.347656 447.941406 600 454.210938 600.765625 C 481.222656 603.015625 508.191406 597.359375 534.664062 592.625 C 566.871094 586.574219 598.867188 577.875 628.488281 563.640625 C 636.386719 559.453125 643.671875 554.027344 649.679688 547.390625 C 652.214844 544.5625 654.53125 541.503906 656.457031 538.246094 C 643.171875 543.441406 630.15625 549.367188 617.738281 556.40625 C 586.21875 573.835938 551.117188 583.089844 515.945312 589.761719 " fill-opacity="1" fill-rule="nonzero"/><path fill="#e4e4e7" d="M 374.175781 608.9375 C 388.03125 613.628906 404.707031 615.179688 417.148438 606.09375 C 401.5625 602.738281 385.550781 602.5 369.734375 604.257812 C 368.039062 604.582031 359.851562 604.539062 364.730469 605.839844 C 364.683594 605.824219 364.636719 605.808594 364.59375 605.792969 C 367.746094 606.949219 370.964844 607.949219 374.175781 608.9375 " fill-opacity="1" fill-rule="nonzero"/><path fill="#e4e4e7" d="M 170.292969 543.804688 C 159.960938 537.226562 149.300781 531.265625 137.976562 526.546875 C 135.96875 525.652344 133.957031 524.652344 131.917969 523.867188 C 135.984375 530.410156 141.058594 536.382812 147.003906 541.304688 C 153.871094 546.835938 162.898438 550.484375 171.816406 549.480469 C 174.0625 549.179688 176.367188 548.480469 178.195312 547.109375 C 175.40625 546.488281 172.78125 545.203125 170.292969 543.804688 " fill-opacity="1" fill-rule="nonzero"/></svg>