<svg xmlns="http://www.w3.org/2000/svg" xmlns:xlink="http://www.w3.org/1999/xlink" width="500" zoomAndPan="magnify" viewBox="0 0 375 374.999991" height="500" preserveAspectRatio="xMidYMid meet" version="1.0"><defs><g/></defs><g fill="#a78bfa" fill-opacity="1"><g transform="translate(9.611423, 347.032073)"><g><path d="M 150.5625 0 L 8.625 0 C 8.625 -17.257812 11.179688 -35.316406 16.296875 -54.171875 C 21.410156 -73.035156 28.039062 -91.738281 36.1875 -110.28125 C 44.34375 -128.820312 52.976562 -146.242188 62.09375 -162.546875 C 71.207031 -178.847656 79.757812 -193.070312 87.75 -205.21875 C 93.175781 -213.53125 99.085938 -221.84375 105.484375 -230.15625 C 111.878906 -238.46875 118.113281 -246.457031 124.1875 -254.125 C 118.113281 -274.257812 112.195312 -289.441406 106.4375 -299.671875 C 100.6875 -309.898438 92.378906 -315.015625 81.515625 -315.015625 L 81.515625 -327.484375 C 105.804688 -327.484375 127.140625 -324.285156 145.515625 -317.890625 C 163.898438 -311.503906 179.722656 -303.035156 192.984375 -292.484375 C 206.253906 -281.929688 217.203125 -270.101562 225.828125 -257 C 234.460938 -243.894531 241.019531 -230.628906 245.5 -217.203125 C 255.726562 -186.515625 264.195312 -157.265625 270.90625 -129.453125 C 277.625 -101.648438 285.773438 -76.5625 295.359375 -54.1875 C 301.429688 -40.4375 309.660156 -32.84375 320.046875 -31.40625 C 330.441406 -29.96875 339.472656 -33.242188 347.140625 -41.234375 L 355.296875 -32.609375 C 345.703125 -19.179688 333.953125 -9.828125 320.046875 -4.546875 C 306.148438 0.722656 293.128906 3.359375 280.984375 3.359375 C 263.398438 3.359375 247.492188 -0.953125 233.265625 -9.578125 C 219.046875 -18.210938 206.976562 -29.484375 197.0625 -43.390625 C 187.15625 -57.296875 179.484375 -72.082031 174.046875 -87.75 L 102.609375 -87.75 C 108.046875 -70.488281 115 -54.1875 123.46875 -38.84375 C 131.9375 -23.5 140.96875 -10.550781 150.5625 0 Z M 170.21875 -99.25 C 163.1875 -121.3125 156.234375 -144.804688 149.359375 -169.734375 C 142.484375 -194.671875 135.53125 -218.328125 128.5 -240.703125 C 125.625 -236.546875 122.75 -232.546875 119.875 -228.703125 C 117 -224.867188 114.117188 -220.71875 111.234375 -216.25 C 100.367188 -199.945312 94.457031 -181.484375 93.5 -160.859375 C 92.539062 -140.242188 94.617188 -119.707031 99.734375 -99.25 Z M 170.21875 -99.25 "/></g></g></g></svg>