<svg xmlns="http://www.w3.org/2000/svg" xmlns:xlink="http://www.w3.org/1999/xlink" width="500" zoomAndPan="magnify" viewBox="0 0 375 374.999991" height="500" preserveAspectRatio="xMidYMid meet" version="1.0"><defs><g/></defs><g fill="#18181b" fill-opacity="1"><g transform="translate(98.395632, 273.801229)"><g><path d="M 83.140625 0 L 4.765625 0 C 4.765625 -9.53125 6.175781 -19.503906 9 -29.921875 C 11.820312 -40.335938 15.484375 -50.660156 19.984375 -60.890625 C 24.484375 -71.128906 29.25 -80.75 34.28125 -89.75 C 39.3125 -98.757812 44.035156 -106.613281 48.453125 -113.3125 C 51.453125 -117.90625 54.71875 -122.492188 58.25 -127.078125 C 61.78125 -131.671875 65.222656 -136.085938 68.578125 -140.328125 C 65.222656 -151.441406 61.957031 -159.820312 58.78125 -165.46875 C 55.601562 -171.125 51.015625 -173.953125 45.015625 -173.953125 L 45.015625 -180.828125 C 58.421875 -180.828125 70.195312 -179.0625 80.34375 -175.53125 C 90.5 -172.007812 99.238281 -167.332031 106.5625 -161.5 C 113.894531 -155.675781 119.941406 -149.144531 124.703125 -141.90625 C 129.472656 -134.675781 133.09375 -127.351562 135.5625 -119.9375 C 141.207031 -102.988281 145.882812 -86.835938 149.59375 -71.484375 C 153.300781 -56.128906 157.800781 -42.273438 163.09375 -29.921875 C 166.445312 -22.328125 170.992188 -18.132812 176.734375 -17.34375 C 182.472656 -16.550781 187.457031 -18.359375 191.6875 -22.765625 L 196.1875 -18 C 190.894531 -10.59375 184.410156 -5.429688 176.734375 -2.515625 C 169.054688 0.398438 161.863281 1.859375 155.15625 1.859375 C 145.445312 1.859375 136.664062 -0.519531 128.8125 -5.28125 C 120.957031 -10.050781 114.289062 -16.273438 108.8125 -23.953125 C 103.34375 -31.640625 99.109375 -39.804688 96.109375 -48.453125 L 56.65625 -48.453125 C 59.65625 -38.921875 63.492188 -29.914062 68.171875 -21.4375 C 72.847656 -12.96875 77.835938 -5.820312 83.140625 0 Z M 93.984375 -54.8125 C 90.109375 -66.988281 86.269531 -79.957031 82.46875 -93.71875 C 78.675781 -107.488281 74.835938 -120.550781 70.953125 -132.90625 C 69.367188 -130.613281 67.78125 -128.40625 66.1875 -126.28125 C 64.601562 -124.164062 63.015625 -121.875 61.421875 -119.40625 C 55.421875 -110.40625 52.15625 -100.210938 51.625 -88.828125 C 51.09375 -77.441406 52.242188 -66.101562 55.078125 -54.8125 Z M 93.984375 -54.8125 "/></g></g></g></svg>