<svg xmlns="http://www.w3.org/2000/svg" xmlns:xlink="http://www.w3.org/1999/xlink" width="500" zoomAndPan="magnify" viewBox="0 0 375 374.999991" height="500" preserveAspectRatio="xMidYMid meet" version="1.0"><defs><g/></defs><g fill="#18181b" fill-opacity="1"><g transform="translate(4.472275, 348.609865)"><g><path d="M 154.609375 0 L 8.859375 0 C 8.859375 -17.726562 11.484375 -36.273438 16.734375 -55.640625 C 21.992188 -75.003906 28.804688 -94.203125 37.171875 -113.234375 C 45.546875 -132.273438 54.410156 -150.164062 63.765625 -166.90625 C 73.117188 -183.65625 81.898438 -198.265625 90.109375 -210.734375 C 95.679688 -219.265625 101.75 -227.796875 108.3125 -236.328125 C 114.882812 -244.867188 121.289062 -253.078125 127.53125 -260.953125 C 121.289062 -281.640625 115.210938 -297.234375 109.296875 -307.734375 C 103.390625 -318.234375 94.859375 -323.484375 83.703125 -323.484375 L 83.703125 -336.296875 C 108.648438 -336.296875 130.5625 -333.007812 149.4375 -326.4375 C 168.3125 -319.875 184.554688 -311.175781 198.171875 -300.34375 C 211.796875 -289.507812 223.039062 -277.363281 231.90625 -263.90625 C 240.769531 -250.445312 247.5 -236.828125 252.09375 -223.046875 C 262.601562 -191.535156 271.300781 -161.5 278.1875 -132.9375 C 285.082031 -104.382812 293.453125 -78.617188 303.296875 -55.640625 C 309.535156 -41.523438 317.988281 -33.726562 328.65625 -32.25 C 339.320312 -30.769531 348.597656 -34.132812 356.484375 -42.34375 L 364.84375 -33.484375 C 355 -19.691406 342.9375 -10.085938 328.65625 -4.671875 C 314.375 0.742188 301 3.453125 288.53125 3.453125 C 270.476562 3.453125 254.144531 -0.976562 239.53125 -9.84375 C 224.925781 -18.707031 212.535156 -30.28125 202.359375 -44.5625 C 192.191406 -58.84375 184.316406 -74.023438 178.734375 -90.109375 L 105.375 -90.109375 C 110.945312 -72.378906 118.082031 -55.632812 126.78125 -39.875 C 135.476562 -24.125 144.753906 -10.832031 154.609375 0 Z M 174.796875 -101.921875 C 167.566406 -124.566406 160.421875 -148.691406 153.359375 -174.296875 C 146.304688 -199.898438 139.171875 -224.191406 131.953125 -247.171875 C 129.003906 -242.898438 126.050781 -238.796875 123.09375 -234.859375 C 120.132812 -230.921875 117.179688 -226.65625 114.234375 -222.0625 C 103.066406 -205.320312 96.988281 -186.363281 96 -165.1875 C 95.019531 -144.019531 97.15625 -122.929688 102.40625 -101.921875 Z M 174.796875 -101.921875 "/></g></g></g></svg>