<svg xmlns="http://www.w3.org/2000/svg" xmlns:xlink="http://www.w3.org/1999/xlink" width="500" zoomAndPan="magnify" viewBox="0 0 375 374.999991" height="500" preserveAspectRatio="xMidYMid meet" version="1.0"><defs><g/></defs><g fill="#ffffff" fill-opacity="1"><g transform="translate(81.636061, 265.022797)"><g><path d="M 98.765625 0 L 5.65625 0 C 5.65625 -11.320312 7.332031 -23.171875 10.6875 -35.546875 C 14.050781 -47.921875 18.40625 -60.1875 23.75 -72.34375 C 29.09375 -84.507812 34.753906 -95.9375 40.734375 -106.625 C 46.710938 -117.320312 52.320312 -126.65625 57.5625 -134.625 C 61.125 -140.082031 65.003906 -145.535156 69.203125 -150.984375 C 73.398438 -156.441406 77.488281 -161.6875 81.46875 -166.71875 C 77.488281 -179.925781 73.609375 -189.882812 69.828125 -196.59375 C 66.054688 -203.3125 60.601562 -206.671875 53.46875 -206.671875 L 53.46875 -214.84375 C 69.40625 -214.84375 83.40625 -212.742188 95.46875 -208.546875 C 107.53125 -204.359375 117.910156 -198.800781 126.609375 -191.875 C 135.316406 -184.957031 142.5 -177.195312 148.15625 -168.59375 C 153.820312 -160 158.125 -151.300781 161.0625 -142.5 C 167.769531 -122.363281 173.320312 -103.171875 177.71875 -84.921875 C 182.125 -66.679688 187.472656 -50.222656 193.765625 -35.546875 C 197.753906 -26.523438 203.15625 -21.539062 209.96875 -20.59375 C 216.78125 -19.65625 222.707031 -21.804688 227.75 -27.046875 L 233.09375 -21.390625 C 226.800781 -12.578125 219.09375 -6.441406 209.96875 -2.984375 C 200.84375 0.472656 192.296875 2.203125 184.328125 2.203125 C 172.796875 2.203125 162.363281 -0.625 153.03125 -6.28125 C 143.695312 -11.945312 135.78125 -19.34375 129.28125 -28.46875 C 122.78125 -37.59375 117.75 -47.289062 114.1875 -57.5625 L 67.3125 -57.5625 C 70.875 -46.238281 75.429688 -35.539062 80.984375 -25.46875 C 86.546875 -15.40625 92.472656 -6.914062 98.765625 0 Z M 111.671875 -65.109375 C 107.054688 -79.578125 102.492188 -94.988281 97.984375 -111.34375 C 93.472656 -127.707031 88.910156 -143.226562 84.296875 -157.90625 C 82.410156 -155.1875 80.523438 -152.566406 78.640625 -150.046875 C 76.753906 -147.523438 74.867188 -144.800781 72.984375 -141.875 C 65.847656 -131.175781 61.960938 -119.0625 61.328125 -105.53125 C 60.703125 -92.007812 62.066406 -78.535156 65.421875 -65.109375 Z M 111.671875 -65.109375 "/></g></g></g></svg>