<svg xmlns="http://www.w3.org/2000/svg" xmlns:xlink="http://www.w3.org/1999/xlink" width="1080" zoomAndPan="magnify" viewBox="0 0 810 809.999993" height="1080" preserveAspectRatio="xMidYMid meet" version="1.0"><defs><clipPath id="89ebc435b9"><path d="M 41.023438 240.757812 L 769 240.757812 L 769 569.257812 L 41.023438 569.257812 Z M 41.023438 240.757812 " clip-rule="nonzero"/></clipPath></defs><g clip-path="url(#89ebc435b9)"><path fill="#e4e4e7" d="M 385.511719 569.128906 L 342.433594 568.851562 L 337.359375 544.058594 C 333.78125 542.972656 330.214844 541.644531 326.738281 540.105469 L 306.707031 555.585938 L 273.886719 527.683594 L 285.945312 505.414062 C 283.855469 502.214844 281.96875 498.910156 280.324219 495.574219 L 255.046875 494.554688 L 247.839844 452.085938 L 271.394531 442.773438 C 271.851562 438.984375 272.527344 435.238281 273.414062 431.628906 L 254.699219 414.597656 L 254.957031 414.160156 L 276.480469 377.433594 L 298.851562 384.890625 C 299.429688 383.8125 300.980469 381.089844 303.402344 378.101562 C 305.875 375.050781 308.886719 372.203125 309.964844 371.210938 L 288.949219 340.386719 L 289.125 340.054688 C 291.066406 336.320312 292.59375 332.410156 293.660156 328.433594 L 293.757812 328.074219 L 308.980469 324.515625 L 308.441406 299.175781 L 293.070312 296.269531 L 292.957031 295.910156 C 291.703125 291.945312 290.015625 288.105469 287.9375 284.503906 L 287.75 284.179688 L 296.007812 270.882812 L 277.710938 253.347656 L 264.78125 262.164062 L 264.449219 261.988281 C 260.714844 260.046875 256.804688 258.519531 252.828125 257.449219 L 252.46875 257.351562 L 248.910156 242.132812 L 223.570312 242.671875 L 220.664062 258.039062 L 220.308594 258.152344 C 216.339844 259.40625 212.5 261.097656 208.894531 263.171875 L 208.570312 263.359375 L 195.277344 255.101562 L 177.742188 273.402344 L 186.554688 286.328125 L 186.382812 286.660156 C 184.4375 290.394531 182.910156 294.304688 181.84375 298.28125 L 181.746094 298.644531 L 166.523438 302.203125 L 167.0625 327.539062 L 182.433594 330.449219 L 182.546875 330.804688 C 183.800781 334.773438 185.492188 338.613281 187.566406 342.214844 L 187.753906 342.539062 L 179.496094 355.835938 L 197.792969 373.371094 L 210.722656 364.558594 L 211.054688 364.730469 C 212.960938 365.722656 214.914062 366.605469 216.894531 367.371094 L 233.042969 347.964844 C 224.761719 346.851562 217.234375 342.855469 211.632812 336.542969 C 205.4375 329.5625 202.335938 320.59375 202.890625 311.28125 C 203.445312 301.96875 207.59375 293.429688 214.570312 287.238281 C 221.546875 281.046875 230.515625 277.941406 239.828125 278.496094 C 249.140625 279.050781 257.679688 283.199219 263.871094 290.175781 C 270.0625 297.152344 273.167969 306.125 272.613281 315.4375 C 272.429688 318.507812 271.851562 321.53125 270.886719 324.425781 L 293.925781 357.773438 L 280.449219 373.222656 L 266.910156 364.8125 C 263.429688 366.789062 259.738281 368.414062 255.929688 369.644531 L 252.972656 385.277344 L 225.605469 385.859375 L 221.988281 370.375 C 220.40625 369.941406 218.835938 369.433594 217.285156 368.859375 L 190.519531 401.023438 L 190.136719 400.925781 C 188.941406 400.628906 185.335938 399.859375 184.105469 399.640625 C 183.410156 399.515625 182.699219 399.4375 182.007812 399.363281 C 181.714844 399.332031 181.417969 399.300781 181.125 399.265625 L 180.753906 399.21875 L 175.523438 385.921875 L 152.882812 389.730469 L 152.289062 403.992188 L 151.953125 404.15625 C 149.933594 405.136719 147.972656 406.246094 146.128906 407.453125 L 145.816406 407.660156 L 133.273438 400.84375 L 118.378906 418.3125 L 127.089844 429.617188 L 126.9375 429.957031 C 125.953125 432.164062 125.179688 434.21875 124.570312 436.234375 L 124.464844 436.59375 L 110.5 439.429688 L 110.410156 451.074219 L 143.074219 451.074219 C 143.097656 449.339844 143.261719 447.59375 143.570312 445.851562 C 145.011719 437.757812 149.453125 430.625 156.078125 425.765625 C 162.589844 420.988281 170.5625 418.882812 178.554688 419.8125 L 203.421875 391.933594 L 218.984375 401.082031 L 214.363281 414.878906 C 215.835938 416.46875 217.121094 418.011719 218.273438 419.578125 L 232.667969 417.65625 L 241.027344 441.199219 L 228.636719 448.789062 C 228.75 451.085938 228.75 453.058594 228.628906 454.933594 L 240.855469 462.691406 L 232.125 486.101562 L 217.753906 483.949219 C 216.378906 485.765625 215.078125 487.3125 213.800781 488.652344 L 218.183594 502.453125 L 196.445312 514.773438 L 186.851562 503.917969 C 184.960938 504.347656 182.96875 504.671875 180.78125 504.910156 L 175.25 518.335938 L 150.683594 513.800781 L 150.308594 499.3125 C 148.546875 498.40625 146.769531 497.355469 145.019531 496.183594 L 132.15625 502.910156 L 116.25 483.640625 L 125.285156 472.292969 C 124.542969 470.53125 123.878906 468.632812 123.261719 466.511719 L 109.058594 463.390625 L 109.148438 452.324219 L 41.023438 452.324219 L 41.023438 451.074219 L 109.160156 451.074219 L 109.261719 438.40625 L 123.484375 435.515625 C 124.058594 433.667969 124.765625 431.785156 125.644531 429.789062 L 116.769531 418.269531 L 132.984375 399.257812 L 145.757812 406.203125 C 147.453125 405.109375 149.238281 404.101562 151.070312 403.191406 L 151.679688 388.664062 L 176.316406 384.519531 L 181.648438 398.0625 C 181.8125 398.082031 181.976562 398.101562 182.144531 398.117188 C 182.855469 398.195312 183.589844 398.277344 184.328125 398.40625 C 185.460938 398.609375 188.589844 399.273438 190.058594 399.621094 L 216.050781 368.386719 C 214.277344 367.683594 212.527344 366.890625 210.8125 366.011719 L 197.664062 374.976562 L 177.898438 356.035156 L 186.300781 342.515625 C 184.324219 339.035156 182.699219 335.347656 181.46875 331.539062 L 165.835938 328.578125 L 165.253906 301.214844 L 180.734375 297.59375 C 181.789062 293.773438 183.257812 290.015625 185.101562 286.417969 L 176.136719 273.265625 L 195.074219 253.503906 L 208.597656 261.902344 C 212.078125 259.929688 215.765625 258.304688 219.574219 257.074219 L 222.53125 241.441406 L 249.898438 240.859375 L 253.515625 256.339844 C 257.339844 257.394531 261.097656 258.859375 264.695312 260.707031 L 277.84375 251.742188 L 297.609375 270.679688 L 289.210938 284.203125 C 291.183594 287.679688 292.804688 291.367188 294.039062 295.175781 L 309.671875 298.136719 L 310.253906 325.5 L 294.773438 329.121094 C 293.71875 332.941406 292.25 336.699219 290.40625 340.296875 L 311.617188 371.410156 L 311.203125 371.773438 C 311.167969 371.808594 307.367188 375.199219 304.378906 378.886719 C 301.40625 382.554688 299.742188 385.894531 299.722656 385.929688 L 299.484375 386.417969 L 298.964844 386.246094 L 277.046875 378.9375 L 256.292969 414.355469 L 274.808594 431.207031 L 274.71875 431.570312 C 273.773438 435.355469 273.058594 439.300781 272.597656 443.289062 L 272.554688 443.664062 L 249.246094 452.875 L 256.113281 493.347656 L 281.121094 494.351562 L 281.285156 494.691406 C 282.996094 498.199219 284.984375 501.679688 287.195312 505.039062 L 287.402344 505.351562 L 275.472656 527.382812 L 306.746094 553.972656 L 326.566406 538.660156 L 326.910156 538.8125 C 330.558594 540.441406 334.316406 541.839844 338.078125 542.96875 L 338.4375 543.074219 L 343.457031 567.605469 L 384.507812 567.871094 L 389.84375 543.398438 L 390.203125 543.292969 C 394.089844 542.1875 397.867188 540.84375 401.4375 539.304688 L 401.78125 539.15625 L 402.074219 539.386719 L 421.390625 554.71875 L 453.007812 528.535156 L 441.371094 506.363281 L 441.582031 506.054688 C 443.738281 502.867188 445.761719 499.40625 447.597656 495.765625 L 447.765625 495.433594 L 472.804688 494.75 L 478.355469 464.421875 L 416.929688 439.859375 L 416.84375 439.5625 C 410.359375 416.261719 388.925781 399.992188 364.71875 399.992188 C 334.878906 399.992188 310.605469 424.265625 310.605469 454.101562 C 310.605469 482.398438 332.433594 505.6875 360.136719 508.019531 C 387.710938 505.6875 409.4375 482.398438 409.4375 454.101562 L 409.4375 453.476562 L 420.078125 453.476562 L 420.078125 454.101562 C 420.078125 461.574219 418.617188 468.824219 415.730469 475.652344 C 412.941406 482.246094 408.949219 488.164062 403.863281 493.25 C 398.78125 498.332031 392.859375 502.324219 386.265625 505.113281 C 379.441406 508 372.191406 509.464844 364.71875 509.464844 C 363.183594 509.464844 361.65625 509.402344 360.144531 509.28125 C 358.632812 509.402344 357.109375 509.464844 355.578125 509.464844 C 348.105469 509.464844 340.851562 508 334.027344 505.113281 C 327.433594 502.324219 321.515625 498.332031 316.429688 493.25 C 311.347656 488.164062 307.355469 482.246094 304.566406 475.652344 C 301.679688 468.824219 300.214844 461.574219 300.214844 454.101562 C 300.214844 448.253906 301.007812 439.1875 304.789062 429.191406 C 308.710938 418.820312 314.882812 410.0625 323.140625 403.152344 L 315.832031 349.558594 L 346.410156 338.652344 L 359.664062 360.230469 C 361.496094 360.132812 363.152344 360.082031 364.71875 360.082031 C 366.613281 360.082031 368.613281 360.15625 370.976562 360.316406 L 384.519531 338.898438 L 424.902344 353.894531 L 421.191406 378.929688 C 424.117188 381.136719 427.011719 383.605469 429.796875 386.28125 L 453.9375 378.578125 L 475.234375 416.027344 L 456.289062 432.824219 C 457.195312 436.679688 458.070312 440.734375 458.488281 444.5 L 481.019531 453.355469 L 768.96875 453.355469 L 768.96875 454.609375 L 480.78125 454.609375 L 480.671875 454.566406 L 457.320312 445.386719 L 457.28125 445.007812 C 456.878906 441.085938 455.941406 436.796875 454.984375 432.746094 L 454.898438 432.382812 L 473.644531 415.761719 L 453.347656 380.082031 L 429.464844 387.699219 L 429.195312 387.441406 C 426.269531 384.609375 423.222656 382.007812 420.140625 379.707031 L 419.839844 379.484375 L 423.515625 354.714844 L 385.03125 340.425781 L 371.632812 361.617188 L 371.257812 361.589844 C 368.761719 361.417969 366.683594 361.335938 364.714844 361.335938 C 363.070312 361.335938 361.316406 361.390625 359.363281 361.5 L 358.988281 361.519531 L 345.875 340.171875 L 317.207031 350.394531 L 324.472656 403.671875 L 324.203125 403.894531 C 303.679688 420.878906 301.464844 444.664062 301.464844 454.101562 C 301.464844 482.929688 324.125 506.5625 352.566406 508.132812 C 349.359375 507.414062 346.222656 506.40625 343.167969 505.113281 C 336.574219 502.324219 330.652344 498.332031 325.570312 493.25 C 320.484375 488.164062 316.492188 482.246094 313.703125 475.652344 C 310.816406 468.828125 309.355469 461.578125 309.355469 454.101562 C 309.355469 446.628906 310.816406 439.378906 313.703125 432.554688 C 316.492188 425.960938 320.484375 420.039062 325.570312 414.957031 C 330.652344 409.871094 336.574219 405.878906 343.167969 403.089844 C 349.992188 400.203125 357.242188 398.738281 364.714844 398.738281 C 370.933594 398.738281 377.039062 399.765625 382.859375 401.78125 C 388.488281 403.734375 393.742188 406.574219 398.480469 410.226562 C 403.167969 413.839844 407.226562 418.15625 410.550781 423.050781 C 413.863281 427.933594 416.359375 433.273438 417.964844 438.929688 L 479.769531 463.644531 L 479.675781 464.144531 L 473.851562 495.972656 L 448.542969 496.664062 C 446.792969 500.113281 444.871094 503.398438 442.824219 506.445312 L 454.585938 528.855469 L 421.40625 556.332031 L 401.585938 540.601562 C 398.179688 542.054688 394.59375 543.328125 390.90625 544.394531 Z M 151.90625 512.753906 L 174.480469 516.921875 L 179.910156 503.742188 L 180.28125 503.703125 C 182.707031 503.457031 184.878906 503.097656 186.929688 502.617188 L 187.292969 502.53125 L 196.710938 513.183594 L 216.683594 501.863281 L 212.382812 488.316406 L 212.644531 488.046875 C 214.039062 486.613281 215.457031 484.929688 216.980469 482.898438 L 217.203125 482.601562 L 231.308594 484.710938 L 239.328125 463.203125 L 227.328125 455.589844 L 227.355469 455.214844 C 227.503906 453.183594 227.507812 451.042969 227.367188 448.484375 L 227.347656 448.113281 L 239.507812 440.664062 L 231.828125 419.03125 L 217.699219 420.917969 L 217.480469 420.617188 C 216.238281 418.898438 214.835938 417.210938 213.199219 415.460938 L 212.941406 415.1875 L 217.476562 401.648438 L 203.675781 393.53125 L 179.050781 421.136719 L 178.726562 421.09375 C 162.558594 419.042969 147.660156 430.011719 144.804688 446.070312 C 144.507812 447.738281 144.347656 449.414062 144.328125 451.074219 L 156.125 451.074219 L 183.34375 421.40625 L 183.707031 421.496094 C 191.328125 423.402344 197.839844 428.347656 202.042969 435.425781 C 205.960938 442.03125 207.484375 449.890625 206.222656 456.992188 C 203.484375 472.390625 190.035156 483.242188 174.914062 483.242188 C 173.070312 483.242188 171.203125 483.082031 169.328125 482.746094 C 160.960938 481.257812 153.671875 476.601562 148.808594 469.632812 C 145.199219 464.464844 143.246094 458.484375 143.082031 452.328125 L 110.402344 452.328125 L 110.320312 462.386719 L 124.257812 465.449219 L 124.363281 465.808594 C 125.035156 468.164062 125.761719 470.238281 126.582031 472.144531 L 126.730469 472.488281 L 117.863281 483.628906 L 132.476562 501.328125 L 145.101562 494.726562 L 145.410156 494.9375 C 147.328125 496.238281 149.277344 497.394531 151.207031 498.363281 L 151.539062 498.53125 Z M 410.683594 454.730469 C 410.605469 461.984375 409.15625 469.019531 406.378906 475.652344 C 403.609375 482.246094 399.648438 488.167969 394.597656 493.25 C 387.121094 500.773438 377.84375 505.867188 367.726562 508.132812 C 395.960938 506.574219 418.496094 483.269531 418.824219 454.730469 Z M 144.335938 452.324219 C 144.5 458.230469 146.375 463.960938 149.835938 468.914062 C 154.507812 475.609375 161.507812 480.085938 169.546875 481.515625 C 186.140625 484.464844 202.039062 473.367188 204.992188 456.773438 C 207.332031 443.617188 199.359375 426.921875 183.761719 422.800781 L 156.675781 452.324219 Z M 218.136719 367.835938 C 219.636719 368.378906 221.152344 368.855469 222.675781 369.265625 L 223.039062 369.363281 L 226.597656 384.585938 L 251.933594 384.046875 L 254.84375 368.675781 L 255.199219 368.5625 C 259.167969 367.308594 263.007812 365.621094 266.609375 363.542969 L 266.933594 363.355469 L 280.207031 371.597656 L 292.34375 357.683594 L 269.5 324.621094 L 269.601562 324.320312 C 270.589844 321.441406 271.183594 318.429688 271.367188 315.359375 C 272.46875 296.828125 258.289062 280.851562 239.753906 279.746094 C 230.777344 279.210938 222.128906 282.203125 215.402344 288.175781 C 208.675781 294.144531 204.675781 302.378906 204.140625 311.355469 C 203.070312 329.300781 216.332031 344.847656 233.996094 346.824219 L 239.933594 339.6875 L 240.160156 339.648438 C 247.375 338.359375 252.207031 334.992188 254.988281 332.390625 C 258.011719 329.566406 259.339844 327.011719 259.351562 326.988281 L 259.710938 326.285156 L 266.996094 332.46875 L 266.683594 332.933594 C 263.34375 337.859375 258.769531 341.878906 253.457031 344.558594 C 247.980469 347.320312 241.832031 348.585938 235.675781 348.222656 C 235.292969 348.199219 234.910156 348.167969 234.53125 348.136719 Z M 235.511719 346.957031 C 235.589844 346.960938 235.671875 346.96875 235.75 346.972656 C 247.363281 347.664062 258.644531 342.203125 265.328125 332.691406 L 260.078125 328.234375 C 259.46875 329.21875 258.132812 331.15625 255.886719 333.265625 C 253.003906 335.96875 248.027344 339.460938 240.605469 340.835938 Z M 235.511719 346.957031 " fill-opacity="1" fill-rule="nonzero"/></g></svg>