<svg xmlns="http://www.w3.org/2000/svg" enable-background="new 0 0 60 60" viewBox="0 0 60 60" id="microsoft-teams">
  <g>
    <path fill="#FFF" d="M50,60H10C4.477,60,0,55.523,0,50V10C0,4.477,4.477,0,10,0h40c5.523,0,10,4.477,10,10v40
		C60,55.523,55.523,60,50,60z"></path>
  </g>
  <g>
    <path fill="#D2BBFF" d="M11,45h20c1.105,0,2-0.895,2-2V23c0-1.105-0.895-2-2-2H11c-1.105,0-2,0.895-2,2v20C9,44.105,9.895,45,11,45
		z"></path>
    <path fill="#A166FE" d="M46.46,46.75c-1.13,0-2.222-0.222-3.246-0.66c-0.38-0.163-0.557-0.604-0.394-0.984s0.602-0.556,0.985-0.395
		c0.835,0.357,1.729,0.539,2.655,0.539c3.744,0,6.79-3.046,6.79-6.79V26.75H38.92c-0.414,0-0.75-0.336-0.75-0.75
		s0.336-0.75,0.75-0.75H54c0.414,0,0.75,0.336,0.75,0.75v12.46C54.75,43.031,51.031,46.75,46.46,46.75z"></path>
    <path fill="#A166FE" d="M32,54.75c-7.03,0-12.75-5.72-12.75-12.75c0-0.414,0.336-0.75,0.75-0.75h8c0.689,0,1.25-0.561,1.25-1.25V26
		c0-0.414,0.336-0.75,0.75-0.75h14c0.414,0,0.75,0.336,0.75,0.75v16C44.75,49.03,39.03,54.75,32,54.75z M20.775,42.75
		c0.387,5.854,5.274,10.5,11.225,10.5c6.203,0,11.25-5.047,11.25-11.25V26.75h-12.5V40c0,1.517-1.233,2.75-2.75,2.75H20.775z"></path>
    <path fill="#A166FE" d="M54,26v12.46c0,4.16-3.38,7.54-7.54,7.54c-1.05,0-2.04-0.21-2.95-0.6C42.05,50.37,37.45,54,32,54
		c-6.63,0-12-5.37-12-12h8c1.1,0,2-0.9,2-2V26H54 M54,23.75H30c-1.243,0-2.25,1.007-2.25,2.25v13.75H20
		c-1.243,0-2.25,1.007-2.25,2.25c0,7.857,6.393,14.25,14.25,14.25c5.525,0,10.54-3.251,12.869-8.128
		c0.522,0.085,1.053,0.128,1.591,0.128c5.398,0,9.79-4.392,9.79-9.79V26C56.25,24.757,55.243,23.75,54,23.75L54,23.75z"></path>
    <rect width="15.979" height="18.128" x="14.021" y="23.426" fill="#D2BBFF"></rect>
    <path fill="#A166FE" d="M32,22.75c-0.764,0-1.51-0.108-2.217-0.322c-0.397-0.12-0.621-0.538-0.501-0.935
		c0.12-0.396,0.541-0.623,0.935-0.501c0.566,0.171,1.167,0.258,1.783,0.258c3.446,0,6.25-2.804,6.25-6.25S35.446,8.75,32,8.75
		s-6.25,2.804-6.25,6.25c0,0.943,0.204,1.843,0.605,2.674c0.18,0.373,0.024,0.821-0.349,1.001c-0.374,0.184-0.822,0.023-1.001-0.349
		C24.504,17.29,24.25,16.171,24.25,15c0-4.273,3.477-7.75,7.75-7.75s7.75,3.477,7.75,7.75S36.273,22.75,32,22.75z"></path>
    <g>
      <circle cx="46" cy="18" r="4" fill="#FFF"></circle>
      <path fill="#A166FE" d="M46,22.75c-2.619,0-4.75-2.131-4.75-4.75s2.131-4.75,4.75-4.75s4.75,2.131,4.75,4.75
			S48.619,22.75,46,22.75z M46,14.75c-1.792,0-3.25,1.458-3.25,3.25s1.458,3.25,3.25,3.25s3.25-1.458,3.25-3.25
			S47.792,14.75,46,14.75z"></path>
    </g>
    <path fill="#A166FE" d="M28,43.5H8c-1.93,0-3.5-1.57-3.5-3.5V20c0-1.93,1.57-3.5,3.5-3.5h20c1.93,0,3.5,1.57,3.5,3.5v20
		C31.5,41.93,29.93,43.5,28,43.5z M8,19.5c-0.276,0-0.5,0.225-0.5,0.5v20c0,0.275,0.224,0.5,0.5,0.5h20c0.276,0,0.5-0.225,0.5-0.5
		V20c0-0.275-0.224-0.5-0.5-0.5H8z"></path>
    <g>
      <g>
        <path fill="#A166FE" d="M24,24.75H12c-0.414,0-0.75-0.336-0.75-0.75s0.336-0.75,0.75-0.75h12c0.414,0,0.75,0.336,0.75,0.75
				S24.414,24.75,24,24.75z"></path>
      </g>
      <g>
        <path fill="#A166FE" d="M18,36.75c-0.414,0-0.75-0.336-0.75-0.75V24c0-0.414,0.336-0.75,0.75-0.75s0.75,0.336,0.75,0.75v12
				C18.75,36.414,18.414,36.75,18,36.75z"></path>
      </g>
    </g>
  </g>
</svg>
