<svg xmlns="http://www.w3.org/2000/svg" xmlns:xlink="http://www.w3.org/1999/xlink" width="1080" zoomAndPan="magnify" viewBox="0 0 810 809.999993" height="1080" preserveAspectRatio="xMidYMid meet" version="1.0"><defs><clipPath id="99106f876c"><path d="M 524 351 L 560 351 L 560 400.597656 L 524 400.597656 Z M 524 351 " clip-rule="nonzero"/></clipPath><clipPath id="d738fa0e25"><path d="M 514.894531 367 L 523 367 L 523 370 L 514.894531 370 Z M 514.894531 367 " clip-rule="nonzero"/></clipPath><clipPath id="3f92e9f0ab"><path d="M 562 367 L 569.644531 367 L 569.644531 370 L 562 370 Z M 562 367 " clip-rule="nonzero"/></clipPath><clipPath id="972ecf31e8"><path d="M 540 341.347656 L 544 341.347656 L 544 349 L 540 349 Z M 540 341.347656 " clip-rule="nonzero"/></clipPath><clipPath id="968e377aea"><path d="M 81 135.4375 L 735.75 135.4375 L 735.75 681.4375 L 81 681.4375 Z M 81 135.4375 " clip-rule="nonzero"/></clipPath><clipPath id="a1d2b5c090"><path d="M 519.683594 579.117188 L 564.683594 579.117188 L 564.683594 633.117188 L 519.683594 633.117188 Z M 519.683594 579.117188 " clip-rule="nonzero"/></clipPath></defs><g clip-path="url(#99106f876c)"><path fill="#a78bfa" d="M 542.203125 351.292969 C 532.621094 351.292969 524.824219 359.089844 524.824219 368.671875 C 524.824219 373.003906 526.433594 377.160156 529.363281 380.375 C 531.238281 382.4375 532.273438 385.105469 532.273438 387.890625 L 532.273438 392.257812 C 532.273438 393.875 533.3125 395.238281 534.753906 395.753906 L 534.753906 397.222656 C 534.753906 399.277344 536.425781 400.945312 538.480469 400.945312 L 545.925781 400.945312 C 547.980469 400.945312 549.652344 399.277344 549.652344 397.222656 L 549.652344 395.753906 C 551.09375 395.238281 552.132812 393.875 552.132812 392.257812 L 552.132812 387.890625 C 552.132812 385.105469 553.167969 382.4375 555.042969 380.375 C 557.972656 377.160156 559.582031 373.003906 559.582031 368.671875 C 559.582031 359.089844 551.785156 351.292969 542.203125 351.292969 Z M 545.925781 398.464844 L 538.480469 398.464844 C 537.792969 398.464844 537.238281 397.90625 537.238281 397.222656 L 537.238281 395.980469 L 547.167969 395.980469 L 547.167969 397.222656 C 547.167969 397.90625 546.613281 398.464844 545.925781 398.464844 Z M 548.410156 393.5 L 535.996094 393.5 C 535.3125 393.5 534.753906 392.941406 534.753906 392.257812 L 534.753906 388.53125 L 549.652344 388.53125 L 549.652344 392.257812 C 549.652344 392.941406 549.09375 393.5 548.410156 393.5 Z M 553.210938 378.703125 C 551.335938 380.765625 550.195312 383.328125 549.824219 386.050781 L 534.582031 386.050781 C 534.210938 383.328125 533.070312 380.761719 531.195312 378.699219 C 528.6875 375.949219 527.304688 372.386719 527.304688 368.671875 C 527.304688 360.457031 533.988281 353.773438 542.203125 353.773438 C 550.417969 353.773438 557.101562 360.457031 557.101562 368.671875 C 557.101562 372.386719 555.71875 375.949219 553.210938 378.703125 Z M 553.210938 378.703125 " fill-opacity="1" fill-rule="nonzero"/></g><g clip-path="url(#d738fa0e25)"><path fill="#a78bfa" d="M 521.097656 367.429688 L 516.132812 367.429688 C 515.449219 367.429688 514.894531 367.984375 514.894531 368.671875 C 514.894531 369.355469 515.449219 369.910156 516.132812 369.910156 L 521.097656 369.910156 C 521.785156 369.910156 522.339844 369.355469 522.339844 368.671875 C 522.339844 367.984375 521.785156 367.429688 521.097656 367.429688 Z M 521.097656 367.429688 " fill-opacity="1" fill-rule="nonzero"/></g><g clip-path="url(#3f92e9f0ab)"><path fill="#a78bfa" d="M 568.273438 367.429688 L 563.308594 367.429688 C 562.621094 367.429688 562.066406 367.984375 562.066406 368.671875 C 562.066406 369.355469 562.621094 369.910156 563.308594 369.910156 L 568.273438 369.910156 C 568.957031 369.910156 569.515625 369.355469 569.515625 368.671875 C 569.515625 367.984375 568.957031 367.429688 568.273438 367.429688 Z M 568.273438 367.429688 " fill-opacity="1" fill-rule="nonzero"/></g><g clip-path="url(#972ecf31e8)"><path fill="#a78bfa" d="M 542.203125 348.808594 C 542.886719 348.808594 543.445312 348.253906 543.445312 347.566406 L 543.445312 342.601562 C 543.445312 341.917969 542.886719 341.359375 542.203125 341.359375 C 541.519531 341.359375 540.960938 341.917969 540.960938 342.601562 L 540.960938 347.566406 C 540.960938 348.253906 541.519531 348.808594 542.203125 348.808594 Z M 542.203125 348.808594 " fill-opacity="1" fill-rule="nonzero"/></g><path fill="#a78bfa" d="M 526.402344 382.714844 L 522.890625 386.226562 C 522.40625 386.710938 522.40625 387.496094 522.890625 387.980469 C 523.132812 388.226562 523.449219 388.34375 523.769531 388.34375 C 524.085938 388.34375 524.402344 388.222656 524.648438 387.980469 L 528.160156 384.472656 C 528.644531 383.988281 528.644531 383.199219 528.160156 382.714844 C 527.675781 382.230469 526.890625 382.230469 526.402344 382.714844 Z M 526.402344 382.714844 " fill-opacity="1" fill-rule="nonzero"/><path fill="#a78bfa" d="M 559.757812 349.359375 L 556.246094 352.871094 C 555.761719 353.355469 555.761719 354.140625 556.246094 354.625 C 556.488281 354.867188 556.808594 354.988281 557.125 354.988281 C 557.441406 354.988281 557.761719 354.867188 558.003906 354.625 L 561.515625 351.113281 C 562 350.628906 562 349.84375 561.515625 349.359375 C 561.03125 348.875 560.246094 348.871094 559.757812 349.359375 Z M 559.757812 349.359375 " fill-opacity="1" fill-rule="nonzero"/><path fill="#a78bfa" d="M 526.402344 354.625 C 526.644531 354.867188 526.964844 354.988281 527.28125 354.988281 C 527.597656 354.988281 527.917969 354.867188 528.15625 354.625 C 528.640625 354.140625 528.640625 353.355469 528.15625 352.871094 L 524.648438 349.359375 C 524.164062 348.875 523.375 348.875 522.890625 349.359375 C 522.40625 349.84375 522.40625 350.628906 522.890625 351.113281 Z M 526.402344 354.625 " fill-opacity="1" fill-rule="nonzero"/><path fill="#a78bfa" d="M 558.003906 382.714844 C 557.519531 382.230469 556.730469 382.230469 556.25 382.714844 C 555.765625 383.199219 555.765625 383.988281 556.25 384.472656 L 559.761719 387.980469 C 560.003906 388.226562 560.324219 388.34375 560.640625 388.34375 C 560.957031 388.34375 561.277344 388.222656 561.519531 387.980469 C 562.003906 387.496094 562.003906 386.710938 561.519531 386.226562 Z M 558.003906 382.714844 " fill-opacity="1" fill-rule="nonzero"/><path fill="#a78bfa" d="M 94.644531 626.714844 C 87.113281 626.714844 81 620.601562 81 613.070312 L 81 203.789062 C 81 196.257812 87.113281 190.144531 94.644531 190.144531 C 102.171875 190.144531 108.285156 196.257812 108.285156 203.789062 L 108.285156 613.070312 C 108.285156 620.601562 102.171875 626.714844 94.644531 626.714844 Z M 94.644531 626.714844 " fill-opacity="1" fill-rule="nonzero"/><g clip-path="url(#968e377aea)"><path fill="#a78bfa" d="M 667.640625 135.574219 C 634.679688 135.574219 607.148438 159.039062 600.820312 190.144531 L 216.035156 190.144531 C 209.707031 159.039062 182.175781 135.574219 149.214844 135.574219 C 111.585938 135.574219 81 166.160156 81 203.789062 C 81 211.320312 87.113281 217.429688 94.644531 217.429688 C 102.171875 217.429688 108.285156 211.320312 108.285156 203.789062 C 108.285156 181.222656 126.648438 162.859375 149.214844 162.859375 C 171.78125 162.859375 190.140625 181.222656 190.140625 203.789062 L 190.140625 558.828125 C 178.710938 550.179688 164.628906 544.859375 149.214844 544.859375 C 111.585938 544.859375 81 575.445312 81 613.070312 C 81 650.699219 111.585938 681.285156 149.214844 681.285156 L 667.640625 681.285156 C 705.269531 681.285156 735.855469 650.699219 735.855469 613.070312 L 735.855469 203.789062 C 735.855469 166.160156 705.269531 135.574219 667.640625 135.574219 Z M 667.640625 162.859375 C 690.207031 162.859375 708.570312 181.222656 708.570312 203.789062 L 708.570312 558.828125 C 697.136719 550.179688 683.058594 544.859375 667.640625 544.859375 C 652.226562 544.859375 638.144531 550.179688 626.710938 558.828125 L 626.710938 203.789062 C 626.710938 181.222656 645.074219 162.859375 667.640625 162.859375 Z M 667.640625 654 L 149.214844 654 C 126.648438 654 108.285156 635.636719 108.285156 613.070312 C 108.285156 590.507812 126.648438 572.144531 149.214844 572.144531 C 171.78125 572.144531 190.140625 590.507812 190.140625 613.070312 C 190.140625 620.601562 196.253906 626.714844 203.785156 626.714844 C 211.316406 626.714844 217.429688 620.601562 217.429688 613.070312 L 217.429688 217.429688 L 599.425781 217.429688 L 599.425781 613.070312 C 599.425781 620.601562 605.539062 626.714844 613.070312 626.714844 C 620.601562 626.714844 626.710938 620.601562 626.710938 613.070312 C 626.710938 590.507812 645.074219 572.144531 667.640625 572.144531 C 690.207031 572.144531 708.570312 590.507812 708.570312 613.070312 C 708.570312 635.636719 690.207031 654 667.640625 654 Z M 667.640625 654 " fill-opacity="1" fill-rule="nonzero"/></g><path fill="#a78bfa" d="M 514.921875 359.835938 C 513.996094 358.496094 512.878906 357.378906 511.539062 356.449219 C 511.210938 356.230469 511.050781 355.824219 510.722656 355.632812 L 415.222656 301.0625 C 411.019531 298.660156 405.890625 298.660156 401.6875 301.0625 L 306.1875 355.632812 C 305.832031 355.824219 305.699219 356.234375 305.371094 356.449219 C 303.976562 357.40625 302.859375 358.496094 301.933594 359.835938 C 301.578125 360.351562 301.222656 360.761719 300.949219 361.308594 C 299.96875 363.191406 299.285156 365.238281 299.285156 367.5 L 299.285156 476.644531 C 299.285156 477.21875 299.53125 477.707031 299.613281 478.253906 C 299.722656 479.234375 299.859375 480.136719 300.1875 481.0625 C 300.457031 481.882812 300.867188 482.59375 301.304688 483.355469 C 301.742188 484.121094 302.175781 484.828125 302.75 485.511719 C 303.378906 486.222656 304.085938 486.765625 304.824219 487.339844 C 305.289062 487.695312 305.617188 488.1875 306.132812 488.484375 L 401.632812 543.058594 C 401.824219 543.167969 402.070312 543.140625 402.289062 543.222656 C 404.171875 544.203125 406.191406 544.859375 408.425781 544.859375 C 410.664062 544.859375 412.683594 544.203125 414.539062 543.25 C 414.757812 543.140625 414.976562 543.195312 415.195312 543.085938 L 510.695312 488.511719 C 511.210938 488.214844 511.539062 487.722656 512.003906 487.367188 C 512.742188 486.792969 513.476562 486.25 514.078125 485.539062 C 514.679688 484.855469 515.085938 484.148438 515.523438 483.382812 C 515.960938 482.648438 516.371094 481.910156 516.644531 481.089844 C 516.96875 480.164062 517.078125 479.234375 517.214844 478.28125 C 517.324219 477.707031 517.570312 477.21875 517.570312 476.644531 L 517.570312 367.5 C 517.570312 365.238281 516.886719 363.191406 515.90625 361.308594 C 515.632812 360.761719 515.277344 360.351562 514.921875 359.835938 Z M 326.570312 391.023438 L 394.785156 430.011719 L 394.785156 507.722656 L 326.570312 468.703125 Z M 422.070312 430.011719 L 490.285156 391.023438 L 490.285156 468.703125 L 422.070312 507.695312 Z M 408.425781 328.648438 L 476.421875 367.5 L 408.425781 406.355469 L 340.433594 367.5 Z M 408.425781 328.648438 " fill-opacity="1" fill-rule="nonzero"/><g clip-path="url(#a1d2b5c090)"><path fill="#a78bfa" d="M 559.089844 585.871094 L 555.710938 585.871094 L 555.710938 584.746094 C 555.710938 584.125 555.207031 583.621094 554.585938 583.621094 L 547.722656 583.621094 C 547.195312 581.054688 544.925781 579.117188 542.207031 579.117188 C 539.488281 579.117188 537.214844 581.054688 536.691406 583.621094 L 529.824219 583.621094 C 529.203125 583.621094 528.699219 584.125 528.699219 584.746094 L 528.699219 585.871094 L 525.324219 585.871094 C 522.222656 585.871094 519.695312 588.394531 519.695312 591.5 L 519.695312 627.515625 C 519.695312 630.617188 522.222656 633.140625 525.324219 633.140625 L 559.089844 633.140625 C 562.191406 633.140625 564.714844 630.617188 564.714844 627.515625 L 564.714844 591.5 C 564.714844 588.394531 562.191406 585.871094 559.089844 585.871094 Z M 530.953125 585.871094 L 537.703125 585.871094 C 538.324219 585.871094 538.828125 585.367188 538.828125 584.746094 C 538.828125 582.882812 540.34375 581.371094 542.207031 581.371094 C 544.066406 581.371094 545.582031 582.882812 545.582031 584.746094 C 545.582031 585.367188 546.085938 585.871094 546.707031 585.871094 L 553.460938 585.871094 L 553.460938 589.246094 C 553.460938 589.867188 552.957031 590.375 552.335938 590.375 L 532.078125 590.375 C 531.457031 590.375 530.953125 589.867188 530.953125 589.246094 Z M 562.464844 627.515625 C 562.464844 629.375 560.949219 630.890625 559.089844 630.890625 L 525.324219 630.890625 C 523.460938 630.890625 521.949219 629.375 521.949219 627.515625 L 521.949219 591.5 C 521.949219 589.636719 523.460938 588.121094 525.324219 588.121094 L 528.699219 588.121094 L 528.699219 589.246094 C 528.699219 591.109375 530.214844 592.625 532.078125 592.625 L 552.335938 592.625 C 554.195312 592.625 555.710938 591.109375 555.710938 589.246094 L 555.710938 588.121094 L 559.089844 588.121094 C 560.949219 588.121094 562.464844 589.636719 562.464844 591.5 Z M 562.464844 627.515625 " fill-opacity="1" fill-rule="nonzero"/></g><path fill="#a78bfa" d="M 529.261719 603.582031 C 529.476562 603.78125 529.75 603.878906 530.023438 603.878906 C 530.320312 603.878906 530.613281 603.761719 530.835938 603.53125 L 535.140625 599.03125 C 535.570312 598.582031 535.554688 597.867188 535.105469 597.4375 C 534.652344 597.007812 533.941406 597.023438 533.511719 597.476562 L 529.972656 601.179688 L 528.335938 599.675781 C 527.878906 599.257812 527.167969 599.285156 526.746094 599.738281 C 526.324219 600.199219 526.355469 600.910156 526.8125 601.332031 Z M 529.261719 603.582031 " fill-opacity="1" fill-rule="nonzero"/><path fill="#a78bfa" d="M 533.515625 617.730469 L 529.972656 621.4375 L 528.335938 619.933594 C 527.878906 619.515625 527.167969 619.542969 526.746094 620 C 526.324219 620.457031 526.355469 621.167969 526.8125 621.589844 L 529.257812 623.839844 C 529.476562 624.039062 529.75 624.136719 530.023438 624.136719 C 530.320312 624.136719 530.613281 624.019531 530.835938 623.792969 L 535.140625 619.289062 C 535.570312 618.839844 535.554688 618.125 535.105469 617.699219 C 534.65625 617.265625 533.941406 617.28125 533.515625 617.730469 Z M 533.515625 617.730469 " fill-opacity="1" fill-rule="nonzero"/><path fill="#a78bfa" d="M 535.125 606.457031 C 534.6875 606.019531 533.972656 606.019531 533.53125 606.457031 L 530.953125 609.039062 L 528.371094 606.460938 C 527.933594 606.023438 527.21875 606.023438 526.78125 606.460938 C 526.339844 606.898438 526.339844 607.613281 526.78125 608.050781 L 529.359375 610.632812 L 526.78125 613.210938 C 526.339844 613.652344 526.339844 614.363281 526.78125 614.804688 C 527 615.023438 527.285156 615.132812 527.574219 615.132812 C 527.863281 615.132812 528.152344 615.023438 528.371094 614.804688 L 530.953125 612.222656 L 533.53125 614.804688 C 533.75 615.023438 534.039062 615.132812 534.328125 615.132812 C 534.617188 615.132812 534.902344 615.023438 535.125 614.804688 C 535.5625 614.367188 535.5625 613.652344 535.125 613.214844 L 532.542969 610.632812 L 535.121094 608.050781 C 535.5625 607.609375 535.5625 606.898438 535.125 606.457031 Z M 535.125 606.457031 " fill-opacity="1" fill-rule="nonzero"/><path fill="#a78bfa" d="M 556.835938 599.378906 L 541.082031 599.378906 C 540.460938 599.378906 539.957031 599.882812 539.957031 600.503906 C 539.957031 601.125 540.460938 601.628906 541.082031 601.628906 L 556.835938 601.628906 C 557.457031 601.628906 557.964844 601.125 557.964844 600.503906 C 557.964844 599.882812 557.457031 599.378906 556.835938 599.378906 Z M 556.835938 599.378906 " fill-opacity="1" fill-rule="nonzero"/><path fill="#a78bfa" d="M 556.835938 608.382812 L 541.082031 608.382812 C 540.460938 608.382812 539.957031 608.886719 539.957031 609.507812 C 539.957031 610.128906 540.460938 610.632812 541.082031 610.632812 L 556.835938 610.632812 C 557.457031 610.632812 557.964844 610.128906 557.964844 609.507812 C 557.964844 608.886719 557.457031 608.382812 556.835938 608.382812 Z M 556.835938 608.382812 " fill-opacity="1" fill-rule="nonzero"/><path fill="#a78bfa" d="M 556.835938 619.636719 L 541.082031 619.636719 C 540.460938 619.636719 539.957031 620.140625 539.957031 620.761719 C 539.957031 621.382812 540.460938 621.886719 541.082031 621.886719 L 556.835938 621.886719 C 557.457031 621.886719 557.964844 621.382812 557.964844 620.761719 C 557.964844 620.140625 557.457031 619.636719 556.835938 619.636719 Z M 556.835938 619.636719 " fill-opacity="1" fill-rule="nonzero"/></svg>