<svg xmlns="http://www.w3.org/2000/svg" xmlns:xlink="http://www.w3.org/1999/xlink" width="1080" zoomAndPan="magnify" viewBox="0 0 810 809.999993" height="1080" preserveAspectRatio="xMidYMid meet" version="1.0"><defs><clipPath id="9e72af062b"><path d="M 81 135.4375 L 735.75 135.4375 L 735.75 681.4375 L 81 681.4375 Z M 81 135.4375 " clip-rule="nonzero"/></clipPath></defs><path fill="#a78bfa" d="M 94.644531 626.714844 C 87.113281 626.714844 81 620.601562 81 613.070312 L 81 203.789062 C 81 196.257812 87.113281 190.144531 94.644531 190.144531 C 102.171875 190.144531 108.285156 196.257812 108.285156 203.789062 L 108.285156 613.070312 C 108.285156 620.601562 102.171875 626.714844 94.644531 626.714844 Z M 94.644531 626.714844 " fill-opacity="1" fill-rule="nonzero"/><g clip-path="url(#9e72af062b)"><path fill="#a78bfa" d="M 667.640625 135.574219 C 634.679688 135.574219 607.148438 159.039062 600.820312 190.144531 L 216.035156 190.144531 C 209.707031 159.039062 182.175781 135.574219 149.214844 135.574219 C 111.585938 135.574219 81 166.160156 81 203.789062 C 81 211.320312 87.113281 217.429688 94.644531 217.429688 C 102.171875 217.429688 108.285156 211.320312 108.285156 203.789062 C 108.285156 181.222656 126.648438 162.859375 149.214844 162.859375 C 171.78125 162.859375 190.140625 181.222656 190.140625 203.789062 L 190.140625 558.828125 C 178.710938 550.179688 164.628906 544.859375 149.214844 544.859375 C 111.585938 544.859375 81 575.445312 81 613.070312 C 81 650.699219 111.585938 681.285156 149.214844 681.285156 L 667.640625 681.285156 C 705.269531 681.285156 735.855469 650.699219 735.855469 613.070312 L 735.855469 203.789062 C 735.855469 166.160156 705.269531 135.574219 667.640625 135.574219 Z M 667.640625 162.859375 C 690.207031 162.859375 708.570312 181.222656 708.570312 203.789062 L 708.570312 558.828125 C 697.136719 550.179688 683.058594 544.859375 667.640625 544.859375 C 652.226562 544.859375 638.144531 550.179688 626.710938 558.828125 L 626.710938 203.789062 C 626.710938 181.222656 645.074219 162.859375 667.640625 162.859375 Z M 667.640625 654 L 149.214844 654 C 126.648438 654 108.285156 635.636719 108.285156 613.070312 C 108.285156 590.507812 126.648438 572.144531 149.214844 572.144531 C 171.78125 572.144531 190.140625 590.507812 190.140625 613.070312 C 190.140625 620.601562 196.253906 626.714844 203.785156 626.714844 C 211.316406 626.714844 217.429688 620.601562 217.429688 613.070312 L 217.429688 217.429688 L 599.425781 217.429688 L 599.425781 613.070312 C 599.425781 620.601562 605.539062 626.714844 613.070312 626.714844 C 620.601562 626.714844 626.710938 620.601562 626.710938 613.070312 C 626.710938 590.507812 645.074219 572.144531 667.640625 572.144531 C 690.207031 572.144531 708.570312 590.507812 708.570312 613.070312 C 708.570312 635.636719 690.207031 654 667.640625 654 Z M 667.640625 654 " fill-opacity="1" fill-rule="nonzero"/></g><path fill="#a78bfa" d="M 514.921875 359.835938 C 513.996094 358.496094 512.878906 357.378906 511.539062 356.449219 C 511.210938 356.230469 511.050781 355.824219 510.722656 355.632812 L 415.222656 301.0625 C 411.019531 298.660156 405.890625 298.660156 401.6875 301.0625 L 306.1875 355.632812 C 305.832031 355.824219 305.699219 356.234375 305.371094 356.449219 C 303.976562 357.40625 302.859375 358.496094 301.933594 359.835938 C 301.578125 360.351562 301.222656 360.761719 300.949219 361.308594 C 299.96875 363.191406 299.285156 365.238281 299.285156 367.5 L 299.285156 476.644531 C 299.285156 477.21875 299.53125 477.707031 299.613281 478.253906 C 299.722656 479.234375 299.859375 480.136719 300.1875 481.0625 C 300.457031 481.882812 300.867188 482.59375 301.304688 483.355469 C 301.742188 484.121094 302.175781 484.828125 302.75 485.511719 C 303.378906 486.222656 304.085938 486.765625 304.824219 487.339844 C 305.289062 487.695312 305.617188 488.1875 306.132812 488.484375 L 401.632812 543.058594 C 401.824219 543.167969 402.070312 543.140625 402.289062 543.222656 C 404.171875 544.203125 406.191406 544.859375 408.425781 544.859375 C 410.664062 544.859375 412.683594 544.203125 414.539062 543.25 C 414.757812 543.140625 414.976562 543.195312 415.195312 543.085938 L 510.695312 488.511719 C 511.210938 488.214844 511.539062 487.722656 512.003906 487.367188 C 512.742188 486.792969 513.476562 486.25 514.078125 485.539062 C 514.679688 484.855469 515.085938 484.148438 515.523438 483.382812 C 515.960938 482.648438 516.371094 481.910156 516.644531 481.089844 C 516.96875 480.164062 517.078125 479.234375 517.214844 478.28125 C 517.324219 477.707031 517.570312 477.21875 517.570312 476.644531 L 517.570312 367.5 C 517.570312 365.238281 516.886719 363.191406 515.90625 361.308594 C 515.632812 360.761719 515.277344 360.351562 514.921875 359.835938 Z M 326.570312 391.023438 L 394.785156 430.011719 L 394.785156 507.722656 L 326.570312 468.703125 Z M 422.070312 430.011719 L 490.285156 391.023438 L 490.285156 468.703125 L 422.070312 507.695312 Z M 408.425781 328.648438 L 476.421875 367.5 L 408.425781 406.355469 L 340.433594 367.5 Z M 408.425781 328.648438 " fill-opacity="1" fill-rule="nonzero"/></svg>