<svg version="1.1" id="Layer_1" xmlns="http://www.w3.org/2000/svg" xmlns:xlink="http://www.w3.org/1999/xlink" x="0px" y="0px" viewBox="0 0 50.6 50.8" style="enable-background:new 0 0 50.6 50.8;" xml:space="preserve">
 <style type="text/css">
  .st0{fill:#F1C931;}
 </style>
 <g>
  <path class="st0" d="M34,2.5c3.3,0.9,6.6,1.9,9.9,2.4h2.4c1.4,0,2.4-0.5,3.8-0.9h0.5c0,0.5,0,0.5-0.5,0.9c-1.9,1.4-3.8,2.4-5.7,2.8
		c-0.5,0-1.4,0.5-1.9,0.5c-2.4,0.9-5.2,0.9-7.6,0.9c-4.7-0.5-9-1.9-13.7-1.9C17,6.8,12.8,8.7,10.4,12C9.9,13.9,9,15.8,9,17.7
		s2.8,2.4,3.8,3.8l1.4,2.8c0.5,1.9,1.4,3.8,2.8,5.7c0.9,0.9,1.9,2.4,3.3,2.8c1.9,1.4,3.3,2.8,4.3,4.7c0.9,1.9,1.9,3.3,2.4,5.2
		c0.5,0.9,0.9,1.9,0.9,3.3v0.5c0.5,0.9,0.5,1.9,0.9,2.4v0.5c0,0.5,0.5,1.4,0,1.4c-0.9-0.9-1.4-1.9-1.9-2.8c-0.5-1.9-1.9-3.8-3.3-5.7
		c-0.9-0.9-1.9-2.4-2.8-3.3c-3.8-4.3-9.5-7.1-13.7-10.9c0,0,0-0.5-0.5-0.9c-0.5-0.9-0.9-1.4-1.4-2.4c-0.9-1.9-2.4-3.8-3.3-6.1
		c0-0.9-0.5-1.9-0.5-2.8v-0.5c0-0.9-2.4-1.4-0.9-3.3c0.9-0.9,3.8-1.9,4.7-3.8V7.3c0,0,0-0.5-0.5-0.5S2.8,7.7,2.8,6.3V4.9
		C3.3,4,3.3,3,3.3,2.1c0-0.5,0.5-0.5,0.9-0.5s1.4-0.5,1.9-0.5c1.4,0,3.3,0,4.3,0.9c0.5,0.9,0,1.9,0,2.8S9.4,6.3,9.9,6.8h0.9
		c1.9-1.4,3.8-3.3,5.7-5.2c1.4-1.4,3.8-1.9,5.7-1.4C26.5,0.2,29.8,1.6,34,2.5z">
  </path>
  <path class="st0" d="M23.2,10.1c0.5,0.9,0,1.4-0.5,2.4c-2.4,3.3-3.3,7.6-4.7,11.4h-0.5c-0.5,0-0.5-0.5-0.5-0.9
		c0-4.3,1.4-8,3.3-11.8c0.5-0.5,0.9-1.4,1.9-0.9C22.7,9.6,22.7,10.1,23.2,10.1z M29.8,11.1c0.5,1.4-0.5,2.4-0.9,3.8
		c-2.4,4.7-5.2,9.5-6.6,14.7c0,0,0,0.5-0.5,0.5h-0.5c-0.5-1.9,0-4.3,0.5-6.1c1.4-4.3,2.8-8.5,5.2-12.8c0.5,0,0.5-0.5,0.5-0.5
		C28.4,10.6,29.3,10.6,29.8,11.1z M36.4,11.5c0.5,0.5,0.5,1.4,0,1.9c-2.8,6.1-7.1,11.4-9,18L26,35.7c0,0.5-0.5,0.5-0.5,0
		c-0.5-0.5,0-1.4,0-1.9c0.5-5.2,1.9-10.4,4.3-14.7c0.9-2.4,2.4-4.3,3.3-6.6c0.5-0.5,0.9-1.4,1.9-1.4C35.5,11.1,35.9,11.1,36.4,11.5z
		 M44,12c0.5,0.9,0,1.4,0,2.4c-1.9,4.7-5.2,9-7.6,13.7c-2.4,3.8-3.8,8-5.2,11.8c-0.5,1.4-0.9,2.4-1.4,3.8h-0.5
		c-0.5-0.5-0.5-0.9-0.5-1.4c0.5-5.2,2.4-9.5,4.3-14.2c2.4-5.2,5.2-9.9,7.6-15.1c0.5-0.5,0.9-1.4,1.9-1.9C43,11.1,43.5,11.1,44,12z">
  </path>
 </g>
</svg>