<svg version="1.1" id="Layer_1" xmlns:x="ns_extend;" xmlns:i="ns_ai;" xmlns:graph="ns_graphs;" xmlns="http://www.w3.org/2000/svg" xmlns:xlink="http://www.w3.org/1999/xlink" x="0px" y="0px" viewBox="0 0 63.8 40.3" style="enable-background:new 0 0 63.8 40.3;" xml:space="preserve">
 <style type="text/css">
  .st0{fill:#0770E3;}
 </style>
 <metadata>
  <sfw xmlns="ns_sfw;">
   <slices>
   </slices>
   <sliceSourceBounds bottomLeftOrigin="true" height="40.3" width="63.8" x="55.1" y="-217">
   </sliceSourceBounds>
  </sfw>
 </metadata>
 <path class="st0" d="M31.9,40.3c0.7,0,1.3-0.2,1.9-0.5l7-4c1.4-0.8,3-1.1,4.7-1c8.5,1,14.4,2.6,16.2,3.1c0.4,0.1,0.8,0,1-0.3
	c0.3-0.4,0.6-0.9,0.9-1.8c0.3-0.8,0.3-1.5,0.3-1.9c0-0.4-0.3-0.7-0.7-0.8c-2.7-0.8-14.9-4.1-31.2-4.1S3.4,32.2,0.7,33
	C0.3,33.1,0,33.5,0,33.9c0,0.4,0,1.1,0.3,1.9c0.3,0.8,0.6,1.4,0.9,1.8c0.2,0.3,0.6,0.4,1,0.3c1.8-0.5,7.7-2.1,16.2-3.1
	c1.6-0.2,3.3,0.2,4.7,1l7,4C30.6,40.1,31.3,40.3,31.9,40.3z M20.3,17.6c0.4,0.7,1,1.1,1.7,1.3c0.7,0.2,1.4,0.1,2.1-0.3
	c0.7-0.4,1.1-1,1.3-1.7c0.2-0.7,0.1-1.4-0.3-2.1L18.8,4c-0.2-0.4-0.6-0.5-1-0.4c-0.5,0-1.2,0.3-2,0.8s-1.4,1-1.7,1.4
	C13.9,6,13.8,6.4,14,6.8C14,6.8,20.3,17.6,20.3,17.6z M14.5,25.4c0.7,0.4,1.4,0.4,2.1,0.3c0.7-0.2,1.3-0.6,1.7-1.3
	c0.4-0.7,0.4-1.4,0.3-2.1S18,21,17.3,20.6L6.4,14.3c-0.4-0.2-0.8-0.1-1.1,0.1c-0.4,0.3-0.9,0.9-1.4,1.7c-0.5,0.8-0.7,1.5-0.8,2
	c0,0.4,0.1,0.8,0.4,1L14.5,25.4z M34.7,13.8c0,0.8-0.3,1.5-0.8,2c-0.5,0.5-1.2,0.8-2,0.8c-0.8,0-1.5-0.3-2-0.8
	c-0.5-0.5-0.8-1.2-0.8-2V1.2c0-0.4,0.3-0.7,0.6-0.9C30.2,0.1,31,0,31.9,0c1,0,1.7,0.1,2.1,0.4c0.4,0.2,0.6,0.5,0.6,0.9V13.8z
	 M43.6,17.6c-0.4,0.7-1,1.1-1.7,1.3c-0.7,0.2-1.4,0.1-2.1-0.3s-1.1-1-1.3-1.7c-0.2-0.7-0.1-1.4,0.3-2.1L45,4c0.2-0.4,0.6-0.5,1-0.4
	c0.5,0,1.2,0.3,2,0.8c0.8,0.5,1.4,1,1.7,1.4C50,6,50,6.4,49.9,6.8L43.6,17.6L43.6,17.6z M49.3,25.4c-0.7,0.4-1.4,0.4-2.1,0.3
	c-0.7-0.2-1.3-0.6-1.7-1.3c-0.4-0.7-0.4-1.4-0.3-2.1c0.2-0.7,0.6-1.3,1.3-1.7l10.9-6.3c0.4-0.2,0.8-0.1,1.1,0.1
	c0.4,0.3,0.9,0.9,1.4,1.7c0.5,0.8,0.7,1.5,0.8,2c0,0.4-0.1,0.8-0.4,1L49.3,25.4z">
 </path>
</svg>