<svg xmlns="http://www.w3.org/2000/svg" xmlns:xlink="http://www.w3.org/1999/xlink" width="1080" zoomAndPan="magnify" viewBox="0 0 810 809.999993" height="1080" preserveAspectRatio="xMidYMid meet" version="1.0"><defs><clipPath id="9a6ef237b3"><path d="M 35.25 35.25 L 774.75 35.25 L 774.75 774.75 L 35.25 774.75 Z M 35.25 35.25 " clip-rule="nonzero"/></clipPath></defs><path fill="#ffd815" d="M 321.6875 576.496094 C 275.292969 587.410156 266.445312 596.253906 255.53125 642.652344 C 244.617188 596.257812 235.769531 587.410156 189.375 576.496094 C 235.769531 565.582031 244.617188 556.738281 255.53125 510.339844 C 266.445312 556.738281 275.289062 565.582031 321.6875 576.496094 Z M 321.6875 576.496094 " fill-opacity="1" fill-rule="nonzero"/><g clip-path="url(#9a6ef237b3)"><path fill="#ffd815" d="M 774.667969 404.957031 C 432.785156 420.328125 420.324219 432.785156 404.957031 774.667969 C 389.589844 432.785156 377.132812 420.328125 35.25 404.957031 C 377.132812 389.589844 389.589844 377.132812 404.957031 35.25 C 420.328125 377.132812 432.785156 389.589844 774.667969 404.957031 Z M 774.667969 404.957031 " fill-opacity="1" fill-rule="nonzero"/></g><path fill="#ffd815" d="M 321.480469 209.691406 C 245.128906 213.125 242.347656 215.90625 238.914062 292.257812 C 235.484375 215.90625 232.699219 213.125 156.347656 209.691406 C 232.703125 206.261719 235.484375 203.476562 238.914062 127.125 C 242.347656 203.480469 245.132812 206.261719 321.480469 209.691406 Z M 321.480469 209.691406 " fill-opacity="1" fill-rule="nonzero"/><path fill="#ffd815" d="M 736.058594 202.695312 C 623.9375 207.734375 619.855469 211.820312 614.8125 323.941406 C 609.773438 211.820312 605.6875 207.738281 493.566406 202.695312 C 605.6875 197.65625 609.773438 193.570312 614.8125 81.449219 C 619.855469 193.570312 623.9375 197.65625 736.058594 202.695312 Z M 736.058594 202.695312 " fill-opacity="1" fill-rule="nonzero"/><path fill="#ffd815" d="M 736.058594 120.128906 C 705.519531 121.5 704.40625 122.613281 703.035156 153.15625 C 701.660156 122.613281 700.546875 121.5 670.007812 120.128906 C 700.546875 118.757812 701.660156 117.644531 703.035156 87.101562 C 704.40625 117.644531 705.519531 118.757812 736.058594 120.128906 Z M 736.058594 120.128906 " fill-opacity="1" fill-rule="nonzero"/><path fill="#ffd815" d="M 545.582031 81.449219 C 515.039062 82.820312 513.925781 83.9375 512.554688 114.476562 C 511.183594 83.9375 510.070312 82.820312 479.527344 81.449219 C 510.070312 80.078125 511.183594 78.964844 512.554688 48.421875 C 513.925781 78.964844 515.039062 80.074219 545.582031 81.449219 Z M 545.582031 81.449219 " fill-opacity="1" fill-rule="nonzero"/></svg>