<svg xmlns="http://www.w3.org/2000/svg" xmlns:xlink="http://www.w3.org/1999/xlink" width="1080" zoomAndPan="magnify" viewBox="0 0 810 809.999993" height="1080" preserveAspectRatio="xMidYMid meet" version="1.0"><defs><clipPath id="e4c58fd65f"><path d="M 215.453125 382 L 298 382 L 298 505 L 215.453125 505 Z M 215.453125 382 " clip-rule="nonzero"/></clipPath><clipPath id="b030748c8b"><path d="M 547 406 L 594.203125 406 L 594.203125 578 L 547 578 Z M 547 406 " clip-rule="nonzero"/></clipPath></defs><path fill="#e4e4e7" d="M 478.898438 224.839844 C 478.898438 228.761719 478.535156 233.40625 477.210938 238.292969 C 476.546875 240.765625 475.640625 243.238281 474.375 245.652344 C 473.167969 248.125 471.480469 250.480469 469.789062 253.011719 C 468.101562 255.546875 466.53125 258.261719 465.324219 260.914062 C 464.117188 263.570312 463.09375 266.101562 461.945312 268.394531 C 460.800781 270.6875 459.535156 272.679688 458.027344 274.246094 C 456.519531 275.753906 454.828125 276.902344 453.078125 277.503906 C 449.582031 278.773438 446.324219 278.710938 444.152344 278.773438 C 441.917969 278.832031 440.710938 278.832031 440.652344 279.074219 C 440.652344 279.253906 441.859375 279.617188 444.03125 279.917969 C 445.117188 280.097656 446.503906 280.21875 448.132812 280.21875 C 449.761719 280.21875 451.632812 280.097656 453.683594 279.496094 C 455.734375 278.890625 457.84375 277.6875 459.714844 275.996094 C 461.585938 274.246094 463.03125 272.015625 464.300781 269.664062 C 465.566406 267.25 466.652344 264.714844 467.859375 262.183594 C 469.003906 259.648438 470.453125 257.234375 472.140625 254.703125 C 473.832031 252.167969 475.519531 249.695312 476.847656 246.980469 C 478.175781 244.324219 479.140625 241.609375 479.742188 238.957031 C 481.011719 233.648438 481.132812 228.761719 480.890625 224.71875 C 480.648438 220.675781 480.046875 217.480469 479.5625 215.308594 C 479.019531 213.136719 478.597656 211.929688 478.417969 211.992188 C 478.175781 212.050781 478.296875 213.257812 478.417969 215.488281 C 478.65625 217.722656 478.960938 220.917969 478.898438 224.839844 Z M 478.898438 224.839844 " fill-opacity="1" fill-rule="nonzero"/><path fill="#e4e4e7" d="M 476.183594 175.855469 C 475.761719 173.382812 474.496094 171.210938 473.167969 169.21875 C 470.511719 165.296875 467.558594 161.859375 464.359375 159.207031 C 461.164062 156.550781 457.785156 154.742188 454.769531 153.835938 C 451.753906 152.871094 449.15625 152.691406 447.410156 152.8125 C 445.660156 152.929688 444.753906 153.292969 444.753906 153.472656 C 444.753906 153.957031 448.613281 153.535156 453.984375 155.828125 C 456.699219 156.914062 459.65625 158.722656 462.488281 161.316406 C 465.386719 163.910156 468.101562 167.230469 470.632812 170.96875 C 471.902344 172.839844 472.867188 174.648438 473.226562 176.519531 C 473.589844 178.390625 473.46875 180.378906 473.347656 182.371094 C 473.046875 186.414062 473.289062 190.152344 473.769531 193.230469 C 474.734375 199.320312 476.425781 202.820312 476.726562 202.699219 C 477.148438 202.578125 476.246094 198.898438 475.820312 192.988281 C 475.640625 190.03125 475.640625 186.53125 476.0625 182.613281 C 476.304688 180.5 476.605469 178.328125 476.183594 175.855469 Z M 476.183594 175.855469 " fill-opacity="1" fill-rule="nonzero"/><path fill="#e4e4e7" d="M 424.546875 158.664062 C 421.710938 159.207031 418.390625 160.109375 415.316406 162.34375 C 413.808594 163.488281 412.359375 164.816406 411.09375 166.445312 C 409.824219 168.074219 408.738281 169.882812 407.835938 171.8125 C 405.902344 175.675781 404.515625 180.019531 402.765625 184.242188 C 401.863281 186.414062 400.898438 188.464844 399.628906 190.515625 C 398.363281 192.566406 396.914062 194.617188 395.589844 196.96875 C 392.996094 201.734375 391.667969 207.164062 391.183594 212.714844 C 390.703125 218.265625 390.941406 223.632812 391.183594 228.761719 C 391.304688 231.296875 391.425781 233.890625 391.789062 236.421875 C 392.148438 238.957031 392.753906 241.429688 393.65625 243.722656 C 395.40625 248.308594 397.878906 252.167969 400.171875 255.726562 C 402.527344 259.285156 404.9375 262.421875 407.472656 265.078125 C 412.480469 270.386719 417.847656 273.28125 421.710938 274.550781 C 425.570312 275.816406 427.921875 275.695312 427.921875 275.515625 C 427.984375 275.273438 425.75 274.972656 422.132812 273.464844 C 418.574219 271.953125 413.625 268.9375 409.042969 263.628906 C 406.6875 261.035156 404.457031 257.898438 402.285156 254.398438 C 400.113281 250.839844 397.820312 247.039062 396.253906 242.816406 C 394.625 238.59375 394.320312 233.828125 394.140625 228.699219 C 393.898438 223.574219 393.71875 218.324219 394.140625 213.015625 C 394.625 207.707031 395.828125 202.699219 398.121094 198.355469 C 399.269531 196.183594 400.714844 194.132812 401.984375 191.960938 C 403.308594 189.789062 404.335938 187.5 405.242188 185.265625 C 406.988281 180.800781 408.316406 176.519531 410.007812 172.839844 C 410.851562 170.96875 411.816406 169.28125 412.902344 167.769531 C 413.988281 166.261719 415.253906 165.058594 416.582031 163.972656 C 419.234375 161.917969 422.253906 160.894531 424.90625 160.230469 C 427.621094 159.628906 430.035156 159.386719 431.964844 159.207031 C 435.886719 158.902344 438.117188 158.84375 438.117188 158.601562 C 438.117188 158.421875 435.945312 158.121094 431.90625 158.058594 C 429.855469 158.121094 427.378906 158.179688 424.546875 158.664062 Z M 424.546875 158.664062 " fill-opacity="1" fill-rule="nonzero"/><path fill="#e4e4e7" d="M 425.570312 151.90625 C 422.796875 152.691406 418.8125 154.078125 414.289062 156.550781 C 409.765625 159.023438 404.636719 162.644531 399.933594 167.710938 C 395.226562 172.777344 391.0625 179.355469 388.589844 186.957031 C 387.324219 190.753906 386.660156 194.675781 386.296875 198.355469 C 385.9375 202.035156 385.816406 205.535156 385.394531 208.792969 C 384.972656 212.050781 384.367188 215.1875 383.644531 218.023438 C 382.917969 220.917969 382.074219 223.453125 381.292969 225.925781 C 380.507812 228.398438 379.964844 230.753906 379.84375 232.863281 C 379.722656 234.976562 380.144531 236.84375 380.6875 238.234375 C 381.230469 239.621094 381.953125 240.585938 382.558594 241.128906 C 383.101562 241.671875 383.523438 241.851562 383.582031 241.792969 C 383.765625 241.609375 382.496094 240.523438 381.835938 237.871094 C 381.472656 236.542969 381.351562 234.914062 381.53125 232.984375 C 381.773438 231.054688 382.4375 228.941406 383.28125 226.589844 C 385.152344 221.882812 387.144531 215.910156 388.109375 209.15625 C 388.652344 205.777344 388.832031 202.15625 389.195312 198.597656 C 389.554688 194.980469 390.21875 191.417969 391.367188 187.800781 C 393.71875 180.621094 397.578125 174.347656 401.921875 169.460938 C 406.265625 164.515625 411.03125 160.894531 415.316406 158.300781 C 419.597656 155.644531 423.339844 154.015625 425.933594 152.929688 C 428.527344 151.84375 430.035156 151.300781 429.972656 151.0625 C 429.914062 151 428.34375 151.183594 425.570312 151.90625 Z M 425.570312 151.90625 " fill-opacity="1" fill-rule="nonzero"/><path fill="#e4e4e7" d="M 366.570312 313.097656 C 368.140625 311.949219 370.554688 310.683594 373.8125 309.417969 C 375.4375 308.753906 377.25 308.152344 379.238281 307.304688 C 381.171875 306.523438 383.28125 305.554688 385.332031 304.109375 C 389.433594 301.273438 392.875 296.75 394.804688 291.441406 C 396.792969 286.132812 397.21875 280.640625 396.855469 275.875 C 396.492188 271.050781 395.46875 266.886719 394.441406 263.449219 C 392.269531 256.632812 390.339844 252.652344 389.976562 252.769531 C 389.554688 252.890625 390.824219 257.113281 392.390625 263.992188 C 393.175781 267.429688 393.960938 271.472656 394.140625 276.058594 C 394.382812 280.582031 393.839844 285.589844 392.027344 290.414062 C 390.28125 295.242188 387.261719 299.34375 383.765625 301.9375 C 380.207031 304.53125 376.222656 305.917969 372.964844 307.546875 C 369.707031 309.054688 367.234375 310.804688 365.789062 312.3125 C 364.339844 313.820312 363.917969 314.90625 364.039062 314.96875 C 364.277344 315.027344 365.003906 314.242188 366.570312 313.097656 Z M 366.570312 313.097656 " fill-opacity="1" fill-rule="nonzero"/><path fill="#e4e4e7" d="M 344.007812 313.398438 C 344.191406 313.277344 343.828125 312.191406 343.347656 310.140625 C 342.921875 308.089844 342.5625 305.132812 342.984375 301.453125 C 343.40625 297.773438 344.550781 293.492188 346.484375 288.90625 C 348.351562 284.320312 350.886719 279.375 352.878906 273.765625 C 354.867188 268.09375 355.773438 262.484375 356.375 257.417969 C 356.917969 252.347656 357.28125 247.824219 357.644531 244.085938 C 358.367188 236.542969 359.511719 231.957031 359.089844 231.835938 C 358.730469 231.71875 356.859375 236.179688 355.59375 243.78125 C 354.929688 247.582031 354.386719 252.109375 353.660156 257.054688 C 352.9375 262 351.972656 267.371094 350.101562 272.738281 C 348.171875 278.109375 345.699219 283.113281 343.949219 287.882812 C 342.078125 292.648438 341.054688 297.292969 340.933594 301.273438 C 340.75 305.253906 341.476562 308.453125 342.261719 310.441406 C 343.105469 312.492188 343.890625 313.460938 344.007812 313.398438 Z M 344.007812 313.398438 " fill-opacity="1" fill-rule="nonzero"/><path fill="#e4e4e7" d="M 323.859375 348.386719 C 324.34375 348.507812 324.945312 343.984375 328.808594 338.191406 C 330.738281 335.296875 333.390625 332.039062 336.648438 328.722656 C 339.90625 325.402344 343.828125 321.964844 347.6875 318.042969 C 351.550781 314.121094 354.929688 309.839844 357.101562 305.4375 C 359.273438 301.03125 360.296875 296.75 361.140625 293.308594 C 361.925781 289.871094 362.589844 287.035156 363.074219 285.105469 C 363.554688 283.175781 363.796875 282.089844 363.617188 282.027344 C 363.433594 281.96875 362.832031 282.875 361.988281 284.742188 C 361.140625 286.613281 360.238281 289.390625 359.152344 292.765625 C 358.066406 296.144531 356.859375 300.246094 354.6875 304.230469 C 352.515625 308.269531 349.316406 312.191406 345.578125 315.992188 C 341.835938 319.855469 337.976562 323.351562 334.660156 326.851562 C 331.402344 330.351562 328.746094 333.910156 326.996094 337.105469 C 325.1875 340.304688 324.28125 343.199219 323.921875 345.25 C 323.738281 346.277344 323.679688 347.0625 323.679688 347.605469 C 323.679688 348.085938 323.738281 348.328125 323.859375 348.386719 Z M 323.859375 348.386719 " fill-opacity="1" fill-rule="nonzero"/><path fill="#e4e4e7" d="M 368.019531 296.207031 C 365.484375 300.066406 363.976562 302.539062 364.277344 302.78125 C 364.582031 303.023438 366.691406 301.03125 369.707031 297.414062 C 371.214844 295.601562 372.90625 293.308594 374.472656 290.59375 C 376.042969 287.882812 377.550781 284.625 378.273438 280.945312 C 379.058594 277.261719 378.878906 273.644531 378.578125 270.566406 C 378.214844 267.492188 377.792969 264.714844 377.371094 262.421875 C 376.464844 257.839844 375.621094 255.0625 375.199219 255.125 C 374.777344 255.183594 374.957031 258.078125 375.257812 262.726562 C 375.4375 265.015625 375.621094 267.792969 375.800781 270.808594 C 375.980469 273.824219 376.042969 277.082031 375.320312 280.339844 C 373.992188 286.914062 370.492188 292.34375 368.019531 296.207031 Z M 368.019531 296.207031 " fill-opacity="1" fill-rule="nonzero"/><path fill="#e4e4e7" d="M 359.996094 220.375 C 360.660156 219.773438 361.503906 218.6875 362.105469 217.058594 C 362.710938 215.429688 363.132812 213.378906 363.253906 210.964844 C 363.375 208.550781 363.3125 205.898438 363.433594 203.003906 C 363.675781 197.210938 364.398438 190.273438 366.269531 182.792969 C 367.175781 179.050781 368.320312 175.191406 369.828125 171.332031 C 371.335938 167.46875 373.027344 163.429688 375.320312 159.808594 C 377.671875 156.1875 380.6875 153.171875 383.886719 150.519531 C 387.082031 147.863281 390.398438 145.511719 393.539062 143.21875 C 399.8125 138.695312 405.601562 134.773438 410.667969 131.816406 C 413.203125 130.371094 415.496094 128.980469 417.546875 128.078125 C 419.597656 127.171875 421.46875 126.992188 422.917969 127.414062 C 424.363281 127.773438 425.328125 128.621094 425.8125 129.222656 C 426.292969 129.886719 426.476562 130.308594 426.597656 130.308594 C 426.65625 130.308594 426.714844 129.765625 426.355469 128.921875 C 425.933594 128.078125 424.96875 126.929688 423.277344 126.328125 C 421.589844 125.601562 419.234375 125.722656 416.945312 126.570312 C 414.652344 127.414062 412.296875 128.679688 409.644531 130.007812 C 404.394531 132.78125 398.363281 136.523438 391.96875 140.988281 C 388.773438 143.21875 385.394531 145.570312 382.074219 148.285156 C 378.757812 151 375.4375 154.199219 372.90625 158.179688 C 370.371094 162.160156 368.683594 166.261719 367.175781 170.304688 C 365.667969 174.347656 364.519531 178.328125 363.675781 182.1875 C 361.925781 189.910156 361.382812 197.03125 361.445312 202.941406 C 361.445312 205.957031 361.683594 208.613281 361.683594 210.90625 C 361.746094 213.195312 361.503906 215.128906 361.140625 216.636719 C 360.359375 219.710938 358.789062 220.917969 359.03125 221.101562 C 358.910156 221.160156 359.332031 220.980469 359.996094 220.375 Z M 359.996094 220.375 " fill-opacity="1" fill-rule="nonzero"/><path fill="#e4e4e7" d="M 413.925781 139.117188 C 410.667969 141.046875 406.207031 144.183594 401.378906 148.949219 C 396.554688 153.65625 391.425781 159.929688 386.839844 167.589844 C 382.257812 175.25 378.214844 184.242188 374.777344 193.894531 C 373.085938 198.71875 371.578125 203.484375 370.25 208.128906 C 368.925781 212.773438 367.957031 217.421875 367.597656 221.945312 C 367.296875 226.46875 367.476562 230.632812 367.296875 234.492188 C 367.175781 238.351562 366.753906 241.914062 366.210938 245.171875 C 365.0625 251.683594 363.375 256.753906 362.105469 260.191406 C 360.78125 263.628906 359.996094 265.558594 360.175781 265.679688 C 360.359375 265.742188 361.503906 264.050781 363.191406 260.671875 C 364.820312 257.296875 366.875 252.167969 368.320312 245.59375 C 369.042969 242.273438 369.585938 238.59375 369.828125 234.613281 C 370.070312 230.632812 370.011719 226.46875 370.371094 222.1875 C 370.734375 217.902344 371.757812 213.5 373.085938 208.914062 C 374.414062 204.328125 375.921875 199.625 377.609375 194.859375 C 380.988281 185.328125 384.851562 176.519531 389.195312 168.976562 C 393.539062 161.4375 398.363281 155.164062 402.886719 150.398438 C 407.414062 145.632812 411.636719 142.253906 414.589844 140.082031 C 417.609375 137.910156 419.355469 136.824219 419.234375 136.582031 C 419.117188 136.460938 417.183594 137.1875 413.925781 139.117188 Z M 413.925781 139.117188 " fill-opacity="1" fill-rule="nonzero"/><path fill="#e4e4e7" d="M 468.160156 150.578125 C 466.050781 147.742188 463.03125 144.96875 459.472656 142.855469 C 455.855469 140.683594 452.054688 139.476562 448.496094 138.875 C 444.933594 138.273438 441.675781 138.394531 439.023438 138.816406 C 433.652344 139.660156 430.820312 141.589844 431 141.890625 C 431.179688 142.375 434.195312 141.167969 439.265625 140.925781 C 444.210938 140.625 451.390625 141.53125 457.90625 145.390625 C 461.164062 147.320312 463.878906 149.671875 465.988281 152.269531 C 468.101562 154.800781 469.851562 157.394531 471.480469 159.445312 C 474.617188 163.667969 477.390625 165.660156 477.632812 165.359375 C 477.933594 165.058594 475.882812 162.644531 473.226562 158.238281 C 471.839844 156.066406 470.273438 153.414062 468.160156 150.578125 Z M 468.160156 150.578125 " fill-opacity="1" fill-rule="nonzero"/><path fill="#e4e4e7" d="M 434.738281 129.707031 C 437.273438 128.742188 440.472656 128.015625 444.03125 128.078125 C 447.589844 128.136719 451.449219 129.042969 455.070312 130.972656 C 458.691406 132.902344 461.464844 135.679688 463.695312 138.574219 C 465.929688 141.53125 467.917969 144.304688 469.488281 146.597656 C 472.683594 151.183594 473.710938 154.5 474.132812 154.4375 C 474.3125 154.378906 474.3125 153.472656 473.953125 151.90625 C 473.589844 150.335938 472.683594 148.105469 471.296875 145.570312 C 469.851562 143.039062 468.101562 140.203125 465.867188 137.003906 C 463.695312 133.867188 460.558594 130.550781 456.457031 128.4375 C 452.414062 126.265625 448.011719 125.300781 444.03125 125.421875 C 440.046875 125.542969 436.550781 126.570312 433.894531 127.894531 C 431.242188 129.164062 429.371094 130.730469 428.226562 131.878906 C 427.078125 133.023438 426.597656 133.867188 426.777344 133.988281 C 427.078125 134.230469 429.613281 131.695312 434.738281 129.707031 Z M 434.738281 129.707031 " fill-opacity="1" fill-rule="nonzero"/><path fill="#e4e4e7" d="M 484.871094 215.066406 C 486.136719 218.203125 487.101562 221.460938 486.921875 224.898438 C 486.800781 228.339844 485.898438 231.777344 485.050781 235.15625 C 484.628906 236.84375 484.269531 238.535156 484.027344 240.285156 C 483.90625 241.128906 483.785156 241.972656 483.785156 242.878906 C 483.726562 243.722656 483.664062 244.566406 483.726562 245.410156 C 483.84375 252.109375 486.015625 257.777344 488.070312 262.183594 C 490.238281 266.585938 492.410156 269.902344 493.980469 272.074219 C 495.550781 274.308594 496.574219 275.394531 496.753906 275.273438 C 496.9375 275.152344 496.273438 273.824219 495.007812 271.472656 C 493.738281 269.121094 491.867188 265.679688 490 261.335938 C 488.1875 256.992188 486.441406 251.566406 486.441406 245.410156 C 486.441406 244.628906 486.5 243.902344 486.558594 243.117188 C 486.621094 242.335938 486.742188 241.550781 486.863281 240.765625 C 487.101562 239.199219 487.527344 237.570312 487.949219 235.878906 C 488.792969 232.5625 489.816406 228.941406 489.9375 225.019531 C 490 223.089844 489.757812 221.101562 489.335938 219.230469 C 488.914062 217.359375 488.25 215.671875 487.585938 213.980469 C 486.257812 210.664062 484.75 207.769531 483.785156 204.8125 C 481.734375 198.960938 480.890625 193.351562 480.707031 188.585938 C 480.347656 179.113281 482.097656 173.261719 481.613281 173.140625 C 481.433594 173.082031 480.769531 174.46875 480.105469 177.121094 C 479.382812 179.777344 478.71875 183.699219 478.65625 188.585938 C 478.597656 193.46875 479.261719 199.382812 481.25 205.65625 C 482.15625 208.792969 483.664062 211.929688 484.871094 215.066406 Z M 484.871094 215.066406 " fill-opacity="1" fill-rule="nonzero"/><path fill="#e4e4e7" d="M 483.363281 296.328125 C 483.542969 296.386719 483.964844 295.964844 484.386719 295 C 484.8125 294.035156 485.234375 292.527344 485.171875 290.65625 C 485.171875 288.785156 484.8125 286.554688 483.964844 284.261719 C 483.183594 281.96875 482.035156 279.617188 481.011719 277.261719 C 478.839844 272.558594 477.992188 267.972656 477.691406 264.535156 C 477.332031 261.15625 477.449219 258.984375 476.96875 258.863281 C 476.605469 258.804688 475.761719 260.914062 475.582031 264.535156 C 475.339844 268.152344 476.003906 273.34375 478.296875 278.410156 C 479.382812 280.945312 480.589844 283.175781 481.433594 285.226562 C 482.277344 287.277344 482.820312 289.148438 483.0625 290.777344 C 483.664062 294.09375 482.941406 296.144531 483.363281 296.328125 Z M 483.363281 296.328125 " fill-opacity="1" fill-rule="nonzero"/><path fill="#e4e4e7" d="M 468.339844 269.601562 C 467.980469 269.480469 466.894531 271.050781 465.929688 273.945312 C 465.445312 275.394531 464.964844 277.261719 464.902344 279.375 C 464.902344 280.460938 464.964844 281.605469 465.203125 282.753906 C 465.445312 283.960938 465.929688 285.105469 466.472656 286.132812 C 466.953125 287.21875 467.496094 288.121094 467.859375 289.027344 C 468.222656 289.933594 468.460938 290.777344 468.644531 291.679688 C 469.003906 293.429688 469.003906 295.121094 468.945312 296.507812 C 468.765625 299.34375 468.339844 301.152344 468.765625 301.332031 C 469.125 301.453125 470.273438 299.886719 471.054688 296.808594 C 471.417969 295.300781 471.660156 293.371094 471.417969 291.199219 C 471.296875 290.113281 471.054688 289.027344 470.632812 287.882812 C 470.210938 286.796875 469.667969 285.769531 469.246094 284.742188 C 467.253906 281.003906 467.679688 277.144531 468.039062 274.308594 C 468.402344 271.59375 468.765625 269.78125 468.339844 269.601562 Z M 468.339844 269.601562 " fill-opacity="1" fill-rule="nonzero"/><path fill="#e4e4e7" d="M 458.507812 318.707031 C 458.871094 318.828125 459.714844 317.5 460.679688 315.148438 C 461.585938 312.796875 462.671875 309.355469 462.609375 305.253906 C 462.550781 303.203125 462.066406 301.273438 461.644531 299.703125 C 461.222656 298.136719 460.863281 296.808594 460.679688 295.664062 C 460.320312 293.429688 460.863281 292.042969 460.4375 291.800781 C 460.257812 291.679688 459.894531 291.921875 459.472656 292.585938 C 459.050781 293.25 458.691406 294.335938 458.570312 295.722656 C 458.449219 297.109375 458.691406 298.679688 458.929688 300.308594 C 459.234375 301.9375 459.535156 303.566406 459.59375 305.316406 C 459.714844 308.8125 458.992188 312.132812 458.628906 314.546875 C 458.265625 317.019531 458.148438 318.585938 458.507812 318.707031 Z M 458.507812 318.707031 " fill-opacity="1" fill-rule="nonzero"/><path fill="#e4e4e7" d="M 445.597656 340.0625 C 443.667969 337.105469 441.859375 333.847656 439.566406 330.652344 C 438.421875 329.023438 437.152344 327.515625 435.765625 326.1875 C 434.378906 324.859375 432.929688 323.59375 431.421875 322.507812 C 428.464844 320.277344 425.449219 318.464844 422.675781 316.71875 C 419.898438 314.96875 417.304688 313.277344 415.074219 311.46875 C 412.839844 309.660156 410.972656 307.789062 409.464844 305.859375 C 406.445312 302.058594 404.515625 298.4375 403.070312 296.085938 C 401.679688 293.671875 400.835938 292.34375 400.65625 292.40625 C 400.476562 292.464844 400.957031 293.972656 402.042969 296.566406 C 403.128906 299.160156 404.816406 302.902344 407.773438 307.125 C 409.28125 309.238281 411.152344 311.347656 413.445312 313.339844 C 415.738281 315.328125 418.390625 317.140625 421.167969 318.949219 C 426.65625 322.628906 432.929688 326.25 437.152344 332.339844 C 439.324219 335.359375 441.132812 338.613281 443.1875 341.632812 C 443.367188 341.871094 443.488281 342.113281 443.667969 342.355469 C 443.488281 342.355469 443.304688 342.355469 443.125 342.355469 C 441.738281 342.296875 439.6875 341.691406 437.878906 339.941406 C 436.972656 339.097656 436.066406 337.953125 435.101562 336.683594 C 434.136719 335.417969 433.050781 333.96875 431.785156 332.582031 C 429.191406 329.808594 425.992188 327.273438 422.433594 324.921875 C 418.875 322.570312 415.4375 320.578125 412.296875 318.769531 C 409.160156 316.957031 406.328125 315.328125 403.914062 314.003906 C 399.085938 311.40625 396.011719 309.960938 395.769531 310.261719 C 395.527344 310.625 398.242188 312.675781 402.828125 315.75 C 405.121094 317.320312 407.835938 319.070312 410.910156 321.058594 C 413.988281 323.050781 417.367188 325.101562 420.804688 327.335938 C 424.242188 329.625 427.320312 331.980469 429.855469 334.390625 C 431.121094 335.597656 432.144531 336.867188 433.230469 338.132812 C 434.316406 339.339844 435.402344 340.546875 436.550781 341.449219 C 438.902344 343.320312 441.558594 343.742188 443.246094 343.382812 C 443.667969 343.320312 443.96875 343.199219 444.273438 343.078125 C 445.902344 345.554688 447.589844 347.90625 449.15625 350.078125 C 451.148438 352.792969 453.078125 355.324219 454.949219 357.679688 C 453.199219 357.617188 450.363281 357.496094 446.746094 356.410156 C 443.789062 355.566406 440.289062 354.058594 436.609375 352.25 C 434.800781 351.34375 433.292969 350.199219 431.84375 348.507812 C 430.398438 346.820312 428.886719 344.890625 427.140625 343.078125 C 420.261719 335.78125 412.417969 331.015625 406.445312 328.421875 C 400.476562 325.824219 396.492188 325.164062 396.371094 325.464844 C 396.25 325.886719 399.933594 327.273438 405.542969 330.289062 C 411.09375 333.304688 418.390625 338.132812 424.96875 345.128906 C 426.65625 346.878906 428.042969 348.628906 429.671875 350.4375 C 430.457031 351.34375 431.363281 352.1875 432.386719 352.914062 C 433.351562 353.636719 434.4375 354.179688 435.402344 354.660156 C 439.386719 356.472656 443.003906 357.738281 446.261719 358.402344 C 449.519531 359.066406 452.234375 359.066406 454.042969 358.765625 C 454.648438 358.644531 455.128906 358.523438 455.550781 358.402344 C 457.121094 360.394531 458.628906 362.261719 460.015625 363.953125 C 463.214844 367.753906 465.6875 371.011719 468.039062 372.820312 C 470.332031 374.628906 472.023438 374.871094 472.082031 374.75 C 472.203125 374.507812 470.753906 373.90625 468.824219 371.976562 C 466.894531 370.105469 464.660156 366.726562 461.707031 362.683594 C 458.75 358.644531 455.191406 353.878906 451.449219 348.507812 C 449.460938 345.914062 447.527344 343.019531 445.597656 340.0625 Z M 445.597656 340.0625 " fill-opacity="1" fill-rule="nonzero"/><path fill="#e4e4e7" d="M 312.578125 366.0625 C 319.277344 358.160156 330.195312 348.75 341.777344 337.769531 C 344.671875 335.054688 347.449219 332.339844 350.34375 330.050781 C 353.179688 327.757812 356.136719 325.886719 359.210938 324.621094 C 365.363281 322.144531 371.640625 321.484375 376.765625 320.277344 C 381.953125 319.128906 385.996094 317.5625 388.652344 316.292969 C 391.304688 315.027344 392.632812 314.0625 392.570312 313.882812 C 392.453125 313.699219 390.941406 314.304688 388.230469 315.207031 C 385.453125 316.113281 381.472656 317.378906 376.40625 318.226562 C 373.8125 318.648438 370.976562 319.070312 367.957031 319.550781 C 364.882812 320.09375 361.625 320.757812 358.246094 322.085938 C 354.867188 323.351562 351.609375 325.402344 348.59375 327.757812 C 345.578125 330.109375 342.683594 332.824219 339.785156 335.539062 C 333.996094 341.027344 328.445312 346.214844 323.5 351.042969 C 318.550781 355.867188 314.269531 360.515625 311.011719 364.675781 C 307.753906 368.839844 305.519531 372.519531 304.195312 375.171875 C 303.53125 376.5 303.046875 377.527344 302.808594 378.25 C 302.566406 378.972656 302.445312 379.394531 302.503906 379.457031 C 302.925781 379.757812 305.761719 373.90625 312.578125 366.0625 Z M 312.578125 366.0625 " fill-opacity="1" fill-rule="nonzero"/><g clip-path="url(#e4c58fd65f)"><path fill="#e4e4e7" d="M 256.175781 424.277344 C 258.105469 422.527344 260.035156 420.839844 261.84375 419.210938 C 269.324219 412.574219 275.78125 406.421875 281.148438 401.054688 C 286.457031 395.746094 290.621094 391.28125 293.394531 388.082031 C 296.171875 384.945312 297.617188 383.074219 297.496094 382.953125 C 297.316406 382.835938 295.628906 384.402344 292.550781 387.296875 C 289.472656 390.195312 285.132812 394.417969 279.640625 399.542969 C 274.152344 404.671875 267.515625 410.644531 260.035156 417.101562 C 258.164062 418.726562 256.234375 420.417969 254.242188 422.105469 C 253.277344 422.953125 252.253906 423.855469 251.289062 424.699219 C 250.261719 425.546875 249.296875 426.449219 248.273438 427.414062 C 244.289062 431.15625 240.429688 435.316406 236.808594 439.84375 C 229.511719 448.832031 223.71875 458.363281 219.554688 467.472656 C 218.53125 469.765625 217.566406 471.996094 216.660156 474.226562 C 216.238281 475.375 215.816406 476.582031 215.636719 477.847656 C 215.453125 479.175781 215.636719 480.625 216.179688 481.769531 C 217.265625 484.183594 219.132812 485.691406 220.761719 486.957031 C 222.390625 488.164062 224.019531 489.371094 225.527344 490.457031 C 231.5625 494.921875 236.507812 498.480469 240.007812 500.894531 C 243.445312 503.304688 245.4375 504.574219 245.558594 504.390625 C 245.679688 504.210938 243.929688 502.640625 240.730469 499.988281 C 237.472656 497.273438 232.769531 493.472656 226.855469 488.828125 C 225.40625 487.679688 223.839844 486.476562 222.269531 485.207031 C 220.761719 483.941406 219.253906 482.554688 218.53125 480.863281 C 218.230469 480.019531 218.109375 479.175781 218.230469 478.210938 C 218.351562 477.246094 218.710938 476.28125 219.195312 475.195312 C 220.097656 473.082031 221.066406 470.851562 222.152344 468.617188 C 226.375 459.75 232.105469 450.460938 239.222656 441.652344 C 242.78125 437.25 246.582031 433.207031 250.382812 429.464844 C 251.347656 428.5 252.3125 427.65625 253.339844 426.75 C 254.242188 425.96875 255.210938 425.121094 256.175781 424.277344 Z M 256.175781 424.277344 " fill-opacity="1" fill-rule="nonzero"/></g><path fill="#e4e4e7" d="M 329.589844 433.144531 C 334.660156 427.777344 337.433594 424.15625 337.132812 423.855469 C 336.46875 423.253906 323.921875 436.34375 306.546875 450.339844 C 289.234375 464.394531 273.789062 473.925781 274.273438 474.710938 C 274.453125 475.074219 278.617188 473.082031 284.890625 469.28125 C 291.222656 465.480469 299.667969 459.75 308.417969 452.691406 C 317.164062 445.574219 324.585938 438.515625 329.589844 433.144531 Z M 329.589844 433.144531 " fill-opacity="1" fill-rule="nonzero"/><path fill="#e4e4e7" d="M 297.195312 492.085938 C 301.359375 496.125 306.546875 500.710938 312.640625 505.355469 C 315.714844 507.648438 318.972656 510.003906 322.472656 512.292969 C 325.972656 514.585938 329.710938 516.757812 333.269531 519.171875 C 335.082031 520.378906 336.769531 521.644531 338.339844 522.972656 C 339.90625 524.300781 341.355469 525.746094 342.804688 527.253906 C 344.25 528.703125 345.757812 530.210938 347.265625 531.539062 C 348.773438 532.867188 350.34375 534.132812 351.851562 535.339844 C 357.882812 540.042969 363.3125 544.207031 368.140625 547.464844 C 372.964844 550.722656 377.066406 553.015625 380.023438 554.339844 C 382.980469 555.730469 384.667969 556.273438 384.789062 556.089844 C 384.972656 555.667969 378.515625 552.59375 369.347656 545.714844 C 364.761719 542.335938 359.453125 537.992188 353.539062 533.167969 C 350.585938 530.753906 347.6875 528.21875 344.855469 525.203125 C 343.40625 523.695312 341.898438 522.128906 340.207031 520.738281 C 338.519531 519.292969 336.710938 517.964844 334.898438 516.699219 C 331.160156 514.226562 327.480469 512.054688 324.042969 509.820312 C 320.601562 507.589844 317.285156 505.355469 314.269531 503.125 C 308.175781 498.660156 302.925781 494.316406 298.644531 490.515625 C 290.078125 482.914062 285.3125 477.605469 284.949219 477.910156 C 284.828125 478.027344 285.792969 479.539062 287.90625 482.011719 C 289.898438 484.542969 293.035156 487.984375 297.195312 492.085938 Z M 297.195312 492.085938 " fill-opacity="1" fill-rule="nonzero"/><path fill="#e4e4e7" d="M 346.300781 566.828125 C 351.1875 570.085938 354.566406 573.40625 356.558594 576 C 358.546875 578.59375 359.332031 580.28125 359.574219 580.160156 C 359.753906 580.101562 359.273438 578.230469 357.523438 575.335938 C 355.773438 572.441406 352.394531 568.699219 347.507812 565.140625 C 342.683594 561.519531 336.46875 558.082031 329.710938 554.039062 C 326.332031 552.050781 322.773438 550 319.035156 547.828125 C 315.355469 545.714844 311.492188 543.484375 307.332031 541.492188 C 305.28125 540.464844 303.167969 539.621094 300.996094 538.835938 C 298.824219 538.054688 296.714844 537.511719 294.722656 536.847656 C 290.800781 535.699219 287.421875 533.589844 284.226562 531.359375 C 277.832031 526.894531 272.222656 522.550781 267.636719 518.871094 C 258.46875 511.390625 253.039062 506.382812 252.734375 506.683594 C 252.617188 506.804688 253.761719 508.253906 256.054688 510.664062 C 258.347656 513.078125 261.785156 516.457031 266.25 520.4375 C 270.714844 524.417969 276.203125 528.882812 282.597656 533.589844 C 285.792969 535.882812 289.535156 538.234375 293.816406 539.5625 C 295.929688 540.226562 297.980469 540.769531 299.972656 541.550781 C 301.960938 542.277344 304.011719 543.121094 306.003906 544.085938 C 310.046875 546.015625 313.847656 548.1875 317.585938 550.300781 C 321.328125 552.410156 324.886719 554.402344 328.324219 556.332031 C 335.203125 560.253906 341.476562 563.511719 346.300781 566.828125 Z M 346.300781 566.828125 " fill-opacity="1" fill-rule="nonzero"/><path fill="#e4e4e7" d="M 339.847656 431.878906 C 339.546875 432.121094 343.648438 437.429688 350.34375 445.816406 C 351.972656 447.925781 353.660156 450.277344 354.625 453.054688 C 355.652344 455.828125 355.773438 459.085938 355.894531 462.644531 C 356.195312 469.765625 356.617188 477.605469 357.039062 485.8125 C 357.28125 489.914062 357.460938 493.894531 357.765625 497.816406 C 358.066406 501.738281 358.667969 505.660156 360.359375 509.15625 C 361.988281 512.597656 364.460938 515.371094 367.175781 517.363281 C 369.890625 519.351562 372.90625 520.378906 375.4375 521.222656 C 385.695312 524.539062 392.089844 526.410156 392.269531 525.988281 C 392.390625 525.625 386.238281 523.03125 376.164062 519.230469 C 373.691406 518.265625 371.035156 517.179688 368.683594 515.371094 C 366.332031 513.5625 364.21875 511.027344 362.890625 508.011719 C 361.503906 504.996094 360.960938 501.4375 360.71875 497.636719 C 360.539062 493.773438 360.296875 489.792969 360.054688 485.691406 C 359.574219 477.484375 359.152344 469.644531 358.667969 462.523438 C 358.425781 459.027344 358.246094 455.40625 356.980469 452.210938 C 355.710938 449.011719 353.78125 446.597656 352.03125 444.546875 C 344.792969 436.402344 340.148438 431.636719 339.847656 431.878906 Z M 339.847656 431.878906 " fill-opacity="1" fill-rule="nonzero"/><path fill="#e4e4e7" d="M 387.566406 576.359375 C 389.855469 578.835938 392.632812 580.523438 395.105469 582.03125 C 397.640625 583.539062 400.050781 584.925781 401.984375 586.554688 C 406.023438 589.8125 408.800781 593.675781 410.972656 597.050781 C 413.082031 600.429688 414.652344 603.386719 415.738281 605.316406 C 416.824219 607.308594 417.546875 608.394531 417.726562 608.273438 C 417.910156 608.214844 417.605469 606.945312 416.761719 604.835938 C 415.980469 602.664062 414.710938 599.585938 412.722656 595.96875 C 410.730469 592.347656 408.015625 588.0625 403.671875 584.382812 C 399.390625 580.644531 393.597656 578.472656 389.617188 574.308594 C 387.625 572.199219 386.238281 569.726562 386.058594 567.25 C 385.816406 564.839844 387.023438 562.246094 387.625 559.46875 C 388.890625 553.980469 388.710938 548.914062 387.988281 544.808594 C 387.261719 540.707031 385.996094 537.511719 384.910156 535.460938 C 383.824219 533.410156 382.980469 532.382812 382.859375 532.503906 C 382.378906 532.746094 385.03125 537.210938 385.9375 545.113281 C 386.359375 549.03125 386.296875 553.796875 384.972656 558.867188 C 384.667969 560.132812 384.246094 561.339844 383.824219 562.789062 C 383.402344 564.175781 383.039062 565.804688 383.160156 567.554688 C 383.460938 570.871094 385.273438 573.949219 387.566406 576.359375 Z M 387.566406 576.359375 " fill-opacity="1" fill-rule="nonzero"/><path fill="#e4e4e7" d="M 369.585938 605.195312 C 374.355469 602.058594 378.757812 600.429688 381.773438 599.40625 C 382.558594 599.164062 383.222656 598.921875 383.824219 598.742188 C 384.429688 598.5625 384.910156 598.441406 385.332031 598.320312 C 386.175781 598.078125 386.601562 597.898438 386.539062 597.777344 C 386.539062 597.65625 386.058594 597.65625 385.210938 597.714844 C 384.789062 597.777344 384.246094 597.777344 383.644531 597.898438 C 383.039062 598.019531 382.316406 598.136719 381.472656 598.320312 C 378.273438 599.042969 373.628906 600.429688 368.5 603.445312 C 363.375 606.402344 357.765625 610.925781 352.816406 616.960938 C 351.972656 617.984375 351.1875 619.070312 350.34375 620.15625 C 350.34375 620.035156 350.285156 619.917969 350.285156 619.796875 C 350.101562 618.289062 350.042969 616.054688 350.707031 613.402344 C 351.371094 610.746094 352.695312 607.789062 354.867188 604.894531 C 357.039062 602 359.9375 599.164062 363.132812 596.148438 C 366.332031 593.132812 369.347656 590.113281 371.640625 586.917969 C 373.929688 583.71875 375.378906 580.28125 375.921875 577.386719 C 376.523438 574.492188 376.585938 572.136719 376.585938 570.507812 C 376.523438 568.878906 376.40625 567.976562 376.222656 567.976562 C 376.042969 567.976562 375.742188 568.820312 375.4375 570.386719 C 375.078125 571.957031 374.714844 574.25 373.929688 576.84375 C 373.148438 579.496094 371.699219 582.394531 369.46875 585.289062 C 367.234375 588.183594 364.339844 591.019531 361.140625 593.976562 C 357.945312 596.992188 354.929688 600.007812 352.695312 603.265625 C 350.464844 606.523438 349.078125 609.960938 348.65625 612.980469 C 348.171875 615.996094 348.59375 618.46875 349.136719 620.035156 C 349.316406 620.460938 349.4375 620.820312 349.621094 621.121094 C 346 626.371094 342.984375 632.523438 340.691406 639.222656 C 340.570312 639.582031 340.449219 639.945312 340.328125 640.367188 C 340.269531 640.246094 340.269531 640.125 340.207031 640.125 C 339.726562 640.066406 339.484375 645.132812 336.46875 652.492188 C 335.019531 656.171875 332.910156 660.457031 330.4375 665.160156 C 328.023438 669.925781 325.308594 675.234375 323.316406 681.207031 C 321.328125 687.121094 320.121094 693.03125 319.515625 698.402344 C 319.277344 701.117188 319.035156 703.648438 319.214844 706.183594 C 319.335938 707.449219 319.578125 708.65625 319.9375 709.800781 C 320.300781 710.949219 320.785156 711.914062 321.265625 712.878906 C 322.292969 714.75 323.316406 716.257812 324.164062 717.585938 C 325.066406 718.910156 325.730469 720.058594 326.273438 721.023438 C 327.300781 722.953125 327.660156 724.160156 327.902344 724.101562 C 328.082031 724.101562 328.144531 722.773438 327.359375 720.539062 C 326.996094 719.453125 326.394531 718.128906 325.609375 716.738281 C 324.886719 715.292969 323.980469 713.722656 323.136719 711.972656 C 322.351562 710.164062 321.6875 708.234375 321.628906 706.0625 C 321.507812 703.828125 321.871094 701.355469 322.171875 698.761719 C 322.894531 693.574219 324.101562 687.902344 326.09375 682.171875 C 328.023438 676.441406 330.558594 671.253906 332.847656 666.429688 C 334.054688 663.894531 335.140625 661.480469 336.105469 659.1875 C 335.925781 660.816406 335.746094 662.445312 335.5625 664.015625 C 334.839844 671.796875 335.140625 678.734375 334.660156 684.40625 C 334.238281 690.136719 333.03125 694.601562 332.246094 697.738281 C 331.402344 700.875 330.980469 702.625 331.160156 702.683594 C 331.339844 702.746094 332.125 701.117188 333.332031 698.097656 C 334.476562 695.082031 336.046875 690.496094 336.710938 684.585938 C 337.433594 678.734375 337.433594 671.796875 338.277344 664.257812 C 339.0625 656.714844 340.570312 648.449219 343.347656 640.1875 C 346.121094 631.921875 350.042969 624.5 354.746094 618.648438 C 359.632812 612.738281 364.820312 608.273438 369.585938 605.195312 Z M 369.585938 605.195312 " fill-opacity="1" fill-rule="nonzero"/><path fill="#e4e4e7" d="M 375.257812 622.933594 C 377.851562 620.339844 380.386719 618.167969 382.859375 616.296875 C 387.804688 612.554688 392.269531 610.203125 395.40625 608.695312 C 396.976562 607.910156 398.242188 607.367188 399.027344 607.007812 C 399.871094 606.585938 400.292969 606.34375 400.234375 606.222656 C 400.171875 606.101562 399.691406 606.222656 398.785156 606.402344 C 397.878906 606.644531 396.554688 606.945312 394.863281 607.609375 C 391.546875 608.816406 386.78125 610.925781 381.53125 614.546875 C 378.878906 616.355469 376.164062 618.527344 373.386719 621.121094 C 370.613281 623.65625 367.957031 626.671875 365.425781 630.113281 C 362.890625 633.488281 360.539062 637.351562 358.609375 641.511719 C 356.617188 645.675781 355.109375 650.261719 353.902344 654.964844 C 352.636719 659.671875 351.730469 664.257812 350.765625 668.71875 C 349.859375 673.183594 349.078125 677.589844 349.015625 681.871094 C 348.957031 686.15625 349.5 690.195312 350.222656 693.875 C 350.945312 697.554688 351.730469 700.875 352.335938 703.949219 C 352.9375 707.027344 353.359375 709.800781 353.601562 712.214844 C 353.84375 714.6875 353.78125 716.738281 353.660156 718.488281 C 353.480469 720.179688 353.300781 721.566406 353.117188 722.410156 C 352.9375 723.316406 352.9375 723.796875 353 723.859375 C 353.117188 723.917969 353.300781 723.4375 353.660156 722.589844 C 354.082031 721.746094 354.445312 720.359375 354.808594 718.609375 C 355.109375 716.859375 355.351562 714.628906 355.289062 712.09375 C 355.230469 709.5625 354.929688 706.664062 354.445312 703.527344 C 353.964844 700.390625 353.300781 697.011719 352.695312 693.394531 C 352.09375 689.773438 351.671875 685.914062 351.792969 681.933594 C 351.972656 677.890625 352.695312 673.667969 353.660156 669.324219 C 354.625 664.917969 355.59375 660.335938 356.796875 655.75 C 358.003906 651.164062 359.453125 646.761719 361.324219 642.78125 C 363.132812 638.738281 365.363281 635.058594 367.71875 631.742188 C 370.128906 628.484375 372.664062 625.527344 375.257812 622.933594 Z M 375.257812 622.933594 " fill-opacity="1" fill-rule="nonzero"/><path fill="#e4e4e7" d="M 401.621094 621.546875 C 401.863281 620.941406 402.105469 620.460938 402.34375 619.976562 C 406.207031 615.390625 409.160156 613.339844 408.980469 613.039062 C 408.859375 612.859375 407.472656 613.523438 405.242188 615.210938 C 403.007812 616.898438 400.050781 619.613281 396.976562 623.535156 C 396.191406 624.5 395.46875 625.585938 394.683594 626.671875 C 393.960938 627.820312 393.113281 628.964844 392.332031 630.171875 C 391.605469 631.4375 390.882812 632.765625 390.097656 634.09375 C 389.3125 635.421875 388.710938 636.929688 387.925781 638.375 C 385.089844 644.289062 382.679688 651.105469 380.628906 658.34375 C 378.578125 665.582031 377.007812 672.519531 375.558594 678.855469 C 374.113281 685.1875 372.785156 690.800781 371.578125 695.503906 C 369.164062 704.914062 367.054688 710.648438 367.476562 710.765625 C 367.777344 710.886719 370.613281 705.457031 373.570312 696.046875 C 375.078125 691.34375 376.644531 685.730469 378.214844 679.457031 C 379.84375 673.183594 381.472656 666.246094 383.523438 659.128906 C 385.574219 652.007812 387.867188 645.3125 390.460938 639.523438 C 391.125 638.074219 391.726562 636.625 392.453125 635.300781 C 393.175781 633.972656 393.839844 632.644531 394.503906 631.4375 C 395.226562 630.230469 395.949219 629.085938 396.613281 627.941406 C 397.277344 626.792969 397.941406 625.769531 398.664062 624.742188 C 398.726562 624.683594 398.726562 624.621094 398.785156 624.5625 C 397.820312 626.792969 396.855469 629.507812 396.25 632.707031 C 395.769531 635.359375 395.46875 638.316406 395.589844 641.453125 C 395.710938 644.589844 396.191406 647.90625 396.554688 651.285156 C 396.914062 654.664062 396.914062 658.101562 396.554688 661.78125 C 396.191406 665.460938 395.589844 669.324219 395.046875 673.246094 C 393.960938 681.148438 392.8125 688.566406 391.425781 695.324219 C 390.039062 702.019531 388.410156 707.992188 386.78125 712.878906 C 383.460938 722.652344 380.085938 728.203125 380.507812 728.441406 C 380.6875 728.5625 381.714844 727.296875 383.28125 724.761719 C 384.851562 722.230469 386.839844 718.488281 388.773438 713.542969 C 390.703125 708.65625 392.632812 702.625 394.140625 695.867188 C 395.710938 689.109375 396.914062 681.570312 398 673.667969 C 398.542969 669.746094 399.085938 665.882812 399.449219 662.085938 C 399.8125 658.285156 399.75 654.484375 399.269531 650.984375 C 398.847656 647.484375 398.242188 644.289062 398.0625 641.332031 C 397.820312 638.375 398 635.601562 398.363281 633.066406 C 399.027344 628.121094 400.476562 624.199219 401.621094 621.546875 Z M 401.621094 621.546875 " fill-opacity="1" fill-rule="nonzero"/><path fill="#e4e4e7" d="M 414.589844 631.4375 C 416.640625 630.835938 419.476562 629.75 422.375 628.058594 C 425.269531 626.371094 427.5625 624.261719 428.886719 622.449219 C 430.214844 620.640625 430.636719 619.3125 430.335938 619.070312 C 429.972656 618.832031 428.949219 619.734375 427.378906 621.003906 C 425.8125 622.269531 423.519531 623.898438 420.863281 625.527344 C 418.152344 627.09375 415.617188 628.484375 413.808594 629.570312 C 411.996094 630.65625 410.910156 631.5 411.09375 631.859375 C 411.210938 632.164062 412.539062 632.042969 414.589844 631.4375 Z M 414.589844 631.4375 " fill-opacity="1" fill-rule="nonzero"/><path fill="#e4e4e7" d="M 435.402344 674.753906 C 434.378906 672.039062 433.292969 669.445312 432.265625 667.03125 C 430.15625 662.203125 428.34375 657.921875 427.199219 654.179688 C 424.785156 646.699219 425.207031 641.753906 424.726562 641.753906 C 424.605469 641.753906 424.484375 642.054688 424.363281 642.660156 C 424.242188 643.261719 424.121094 644.105469 424.0625 645.253906 C 423.941406 647.546875 424.183594 650.863281 425.148438 654.785156 C 426.113281 658.707031 427.742188 663.230469 429.734375 668.117188 C 430.699219 670.53125 431.722656 673.125 432.6875 675.777344 C 433.59375 678.433594 434.4375 681.148438 434.621094 683.984375 C 434.800781 686.214844 434.558594 688.445312 434.136719 690.679688 C 433.714844 692.910156 433.171875 695.082031 432.6875 697.195312 C 431.664062 701.417969 430.699219 705.398438 429.914062 708.898438 C 428.285156 715.957031 427.140625 721.445312 426.714844 724.339844 C 426.65625 724.824219 426.171875 725.183594 425.992188 725.304688 C 425.8125 725.425781 425.75 725.183594 425.691406 725.183594 C 425.628906 725.183594 425.628906 725.246094 425.570312 725.367188 C 425.570312 725.425781 425.570312 725.546875 425.628906 725.609375 C 425.691406 725.726562 425.871094 725.789062 425.992188 725.789062 C 426.292969 725.789062 426.535156 725.726562 426.835938 725.546875 C 427.140625 725.367188 427.441406 725.066406 427.621094 724.640625 C 428.648438 721.867188 430.277344 716.558594 432.265625 709.5625 C 433.230469 706.0625 434.316406 702.140625 435.464844 697.917969 C 436.066406 695.804688 436.609375 693.636719 437.09375 691.28125 C 437.574219 688.929688 437.878906 686.394531 437.636719 683.800781 C 437.335938 680.484375 436.429688 677.46875 435.402344 674.753906 Z M 435.402344 674.753906 " fill-opacity="1" fill-rule="nonzero"/><path fill="#e4e4e7" d="M 425.628906 659.972656 C 426.054688 659.25 422.554688 656.234375 418.332031 652.554688 C 415.980469 650.5 413.867188 648.570312 412.359375 647.425781 C 412.238281 647.304688 412.117188 647.125 412.058594 647.003906 C 414.167969 646.519531 416.460938 645.675781 418.875 644.53125 C 421.710938 643.140625 424.546875 641.210938 427.257812 638.917969 C 432.6875 634.214844 436.367188 628.84375 438.722656 624.863281 C 438.78125 624.804688 438.78125 624.742188 438.78125 624.683594 C 441.675781 623.292969 446.019531 621.847656 451.570312 621.425781 C 453.019531 621.304688 454.527344 621.304688 456.09375 621.363281 C 457.664062 621.425781 459.351562 621.546875 461.042969 621.664062 C 464.480469 621.90625 468.222656 622.207031 472.082031 622.511719 C 479.863281 623.054688 488.492188 623.65625 497.660156 623.113281 C 506.769531 622.570312 515.457031 620.640625 522.757812 617.261719 C 526.375 615.511719 529.574219 613.28125 532.105469 610.566406 C 533.375 609.238281 534.398438 607.789062 535.242188 606.28125 C 536.027344 604.773438 536.632812 603.207031 536.933594 601.636719 C 537.054688 600.851562 537.175781 600.070312 537.234375 599.34375 C 537.292969 598.621094 537.292969 597.957031 537.355469 597.292969 C 537.414062 596.027344 537.71875 595 538.261719 594.15625 C 539.40625 592.347656 541.09375 591.082031 542.179688 589.875 C 542.785156 589.269531 543.207031 588.605469 543.570312 588.0625 C 543.871094 587.460938 544.113281 586.917969 544.171875 586.433594 C 544.171875 586.195312 544.230469 586.011719 544.230469 585.832031 C 544.230469 585.652344 544.230469 585.53125 544.171875 585.410156 C 544.113281 585.167969 544.113281 585.046875 544.050781 585.046875 C 543.992188 585.046875 543.929688 585.167969 543.871094 585.347656 C 543.808594 585.46875 543.808594 585.589844 543.75 585.710938 C 543.6875 585.832031 543.628906 586.011719 543.570312 586.195312 C 543.265625 586.976562 542.542969 587.945312 541.335938 588.96875 C 540.734375 589.511719 540.007812 590.054688 539.226562 590.71875 C 538.441406 591.382812 537.597656 592.105469 536.8125 593.191406 C 536.449219 593.734375 536.089844 594.339844 535.847656 595 C 535.605469 595.664062 535.484375 596.390625 535.425781 597.050781 C 535.363281 597.714844 535.304688 598.378906 535.242188 599.105469 C 535.183594 599.765625 535.003906 600.429688 534.882812 601.09375 C 534.519531 602.421875 533.976562 603.75 533.253906 605.074219 C 532.46875 606.34375 531.503906 607.609375 530.355469 608.757812 C 528.003906 611.109375 524.988281 613.097656 521.609375 614.667969 C 514.671875 617.683594 506.347656 619.554688 497.480469 620.035156 C 488.613281 620.578125 480.046875 620.097656 472.261719 619.675781 C 468.402344 619.433594 464.660156 619.253906 461.164062 619.070312 C 459.414062 619.011719 457.785156 618.949219 456.09375 618.949219 C 454.464844 618.949219 452.839844 619.070312 451.328125 619.253906 C 446.503906 619.796875 442.644531 621.183594 439.808594 622.632812 C 441.253906 619.855469 441.859375 618.046875 441.617188 617.863281 C 441.253906 617.625 439.566406 619.976562 436.910156 623.597656 C 436.429688 624.199219 435.945312 624.863281 435.402344 625.527344 C 434.316406 626.429688 433.894531 627.09375 433.957031 627.15625 C 433.957031 627.15625 434.015625 627.15625 434.136719 627.15625 C 431.785156 630.113281 428.828125 633.429688 425.269531 636.507812 C 420.203125 640.96875 414.652344 643.746094 410.488281 645.074219 C 406.328125 646.460938 403.550781 645.917969 403.429688 646.339844 C 403.371094 646.519531 404.035156 646.941406 405.359375 647.242188 C 406.507812 647.484375 408.195312 647.546875 410.1875 647.242188 C 410.429688 647.726562 410.730469 648.328125 411.210938 648.992188 C 411.9375 651.164062 413.023438 654.242188 413.808594 657.863281 C 415.316406 664.375 415.253906 669.867188 416.097656 669.988281 C 416.523438 670.046875 417.003906 668.660156 417.304688 666.308594 C 417.546875 664.015625 417.488281 660.695312 416.703125 657.199219 C 416.460938 656.113281 416.160156 655.085938 415.859375 654.179688 C 416.039062 654.363281 416.21875 654.484375 416.402344 654.664062 C 420.804688 658.644531 425.207031 660.636719 425.628906 659.972656 Z M 425.628906 659.972656 " fill-opacity="1" fill-rule="nonzero"/><path fill="#e4e4e7" d="M 526.917969 590.839844 C 522.757812 592.890625 517.871094 595.363281 512.320312 597.777344 C 506.769531 600.191406 500.554688 602.542969 493.738281 603.628906 C 490.359375 604.171875 487.042969 604.351562 483.785156 604.171875 C 480.589844 603.988281 477.449219 603.445312 474.433594 602.964844 C 468.460938 601.878906 462.851562 600.914062 458.085938 601.15625 C 453.320312 601.277344 449.519531 602.421875 447.167969 603.628906 C 444.816406 604.835938 443.789062 605.980469 443.847656 606.101562 C 443.96875 606.28125 445.238281 605.558594 447.589844 604.714844 C 449.941406 603.871094 453.5625 603.144531 458.085938 603.265625 C 462.609375 603.328125 467.917969 604.414062 473.890625 605.679688 C 476.90625 606.28125 480.105469 606.886719 483.542969 607.128906 C 486.984375 607.367188 490.542969 607.1875 494.160156 606.644531 C 501.339844 605.5 507.796875 602.964844 513.40625 600.371094 C 519.015625 597.714844 523.84375 595.0625 527.882812 592.769531 C 531.925781 590.476562 535.0625 588.246094 536.992188 586.496094 C 538.140625 585.46875 538.921875 584.625 539.285156 584.082031 C 539.527344 584.023438 539.828125 583.960938 540.070312 583.902344 C 544.113281 582.816406 546.164062 581.789062 546.101562 581.609375 C 546.042969 581.367188 543.808594 582.03125 539.769531 582.753906 C 535.726562 583.480469 529.8125 584.261719 522.574219 583.71875 C 518.957031 583.480469 515.035156 582.875 510.871094 581.789062 C 506.769531 580.703125 502.546875 579.015625 498.144531 576.964844 C 493.738281 574.914062 489.15625 572.558594 484.148438 570.507812 C 481.613281 569.484375 479.019531 568.578125 476.304688 567.855469 C 473.53125 567.128906 470.695312 566.769531 467.917969 566.40625 C 456.757812 565.140625 446.324219 562.96875 436.851562 560.617188 C 427.378906 558.261719 418.933594 555.851562 411.816406 553.917969 C 404.699219 551.988281 398.964844 550.359375 395.105469 548.972656 C 391.246094 547.585938 389.132812 546.679688 389.074219 546.859375 C 389.011719 547.042969 390.882812 548.308594 394.683594 550.058594 C 398.484375 551.808594 404.214844 553.738281 411.210938 555.96875 C 418.269531 558.203125 426.65625 560.796875 436.1875 563.332031 C 445.660156 565.804688 456.277344 568.15625 467.558594 569.421875 C 470.332031 569.785156 473.046875 570.148438 475.582031 570.75 C 478.175781 571.414062 480.648438 572.257812 483.0625 573.222656 C 487.886719 575.152344 492.472656 577.445312 496.996094 579.4375 C 497.902344 579.859375 498.804688 580.222656 499.710938 580.644531 C 499.53125 580.703125 499.289062 580.824219 498.988281 580.945312 C 496.875 581.246094 494.222656 581.667969 491.085938 581.972656 C 487.042969 582.394531 482.15625 582.695312 476.90625 581.851562 C 474.3125 581.429688 471.597656 580.703125 468.703125 579.859375 C 465.867188 579.015625 462.851562 578.109375 459.59375 577.566406 C 453.078125 576.480469 446.867188 576.964844 441.375 577.867188 C 435.886719 578.773438 431.058594 580.101562 427.078125 581.246094 C 423.097656 582.332031 419.839844 583.417969 417.667969 584.503906 C 415.554688 585.589844 414.53125 586.496094 414.652344 586.617188 C 414.773438 586.796875 415.917969 586.253906 418.089844 585.53125 C 420.261719 584.804688 423.460938 584.144531 427.5625 583.238281 C 431.601562 582.394531 436.429688 581.308594 441.738281 580.523438 C 447.046875 579.800781 453.019531 579.4375 459.050781 580.402344 C 465.085938 581.429688 470.753906 583.71875 476.425781 584.445312 C 482.097656 585.167969 487.164062 584.6875 491.265625 583.960938 C 492.652344 583.71875 493.921875 583.480469 495.066406 583.238281 C 494.34375 583.71875 493.558594 584.203125 492.652344 584.804688 C 490.542969 586.195312 487.949219 587.761719 484.992188 589.089844 C 483.484375 589.753906 481.914062 590.355469 480.226562 590.839844 C 478.535156 591.320312 476.789062 591.625 474.917969 591.683594 C 471.296875 591.863281 467.617188 591.019531 464.117188 590.71875 C 460.621094 590.355469 457.300781 590.777344 454.769531 591.503906 C 452.175781 592.226562 450.242188 593.253906 449.039062 594.097656 C 447.832031 594.941406 447.226562 595.542969 447.347656 595.726562 C 447.589844 596.148438 450.363281 594.457031 455.25 593.613281 C 457.664062 593.191406 460.558594 593.011719 463.816406 593.492188 C 467.074219 593.855469 470.816406 594.820312 475.039062 594.699219 C 477.148438 594.640625 479.140625 594.21875 481.011719 593.675781 C 482.878906 593.132812 484.628906 592.40625 486.199219 591.5625 C 489.335938 589.996094 491.867188 588.125 493.921875 586.496094 C 495.910156 584.867188 497.480469 583.417969 498.503906 582.394531 C 499.410156 582.152344 500.195312 581.910156 500.917969 581.730469 C 501.28125 581.609375 501.640625 581.488281 501.945312 581.429688 C 504.71875 582.515625 507.492188 583.417969 510.207031 584.082031 C 514.550781 585.109375 518.652344 585.589844 522.394531 585.710938 C 528.726562 585.953125 533.976562 585.167969 537.898438 584.261719 C 537.414062 584.625 536.871094 584.988281 536.148438 585.46875 C 534.21875 586.976562 531.082031 588.789062 526.917969 590.839844 Z M 500.074219 580.703125 C 500.074219 580.644531 500.074219 580.644531 500.074219 580.582031 C 500.132812 580.582031 500.195312 580.644531 500.253906 580.644531 C 500.195312 580.703125 500.132812 580.703125 500.074219 580.703125 Z M 500.074219 580.703125 " fill-opacity="1" fill-rule="nonzero"/><path fill="#e4e4e7" d="M 546.945312 652.191406 C 546.222656 651.164062 545.679688 650.320312 545.136719 649.355469 C 544.65625 648.390625 544.050781 647.484375 543.6875 646.460938 C 541.941406 642.597656 540.972656 638.679688 540.371094 634.996094 C 539.828125 631.378906 539.648438 628 539.585938 625.042969 C 539.527344 622.089844 539.527344 619.554688 539.585938 617.441406 C 539.648438 613.28125 539.707031 610.925781 539.464844 610.925781 C 539.285156 610.925781 538.863281 613.21875 538.441406 617.382812 C 538.199219 619.492188 538.019531 622.027344 537.898438 625.042969 C 537.777344 628.058594 537.835938 631.5 538.257812 635.300781 C 538.683594 639.101562 539.585938 643.261719 541.398438 647.484375 C 541.820312 648.570312 542.363281 649.535156 542.90625 650.621094 C 543.507812 651.648438 544.171875 652.734375 544.773438 653.640625 C 545.078125 654.0625 545.257812 654.484375 545.316406 654.84375 C 545.378906 655.148438 545.316406 655.265625 545.199219 655.507812 C 545.015625 655.75 544.65625 656.050781 544.113281 656.414062 C 543.628906 656.777344 543.144531 657.136719 542.601562 657.4375 C 534.640625 663.109375 525.046875 668.175781 514.613281 672.761719 C 504.175781 677.347656 493.980469 681.269531 484.871094 685.25 C 480.285156 687.242188 476.003906 689.230469 472.023438 691.222656 C 468.039062 693.210938 464.480469 695.265625 461.164062 697.011719 C 457.84375 698.761719 454.828125 700.148438 452.054688 701.175781 C 449.277344 702.203125 446.867188 702.746094 444.816406 703.046875 C 440.710938 703.589844 438.421875 703.105469 438.359375 703.40625 C 438.359375 703.527344 438.902344 703.710938 439.988281 703.890625 C 441.074219 704.070312 442.761719 704.253906 444.875 704.132812 C 447.046875 704.011719 449.640625 703.589844 452.535156 702.683594 C 455.433594 701.777344 458.628906 700.453125 462.007812 698.824219 C 465.445312 697.195312 469.066406 695.265625 472.988281 693.394531 C 476.90625 691.523438 481.25 689.59375 485.777344 687.722656 C 494.886719 683.863281 505.082031 680.0625 515.636719 675.417969 C 526.195312 670.832031 535.96875 665.582031 544.050781 659.609375 C 544.535156 659.25 545.078125 658.886719 545.558594 658.523438 C 546.042969 658.164062 546.644531 657.742188 547.1875 657.015625 C 547.792969 656.292969 547.972656 655.085938 547.730469 654.242188 C 547.671875 653.335938 547.308594 652.734375 546.945312 652.191406 Z M 546.945312 652.191406 " fill-opacity="1" fill-rule="nonzero"/><path fill="#e4e4e7" d="M 482.878906 668.78125 C 483.183594 669.503906 494.101562 665.582031 506.285156 658.34375 C 518.53125 651.105469 527.21875 643.445312 526.738281 642.839844 C 526.195312 642.175781 516.84375 648.691406 504.777344 655.808594 C 492.714844 662.929688 482.519531 667.996094 482.878906 668.78125 Z M 482.878906 668.78125 " fill-opacity="1" fill-rule="nonzero"/><path fill="#e4e4e7" d="M 459.835938 673.96875 C 454.949219 675.476562 450.96875 676.742188 451.089844 677.589844 C 451.210938 678.371094 455.613281 678.371094 460.679688 676.804688 C 465.808594 675.234375 469.425781 672.824219 469.066406 672.097656 C 468.765625 671.375 464.722656 672.519531 459.835938 673.96875 Z M 459.835938 673.96875 " fill-opacity="1" fill-rule="nonzero"/><path fill="#e4e4e7" d="M 479.140625 556.453125 C 483.363281 557.660156 487.042969 558.140625 489.578125 557.902344 C 492.109375 557.660156 493.378906 556.996094 493.316406 556.816406 C 493.257812 556.574219 491.929688 556.875 489.578125 556.753906 C 487.222656 556.632812 483.84375 555.910156 479.804688 554.460938 C 475.703125 553.074219 470.996094 551.085938 465.867188 548.550781 C 460.742188 546.015625 455.191406 542.941406 449.277344 539.863281 C 443.367188 536.785156 437.515625 534.070312 431.964844 532.203125 C 426.414062 530.273438 421.167969 529.304688 416.824219 528.703125 C 412.480469 528.160156 408.921875 527.980469 406.445312 527.980469 C 403.972656 527.980469 402.648438 528.101562 402.648438 528.28125 C 402.648438 528.460938 403.972656 528.761719 406.386719 529.125 C 408.800781 529.488281 412.296875 529.96875 416.523438 530.753906 C 420.746094 531.597656 425.75 532.746094 431.058594 534.734375 C 436.367188 536.726562 442.039062 539.441406 447.890625 542.457031 C 453.742188 545.535156 459.351562 548.550781 464.660156 551.023438 C 469.910156 553.4375 474.855469 555.308594 479.140625 556.453125 Z M 479.140625 556.453125 " fill-opacity="1" fill-rule="nonzero"/><path fill="#e4e4e7" d="M 438.78125 552.351562 C 437.03125 551.808594 435.222656 551.265625 433.351562 550.722656 C 431.484375 550.179688 429.492188 549.636719 427.621094 548.972656 C 425.691406 548.308594 423.941406 547.523438 422.375 546.558594 C 420.804688 545.59375 419.296875 544.449219 417.789062 543.363281 C 416.28125 542.277344 414.710938 541.3125 413.082031 540.707031 C 411.515625 540.042969 409.945312 539.621094 408.558594 539.441406 C 405.722656 539.019531 403.371094 539.261719 401.800781 539.621094 C 400.234375 539.984375 399.449219 540.40625 399.507812 540.585938 C 399.570312 540.828125 400.414062 540.769531 401.921875 540.769531 C 403.429688 540.769531 405.601562 540.890625 408.074219 541.492188 C 409.34375 541.792969 410.671875 542.277344 412.058594 542.941406 C 413.382812 543.605469 414.710938 544.507812 416.160156 545.59375 C 417.546875 546.679688 419.054688 547.886719 420.804688 549.03125 C 422.554688 550.179688 424.546875 551.085938 426.597656 551.746094 C 428.648438 552.472656 430.636719 553.015625 432.507812 553.496094 C 434.4375 553.980469 436.25 554.460938 437.996094 554.945312 C 441.496094 555.851562 444.695312 556.632812 447.347656 557.238281 C 452.71875 558.445312 456.035156 558.988281 456.15625 558.625 C 456.277344 558.203125 453.078125 556.9375 447.890625 555.246094 C 445.359375 554.402344 442.28125 553.375 438.78125 552.351562 Z M 438.78125 552.351562 " fill-opacity="1" fill-rule="nonzero"/><path fill="#e4e4e7" d="M 302.625 387.78125 C 303.289062 389.953125 304.554688 393.089844 306.847656 396.527344 C 309.082031 399.96875 312.398438 403.707031 316.5625 407.207031 C 320.722656 410.703125 325.789062 413.960938 331.402344 416.675781 C 336.953125 419.453125 342.441406 421.683594 347.386719 423.675781 C 352.335938 425.664062 356.738281 427.414062 360.480469 429.042969 C 361.445312 429.40625 362.589844 429.828125 363.855469 429.585938 C 365.125 429.347656 365.847656 428.5625 366.449219 428.019531 C 367.65625 426.871094 368.5625 425.726562 369.164062 424.761719 C 370.070312 423.3125 370.492188 422.226562 370.554688 421.746094 C 370.855469 421.867188 371.15625 422.046875 371.457031 422.167969 C 373.449219 423.011719 375.199219 423.796875 376.886719 424.398438 C 378.515625 425.003906 380.085938 425.304688 381.351562 425.425781 C 383.945312 425.546875 385.210938 424.640625 385.089844 424.519531 C 385.03125 424.277344 383.703125 424.761719 381.472656 424.277344 C 380.324219 424.039062 379 423.613281 377.492188 422.890625 C 375.980469 422.167969 374.234375 421.261719 372.363281 420.296875 C 368.621094 418.304688 364.097656 415.953125 360.359375 412.03125 C 358.488281 410.101562 356.859375 407.6875 354.988281 405.15625 C 353.058594 402.621094 350.886719 400.148438 348.535156 397.796875 C 343.707031 393.089844 338.582031 389.410156 333.875 386.210938 C 329.109375 383.015625 324.765625 380.300781 321.144531 378.007812 C 317.527344 375.777344 314.871094 373.664062 313.425781 371.855469 C 311.976562 370.046875 311.554688 368.777344 311.3125 368.839844 C 311.132812 368.839844 311.191406 370.347656 312.457031 372.519531 C 313.726562 374.75 316.378906 377.285156 319.9375 379.757812 C 323.4375 382.292969 327.660156 385.1875 332.246094 388.445312 C 336.832031 391.761719 341.835938 395.441406 346.421875 399.90625 C 348.714844 402.140625 350.828125 404.492188 352.636719 406.84375 C 354.507812 409.257812 356.195312 411.789062 358.367188 413.902344 C 362.226562 417.703125 366.570312 419.933594 370.25 421.5625 C 369.890625 421.925781 369.285156 422.832031 368.199219 424.039062 C 367.476562 424.882812 366.511719 425.785156 365.304688 426.75 C 364.703125 427.234375 364.097656 427.65625 363.496094 427.71875 C 362.890625 427.777344 362.167969 427.535156 361.324219 427.113281 C 357.765625 425.304688 353.300781 423.253906 348.472656 421.140625 C 343.585938 419.03125 338.21875 416.738281 332.789062 414.023438 C 327.359375 411.308594 322.414062 408.292969 318.371094 405.035156 C 314.269531 401.835938 311.011719 398.398438 308.660156 395.261719 C 306.246094 392.125 304.738281 389.289062 303.773438 387.296875 C 303.289062 386.332031 302.925781 385.488281 302.6875 384.945312 C 302.445312 384.402344 302.203125 384.160156 302.144531 384.160156 C 302.023438 384.160156 302.023438 384.523438 302.144531 385.125 C 302.144531 385.789062 302.265625 386.695312 302.625 387.78125 Z M 302.625 387.78125 " fill-opacity="1" fill-rule="nonzero"/><path fill="#e4e4e7" d="M 376.765625 427.835938 C 376.707031 428.199219 381.714844 429.828125 390.160156 431.09375 C 391.246094 431.214844 392.332031 431.398438 393.476562 431.578125 C 394.625 431.757812 395.828125 431.820312 397.097656 431.941406 C 399.570312 432.179688 402.285156 432.300781 405.121094 432.421875 C 410.789062 432.542969 417.003906 432.363281 423.460938 431.636719 C 429.914062 430.914062 436.066406 429.707031 441.558594 428.378906 C 444.273438 427.65625 446.867188 426.992188 449.277344 426.148438 C 450.484375 425.726562 451.632812 425.425781 452.71875 425.003906 C 453.804688 424.578125 454.828125 424.21875 455.855469 423.796875 C 463.816406 420.71875 468.34375 418.003906 468.222656 417.703125 C 468.039062 417.28125 463.152344 419.269531 455.191406 421.804688 C 454.164062 422.105469 453.140625 422.46875 452.054688 422.769531 C 450.96875 423.132812 449.820312 423.375 448.613281 423.734375 C 446.261719 424.460938 443.667969 425.003906 440.953125 425.664062 C 435.523438 426.871094 429.550781 427.957031 423.15625 428.683594 C 416.824219 429.347656 410.730469 429.648438 405.179688 429.648438 C 402.40625 429.585938 399.75 429.585938 397.335938 429.464844 C 396.132812 429.40625 394.925781 429.40625 393.777344 429.285156 C 392.632812 429.164062 391.546875 429.105469 390.519531 429.042969 C 382.015625 428.320312 376.828125 427.414062 376.765625 427.835938 Z M 376.765625 427.835938 " fill-opacity="1" fill-rule="nonzero"/><path fill="#e4e4e7" d="M 372.242188 433.507812 C 372.121094 433.871094 376.464844 436.222656 384.003906 438.9375 C 391.546875 441.59375 402.40625 444.367188 414.710938 445.273438 C 420.804688 445.753906 426.714844 445.753906 432.027344 445.394531 C 437.335938 445.089844 442.101562 444.367188 446.019531 443.703125 C 453.863281 442.253906 458.691406 441.472656 458.691406 441.050781 C 458.691406 440.625 453.683594 440.6875 445.78125 441.59375 C 441.796875 442.015625 437.152344 442.4375 431.964844 442.617188 C 426.777344 442.796875 421.046875 442.679688 415.011719 442.253906 C 403.007812 441.351562 392.332031 438.9375 384.730469 436.886719 C 377.066406 434.773438 372.421875 433.085938 372.242188 433.507812 Z M 372.242188 433.507812 " fill-opacity="1" fill-rule="nonzero"/><path fill="#e4e4e7" d="M 359.816406 436.765625 C 358.367188 436.464844 357.101562 436.464844 356.015625 436.644531 C 353.902344 437.066406 353.117188 438.03125 353.179688 438.152344 C 353.300781 438.394531 354.265625 437.851562 356.074219 437.851562 C 357.882812 437.851562 360.480469 438.636719 363.496094 440.203125 C 369.585938 443.460938 378.457031 447.382812 385.632812 454.925781 C 389.3125 458.605469 392.632812 462.464844 395.949219 465.78125 C 399.269531 469.101562 402.648438 471.695312 405.664062 473.566406 C 411.753906 477.304688 416.039062 478.332031 416.160156 478.027344 C 416.339844 477.605469 412.359375 475.855469 406.808594 471.816406 C 404.035156 469.824219 400.957031 467.171875 397.820312 463.851562 C 394.683594 460.59375 391.425781 456.671875 387.625 452.8125 C 387.082031 452.269531 386.480469 451.667969 385.9375 451.183594 C 386.71875 451.484375 387.566406 451.789062 388.53125 452.089844 C 393.71875 453.898438 400.777344 457.035156 408.921875 459.75 C 413.023438 461.078125 417.066406 462.101562 420.746094 462.644531 C 424.484375 463.1875 427.921875 463.308594 430.757812 463.007812 C 436.488281 462.523438 439.746094 460.835938 439.566406 460.472656 C 439.445312 459.992188 436.066406 460.957031 430.636719 460.894531 C 427.921875 460.894531 424.664062 460.59375 421.167969 459.929688 C 417.605469 459.269531 413.808594 458.242188 409.765625 456.914062 C 401.800781 454.261719 394.5625 451.425781 389.074219 450.039062 C 386.71875 449.433594 384.789062 449.074219 383.28125 448.832031 C 382.738281 448.410156 382.195312 447.925781 381.59375 447.503906 C 379.542969 445.9375 377.429688 444.667969 375.378906 443.523438 C 371.277344 441.230469 367.414062 439.601562 364.21875 438.214844 C 362.832031 437.550781 361.261719 437.066406 359.816406 436.765625 Z M 359.816406 436.765625 " fill-opacity="1" fill-rule="nonzero"/><path fill="#e4e4e7" d="M 550.324219 401.355469 C 547.851562 401.714844 545.316406 402.320312 542.722656 402.984375 C 537.535156 404.371094 531.804688 405.757812 525.773438 407.144531 C 513.707031 409.859375 502.726562 412.332031 494.765625 412.9375 C 486.742188 413.660156 481.792969 412.695312 481.734375 413.179688 C 481.613281 413.480469 486.558594 415.230469 494.886719 415.046875 C 499.046875 414.988281 503.933594 414.386719 509.242188 413.480469 C 514.550781 412.574219 520.402344 411.429688 526.496094 409.980469 C 532.589844 408.59375 538.320312 407.023438 543.507812 405.515625 C 548.636719 404.007812 553.222656 402.921875 557.140625 403.164062 C 561.0625 403.285156 564.261719 404.070312 566.492188 404.492188 C 568.722656 404.914062 569.992188 405.09375 570.050781 404.914062 C 570.113281 404.734375 568.964844 404.191406 566.792969 403.34375 C 564.621094 402.5625 561.484375 401.476562 557.261719 401.054688 C 555.089844 400.933594 552.738281 400.992188 550.324219 401.355469 Z M 550.324219 401.355469 " fill-opacity="1" fill-rule="nonzero"/><g clip-path="url(#b030748c8b)"><path fill="#e4e4e7" d="M 594.242188 510.90625 C 594.121094 507.589844 593.941406 504.269531 593.640625 500.832031 C 593.335938 497.453125 592.914062 494.074219 592.191406 490.757812 C 591.527344 487.441406 590.503906 484.304688 589.597656 481.226562 C 588.632812 478.210938 587.910156 475.253906 587.367188 472.296875 C 586.824219 469.34375 586.519531 466.386719 586.28125 463.492188 C 585.855469 457.699219 585.738281 452.148438 585.375 446.902344 C 585.011719 441.652344 584.289062 436.765625 583.203125 432.363281 C 580.972656 423.613281 577.53125 417.101562 574.878906 412.875 C 572.164062 408.652344 570.292969 406.664062 570.113281 406.722656 C 569.929688 406.84375 571.5 409.078125 573.851562 413.417969 C 576.144531 417.761719 579.222656 424.21875 581.089844 432.785156 C 582.054688 437.066406 582.597656 441.773438 582.902344 446.960938 C 583.203125 452.148438 583.203125 457.699219 583.566406 463.609375 C 583.746094 466.566406 584.046875 469.582031 584.53125 472.71875 C 585.011719 475.796875 585.796875 478.933594 586.761719 482.011719 C 587.667969 485.085938 588.632812 488.105469 589.234375 491.300781 C 589.898438 494.4375 590.320312 497.695312 590.621094 501.074219 C 590.925781 504.390625 591.105469 507.710938 591.226562 511.027344 C 591.40625 514.34375 591.527344 517.542969 591.527344 520.679688 C 591.589844 526.953125 591.164062 533.046875 589.535156 538.476562 C 587.96875 543.964844 585.132812 548.550781 581.515625 552.109375 C 579.765625 553.917969 577.894531 555.546875 576.023438 557.117188 C 574.214844 558.683594 572.40625 560.132812 570.65625 561.460938 C 563.71875 566.890625 557.683594 570.75 553.523438 573.34375 C 549.300781 575.9375 546.945312 577.324219 547.007812 577.507812 C 547.066406 577.6875 549.660156 576.664062 554.066406 574.371094 C 558.46875 572.078125 564.742188 568.398438 571.921875 563.148438 C 573.730469 561.820312 575.601562 560.433594 577.472656 558.867188 C 579.34375 557.359375 581.332031 555.730469 583.261719 553.800781 C 585.132812 551.929688 587.003906 549.816406 588.511719 547.285156 C 590.019531 544.808594 591.226562 542.09375 592.132812 539.199219 C 593.941406 533.410156 594.421875 527.015625 594.421875 520.621094 C 594.542969 517.421875 594.421875 514.164062 594.242188 510.90625 Z M 594.242188 510.90625 " fill-opacity="1" fill-rule="nonzero"/></g><path fill="#e4e4e7" d="M 440.109375 395.863281 C 440.472656 395.746094 439.929688 393.03125 438.300781 388.988281 C 436.671875 384.886719 433.835938 379.457031 429.792969 374.085938 C 425.75 368.71875 421.347656 364.433594 417.910156 361.71875 C 414.46875 359.003906 412.058594 357.738281 411.816406 358.039062 C 411.273438 358.765625 419.660156 365.398438 427.441406 375.898438 C 435.28125 386.210938 439.265625 396.167969 440.109375 395.863281 Z M 440.109375 395.863281 " fill-opacity="1" fill-rule="nonzero"/><path fill="#e4e4e7" d="M 419.660156 419.8125 C 418.148438 417.945312 416.824219 415.351562 415.554688 412.273438 C 414.289062 409.257812 413.265625 405.757812 412.179688 402.019531 C 411.09375 398.277344 410.007812 394.660156 408.738281 391.460938 C 407.472656 388.265625 405.964844 385.488281 404.394531 383.316406 C 401.257812 378.972656 398.304688 377.40625 398.121094 377.707031 C 397.820312 378.070312 400.171875 380.179688 402.648438 384.464844 C 403.851562 386.636719 405.121094 389.289062 406.207031 392.425781 C 407.292969 395.503906 408.257812 399.0625 409.402344 402.800781 C 411.515625 410.28125 414.289062 417.21875 418.148438 421.140625 C 420.019531 423.132812 422.132812 424.15625 423.640625 424.460938 C 425.148438 424.761719 425.992188 424.519531 425.992188 424.339844 C 425.992188 424.097656 425.207031 423.917969 424.003906 423.375 C 422.675781 422.832031 421.105469 421.683594 419.660156 419.8125 Z M 419.660156 419.8125 " fill-opacity="1" fill-rule="nonzero"/><path fill="#e4e4e7" d="M 498.445312 294.457031 C 496.210938 290.414062 493.195312 288 492.59375 288.542969 C 491.988281 289.085938 493.558594 291.800781 495.429688 295.179688 C 492.714844 295.964844 490.121094 296.871094 487.644531 298.015625 C 482.640625 300.246094 478.113281 303.265625 474.433594 306.703125 C 470.695312 310.140625 467.738281 314.003906 465.628906 317.984375 C 463.515625 321.964844 462.308594 326.066406 461.644531 329.808594 C 460.378906 337.347656 460.863281 343.441406 461.222656 347.605469 C 461.644531 351.765625 462.066406 354.058594 462.25 354 C 462.488281 354 462.429688 351.644531 462.371094 347.542969 C 462.371094 343.441406 462.25 337.347656 463.695312 330.230469 C 464.480469 326.671875 465.6875 322.871094 467.800781 319.191406 C 469.851562 315.511719 472.746094 311.890625 476.304688 308.753906 C 479.863281 305.554688 484.085938 302.78125 488.851562 300.730469 C 491.445312 299.585938 494.160156 298.679688 496.996094 297.894531 C 498.566406 300.730469 499.832031 302.84375 500.496094 302.601562 C 500.796875 302.539062 500.917969 301.816406 500.796875 300.730469 C 501.039062 299.886719 501.28125 298.5 501.761719 296.808594 C 502.667969 296.628906 503.570312 296.445312 504.476562 296.328125 C 509.96875 295.542969 515.457031 295.421875 520.703125 295.785156 C 525.894531 296.144531 530.839844 297.230469 534.941406 299.523438 C 539.042969 301.757812 542.121094 305.132812 544.414062 308.695312 C 546.644531 312.253906 548.09375 315.992188 549.058594 319.492188 C 550.929688 326.550781 551.109375 332.582031 551.410156 336.746094 C 551.652344 340.90625 551.832031 343.199219 552.015625 343.199219 C 552.195312 343.199219 552.4375 340.90625 552.558594 336.746094 C 552.617188 332.582031 552.738281 326.488281 551.050781 319.007812 C 550.203125 315.328125 548.757812 311.289062 546.464844 307.425781 C 544.171875 303.566406 540.792969 299.765625 536.269531 297.171875 C 531.746094 294.578125 526.375 293.371094 520.945312 292.949219 C 515.515625 292.527344 509.847656 292.648438 504.113281 293.429688 C 503.691406 293.492188 503.269531 293.613281 502.847656 293.671875 C 502.910156 293.492188 502.96875 293.308594 503.03125 293.191406 C 504.777344 288.726562 507.554688 285.769531 507.011719 285.105469 C 506.769531 284.804688 505.683594 285.167969 504.296875 286.3125 C 502.910156 287.457031 501.339844 289.449219 500.253906 292.042969 C 499.953125 292.765625 499.710938 293.550781 499.53125 294.277344 C 499.046875 294.335938 498.746094 294.394531 498.445312 294.457031 Z M 498.445312 294.457031 " fill-opacity="1" fill-rule="nonzero"/><path fill="#e4e4e7" d="M 535.484375 371.011719 C 535.363281 371.132812 535.664062 371.792969 536.632812 372.820312 C 537.113281 373.304688 537.835938 373.90625 538.921875 374.148438 C 539.464844 374.269531 540.070312 374.328125 540.792969 374.207031 C 541.457031 374.085938 542.179688 373.664062 542.664062 373.0625 C 543.6875 371.855469 543.929688 370.46875 544.351562 369.320312 C 544.535156 368.71875 544.773438 368.296875 545.136719 367.875 C 545.5 367.449219 545.921875 367.027344 546.464844 366.605469 C 547.550781 365.761719 548.996094 364.976562 550.324219 363.53125 C 550.988281 362.804688 551.59375 361.902344 551.953125 360.875 C 552.316406 359.851562 552.4375 358.824219 552.375 357.800781 C 552.316406 355.808594 551.773438 354.058594 551.289062 352.429688 C 550.808594 350.863281 550.203125 349.050781 548.757812 347.664062 C 548.03125 347 547.128906 346.519531 546.222656 346.277344 C 545.316406 346.035156 544.414062 346.097656 543.628906 346.277344 C 542 346.636719 540.734375 347.421875 539.828125 348.386719 C 538.019531 350.320312 537.476562 352.25 537.113281 353.457031 C 536.8125 354.722656 536.75 355.445312 536.933594 355.507812 C 537.113281 355.566406 537.535156 354.964844 538.199219 353.878906 C 538.863281 352.792969 539.707031 351.164062 541.277344 349.894531 C 542.722656 348.691406 545.4375 347.964844 546.886719 349.59375 C 547.609375 350.378906 548.09375 351.707031 548.515625 353.214844 C 548.9375 354.78125 549.359375 356.351562 549.421875 357.859375 C 549.480469 359.367188 549.058594 360.511719 548.152344 361.480469 C 547.25 362.503906 545.921875 363.347656 544.65625 364.375 C 544.050781 364.917969 543.449219 365.519531 542.90625 366.246094 C 542.421875 366.96875 542.058594 367.8125 541.878906 368.535156 C 541.515625 369.925781 541.335938 371.070312 540.914062 371.734375 C 540.492188 372.335938 539.828125 372.578125 539.105469 372.519531 C 538.378906 372.457031 537.777344 372.15625 537.234375 371.914062 C 536.269531 371.25 535.605469 370.828125 535.484375 371.011719 Z M 535.484375 371.011719 " fill-opacity="1" fill-rule="nonzero"/><path fill="#e4e4e7" d="M 537.054688 363.109375 C 536.148438 363.890625 535.605469 364.554688 535.785156 364.917969 C 535.96875 365.28125 536.8125 365.339844 538.078125 364.976562 C 539.285156 364.617188 541.15625 363.832031 542.542969 361.902344 C 543.929688 359.851562 543.808594 357.4375 542.964844 356.109375 C 542.542969 355.445312 542 355.023438 541.578125 354.84375 C 541.15625 354.722656 540.855469 354.78125 540.792969 354.902344 C 540.550781 355.265625 540.972656 355.929688 541.035156 356.832031 C 541.09375 357.738281 540.914062 359.125 540.128906 360.210938 C 539.164062 361.359375 537.957031 362.324219 537.054688 363.109375 Z M 537.054688 363.109375 " fill-opacity="1" fill-rule="nonzero"/><path fill="#e4e4e7" d="M 520.34375 390.195312 C 522.273438 390.253906 524.144531 389.890625 525.710938 389.289062 C 527.28125 388.6875 528.609375 387.902344 529.753906 387.058594 C 531.984375 385.367188 533.433594 383.738281 534.339844 382.53125 C 535.242188 381.328125 535.605469 380.542969 535.484375 380.421875 C 535.304688 380.300781 534.640625 380.785156 533.492188 381.6875 C 532.347656 382.59375 530.71875 383.980469 528.609375 385.246094 C 526.4375 386.515625 523.660156 387.660156 520.523438 387.417969 C 517.386719 387.238281 514.007812 385.667969 510.390625 383.921875 C 502.96875 380.359375 495.730469 378.429688 490.480469 377.585938 C 485.171875 376.742188 481.855469 376.863281 481.792969 377.222656 C 481.675781 378.128906 494.765625 379.699219 509.121094 386.636719 C 512.679688 388.324219 516.421875 390.074219 520.34375 390.195312 Z M 520.34375 390.195312 " fill-opacity="1" fill-rule="nonzero"/><path fill="#e4e4e7" d="M 545.015625 370.226562 C 544.65625 370.347656 545.015625 372.640625 546.523438 376.015625 C 548.03125 379.394531 550.808594 383.800781 554.910156 387.660156 C 556.960938 389.652344 559.132812 391.160156 560.761719 392.667969 C 562.449219 394.175781 563.535156 395.683594 564.078125 397.253906 C 564.683594 398.761719 564.683594 400.085938 564.5625 400.992188 C 564.441406 401.898438 564.261719 402.441406 564.441406 402.5625 C 564.5625 402.683594 565.164062 402.320312 565.648438 401.355469 C 566.128906 400.390625 566.492188 398.640625 566.070312 396.710938 C 565.890625 395.746094 565.46875 394.660156 564.863281 393.632812 C 564.261719 392.605469 563.476562 391.640625 562.632812 390.738281 C 560.882812 388.925781 558.769531 387.359375 556.902344 385.550781 C 549.179688 378.1875 545.800781 369.863281 545.015625 370.226562 Z M 545.015625 370.226562 " fill-opacity="1" fill-rule="nonzero"/></svg>