<svg xmlns="http://www.w3.org/2000/svg" xmlns:xlink="http://www.w3.org/1999/xlink" width="1080" zoomAndPan="magnify" viewBox="0 0 810 809.999993" height="1080" preserveAspectRatio="xMidYMid meet" version="1.0"><defs><clipPath id="c84eb215be"><path d="M 131.53125 114.917969 L 678.28125 114.917969 L 678.28125 695.417969 L 131.53125 695.417969 Z M 131.53125 114.917969 " clip-rule="nonzero"/></clipPath></defs><g clip-path="url(#c84eb215be)"><path fill="#a78bfa" d="M 416.464844 114.980469 C 417.871094 115.046875 422.214844 116.195312 426.050781 117.410156 C 429.882812 118.625 442.980469 122.710938 455.117188 126.480469 C 467.257812 130.25 487.0625 136.191406 499.199219 139.644531 C 511.339844 143.09375 526.863281 147.4375 533.699219 149.226562 C 540.535156 151.015625 556.058594 155.167969 568.199219 158.488281 C 580.335938 161.8125 596.691406 166.21875 604.613281 168.390625 C 612.535156 170.5625 628.636719 174.910156 640.390625 178.039062 C 652.144531 181.167969 663.964844 184.425781 666.585938 185.320312 C 669.714844 186.34375 672.335938 187.75 674.25 189.347656 C 676.296875 191.136719 677.316406 192.605469 677.894531 194.648438 C 678.339844 196.375 678.46875 198.355469 678.148438 199.695312 C 677.894531 200.910156 677.191406 202.890625 676.613281 203.976562 C 675.976562 205.125 674.570312 207.042969 673.421875 208.195312 C 672.335938 209.28125 670.097656 211.132812 668.5 212.21875 C 666.902344 213.367188 663.328125 215.414062 660.515625 216.816406 C 657.703125 218.222656 653.230469 220.078125 650.613281 220.972656 C 647.992188 221.867188 640.773438 224.101562 634.640625 225.890625 C 628.507812 227.679688 618.414062 230.746094 612.28125 232.726562 C 606.148438 234.644531 597.523438 237.582031 593.113281 239.113281 C 588.707031 240.710938 579.824219 244.546875 573.308594 247.613281 C 566.792969 250.742188 556.316406 255.277344 549.992188 257.707031 C 543.664062 260.132812 537.851562 262.371094 537.023438 262.5625 C 536.0625 262.816406 535.679688 263.328125 535.9375 264.03125 C 536.0625 264.667969 536.511719 267.160156 536.957031 269.652344 C 537.40625 272.335938 537.597656 276.808594 537.339844 280.832031 C 537.085938 285.242188 536.511719 289.074219 535.550781 292.011719 C 534.402344 295.464844 533.378906 297.1875 531.015625 299.488281 C 529.355469 301.214844 527.566406 302.554688 526.992188 302.554688 C 526.480469 302.554688 526.03125 302.683594 526.03125 302.875 C 526.03125 303.066406 528.207031 305.300781 530.886719 307.792969 C 534.339844 311.117188 536.320312 313.671875 537.722656 316.609375 C 539.703125 320.636719 539.769531 320.953125 539.769531 329.386719 C 539.703125 336.988281 539.511719 338.585938 538.042969 342.804688 C 537.148438 345.421875 535.359375 349.320312 534.148438 351.429688 C 532.933594 353.535156 529.417969 357.945312 526.289062 361.265625 C 523.160156 364.523438 518.238281 369.125 515.300781 371.488281 C 512.359375 373.789062 509.292969 376.726562 508.464844 377.941406 C 507.632812 379.15625 506.613281 381.070312 506.226562 382.09375 C 505.84375 383.117188 504.375 388.609375 503.035156 394.234375 C 501.691406 399.855469 499.777344 406.625 498.882812 409.246094 C 497.921875 411.867188 496.007812 416.335938 494.601562 419.148438 C 493.195312 421.960938 490.832031 425.984375 489.425781 428.09375 C 488.019531 430.203125 484.824219 434.355469 482.335938 437.355469 C 479.84375 440.359375 475.113281 445.535156 471.730469 448.855469 C 468.40625 452.179688 463.488281 456.652344 460.867188 458.824219 C 458.25 460.929688 451.925781 465.53125 446.8125 468.980469 C 441.703125 472.429688 434.992188 477.160156 431.800781 479.523438 C 428.605469 481.820312 424.582031 484.632812 422.855469 485.65625 C 421.128906 486.675781 418.511719 488.019531 417.105469 488.65625 C 415.699219 489.234375 412.824219 490.191406 410.71875 490.703125 C 408.609375 491.214844 404.710938 491.660156 402.09375 491.660156 C 399.472656 491.660156 394.871094 491.214844 391.871094 490.636719 C 388.867188 490.0625 384.011719 488.722656 381.007812 487.699219 C 378.007812 486.613281 373.152344 484.570312 370.148438 483.035156 C 367.144531 481.566406 361.714844 478.308594 358.011719 475.816406 C 354.304688 473.324219 348.425781 468.917969 344.976562 465.976562 C 341.464844 463.101562 336.160156 457.929688 333.222656 454.605469 C 330.28125 451.285156 326.515625 446.363281 324.917969 443.746094 C 323.253906 441.125 320.890625 436.398438 319.550781 433.203125 C 318.273438 430.007812 316.484375 424.132812 315.523438 420.105469 C 314.566406 416.082031 313.160156 410.332031 312.332031 407.328125 C 311.5 404.328125 309.457031 398.449219 307.730469 394.234375 C 306.007812 390.015625 303.324219 384.394531 301.660156 381.773438 C 300 379.15625 297.574219 375.960938 296.230469 374.621094 C 294.890625 373.339844 292.910156 371.746094 291.757812 371.105469 C 290.609375 370.46875 287.03125 368.359375 283.835938 366.441406 C 280.644531 364.523438 276.234375 361.332031 274.125 359.414062 C 272.019531 357.496094 269.078125 354.304688 267.609375 352.386719 C 266.140625 350.46875 264.160156 347.339844 263.203125 345.488281 C 262.308594 343.699219 261.09375 340.503906 260.582031 338.460938 C 260.007812 336.480469 259.558594 332.070312 259.558594 328.75 C 259.496094 325.042969 259.945312 321.082031 260.582031 318.527344 C 261.15625 316.226562 262.691406 312.394531 263.96875 309.902344 C 265.566406 306.769531 268.183594 303.449219 278.726562 292.652344 L 276.875 290.417969 C 275.851562 289.203125 274.382812 286.519531 273.679688 284.476562 C 272.976562 282.496094 272.082031 278.023438 271.699219 274.574219 C 271.1875 270.164062 271.1875 266.714844 271.699219 262.625 C 272.082031 259.496094 272.273438 256.8125 272.210938 256.8125 C 272.144531 256.746094 266.460938 255.980469 259.625 255.023438 C 252.789062 254.066406 237.964844 251.890625 226.722656 250.105469 C 215.476562 248.378906 206.214844 246.972656 206.214844 247.101562 C 206.152344 247.230469 206.535156 249.910156 207.042969 253.042969 C 207.683594 257.257812 207.875 262.433594 207.621094 272.527344 C 207.429688 281.28125 206.851562 289.777344 206.023438 295.847656 C 205.257812 301.085938 204.167969 308.496094 202.445312 319.039062 L 204.363281 319.484375 C 205.449219 319.675781 207.554688 321.144531 209.152344 322.871094 C 211.261719 325.042969 212.347656 326.769531 212.921875 329.066406 C 213.371094 330.921875 213.496094 333.347656 213.242188 334.816406 C 213.050781 336.222656 212.410156 338.269531 211.898438 339.289062 C 211.324219 340.3125 210.113281 342.101562 207.238281 345.039062 L 210.113281 353.984375 C 211.644531 358.902344 216.5 374.429688 220.910156 388.484375 C 225.316406 402.539062 229.917969 417.617188 231.128906 422.023438 C 232.34375 426.433594 233.941406 432.4375 234.582031 435.441406 C 235.28125 438.441406 236.367188 443.425781 236.878906 446.621094 C 237.453125 449.816406 237.902344 454.351562 237.902344 456.84375 C 237.902344 459.527344 237.582031 461.632812 237.136719 462.082031 C 236.6875 462.527344 235.730469 462.910156 234.898438 462.910156 C 234.070312 462.910156 232.984375 462.273438 232.472656 461.441406 C 231.960938 460.675781 230.683594 457.863281 229.597656 455.246094 C 228.511719 452.625 225.636719 443.554688 223.273438 435.121094 C 220.84375 426.6875 217.265625 413.335938 215.351562 405.414062 C 213.433594 397.492188 211.390625 388.800781 210.8125 386.054688 C 210.238281 383.371094 209.535156 381.136719 209.152344 381.136719 C 208.769531 381.136719 208.640625 383.691406 208.898438 388.292969 C 209.089844 392.253906 209.664062 401.261719 210.175781 408.289062 C 210.6875 415.316406 212.285156 431.09375 213.625 443.425781 C 214.96875 455.691406 216.4375 469.9375 216.820312 475.050781 C 217.203125 480.160156 217.394531 484.953125 217.203125 485.71875 C 216.949219 486.613281 216.308594 487.1875 215.542969 487.1875 C 214.839844 487.1875 214.007812 486.550781 213.6875 485.71875 C 213.371094 484.953125 211.964844 476.839844 210.496094 467.703125 C 209.089844 458.566406 207.363281 446.363281 206.597656 440.550781 C 205.894531 434.738281 205.0625 426.625 204.808594 422.535156 C 204.554688 418.382812 204.105469 415.25 203.851562 415.507812 C 203.59375 415.761719 203.082031 422.152344 202.765625 429.691406 C 202.445312 437.230469 202.125 450.070312 202.125 458.121094 C 202.125 466.167969 201.804688 477.285156 201.488281 482.714844 C 201.167969 488.148438 200.402344 495.367188 199.824219 498.6875 C 199.25 502.011719 198.292969 505.972656 197.589844 507.441406 C 196.632812 509.613281 196.054688 510.1875 194.777344 510.1875 C 193.882812 510.1875 192.925781 509.675781 192.605469 509.039062 C 192.285156 508.464844 191.648438 505.394531 191.265625 502.203125 C 190.691406 498.242188 190.5625 491.339844 190.816406 480.160156 C 191.007812 471.214844 191.777344 456.140625 192.480469 446.621094 C 193.246094 437.101562 193.820312 427.902344 193.820312 426.175781 C 193.820312 424.386719 193.691406 423.109375 193.5 423.300781 C 193.371094 423.492188 192.351562 431.09375 191.265625 440.230469 C 190.179688 449.367188 188.582031 461.3125 187.75 466.746094 C 186.855469 472.175781 185.324219 479.96875 184.300781 483.996094 C 183.277344 488.019531 181.746094 493.066406 180.980469 495.175781 C 180.148438 497.28125 179 499.519531 178.359375 500.09375 C 177.71875 500.734375 176.953125 501.242188 176.570312 501.242188 C 176.1875 501.242188 175.355469 500.667969 174.652344 499.964844 C 173.757812 499.070312 173.25 497.472656 172.992188 494.664062 C 172.800781 492.492188 172.929688 487.253906 173.375 483.035156 C 173.757812 478.820312 175.101562 468.34375 176.316406 459.71875 C 177.527344 451.09375 179.507812 438.1875 180.789062 430.96875 C 182 423.75 183.980469 413.398438 185.195312 407.96875 C 186.34375 402.539062 188.515625 393.402344 189.921875 387.652344 C 191.390625 381.964844 192.542969 376.917969 192.542969 376.472656 C 192.480469 376.089844 192.09375 376.410156 191.648438 377.300781 C 191.136719 378.195312 187.558594 387.84375 183.597656 398.703125 C 179.636719 409.566406 174.527344 422.980469 172.289062 428.414062 C 169.992188 433.84375 166.347656 442.085938 164.175781 446.621094 C 162.003906 451.15625 159.257812 456.011719 158.171875 457.289062 C 157.019531 458.632812 155.617188 459.71875 154.976562 459.71875 C 154.402344 459.78125 153.445312 459.269531 152.867188 458.632812 C 152.292969 457.992188 151.65625 456.585938 151.398438 455.5625 C 151.144531 454.542969 151.269531 451.476562 151.65625 448.855469 C 152.101562 446.238281 153.316406 441.316406 154.339844 437.996094 C 155.425781 434.671875 158.683594 425.730469 161.558594 418.191406 C 164.433594 410.652344 167.625 402.601562 168.585938 400.300781 C 169.542969 398.003906 174.652344 386.375 179.894531 374.429688 C 185.195312 362.480469 190.179688 350.980469 192.480469 345.039062 L 190.882812 343.441406 C 189.988281 342.546875 188.644531 340.757812 188.007812 339.417969 C 187.175781 337.882812 186.792969 335.710938 186.792969 333.027344 C 186.792969 329.707031 187.113281 328.558594 188.835938 325.617188 C 190.242188 323.316406 191.839844 321.722656 193.5 320.828125 C 194.90625 320.125 196.121094 319.484375 196.246094 319.484375 C 196.3125 319.484375 195.992188 309.839844 195.417969 298.082031 C 194.90625 286.328125 194.394531 269.460938 194.140625 244.546875 L 189.667969 243.777344 C 187.175781 243.332031 182.066406 242.179688 178.167969 241.222656 C 174.269531 240.265625 168.519531 238.476562 165.390625 237.324219 C 161.238281 235.792969 158.875 234.449219 156.957031 232.597656 C 154.847656 230.617188 154.210938 229.53125 154.210938 227.933594 C 154.210938 226.847656 154.59375 225.125 155.105469 224.101562 C 155.617188 223.144531 156.957031 221.480469 158.171875 220.394531 C 159.320312 219.246094 162.324219 217.074219 164.75 215.476562 C 167.179688 213.945312 172.546875 211.003906 176.570312 208.960938 C 180.59375 206.914062 188.773438 203.210938 194.777344 200.65625 C 200.785156 198.097656 211.515625 193.820312 218.734375 191.199219 C 225.957031 188.515625 242.886719 182.640625 256.429688 178.101562 C 269.972656 173.503906 283.199219 168.902344 285.816406 167.878906 C 288.4375 166.859375 301.980469 160.726562 315.84375 154.335938 C 329.707031 147.949219 347.148438 140.027344 354.496094 136.769531 C 361.84375 133.507812 372.191406 129.101562 377.496094 126.992188 C 382.734375 124.886719 390.527344 122.011719 394.746094 120.539062 C 398.960938 119.136719 404.96875 117.21875 408.160156 116.386719 C 411.355469 115.492188 415.0625 114.917969 416.464844 114.980469 Z M 392.191406 125.269531 C 387.652344 126.929688 380.113281 129.804688 375.578125 131.65625 C 371.042969 133.507812 361.078125 137.726562 353.539062 141.113281 C 346 144.433594 329.582031 151.910156 317.121094 157.722656 C 304.664062 163.535156 291.441406 169.476562 287.734375 170.949219 C 284.027344 172.417969 270.101562 177.335938 256.75 181.808594 C 243.398438 186.28125 228.128906 191.582031 222.890625 193.5 C 217.585938 195.417969 208.832031 198.800781 203.402344 200.972656 C 197.972656 203.144531 188.453125 207.363281 182.320312 210.367188 C 176.1875 213.304688 169.097656 217.011719 166.667969 218.480469 C 164.175781 220.011719 161.109375 222.441406 159.769531 223.910156 C 158.492188 225.378906 157.40625 226.976562 157.40625 227.488281 C 157.40625 228 158.363281 229.277344 159.449219 230.234375 C 160.597656 231.191406 163.28125 232.664062 165.390625 233.492188 C 167.5 234.324219 171.394531 235.601562 174.015625 236.433594 C 176.632812 237.199219 183.277344 238.796875 188.710938 239.882812 C 194.140625 241.03125 208.132812 243.460938 219.695312 245.375 C 231.257812 247.292969 247.550781 249.847656 255.789062 251.0625 C 264.03125 252.339844 271.441406 253.363281 272.210938 253.363281 C 273.296875 253.363281 273.871094 252.851562 274.316406 251.253906 C 274.703125 250.167969 274.957031 249.015625 274.957031 248.699219 C 274.957031 248.441406 273.296875 248.25 271.25 248.25 C 269.269531 248.25 263.011719 247.675781 257.386719 246.972656 C 251.765625 246.269531 243.714844 245.121094 239.5 244.417969 C 235.28125 243.652344 228.0625 242.246094 223.527344 241.160156 C 218.992188 240.136719 209.21875 237.710938 201.804688 235.792969 C 194.394531 233.941406 187.113281 231.894531 185.515625 231.320312 C 183.917969 230.746094 182 229.660156 181.171875 228.894531 C 180.402344 228.125 179.765625 226.914062 179.765625 226.210938 C 179.765625 225.507812 180.53125 224.164062 181.488281 223.269531 C 182.511719 222.3125 184.683594 220.84375 186.472656 219.949219 C 188.199219 219.054688 192.671875 217.136719 196.375 215.667969 C 200.082031 214.199219 207.8125 211.261719 213.625 209.152344 C 219.4375 207.042969 237.261719 200.144531 253.234375 193.820312 C 269.207031 187.492188 291.054688 179.0625 301.789062 175.101562 C 312.523438 171.140625 324.597656 166.601562 328.621094 165.003906 C 332.648438 163.472656 346.765625 157.785156 359.925781 152.421875 C 373.085938 147.054688 387.207031 141.558594 391.230469 140.28125 C 395.257812 138.941406 401.007812 137.46875 404.007812 137.023438 C 407.332031 136.574219 411.804688 136.449219 415.636719 136.703125 C 419.085938 136.894531 424.964844 137.664062 428.734375 138.429688 C 432.566406 139.132812 440.234375 140.855469 445.855469 142.261719 C 451.476562 143.667969 462.976562 146.671875 471.410156 148.96875 C 479.84375 151.269531 507.1875 158.871094 532.101562 165.835938 C 557.019531 172.800781 584.679688 180.402344 593.433594 182.765625 C 602.1875 185.066406 613.558594 188.132812 618.667969 189.472656 C 623.78125 190.816406 629.210938 192.542969 630.808594 193.242188 C 632.40625 193.882812 634.511719 195.289062 635.472656 196.308594 C 636.492188 197.332031 637.261719 198.800781 637.195312 199.695312 C 637.195312 200.589844 636.621094 202.253906 635.917969 203.339844 C 635.214844 204.488281 632.53125 207.109375 629.976562 209.152344 C 627.484375 211.132812 622.820312 214.390625 619.628906 216.308594 C 616.433594 218.222656 610.683594 221.226562 606.851562 223.078125 C 603.015625 224.867188 596.5 227.679688 592.476562 229.277344 C 588.449219 230.808594 575.929688 235.152344 564.683594 238.859375 C 553.441406 242.566406 541.878906 246.335938 538.9375 247.230469 C 536.0625 248.121094 533.125 248.890625 532.421875 248.890625 C 531.71875 248.890625 531.144531 249.082031 531.144531 249.335938 C 531.144531 249.65625 531.71875 251.699219 532.421875 254 C 533.125 256.300781 533.890625 258.535156 534.148438 258.917969 C 534.53125 259.496094 537.980469 258.472656 547.117188 254.894531 C 553.953125 252.277344 565.324219 247.421875 572.351562 244.160156 C 579.378906 240.839844 588.898438 236.816406 593.433594 235.21875 C 597.96875 233.683594 606.210938 230.9375 611.640625 229.148438 C 617.074219 227.421875 627.871094 224.101562 635.597656 221.800781 C 643.328125 219.5 651.828125 216.753906 654.445312 215.667969 C 657.066406 214.582031 661.089844 212.601562 663.390625 211.195312 C 665.691406 209.855469 668.820312 207.492188 670.355469 205.957031 C 671.953125 204.425781 673.613281 202.253906 674.058594 201.101562 C 674.507812 200.015625 674.890625 198.097656 674.890625 196.949219 C 674.828125 195.480469 674.1875 194.265625 672.460938 192.605469 C 670.546875 190.6875 668.691406 189.859375 662.75 188.003906 C 658.726562 186.726562 648.183594 183.789062 639.433594 181.488281 C 630.617188 179.125 615.730469 175.164062 606.210938 172.542969 C 596.691406 169.988281 580.464844 165.515625 570.117188 162.707031 C 559.765625 159.894531 544.050781 155.679688 535.296875 153.378906 C 526.480469 151.015625 510.253906 146.542969 499.199219 143.410156 C 488.148438 140.21875 470.578125 135.042969 460.230469 131.914062 C 449.878906 128.71875 436.65625 124.628906 430.839844 122.710938 C 425.027344 120.859375 419.023438 119.136719 417.425781 118.941406 C 415.378906 118.6875 412.570312 119.070312 407.523438 120.414062 C 403.6875 121.433594 396.726562 123.605469 392.191406 125.269531 Z M 386.757812 145.585938 C 383.4375 146.796875 374.941406 150.183594 367.914062 153.058594 C 360.886719 155.933594 348.109375 161.109375 339.484375 164.558594 C 330.859375 168.007812 315.078125 174.015625 304.34375 177.976562 C 293.613281 181.9375 274.957031 189.15625 262.816406 193.945312 C 250.679688 198.800781 236.625 204.359375 231.511719 206.277344 C 226.402344 208.257812 215.925781 212.15625 208.195312 215.03125 C 200.464844 217.90625 192.160156 221.289062 189.667969 222.503906 C 187.175781 223.71875 184.75 225.125 184.238281 225.570312 C 183.40625 226.402344 183.597656 226.65625 185.835938 227.550781 C 187.238281 228.125 193.117188 229.851562 198.929688 231.382812 C 204.746094 232.917969 214.96875 235.472656 221.609375 237.007812 C 228.253906 238.605469 237.070312 240.457031 241.097656 241.160156 C 245.121094 241.863281 252.980469 243.074219 258.472656 243.777344 C 264.03125 244.480469 270.421875 245.054688 272.722656 245.054688 L 276.875 245.054688 C 281.089844 237.070312 284.605469 231.640625 287.351562 227.933594 C 290.160156 224.164062 295.210938 218.289062 298.53125 214.835938 C 301.917969 211.324219 306.515625 207.109375 308.816406 205.445312 C 311.117188 203.722656 315.269531 201.230469 318.082031 199.886719 C 322.359375 197.90625 324.023438 197.460938 327.984375 197.269531 C 331.496094 197.140625 333.15625 197.332031 334.179688 198.035156 C 335.011719 198.609375 336.222656 200.015625 336.925781 201.101562 C 337.886719 202.699219 338.207031 204.359375 338.207031 208 C 338.207031 211.261719 337.695312 214.644531 336.609375 218.542969 C 335.714844 221.671875 333.414062 227.421875 331.5625 231.320312 C 329.644531 235.21875 326.320312 241.09375 324.085938 244.417969 C 321.914062 247.738281 318.144531 253.105469 315.78125 256.238281 C 313.351562 259.367188 309.074219 264.988281 306.199219 268.628906 C 303.386719 272.273438 301.085938 275.464844 301.085938 275.785156 C 301.152344 276.105469 302.109375 276.359375 303.195312 276.359375 C 304.34375 276.359375 307.601562 275.785156 310.414062 275.148438 C 313.226562 274.445312 318.976562 273.292969 323.191406 272.589844 C 327.40625 271.824219 335.011719 270.804688 340.121094 270.292969 C 345.234375 269.78125 354.367188 269.078125 360.375 268.695312 C 366.441406 268.375 374.429688 268.054688 378.132812 268.054688 L 384.84375 268.054688 C 384.84375 253.363281 385.289062 246.652344 385.800781 243.460938 C 386.3125 240.328125 387.335938 235.410156 388.035156 232.597656 C 388.804688 229.789062 390.082031 225.761719 390.976562 223.652344 C 391.804688 221.546875 393.46875 218.222656 394.617188 216.308594 C 395.703125 214.390625 399.855469 209.664062 403.6875 205.765625 C 407.523438 201.933594 412.890625 197.332031 415.507812 195.542969 C 418.128906 193.820312 422.472656 191.261719 425.089844 189.921875 C 427.710938 188.644531 432.117188 186.792969 434.800781 185.960938 C 437.550781 185.066406 442.277344 183.917969 445.34375 183.40625 C 448.472656 182.894531 454.414062 182.445312 458.632812 182.445312 C 462.847656 182.445312 468.980469 182.894531 472.175781 183.40625 C 475.433594 183.917969 480.480469 185.128906 483.355469 186.023438 C 486.296875 186.984375 490.382812 188.582031 492.492188 189.667969 C 494.601562 190.6875 497.921875 192.667969 499.839844 193.945312 C 501.757812 195.289062 505.207031 198.292969 507.507812 200.71875 C 509.804688 203.210938 513 207.171875 514.597656 209.597656 C 516.257812 212.089844 518.878906 216.691406 520.476562 219.820312 C 522.070312 222.953125 524.628906 229.339844 526.226562 233.875 C 527.757812 238.414062 529.355469 242.820312 529.800781 243.585938 C 530.3125 244.609375 531.082031 245.054688 532.421875 245.054688 C 533.445312 245.054688 544.496094 241.734375 556.828125 237.710938 C 569.222656 233.621094 581.359375 229.597656 583.851562 228.703125 C 586.34375 227.808594 591.515625 225.761719 595.351562 224.164062 C 599.183594 222.632812 605.574219 219.691406 609.40625 217.710938 C 613.238281 215.730469 618.988281 212.410156 622.183594 210.238281 C 625.378906 208.128906 629.148438 205.253906 630.617188 203.847656 C 632.214844 202.378906 633.363281 200.71875 633.363281 199.824219 C 633.363281 198.738281 632.597656 198.097656 629.976562 196.886719 C 628.1875 195.992188 622.3125 194.136719 617.070312 192.734375 C 611.769531 191.328125 599.757812 188.132812 590.238281 185.640625 C 580.71875 183.085938 555.742188 176.1875 534.65625 170.308594 C 513.574219 164.367188 487.253906 157.082031 476.199219 154.015625 C 465.148438 150.949219 450.902344 147.179688 444.578125 145.648438 C 438.253906 144.050781 429.820312 142.199219 425.859375 141.558594 C 421.515625 140.792969 415.890625 140.28125 411.484375 140.28125 C 406.117188 140.34375 402.921875 140.730469 398.578125 141.878906 C 395.382812 142.644531 390.082031 144.371094 386.757812 145.585938 Z M 435.953125 189.476562 C 432.628906 190.5625 427.648438 192.667969 424.898438 194.136719 C 422.089844 195.609375 417.488281 198.609375 414.679688 200.71875 C 411.804688 202.890625 407.332031 206.851562 404.777344 209.535156 C 402.285156 212.21875 399.21875 215.925781 398.066406 217.710938 C 396.851562 219.566406 395.128906 222.953125 394.234375 225.25 C 393.339844 227.550781 391.871094 232.40625 390.976562 236.113281 C 390.082031 239.816406 388.996094 245.824219 388.613281 249.527344 C 388.230469 253.234375 388.035156 258.855469 388.164062 261.988281 L 388.355469 267.734375 C 441.894531 268.4375 452.945312 268.824219 459.910156 269.589844 C 465.148438 270.164062 471.921875 271.1875 474.921875 271.824219 C 477.925781 272.527344 482.972656 273.996094 486.105469 275.148438 C 489.296875 276.359375 493.578125 278.339844 495.621094 279.554688 C 497.667969 280.769531 502.523438 284.730469 506.292969 288.308594 C 510.125 291.949219 514.34375 295.65625 515.621094 296.550781 C 516.960938 297.445312 518.496094 298.082031 519.003906 297.890625 C 519.515625 297.699219 520.539062 297.890625 521.242188 298.402344 C 521.945312 298.914062 523.285156 299.359375 524.246094 299.359375 C 525.394531 299.359375 526.863281 298.59375 528.332031 297.253906 C 529.675781 296.101562 531.144531 293.738281 531.910156 291.695312 C 532.996094 288.882812 533.316406 286.328125 533.507812 279.234375 C 533.699219 272.589844 533.507812 269.460938 532.804688 267.097656 C 532.292969 265.308594 530.695312 259.878906 529.292969 254.957031 C 527.886719 250.039062 526.035156 244.160156 525.203125 241.863281 C 524.371094 239.5625 523.03125 235.730469 522.199219 233.238281 C 521.433594 230.746094 519.515625 226.144531 518.046875 223.015625 C 516.515625 219.886719 513.765625 214.964844 511.914062 212.15625 C 510.125 209.34375 506.867188 205.191406 504.695312 202.953125 C 502.523438 200.71875 498.945312 197.652344 496.644531 196.183594 C 494.34375 194.648438 490.765625 192.734375 488.660156 191.839844 C 486.550781 190.945312 482.84375 189.667969 480.355469 188.898438 C 477.863281 188.132812 473.007812 187.109375 469.492188 186.601562 C 465.980469 186.089844 460.804688 185.707031 457.992188 185.707031 C 455.183594 185.769531 450.453125 186.152344 447.453125 186.601562 C 444.449219 187.046875 439.273438 188.324219 435.953125 189.472656 Z M 312.96875 206.980469 C 310.160156 208.894531 304.984375 213.433594 301.46875 217.074219 C 297.957031 220.714844 293.230469 226.144531 290.929688 229.210938 C 288.628906 232.214844 285.433594 236.941406 283.773438 239.753906 C 282.113281 242.5 279.875 246.910156 278.789062 249.527344 C 277.703125 252.148438 276.363281 256.171875 275.851562 258.472656 C 275.402344 260.773438 274.957031 265.054688 274.957031 268.054688 C 274.957031 271.058594 275.277344 275.339844 275.660156 277.640625 C 276.042969 279.9375 276.875 283.070312 277.578125 284.667969 C 278.277344 286.261719 279.621094 288.308594 280.578125 289.332031 C 281.730469 290.480469 282.941406 291.054688 284.21875 291.054688 C 285.242188 291.054688 290.609375 289.777344 296.039062 288.179688 C 301.46875 286.582031 310.222656 284.410156 315.523438 283.386719 C 320.765625 282.367188 329.132812 280.960938 334.050781 280.195312 C 339.546875 279.363281 347.914062 278.726562 355.773438 278.46875 C 366.1875 278.214844 369.636719 278.339844 374.621094 279.234375 C 377.941406 279.8125 381.777344 280.515625 383.117188 280.707031 L 385.480469 281.152344 C 385.480469 275.722656 385.226562 273.421875 384.96875 272.589844 L 384.523438 271.058594 C 370.148438 271.761719 361.394531 272.207031 355.773438 272.589844 C 350.152344 272.910156 341.65625 273.679688 336.925781 274.1875 C 332.199219 274.699219 322.554688 276.296875 315.523438 277.703125 C 307.730469 279.300781 301.980469 280.128906 300.832031 279.875 C 299.808594 279.683594 298.53125 279.171875 298.085938 278.726562 C 297.636719 278.277344 297.253906 277.191406 297.316406 276.167969 C 297.316406 275.019531 299.105469 272.082031 303.003906 266.90625 C 306.199219 262.816406 310.476562 257.132812 312.648438 254.320312 C 314.824219 251.507812 318.464844 246.398438 320.699219 242.949219 C 322.9375 239.5625 326.195312 233.941406 327.917969 230.488281 C 329.644531 227.105469 331.816406 221.867188 332.773438 218.863281 C 334.050781 215.03125 334.5625 211.960938 334.628906 208.449219 C 334.691406 203.722656 334.5625 203.339844 332.902344 201.867188 C 331.816406 200.910156 330.410156 200.335938 329.070312 200.335938 C 327.984375 200.335938 325.042969 201.101562 322.554688 201.933594 C 320.0625 202.828125 315.78125 205.0625 312.96875 206.980469 Z M 197.335938 256.875 C 197.527344 261.09375 197.972656 272.464844 198.292969 282.109375 C 198.675781 291.757812 199.058594 302.109375 199.316406 305.109375 C 199.507812 308.113281 199.761719 310.414062 199.890625 310.222656 C 200.082031 310.03125 200.59375 307.472656 201.101562 304.472656 C 201.679688 301.46875 202.574219 294.886719 203.148438 289.777344 C 203.722656 284.667969 204.234375 275.464844 204.296875 269.332031 C 204.296875 263.199219 203.976562 255.726562 203.53125 252.722656 C 203.082031 249.71875 202.382812 246.972656 201.933594 246.589844 C 201.550781 246.207031 200.335938 245.757812 199.378906 245.566406 C 197.78125 245.3125 197.527344 245.441406 197.269531 247.230469 C 197.140625 248.316406 197.140625 252.660156 197.335938 256.875 Z M 389.058594 275.851562 C 389.441406 279.683594 389.316406 280.832031 388.484375 282.238281 C 387.527344 283.773438 387.015625 284.027344 384.332031 284.027344 C 382.671875 284.027344 379.027344 283.515625 376.21875 282.941406 C 372.578125 282.175781 367.914062 281.917969 359.925781 281.917969 C 353.792969 281.917969 345.871094 282.238281 342.359375 282.6875 C 338.84375 283.132812 330.921875 284.347656 324.789062 285.371094 C 318.65625 286.457031 311.753906 287.734375 309.457031 288.242188 C 307.15625 288.820312 300.894531 290.480469 295.527344 292.078125 C 290.226562 293.609375 284.921875 294.886719 283.902344 294.886719 C 282.625 294.886719 280.917969 295.738281 278.789062 297.445312 C 277 298.847656 274 301.914062 272.019531 304.28125 C 270.101562 306.707031 267.546875 310.605469 266.332031 313.097656 C 265.183594 315.585938 263.839844 319.421875 263.394531 321.722656 C 262.945312 324.210938 262.753906 327.917969 263.011719 330.984375 C 263.203125 333.796875 264.03125 337.949219 264.863281 340.25 C 265.691406 342.546875 267.671875 346.253906 269.269531 348.554688 C 270.867188 350.851562 274.191406 354.496094 276.617188 356.730469 C 279.046875 358.902344 281.28125 360.691406 281.664062 360.691406 C 281.984375 360.691406 281.089844 358.136719 279.621094 355.070312 C 278.152344 352.003906 276.171875 346.957031 275.210938 343.761719 C 273.871094 339.226562 273.550781 336.605469 273.488281 331.304688 C 273.488281 325.808594 273.742188 323.894531 274.957031 320.761719 C 275.789062 318.65625 277.191406 315.78125 278.214844 314.375 C 279.171875 312.96875 281.21875 310.605469 282.75 309.136719 C 284.21875 307.664062 286.585938 306.003906 287.863281 305.429688 C 289.203125 304.917969 291.121094 304.472656 292.207031 304.472656 C 293.226562 304.472656 295.210938 304.984375 296.488281 305.683594 C 297.828125 306.324219 299.679688 307.984375 300.640625 309.328125 C 301.597656 310.730469 303.003906 313.351562 303.707031 315.140625 C 304.410156 316.992188 305.429688 320.507812 305.941406 323 C 306.453125 325.492188 307.476562 333.414062 308.179688 340.695312 C 308.878906 348.042969 310.03125 357.179688 310.796875 361.011719 C 311.5 364.84375 314.121094 374.9375 316.484375 383.371094 C 318.910156 391.804688 321.660156 400.683594 322.550781 403.175781 C 323.511719 405.667969 325.425781 409.949219 326.832031 412.761719 C 328.238281 415.570312 330.476562 419.46875 331.816406 421.386719 C 333.15625 423.300781 335.265625 426.175781 336.542969 427.773438 C 337.886719 429.371094 342.421875 434.164062 346.703125 438.507812 C 350.984375 442.851562 358.074219 449.367188 362.480469 452.945312 C 366.890625 456.585938 373.214844 461.378906 376.539062 463.679688 C 379.859375 465.976562 384.203125 468.726562 386.121094 469.8125 C 388.035156 470.898438 391.871094 472.496094 394.554688 473.390625 C 397.300781 474.285156 400.878906 475.050781 402.539062 475.050781 C 404.265625 475.050781 407.332031 474.601562 409.4375 474.027344 C 411.546875 473.515625 415.253906 471.984375 417.617188 470.707031 C 420.042969 469.429688 424.964844 466.167969 428.476562 463.488281 C 432.054688 460.804688 437.421875 456.457031 440.425781 453.839844 C 443.425781 451.21875 448.347656 446.109375 451.414062 442.46875 C 454.414062 438.761719 460.039062 432.757812 463.742188 429.050781 C 467.511719 425.347656 474.988281 416.914062 480.355469 410.203125 C 485.71875 403.496094 491.40625 396.085938 493.003906 393.59375 C 494.535156 391.101562 497.539062 385.925781 499.582031 382.09375 C 501.691406 378.132812 503.226562 374.363281 503.160156 373.46875 C 503.097656 372.574219 502.652344 365.417969 502.074219 357.496094 C 501.5625 349.574219 501.117188 340.824219 501.117188 338.011719 C 501.117188 335.199219 501.5625 330.152344 502.140625 326.832031 C 502.714844 323.507812 503.800781 318.589844 504.566406 315.972656 C 505.332031 313.351562 506.738281 309.835938 507.699219 308.113281 C 508.65625 306.453125 510.378906 304.535156 511.46875 303.832031 C 512.617188 303.128906 514.148438 302.554688 514.851562 302.554688 C 515.554688 302.554688 517.152344 303.195312 518.367188 303.960938 C 519.582031 304.789062 521.242188 306.707031 522.007812 308.304688 C 522.839844 309.902344 523.605469 312.90625 523.859375 315.011719 C 524.117188 317.121094 523.925781 321.273438 523.542969 324.277344 C 523.09375 327.277344 521.878906 333.15625 520.859375 337.375 C 519.773438 341.589844 517.726562 348.617188 516.320312 353.027344 C 514.917969 357.433594 512.746094 363.121094 511.59375 365.613281 C 510.378906 368.167969 509.613281 370.402344 509.871094 370.59375 C 510.1875 370.722656 511.976562 369.574219 513.894531 368.039062 C 515.8125 366.503906 519.773438 362.863281 522.582031 359.925781 C 525.457031 356.988281 528.972656 352.769531 530.441406 350.46875 C 531.910156 348.171875 533.890625 344.015625 534.785156 341.207031 C 536.128906 337.117188 536.445312 334.753906 536.511719 329.386719 C 536.574219 323.0625 536.445312 322.421875 534.53125 318.527344 C 532.996094 315.394531 531.082031 313.03125 526.542969 308.6875 C 522.648438 304.984375 519.195312 302.300781 516.449219 300.894531 C 513.574219 299.488281 509.933594 296.613281 504.632812 291.566406 C 498.816406 286.136719 495.621094 283.707031 491.851562 281.726562 C 489.042969 280.257812 484.441406 278.277344 481.632812 277.382812 C 478.820312 276.425781 474.21875 275.273438 471.410156 274.765625 C 468.597656 274.253906 463.421875 273.550781 459.910156 273.167969 C 456.394531 272.785156 447.070312 272.207031 439.148438 271.890625 C 431.222656 271.570312 416.59375 271.25 406.691406 271.25 L 388.546875 271.25 Z M 510.507812 310.859375 C 509.550781 312.585938 508.082031 316.800781 507.25 320.25 C 506.355469 323.703125 505.398438 328.8125 505.015625 331.625 C 504.4375 335.519531 504.566406 340.054688 505.269531 351.046875 C 505.84375 358.96875 506.226562 365.675781 506.226562 365.929688 C 506.226562 366.1875 506.546875 366.378906 506.867188 366.378906 C 507.25 366.378906 508.335938 364.332031 509.359375 361.777344 C 510.378906 359.222656 512.296875 353.855469 513.574219 349.765625 C 514.851562 345.742188 516.769531 339.035156 517.855469 334.816406 C 518.878906 330.472656 519.898438 324.46875 520.089844 321.019531 C 520.285156 317.566406 520.15625 313.925781 519.773438 312.394531 C 519.390625 311.050781 518.496094 309.070312 517.792969 308.113281 C 517.089844 307.15625 515.9375 306.386719 515.363281 306.386719 C 514.726562 306.386719 513.765625 306.707031 513.191406 307.027344 C 512.617188 307.410156 511.402344 309.136719 510.507812 310.859375 Z M 283.324219 313.734375 C 281.730469 315.460938 279.75 318.460938 278.917969 320.378906 C 277.769531 322.933594 277.257812 325.492188 277.066406 329.644531 C 276.808594 334.113281 277 336.605469 278.023438 340.566406 C 278.726562 343.316406 280.195312 347.785156 281.28125 350.40625 C 282.367188 353.089844 284.796875 357.5625 286.648438 360.308594 C 289.011719 363.949219 290.929688 366.058594 293.164062 367.527344 C 294.953125 368.679688 297.316406 370.53125 298.53125 371.679688 C 299.679688 372.832031 301.726562 375.320312 303.066406 377.238281 C 304.410156 379.21875 306.390625 382.667969 307.539062 384.90625 C 308.6875 387.207031 310.863281 392.253906 312.394531 396.085938 C 313.863281 399.984375 315.84375 406.433594 316.804688 410.460938 C 317.761719 414.550781 319.292969 420.425781 320.125 423.558594 C 321.019531 426.75 323.0625 432.183594 324.789062 435.695312 C 326.449219 439.210938 329.070312 443.679688 330.539062 445.597656 C 332.007812 447.578125 335.136719 451.285156 337.4375 453.902344 C 339.800781 456.457031 344.464844 460.867188 347.789062 463.679688 C 351.175781 466.425781 356.605469 470.515625 359.925781 472.75 C 363.3125 474.984375 369.316406 478.4375 373.34375 480.351562 C 377.433594 482.332031 383.179688 484.632812 386.121094 485.464844 C 389.125 486.359375 393.851562 487.378906 396.660156 487.761719 C 400.429688 488.273438 402.988281 488.273438 406.246094 487.761719 C 408.738281 487.378906 412.3125 486.484375 414.230469 485.847656 C 416.210938 485.144531 419.277344 483.675781 421.128906 482.523438 C 423.046875 481.375 427.199219 478.5 430.394531 476.070312 C 433.652344 473.644531 440.042969 469.171875 444.578125 466.105469 C 449.175781 462.976562 454.480469 459.207031 456.460938 457.671875 C 458.441406 456.140625 462.144531 452.945312 464.765625 450.644531 C 467.382812 448.28125 472.238281 443.296875 475.5625 439.527344 C 478.949219 435.824219 483.355469 430.394531 485.402344 427.519531 C 487.445312 424.644531 490.257812 419.980469 491.660156 417.167969 C 493.003906 414.421875 495.113281 409.054688 496.324219 405.347656 C 497.476562 401.707031 498.882812 396.722656 499.457031 394.359375 C 500.03125 391.996094 500.285156 390.015625 500.03125 390.015625 C 499.777344 390.015625 498.113281 392.253906 496.390625 395 C 494.601562 397.746094 488.660156 405.539062 483.164062 412.375 C 477.671875 419.277344 470.257812 427.710938 466.683594 431.222656 C 463.039062 434.738281 457.480469 440.804688 454.222656 444.640625 C 450.964844 448.535156 445.472656 454.160156 442.023438 457.160156 C 438.507812 460.164062 434.355469 463.613281 432.757812 464.890625 C 431.226562 466.105469 427.582031 468.660156 424.773438 470.578125 C 421.960938 472.429688 417.679688 474.859375 415.1875 475.878906 C 411.675781 477.414062 409.503906 477.859375 404.648438 478.050781 C 400.113281 478.308594 397.683594 478.117188 394.746094 477.285156 C 392.636719 476.648438 388.355469 474.859375 385.164062 473.195312 C 382.03125 471.535156 376.855469 468.40625 373.664062 466.167969 C 370.53125 463.871094 365.613281 460.226562 362.800781 457.992188 C 359.992188 455.757812 354.816406 451.21875 351.300781 448.027344 C 347.789062 444.765625 342.230469 439.210938 338.972656 435.695312 C 335.714844 432.183594 331.433594 427.007812 329.515625 424.195312 C 327.601562 421.449219 324.980469 417.105469 323.703125 414.613281 C 322.488281 412.183594 320.636719 408.03125 319.613281 405.347656 C 318.589844 402.730469 315.78125 393.722656 313.351562 385.226562 C 310.925781 376.792969 308.371094 367.015625 307.601562 363.503906 C 306.902344 359.988281 305.75 351.109375 304.984375 343.699219 C 304.28125 336.351562 303.386719 328.75 303.066406 326.769531 C 302.746094 324.851562 301.980469 321.722656 301.40625 319.742188 C 300.832031 317.824219 299.808594 315.078125 299.105469 313.671875 C 298.339844 312.328125 296.996094 310.476562 296.101562 309.710938 C 295.015625 308.75 293.675781 308.242188 292.207031 308.242188 C 290.992188 308.242188 289.140625 308.816406 288.054688 309.453125 C 287.03125 310.09375 284.859375 312.011719 283.324219 313.734375 Z M 193.371094 352.640625 C 192.671875 354.429688 187.75 365.613281 182.449219 377.558594 C 177.210938 389.570312 171.394531 403.050781 169.542969 407.585938 C 167.753906 412.183594 164.75 419.914062 162.898438 424.835938 C 161.046875 429.816406 158.554688 436.652344 157.46875 440.167969 C 156.320312 443.679688 155.230469 448.601562 155.039062 451.027344 C 154.722656 455.117188 154.785156 455.4375 155.679688 454.542969 C 156.253906 454.03125 158.042969 450.902344 159.703125 447.515625 C 161.367188 444.191406 163.855469 438.890625 165.261719 435.695312 C 166.605469 432.566406 169.414062 425.792969 171.460938 420.683594 C 173.503906 415.636719 177.402344 405.285156 180.085938 397.683594 C 182.832031 390.144531 186.34375 380.6875 187.878906 376.601562 C 189.476562 372.574219 191.648438 367.59375 192.796875 365.546875 C 193.882812 363.566406 195.289062 361.714844 195.929688 361.585938 C 196.503906 361.457031 197.460938 361.648438 198.035156 362.097656 C 198.546875 362.542969 198.996094 363.757812 198.996094 364.78125 C 198.996094 365.867188 198.101562 370.148438 197.078125 374.363281 C 195.992188 378.644531 195.097656 382.414062 195.097656 382.859375 C 195.097656 383.5 195.351562 383.5 196.246094 382.925781 C 196.824219 382.542969 197.84375 382.351562 198.484375 382.605469 C 199.441406 382.925781 199.570312 383.882812 199.570312 388.292969 C 199.570312 391.167969 198.867188 404.644531 197.972656 418.125 C 197.140625 431.671875 195.929688 448.921875 195.351562 456.457031 C 194.777344 464.0625 194.265625 477.03125 194.265625 485.335938 C 194.203125 493.640625 194.394531 500.734375 194.652344 500.988281 C 194.90625 501.308594 195.351562 501.308594 195.609375 500.988281 C 195.863281 500.667969 196.441406 498.242188 196.886719 495.558594 C 197.335938 492.8125 197.910156 479.332031 198.292969 464.765625 C 198.613281 450.582031 199.058594 434.289062 199.25 428.667969 C 199.441406 423.109375 199.953125 414.164062 200.273438 408.863281 C 200.65625 403.625 201.230469 396.980469 201.613281 394.167969 C 201.933594 391.421875 202.507812 388.609375 202.828125 387.972656 C 203.148438 387.332031 203.851562 386.820312 204.363281 386.820312 C 205.191406 386.820312 205.382812 385.289062 205.511719 377.367188 C 205.640625 370.019531 205.894531 367.65625 206.597656 366.824219 C 207.171875 366.1875 208.066406 365.738281 208.707031 365.738281 C 209.28125 365.738281 209.792969 365.546875 209.792969 365.292969 C 209.792969 365.035156 208.515625 360.820312 206.980469 355.835938 L 204.105469 346.890625 C 196.183594 346.890625 195.546875 347.085938 195.097656 348.171875 C 194.84375 348.9375 194.011719 350.917969 193.371094 352.640625 Z M 219.695312 407.90625 C 221.609375 415.507812 224.996094 428.15625 227.296875 436.015625 C 229.597656 443.9375 231.898438 451.476562 232.472656 452.816406 C 232.984375 454.160156 233.75 455.179688 234.070312 455.179688 C 234.453125 455.179688 234.582031 454.414062 234.453125 453.457031 C 234.261719 452.496094 233.6875 449.113281 233.109375 445.917969 C 232.535156 442.785156 230.875 435.3125 229.339844 429.308594 C 227.808594 423.367188 224.421875 411.867188 221.929688 403.753906 C 219.375 395.703125 216.5625 386.3125 215.605469 382.859375 C 214.648438 379.410156 213.5625 376.601562 213.179688 376.601562 C 212.792969 376.601562 213.304688 380.242188 214.390625 385.417969 C 215.351562 390.273438 217.777344 400.367188 219.695312 407.90625 Z M 190.691406 399.597656 C 189.667969 404.007812 187.941406 412.058594 186.855469 417.488281 C 185.769531 422.980469 183.917969 433.585938 182.703125 441.125 C 181.488281 448.730469 179.699219 460.355469 178.808594 467 C 177.914062 473.707031 177.019531 482.78125 176.761719 487.125 C 176.570312 492.746094 176.632812 494.984375 177.144531 494.472656 C 177.464844 494.152344 178.550781 491.277344 179.445312 488.082031 C 180.339844 484.953125 181.808594 478.945312 182.640625 474.667969 C 183.535156 470.449219 184.8125 462.847656 185.515625 457.738281 C 186.21875 452.691406 187.816406 439.464844 189.027344 428.347656 C 190.304688 417.296875 191.902344 404.261719 192.605469 399.40625 C 193.308594 394.488281 193.820312 390.398438 193.691406 390.207031 C 193.566406 390.015625 193.246094 390.273438 192.988281 390.78125 C 192.796875 391.230469 191.710938 395.253906 190.691406 399.597656 Z M 494.601562 441.828125 C 495.429688 441.828125 497.027344 442.785156 498.242188 444 C 500.351562 446.109375 500.476562 446.554688 500.476562 450.390625 C 500.476562 452.945312 499.96875 456.140625 499.136719 458.566406 C 498.433594 460.738281 497.09375 463.871094 496.199219 465.402344 C 495.238281 467 493.195312 470.066406 488.53125 475.945312 L 490.703125 480.097656 C 491.917969 482.398438 493.640625 485.273438 494.601562 486.484375 C 495.496094 487.761719 497.859375 490.574219 499.839844 492.875 C 501.757812 495.109375 504.824219 498.175781 509.742188 502.328125 L 514.535156 501.117188 C 518.109375 500.15625 521.433594 499.839844 527.628906 499.773438 C 533.636719 499.773438 537.789062 500.15625 542.644531 501.117188 C 546.347656 501.882812 551.84375 503.222656 554.78125 504.117188 C 557.785156 505.078125 564.238281 507.375 569.15625 509.292969 C 574.078125 511.273438 583.277344 515.363281 589.601562 518.492188 C 595.925781 521.558594 605.125 526.480469 610.042969 529.355469 C 614.964844 532.230469 622.183594 536.699219 626.015625 539.257812 C 629.914062 541.75 636.558594 546.476562 640.902344 549.671875 C 645.183594 552.863281 650.933594 557.402344 653.679688 559.765625 C 656.363281 562.128906 660.707031 566.023438 663.328125 568.515625 C 665.945312 571.074219 669.777344 575.226562 671.886719 577.84375 C 673.996094 580.527344 676.296875 583.785156 676.933594 585.191406 C 677.574219 586.660156 678.085938 588.640625 678.085938 589.664062 C 678.085938 590.8125 677.507812 592.21875 676.679688 593.050781 C 675.527344 594.199219 674.507812 594.519531 671.886719 594.519531 C 669.90625 594.519531 666.011719 593.6875 662.304688 592.472656 C 658.28125 591.132812 646.078125 585.382812 628.253906 576.375 C 612.984375 568.644531 596.757812 560.210938 592.15625 557.59375 C 587.621094 554.972656 580.273438 550.5 575.863281 547.691406 C 571.519531 544.816406 565.578125 541.046875 562.769531 539.191406 C 559.957031 537.402344 552.929688 533.378906 547.117188 530.3125 C 541.367188 527.246094 532.867188 522.453125 528.269531 519.707031 C 523.734375 516.960938 517.535156 512.871094 509.101562 506.480469 L 504.949219 508.207031 C 502.714844 509.101562 497.796875 511.65625 494.089844 513.894531 C 490.449219 516.066406 483.738281 520.539062 479.332031 523.730469 C 474.859375 526.988281 467.386719 532.804688 462.722656 536.636719 C 458.058594 540.535156 449.558594 548.328125 443.9375 553.886719 C 438.316406 559.507812 431.160156 567.238281 427.964844 571.074219 C 424.835938 574.839844 420.554688 580.335938 418.511719 583.210938 C 416.46875 586.085938 413.464844 590.558594 411.929688 593.175781 C 410.398438 595.859375 407.96875 600.84375 406.628906 604.359375 C 405.222656 607.871094 403.496094 613.941406 402.796875 617.773438 C 402.027344 621.671875 401.261719 627.164062 401.070312 629.914062 C 400.816406 632.722656 401.007812 637.644531 401.453125 640.773438 C 401.835938 643.96875 402.601562 648.3125 403.179688 650.355469 C 403.753906 652.464844 405.285156 656.554688 406.5625 659.300781 C 407.84375 662.113281 410.078125 666.007812 411.484375 667.925781 C 412.890625 669.90625 415.765625 673.035156 417.9375 674.953125 C 420.042969 676.933594 423.621094 679.550781 425.859375 680.894531 C 428.09375 682.234375 432.183594 684.214844 434.992188 685.300781 C 437.804688 686.386719 442.277344 687.792969 444.898438 688.496094 C 447.578125 689.199219 452.433594 690.15625 455.757812 690.667969 C 459.207031 691.179688 466.492188 691.5625 472.367188 691.628906 C 478.183594 691.628906 483.292969 691.820312 483.804688 692.074219 C 484.25 692.328125 484.507812 693.160156 484.378906 693.800781 C 484.1875 695.078125 483.675781 695.078125 471.730469 695.078125 C 462.335938 695.078125 457.738281 694.820312 452.882812 693.925781 C 449.367188 693.289062 444.066406 692.011719 441.0625 691.179688 C 438.125 690.285156 433.523438 688.6875 430.839844 687.539062 C 428.222656 686.386719 424.324219 684.34375 422.214844 683.003906 C 420.109375 681.597656 416.210938 678.273438 413.527344 675.65625 C 410.589844 672.714844 407.523438 668.820312 405.734375 665.6875 C 404.074219 662.941406 402.027344 658.46875 401.132812 655.785156 C 400.304688 653.167969 399.152344 648.824219 398.578125 646.074219 C 398.066406 643.328125 397.621094 639.625 397.683594 637.769531 C 397.683594 635.917969 397.429688 634.191406 397.171875 633.9375 C 396.917969 633.679688 395.960938 634.066406 395.066406 634.769531 C 394.105469 635.535156 392.574219 636.046875 391.105469 636.046875 C 389.316406 636.046875 388.230469 635.535156 386.757812 634.066406 C 385.738281 633.042969 384.394531 630.679688 383.820312 628.824219 C 383.183594 626.71875 382.671875 622.054688 382.480469 616.175781 C 382.222656 609.277344 382.414062 605.1875 383.246094 599.886719 C 383.882812 596.050781 385.417969 589.726562 386.695312 585.832031 C 388.039062 581.996094 389.316406 578.417969 389.570312 577.84375 C 389.890625 577.269531 388.867188 575.160156 386.695312 571.773438 C 384.652344 568.707031 380.113281 563.46875 375.003906 558.359375 C 370.40625 553.757812 362.800781 546.921875 358.011719 543.152344 C 353.28125 539.320312 344.53125 532.996094 338.523438 529.035156 C 332.582031 525.074219 323.832031 519.578125 319.039062 516.832031 C 314.3125 514.085938 307.285156 510.316406 303.386719 508.527344 C 299.554688 506.675781 295.785156 505.011719 295.082031 504.820312 C 294.058594 504.566406 293.035156 505.589844 289.523438 510.699219 C 287.160156 514.085938 282.816406 519.707031 279.875 523.222656 C 276.9375 526.734375 271.507812 532.675781 267.867188 536.316406 C 264.222656 540.023438 258.601562 545.390625 255.472656 548.199219 C 252.339844 551.011719 246.273438 556.058594 242.054688 559.382812 C 237.839844 562.765625 231.960938 567.238281 228.957031 569.347656 C 226.019531 571.519531 221.417969 574.585938 218.738281 576.3125 C 216.117188 577.972656 211.515625 580.78125 208.515625 582.507812 C 205.574219 584.234375 199.953125 587.300781 196.054688 589.214844 C 192.222656 591.132812 186.472656 593.878906 183.277344 595.285156 C 180.148438 596.628906 174.652344 598.734375 171.140625 599.886719 C 167.625 601.035156 162.070312 602.503906 158.683594 603.078125 C 155.359375 603.589844 150.503906 604.101562 147.820312 604.039062 C 145.203125 604.039062 141.175781 603.78125 138.878906 603.398438 C 136.640625 603.015625 134.148438 602.378906 133.445312 601.929688 C 132.746094 601.484375 131.976562 600.078125 131.785156 598.925781 C 131.53125 597.585938 131.722656 595.859375 132.296875 594.453125 C 132.808594 593.242188 134.148438 591.132812 135.300781 589.726562 C 136.386719 588.386719 140.21875 584.808594 143.734375 581.742188 C 147.3125 578.738281 154.019531 573.246094 158.746094 569.476562 C 163.472656 565.707031 172.097656 558.421875 177.847656 553.246094 C 183.664062 548.074219 191.585938 541.238281 195.417969 538.042969 C 199.316406 534.914062 206.34375 529.417969 211.070312 525.902344 C 215.863281 522.390625 223.910156 516.769531 228.957031 513.382812 C 234.070312 510.058594 241.097656 505.84375 244.609375 504.054688 C 248.125 502.265625 253.300781 500.03125 256.109375 499.136719 C 258.921875 498.175781 263.394531 497.089844 266.011719 496.707031 C 268.886719 496.261719 272.914062 496.132812 275.914062 496.386719 C 278.726562 496.644531 283.070312 497.410156 285.5 498.050781 C 287.988281 498.6875 290.546875 499.453125 291.25 499.644531 C 292.335938 500.03125 293.292969 498.816406 297.890625 491.214844 C 300.894531 486.359375 304.855469 479.203125 306.707031 475.304688 C 308.625 471.472656 310.160156 467.957031 310.160156 467.511719 C 310.09375 467.0625 309.519531 464.636719 308.753906 462.082031 C 307.859375 458.949219 307.476562 456.265625 307.601562 453.839844 C 307.796875 451.476562 308.371094 449.558594 309.199219 448.410156 C 309.96875 447.386719 311.308594 446.300781 312.265625 445.917969 C 313.671875 445.40625 314.183594 445.535156 315.269531 446.554688 C 315.972656 447.324219 316.804688 448.984375 317.121094 450.390625 C 317.441406 451.988281 317.441406 454.476562 317.058594 456.777344 C 316.738281 458.886719 315.972656 462.082031 315.398438 463.804688 C 314.375 467 314.375 467.0625 316.164062 470.195312 C 317.1875 471.984375 319.039062 474.859375 320.316406 476.582031 C 321.660156 478.371094 324.789062 481.886719 327.410156 484.441406 C 330.027344 486.996094 334.308594 490.636719 336.925781 492.554688 C 339.609375 494.472656 344.210938 497.28125 347.148438 498.878906 C 350.152344 500.476562 355.328125 502.839844 358.648438 504.117188 C 362.035156 505.332031 367.914062 507.25 371.746094 508.269531 C 375.644531 509.292969 381.648438 510.570312 385.164062 511.210938 C 388.996094 511.847656 395.449219 512.296875 401.132812 512.296875 C 408.417969 512.359375 411.996094 512.105469 415.828125 511.210938 C 418.640625 510.507812 424.132812 508.910156 427.964844 507.570312 C 431.863281 506.226562 438.761719 503.414062 443.300781 501.371094 C 447.898438 499.261719 454.351562 496.070312 457.675781 494.152344 C 461.058594 492.300781 465.789062 489.488281 468.214844 487.828125 C 470.707031 486.167969 474.859375 483.035156 477.480469 480.925781 C 480.164062 478.820312 482.652344 476.648438 483.101562 476.070312 C 483.738281 475.242188 483.675781 474.089844 482.84375 470.066406 C 482.144531 466.679688 481.886719 463.613281 482.144531 460.292969 C 482.335938 457.671875 483.101562 453.96875 483.867188 451.988281 C 484.570312 450.070312 485.976562 447.386719 487 446.046875 C 488.019531 444.703125 489.808594 443.171875 490.960938 442.722656 C 492.171875 442.210938 493.769531 441.828125 494.601562 441.828125 Z M 487.125 453.582031 C 485.910156 456.90625 485.71875 458.375 485.910156 463.804688 C 486.039062 467.320312 486.359375 470.578125 486.613281 471.023438 C 486.933594 471.601562 487.765625 470.960938 489.363281 469.109375 C 490.574219 467.640625 492.621094 464.253906 493.898438 461.570312 C 495.175781 458.949219 496.515625 455.054688 496.902344 452.945312 C 497.476562 449.6875 497.410156 448.921875 496.453125 447.386719 C 495.878906 446.363281 494.792969 445.597656 494.027344 445.597656 C 493.324219 445.597656 491.789062 446.554688 490.640625 447.707031 C 489.488281 448.855469 487.890625 451.539062 487.125 453.582031 Z M 311.308594 455.820312 C 311.371094 457.929688 311.691406 459.84375 312.011719 459.972656 C 312.394531 460.164062 312.84375 460.035156 312.96875 459.652344 C 313.160156 459.332031 313.480469 457.097656 313.671875 454.671875 C 313.800781 452.242188 313.734375 450.070312 313.351562 449.878906 C 313.035156 449.621094 312.457031 450.007812 312.011719 450.710938 C 311.628906 451.347656 311.308594 453.648438 311.308594 455.820312 Z M 301.214844 492.746094 L 296.039062 501.242188 C 301.277344 503.351562 306.199219 505.78125 310.414062 507.953125 C 314.628906 510.125 321.53125 514.019531 325.746094 516.511719 C 329.964844 519.066406 337.628906 523.988281 342.675781 527.4375 C 347.789062 530.886719 355.835938 536.828125 360.566406 540.597656 C 365.355469 544.429688 372.960938 551.265625 377.558594 555.804688 C 382.160156 560.402344 387.140625 566.089844 388.738281 568.453125 C 390.273438 570.816406 391.742188 572.734375 391.871094 572.796875 C 392.0625 572.796875 393.277344 571.265625 394.554688 569.410156 C 395.832031 567.558594 399.152344 563.34375 401.964844 559.957031 C 404.773438 556.632812 410.78125 550.308594 415.316406 545.902344 C 419.851562 541.554688 427.710938 534.464844 432.820312 530.25 C 437.867188 526.03125 445.472656 519.707031 449.6875 516.320312 C 453.90625 512.871094 461.636719 506.164062 466.875 501.308594 C 472.046875 496.515625 477.289062 491.46875 478.4375 490 C 479.585938 488.59375 481.121094 486.230469 481.886719 484.761719 C 482.652344 483.292969 483.101562 481.886719 482.910156 481.695312 C 482.78125 481.566406 481.121094 482.652344 479.269531 484.1875 C 477.414062 485.78125 473.007812 488.976562 469.492188 491.277344 C 465.980469 493.640625 457.675781 498.242188 450.964844 501.5625 C 444.320312 504.820312 435.953125 508.589844 432.4375 509.867188 C 428.925781 511.144531 423.367188 512.933594 419.980469 513.828125 C 415.507812 514.980469 411.675781 515.492188 404.96875 515.746094 C 399.726562 515.9375 393.402344 515.746094 389.632812 515.296875 C 386.121094 514.914062 379.988281 513.828125 375.898438 512.933594 C 371.875 512.039062 365.421875 510.1875 361.523438 508.910156 C 357.691406 507.570312 352.515625 505.589844 350.023438 504.4375 C 347.597656 503.351562 343.828125 501.371094 341.71875 500.09375 C 339.609375 498.816406 336.03125 496.386719 333.734375 494.664062 C 331.496094 493.003906 327.152344 489.167969 324.148438 486.230469 C 321.082031 483.164062 317.570312 478.945312 316.035156 476.328125 C 314.566406 473.835938 313.097656 471.855469 312.84375 471.855469 C 312.585938 471.917969 310.988281 474.667969 309.328125 478.117188 C 307.730469 481.503906 304.027344 488.082031 301.214844 492.746094 Z M 485.847656 485.015625 C 485.082031 486.742188 483.484375 489.425781 482.335938 490.957031 C 481.183594 492.554688 475.625 498.113281 470.066406 503.222656 C 464.511719 508.398438 454.03125 517.472656 446.8125 523.347656 C 439.65625 529.226562 430.714844 536.636719 427.007812 539.894531 C 423.367188 543.152344 417.167969 549.03125 413.273438 553.054688 C 409.375 557.015625 404.265625 562.765625 401.835938 565.707031 C 399.472656 568.707031 396.789062 572.414062 395.957031 573.882812 L 394.425781 576.566406 C 397.8125 584.742188 399.34375 588.898438 400.046875 590.941406 C 400.75 593.050781 401.515625 596.117188 401.773438 597.648438 C 402.027344 599.246094 402.476562 600.972656 402.730469 601.484375 C 403.113281 602.183594 404.136719 600.714844 406.308594 596.371094 C 407.96875 593.050781 411.035156 587.746094 413.144531 584.550781 C 415.253906 581.421875 418.832031 576.503906 421.128906 573.691406 C 423.367188 570.945312 428.414062 565.066406 432.3125 560.722656 C 436.273438 556.3125 443.363281 549.160156 448.089844 544.816406 C 452.882812 540.40625 461.058594 533.378906 466.296875 529.164062 C 471.601562 524.945312 479.90625 518.8125 484.824219 515.554688 C 489.746094 512.296875 496.390625 508.335938 499.519531 506.738281 L 505.269531 503.800781 C 496.902344 495.109375 492.8125 490.191406 490.894531 487.253906 L 487.316406 481.949219 Z M 253.875 503.671875 C 251.957031 504.5 247.613281 506.546875 244.289062 508.335938 C 240.96875 510.125 234.644531 513.957031 230.234375 516.832031 C 225.828125 519.769531 217.648438 525.519531 212.027344 529.738281 C 206.40625 533.953125 199.058594 539.640625 195.738281 542.386719 C 192.414062 545.199219 185.769531 550.949219 181.042969 555.164062 C 176.316406 559.382812 170.566406 564.429688 168.265625 566.410156 C 165.964844 568.390625 160.214844 572.988281 155.488281 576.628906 C 150.761719 580.273438 144.179688 585.832031 140.984375 589.023438 C 136.195312 593.6875 135.042969 595.15625 135.042969 596.691406 C 134.980469 598.289062 135.363281 598.800781 137.089844 599.566406 C 138.6875 600.269531 141.367188 600.523438 147.820312 600.460938 C 154.976562 600.398438 157.53125 600.078125 162.835938 598.671875 C 166.347656 597.777344 172.546875 595.667969 176.570312 594.070312 C 180.59375 592.472656 188.390625 588.898438 193.820312 586.148438 C 199.25 583.464844 206.46875 579.570312 209.792969 577.523438 C 213.113281 575.480469 218.417969 572.09375 221.609375 569.984375 C 224.742188 567.878906 230.683594 563.660156 234.707031 560.59375 C 238.734375 557.527344 245.183594 552.289062 249.082031 548.96875 C 252.914062 545.644531 259.941406 539.066406 264.671875 534.335938 C 269.335938 529.671875 275.851562 522.453125 279.046875 518.429688 C 282.304688 514.40625 286.136719 509.355469 287.671875 507.25 L 290.355469 503.414062 C 287.351562 502.203125 284.414062 501.371094 281.984375 500.859375 C 279.492188 500.347656 275.019531 499.964844 271.890625 499.964844 C 268.824219 499.964844 264.351562 500.539062 261.859375 501.117188 C 259.367188 501.753906 255.789062 502.90625 253.875 503.671875 Z M 514.023438 504.886719 C 513.449219 505.203125 515.8125 507.183594 520.730469 510.507812 C 524.882812 513.320312 531.847656 517.726562 536.253906 520.21875 C 540.664062 522.644531 547.945312 526.671875 552.546875 529.164062 C 557.082031 531.589844 565.578125 536.699219 571.394531 540.597656 C 577.207031 544.496094 585.640625 549.796875 590.238281 552.417969 C 594.777344 555.035156 611.898438 563.980469 628.253906 572.222656 C 644.609375 580.527344 660.261719 588.003906 663.070312 588.960938 C 665.882812 589.855469 669.394531 590.8125 670.863281 591.070312 C 673.230469 591.515625 673.613281 591.453125 673.996094 590.300781 C 674.1875 589.601562 674.25 588.449219 674.058594 587.746094 C 673.804688 587.042969 672.71875 585.0625 671.566406 583.339844 C 670.417969 581.550781 667.160156 577.714844 664.347656 574.777344 C 661.539062 571.773438 656.363281 566.917969 652.847656 563.851562 C 649.335938 560.851562 643.585938 556.1875 640.070312 553.503906 C 636.558594 550.820312 629.53125 545.902344 624.417969 542.578125 C 619.308594 539.191406 611.257812 534.273438 606.53125 531.527344 C 601.804688 528.84375 594.328125 524.816406 589.921875 522.582031 C 585.511719 520.410156 578.738281 517.214844 574.90625 515.554688 C 571.007812 513.894531 564.875 511.402344 561.171875 510.125 C 557.464844 508.78125 551.589844 506.929688 548.074219 506.035156 C 544.558594 505.140625 539.640625 504.117188 537.214844 503.800781 C 534.722656 503.414062 530.3125 503.160156 527.3125 503.222656 C 524.308594 503.222656 520.285156 503.542969 518.367188 503.863281 C 516.449219 504.183594 514.46875 504.628906 514.023438 504.886719 Z M 389.761719 587.746094 C 388.867188 590.558594 387.652344 595.285156 387.144531 598.289062 C 386.566406 601.289062 385.929688 606.464844 385.738281 609.789062 C 385.546875 613.109375 385.671875 618.285156 386.054688 621.289062 C 386.441406 624.289062 387.335938 627.867188 387.972656 629.273438 C 388.675781 630.679688 389.761719 632.085938 390.402344 632.339844 C 391.167969 632.679688 392.082031 632.445312 393.148438 631.636719 C 394.042969 631 395.382812 629.144531 396.152344 627.613281 C 396.980469 626.078125 398.066406 622.246094 398.640625 619.050781 C 399.34375 615.089844 399.535156 611.320312 399.34375 606.914062 C 399.152344 603.398438 398.386719 598.351562 397.683594 595.734375 C 396.980469 593.113281 395.640625 589.089844 394.679688 586.789062 C 393.785156 584.488281 392.828125 582.378906 392.574219 582.125 C 392.316406 581.804688 391.933594 581.804688 391.742188 582.125 C 391.550781 582.378906 390.65625 584.9375 389.761719 587.746094 Z M 389.761719 587.746094 " fill-opacity="1" fill-rule="evenodd"/></g></svg>