<svg xmlns="http://www.w3.org/2000/svg" xmlns:xlink="http://www.w3.org/1999/xlink" width="1080" zoomAndPan="magnify" viewBox="0 0 810 809.999993" height="1080" preserveAspectRatio="xMidYMid meet" version="1.0"><defs><clipPath id="ee9491606c"><path d="M 154.3125 83 L 651 83 L 651 729 L 154.3125 729 Z M 154.3125 83 " clip-rule="nonzero"/></clipPath></defs><g clip-path="url(#ee9491606c)"><path fill="#a78bfa" d="M 389.15625 83.363281 C 358.964844 85.582031 338.214844 97 321.265625 120.734375 C 308.339844 138.832031 301.964844 158.816406 300.292969 186.480469 C 300.1875 188.242188 300.039062 190.027344 299.96875 190.449219 C 298.46875 199.203125 300.066406 215.445312 302.777344 218.992188 C 303.835938 220.382812 303.851562 220.445312 303.644531 222.441406 C 302.609375 232.363281 297.296875 238.925781 285.691406 244.628906 C 281.511719 246.683594 280.015625 247.855469 280.015625 249.074219 C 280.015625 254.621094 296.664062 251.304688 314.089844 242.28125 C 319.355469 239.550781 323.9375 237.433594 324.578125 237.433594 C 324.710938 237.433594 324.664062 237.949219 324.480469 238.578125 C 322.554688 245.085938 324.878906 251.554688 331.75 258.808594 C 338.441406 265.871094 339 267.65625 338.457031 280.300781 C 338.007812 290.859375 339.210938 294.167969 346.492188 302.375 C 351.738281 308.300781 353.066406 310.800781 355.082031 318.59375 C 357.457031 327.796875 358.636719 329.777344 366.511719 337.816406 C 369.714844 341.085938 372.714844 344.273438 373.175781 344.902344 C 374.027344 346.0625 377.9375 352.566406 377.84375 352.667969 C 377.816406 352.699219 376.722656 352.589844 375.414062 352.429688 C 357.222656 350.167969 335.460938 362.953125 318.234375 386.019531 C 307.625 400.222656 301.722656 416.480469 305.359375 421.488281 C 305.695312 421.949219 305.90625 422.328125 305.824219 422.328125 C 305.59375 422.328125 297 419.460938 292.207031 417.78125 C 277.835938 412.75 267.941406 413.921875 260.929688 421.496094 C 257.234375 425.488281 254.710938 430.128906 254.25 433.769531 C 254.140625 434.609375 253.984375 435.746094 253.902344 436.296875 L 253.746094 437.296875 L 252.921875 436.742188 C 250.035156 434.78125 245.726562 434.277344 231.140625 434.195312 C 219.699219 434.128906 215.84375 433.886719 202.0625 432.375 C 194.253906 431.519531 161.0625 427.695312 158.621094 427.371094 C 156.472656 427.089844 154.273438 428.972656 154.792969 430.65625 C 155.273438 432.21875 159.976562 438.984375 169.253906 451.464844 C 177.457031 462.5 178.507812 463.96875 183.785156 471.78125 C 190.773438 482.125 198.289062 494.71875 206.164062 509.285156 C 208.570312 513.730469 211.535156 519.183594 212.757812 521.40625 L 214.976562 525.445312 L 213.398438 526.71875 C 200.917969 536.855469 195.933594 548.308594 199.425781 558.839844 C 201.417969 564.855469 202.054688 568.230469 201.574219 570.257812 C 201.269531 571.53125 201.265625 572.179688 201.546875 573.238281 C 201.746094 573.976562 201.910156 575.234375 201.914062 576.03125 C 201.917969 578.683594 203.503906 583.265625 205.847656 587.394531 C 207.546875 590.390625 207.625 590.679688 207.867188 595.167969 C 209.21875 620.328125 224.621094 638.441406 250.277344 645.058594 C 264.753906 648.789062 283.613281 645.878906 290.800781 638.808594 L 292.449219 637.1875 L 292.640625 640.433594 C 292.753906 642.222656 292.914062 645.054688 293 646.734375 C 293.875 663.535156 296.167969 665.941406 311.214844 665.835938 C 324.46875 665.738281 324.789062 666.601562 313.34375 671.570312 C 305.746094 674.863281 303.175781 676.679688 302.730469 679.054688 C 302.039062 682.734375 305.535156 683.175781 313.996094 680.476562 C 318.796875 678.9375 322.191406 678.160156 323.210938 678.359375 C 323.574219 678.429688 322.761719 679.222656 320.628906 680.878906 C 312.003906 687.570312 306.535156 696.242188 302.625 709.441406 C 299.664062 719.429688 299.15625 726.808594 301.410156 727.070312 C 302.1875 727.15625 302.210938 727.113281 302.414062 724.929688 C 304.085938 707.097656 311.464844 692.042969 322.871094 683.199219 C 328.492188 678.84375 329.097656 676.71875 325.09375 675.386719 C 322.667969 674.582031 319.863281 674.996094 312.507812 677.242188 C 308.503906 678.46875 306.867188 678.910156 306.867188 678.769531 C 306.867188 678.449219 310.605469 676.609375 314.339844 675.09375 C 323.175781 671.503906 325.171875 669.9375 325.171875 666.601562 C 325.171875 663.4375 321.507812 662.355469 310.65625 662.320312 L 302.699219 662.292969 L 301.199219 661.367188 C 298.273438 659.5625 297.175781 656.007812 296.5 646.121094 C 296.316406 643.4375 296.082031 640.28125 295.980469 639.105469 L 295.789062 636.96875 L 298.46875 640.632812 C 312.488281 659.8125 316.839844 661.707031 364.378906 669.316406 C 380.433594 671.882812 388.273438 673.613281 404.347656 678.144531 C 422.054688 683.136719 427.953125 683.496094 429.222656 679.660156 C 430.289062 676.417969 427.207031 672.410156 408.828125 653.140625 C 395.023438 638.667969 388.664062 631.378906 383.199219 623.773438 C 381.25 621.058594 381.300781 621.054688 384.769531 623.648438 C 386.308594 624.796875 389.96875 627.511719 392.90625 629.675781 C 399.796875 634.753906 400.171875 635.046875 410.867188 643.53125 C 432.878906 660.996094 443.683594 667.269531 467.65625 676.484375 C 514.046875 694.324219 540.320312 692.722656 562.5625 670.691406 C 570.125 663.199219 573.710938 657.730469 582.484375 640.328125 C 590.382812 624.652344 594.578125 617.621094 600.78125 609.660156 C 602.484375 607.476562 602.65625 607.457031 602.035156 609.523438 C 601.09375 612.644531 600.382812 617.007812 599.929688 622.476562 C 598.335938 641.664062 593.542969 649.800781 575.230469 664.4375 C 564.414062 673.082031 562.617188 675.605469 564.964844 678.84375 C 568.042969 683.09375 574.375 680.339844 583.878906 670.613281 C 586.46875 667.96875 589.285156 665.320312 590.136719 664.738281 C 597.085938 659.96875 594.414062 669.128906 586.625 676.769531 C 581.988281 681.320312 578.871094 683.257812 560.867188 692.789062 C 540.246094 703.707031 538.441406 704.828125 538.441406 706.742188 C 538.441406 709.863281 543.945312 712.222656 550.03125 711.707031 C 562.855469 710.621094 573.625 704.292969 585.484375 690.863281 C 596.859375 677.980469 598.550781 678.5625 597.660156 695.082031 C 596.855469 710.023438 597.570312 720.414062 599.808594 726.414062 C 600.816406 729.097656 602.402344 729.449219 601.5 726.789062 C 599.710938 721.496094 599.105469 708.644531 599.988281 694.789062 C 601.175781 676.203125 596.328125 674.046875 584.195312 687.769531 C 570.4375 703.332031 560.589844 708.953125 547.96875 708.449219 C 538.722656 708.078125 539.304688 707.375 555.832031 698.894531 C 580.324219 686.335938 584.730469 683.675781 590.164062 678.191406 C 596.355469 671.945312 598.972656 665.609375 596.859375 662 C 594.363281 657.742188 590.261719 659.507812 580.542969 669.019531 C 573.820312 675.597656 572.375 676.625 569.3125 676.988281 C 565.664062 677.417969 568.429688 674.15625 578.28125 666.402344 C 597.3125 651.421875 602.363281 643.003906 603.886719 623.699219 C 604.429688 616.792969 604.621094 615.570312 606.070312 609.816406 C 607.355469 604.683594 607.429688 603.375 606.503906 602.074219 C 603.28125 597.542969 591.976562 612.472656 578.246094 639.410156 C 570.726562 654.15625 566.761719 660.351562 560.679688 666.839844 C 546.070312 682.417969 528.957031 687.507812 505.417969 683.269531 L 502.449219 682.734375 L 509.386719 682.722656 C 517.289062 682.710938 519.90625 682.304688 525.902344 680.164062 C 538.117188 675.808594 543.789062 671.113281 558.378906 653.292969 C 565.699219 644.347656 570.050781 639.167969 579.78125 627.816406 C 606.914062 596.171875 621.527344 572.710938 634.902344 539.335938 C 655.59375 487.703125 655.183594 446.738281 633.710938 420.199219 C 632.585938 418.808594 631.835938 417.402344 630.882812 414.902344 C 622.855469 393.824219 606.488281 374.792969 583.136719 359.394531 C 580.269531 357.503906 578.390625 355.914062 574.441406 352.039062 C 550.28125 328.316406 518.726562 304.683594 507.191406 301.679688 C 505.25 301.171875 504.328125 301.273438 502.859375 302.15625 L 501.90625 302.730469 L 501.695312 300.597656 C 501.582031 299.425781 501.648438 295.375 501.847656 291.601562 C 502.820312 273.125 502.085938 265.765625 497.550781 248.417969 C 492.011719 227.230469 491.890625 224.355469 495.886719 208.550781 C 497.59375 201.800781 497.964844 199.132812 497.804688 194.882812 L 497.671875 191.417969 L 498.933594 192.453125 C 504.5 197.015625 510.796875 194.175781 510.265625 187.34375 C 509.957031 183.285156 508.300781 180.367188 504.28125 176.769531 C 501.625 174.398438 501.152344 173.488281 499.984375 168.59375 C 498.1875 161.019531 496.644531 159.367188 490.835938 158.828125 L 488.710938 158.632812 L 488.40625 157.53125 C 488.234375 156.925781 487.742188 154.4375 487.3125 152.007812 C 484.6875 137.164062 478.96875 126.234375 467.597656 114.324219 C 447.117188 92.871094 417.707031 81.265625 389.15625 83.363281 M 402.378906 87.316406 C 425.253906 88.992188 448.039062 99.898438 465.480469 117.527344 C 476.09375 128.261719 481.5625 138.636719 484.125 152.925781 C 484.636719 155.796875 485.089844 158.308594 485.128906 158.503906 C 485.179688 158.753906 484.109375 158.929688 481.691406 159.085938 C 449.917969 161.089844 436.511719 164.816406 412.566406 178.316406 C 397.414062 186.855469 394.972656 187.824219 371.890625 194.441406 C 330.011719 206.449219 309.957031 212.875 306.667969 215.339844 L 305.710938 216.058594 L 305.101562 214.617188 C 303.074219 209.851562 303.441406 194.910156 306.101562 174.433594 C 308.863281 153.136719 316.175781 135.367188 329.019531 118.75 C 346.339844 96.335938 372.496094 85.128906 402.378906 87.316406 M 487.414062 163.523438 C 490.445312 167.402344 490.410156 168.078125 487.027344 171.277344 C 483.589844 174.527344 483.15625 178.425781 485.902344 181.371094 L 486.6875 182.210938 L 484.914062 182.210938 C 478.828125 182.210938 470.394531 184.289062 459.570312 188.460938 C 456.214844 189.753906 451.339844 191.539062 448.738281 192.433594 C 442.882812 194.441406 440.71875 195.332031 437.601562 197.003906 C 436.257812 197.726562 433.582031 198.824219 431.652344 199.4375 C 425.203125 201.5 417.386719 204.390625 403.582031 209.816406 C 381.230469 218.601562 358.542969 225.691406 331.75 232.265625 C 324.820312 233.964844 325.339844 233.976562 325.808594 232.113281 C 327.652344 224.796875 321.023438 218.214844 311.8125 218.214844 C 308.339844 218.214844 308.167969 218.039062 310.488281 216.859375 C 314.246094 214.957031 334.9375 208.5625 371.242188 198.082031 C 397.277344 190.570312 400.769531 189.214844 415.8125 180.816406 C 437.324219 168.804688 449.65625 165.332031 480.011719 162.726562 C 486.152344 162.199219 486.402344 162.222656 487.414062 163.523438 M 494.570312 164.113281 C 495.382812 165.011719 495.996094 166.726562 496.824219 170.414062 C 498.058594 175.90625 498.378906 176.414062 503.542969 181.105469 C 507.585938 184.78125 508.152344 191.363281 504.425781 191.363281 C 503.371094 191.363281 496.996094 186.730469 496.964844 185.9375 C 496.921875 185.007812 495.769531 183.914062 493.316406 182.46875 C 486.464844 178.4375 486.109375 177.046875 490.84375 172.769531 C 494.378906 169.578125 495.074219 166.539062 492.945312 163.550781 L 492.285156 162.625 L 493.167969 163.082031 C 493.652344 163.332031 494.285156 163.796875 494.570312 164.113281 M 488.046875 185.585938 C 492.410156 186.519531 494.898438 191.523438 494.179688 197.929688 C 493.886719 200.558594 490.515625 214.542969 490.179688 214.546875 C 490.0625 214.550781 489.886719 214.292969 489.785156 213.972656 C 488.808594 210.898438 483.894531 208.371094 478.570312 208.203125 C 466.410156 207.828125 457.160156 216.210938 455.871094 228.773438 C 455.671875 230.742188 455.652344 230.773438 454.871094 230.589844 C 452.816406 230.097656 450.003906 230.082031 447.824219 230.542969 C 441.871094 231.804688 439.332031 230.171875 435.648438 222.710938 C 428.324219 207.882812 431.402344 202.265625 450.308594 195.929688 C 453.390625 194.898438 458.585938 192.984375 461.859375 191.675781 C 468.859375 188.878906 472.324219 187.742188 477.125 186.667969 C 482.914062 185.375 485.761719 185.09375 488.046875 185.585938 M 429.824219 203.683594 C 429.824219 203.746094 429.515625 204.464844 429.136719 205.285156 C 426.492188 211.015625 430.253906 224.914062 436.207031 231.402344 C 439.402344 234.890625 442.730469 235.691406 448.65625 234.402344 C 454.816406 233.0625 455.148438 233.574219 455.144531 244.433594 C 455.140625 272.621094 451.617188 297.847656 445.507812 313.457031 C 434.699219 341.09375 403.316406 367.375 391.417969 358.757812 C 390.644531 358.195312 388.875 357.140625 387.496094 356.421875 C 384.664062 354.941406 382.957031 353.167969 380.503906 349.164062 C 376.003906 341.8125 375.222656 340.804688 369.878906 335.527344 C 362.164062 327.898438 361.164062 326.238281 358.71875 316.984375 C 356.585938 308.914062 354.945312 305.804688 349.578125 299.675781 C 342.753906 291.886719 342.171875 290.128906 342.460938 278.164062 C 342.769531 265.589844 342.226562 264.058594 334.667969 256.230469 C 328.03125 249.355469 326.734375 246.640625 327.105469 240.414062 C 327.339844 236.480469 327.402344 236.386719 330.277344 235.765625 C 347.136719 232.125 372.472656 224.871094 388.9375 218.964844 C 393.96875 217.160156 396.574219 216.171875 411.210938 210.488281 C 423.425781 205.746094 429.824219 203.410156 429.824219 203.683594 M 479.921875 211.84375 C 485.527344 213.03125 489.300781 218.886719 489.328125 226.445312 C 489.335938 227.875 489.46875 230.003906 489.628906 231.179688 C 490.335938 236.453125 488.179688 254.164062 486.101562 260.109375 C 481.976562 271.921875 469.714844 270.015625 464.304688 256.722656 C 462.460938 252.195312 460.519531 242.070312 461.601562 242.648438 C 462.402344 243.074219 462.667969 242.179688 462.730469 238.808594 C 462.894531 230.171875 469.058594 224.105469 473.910156 227.804688 C 476.976562 230.144531 477.054688 233.34375 474.207031 240.335938 C 471.390625 247.246094 471.230469 250.3125 473.425781 254.988281 C 475.617188 259.644531 474.679688 261.765625 471.011719 260.472656 C 467.753906 259.320312 467.285156 260.964844 470.40625 262.601562 C 475.84375 265.457031 479.125 260.582031 476.128906 254.101562 C 474.179688 249.875 474.246094 247.515625 476.46875 242.46875 C 481.632812 230.746094 479.378906 224.011719 470.28125 224.011719 C 465.101562 224.011719 460.488281 230.089844 460.320312 237.132812 L 460.292969 238.195312 L 459.90625 236.976562 C 459.695312 236.308594 459.285156 235.304688 459 234.753906 C 458.035156 232.90625 459.257812 226.046875 461.273438 221.976562 C 464.628906 215.207031 473.371094 210.457031 479.921875 211.84375 M 315.757812 222.671875 C 320.761719 224.261719 323.359375 228.402344 322.390625 233.238281 C 322.058594 234.886719 322.003906 234.953125 320.636719 235.464844 C 319.855469 235.753906 316.546875 237.324219 313.273438 238.960938 C 298.695312 246.242188 288.113281 250.023438 284.042969 249.414062 C 282.691406 249.207031 283.03125 248.984375 288.429688 246.515625 C 300.132812 241.160156 305.371094 234.535156 306.71875 223.386719 L 306.882812 221.992188 L 310.613281 222.109375 C 312.730469 222.175781 314.953125 222.417969 315.757812 222.671875 M 494.503906 252.382812 C 498.351562 267.144531 498.652344 269.34375 498.496094 281.523438 C 498.296875 297.375 498.308594 303.128906 498.550781 304.480469 L 498.78125 305.78125 L 497.777344 305.78125 C 492.761719 305.78125 484.941406 310.683594 473.453125 321.03125 C 470.894531 323.335938 466.324219 327.335938 454.980469 337.203125 C 443.71875 346.996094 434.738281 356.390625 430.796875 362.511719 C 429.867188 363.949219 429.0625 365.179688 429.003906 365.253906 C 428.945312 365.324219 428.453125 364.964844 427.910156 364.449219 C 423.746094 360.496094 418.625 361.898438 412.261719 368.722656 C 407.167969 374.183594 398.644531 386.519531 396.546875 391.464844 L 395.726562 393.402344 L 395.34375 391.808594 C 394.816406 389.609375 395.132812 386.839844 396.273438 383.644531 C 398.675781 376.917969 398.792969 376.46875 398.933594 373.324219 C 399.089844 369.847656 398.652344 367.785156 397.179688 365.046875 L 396.320312 363.445312 L 398.007812 363.445312 C 416.03125 363.445312 441.933594 337.195312 450.710938 310.039062 C 454.863281 297.199219 458.136719 272.785156 458.21875 254.070312 L 458.242188 249.179688 L 458.976562 252.382812 C 461.8125 264.75 468.359375 271.632812 477.253906 271.597656 C 486.375 271.566406 490.609375 265.308594 492.21875 249.488281 C 492.449219 247.21875 492.734375 245.726562 492.859375 246.128906 C 492.910156 246.296875 493.648438 249.113281 494.503906 252.382812 M 509.546875 306.730469 C 517.90625 310.382812 536.476562 323.625 552.332031 337.230469 C 556.679688 340.960938 564.984375 348.480469 564.984375 348.683594 C 564.984375 348.832031 559.296875 345.886719 552.933594 342.445312 C 532.1875 331.230469 510.957031 314.78125 505.648438 305.808594 C 505.273438 305.175781 506.847656 305.550781 509.546875 306.730469 M 500.738281 310.578125 C 502.035156 311.492188 503.585938 313.261719 507.625 318.445312 C 510.304688 321.890625 515.6875 327.53125 518.597656 329.960938 L 520.265625 331.347656 L 518.902344 331.695312 C 507.496094 334.59375 497.808594 341.046875 492.738281 349.125 C 491.847656 350.539062 490.191406 353.136719 489.054688 354.898438 C 484.449219 362.046875 480.058594 370.277344 476.519531 378.394531 C 472.644531 387.285156 470.675781 390.019531 465.714844 393.410156 C 456.738281 399.542969 443.898438 396.9375 434.816406 387.128906 C 423.757812 375.191406 429.910156 363.191406 460.640625 336.734375 C 463.742188 334.0625 469.988281 328.644531 474.519531 324.695312 C 491.679688 309.742188 496.132812 307.34375 500.738281 310.578125 M 517.691406 323.519531 C 518.613281 324.292969 520.933594 326.109375 522.839844 327.558594 C 525.789062 329.792969 526.183594 330.1875 525.46875 330.1875 C 524.1875 330.1875 518.246094 325.191406 514.03125 320.574219 L 512.660156 319.070312 L 514.335938 320.589844 C 515.261719 321.425781 516.769531 322.742188 517.691406 323.519531 M 533.558594 335.074219 C 541.859375 340.5625 545.976562 342.925781 558.417969 349.339844 C 572.5 356.59375 574.40625 357.695312 576.113281 359.539062 C 576.933594 360.429688 578.785156 362.390625 580.226562 363.902344 C 586.246094 370.210938 591.695312 376.277344 590.609375 375.457031 C 579.375 366.976562 554.253906 349.65625 538.691406 339.660156 C 528.292969 332.980469 528.371094 333.035156 528.96875 332.652344 C 529.210938 332.492188 529.554688 332.453125 529.730469 332.558594 C 529.90625 332.664062 531.628906 333.796875 533.558594 335.074219 M 519.585938 337.585938 C 511.945312 345.289062 506.425781 354.375 503.375 364.257812 C 502.230469 367.964844 501.8125 369.949219 500.273438 379.003906 C 495.394531 407.726562 487.554688 420.636719 473.777344 422.648438 C 469.023438 423.34375 465.183594 422.640625 457.027344 419.582031 C 447.679688 416.078125 444.300781 415.8125 434.691406 417.84375 C 424.644531 419.960938 420.785156 419.078125 415.011719 413.328125 C 409.773438 408.117188 402.238281 397.078125 403.191406 396.011719 C 407.433594 391.273438 414.476562 388.292969 418.597656 389.488281 C 422.132812 390.519531 422.816406 391.238281 428.511719 399.925781 C 439.511719 416.695312 460.753906 413.273438 472.628906 392.816406 C 473.234375 391.769531 474.507812 390 475.457031 388.878906 C 479.503906 384.113281 483.832031 376.371094 489.003906 364.664062 C 495.707031 349.496094 500.546875 343.296875 509.0625 338.964844 C 512.660156 337.136719 520.171875 334.582031 522.25 334.480469 C 522.492188 334.46875 521.292969 335.867188 519.585938 337.585938 M 538.589844 343.898438 C 545.464844 348.25 559.957031 357.976562 566.203125 362.425781 C 570.855469 365.742188 572.632812 367 574.746094 368.488281 C 577.113281 370.148438 577.988281 370.777344 583.652344 374.863281 C 589.148438 378.832031 594.640625 382.839844 601.597656 387.964844 C 603.191406 389.136719 606.417969 391.980469 608.765625 394.277344 C 615.644531 401.011719 620.652344 405.042969 622.640625 405.4375 C 623.476562 405.605469 624.191406 406.785156 626.222656 411.324219 L 626.960938 412.980469 L 625.949219 412.152344 C 606.6875 396.417969 580.125 390.683594 560.253906 397.972656 C 532.285156 408.234375 512.113281 434.363281 496.933594 479.992188 C 485.839844 513.339844 486.722656 531.5 500.050781 544.234375 C 501.421875 545.542969 502.277344 546.503906 501.957031 546.371094 C 493.386719 542.867188 489.28125 543.238281 490.808594 547.375 C 492.335938 551.503906 501.421875 557.15625 517.539062 564 C 530 569.285156 537.066406 572.738281 542.933594 576.410156 C 546.363281 578.558594 549.003906 580.546875 548.050781 580.269531 C 547.714844 580.171875 545.449219 579.613281 543.015625 579.027344 C 508.988281 570.835938 502.808594 569.121094 481.886719 562.070312 C 461.480469 555.199219 450.960938 550.070312 431.808594 537.660156 C 417.84375 528.609375 412.507812 525.5 403.527344 521.183594 L 398.769531 518.894531 L 397.210938 515.765625 C 389.84375 500.96875 378.316406 490.410156 367.480469 488.523438 C 363.765625 487.875 360.765625 489.417969 360.402344 492.167969 C 360.300781 492.9375 360.089844 493.84375 359.933594 494.179688 C 357.128906 500.246094 359.03125 504.429688 370.585938 517.601562 C 377.71875 525.734375 379.027344 528.160156 379.015625 533.234375 C 379.003906 538.617188 377.996094 540.148438 367.894531 550.167969 C 356.808594 561.164062 352.660156 570.242188 354.738281 578.949219 C 354.894531 579.589844 354.980469 580.070312 354.933594 580.015625 C 352.6875 577.414062 338.242188 557.46875 335.105469 552.640625 C 331.722656 547.429688 321.816406 530.4375 321.816406 529.847656 C 321.816406 529.785156 322.332031 529.476562 322.960938 529.152344 C 325.113281 528.054688 326.933594 525.3125 331.289062 516.582031 C 335.359375 508.429688 337.398438 504.796875 342.585938 496.429688 C 350.214844 484.136719 351.734375 479.800781 350.804688 472.976562 C 349.554688 463.753906 343.386719 453.25 332.8125 442.339844 C 330.875 440.34375 329.566406 438.808594 329.898438 438.933594 C 333.238281 440.183594 337.839844 440.25 343.171875 439.136719 C 362.351562 435.121094 369.265625 431.609375 367.136719 426.949219 C 364.761719 421.753906 357.542969 421.570312 348.203125 426.46875 C 342.484375 429.46875 341.230469 429.746094 334.640625 429.472656 C 329.058594 429.242188 327.492188 429.503906 325.636719 430.988281 L 324.730469 431.714844 L 322.585938 429.964844 C 318.527344 426.648438 316.160156 425.367188 311.332031 423.875 L 308.628906 423.039062 L 309.589844 422.640625 C 310.933594 422.085938 313.640625 418.996094 315.289062 416.140625 C 316.882812 413.371094 317.691406 411.535156 321.347656 402.34375 C 327.265625 387.476562 331.5625 380.277344 339.085938 372.628906 L 342.511719 369.148438 L 345.273438 369.355469 C 353.835938 370.003906 360.296875 374.066406 362.574219 380.234375 C 362.9375 381.222656 363.144531 383.3125 363.324219 387.855469 C 363.855469 401.101562 366.84375 406.542969 375.167969 409.410156 C 381.753906 411.679688 387.796875 410.421875 395.023438 405.273438 C 400.527344 401.351562 401.425781 401.222656 403.171875 404.097656 C 412.769531 419.921875 421.289062 424.359375 436.078125 421.226562 C 445.257812 419.285156 448.304688 419.519531 457.273438 422.847656 C 464.429688 425.503906 465.898438 425.824219 471.011719 425.828125 C 487.808594 425.847656 497.496094 411.90625 503.03125 379.765625 C 503.726562 375.738281 504.566406 371.140625 504.90625 369.542969 C 507.167969 358.859375 513.449219 347.882812 522.648438 338.539062 L 525.6875 335.453125 L 529.394531 337.9375 C 531.433594 339.304688 535.570312 341.984375 538.589844 343.898438 M 376.292969 356.753906 C 379.914062 357.257812 382.371094 358.140625 384.464844 359.691406 C 386.558594 361.242188 389.488281 362.734375 390.996094 363.019531 C 395.691406 363.902344 397.105469 372.332031 393.996094 380.914062 C 392.21875 385.816406 391.886719 387.417969 392.054688 390.308594 L 392.191406 392.664062 L 390.640625 393.132812 C 389.789062 393.390625 387.542969 394.238281 385.644531 395.023438 C 374.523438 399.609375 369.105469 394.757812 372.011719 382.816406 C 374.546875 372.402344 371.769531 367.507812 361.785156 364.78125 C 359.648438 364.203125 352.519531 363.992188 349.886719 364.4375 L 348.511719 364.667969 L 350.648438 363.265625 C 358.964844 357.808594 367.777344 355.566406 376.292969 356.753906 M 425.492188 366.195312 C 427.09375 367.175781 427.503906 368.527344 426.902344 370.847656 C 422.25 388.792969 448.761719 407.347656 465.0625 397.558594 C 466.566406 396.652344 466.5625 396.914062 465.042969 398.691406 C 460.613281 403.875 453.476562 407.195312 446.757812 407.199219 C 439.453125 407.203125 435.089844 404.578125 430.597656 397.460938 C 421.863281 383.632812 414.957031 382.207031 403.820312 391.925781 C 400.25 395.039062 400.074219 395.15625 399.339844 394.964844 C 398.101562 394.640625 399.769531 391.117188 404.433594 384.191406 C 415.261719 368.109375 420.828125 363.351562 425.492188 366.195312 M 361.347656 367.414062 C 369.078125 369.390625 371.128906 373.351562 369.066406 382.320312 C 366.832031 392.023438 368.351562 396.351562 374.824219 398.726562 C 379.007812 400.261719 382.136719 399.910156 388.339844 397.214844 C 393.164062 395.117188 393.023438 395.125 394.59375 396.917969 C 395.324219 397.753906 396.332031 398.636719 396.835938 398.878906 L 397.75 399.324219 L 394.488281 401.621094 C 387.625 406.445312 383.4375 407.867188 378.382812 407.074219 C 370.457031 405.835938 367.003906 400.140625 366.371094 387.242188 C 365.820312 376.097656 361.558594 370.734375 351.105469 368.054688 C 347.898438 367.230469 348.960938 366.910156 355.097656 366.839844 C 358.058594 366.808594 359.496094 366.941406 361.347656 367.414062 M 595.648438 372.78125 C 602.476562 378.449219 614.164062 390.515625 616.03125 393.832031 C 616.664062 394.957031 608.730469 388.492188 606.019531 385.671875 C 600.75 380.195312 590.480469 368.84375 591.09375 369.175781 C 591.417969 369.347656 593.464844 370.972656 595.648438 372.78125 M 331.882812 375.289062 C 331.882812 375.429688 331.117188 376.5625 330.183594 377.804688 C 325.710938 383.757812 322.308594 390.363281 317.710938 401.996094 C 313.355469 413.007812 311.316406 417.082031 309.308594 418.769531 C 308.039062 419.839844 307.78125 419.613281 307.78125 417.414062 C 307.78125 407.726562 317.640625 389.492188 329.414062 377.402344 C 331.8125 374.9375 331.882812 374.878906 331.882812 375.289062 M 583.59375 399.28125 C 595.828125 400.582031 608.738281 405.167969 618.335938 411.621094 C 624.367188 415.679688 629.976562 421.140625 630.707031 423.664062 C 638.238281 449.722656 640.753906 496.433594 636.050781 523.011719 C 634.5625 531.441406 623.769531 555.910156 614.179688 572.609375 C 603.054688 591.988281 594.855469 603.273438 575.214844 626.289062 C 564.292969 639.089844 562.125 641.675781 556.292969 648.867188 C 538.9375 670.265625 531.769531 675.738281 517.996094 678.125 C 500.957031 681.078125 481.378906 674.398438 451.007812 655.261719 C 438.972656 647.679688 435.921875 645.851562 423.628906 638.835938 C 399.546875 625.09375 390.8125 619.445312 382.71875 612.375 C 380.914062 610.800781 378.980469 609.167969 378.417969 608.75 C 377.699219 608.214844 376.765625 606.761719 375.273438 603.863281 C 370.484375 594.566406 371.167969 592.285156 383.113281 577.777344 C 390.945312 568.269531 393.933594 564.148438 397.257812 558.253906 C 403.246094 547.636719 404.78125 536.945312 401.746094 526.96875 C 401.417969 525.886719 401.144531 524.890625 401.144531 524.757812 C 401.132812 523.761719 415.769531 532.179688 428.601562 540.554688 C 451.003906 555.171875 459.429688 559.242188 482.148438 566.4375 C 500.816406 572.34375 510.117188 574.90625 532.335938 580.257812 C 549.355469 584.355469 550.617188 584.597656 552.257812 584.054688 C 557.25 582.40625 550.621094 575.5625 536.761719 568.050781 C 531.890625 565.40625 531.492188 564.992188 536.003906 567.253906 C 547.53125 573.039062 553.292969 574.21875 554.507812 571.042969 C 555.746094 567.824219 550.410156 564.394531 535.386719 558.75 C 511.867188 549.917969 500.773438 542.285156 495.703125 531.453125 C 486.40625 511.585938 509.40625 445.210938 534.320312 419.992188 C 549.960938 404.160156 566.019531 397.410156 583.59375 399.28125 M 282.761719 418.382812 C 285.675781 418.851562 288.929688 419.863281 295.339844 422.296875 C 298.480469 423.488281 303.765625 425.222656 307.082031 426.15625 C 316.023438 428.664062 323.246094 432.636719 323.320312 435.085938 C 323.375 436.914062 324.925781 439.097656 329.753906 444.140625 C 343.269531 458.253906 349.089844 471.046875 346.539062 481.023438 C 345.671875 484.40625 344.113281 487.511719 339.472656 495.097656 C 333.667969 504.582031 332.726562 506.296875 328.261719 515.445312 C 321.832031 528.613281 322.058594 528.542969 316.628906 519.046875 C 313.425781 513.4375 309.785156 508.085938 304.710938 501.503906 C 302.507812 498.648438 299.492188 494.589844 298.007812 492.476562 C 294.339844 487.269531 293.03125 485.886719 288.734375 482.691406 C 285.167969 480.035156 280.320312 474.703125 280.320312 473.433594 C 280.320312 472.554688 283.363281 472.429688 286.902344 473.164062 C 290.210938 473.847656 291.824219 473.621094 292.914062 472.320312 C 295.035156 469.785156 293.183594 468.085938 287.3125 467.1875 C 279.699219 466.019531 273.984375 462.644531 271.636719 457.9375 C 270.394531 455.445312 270.9375 455.339844 281.417969 456.070312 C 290.425781 456.699219 293.226562 456.523438 295.9375 455.171875 C 298.777344 453.757812 299.492188 452.117188 297.945312 450.570312 C 296.011719 448.636719 294.703125 448.570312 288.679688 450.105469 C 280.503906 452.1875 272.460938 451.792969 267.3125 449.058594 C 262.695312 446.605469 262.191406 439.484375 266.382812 435.894531 C 270.519531 432.34375 274.96875 431.910156 284.800781 434.097656 C 287.761719 434.757812 289.25 435.664062 296.449219 441.203125 C 300.582031 444.382812 303.238281 445.003906 304.210938 443.023438 C 305.953125 439.457031 299.941406 435.449219 286.96875 431.519531 C 277.789062 428.738281 270.605469 428.679688 265.15625 431.347656 C 260.625 433.5625 258.582031 440.472656 260.644531 446.628906 C 264.988281 459.605469 273.292969 472.449219 291.597656 494.484375 C 305.730469 511.5 310.222656 517.984375 319.886719 535.308594 C 329.535156 552.609375 332.5 557.078125 345.585938 574.09375 C 355.410156 586.863281 357.773438 590.351562 361.9375 598.246094 C 366.273438 606.460938 367.785156 608.878906 370.238281 611.511719 C 371.246094 612.59375 373.46875 615.65625 375.175781 618.324219 C 382.75 630.152344 388.316406 636.804688 406.480469 655.734375 C 422.4375 672.363281 427.164062 678.042969 425.816406 678.976562 C 424.1875 680.101562 415.6875 678.535156 401.664062 674.519531 C 385.457031 669.878906 378.542969 668.359375 360.5625 665.5 C 324.476562 659.757812 319.609375 658.238281 310.285156 649.792969 C 305.824219 645.753906 294.761719 630.902344 293.121094 626.746094 C 291.214844 621.917969 283.640625 610.558594 279.917969 606.941406 C 278.980469 606.03125 278.277344 605.183594 278.351562 605.0625 C 278.671875 604.542969 282.074219 602.882812 287.644531 600.519531 C 296.09375 596.933594 299.226562 594.992188 300.464844 592.5625 C 302.042969 589.46875 300.140625 584.933594 296.890625 584.058594 C 292.890625 582.984375 290.273438 583.460938 276.8125 587.742188 C 263.246094 592.054688 257.570312 593.496094 246.375 595.460938 C 230.007812 598.339844 224.902344 600.652344 224.199219 605.507812 L 224.03125 606.691406 L 222.351562 605.378906 C 219.964844 603.511719 215.816406 599.3125 215.234375 598.179688 L 214.742188 597.21875 L 216.179688 597.6875 C 223.617188 600.109375 241.015625 595.804688 270.710938 584.199219 C 290.703125 576.386719 298.527344 568.441406 292.238281 562.339844 C 288.238281 558.460938 274.359375 558.558594 260.644531 562.558594 C 260.304688 562.65625 262.777344 561.359375 266.136719 559.679688 C 281.070312 552.195312 284.230469 548.28125 279.308594 543.359375 C 272.738281 536.785156 257.074219 537.921875 238.363281 546.332031 L 233.472656 548.53125 L 236.941406 545.042969 C 248.996094 532.921875 253.089844 522.792969 247.8125 518.15625 C 243.367188 514.253906 230.402344 516.578125 217.738281 523.542969 C 217.636719 523.597656 217.375 523.195312 217.152344 522.640625 C 213.117188 512.480469 199.695312 488.734375 188.304688 471.601562 C 181.785156 461.796875 182.59375 462.925781 171.246094 447.652344 C 162.441406 435.804688 159.367188 431.480469 159.734375 431.480469 C 159.859375 431.480469 162.433594 431.832031 165.453125 432.257812 C 173.398438 433.382812 201.378906 436.851562 208.164062 437.550781 C 217.152344 438.484375 219.980469 438.597656 234.859375 438.625 C 250.339844 438.65625 250.542969 438.679688 253.167969 440.9375 C 255.628906 443.050781 257.324219 441.464844 257.769531 436.628906 C 258.964844 423.71875 269.257812 416.207031 282.761719 418.382812 M 363.246094 427.117188 C 366.003906 429.171875 363.414062 430.585938 351.289062 433.640625 C 336.898438 437.269531 333.117188 437.507812 328.714844 435.054688 C 325.65625 433.351562 328.386719 432.597656 335.746094 433.117188 C 341.445312 433.515625 342.757812 433.199219 349.398438 429.824219 C 356.640625 426.144531 360.84375 425.324219 363.246094 427.117188 M 636.78125 431.75 C 646.074219 448.28125 648.59375 469.820312 644.128906 494.636719 C 643.421875 498.570312 640.351562 511.527344 640.167969 511.34375 C 640.121094 511.296875 640.210938 509.613281 640.371094 507.601562 C 642.109375 485.644531 639.886719 448.84375 635.785156 431.621094 C 635.113281 428.808594 635.121094 428.808594 636.78125 431.75 M 299.476562 440.269531 C 300.023438 440.683594 300.410156 441.089844 300.328125 441.171875 C 300.117188 441.382812 297.753906 439.90625 296.492188 438.78125 L 295.425781 437.828125 L 296.949219 438.671875 C 297.789062 439.136719 298.925781 439.855469 299.476562 440.269531 M 293.898438 452.667969 C 292.648438 453.058594 289.257812 453.550781 290.085938 453.222656 C 291.222656 452.773438 293.371094 452.285156 294.203125 452.285156 C 295.058594 452.289062 295.039062 452.3125 293.898438 452.667969 M 268.925781 453.808594 C 268.464844 454.550781 268.28125 454.511719 267.859375 453.585938 C 267.382812 452.539062 267.382812 452.539062 268.390625 452.921875 C 269.144531 453.207031 269.222656 453.335938 268.925781 453.808594 M 279.613281 468.5625 L 281.253906 469.230469 L 278.152344 470.761719 L 276.644531 468.527344 C 274.792969 465.789062 274.792969 465.75 276.554688 466.9375 C 277.332031 467.464844 278.710938 468.195312 279.613281 468.5625 M 371.964844 495.855469 C 379.863281 499.824219 388.367188 507.199219 392.132812 513.355469 C 394.574219 517.339844 395.074219 517.382812 385.734375 512.785156 C 373.746094 506.878906 366.351562 500.816406 364.667969 495.5 C 364.125 493.789062 368.253906 493.992188 371.964844 495.855469 M 364.664062 502.847656 C 368.824219 508.519531 375.890625 513.117188 390.769531 519.847656 L 397.023438 522.675781 L 397.984375 525.359375 C 403.597656 541.027344 398.625 554.726562 378.84375 578.097656 C 368.429688 590.402344 367.441406 594.402344 372.371094 604.277344 C 374.148438 607.835938 373.601562 607.402344 370.988281 603.171875 C 353.546875 574.949219 353.542969 569.808594 370.953125 552.148438 C 385.980469 536.90625 386.421875 531.023438 373.640625 516.453125 C 365.3125 506.957031 362.628906 503.003906 361.941406 499.214844 C 361.761719 498.203125 361.796875 498.230469 362.65625 499.746094 C 363.152344 500.625 364.054688 502.019531 364.664062 502.847656 M 244.550781 520.457031 C 253.292969 523.632812 233.875 547.769531 216.328125 555.527344 C 213.535156 556.761719 209.878906 559.40625 206.738281 562.464844 L 203.789062 565.332031 L 203.457031 563.453125 C 203.28125 562.417969 202.777344 560.414062 202.34375 558.996094 C 199.5625 549.929688 203.617188 540.527344 214.554688 530.683594 C 223.214844 522.890625 237.671875 517.957031 244.550781 520.457031 M 270.316406 542.980469 C 274.492188 543.726562 278.445312 546.078125 278 547.558594 C 277.207031 550.203125 270.644531 553.882812 247.523438 564.660156 C 225.53125 574.910156 219.59375 576.800781 212.296875 575.878906 C 205.980469 575.082031 205.089844 573.984375 207.183594 569.582031 C 210.449219 562.703125 214.105469 559.988281 227.136719 554.785156 C 230.460938 553.457031 235.613281 551.253906 238.582031 549.894531 C 249.085938 545.082031 252.6875 543.9375 261.101562 542.730469 C 263 542.460938 268.179688 542.597656 270.316406 542.980469 M 502.050781 550.6875 C 505.59375 552.238281 530.816406 564.785156 530.421875 564.800781 C 530.289062 564.808594 529.535156 564.484375 528.742188 564.085938 C 527.953125 563.6875 523.734375 561.816406 519.371094 559.933594 C 509.792969 555.796875 504.300781 553.121094 500.882812 550.917969 C 497.738281 548.894531 497.878906 548.867188 502.050781 550.6875 M 285.050781 562.992188 C 298.652344 564.9375 289.625 573.546875 263.917969 583.152344 C 237.128906 593.160156 220.761719 596.441406 215.335938 592.894531 C 214.050781 592.054688 218.582031 586.8125 223.574219 583.371094 C 242.789062 570.113281 270.527344 560.917969 285.050781 562.992188 M 541.824219 565.375 C 544.921875 566.640625 548.839844 568.617188 547.59375 568.289062 C 546.121094 567.898438 538.230469 564.257812 538.769531 564.214844 C 538.867188 564.210938 540.242188 564.730469 541.824219 565.375 M 221.101562 580.347656 C 217.28125 582.890625 214.1875 585.652344 212.855469 587.707031 C 211.363281 590.007812 211.175781 589.808594 208.570312 583.136719 C 206.550781 577.972656 206.507812 578.417969 208.957031 578.964844 C 213.03125 579.878906 218.054688 579.777344 221.894531 578.714844 C 224.464844 578.003906 224.386719 578.164062 221.101562 580.347656 M 296.074219 587.582031 C 300.480469 589.671875 297.183594 593.070312 286.507812 597.429688 C 280.941406 599.707031 277.640625 601.273438 275.640625 602.601562 C 274.554688 603.316406 274.101562 603.410156 271.648438 603.441406 C 268.0625 603.484375 265.398438 604.335938 258.355469 607.6875 C 242.695312 615.136719 236.628906 615.429688 229.921875 609.046875 C 225.367188 604.710938 229.394531 602.242188 246.0625 599.152344 C 257.195312 597.089844 263.867188 595.347656 277.117188 591.035156 C 289.113281 587.132812 293.460938 586.339844 296.074219 587.582031 M 216.667969 605.914062 C 223.59375 612.460938 236.195312 620.160156 246.988281 624.4375 C 258.921875 629.171875 268.609375 625.222656 272.492188 614.042969 C 273.554688 610.980469 274.984375 607.832031 275.316406 607.832031 C 276.699219 607.832031 284.378906 618.058594 289.050781 626.125 C 292.964844 632.882812 288.34375 638.769531 276.964844 641.515625 C 249.148438 648.222656 218.097656 630.34375 212.746094 604.535156 C 212.046875 601.164062 212.109375 600.792969 213.148438 602.21875 C 213.625 602.871094 215.207031 604.535156 216.667969 605.914062 M 271.050781 607.761719 C 270.8125 608.222656 270.121094 610.027344 269.515625 611.769531 C 266.222656 621.222656 260.945312 624.289062 252.097656 621.890625 C 248.871094 621.011719 241.320312 617.355469 242.660156 617.316406 C 244.746094 617.257812 254.953125 613.316406 260.792969 610.316406 C 265.492188 607.902344 268.132812 606.929688 270.03125 606.921875 L 271.488281 606.917969 L 271.050781 607.761719 M 420.210938 641.9375 C 432.945312 649.179688 435.347656 650.613281 445.535156 657.050781 C 460.464844 666.480469 471.5625 672.511719 481.300781 676.484375 C 486.964844 678.792969 486.195312 678.675781 478.457031 676.050781 C 447.65625 665.601562 433.410156 657.316406 402.058594 631.621094 C 401.472656 631.140625 403.324219 632.132812 406.179688 633.824219 C 409.027344 635.519531 415.34375 639.171875 420.210938 641.9375 " fill-opacity="1" fill-rule="evenodd"/></g></svg>